<svg xmlns="http://www.w3.org/2000/svg" width="900" height="290" style="font-family: -apple-system, BlinkMacSystemFont, 'Segoe UI', Helvetica, Arial, sans-serif;">
  <rect width="100%" height="100%" fill="white"/>
  <g>
    <line x1="40" y1="220.00" x2="860" y2="220.00" stroke="#e5e7eb"/><text x="32" y="224.00" font-size="10" fill="#111827" text-anchor="end">0</text><line x1="40" y1="175.00" x2="860" y2="175.00" stroke="#e5e7eb"/><text x="32" y="179.00" font-size="10" fill="#111827" text-anchor="end">25k</text><line x1="40" y1="130.00" x2="860" y2="130.00" stroke="#e5e7eb"/><text x="32" y="134.00" font-size="10" fill="#111827" text-anchor="end">50k</text><line x1="40" y1="85.00" x2="860" y2="85.00" stroke="#e5e7eb"/><text x="32" y="89.00" font-size="10" fill="#111827" text-anchor="end">75k</text><line x1="40" y1="40.00" x2="860" y2="40.00" stroke="#e5e7eb"/><text x="32" y="44.00" font-size="10" fill="#111827" text-anchor="end">100k</text>
    <line x1="40.00" y1="40" x2="40.00" y2="220" stroke="#e5e7eb" opacity="0.5"/><line x1="121.26" y1="40" x2="121.26" y2="220" stroke="#e5e7eb" opacity="0.5"/><line x1="202.52" y1="40" x2="202.52" y2="220" stroke="#e5e7eb" opacity="0.5"/><line x1="283.78" y1="40" x2="283.78" y2="220" stroke="#e5e7eb" opacity="0.5"/><line x1="365.05" y1="40" x2="365.05" y2="220" stroke="#e5e7eb" opacity="0.5"/><line x1="446.31" y1="40" x2="446.31" y2="220" stroke="#e5e7eb" opacity="0.5"/><line x1="527.57" y1="40" x2="527.57" y2="220" stroke="#e5e7eb" opacity="0.5"/><line x1="608.83" y1="40" x2="608.83" y2="220" stroke="#e5e7eb" opacity="0.5"/><line x1="690.09" y1="40" x2="690.09" y2="220" stroke="#e5e7eb" opacity="0.5"/><line x1="771.35" y1="40" x2="771.35" y2="220" stroke="#e5e7eb" opacity="0.5"/><line x1="852.61" y1="40" x2="852.61" y2="220" stroke="#e5e7eb" opacity="0.5"/>
    <line x1="40" y1="220" x2="860" y2="220" stroke="#9ca3af"/>
    <line x1="40" y1="40"   x2="40"   y2="220" stroke="#9ca3af"/>
    <path d="M 40.00 220.00 L 42.46 220.00 L 44.92 219.60 L 47.39 219.62 L 49.85 219.63 L 52.31 219.32 L 54.77 219.31 L 57.24 219.26 L 59.70 218.89 L 62.16 218.89 L 64.62 218.89 L 67.09 218.87 L 69.55 218.87 L 72.01 218.86 L 74.47 218.85 L 76.94 218.85 L 79.40 218.82 L 81.86 218.78 L 84.32 218.72 L 86.79 218.68 L 89.25 218.64 L 91.71 218.59 L 94.17 218.59 L 96.64 218.57 L 99.10 218.57 L 101.56 218.57 L 104.02 218.57 L 106.49 218.57 L 108.95 218.57 L 111.41 218.57 L 113.87 218.57 L 116.34 218.57 L 118.80 218.55 L 121.26 218.54 L 123.72 218.58 L 126.19 218.55 L 128.65 218.55 L 131.11 218.53 L 133.57 218.31 L 136.04 217.94 L 138.50 217.88 L 140.96 217.87 L 143.42 217.86 L 145.89 217.85 L 148.35 217.84 L 150.81 217.85 L 153.27 217.82 L 155.74 217.66 L 158.20 217.61 L 160.66 217.60 L 163.12 217.57 L 165.59 217.56 L 168.05 217.52 L 170.51 217.38 L 172.97 217.24 L 175.44 216.93 L 177.90 216.65 L 180.36 216.44 L 182.82 216.39 L 185.29 216.34 L 187.75 216.83 L 190.21 200.94 L 192.67 200.94 L 195.14 200.95 L 197.60 198.99 L 200.06 198.98 L 202.52 198.94 L 204.98 198.94 L 207.45 198.91 L 209.91 198.90 L 212.37 198.93 L 214.83 198.93 L 217.30 198.99 L 219.76 198.95 L 222.22 198.96 L 224.68 198.95 L 227.15 198.95 L 229.61 198.97 L 232.07 198.97 L 234.53 198.97 L 237.00 198.97 L 239.46 198.97 L 241.92 198.97 L 244.38 198.97 L 246.85 198.97 L 249.31 198.97 L 251.77 198.97 L 254.23 198.97 L 256.70 197.51 L 259.16 197.43 L 261.62 197.40 L 264.08 197.38 L 266.55 197.38 L 269.01 197.49 L 271.47 197.34 L 273.93 197.33 L 276.40 197.18 L 278.86 197.41 L 281.32 197.41 L 283.78 197.29 L 286.25 197.29 L 288.71 197.22 L 291.17 197.21 L 293.63 197.15 L 296.10 196.94 L 298.56 197.00 L 301.02 197.41 L 303.48 197.41 L 305.95 197.30 L 308.41 197.26 L 310.87 197.19 L 313.33 197.19 L 315.80 197.19 L 318.26 197.19 L 320.72 197.18 L 323.18 197.12 L 325.65 197.09 L 328.11 197.04 L 330.57 197.00 L 333.03 196.96 L 335.50 196.92 L 337.96 196.91 L 340.42 196.86 L 342.88 196.80 L 345.35 196.75 L 347.81 196.69 L 350.27 196.66 L 352.73 196.63 L 355.20 196.56 L 357.66 196.51 L 360.12 196.47 L 362.58 196.45 L 365.05 196.40 L 367.51 196.37 L 369.97 196.34 L 372.43 196.28 L 374.89 196.20 L 377.36 196.12 L 379.82 196.02 L 382.28 195.89 L 384.74 195.77 L 387.21 195.68 L 389.67 195.63 L 392.13 195.58 L 394.59 195.53 L 397.06 195.44 L 399.52 195.35 L 401.98 195.22 L 404.44 195.11 L 406.91 194.95 L 409.37 194.82 L 411.83 194.68 L 414.29 194.57 L 416.76 194.55 L 419.22 194.51 L 421.68 194.48 L 424.14 194.44 L 426.61 194.40 L 429.07 194.37 L 431.53 194.34 L 433.99 194.29 L 436.46 194.25 L 438.92 194.23 L 441.38 194.21 L 443.84 194.19 L 446.31 194.16 L 448.77 194.12 L 451.23 194.07 L 453.69 193.99 L 456.16 193.94 L 458.62 193.87 L 461.08 193.80 L 463.54 193.74 L 466.01 193.72 L 468.47 193.70 L 470.93 193.66 L 473.39 193.62 L 475.86 193.56 L 478.32 193.49 L 480.78 193.43 L 483.24 193.35 L 485.71 193.27 L 488.17 193.20 L 490.63 193.14 L 493.09 193.15 L 495.56 193.15 L 498.02 193.15 L 500.48 193.18 L 502.94 193.09 L 505.41 193.07 L 507.87 193.07 L 510.33 193.08 L 512.79 193.00 L 515.26 192.95 L 517.72 192.95 L 520.18 192.95 L 522.64 192.95 L 525.11 192.80 L 527.57 192.73 L 530.03 192.69 L 532.49 192.67 L 534.95 192.67 L 537.42 192.68 L 539.88 192.64 L 542.34 192.63 L 544.80 192.63 L 547.27 190.39 L 549.73 189.96 L 552.19 189.85 L 554.65 189.53 L 557.12 189.52 L 559.58 189.36 L 562.04 187.79 L 564.50 187.36 L 566.97 181.35 L 569.43 181.35 L 571.89 180.72 L 574.35 180.71 L 576.82 180.26 L 579.28 179.68 L 581.74 179.67 L 584.20 178.77 L 586.67 177.57 L 589.13 175.55 L 591.59 174.52 L 594.05 173.86 L 596.52 174.17 L 598.98 173.10 L 601.44 173.10 L 603.90 171.18 L 606.37 168.37 L 608.83 168.37 L 611.29 165.86 L 613.75 163.63 L 616.22 163.63 L 618.68 163.62 L 621.14 162.88 L 623.60 161.06 L 626.07 193.89 L 628.53 193.22 L 630.99 192.73 L 633.45 192.34 L 635.92 189.45 L 638.38 188.03 L 640.84 188.03 L 643.30 180.86 L 645.77 148.96 L 648.23 144.25 L 650.69 176.00 L 653.15 176.17 L 655.62 175.77 L 658.08 175.72 L 660.54 197.26 L 663.00 197.26 L 665.47 197.06 L 667.93 196.44 L 670.39 194.49 L 672.85 194.50 L 675.32 194.49 L 677.78 194.49 L 680.24 194.49 L 682.70 194.48 L 685.17 194.48 L 687.63 194.62 L 690.09 206.08 L 692.55 206.08 L 695.02 206.05 L 697.48 206.04 L 699.94 205.22 L 702.40 204.28 L 704.86 204.28 L 707.33 204.28 L 709.79 200.22 L 712.25 204.28 L 714.71 204.28 L 717.18 204.28 L 719.64 198.60 L 722.10 198.60 L 724.56 198.60 L 727.03 198.60 L 729.49 193.00 L 731.95 193.00 L 734.41 188.39 L 736.88 188.39 L 739.34 179.75 L 741.80 174.84 L 744.26 173.23 L 746.73 170.37 L 749.19 169.87 L 751.65 153.88 L 754.11 149.24 L 756.58 152.04 L 759.04 141.93 L 761.50 141.88 L 763.96 141.69 L 766.43 141.69 L 768.89 141.76 L 771.35 141.75 L 773.81 140.68 L 776.28 141.38 L 778.74 141.36 L 781.20 141.83 L 783.66 141.39 L 786.13 141.39 L 788.59 141.52 L 791.05 141.52 L 793.51 141.53 L 795.98 142.33 L 798.44 141.73 L 800.90 141.68 L 803.36 141.68 L 805.83 141.66 L 808.29 141.67 L 810.75 141.65 L 813.21 139.51 L 815.68 136.07 L 818.14 136.04 L 820.60 133.43 L 823.06 131.89 L 825.53 131.13 L 827.99 131.51 L 830.45 131.50 L 832.91 131.57 L 835.38 131.56 L 837.84 131.49 L 840.30 131.49 L 842.76 131.49 L 845.23 131.49 L 847.69 131.49 L 850.15 131.49 L 852.61 131.49 L 855.08 131.49 L 857.54 131.49 L 860.00 131.49" fill="none" stroke="#111827" stroke-width="2"/>
    <circle cx="860.00" cy="131.49" r="3" fill="#111827"/>
    <text x="40.00" y="235.00" font-size="9" fill="#111827" text-anchor="middle" transform="rotate(-45 40.00 235.00)">27.09.2025</text><text x="121.26" y="235.00" font-size="9" fill="#111827" text-anchor="middle" transform="rotate(-45 121.26 235.00)">28.09.2025</text><text x="202.52" y="235.00" font-size="9" fill="#111827" text-anchor="middle" transform="rotate(-45 202.52 235.00)">28.09.2025</text><text x="283.78" y="235.00" font-size="9" fill="#111827" text-anchor="middle" transform="rotate(-45 283.78 235.00)">30.09.2025</text><text x="365.05" y="235.00" font-size="9" fill="#111827" text-anchor="middle" transform="rotate(-45 365.05 235.00)">04.10.2025</text><text x="446.31" y="235.00" font-size="9" fill="#111827" text-anchor="middle" transform="rotate(-45 446.31 235.00)">04.10.2025</text><text x="527.57" y="235.00" font-size="9" fill="#111827" text-anchor="middle" transform="rotate(-45 527.57 235.00)">04.10.2025</text><text x="608.83" y="235.00" font-size="9" fill="#111827" text-anchor="middle" transform="rotate(-45 608.83 235.00)">04.10.2025</text><text x="690.09" y="235.00" font-size="9" fill="#111827" text-anchor="middle" transform="rotate(-45 690.09 235.00)">05.10.2025</text><text x="771.35" y="235.00" font-size="9" fill="#111827" text-anchor="middle" transform="rotate(-45 771.35 235.00)">08.10.2025</text><text x="852.61" y="235.00" font-size="9" fill="#111827" text-anchor="middle" transform="rotate(-45 852.61 235.00)">15.10.2025</text>
  </g>
</svg>