<svg xmlns="http://www.w3.org/2000/svg" width="900" height="290" style="font-family: -apple-system, BlinkMacSystemFont, 'Segoe UI', Helvetica, Arial, sans-serif;">
  <rect width="100%" height="100%" fill="white"/>
  <g>
    <line x1="40" y1="220.00" x2="860" y2="220.00" stroke="#e5e7eb"/><text x="32" y="224.00" font-size="10" fill="#111827" text-anchor="end">0</text><line x1="40" y1="175.00" x2="860" y2="175.00" stroke="#e5e7eb"/><text x="32" y="179.00" font-size="10" fill="#111827" text-anchor="end">25k</text><line x1="40" y1="130.00" x2="860" y2="130.00" stroke="#e5e7eb"/><text x="32" y="134.00" font-size="10" fill="#111827" text-anchor="end">50k</text><line x1="40" y1="85.00" x2="860" y2="85.00" stroke="#e5e7eb"/><text x="32" y="89.00" font-size="10" fill="#111827" text-anchor="end">75k</text><line x1="40" y1="40.00" x2="860" y2="40.00" stroke="#e5e7eb"/><text x="32" y="44.00" font-size="10" fill="#111827" text-anchor="end">100k</text>
    <line x1="40.00" y1="40" x2="40.00" y2="220" stroke="#e5e7eb" opacity="0.5"/><line x1="121.82" y1="40" x2="121.82" y2="220" stroke="#e5e7eb" opacity="0.5"/><line x1="203.64" y1="40" x2="203.64" y2="220" stroke="#e5e7eb" opacity="0.5"/><line x1="285.47" y1="40" x2="285.47" y2="220" stroke="#e5e7eb" opacity="0.5"/><line x1="367.29" y1="40" x2="367.29" y2="220" stroke="#e5e7eb" opacity="0.5"/><line x1="449.11" y1="40" x2="449.11" y2="220" stroke="#e5e7eb" opacity="0.5"/><line x1="530.93" y1="40" x2="530.93" y2="220" stroke="#e5e7eb" opacity="0.5"/><line x1="612.75" y1="40" x2="612.75" y2="220" stroke="#e5e7eb" opacity="0.5"/><line x1="694.58" y1="40" x2="694.58" y2="220" stroke="#e5e7eb" opacity="0.5"/><line x1="776.40" y1="40" x2="776.40" y2="220" stroke="#e5e7eb" opacity="0.5"/><line x1="858.22" y1="40" x2="858.22" y2="220" stroke="#e5e7eb" opacity="0.5"/>
    <line x1="40" y1="220" x2="860" y2="220" stroke="#9ca3af"/>
    <line x1="40" y1="40"   x2="40"   y2="220" stroke="#9ca3af"/>
    <path d="M 40.00 220.00 L 41.78 220.00 L 43.56 219.60 L 45.34 219.62 L 47.11 219.63 L 48.89 219.32 L 50.67 219.31 L 52.45 219.26 L 54.23 218.89 L 56.01 218.89 L 57.79 218.89 L 59.57 218.87 L 61.34 218.87 L 63.12 218.86 L 64.90 218.85 L 66.68 218.85 L 68.46 218.82 L 70.24 218.78 L 72.02 218.72 L 73.80 218.68 L 75.57 218.64 L 77.35 218.59 L 79.13 218.59 L 80.91 218.57 L 82.69 218.57 L 84.47 218.57 L 86.25 218.57 L 88.03 218.57 L 89.80 218.57 L 91.58 218.57 L 93.36 218.57 L 95.14 218.57 L 96.92 218.55 L 98.70 218.54 L 100.48 218.58 L 102.26 218.55 L 104.03 218.55 L 105.81 218.53 L 107.59 218.31 L 109.37 217.94 L 111.15 217.88 L 112.93 217.87 L 114.71 217.86 L 116.49 217.85 L 118.26 217.84 L 120.04 217.85 L 121.82 217.82 L 123.60 217.66 L 125.38 217.61 L 127.16 217.60 L 128.94 217.57 L 130.72 217.56 L 132.49 217.52 L 134.27 217.38 L 136.05 217.24 L 137.83 216.93 L 139.61 216.65 L 141.39 216.44 L 143.17 216.39 L 144.95 216.34 L 146.72 216.83 L 148.50 200.94 L 150.28 200.94 L 152.06 200.95 L 153.84 198.99 L 155.62 198.98 L 157.40 198.94 L 159.18 198.94 L 160.95 198.91 L 162.73 198.90 L 164.51 198.93 L 166.29 198.93 L 168.07 198.99 L 169.85 198.95 L 171.63 198.96 L 173.41 198.95 L 175.18 198.95 L 176.96 198.97 L 178.74 198.97 L 180.52 198.97 L 182.30 198.97 L 184.08 198.97 L 185.86 198.97 L 187.64 198.97 L 189.41 198.97 L 191.19 198.97 L 192.97 198.97 L 194.75 198.97 L 196.53 197.51 L 198.31 197.43 L 200.09 197.40 L 201.87 197.38 L 203.64 197.38 L 205.42 197.49 L 207.20 197.34 L 208.98 197.33 L 210.76 197.18 L 212.54 197.41 L 214.32 197.41 L 216.10 197.29 L 217.87 197.29 L 219.65 197.22 L 221.43 197.21 L 223.21 197.15 L 224.99 196.94 L 226.77 197.00 L 228.55 197.41 L 230.33 197.41 L 232.10 197.30 L 233.88 197.26 L 235.66 197.19 L 237.44 197.19 L 239.22 197.19 L 241.00 197.19 L 242.78 197.18 L 244.56 197.12 L 246.33 197.09 L 248.11 197.04 L 249.89 197.00 L 251.67 196.96 L 253.45 196.92 L 255.23 196.91 L 257.01 196.86 L 258.79 196.80 L 260.56 196.75 L 262.34 196.69 L 264.12 196.66 L 265.90 196.63 L 267.68 196.56 L 269.46 196.51 L 271.24 196.47 L 273.02 196.45 L 274.79 196.40 L 276.57 196.37 L 278.35 196.34 L 280.13 196.28 L 281.91 196.20 L 283.69 196.12 L 285.47 196.02 L 287.25 195.89 L 289.02 195.77 L 290.80 195.68 L 292.58 195.63 L 294.36 195.58 L 296.14 195.53 L 297.92 195.44 L 299.70 195.35 L 301.48 195.22 L 303.25 195.11 L 305.03 194.95 L 306.81 194.82 L 308.59 194.68 L 310.37 194.57 L 312.15 194.55 L 313.93 194.51 L 315.70 194.48 L 317.48 194.44 L 319.26 194.40 L 321.04 194.37 L 322.82 194.34 L 324.60 194.29 L 326.38 194.25 L 328.16 194.23 L 329.93 194.21 L 331.71 194.19 L 333.49 194.16 L 335.27 194.12 L 337.05 194.07 L 338.83 193.99 L 340.61 193.94 L 342.39 193.87 L 344.16 193.80 L 345.94 193.74 L 347.72 193.72 L 349.50 193.70 L 351.28 193.66 L 353.06 193.62 L 354.84 193.56 L 356.62 193.49 L 358.39 193.43 L 360.17 193.35 L 361.95 193.27 L 363.73 193.20 L 365.51 193.14 L 367.29 193.15 L 369.07 193.15 L 370.85 193.15 L 372.62 193.18 L 374.40 193.09 L 376.18 193.07 L 377.96 193.07 L 379.74 193.08 L 381.52 193.00 L 383.30 192.95 L 385.08 192.95 L 386.85 192.95 L 388.63 192.95 L 390.41 192.80 L 392.19 192.73 L 393.97 192.69 L 395.75 192.67 L 397.53 192.67 L 399.31 192.68 L 401.08 192.64 L 402.86 192.63 L 404.64 192.63 L 406.42 190.39 L 408.20 189.96 L 409.98 189.85 L 411.76 189.53 L 413.54 189.52 L 415.31 189.36 L 417.09 187.79 L 418.87 187.36 L 420.65 181.35 L 422.43 181.35 L 424.21 180.72 L 425.99 180.71 L 427.77 180.26 L 429.54 179.68 L 431.32 179.67 L 433.10 178.77 L 434.88 177.57 L 436.66 175.55 L 438.44 174.52 L 440.22 173.86 L 442.00 174.17 L 443.77 173.10 L 445.55 173.10 L 447.33 171.18 L 449.11 168.37 L 450.89 168.37 L 452.67 165.86 L 454.45 163.63 L 456.23 163.63 L 458.00 163.62 L 459.78 162.88 L 461.56 161.06 L 463.34 193.89 L 465.12 193.22 L 466.90 192.73 L 468.68 192.34 L 470.46 189.45 L 472.23 188.03 L 474.01 188.03 L 475.79 180.86 L 477.57 148.96 L 479.35 144.25 L 481.13 176.00 L 482.91 176.17 L 484.69 175.77 L 486.46 175.72 L 488.24 197.26 L 490.02 197.26 L 491.80 197.06 L 493.58 196.44 L 495.36 194.49 L 497.14 194.50 L 498.92 194.49 L 500.69 194.49 L 502.47 194.49 L 504.25 194.48 L 506.03 194.48 L 507.81 194.62 L 509.59 206.08 L 511.37 206.08 L 513.15 206.05 L 514.92 206.04 L 516.70 205.22 L 518.48 204.28 L 520.26 204.28 L 522.04 204.28 L 523.82 200.22 L 525.60 204.28 L 527.38 204.28 L 529.15 204.28 L 530.93 198.60 L 532.71 198.60 L 534.49 198.60 L 536.27 198.60 L 538.05 193.00 L 539.83 193.00 L 541.61 188.39 L 543.38 188.39 L 545.16 179.75 L 546.94 174.84 L 548.72 173.23 L 550.50 170.37 L 552.28 169.87 L 554.06 153.88 L 555.84 149.24 L 557.61 152.04 L 559.39 141.93 L 561.17 141.88 L 562.95 141.69 L 564.73 141.69 L 566.51 141.76 L 568.29 141.75 L 570.07 140.68 L 571.84 141.38 L 573.62 141.36 L 575.40 141.83 L 577.18 141.39 L 578.96 141.39 L 580.74 141.52 L 582.52 141.52 L 584.30 141.53 L 586.07 142.33 L 587.85 141.73 L 589.63 141.68 L 591.41 141.68 L 593.19 141.66 L 594.97 141.67 L 596.75 141.65 L 598.52 139.51 L 600.30 136.07 L 602.08 136.04 L 603.86 133.43 L 605.64 131.89 L 607.42 131.13 L 609.20 131.51 L 610.98 131.50 L 612.75 131.57 L 614.53 131.56 L 616.31 131.49 L 618.09 131.49 L 619.87 131.49 L 621.65 131.49 L 623.43 131.49 L 625.21 131.49 L 626.98 131.49 L 628.76 131.49 L 630.54 131.49 L 632.32 131.49 L 634.10 131.49 L 635.88 131.49 L 637.66 131.49 L 639.44 131.49 L 641.21 131.49 L 642.99 131.49 L 644.77 131.49 L 646.55 131.49 L 648.33 131.49 L 650.11 131.49 L 651.89 131.49 L 653.67 131.49 L 655.44 131.49 L 657.22 131.49 L 659.00 131.49 L 660.78 131.49 L 662.56 131.49 L 664.34 131.49 L 666.12 131.49 L 667.90 131.49 L 669.67 131.49 L 671.45 131.49 L 673.23 131.49 L 675.01 131.49 L 676.79 131.49 L 678.57 131.49 L 680.35 131.49 L 682.13 131.49 L 683.90 131.49 L 685.68 131.49 L 687.46 131.49 L 689.24 131.49 L 691.02 131.49 L 692.80 131.49 L 694.58 131.49 L 696.36 131.49 L 698.13 131.49 L 699.91 131.49 L 701.69 131.49 L 703.47 131.49 L 705.25 131.49 L 707.03 131.49 L 708.81 131.49 L 710.59 131.49 L 712.36 131.49 L 714.14 131.49 L 715.92 131.49 L 717.70 131.49 L 719.48 131.49 L 721.26 131.49 L 723.04 131.49 L 724.82 131.49 L 726.59 131.49 L 728.37 131.49 L 730.15 131.49 L 731.93 131.49 L 733.71 131.49 L 735.49 131.49 L 737.27 131.49 L 739.05 131.49 L 740.82 131.49 L 742.60 131.49 L 744.38 131.49 L 746.16 131.49 L 747.94 131.49 L 749.72 131.49 L 751.50 131.49 L 753.28 131.49 L 755.05 131.49 L 756.83 131.49 L 758.61 131.49 L 760.39 131.49 L 762.17 131.49 L 763.95 131.49 L 765.73 131.49 L 767.51 131.49 L 769.28 131.49 L 771.06 131.49 L 772.84 131.49 L 774.62 131.49 L 776.40 131.49 L 778.18 131.49 L 779.96 131.49 L 781.74 131.49 L 783.51 131.49 L 785.29 131.49 L 787.07 131.49 L 788.85 131.49 L 790.63 131.49 L 792.41 131.49 L 794.19 131.49 L 795.97 131.49 L 797.74 131.49 L 799.52 131.49 L 801.30 131.49 L 803.08 131.49 L 804.86 131.49 L 806.64 131.49 L 808.42 131.49 L 810.20 131.49 L 811.97 131.49 L 813.75 131.49 L 815.53 131.49 L 817.31 131.49 L 819.09 131.49 L 820.87 131.49 L 822.65 131.49 L 824.43 131.49 L 826.20 131.49 L 827.98 131.49 L 829.76 131.49 L 831.54 131.49 L 833.32 131.49 L 835.10 131.49 L 836.88 131.49 L 838.66 131.49 L 840.43 131.49 L 842.21 131.49 L 843.99 131.49 L 845.77 131.49 L 847.55 131.49 L 849.33 131.49 L 851.11 131.49 L 852.89 131.49 L 854.66 131.49 L 856.44 131.49 L 858.22 131.49 L 860.00 131.49" fill="none" stroke="#111827" stroke-width="2"/>
    <circle cx="860.00" cy="131.49" r="3" fill="#111827"/>
    <text x="40.00" y="235.00" font-size="9" fill="#111827" text-anchor="middle" transform="rotate(-45 40.00 235.00)">27.09.2025</text><text x="121.82" y="235.00" font-size="9" fill="#111827" text-anchor="middle" transform="rotate(-45 121.82 235.00)">28.09.2025</text><text x="203.64" y="235.00" font-size="9" fill="#111827" text-anchor="middle" transform="rotate(-45 203.64 235.00)">29.09.2025</text><text x="285.47" y="235.00" font-size="9" fill="#111827" text-anchor="middle" transform="rotate(-45 285.47 235.00)">04.10.2025</text><text x="367.29" y="235.00" font-size="9" fill="#111827" text-anchor="middle" transform="rotate(-45 367.29 235.00)">04.10.2025</text><text x="449.11" y="235.00" font-size="9" fill="#111827" text-anchor="middle" transform="rotate(-45 449.11 235.00)">04.10.2025</text><text x="530.93" y="235.00" font-size="9" fill="#111827" text-anchor="middle" transform="rotate(-45 530.93 235.00)">07.10.2025</text><text x="612.75" y="235.00" font-size="9" fill="#111827" text-anchor="middle" transform="rotate(-45 612.75 235.00)">10.10.2025</text><text x="694.58" y="235.00" font-size="9" fill="#111827" text-anchor="middle" transform="rotate(-45 694.58 235.00)">22.11.2025</text><text x="776.40" y="235.00" font-size="9" fill="#111827" text-anchor="middle" transform="rotate(-45 776.40 235.00)">07.01.2026</text><text x="858.22" y="235.00" font-size="9" fill="#111827" text-anchor="middle" transform="rotate(-45 858.22 235.00)">19.02.2026</text>
  </g>
</svg>