<svg xmlns="http://www.w3.org/2000/svg" width="900" height="290" style="font-family: -apple-system, BlinkMacSystemFont, 'Segoe UI', Helvetica, Arial, sans-serif;">
  <rect width="100%" height="100%" fill="white"/>
  <g>
    <line x1="40" y1="220.00" x2="860" y2="220.00" stroke="#e5e7eb"/><text x="32" y="224.00" font-size="10" fill="#111827" text-anchor="end">0</text><line x1="40" y1="175.00" x2="860" y2="175.00" stroke="#e5e7eb"/><text x="32" y="179.00" font-size="10" fill="#111827" text-anchor="end">25k</text><line x1="40" y1="130.00" x2="860" y2="130.00" stroke="#e5e7eb"/><text x="32" y="134.00" font-size="10" fill="#111827" text-anchor="end">50k</text><line x1="40" y1="85.00" x2="860" y2="85.00" stroke="#e5e7eb"/><text x="32" y="89.00" font-size="10" fill="#111827" text-anchor="end">75k</text><line x1="40" y1="40.00" x2="860" y2="40.00" stroke="#e5e7eb"/><text x="32" y="44.00" font-size="10" fill="#111827" text-anchor="end">100k</text>
    <line x1="40.00" y1="40" x2="40.00" y2="220" stroke="#e5e7eb" opacity="0.5"/><line x1="120.35" y1="40" x2="120.35" y2="220" stroke="#e5e7eb" opacity="0.5"/><line x1="200.70" y1="40" x2="200.70" y2="220" stroke="#e5e7eb" opacity="0.5"/><line x1="281.06" y1="40" x2="281.06" y2="220" stroke="#e5e7eb" opacity="0.5"/><line x1="361.41" y1="40" x2="361.41" y2="220" stroke="#e5e7eb" opacity="0.5"/><line x1="441.76" y1="40" x2="441.76" y2="220" stroke="#e5e7eb" opacity="0.5"/><line x1="522.11" y1="40" x2="522.11" y2="220" stroke="#e5e7eb" opacity="0.5"/><line x1="602.46" y1="40" x2="602.46" y2="220" stroke="#e5e7eb" opacity="0.5"/><line x1="682.81" y1="40" x2="682.81" y2="220" stroke="#e5e7eb" opacity="0.5"/><line x1="763.17" y1="40" x2="763.17" y2="220" stroke="#e5e7eb" opacity="0.5"/><line x1="843.52" y1="40" x2="843.52" y2="220" stroke="#e5e7eb" opacity="0.5"/>
    <line x1="40" y1="220" x2="860" y2="220" stroke="#9ca3af"/>
    <line x1="40" y1="40"   x2="40"   y2="220" stroke="#9ca3af"/>
    <path d="M 40.00 220.00 L 42.06 220.00 L 44.12 219.60 L 46.18 219.62 L 48.24 219.63 L 50.30 219.32 L 52.36 219.31 L 54.42 219.26 L 56.48 218.89 L 58.54 218.89 L 60.60 218.89 L 62.66 218.87 L 64.72 218.87 L 66.78 218.86 L 68.84 218.85 L 70.90 218.85 L 72.96 218.82 L 75.03 218.78 L 77.09 218.72 L 79.15 218.68 L 81.21 218.64 L 83.27 218.59 L 85.33 218.59 L 87.39 218.57 L 89.45 218.57 L 91.51 218.57 L 93.57 218.57 L 95.63 218.57 L 97.69 218.57 L 99.75 218.57 L 101.81 218.57 L 103.87 218.57 L 105.93 218.55 L 107.99 218.54 L 110.05 218.58 L 112.11 218.55 L 114.17 218.55 L 116.23 218.53 L 118.29 218.31 L 120.35 217.94 L 122.41 217.88 L 124.47 217.87 L 126.53 217.86 L 128.59 217.85 L 130.65 217.84 L 132.71 217.85 L 134.77 217.82 L 136.83 217.66 L 138.89 217.61 L 140.95 217.60 L 143.02 217.57 L 145.08 217.56 L 147.14 217.52 L 149.20 217.38 L 151.26 217.24 L 153.32 216.93 L 155.38 216.65 L 157.44 216.44 L 159.50 216.39 L 161.56 216.34 L 163.62 216.83 L 165.68 200.94 L 167.74 200.94 L 169.80 200.95 L 171.86 198.99 L 173.92 198.98 L 175.98 198.94 L 178.04 198.94 L 180.10 198.91 L 182.16 198.90 L 184.22 198.93 L 186.28 198.93 L 188.34 198.99 L 190.40 198.95 L 192.46 198.96 L 194.52 198.95 L 196.58 198.95 L 198.64 198.97 L 200.70 198.97 L 202.76 198.97 L 204.82 198.97 L 206.88 198.97 L 208.94 198.97 L 211.01 198.97 L 213.07 198.97 L 215.13 198.97 L 217.19 198.97 L 219.25 198.97 L 221.31 197.51 L 223.37 197.43 L 225.43 197.40 L 227.49 197.38 L 229.55 197.38 L 231.61 197.49 L 233.67 197.34 L 235.73 197.33 L 237.79 197.18 L 239.85 197.41 L 241.91 197.41 L 243.97 197.29 L 246.03 197.29 L 248.09 197.22 L 250.15 197.21 L 252.21 197.15 L 254.27 196.94 L 256.33 197.00 L 258.39 197.41 L 260.45 197.41 L 262.51 197.30 L 264.57 197.26 L 266.63 197.19 L 268.69 197.19 L 270.75 197.19 L 272.81 197.19 L 274.87 197.18 L 276.93 197.12 L 278.99 197.09 L 281.06 197.04 L 283.12 197.00 L 285.18 196.96 L 287.24 196.92 L 289.30 196.91 L 291.36 196.86 L 293.42 196.80 L 295.48 196.75 L 297.54 196.69 L 299.60 196.66 L 301.66 196.63 L 303.72 196.56 L 305.78 196.51 L 307.84 196.47 L 309.90 196.45 L 311.96 196.40 L 314.02 196.37 L 316.08 196.34 L 318.14 196.28 L 320.20 196.20 L 322.26 196.12 L 324.32 196.02 L 326.38 195.89 L 328.44 195.77 L 330.50 195.68 L 332.56 195.63 L 334.62 195.58 L 336.68 195.53 L 338.74 195.44 L 340.80 195.35 L 342.86 195.22 L 344.92 195.11 L 346.98 194.95 L 349.05 194.82 L 351.11 194.68 L 353.17 194.57 L 355.23 194.55 L 357.29 194.51 L 359.35 194.48 L 361.41 194.44 L 363.47 194.40 L 365.53 194.37 L 367.59 194.34 L 369.65 194.29 L 371.71 194.25 L 373.77 194.23 L 375.83 194.21 L 377.89 194.19 L 379.95 194.16 L 382.01 194.12 L 384.07 194.07 L 386.13 193.99 L 388.19 193.94 L 390.25 193.87 L 392.31 193.80 L 394.37 193.74 L 396.43 193.72 L 398.49 193.70 L 400.55 193.66 L 402.61 193.62 L 404.67 193.56 L 406.73 193.49 L 408.79 193.43 L 410.85 193.35 L 412.91 193.27 L 414.97 193.20 L 417.04 193.14 L 419.10 193.15 L 421.16 193.15 L 423.22 193.15 L 425.28 193.18 L 427.34 193.09 L 429.40 193.07 L 431.46 193.07 L 433.52 193.08 L 435.58 193.00 L 437.64 192.95 L 439.70 192.95 L 441.76 192.95 L 443.82 192.95 L 445.88 192.80 L 447.94 192.73 L 450.00 192.69 L 452.06 192.67 L 454.12 192.67 L 456.18 192.68 L 458.24 192.64 L 460.30 192.63 L 462.36 192.63 L 464.42 190.39 L 466.48 189.96 L 468.54 189.85 L 470.60 189.53 L 472.66 189.52 L 474.72 189.36 L 476.78 187.79 L 478.84 187.36 L 480.90 181.35 L 482.96 181.35 L 485.03 180.72 L 487.09 180.71 L 489.15 180.26 L 491.21 179.68 L 493.27 179.67 L 495.33 178.77 L 497.39 177.57 L 499.45 175.55 L 501.51 174.52 L 503.57 173.86 L 505.63 174.17 L 507.69 173.10 L 509.75 173.10 L 511.81 171.18 L 513.87 168.37 L 515.93 168.37 L 517.99 165.86 L 520.05 163.63 L 522.11 163.63 L 524.17 163.62 L 526.23 162.88 L 528.29 161.06 L 530.35 193.89 L 532.41 193.22 L 534.47 192.73 L 536.53 192.34 L 538.59 189.45 L 540.65 188.03 L 542.71 188.03 L 544.77 180.86 L 546.83 148.96 L 548.89 144.25 L 550.95 176.00 L 553.02 176.17 L 555.08 175.77 L 557.14 175.72 L 559.20 197.26 L 561.26 197.26 L 563.32 197.06 L 565.38 196.44 L 567.44 194.49 L 569.50 194.50 L 571.56 194.49 L 573.62 194.49 L 575.68 194.49 L 577.74 194.48 L 579.80 194.48 L 581.86 194.62 L 583.92 206.08 L 585.98 206.08 L 588.04 206.05 L 590.10 206.04 L 592.16 205.22 L 594.22 204.28 L 596.28 204.28 L 598.34 204.28 L 600.40 200.22 L 602.46 204.28 L 604.52 204.28 L 606.58 204.28 L 608.64 198.60 L 610.70 198.60 L 612.76 198.60 L 614.82 198.60 L 616.88 193.00 L 618.94 193.00 L 621.01 188.39 L 623.07 188.39 L 625.13 179.75 L 627.19 174.84 L 629.25 173.23 L 631.31 170.37 L 633.37 169.87 L 635.43 153.88 L 637.49 149.24 L 639.55 152.04 L 641.61 141.93 L 643.67 141.88 L 645.73 141.69 L 647.79 141.69 L 649.85 141.76 L 651.91 141.75 L 653.97 140.68 L 656.03 141.38 L 658.09 141.36 L 660.15 141.83 L 662.21 141.39 L 664.27 141.39 L 666.33 141.52 L 668.39 141.52 L 670.45 141.53 L 672.51 142.33 L 674.57 141.73 L 676.63 141.68 L 678.69 141.68 L 680.75 141.66 L 682.81 141.67 L 684.87 141.65 L 686.93 139.51 L 688.99 136.07 L 691.06 136.04 L 693.12 133.43 L 695.18 131.89 L 697.24 131.13 L 699.30 131.51 L 701.36 131.50 L 703.42 131.57 L 705.48 131.56 L 707.54 131.49 L 709.60 131.49 L 711.66 131.49 L 713.72 131.49 L 715.78 131.49 L 717.84 131.49 L 719.90 131.49 L 721.96 131.49 L 724.02 131.49 L 726.08 131.49 L 728.14 131.49 L 730.20 131.49 L 732.26 131.49 L 734.32 131.49 L 736.38 131.49 L 738.44 131.49 L 740.50 131.49 L 742.56 131.49 L 744.62 131.49 L 746.68 131.49 L 748.74 131.49 L 750.80 131.49 L 752.86 131.49 L 754.92 131.49 L 756.98 131.49 L 759.05 131.49 L 761.11 131.49 L 763.17 131.49 L 765.23 131.49 L 767.29 131.49 L 769.35 131.49 L 771.41 131.49 L 773.47 131.49 L 775.53 131.49 L 777.59 131.49 L 779.65 131.49 L 781.71 131.49 L 783.77 131.49 L 785.83 131.49 L 787.89 131.49 L 789.95 131.49 L 792.01 131.49 L 794.07 131.49 L 796.13 131.49 L 798.19 131.49 L 800.25 131.49 L 802.31 131.49 L 804.37 131.49 L 806.43 131.49 L 808.49 131.49 L 810.55 131.49 L 812.61 131.49 L 814.67 131.49 L 816.73 131.49 L 818.79 131.49 L 820.85 131.49 L 822.91 131.49 L 824.97 131.49 L 827.04 131.49 L 829.10 131.49 L 831.16 131.49 L 833.22 131.49 L 835.28 131.49 L 837.34 131.49 L 839.40 131.49 L 841.46 131.49 L 843.52 131.49 L 845.58 131.49 L 847.64 131.49 L 849.70 131.49 L 851.76 131.49 L 853.82 131.49 L 855.88 131.49 L 857.94 131.49 L 860.00 131.49" fill="none" stroke="#111827" stroke-width="2"/>
    <circle cx="860.00" cy="131.49" r="3" fill="#111827"/>
    <text x="40.00" y="235.00" font-size="9" fill="#111827" text-anchor="middle" transform="rotate(-45 40.00 235.00)">27.09.2025</text><text x="120.35" y="235.00" font-size="9" fill="#111827" text-anchor="middle" transform="rotate(-45 120.35 235.00)">28.09.2025</text><text x="200.70" y="235.00" font-size="9" fill="#111827" text-anchor="middle" transform="rotate(-45 200.70 235.00)">29.09.2025</text><text x="281.06" y="235.00" font-size="9" fill="#111827" text-anchor="middle" transform="rotate(-45 281.06 235.00)">04.10.2025</text><text x="361.41" y="235.00" font-size="9" fill="#111827" text-anchor="middle" transform="rotate(-45 361.41 235.00)">04.10.2025</text><text x="441.76" y="235.00" font-size="9" fill="#111827" text-anchor="middle" transform="rotate(-45 441.76 235.00)">04.10.2025</text><text x="522.11" y="235.00" font-size="9" fill="#111827" text-anchor="middle" transform="rotate(-45 522.11 235.00)">04.10.2025</text><text x="602.46" y="235.00" font-size="9" fill="#111827" text-anchor="middle" transform="rotate(-45 602.46 235.00)">07.10.2025</text><text x="682.81" y="235.00" font-size="9" fill="#111827" text-anchor="middle" transform="rotate(-45 682.81 235.00)">09.10.2025</text><text x="763.17" y="235.00" font-size="9" fill="#111827" text-anchor="middle" transform="rotate(-45 763.17 235.00)">05.11.2025</text><text x="843.52" y="235.00" font-size="9" fill="#111827" text-anchor="middle" transform="rotate(-45 843.52 235.00)">14.12.2025</text>
  </g>
</svg>