<svg xmlns="http://www.w3.org/2000/svg" width="900" height="290" style="font-family: -apple-system, BlinkMacSystemFont, 'Segoe UI', Helvetica, Arial, sans-serif;">
  <rect width="100%" height="100%" fill="#0d1117"/>
  <g>
    <line x1="40" y1="220.00" x2="860" y2="220.00" stroke="#30363d"/><text x="32" y="224.00" font-size="10" fill="#c9d1d9" text-anchor="end">0</text><line x1="40" y1="175.00" x2="860" y2="175.00" stroke="#30363d"/><text x="32" y="179.00" font-size="10" fill="#c9d1d9" text-anchor="end">25k</text><line x1="40" y1="130.00" x2="860" y2="130.00" stroke="#30363d"/><text x="32" y="134.00" font-size="10" fill="#c9d1d9" text-anchor="end">50k</text><line x1="40" y1="85.00" x2="860" y2="85.00" stroke="#30363d"/><text x="32" y="89.00" font-size="10" fill="#c9d1d9" text-anchor="end">75k</text><line x1="40" y1="40.00" x2="860" y2="40.00" stroke="#30363d"/><text x="32" y="44.00" font-size="10" fill="#c9d1d9" text-anchor="end">100k</text>
    <line x1="40.00" y1="40" x2="40.00" y2="220" stroke="#30363d" opacity="0.5"/><line x1="120.06" y1="40" x2="120.06" y2="220" stroke="#30363d" opacity="0.5"/><line x1="200.12" y1="40" x2="200.12" y2="220" stroke="#30363d" opacity="0.5"/><line x1="280.18" y1="40" x2="280.18" y2="220" stroke="#30363d" opacity="0.5"/><line x1="360.24" y1="40" x2="360.24" y2="220" stroke="#30363d" opacity="0.5"/><line x1="440.30" y1="40" x2="440.30" y2="220" stroke="#30363d" opacity="0.5"/><line x1="520.36" y1="40" x2="520.36" y2="220" stroke="#30363d" opacity="0.5"/><line x1="600.41" y1="40" x2="600.41" y2="220" stroke="#30363d" opacity="0.5"/><line x1="680.47" y1="40" x2="680.47" y2="220" stroke="#30363d" opacity="0.5"/><line x1="760.53" y1="40" x2="760.53" y2="220" stroke="#30363d" opacity="0.5"/><line x1="840.59" y1="40" x2="840.59" y2="220" stroke="#30363d" opacity="0.5"/>
    <line x1="40" y1="220" x2="860" y2="220" stroke="#30363d"/>
    <line x1="40" y1="40"   x2="40"   y2="220" stroke="#30363d"/>
    <path d="M 40.00 220.00 L 42.43 220.00 L 44.85 219.60 L 47.28 219.62 L 49.70 219.63 L 52.13 219.32 L 54.56 219.31 L 56.98 219.26 L 59.41 218.89 L 61.83 218.89 L 64.26 218.89 L 66.69 218.87 L 69.11 218.87 L 71.54 218.86 L 73.96 218.85 L 76.39 218.85 L 78.82 218.82 L 81.24 218.78 L 83.67 218.72 L 86.09 218.68 L 88.52 218.64 L 90.95 218.59 L 93.37 218.59 L 95.80 218.57 L 98.22 218.57 L 100.65 218.57 L 103.08 218.57 L 105.50 218.57 L 107.93 218.57 L 110.36 218.57 L 112.78 218.57 L 115.21 218.57 L 117.63 218.55 L 120.06 218.54 L 122.49 218.58 L 124.91 218.55 L 127.34 218.55 L 129.76 218.53 L 132.19 218.31 L 134.62 217.94 L 137.04 217.88 L 139.47 217.87 L 141.89 217.86 L 144.32 217.85 L 146.75 217.84 L 149.17 217.85 L 151.60 217.82 L 154.02 217.66 L 156.45 217.61 L 158.88 217.60 L 161.30 217.57 L 163.73 217.56 L 166.15 217.52 L 168.58 217.38 L 171.01 217.24 L 173.43 216.93 L 175.86 216.65 L 178.28 216.44 L 180.71 216.39 L 183.14 216.34 L 185.56 216.83 L 187.99 200.94 L 190.41 200.94 L 192.84 200.95 L 195.27 198.99 L 197.69 198.98 L 200.12 198.94 L 202.54 198.94 L 204.97 198.91 L 207.40 198.90 L 209.82 198.93 L 212.25 198.93 L 214.67 198.99 L 217.10 198.95 L 219.53 198.96 L 221.95 198.95 L 224.38 198.95 L 226.80 198.97 L 229.23 198.97 L 231.66 198.97 L 234.08 198.97 L 236.51 198.97 L 238.93 198.97 L 241.36 198.97 L 243.79 198.97 L 246.21 198.97 L 248.64 198.97 L 251.07 198.97 L 253.49 197.51 L 255.92 197.43 L 258.34 197.40 L 260.77 197.38 L 263.20 197.38 L 265.62 197.49 L 268.05 197.34 L 270.47 197.33 L 272.90 197.18 L 275.33 197.41 L 277.75 197.41 L 280.18 197.29 L 282.60 197.29 L 285.03 197.22 L 287.46 197.21 L 289.88 197.15 L 292.31 196.94 L 294.73 197.00 L 297.16 197.41 L 299.59 197.41 L 302.01 197.30 L 304.44 197.26 L 306.86 197.19 L 309.29 197.19 L 311.72 197.19 L 314.14 197.19 L 316.57 197.18 L 318.99 197.12 L 321.42 197.09 L 323.85 197.04 L 326.27 197.00 L 328.70 196.96 L 331.12 196.92 L 333.55 196.91 L 335.98 196.86 L 338.40 196.80 L 340.83 196.75 L 343.25 196.69 L 345.68 196.66 L 348.11 196.63 L 350.53 196.56 L 352.96 196.51 L 355.38 196.47 L 357.81 196.45 L 360.24 196.40 L 362.66 196.37 L 365.09 196.34 L 367.51 196.28 L 369.94 196.20 L 372.37 196.12 L 374.79 196.02 L 377.22 195.89 L 379.64 195.77 L 382.07 195.68 L 384.50 195.63 L 386.92 195.58 L 389.35 195.53 L 391.78 195.44 L 394.20 195.35 L 396.63 195.22 L 399.05 195.11 L 401.48 194.95 L 403.91 194.82 L 406.33 194.68 L 408.76 194.57 L 411.18 194.55 L 413.61 194.51 L 416.04 194.48 L 418.46 194.44 L 420.89 194.40 L 423.31 194.37 L 425.74 194.34 L 428.17 194.29 L 430.59 194.25 L 433.02 194.23 L 435.44 194.21 L 437.87 194.19 L 440.30 194.16 L 442.72 194.12 L 445.15 194.07 L 447.57 193.99 L 450.00 193.94 L 452.43 193.87 L 454.85 193.80 L 457.28 193.74 L 459.70 193.72 L 462.13 193.70 L 464.56 193.66 L 466.98 193.62 L 469.41 193.56 L 471.83 193.49 L 474.26 193.43 L 476.69 193.35 L 479.11 193.27 L 481.54 193.20 L 483.96 193.14 L 486.39 193.15 L 488.82 193.15 L 491.24 193.15 L 493.67 193.18 L 496.09 193.09 L 498.52 193.07 L 500.95 193.07 L 503.37 193.08 L 505.80 193.00 L 508.22 192.95 L 510.65 192.95 L 513.08 192.95 L 515.50 192.95 L 517.93 192.80 L 520.36 192.73 L 522.78 192.69 L 525.21 192.67 L 527.63 192.67 L 530.06 192.68 L 532.49 192.64 L 534.91 192.63 L 537.34 192.63 L 539.76 190.39 L 542.19 189.96 L 544.62 189.85 L 547.04 189.53 L 549.47 189.52 L 551.89 189.36 L 554.32 187.79 L 556.75 187.36 L 559.17 181.35 L 561.60 181.35 L 564.02 180.72 L 566.45 180.71 L 568.88 180.26 L 571.30 179.68 L 573.73 179.67 L 576.15 178.77 L 578.58 177.57 L 581.01 175.55 L 583.43 174.52 L 585.86 173.86 L 588.28 174.17 L 590.71 173.10 L 593.14 173.10 L 595.56 171.18 L 597.99 168.37 L 600.41 168.37 L 602.84 165.86 L 605.27 163.63 L 607.69 163.63 L 610.12 163.62 L 612.54 162.88 L 614.97 161.06 L 617.40 193.89 L 619.82 193.22 L 622.25 192.73 L 624.67 192.34 L 627.10 189.45 L 629.53 188.03 L 631.95 188.03 L 634.38 180.86 L 636.80 148.96 L 639.23 144.25 L 641.66 176.00 L 644.08 176.17 L 646.51 175.77 L 648.93 175.72 L 651.36 197.26 L 653.79 197.26 L 656.21 197.06 L 658.64 196.44 L 661.07 194.49 L 663.49 194.50 L 665.92 194.49 L 668.34 194.49 L 670.77 194.49 L 673.20 194.48 L 675.62 194.48 L 678.05 194.62 L 680.47 206.08 L 682.90 206.08 L 685.33 206.05 L 687.75 206.04 L 690.18 205.22 L 692.60 204.28 L 695.03 204.28 L 697.46 204.28 L 699.88 200.22 L 702.31 204.28 L 704.73 204.28 L 707.16 204.28 L 709.59 198.60 L 712.01 198.60 L 714.44 198.60 L 716.86 198.60 L 719.29 193.00 L 721.72 193.00 L 724.14 188.39 L 726.57 188.39 L 728.99 179.75 L 731.42 174.84 L 733.85 173.23 L 736.27 170.37 L 738.70 169.87 L 741.12 153.88 L 743.55 149.24 L 745.98 152.04 L 748.40 141.93 L 750.83 141.88 L 753.25 141.69 L 755.68 141.69 L 758.11 141.76 L 760.53 141.75 L 762.96 140.68 L 765.38 141.38 L 767.81 141.36 L 770.24 141.83 L 772.66 141.39 L 775.09 141.39 L 777.51 141.52 L 779.94 141.52 L 782.37 141.53 L 784.79 142.33 L 787.22 141.73 L 789.64 141.68 L 792.07 141.68 L 794.50 141.66 L 796.92 141.67 L 799.35 141.65 L 801.78 139.51 L 804.20 136.07 L 806.63 136.04 L 809.05 133.43 L 811.48 131.89 L 813.91 131.13 L 816.33 131.51 L 818.76 131.50 L 821.18 131.57 L 823.61 131.56 L 826.04 131.49 L 828.46 131.49 L 830.89 131.49 L 833.31 131.49 L 835.74 131.49 L 838.17 131.49 L 840.59 131.49 L 843.02 131.49 L 845.44 131.49 L 847.87 131.49 L 850.30 131.49 L 852.72 131.49 L 855.15 131.49 L 857.57 131.49 L 860.00 131.49" fill="none" stroke="#3fb950" stroke-width="2"/>
    <circle cx="860.00" cy="131.49" r="3" fill="#3fb950"/>
    <text x="40.00" y="235.00" font-size="9" fill="#c9d1d9" text-anchor="middle" transform="rotate(-45 40.00 235.00)">27.09.2025</text><text x="120.06" y="235.00" font-size="9" fill="#c9d1d9" text-anchor="middle" transform="rotate(-45 120.06 235.00)">28.09.2025</text><text x="200.12" y="235.00" font-size="9" fill="#c9d1d9" text-anchor="middle" transform="rotate(-45 200.12 235.00)">28.09.2025</text><text x="280.18" y="235.00" font-size="9" fill="#c9d1d9" text-anchor="middle" transform="rotate(-45 280.18 235.00)">30.09.2025</text><text x="360.24" y="235.00" font-size="9" fill="#c9d1d9" text-anchor="middle" transform="rotate(-45 360.24 235.00)">04.10.2025</text><text x="440.30" y="235.00" font-size="9" fill="#c9d1d9" text-anchor="middle" transform="rotate(-45 440.30 235.00)">04.10.2025</text><text x="520.36" y="235.00" font-size="9" fill="#c9d1d9" text-anchor="middle" transform="rotate(-45 520.36 235.00)">04.10.2025</text><text x="600.41" y="235.00" font-size="9" fill="#c9d1d9" text-anchor="middle" transform="rotate(-45 600.41 235.00)">04.10.2025</text><text x="680.47" y="235.00" font-size="9" fill="#c9d1d9" text-anchor="middle" transform="rotate(-45 680.47 235.00)">05.10.2025</text><text x="760.53" y="235.00" font-size="9" fill="#c9d1d9" text-anchor="middle" transform="rotate(-45 760.53 235.00)">08.10.2025</text><text x="840.59" y="235.00" font-size="9" fill="#c9d1d9" text-anchor="middle" transform="rotate(-45 840.59 235.00)">15.10.2025</text>
  </g>
</svg>