<svg xmlns="http://www.w3.org/2000/svg" width="900" height="290" style="font-family: -apple-system, BlinkMacSystemFont, 'Segoe UI', Helvetica, Arial, sans-serif;">
  <rect width="100%" height="100%" fill="#0d1117"/>
  <g>
    <line x1="40" y1="220.00" x2="860" y2="220.00" stroke="#30363d"/><text x="32" y="224.00" font-size="10" fill="#c9d1d9" text-anchor="end">0</text><line x1="40" y1="175.00" x2="860" y2="175.00" stroke="#30363d"/><text x="32" y="179.00" font-size="10" fill="#c9d1d9" text-anchor="end">25k</text><line x1="40" y1="130.00" x2="860" y2="130.00" stroke="#30363d"/><text x="32" y="134.00" font-size="10" fill="#c9d1d9" text-anchor="end">50k</text><line x1="40" y1="85.00" x2="860" y2="85.00" stroke="#30363d"/><text x="32" y="89.00" font-size="10" fill="#c9d1d9" text-anchor="end">75k</text><line x1="40" y1="40.00" x2="860" y2="40.00" stroke="#30363d"/><text x="32" y="44.00" font-size="10" fill="#c9d1d9" text-anchor="end">100k</text>
    <line x1="40.00" y1="40" x2="40.00" y2="220" stroke="#30363d" opacity="0.5"/><line x1="121.30" y1="40" x2="121.30" y2="220" stroke="#30363d" opacity="0.5"/><line x1="202.61" y1="40" x2="202.61" y2="220" stroke="#30363d" opacity="0.5"/><line x1="283.91" y1="40" x2="283.91" y2="220" stroke="#30363d" opacity="0.5"/><line x1="365.21" y1="40" x2="365.21" y2="220" stroke="#30363d" opacity="0.5"/><line x1="446.52" y1="40" x2="446.52" y2="220" stroke="#30363d" opacity="0.5"/><line x1="527.82" y1="40" x2="527.82" y2="220" stroke="#30363d" opacity="0.5"/><line x1="609.12" y1="40" x2="609.12" y2="220" stroke="#30363d" opacity="0.5"/><line x1="690.42" y1="40" x2="690.42" y2="220" stroke="#30363d" opacity="0.5"/><line x1="771.73" y1="40" x2="771.73" y2="220" stroke="#30363d" opacity="0.5"/><line x1="853.03" y1="40" x2="853.03" y2="220" stroke="#30363d" opacity="0.5"/>
    <line x1="40" y1="220" x2="860" y2="220" stroke="#30363d"/>
    <line x1="40" y1="40"   x2="40"   y2="220" stroke="#30363d"/>
    <path d="M 40.00 220.00 L 42.32 220.00 L 44.65 219.60 L 46.97 219.62 L 49.29 219.63 L 51.61 219.32 L 53.94 219.31 L 56.26 219.26 L 58.58 218.89 L 60.91 218.89 L 63.23 218.89 L 65.55 218.87 L 67.88 218.87 L 70.20 218.86 L 72.52 218.85 L 74.84 218.85 L 77.17 218.82 L 79.49 218.78 L 81.81 218.72 L 84.14 218.68 L 86.46 218.64 L 88.78 218.59 L 91.10 218.59 L 93.43 218.57 L 95.75 218.57 L 98.07 218.57 L 100.40 218.57 L 102.72 218.57 L 105.04 218.57 L 107.37 218.57 L 109.69 218.57 L 112.01 218.57 L 114.33 218.55 L 116.66 218.54 L 118.98 218.58 L 121.30 218.55 L 123.63 218.55 L 125.95 218.53 L 128.27 218.31 L 130.59 217.94 L 132.92 217.88 L 135.24 217.87 L 137.56 217.86 L 139.89 217.85 L 142.21 217.84 L 144.53 217.85 L 146.86 217.82 L 149.18 217.66 L 151.50 217.61 L 153.82 217.60 L 156.15 217.57 L 158.47 217.56 L 160.79 217.52 L 163.12 217.38 L 165.44 217.24 L 167.76 216.93 L 170.08 216.65 L 172.41 216.44 L 174.73 216.39 L 177.05 216.34 L 179.38 216.83 L 181.70 200.94 L 184.02 200.94 L 186.35 200.95 L 188.67 198.99 L 190.99 198.98 L 193.31 198.94 L 195.64 198.94 L 197.96 198.91 L 200.28 198.90 L 202.61 198.93 L 204.93 198.93 L 207.25 198.99 L 209.58 198.95 L 211.90 198.96 L 214.22 198.95 L 216.54 198.95 L 218.87 198.97 L 221.19 198.97 L 223.51 198.97 L 225.84 198.97 L 228.16 198.97 L 230.48 198.97 L 232.80 198.97 L 235.13 198.97 L 237.45 198.97 L 239.77 198.97 L 242.10 198.97 L 244.42 197.51 L 246.74 197.43 L 249.07 197.40 L 251.39 197.38 L 253.71 197.38 L 256.03 197.49 L 258.36 197.34 L 260.68 197.33 L 263.00 197.18 L 265.33 197.41 L 267.65 197.41 L 269.97 197.29 L 272.29 197.29 L 274.62 197.22 L 276.94 197.21 L 279.26 197.15 L 281.59 196.94 L 283.91 197.00 L 286.23 197.41 L 288.56 197.41 L 290.88 197.30 L 293.20 197.26 L 295.52 197.19 L 297.85 197.19 L 300.17 197.19 L 302.49 197.19 L 304.82 197.18 L 307.14 197.12 L 309.46 197.09 L 311.78 197.04 L 314.11 197.00 L 316.43 196.96 L 318.75 196.92 L 321.08 196.91 L 323.40 196.86 L 325.72 196.80 L 328.05 196.75 L 330.37 196.69 L 332.69 196.66 L 335.01 196.63 L 337.34 196.56 L 339.66 196.51 L 341.98 196.47 L 344.31 196.45 L 346.63 196.40 L 348.95 196.37 L 351.27 196.34 L 353.60 196.28 L 355.92 196.20 L 358.24 196.12 L 360.57 196.02 L 362.89 195.89 L 365.21 195.77 L 367.54 195.68 L 369.86 195.63 L 372.18 195.58 L 374.50 195.53 L 376.83 195.44 L 379.15 195.35 L 381.47 195.22 L 383.80 195.11 L 386.12 194.95 L 388.44 194.82 L 390.76 194.68 L 393.09 194.57 L 395.41 194.55 L 397.73 194.51 L 400.06 194.48 L 402.38 194.44 L 404.70 194.40 L 407.03 194.37 L 409.35 194.34 L 411.67 194.29 L 413.99 194.25 L 416.32 194.23 L 418.64 194.21 L 420.96 194.19 L 423.29 194.16 L 425.61 194.12 L 427.93 194.07 L 430.25 193.99 L 432.58 193.94 L 434.90 193.87 L 437.22 193.80 L 439.55 193.74 L 441.87 193.72 L 444.19 193.70 L 446.52 193.66 L 448.84 193.62 L 451.16 193.56 L 453.48 193.49 L 455.81 193.43 L 458.13 193.35 L 460.45 193.27 L 462.78 193.20 L 465.10 193.14 L 467.42 193.15 L 469.75 193.15 L 472.07 193.15 L 474.39 193.18 L 476.71 193.09 L 479.04 193.07 L 481.36 193.07 L 483.68 193.08 L 486.01 193.00 L 488.33 192.95 L 490.65 192.95 L 492.97 192.95 L 495.30 192.95 L 497.62 192.80 L 499.94 192.73 L 502.27 192.69 L 504.59 192.67 L 506.91 192.67 L 509.24 192.68 L 511.56 192.64 L 513.88 192.63 L 516.20 192.63 L 518.53 190.39 L 520.85 189.96 L 523.17 189.85 L 525.50 189.53 L 527.82 189.52 L 530.14 189.36 L 532.46 187.79 L 534.79 187.36 L 537.11 181.35 L 539.43 181.35 L 541.76 180.72 L 544.08 180.71 L 546.40 180.26 L 548.73 179.68 L 551.05 179.67 L 553.37 178.77 L 555.69 177.57 L 558.02 175.55 L 560.34 174.52 L 562.66 173.86 L 564.99 174.17 L 567.31 173.10 L 569.63 173.10 L 571.95 171.18 L 574.28 168.37 L 576.60 168.37 L 578.92 165.86 L 581.25 163.63 L 583.57 163.63 L 585.89 163.62 L 588.22 162.88 L 590.54 161.06 L 592.86 193.89 L 595.18 193.22 L 597.51 192.73 L 599.83 192.34 L 602.15 189.45 L 604.48 188.03 L 606.80 188.03 L 609.12 180.86 L 611.44 148.96 L 613.77 144.25 L 616.09 176.00 L 618.41 176.17 L 620.74 175.77 L 623.06 175.72 L 625.38 197.26 L 627.71 197.26 L 630.03 197.06 L 632.35 196.44 L 634.67 194.49 L 637.00 194.50 L 639.32 194.49 L 641.64 194.49 L 643.97 194.49 L 646.29 194.48 L 648.61 194.48 L 650.93 194.62 L 653.26 206.08 L 655.58 206.08 L 657.90 206.05 L 660.23 206.04 L 662.55 205.22 L 664.87 204.28 L 667.20 204.28 L 669.52 204.28 L 671.84 200.22 L 674.16 204.28 L 676.49 204.28 L 678.81 204.28 L 681.13 198.60 L 683.46 198.60 L 685.78 198.60 L 688.10 198.60 L 690.42 193.00 L 692.75 193.00 L 695.07 188.39 L 697.39 188.39 L 699.72 179.75 L 702.04 174.84 L 704.36 173.23 L 706.69 170.37 L 709.01 169.87 L 711.33 153.88 L 713.65 149.24 L 715.98 152.04 L 718.30 141.93 L 720.62 141.88 L 722.95 141.69 L 725.27 141.69 L 727.59 141.76 L 729.92 141.75 L 732.24 140.68 L 734.56 141.38 L 736.88 141.36 L 739.21 141.83 L 741.53 141.39 L 743.85 141.39 L 746.18 141.52 L 748.50 141.52 L 750.82 141.53 L 753.14 142.33 L 755.47 141.73 L 757.79 141.68 L 760.11 141.68 L 762.44 141.66 L 764.76 141.67 L 767.08 141.65 L 769.41 139.51 L 771.73 136.07 L 774.05 136.04 L 776.37 133.43 L 778.70 131.89 L 781.02 131.13 L 783.34 131.51 L 785.67 131.50 L 787.99 131.57 L 790.31 131.56 L 792.63 131.49 L 794.96 131.49 L 797.28 131.49 L 799.60 131.49 L 801.93 131.49 L 804.25 131.49 L 806.57 131.49 L 808.90 131.49 L 811.22 131.49 L 813.54 131.49 L 815.86 131.49 L 818.19 131.49 L 820.51 131.49 L 822.83 131.49 L 825.16 131.49 L 827.48 131.49 L 829.80 131.49 L 832.12 131.49 L 834.45 131.49 L 836.77 131.49 L 839.09 131.49 L 841.42 131.49 L 843.74 131.49 L 846.06 131.49 L 848.39 131.49 L 850.71 131.49 L 853.03 131.49 L 855.35 131.49 L 857.68 131.49 L 860.00 131.49" fill="none" stroke="#3fb950" stroke-width="2"/>
    <circle cx="860.00" cy="131.49" r="3" fill="#3fb950"/>
    <text x="40.00" y="235.00" font-size="9" fill="#c9d1d9" text-anchor="middle" transform="rotate(-45 40.00 235.00)">27.09.2025</text><text x="121.30" y="235.00" font-size="9" fill="#c9d1d9" text-anchor="middle" transform="rotate(-45 121.30 235.00)">28.09.2025</text><text x="202.61" y="235.00" font-size="9" fill="#c9d1d9" text-anchor="middle" transform="rotate(-45 202.61 235.00)">28.09.2025</text><text x="283.91" y="235.00" font-size="9" fill="#c9d1d9" text-anchor="middle" transform="rotate(-45 283.91 235.00)">30.09.2025</text><text x="365.21" y="235.00" font-size="9" fill="#c9d1d9" text-anchor="middle" transform="rotate(-45 365.21 235.00)">04.10.2025</text><text x="446.52" y="235.00" font-size="9" fill="#c9d1d9" text-anchor="middle" transform="rotate(-45 446.52 235.00)">04.10.2025</text><text x="527.82" y="235.00" font-size="9" fill="#c9d1d9" text-anchor="middle" transform="rotate(-45 527.82 235.00)">04.10.2025</text><text x="609.12" y="235.00" font-size="9" fill="#c9d1d9" text-anchor="middle" transform="rotate(-45 609.12 235.00)">05.10.2025</text><text x="690.42" y="235.00" font-size="9" fill="#c9d1d9" text-anchor="middle" transform="rotate(-45 690.42 235.00)">07.10.2025</text><text x="771.73" y="235.00" font-size="9" fill="#c9d1d9" text-anchor="middle" transform="rotate(-45 771.73 235.00)">09.10.2025</text><text x="853.03" y="235.00" font-size="9" fill="#c9d1d9" text-anchor="middle" transform="rotate(-45 853.03 235.00)">04.11.2025</text>
  </g>
</svg>