<svg xmlns="http://www.w3.org/2000/svg" width="900" height="290" style="font-family: -apple-system, BlinkMacSystemFont, 'Segoe UI', Helvetica, Arial, sans-serif;">
  <rect width="100%" height="100%" fill="white"/>
  <g>
    <line x1="40" y1="220.00" x2="860" y2="220.00" stroke="#e5e7eb"/><text x="32" y="224.00" font-size="10" fill="#111827" text-anchor="end">0</text><line x1="40" y1="175.00" x2="860" y2="175.00" stroke="#e5e7eb"/><text x="32" y="179.00" font-size="10" fill="#111827" text-anchor="end">25k</text><line x1="40" y1="130.00" x2="860" y2="130.00" stroke="#e5e7eb"/><text x="32" y="134.00" font-size="10" fill="#111827" text-anchor="end">50k</text><line x1="40" y1="85.00" x2="860" y2="85.00" stroke="#e5e7eb"/><text x="32" y="89.00" font-size="10" fill="#111827" text-anchor="end">75k</text><line x1="40" y1="40.00" x2="860" y2="40.00" stroke="#e5e7eb"/><text x="32" y="44.00" font-size="10" fill="#111827" text-anchor="end">100k</text>
    <line x1="40.00" y1="40" x2="40.00" y2="220" stroke="#e5e7eb" opacity="0.5"/><line x1="122.00" y1="40" x2="122.00" y2="220" stroke="#e5e7eb" opacity="0.5"/><line x1="204.00" y1="40" x2="204.00" y2="220" stroke="#e5e7eb" opacity="0.5"/><line x1="286.00" y1="40" x2="286.00" y2="220" stroke="#e5e7eb" opacity="0.5"/><line x1="368.00" y1="40" x2="368.00" y2="220" stroke="#e5e7eb" opacity="0.5"/><line x1="450.00" y1="40" x2="450.00" y2="220" stroke="#e5e7eb" opacity="0.5"/><line x1="532.00" y1="40" x2="532.00" y2="220" stroke="#e5e7eb" opacity="0.5"/><line x1="614.00" y1="40" x2="614.00" y2="220" stroke="#e5e7eb" opacity="0.5"/><line x1="696.00" y1="40" x2="696.00" y2="220" stroke="#e5e7eb" opacity="0.5"/><line x1="778.00" y1="40" x2="778.00" y2="220" stroke="#e5e7eb" opacity="0.5"/><line x1="860.00" y1="40" x2="860.00" y2="220" stroke="#e5e7eb" opacity="0.5"/>
    <line x1="40" y1="220" x2="860" y2="220" stroke="#9ca3af"/>
    <line x1="40" y1="40"   x2="40"   y2="220" stroke="#9ca3af"/>
    <path d="M 40.00 220.00 L 42.00 220.00 L 44.00 219.60 L 46.00 219.62 L 48.00 219.63 L 50.00 219.32 L 52.00 219.31 L 54.00 219.26 L 56.00 218.89 L 58.00 218.89 L 60.00 218.89 L 62.00 218.87 L 64.00 218.87 L 66.00 218.86 L 68.00 218.85 L 70.00 218.85 L 72.00 218.82 L 74.00 218.78 L 76.00 218.72 L 78.00 218.68 L 80.00 218.64 L 82.00 218.59 L 84.00 218.59 L 86.00 218.57 L 88.00 218.57 L 90.00 218.57 L 92.00 218.57 L 94.00 218.57 L 96.00 218.57 L 98.00 218.57 L 100.00 218.57 L 102.00 218.57 L 104.00 218.55 L 106.00 218.54 L 108.00 218.58 L 110.00 218.55 L 112.00 218.55 L 114.00 218.53 L 116.00 218.31 L 118.00 217.94 L 120.00 217.88 L 122.00 217.87 L 124.00 217.86 L 126.00 217.85 L 128.00 217.84 L 130.00 217.85 L 132.00 217.82 L 134.00 217.66 L 136.00 217.61 L 138.00 217.60 L 140.00 217.57 L 142.00 217.56 L 144.00 217.52 L 146.00 217.38 L 148.00 217.24 L 150.00 216.93 L 152.00 216.65 L 154.00 216.44 L 156.00 216.39 L 158.00 216.34 L 160.00 216.83 L 162.00 200.94 L 164.00 200.94 L 166.00 200.95 L 168.00 198.99 L 170.00 198.98 L 172.00 198.94 L 174.00 198.94 L 176.00 198.91 L 178.00 198.90 L 180.00 198.93 L 182.00 198.93 L 184.00 198.99 L 186.00 198.95 L 188.00 198.96 L 190.00 198.95 L 192.00 198.95 L 194.00 198.97 L 196.00 198.97 L 198.00 198.97 L 200.00 198.97 L 202.00 198.97 L 204.00 198.97 L 206.00 198.97 L 208.00 198.97 L 210.00 198.97 L 212.00 198.97 L 214.00 198.97 L 216.00 197.51 L 218.00 197.43 L 220.00 197.40 L 222.00 197.38 L 224.00 197.38 L 226.00 197.49 L 228.00 197.34 L 230.00 197.33 L 232.00 197.18 L 234.00 197.41 L 236.00 197.41 L 238.00 197.29 L 240.00 197.29 L 242.00 197.22 L 244.00 197.21 L 246.00 197.15 L 248.00 196.94 L 250.00 197.00 L 252.00 197.41 L 254.00 197.41 L 256.00 197.30 L 258.00 197.26 L 260.00 197.19 L 262.00 197.19 L 264.00 197.19 L 266.00 197.19 L 268.00 197.18 L 270.00 197.12 L 272.00 197.09 L 274.00 197.04 L 276.00 197.00 L 278.00 196.96 L 280.00 196.92 L 282.00 196.91 L 284.00 196.86 L 286.00 196.80 L 288.00 196.75 L 290.00 196.69 L 292.00 196.66 L 294.00 196.63 L 296.00 196.56 L 298.00 196.51 L 300.00 196.47 L 302.00 196.45 L 304.00 196.40 L 306.00 196.37 L 308.00 196.34 L 310.00 196.28 L 312.00 196.20 L 314.00 196.12 L 316.00 196.02 L 318.00 195.89 L 320.00 195.77 L 322.00 195.68 L 324.00 195.63 L 326.00 195.58 L 328.00 195.53 L 330.00 195.44 L 332.00 195.35 L 334.00 195.22 L 336.00 195.11 L 338.00 194.95 L 340.00 194.82 L 342.00 194.68 L 344.00 194.57 L 346.00 194.55 L 348.00 194.51 L 350.00 194.48 L 352.00 194.44 L 354.00 194.40 L 356.00 194.37 L 358.00 194.34 L 360.00 194.29 L 362.00 194.25 L 364.00 194.23 L 366.00 194.21 L 368.00 194.19 L 370.00 194.16 L 372.00 194.12 L 374.00 194.07 L 376.00 193.99 L 378.00 193.94 L 380.00 193.87 L 382.00 193.80 L 384.00 193.74 L 386.00 193.72 L 388.00 193.70 L 390.00 193.66 L 392.00 193.62 L 394.00 193.56 L 396.00 193.49 L 398.00 193.43 L 400.00 193.35 L 402.00 193.27 L 404.00 193.20 L 406.00 193.14 L 408.00 193.15 L 410.00 193.15 L 412.00 193.15 L 414.00 193.18 L 416.00 193.09 L 418.00 193.07 L 420.00 193.07 L 422.00 193.08 L 424.00 193.00 L 426.00 192.95 L 428.00 192.95 L 430.00 192.95 L 432.00 192.95 L 434.00 192.80 L 436.00 192.73 L 438.00 192.69 L 440.00 192.67 L 442.00 192.67 L 444.00 192.68 L 446.00 192.64 L 448.00 192.63 L 450.00 192.63 L 452.00 190.39 L 454.00 189.96 L 456.00 189.85 L 458.00 189.53 L 460.00 189.52 L 462.00 189.36 L 464.00 187.79 L 466.00 187.36 L 468.00 181.35 L 470.00 181.35 L 472.00 180.72 L 474.00 180.71 L 476.00 180.26 L 478.00 179.68 L 480.00 179.67 L 482.00 178.77 L 484.00 177.57 L 486.00 175.55 L 488.00 174.52 L 490.00 173.86 L 492.00 174.17 L 494.00 173.10 L 496.00 173.10 L 498.00 171.18 L 500.00 168.37 L 502.00 168.37 L 504.00 165.86 L 506.00 163.63 L 508.00 163.63 L 510.00 163.62 L 512.00 162.88 L 514.00 161.06 L 516.00 193.89 L 518.00 193.22 L 520.00 192.73 L 522.00 192.34 L 524.00 189.45 L 526.00 188.03 L 528.00 188.03 L 530.00 180.86 L 532.00 148.96 L 534.00 144.25 L 536.00 176.00 L 538.00 176.17 L 540.00 175.77 L 542.00 175.72 L 544.00 197.26 L 546.00 197.26 L 548.00 197.06 L 550.00 196.44 L 552.00 194.49 L 554.00 194.50 L 556.00 194.49 L 558.00 194.49 L 560.00 194.49 L 562.00 194.48 L 564.00 194.48 L 566.00 194.62 L 568.00 206.08 L 570.00 206.08 L 572.00 206.05 L 574.00 206.04 L 576.00 205.22 L 578.00 204.28 L 580.00 204.28 L 582.00 204.28 L 584.00 200.22 L 586.00 204.28 L 588.00 204.28 L 590.00 204.28 L 592.00 198.60 L 594.00 198.60 L 596.00 198.60 L 598.00 198.60 L 600.00 193.00 L 602.00 193.00 L 604.00 188.39 L 606.00 188.39 L 608.00 179.75 L 610.00 174.84 L 612.00 173.23 L 614.00 170.37 L 616.00 169.87 L 618.00 153.88 L 620.00 149.24 L 622.00 152.04 L 624.00 141.93 L 626.00 141.88 L 628.00 141.69 L 630.00 141.69 L 632.00 141.76 L 634.00 141.75 L 636.00 140.68 L 638.00 141.38 L 640.00 141.36 L 642.00 141.83 L 644.00 141.39 L 646.00 141.39 L 648.00 141.52 L 650.00 141.52 L 652.00 141.53 L 654.00 142.33 L 656.00 141.73 L 658.00 141.68 L 660.00 141.68 L 662.00 141.66 L 664.00 141.67 L 666.00 141.65 L 668.00 139.51 L 670.00 136.07 L 672.00 136.04 L 674.00 133.43 L 676.00 131.89 L 678.00 131.13 L 680.00 131.51 L 682.00 131.50 L 684.00 131.57 L 686.00 131.56 L 688.00 131.49 L 690.00 131.49 L 692.00 131.49 L 694.00 131.49 L 696.00 131.49 L 698.00 131.49 L 700.00 131.49 L 702.00 131.49 L 704.00 131.49 L 706.00 131.49 L 708.00 131.49 L 710.00 131.49 L 712.00 131.49 L 714.00 131.49 L 716.00 131.49 L 718.00 131.49 L 720.00 131.49 L 722.00 131.49 L 724.00 131.49 L 726.00 131.49 L 728.00 131.49 L 730.00 131.49 L 732.00 131.49 L 734.00 131.49 L 736.00 131.49 L 738.00 131.49 L 740.00 131.49 L 742.00 131.49 L 744.00 131.49 L 746.00 131.49 L 748.00 131.49 L 750.00 131.49 L 752.00 131.49 L 754.00 131.49 L 756.00 131.49 L 758.00 131.49 L 760.00 131.49 L 762.00 131.49 L 764.00 131.49 L 766.00 131.49 L 768.00 131.49 L 770.00 131.49 L 772.00 131.49 L 774.00 131.49 L 776.00 131.49 L 778.00 131.49 L 780.00 131.49 L 782.00 131.49 L 784.00 131.49 L 786.00 131.49 L 788.00 131.49 L 790.00 131.49 L 792.00 131.49 L 794.00 131.49 L 796.00 131.49 L 798.00 131.49 L 800.00 131.49 L 802.00 131.49 L 804.00 131.49 L 806.00 131.49 L 808.00 131.49 L 810.00 131.49 L 812.00 131.49 L 814.00 131.49 L 816.00 131.49 L 818.00 131.49 L 820.00 131.49 L 822.00 131.49 L 824.00 131.49 L 826.00 131.49 L 828.00 131.49 L 830.00 131.49 L 832.00 131.49 L 834.00 131.49 L 836.00 131.49 L 838.00 131.49 L 840.00 131.49 L 842.00 131.49 L 844.00 131.49 L 846.00 131.49 L 848.00 131.49 L 850.00 131.49 L 852.00 131.49 L 854.00 131.49 L 856.00 131.49 L 858.00 131.49 L 860.00 131.49" fill="none" stroke="#111827" stroke-width="2"/>
    <circle cx="860.00" cy="131.49" r="3" fill="#111827"/>
    <text x="40.00" y="235.00" font-size="9" fill="#111827" text-anchor="middle" transform="rotate(-45 40.00 235.00)">27.09.2025</text><text x="122.00" y="235.00" font-size="9" fill="#111827" text-anchor="middle" transform="rotate(-45 122.00 235.00)">28.09.2025</text><text x="204.00" y="235.00" font-size="9" fill="#111827" text-anchor="middle" transform="rotate(-45 204.00 235.00)">29.09.2025</text><text x="286.00" y="235.00" font-size="9" fill="#111827" text-anchor="middle" transform="rotate(-45 286.00 235.00)">04.10.2025</text><text x="368.00" y="235.00" font-size="9" fill="#111827" text-anchor="middle" transform="rotate(-45 368.00 235.00)">04.10.2025</text><text x="450.00" y="235.00" font-size="9" fill="#111827" text-anchor="middle" transform="rotate(-45 450.00 235.00)">04.10.2025</text><text x="532.00" y="235.00" font-size="9" fill="#111827" text-anchor="middle" transform="rotate(-45 532.00 235.00)">05.10.2025</text><text x="614.00" y="235.00" font-size="9" fill="#111827" text-anchor="middle" transform="rotate(-45 614.00 235.00)">08.10.2025</text><text x="696.00" y="235.00" font-size="9" fill="#111827" text-anchor="middle" transform="rotate(-45 696.00 235.00)">13.10.2025</text><text x="778.00" y="235.00" font-size="9" fill="#111827" text-anchor="middle" transform="rotate(-45 778.00 235.00)">23.11.2025</text><text x="860.00" y="235.00" font-size="9" fill="#111827" text-anchor="middle" transform="rotate(-45 860.00 235.00)">03.01.2026</text>
  </g>
</svg>