<svg xmlns="http://www.w3.org/2000/svg" width="900" height="290" style="font-family: -apple-system, BlinkMacSystemFont, 'Segoe UI', Helvetica, Arial, sans-serif;">
  <rect width="100%" height="100%" fill="white"/>
  <g>
    <line x1="40" y1="220.00" x2="860" y2="220.00" stroke="#e5e7eb"/><text x="32" y="224.00" font-size="10" fill="#111827" text-anchor="end">0</text><line x1="40" y1="175.00" x2="860" y2="175.00" stroke="#e5e7eb"/><text x="32" y="179.00" font-size="10" fill="#111827" text-anchor="end">25k</text><line x1="40" y1="130.00" x2="860" y2="130.00" stroke="#e5e7eb"/><text x="32" y="134.00" font-size="10" fill="#111827" text-anchor="end">50k</text><line x1="40" y1="85.00" x2="860" y2="85.00" stroke="#e5e7eb"/><text x="32" y="89.00" font-size="10" fill="#111827" text-anchor="end">75k</text><line x1="40" y1="40.00" x2="860" y2="40.00" stroke="#e5e7eb"/><text x="32" y="44.00" font-size="10" fill="#111827" text-anchor="end">100k</text>
    <line x1="40.00" y1="40" x2="40.00" y2="220" stroke="#e5e7eb" opacity="0.5"/><line x1="120.92" y1="40" x2="120.92" y2="220" stroke="#e5e7eb" opacity="0.5"/><line x1="201.84" y1="40" x2="201.84" y2="220" stroke="#e5e7eb" opacity="0.5"/><line x1="282.76" y1="40" x2="282.76" y2="220" stroke="#e5e7eb" opacity="0.5"/><line x1="363.68" y1="40" x2="363.68" y2="220" stroke="#e5e7eb" opacity="0.5"/><line x1="444.61" y1="40" x2="444.61" y2="220" stroke="#e5e7eb" opacity="0.5"/><line x1="525.53" y1="40" x2="525.53" y2="220" stroke="#e5e7eb" opacity="0.5"/><line x1="606.45" y1="40" x2="606.45" y2="220" stroke="#e5e7eb" opacity="0.5"/><line x1="687.37" y1="40" x2="687.37" y2="220" stroke="#e5e7eb" opacity="0.5"/><line x1="768.29" y1="40" x2="768.29" y2="220" stroke="#e5e7eb" opacity="0.5"/><line x1="849.21" y1="40" x2="849.21" y2="220" stroke="#e5e7eb" opacity="0.5"/>
    <line x1="40" y1="220" x2="860" y2="220" stroke="#9ca3af"/>
    <line x1="40" y1="40"   x2="40"   y2="220" stroke="#9ca3af"/>
    <path d="M 40.00 220.00 L 41.80 220.00 L 43.60 219.60 L 45.39 219.62 L 47.19 219.63 L 48.99 219.32 L 50.79 219.31 L 52.59 219.26 L 54.39 218.89 L 56.18 218.89 L 57.98 218.89 L 59.78 218.87 L 61.58 218.87 L 63.38 218.86 L 65.18 218.85 L 66.97 218.85 L 68.77 218.82 L 70.57 218.78 L 72.37 218.72 L 74.17 218.68 L 75.96 218.64 L 77.76 218.59 L 79.56 218.59 L 81.36 218.57 L 83.16 218.57 L 84.96 218.57 L 86.75 218.57 L 88.55 218.57 L 90.35 218.57 L 92.15 218.57 L 93.95 218.57 L 95.75 218.57 L 97.54 218.55 L 99.34 218.54 L 101.14 218.58 L 102.94 218.55 L 104.74 218.55 L 106.54 218.53 L 108.33 218.31 L 110.13 217.94 L 111.93 217.88 L 113.73 217.87 L 115.53 217.86 L 117.32 217.85 L 119.12 217.84 L 120.92 217.85 L 122.72 217.82 L 124.52 217.66 L 126.32 217.61 L 128.11 217.60 L 129.91 217.57 L 131.71 217.56 L 133.51 217.52 L 135.31 217.38 L 137.11 217.24 L 138.90 216.93 L 140.70 216.65 L 142.50 216.44 L 144.30 216.39 L 146.10 216.34 L 147.89 216.83 L 149.69 200.94 L 151.49 200.94 L 153.29 200.95 L 155.09 198.99 L 156.89 198.98 L 158.68 198.94 L 160.48 198.94 L 162.28 198.91 L 164.08 198.90 L 165.88 198.93 L 167.68 198.93 L 169.47 198.99 L 171.27 198.95 L 173.07 198.96 L 174.87 198.95 L 176.67 198.95 L 178.46 198.97 L 180.26 198.97 L 182.06 198.97 L 183.86 198.97 L 185.66 198.97 L 187.46 198.97 L 189.25 198.97 L 191.05 198.97 L 192.85 198.97 L 194.65 198.97 L 196.45 198.97 L 198.25 197.51 L 200.04 197.43 L 201.84 197.40 L 203.64 197.38 L 205.44 197.38 L 207.24 197.49 L 209.04 197.34 L 210.83 197.33 L 212.63 197.18 L 214.43 197.41 L 216.23 197.41 L 218.03 197.29 L 219.82 197.29 L 221.62 197.22 L 223.42 197.21 L 225.22 197.15 L 227.02 196.94 L 228.82 197.00 L 230.61 197.41 L 232.41 197.41 L 234.21 197.30 L 236.01 197.26 L 237.81 197.19 L 239.61 197.19 L 241.40 197.19 L 243.20 197.19 L 245.00 197.18 L 246.80 197.12 L 248.60 197.09 L 250.39 197.04 L 252.19 197.00 L 253.99 196.96 L 255.79 196.92 L 257.59 196.91 L 259.39 196.86 L 261.18 196.80 L 262.98 196.75 L 264.78 196.69 L 266.58 196.66 L 268.38 196.63 L 270.18 196.56 L 271.97 196.51 L 273.77 196.47 L 275.57 196.45 L 277.37 196.40 L 279.17 196.37 L 280.96 196.34 L 282.76 196.28 L 284.56 196.20 L 286.36 196.12 L 288.16 196.02 L 289.96 195.89 L 291.75 195.77 L 293.55 195.68 L 295.35 195.63 L 297.15 195.58 L 298.95 195.53 L 300.75 195.44 L 302.54 195.35 L 304.34 195.22 L 306.14 195.11 L 307.94 194.95 L 309.74 194.82 L 311.54 194.68 L 313.33 194.57 L 315.13 194.55 L 316.93 194.51 L 318.73 194.48 L 320.53 194.44 L 322.32 194.40 L 324.12 194.37 L 325.92 194.34 L 327.72 194.29 L 329.52 194.25 L 331.32 194.23 L 333.11 194.21 L 334.91 194.19 L 336.71 194.16 L 338.51 194.12 L 340.31 194.07 L 342.11 193.99 L 343.90 193.94 L 345.70 193.87 L 347.50 193.80 L 349.30 193.74 L 351.10 193.72 L 352.89 193.70 L 354.69 193.66 L 356.49 193.62 L 358.29 193.56 L 360.09 193.49 L 361.89 193.43 L 363.68 193.35 L 365.48 193.27 L 367.28 193.20 L 369.08 193.14 L 370.88 193.15 L 372.68 193.15 L 374.47 193.15 L 376.27 193.18 L 378.07 193.09 L 379.87 193.07 L 381.67 193.07 L 383.46 193.08 L 385.26 193.00 L 387.06 192.95 L 388.86 192.95 L 390.66 192.95 L 392.46 192.95 L 394.25 192.80 L 396.05 192.73 L 397.85 192.69 L 399.65 192.67 L 401.45 192.67 L 403.25 192.68 L 405.04 192.64 L 406.84 192.63 L 408.64 192.63 L 410.44 190.39 L 412.24 189.96 L 414.04 189.85 L 415.83 189.53 L 417.63 189.52 L 419.43 189.36 L 421.23 187.79 L 423.03 187.36 L 424.82 181.35 L 426.62 181.35 L 428.42 180.72 L 430.22 180.71 L 432.02 180.26 L 433.82 179.68 L 435.61 179.67 L 437.41 178.77 L 439.21 177.57 L 441.01 175.55 L 442.81 174.52 L 444.61 173.86 L 446.40 174.17 L 448.20 173.10 L 450.00 173.10 L 451.80 171.18 L 453.60 168.37 L 455.39 168.37 L 457.19 165.86 L 458.99 163.63 L 460.79 163.63 L 462.59 163.62 L 464.39 162.88 L 466.18 161.06 L 467.98 193.89 L 469.78 193.22 L 471.58 192.73 L 473.38 192.34 L 475.18 189.45 L 476.97 188.03 L 478.77 188.03 L 480.57 180.86 L 482.37 148.96 L 484.17 144.25 L 485.96 176.00 L 487.76 176.17 L 489.56 175.77 L 491.36 175.72 L 493.16 197.26 L 494.96 197.26 L 496.75 197.06 L 498.55 196.44 L 500.35 194.49 L 502.15 194.50 L 503.95 194.49 L 505.75 194.49 L 507.54 194.49 L 509.34 194.48 L 511.14 194.48 L 512.94 194.62 L 514.74 206.08 L 516.54 206.08 L 518.33 206.05 L 520.13 206.04 L 521.93 205.22 L 523.73 204.28 L 525.53 204.28 L 527.32 204.28 L 529.12 200.22 L 530.92 204.28 L 532.72 204.28 L 534.52 204.28 L 536.32 198.60 L 538.11 198.60 L 539.91 198.60 L 541.71 198.60 L 543.51 193.00 L 545.31 193.00 L 547.11 188.39 L 548.90 188.39 L 550.70 179.75 L 552.50 174.84 L 554.30 173.23 L 556.10 170.37 L 557.89 169.87 L 559.69 153.88 L 561.49 149.24 L 563.29 152.04 L 565.09 141.93 L 566.89 141.88 L 568.68 141.69 L 570.48 141.69 L 572.28 141.76 L 574.08 141.75 L 575.88 140.68 L 577.68 141.38 L 579.47 141.36 L 581.27 141.83 L 583.07 141.39 L 584.87 141.39 L 586.67 141.52 L 588.46 141.52 L 590.26 141.53 L 592.06 142.33 L 593.86 141.73 L 595.66 141.68 L 597.46 141.68 L 599.25 141.66 L 601.05 141.67 L 602.85 141.65 L 604.65 139.51 L 606.45 136.07 L 608.25 136.04 L 610.04 133.43 L 611.84 131.89 L 613.64 131.13 L 615.44 131.51 L 617.24 131.50 L 619.04 131.57 L 620.83 131.56 L 622.63 131.49 L 624.43 131.49 L 626.23 131.49 L 628.03 131.49 L 629.82 131.49 L 631.62 131.49 L 633.42 131.49 L 635.22 131.49 L 637.02 131.49 L 638.82 131.49 L 640.61 131.49 L 642.41 131.49 L 644.21 131.49 L 646.01 131.49 L 647.81 131.49 L 649.61 131.49 L 651.40 131.49 L 653.20 131.49 L 655.00 131.49 L 656.80 131.49 L 658.60 131.49 L 660.39 131.49 L 662.19 131.49 L 663.99 131.49 L 665.79 131.49 L 667.59 131.49 L 669.39 131.49 L 671.18 131.49 L 672.98 131.49 L 674.78 131.49 L 676.58 131.49 L 678.38 131.49 L 680.18 131.49 L 681.97 131.49 L 683.77 131.49 L 685.57 131.49 L 687.37 131.49 L 689.17 131.49 L 690.96 131.49 L 692.76 131.49 L 694.56 131.49 L 696.36 131.49 L 698.16 131.49 L 699.96 131.49 L 701.75 131.49 L 703.55 131.49 L 705.35 131.49 L 707.15 131.49 L 708.95 131.49 L 710.75 131.49 L 712.54 131.49 L 714.34 131.49 L 716.14 131.49 L 717.94 131.49 L 719.74 131.49 L 721.54 131.49 L 723.33 131.49 L 725.13 131.49 L 726.93 131.49 L 728.73 131.49 L 730.53 131.49 L 732.32 131.49 L 734.12 131.49 L 735.92 131.49 L 737.72 131.49 L 739.52 131.49 L 741.32 131.49 L 743.11 131.49 L 744.91 131.49 L 746.71 131.49 L 748.51 131.49 L 750.31 131.49 L 752.11 131.49 L 753.90 131.49 L 755.70 131.49 L 757.50 131.49 L 759.30 131.49 L 761.10 131.49 L 762.89 131.49 L 764.69 131.49 L 766.49 131.49 L 768.29 131.49 L 770.09 131.49 L 771.89 131.49 L 773.68 131.49 L 775.48 131.49 L 777.28 131.49 L 779.08 131.49 L 780.88 131.49 L 782.68 131.49 L 784.47 131.49 L 786.27 131.49 L 788.07 131.49 L 789.87 131.49 L 791.67 131.49 L 793.46 131.49 L 795.26 131.49 L 797.06 131.49 L 798.86 131.49 L 800.66 131.49 L 802.46 131.49 L 804.25 131.49 L 806.05 131.49 L 807.85 131.49 L 809.65 131.49 L 811.45 131.49 L 813.25 131.49 L 815.04 131.49 L 816.84 131.49 L 818.64 131.49 L 820.44 131.49 L 822.24 131.49 L 824.04 131.49 L 825.83 131.49 L 827.63 131.49 L 829.43 131.49 L 831.23 131.49 L 833.03 131.49 L 834.82 131.49 L 836.62 131.49 L 838.42 131.49 L 840.22 131.49 L 842.02 131.49 L 843.82 131.49 L 845.61 131.49 L 847.41 131.49 L 849.21 131.49 L 851.01 131.49 L 852.81 131.49 L 854.61 131.49 L 856.40 131.49 L 858.20 131.49 L 860.00 131.49" fill="none" stroke="#111827" stroke-width="2"/>
    <circle cx="860.00" cy="131.49" r="3" fill="#111827"/>
    <text x="40.00" y="235.00" font-size="9" fill="#111827" text-anchor="middle" transform="rotate(-45 40.00 235.00)">27.09.2025</text><text x="120.92" y="235.00" font-size="9" fill="#111827" text-anchor="middle" transform="rotate(-45 120.92 235.00)">28.09.2025</text><text x="201.84" y="235.00" font-size="9" fill="#111827" text-anchor="middle" transform="rotate(-45 201.84 235.00)">29.09.2025</text><text x="282.76" y="235.00" font-size="9" fill="#111827" text-anchor="middle" transform="rotate(-45 282.76 235.00)">04.10.2025</text><text x="363.68" y="235.00" font-size="9" fill="#111827" text-anchor="middle" transform="rotate(-45 363.68 235.00)">04.10.2025</text><text x="444.61" y="235.00" font-size="9" fill="#111827" text-anchor="middle" transform="rotate(-45 444.61 235.00)">04.10.2025</text><text x="525.53" y="235.00" font-size="9" fill="#111827" text-anchor="middle" transform="rotate(-45 525.53 235.00)">06.10.2025</text><text x="606.45" y="235.00" font-size="9" fill="#111827" text-anchor="middle" transform="rotate(-45 606.45 235.00)">09.10.2025</text><text x="687.37" y="235.00" font-size="9" fill="#111827" text-anchor="middle" transform="rotate(-45 687.37 235.00)">14.11.2025</text><text x="768.29" y="235.00" font-size="9" fill="#111827" text-anchor="middle" transform="rotate(-45 768.29 235.00)">29.12.2025</text><text x="849.21" y="235.00" font-size="9" fill="#111827" text-anchor="middle" transform="rotate(-45 849.21 235.00)">09.02.2026</text>
  </g>
</svg>