<svg xmlns="http://www.w3.org/2000/svg" width="900" height="290" style="font-family: -apple-system, BlinkMacSystemFont, 'Segoe UI', Helvetica, Arial, sans-serif;">
  <rect width="100%" height="100%" fill="#0d1117"/>
  <g>
    <line x1="40" y1="220.00" x2="860" y2="220.00" stroke="#30363d"/><text x="32" y="224.00" font-size="10" fill="#c9d1d9" text-anchor="end">0</text><line x1="40" y1="175.00" x2="860" y2="175.00" stroke="#30363d"/><text x="32" y="179.00" font-size="10" fill="#c9d1d9" text-anchor="end">25k</text><line x1="40" y1="130.00" x2="860" y2="130.00" stroke="#30363d"/><text x="32" y="134.00" font-size="10" fill="#c9d1d9" text-anchor="end">50k</text><line x1="40" y1="85.00" x2="860" y2="85.00" stroke="#30363d"/><text x="32" y="89.00" font-size="10" fill="#c9d1d9" text-anchor="end">75k</text><line x1="40" y1="40.00" x2="860" y2="40.00" stroke="#30363d"/><text x="32" y="44.00" font-size="10" fill="#c9d1d9" text-anchor="end">100k</text>
    <line x1="40.00" y1="40" x2="40.00" y2="220" stroke="#30363d" opacity="0.5"/><line x1="121.77" y1="40" x2="121.77" y2="220" stroke="#30363d" opacity="0.5"/><line x1="203.53" y1="40" x2="203.53" y2="220" stroke="#30363d" opacity="0.5"/><line x1="285.30" y1="40" x2="285.30" y2="220" stroke="#30363d" opacity="0.5"/><line x1="367.07" y1="40" x2="367.07" y2="220" stroke="#30363d" opacity="0.5"/><line x1="448.83" y1="40" x2="448.83" y2="220" stroke="#30363d" opacity="0.5"/><line x1="530.60" y1="40" x2="530.60" y2="220" stroke="#30363d" opacity="0.5"/><line x1="612.36" y1="40" x2="612.36" y2="220" stroke="#30363d" opacity="0.5"/><line x1="694.13" y1="40" x2="694.13" y2="220" stroke="#30363d" opacity="0.5"/><line x1="775.90" y1="40" x2="775.90" y2="220" stroke="#30363d" opacity="0.5"/><line x1="857.66" y1="40" x2="857.66" y2="220" stroke="#30363d" opacity="0.5"/>
    <line x1="40" y1="220" x2="860" y2="220" stroke="#30363d"/>
    <line x1="40" y1="40"   x2="40"   y2="220" stroke="#30363d"/>
    <path d="M 40.00 220.00 L 42.34 220.00 L 44.67 219.60 L 47.01 219.62 L 49.34 219.63 L 51.68 219.32 L 54.02 219.31 L 56.35 219.26 L 58.69 218.89 L 61.03 218.89 L 63.36 218.89 L 65.70 218.87 L 68.03 218.87 L 70.37 218.86 L 72.71 218.85 L 75.04 218.85 L 77.38 218.82 L 79.72 218.78 L 82.05 218.72 L 84.39 218.68 L 86.72 218.64 L 89.06 218.59 L 91.40 218.59 L 93.73 218.57 L 96.07 218.57 L 98.40 218.57 L 100.74 218.57 L 103.08 218.57 L 105.41 218.57 L 107.75 218.57 L 110.09 218.57 L 112.42 218.57 L 114.76 218.55 L 117.09 218.54 L 119.43 218.58 L 121.77 218.55 L 124.10 218.55 L 126.44 218.53 L 128.77 218.31 L 131.11 217.94 L 133.45 217.88 L 135.78 217.87 L 138.12 217.86 L 140.46 217.85 L 142.79 217.84 L 145.13 217.85 L 147.46 217.82 L 149.80 217.66 L 152.14 217.61 L 154.47 217.60 L 156.81 217.57 L 159.15 217.56 L 161.48 217.52 L 163.82 217.38 L 166.15 217.24 L 168.49 216.93 L 170.83 216.65 L 173.16 216.44 L 175.50 216.39 L 177.83 216.34 L 180.17 216.83 L 182.51 200.94 L 184.84 200.94 L 187.18 200.95 L 189.52 198.99 L 191.85 198.98 L 194.19 198.94 L 196.52 198.94 L 198.86 198.91 L 201.20 198.90 L 203.53 198.93 L 205.87 198.93 L 208.21 198.99 L 210.54 198.95 L 212.88 198.96 L 215.21 198.95 L 217.55 198.95 L 219.89 198.97 L 222.22 198.97 L 224.56 198.97 L 226.89 198.97 L 229.23 198.97 L 231.57 198.97 L 233.90 198.97 L 236.24 198.97 L 238.58 198.97 L 240.91 198.97 L 243.25 198.97 L 245.58 197.51 L 247.92 197.43 L 250.26 197.40 L 252.59 197.38 L 254.93 197.38 L 257.26 197.49 L 259.60 197.34 L 261.94 197.33 L 264.27 197.18 L 266.61 197.41 L 268.95 197.41 L 271.28 197.29 L 273.62 197.29 L 275.95 197.22 L 278.29 197.21 L 280.63 197.15 L 282.96 196.94 L 285.30 197.00 L 287.64 197.41 L 289.97 197.41 L 292.31 197.30 L 294.64 197.26 L 296.98 197.19 L 299.32 197.19 L 301.65 197.19 L 303.99 197.19 L 306.32 197.18 L 308.66 197.12 L 311.00 197.09 L 313.33 197.04 L 315.67 197.00 L 318.01 196.96 L 320.34 196.92 L 322.68 196.91 L 325.01 196.86 L 327.35 196.80 L 329.69 196.75 L 332.02 196.69 L 334.36 196.66 L 336.70 196.63 L 339.03 196.56 L 341.37 196.51 L 343.70 196.47 L 346.04 196.45 L 348.38 196.40 L 350.71 196.37 L 353.05 196.34 L 355.38 196.28 L 357.72 196.20 L 360.06 196.12 L 362.39 196.02 L 364.73 195.89 L 367.07 195.77 L 369.40 195.68 L 371.74 195.63 L 374.07 195.58 L 376.41 195.53 L 378.75 195.44 L 381.08 195.35 L 383.42 195.22 L 385.75 195.11 L 388.09 194.95 L 390.43 194.82 L 392.76 194.68 L 395.10 194.57 L 397.44 194.55 L 399.77 194.51 L 402.11 194.48 L 404.44 194.44 L 406.78 194.40 L 409.12 194.37 L 411.45 194.34 L 413.79 194.29 L 416.13 194.25 L 418.46 194.23 L 420.80 194.21 L 423.13 194.19 L 425.47 194.16 L 427.81 194.12 L 430.14 194.07 L 432.48 193.99 L 434.81 193.94 L 437.15 193.87 L 439.49 193.80 L 441.82 193.74 L 444.16 193.72 L 446.50 193.70 L 448.83 193.66 L 451.17 193.62 L 453.50 193.56 L 455.84 193.49 L 458.18 193.43 L 460.51 193.35 L 462.85 193.27 L 465.19 193.20 L 467.52 193.14 L 469.86 193.15 L 472.19 193.15 L 474.53 193.15 L 476.87 193.18 L 479.20 193.09 L 481.54 193.07 L 483.87 193.07 L 486.21 193.08 L 488.55 193.00 L 490.88 192.95 L 493.22 192.95 L 495.56 192.95 L 497.89 192.95 L 500.23 192.80 L 502.56 192.73 L 504.90 192.69 L 507.24 192.67 L 509.57 192.67 L 511.91 192.68 L 514.25 192.64 L 516.58 192.63 L 518.92 192.63 L 521.25 190.39 L 523.59 189.96 L 525.93 189.85 L 528.26 189.53 L 530.60 189.52 L 532.93 189.36 L 535.27 187.79 L 537.61 187.36 L 539.94 181.35 L 542.28 181.35 L 544.62 180.72 L 546.95 180.71 L 549.29 180.26 L 551.62 179.68 L 553.96 179.67 L 556.30 178.77 L 558.63 177.57 L 560.97 175.55 L 563.30 174.52 L 565.64 173.86 L 567.98 174.17 L 570.31 173.10 L 572.65 173.10 L 574.99 171.18 L 577.32 168.37 L 579.66 168.37 L 581.99 165.86 L 584.33 163.63 L 586.67 163.63 L 589.00 163.62 L 591.34 162.88 L 593.68 161.06 L 596.01 193.89 L 598.35 193.22 L 600.68 192.73 L 603.02 192.34 L 605.36 189.45 L 607.69 188.03 L 610.03 188.03 L 612.36 180.86 L 614.70 148.96 L 617.04 144.25 L 619.37 176.00 L 621.71 176.17 L 624.05 175.77 L 626.38 175.72 L 628.72 197.26 L 631.05 197.26 L 633.39 197.06 L 635.73 196.44 L 638.06 194.49 L 640.40 194.50 L 642.74 194.49 L 645.07 194.49 L 647.41 194.49 L 649.74 194.48 L 652.08 194.48 L 654.42 194.62 L 656.75 206.08 L 659.09 206.08 L 661.42 206.05 L 663.76 206.04 L 666.10 205.22 L 668.43 204.28 L 670.77 204.28 L 673.11 204.28 L 675.44 200.22 L 677.78 204.28 L 680.11 204.28 L 682.45 204.28 L 684.79 198.60 L 687.12 198.60 L 689.46 198.60 L 691.79 198.60 L 694.13 193.00 L 696.47 193.00 L 698.80 188.39 L 701.14 188.39 L 703.48 179.75 L 705.81 174.84 L 708.15 173.23 L 710.48 170.37 L 712.82 169.87 L 715.16 153.88 L 717.49 149.24 L 719.83 152.04 L 722.17 141.93 L 724.50 141.88 L 726.84 141.69 L 729.17 141.69 L 731.51 141.76 L 733.85 141.75 L 736.18 140.68 L 738.52 141.38 L 740.85 141.36 L 743.19 141.83 L 745.53 141.39 L 747.86 141.39 L 750.20 141.52 L 752.54 141.52 L 754.87 141.53 L 757.21 142.33 L 759.54 141.73 L 761.88 141.68 L 764.22 141.68 L 766.55 141.66 L 768.89 141.67 L 771.23 141.65 L 773.56 139.51 L 775.90 136.07 L 778.23 136.04 L 780.57 133.43 L 782.91 131.89 L 785.24 131.13 L 787.58 131.51 L 789.91 131.50 L 792.25 131.57 L 794.59 131.56 L 796.92 131.49 L 799.26 131.49 L 801.60 131.49 L 803.93 131.49 L 806.27 131.49 L 808.60 131.49 L 810.94 131.49 L 813.28 131.49 L 815.61 131.49 L 817.95 131.49 L 820.28 131.49 L 822.62 131.49 L 824.96 131.49 L 827.29 131.49 L 829.63 131.49 L 831.97 131.49 L 834.30 131.49 L 836.64 131.49 L 838.97 131.49 L 841.31 131.49 L 843.65 131.49 L 845.98 131.49 L 848.32 131.49 L 850.66 131.49 L 852.99 131.49 L 855.33 131.49 L 857.66 131.49 L 860.00 131.49" fill="none" stroke="#3fb950" stroke-width="2"/>
    <circle cx="860.00" cy="131.49" r="3" fill="#3fb950"/>
    <text x="40.00" y="235.00" font-size="9" fill="#c9d1d9" text-anchor="middle" transform="rotate(-45 40.00 235.00)">27.09.2025</text><text x="121.77" y="235.00" font-size="9" fill="#c9d1d9" text-anchor="middle" transform="rotate(-45 121.77 235.00)">28.09.2025</text><text x="203.53" y="235.00" font-size="9" fill="#c9d1d9" text-anchor="middle" transform="rotate(-45 203.53 235.00)">28.09.2025</text><text x="285.30" y="235.00" font-size="9" fill="#c9d1d9" text-anchor="middle" transform="rotate(-45 285.30 235.00)">30.09.2025</text><text x="367.07" y="235.00" font-size="9" fill="#c9d1d9" text-anchor="middle" transform="rotate(-45 367.07 235.00)">04.10.2025</text><text x="448.83" y="235.00" font-size="9" fill="#c9d1d9" text-anchor="middle" transform="rotate(-45 448.83 235.00)">04.10.2025</text><text x="530.60" y="235.00" font-size="9" fill="#c9d1d9" text-anchor="middle" transform="rotate(-45 530.60 235.00)">04.10.2025</text><text x="612.36" y="235.00" font-size="9" fill="#c9d1d9" text-anchor="middle" transform="rotate(-45 612.36 235.00)">05.10.2025</text><text x="694.13" y="235.00" font-size="9" fill="#c9d1d9" text-anchor="middle" transform="rotate(-45 694.13 235.00)">07.10.2025</text><text x="775.90" y="235.00" font-size="9" fill="#c9d1d9" text-anchor="middle" transform="rotate(-45 775.90 235.00)">09.10.2025</text><text x="857.66" y="235.00" font-size="9" fill="#c9d1d9" text-anchor="middle" transform="rotate(-45 857.66 235.00)">04.11.2025</text>
  </g>
</svg>