<svg xmlns="http://www.w3.org/2000/svg" width="900" height="290" style="font-family: -apple-system, BlinkMacSystemFont, 'Segoe UI', Helvetica, Arial, sans-serif;">
  <rect width="100%" height="100%" fill="#0d1117"/>
  <g>
    <line x1="40" y1="220.00" x2="860" y2="220.00" stroke="#30363d"/><text x="32" y="224.00" font-size="10" fill="#c9d1d9" text-anchor="end">0</text><line x1="40" y1="175.00" x2="860" y2="175.00" stroke="#30363d"/><text x="32" y="179.00" font-size="10" fill="#c9d1d9" text-anchor="end">25k</text><line x1="40" y1="130.00" x2="860" y2="130.00" stroke="#30363d"/><text x="32" y="134.00" font-size="10" fill="#c9d1d9" text-anchor="end">50k</text><line x1="40" y1="85.00" x2="860" y2="85.00" stroke="#30363d"/><text x="32" y="89.00" font-size="10" fill="#c9d1d9" text-anchor="end">75k</text><line x1="40" y1="40.00" x2="860" y2="40.00" stroke="#30363d"/><text x="32" y="44.00" font-size="10" fill="#c9d1d9" text-anchor="end">100k</text>
    <line x1="40.00" y1="40" x2="40.00" y2="220" stroke="#30363d" opacity="0.5"/><line x1="120.85" y1="40" x2="120.85" y2="220" stroke="#30363d" opacity="0.5"/><line x1="201.69" y1="40" x2="201.69" y2="220" stroke="#30363d" opacity="0.5"/><line x1="282.54" y1="40" x2="282.54" y2="220" stroke="#30363d" opacity="0.5"/><line x1="363.38" y1="40" x2="363.38" y2="220" stroke="#30363d" opacity="0.5"/><line x1="444.23" y1="40" x2="444.23" y2="220" stroke="#30363d" opacity="0.5"/><line x1="525.07" y1="40" x2="525.07" y2="220" stroke="#30363d" opacity="0.5"/><line x1="605.92" y1="40" x2="605.92" y2="220" stroke="#30363d" opacity="0.5"/><line x1="686.76" y1="40" x2="686.76" y2="220" stroke="#30363d" opacity="0.5"/><line x1="767.61" y1="40" x2="767.61" y2="220" stroke="#30363d" opacity="0.5"/><line x1="848.45" y1="40" x2="848.45" y2="220" stroke="#30363d" opacity="0.5"/>
    <line x1="40" y1="220" x2="860" y2="220" stroke="#30363d"/>
    <line x1="40" y1="40"   x2="40"   y2="220" stroke="#30363d"/>
    <path d="M 40.00 220.00 L 41.92 220.00 L 43.85 219.60 L 45.77 219.62 L 47.70 219.63 L 49.62 219.32 L 51.55 219.31 L 53.47 219.26 L 55.40 218.89 L 57.32 218.89 L 59.25 218.89 L 61.17 218.87 L 63.10 218.87 L 65.02 218.86 L 66.95 218.85 L 68.87 218.85 L 70.80 218.82 L 72.72 218.78 L 74.65 218.72 L 76.57 218.68 L 78.50 218.64 L 80.42 218.59 L 82.35 218.59 L 84.27 218.57 L 86.20 218.57 L 88.12 218.57 L 90.05 218.57 L 91.97 218.57 L 93.90 218.57 L 95.82 218.57 L 97.75 218.57 L 99.67 218.57 L 101.60 218.55 L 103.52 218.54 L 105.45 218.58 L 107.37 218.55 L 109.30 218.55 L 111.22 218.53 L 113.15 218.31 L 115.07 217.94 L 117.00 217.88 L 118.92 217.87 L 120.85 217.86 L 122.77 217.85 L 124.69 217.84 L 126.62 217.85 L 128.54 217.82 L 130.47 217.66 L 132.39 217.61 L 134.32 217.60 L 136.24 217.57 L 138.17 217.56 L 140.09 217.52 L 142.02 217.38 L 143.94 217.24 L 145.87 216.93 L 147.79 216.65 L 149.72 216.44 L 151.64 216.39 L 153.57 216.34 L 155.49 216.83 L 157.42 200.94 L 159.34 200.94 L 161.27 200.95 L 163.19 198.99 L 165.12 198.98 L 167.04 198.94 L 168.97 198.94 L 170.89 198.91 L 172.82 198.90 L 174.74 198.93 L 176.67 198.93 L 178.59 198.99 L 180.52 198.95 L 182.44 198.96 L 184.37 198.95 L 186.29 198.95 L 188.22 198.97 L 190.14 198.97 L 192.07 198.97 L 193.99 198.97 L 195.92 198.97 L 197.84 198.97 L 199.77 198.97 L 201.69 198.97 L 203.62 198.97 L 205.54 198.97 L 207.46 198.97 L 209.39 197.51 L 211.31 197.43 L 213.24 197.40 L 215.16 197.38 L 217.09 197.38 L 219.01 197.49 L 220.94 197.34 L 222.86 197.33 L 224.79 197.18 L 226.71 197.41 L 228.64 197.41 L 230.56 197.29 L 232.49 197.29 L 234.41 197.22 L 236.34 197.21 L 238.26 197.15 L 240.19 196.94 L 242.11 197.00 L 244.04 197.41 L 245.96 197.41 L 247.89 197.30 L 249.81 197.26 L 251.74 197.19 L 253.66 197.19 L 255.59 197.19 L 257.51 197.19 L 259.44 197.18 L 261.36 197.12 L 263.29 197.09 L 265.21 197.04 L 267.14 197.00 L 269.06 196.96 L 270.99 196.92 L 272.91 196.91 L 274.84 196.86 L 276.76 196.80 L 278.69 196.75 L 280.61 196.69 L 282.54 196.66 L 284.46 196.63 L 286.38 196.56 L 288.31 196.51 L 290.23 196.47 L 292.16 196.45 L 294.08 196.40 L 296.01 196.37 L 297.93 196.34 L 299.86 196.28 L 301.78 196.20 L 303.71 196.12 L 305.63 196.02 L 307.56 195.89 L 309.48 195.77 L 311.41 195.68 L 313.33 195.63 L 315.26 195.58 L 317.18 195.53 L 319.11 195.44 L 321.03 195.35 L 322.96 195.22 L 324.88 195.11 L 326.81 194.95 L 328.73 194.82 L 330.66 194.68 L 332.58 194.57 L 334.51 194.55 L 336.43 194.51 L 338.36 194.48 L 340.28 194.44 L 342.21 194.40 L 344.13 194.37 L 346.06 194.34 L 347.98 194.29 L 349.91 194.25 L 351.83 194.23 L 353.76 194.21 L 355.68 194.19 L 357.61 194.16 L 359.53 194.12 L 361.46 194.07 L 363.38 193.99 L 365.31 193.94 L 367.23 193.87 L 369.15 193.80 L 371.08 193.74 L 373.00 193.72 L 374.93 193.70 L 376.85 193.66 L 378.78 193.62 L 380.70 193.56 L 382.63 193.49 L 384.55 193.43 L 386.48 193.35 L 388.40 193.27 L 390.33 193.20 L 392.25 193.14 L 394.18 193.15 L 396.10 193.15 L 398.03 193.15 L 399.95 193.18 L 401.88 193.09 L 403.80 193.07 L 405.73 193.07 L 407.65 193.08 L 409.58 193.00 L 411.50 192.95 L 413.43 192.95 L 415.35 192.95 L 417.28 192.95 L 419.20 192.80 L 421.13 192.73 L 423.05 192.69 L 424.98 192.67 L 426.90 192.67 L 428.83 192.68 L 430.75 192.64 L 432.68 192.63 L 434.60 192.63 L 436.53 190.39 L 438.45 189.96 L 440.38 189.85 L 442.30 189.53 L 444.23 189.52 L 446.15 189.36 L 448.08 187.79 L 450.00 187.36 L 451.92 181.35 L 453.85 181.35 L 455.77 180.72 L 457.70 180.71 L 459.62 180.26 L 461.55 179.68 L 463.47 179.67 L 465.40 178.77 L 467.32 177.57 L 469.25 175.55 L 471.17 174.52 L 473.10 173.86 L 475.02 174.17 L 476.95 173.10 L 478.87 173.10 L 480.80 171.18 L 482.72 168.37 L 484.65 168.37 L 486.57 165.86 L 488.50 163.63 L 490.42 163.63 L 492.35 163.62 L 494.27 162.88 L 496.20 161.06 L 498.12 193.89 L 500.05 193.22 L 501.97 192.73 L 503.90 192.34 L 505.82 189.45 L 507.75 188.03 L 509.67 188.03 L 511.60 180.86 L 513.52 148.96 L 515.45 144.25 L 517.37 176.00 L 519.30 176.17 L 521.22 175.77 L 523.15 175.72 L 525.07 197.26 L 527.00 197.26 L 528.92 197.06 L 530.85 196.44 L 532.77 194.49 L 534.69 194.50 L 536.62 194.49 L 538.54 194.49 L 540.47 194.49 L 542.39 194.48 L 544.32 194.48 L 546.24 194.62 L 548.17 206.08 L 550.09 206.08 L 552.02 206.05 L 553.94 206.04 L 555.87 205.22 L 557.79 204.28 L 559.72 204.28 L 561.64 204.28 L 563.57 200.22 L 565.49 204.28 L 567.42 204.28 L 569.34 204.28 L 571.27 198.60 L 573.19 198.60 L 575.12 198.60 L 577.04 198.60 L 578.97 193.00 L 580.89 193.00 L 582.82 188.39 L 584.74 188.39 L 586.67 179.75 L 588.59 174.84 L 590.52 173.23 L 592.44 170.37 L 594.37 169.87 L 596.29 153.88 L 598.22 149.24 L 600.14 152.04 L 602.07 141.93 L 603.99 141.88 L 605.92 141.69 L 607.84 141.69 L 609.77 141.76 L 611.69 141.75 L 613.62 140.68 L 615.54 141.38 L 617.46 141.36 L 619.39 141.83 L 621.31 141.39 L 623.24 141.39 L 625.16 141.52 L 627.09 141.52 L 629.01 141.53 L 630.94 142.33 L 632.86 141.73 L 634.79 141.68 L 636.71 141.68 L 638.64 141.66 L 640.56 141.67 L 642.49 141.65 L 644.41 139.51 L 646.34 136.07 L 648.26 136.04 L 650.19 133.43 L 652.11 131.89 L 654.04 131.13 L 655.96 131.51 L 657.89 131.50 L 659.81 131.57 L 661.74 131.56 L 663.66 131.49 L 665.59 131.49 L 667.51 131.49 L 669.44 131.49 L 671.36 131.49 L 673.29 131.49 L 675.21 131.49 L 677.14 131.49 L 679.06 131.49 L 680.99 131.49 L 682.91 131.49 L 684.84 131.49 L 686.76 131.49 L 688.69 131.49 L 690.61 131.49 L 692.54 131.49 L 694.46 131.49 L 696.38 131.49 L 698.31 131.49 L 700.23 131.49 L 702.16 131.49 L 704.08 131.49 L 706.01 131.49 L 707.93 131.49 L 709.86 131.49 L 711.78 131.49 L 713.71 131.49 L 715.63 131.49 L 717.56 131.49 L 719.48 131.49 L 721.41 131.49 L 723.33 131.49 L 725.26 131.49 L 727.18 131.49 L 729.11 131.49 L 731.03 131.49 L 732.96 131.49 L 734.88 131.49 L 736.81 131.49 L 738.73 131.49 L 740.66 131.49 L 742.58 131.49 L 744.51 131.49 L 746.43 131.49 L 748.36 131.49 L 750.28 131.49 L 752.21 131.49 L 754.13 131.49 L 756.06 131.49 L 757.98 131.49 L 759.91 131.49 L 761.83 131.49 L 763.76 131.49 L 765.68 131.49 L 767.61 131.49 L 769.53 131.49 L 771.46 131.49 L 773.38 131.49 L 775.31 131.49 L 777.23 131.49 L 779.15 131.49 L 781.08 131.49 L 783.00 131.49 L 784.93 131.49 L 786.85 131.49 L 788.78 131.49 L 790.70 131.49 L 792.63 131.49 L 794.55 131.49 L 796.48 131.49 L 798.40 131.49 L 800.33 131.49 L 802.25 131.49 L 804.18 131.49 L 806.10 131.49 L 808.03 131.49 L 809.95 131.49 L 811.88 131.49 L 813.80 131.49 L 815.73 131.49 L 817.65 131.49 L 819.58 131.49 L 821.50 131.49 L 823.43 131.49 L 825.35 131.49 L 827.28 131.49 L 829.20 131.49 L 831.13 131.49 L 833.05 131.49 L 834.98 131.49 L 836.90 131.49 L 838.83 131.49 L 840.75 131.49 L 842.68 131.49 L 844.60 131.49 L 846.53 131.49 L 848.45 131.49 L 850.38 131.49 L 852.30 131.49 L 854.23 131.49 L 856.15 131.49 L 858.08 131.49 L 860.00 131.49" fill="none" stroke="#3fb950" stroke-width="2"/>
    <circle cx="860.00" cy="131.49" r="3" fill="#3fb950"/>
    <text x="40.00" y="235.00" font-size="9" fill="#c9d1d9" text-anchor="middle" transform="rotate(-45 40.00 235.00)">27.09.2025</text><text x="120.85" y="235.00" font-size="9" fill="#c9d1d9" text-anchor="middle" transform="rotate(-45 120.85 235.00)">28.09.2025</text><text x="201.69" y="235.00" font-size="9" fill="#c9d1d9" text-anchor="middle" transform="rotate(-45 201.69 235.00)">29.09.2025</text><text x="282.54" y="235.00" font-size="9" fill="#c9d1d9" text-anchor="middle" transform="rotate(-45 282.54 235.00)">04.10.2025</text><text x="363.38" y="235.00" font-size="9" fill="#c9d1d9" text-anchor="middle" transform="rotate(-45 363.38 235.00)">04.10.2025</text><text x="444.23" y="235.00" font-size="9" fill="#c9d1d9" text-anchor="middle" transform="rotate(-45 444.23 235.00)">04.10.2025</text><text x="525.07" y="235.00" font-size="9" fill="#c9d1d9" text-anchor="middle" transform="rotate(-45 525.07 235.00)">05.10.2025</text><text x="605.92" y="235.00" font-size="9" fill="#c9d1d9" text-anchor="middle" transform="rotate(-45 605.92 235.00)">08.10.2025</text><text x="686.76" y="235.00" font-size="9" fill="#c9d1d9" text-anchor="middle" transform="rotate(-45 686.76 235.00)">21.10.2025</text><text x="767.61" y="235.00" font-size="9" fill="#c9d1d9" text-anchor="middle" transform="rotate(-45 767.61 235.00)">02.12.2025</text><text x="848.45" y="235.00" font-size="9" fill="#c9d1d9" text-anchor="middle" transform="rotate(-45 848.45 235.00)">13.01.2026</text>
  </g>
</svg>