<svg xmlns="http://www.w3.org/2000/svg" width="900" height="290" style="font-family: -apple-system, BlinkMacSystemFont, 'Segoe UI', Helvetica, Arial, sans-serif;">
  <rect width="100%" height="100%" fill="#0d1117"/>
  <g>
    <line x1="40" y1="220.00" x2="860" y2="220.00" stroke="#30363d"/><text x="32" y="224.00" font-size="10" fill="#c9d1d9" text-anchor="end">0</text><line x1="40" y1="175.00" x2="860" y2="175.00" stroke="#30363d"/><text x="32" y="179.00" font-size="10" fill="#c9d1d9" text-anchor="end">25k</text><line x1="40" y1="130.00" x2="860" y2="130.00" stroke="#30363d"/><text x="32" y="134.00" font-size="10" fill="#c9d1d9" text-anchor="end">50k</text><line x1="40" y1="85.00" x2="860" y2="85.00" stroke="#30363d"/><text x="32" y="89.00" font-size="10" fill="#c9d1d9" text-anchor="end">75k</text><line x1="40" y1="40.00" x2="860" y2="40.00" stroke="#30363d"/><text x="32" y="44.00" font-size="10" fill="#c9d1d9" text-anchor="end">100k</text>
    <line x1="40.00" y1="40" x2="40.00" y2="220" stroke="#30363d" opacity="0.5"/><line x1="120.11" y1="40" x2="120.11" y2="220" stroke="#30363d" opacity="0.5"/><line x1="200.23" y1="40" x2="200.23" y2="220" stroke="#30363d" opacity="0.5"/><line x1="280.34" y1="40" x2="280.34" y2="220" stroke="#30363d" opacity="0.5"/><line x1="360.46" y1="40" x2="360.46" y2="220" stroke="#30363d" opacity="0.5"/><line x1="440.57" y1="40" x2="440.57" y2="220" stroke="#30363d" opacity="0.5"/><line x1="520.69" y1="40" x2="520.69" y2="220" stroke="#30363d" opacity="0.5"/><line x1="600.80" y1="40" x2="600.80" y2="220" stroke="#30363d" opacity="0.5"/><line x1="680.92" y1="40" x2="680.92" y2="220" stroke="#30363d" opacity="0.5"/><line x1="761.03" y1="40" x2="761.03" y2="220" stroke="#30363d" opacity="0.5"/><line x1="841.15" y1="40" x2="841.15" y2="220" stroke="#30363d" opacity="0.5"/>
    <line x1="40" y1="220" x2="860" y2="220" stroke="#30363d"/>
    <line x1="40" y1="40"   x2="40"   y2="220" stroke="#30363d"/>
    <path d="M 40.00 220.00 L 42.36 220.00 L 44.71 219.60 L 47.07 219.62 L 49.43 219.63 L 51.78 219.32 L 54.14 219.31 L 56.49 219.26 L 58.85 218.89 L 61.21 218.89 L 63.56 218.89 L 65.92 218.87 L 68.28 218.87 L 70.63 218.86 L 72.99 218.85 L 75.34 218.85 L 77.70 218.82 L 80.06 218.78 L 82.41 218.72 L 84.77 218.68 L 87.13 218.64 L 89.48 218.59 L 91.84 218.59 L 94.20 218.57 L 96.55 218.57 L 98.91 218.57 L 101.26 218.57 L 103.62 218.57 L 105.98 218.57 L 108.33 218.57 L 110.69 218.57 L 113.05 218.57 L 115.40 218.55 L 117.76 218.54 L 120.11 218.58 L 122.47 218.55 L 124.83 218.55 L 127.18 218.53 L 129.54 218.31 L 131.90 217.94 L 134.25 217.88 L 136.61 217.87 L 138.97 217.86 L 141.32 217.85 L 143.68 217.84 L 146.03 217.85 L 148.39 217.82 L 150.75 217.66 L 153.10 217.61 L 155.46 217.60 L 157.82 217.57 L 160.17 217.56 L 162.53 217.52 L 164.89 217.38 L 167.24 217.24 L 169.60 216.93 L 171.95 216.65 L 174.31 216.44 L 176.67 216.39 L 179.02 216.34 L 181.38 216.83 L 183.74 200.94 L 186.09 200.94 L 188.45 200.95 L 190.80 198.99 L 193.16 198.98 L 195.52 198.94 L 197.87 198.94 L 200.23 198.91 L 202.59 198.90 L 204.94 198.93 L 207.30 198.93 L 209.66 198.99 L 212.01 198.95 L 214.37 198.96 L 216.72 198.95 L 219.08 198.95 L 221.44 198.97 L 223.79 198.97 L 226.15 198.97 L 228.51 198.97 L 230.86 198.97 L 233.22 198.97 L 235.57 198.97 L 237.93 198.97 L 240.29 198.97 L 242.64 198.97 L 245.00 198.97 L 247.36 197.51 L 249.71 197.43 L 252.07 197.40 L 254.43 197.38 L 256.78 197.38 L 259.14 197.49 L 261.49 197.34 L 263.85 197.33 L 266.21 197.18 L 268.56 197.41 L 270.92 197.41 L 273.28 197.29 L 275.63 197.29 L 277.99 197.22 L 280.34 197.21 L 282.70 197.15 L 285.06 196.94 L 287.41 197.00 L 289.77 197.41 L 292.13 197.41 L 294.48 197.30 L 296.84 197.26 L 299.20 197.19 L 301.55 197.19 L 303.91 197.19 L 306.26 197.19 L 308.62 197.18 L 310.98 197.12 L 313.33 197.09 L 315.69 197.04 L 318.05 197.00 L 320.40 196.96 L 322.76 196.92 L 325.11 196.91 L 327.47 196.86 L 329.83 196.80 L 332.18 196.75 L 334.54 196.69 L 336.90 196.66 L 339.25 196.63 L 341.61 196.56 L 343.97 196.51 L 346.32 196.47 L 348.68 196.45 L 351.03 196.40 L 353.39 196.37 L 355.75 196.34 L 358.10 196.28 L 360.46 196.20 L 362.82 196.12 L 365.17 196.02 L 367.53 195.89 L 369.89 195.77 L 372.24 195.68 L 374.60 195.63 L 376.95 195.58 L 379.31 195.53 L 381.67 195.44 L 384.02 195.35 L 386.38 195.22 L 388.74 195.11 L 391.09 194.95 L 393.45 194.82 L 395.80 194.68 L 398.16 194.57 L 400.52 194.55 L 402.87 194.51 L 405.23 194.48 L 407.59 194.44 L 409.94 194.40 L 412.30 194.37 L 414.66 194.34 L 417.01 194.29 L 419.37 194.25 L 421.72 194.23 L 424.08 194.21 L 426.44 194.19 L 428.79 194.16 L 431.15 194.12 L 433.51 194.07 L 435.86 193.99 L 438.22 193.94 L 440.57 193.87 L 442.93 193.80 L 445.29 193.74 L 447.64 193.72 L 450.00 193.70 L 452.36 193.66 L 454.71 193.62 L 457.07 193.56 L 459.43 193.49 L 461.78 193.43 L 464.14 193.35 L 466.49 193.27 L 468.85 193.20 L 471.21 193.14 L 473.56 193.15 L 475.92 193.15 L 478.28 193.15 L 480.63 193.18 L 482.99 193.09 L 485.34 193.07 L 487.70 193.07 L 490.06 193.08 L 492.41 193.00 L 494.77 192.95 L 497.13 192.95 L 499.48 192.95 L 501.84 192.95 L 504.20 192.80 L 506.55 192.73 L 508.91 192.69 L 511.26 192.67 L 513.62 192.67 L 515.98 192.68 L 518.33 192.64 L 520.69 192.63 L 523.05 192.63 L 525.40 190.39 L 527.76 189.96 L 530.11 189.85 L 532.47 189.53 L 534.83 189.52 L 537.18 189.36 L 539.54 187.79 L 541.90 187.36 L 544.25 181.35 L 546.61 181.35 L 548.97 180.72 L 551.32 180.71 L 553.68 180.26 L 556.03 179.68 L 558.39 179.67 L 560.75 178.77 L 563.10 177.57 L 565.46 175.55 L 567.82 174.52 L 570.17 173.86 L 572.53 174.17 L 574.89 173.10 L 577.24 173.10 L 579.60 171.18 L 581.95 168.37 L 584.31 168.37 L 586.67 165.86 L 589.02 163.63 L 591.38 163.63 L 593.74 163.62 L 596.09 162.88 L 598.45 161.06 L 600.80 193.89 L 603.16 193.22 L 605.52 192.73 L 607.87 192.34 L 610.23 189.45 L 612.59 188.03 L 614.94 188.03 L 617.30 180.86 L 619.66 148.96 L 622.01 144.25 L 624.37 176.00 L 626.72 176.17 L 629.08 175.77 L 631.44 175.72 L 633.79 197.26 L 636.15 197.26 L 638.51 197.06 L 640.86 196.44 L 643.22 194.49 L 645.57 194.50 L 647.93 194.49 L 650.29 194.49 L 652.64 194.49 L 655.00 194.48 L 657.36 194.48 L 659.71 194.62 L 662.07 206.08 L 664.43 206.08 L 666.78 206.05 L 669.14 206.04 L 671.49 205.22 L 673.85 204.28 L 676.21 204.28 L 678.56 204.28 L 680.92 200.22 L 683.28 204.28 L 685.63 204.28 L 687.99 204.28 L 690.34 198.60 L 692.70 198.60 L 695.06 198.60 L 697.41 198.60 L 699.77 193.00 L 702.13 193.00 L 704.48 188.39 L 706.84 188.39 L 709.20 179.75 L 711.55 174.84 L 713.91 173.23 L 716.26 170.37 L 718.62 169.87 L 720.98 153.88 L 723.33 149.24 L 725.69 152.04 L 728.05 141.93 L 730.40 141.88 L 732.76 141.69 L 735.11 141.69 L 737.47 141.76 L 739.83 141.75 L 742.18 140.68 L 744.54 141.38 L 746.90 141.36 L 749.25 141.83 L 751.61 141.39 L 753.97 141.39 L 756.32 141.52 L 758.68 141.52 L 761.03 141.53 L 763.39 142.33 L 765.75 141.73 L 768.10 141.68 L 770.46 141.68 L 772.82 141.66 L 775.17 141.67 L 777.53 141.65 L 779.89 139.51 L 782.24 136.07 L 784.60 136.04 L 786.95 133.43 L 789.31 131.89 L 791.67 131.13 L 794.02 131.51 L 796.38 131.50 L 798.74 131.57 L 801.09 131.56 L 803.45 131.49 L 805.80 131.49 L 808.16 131.49 L 810.52 131.49 L 812.87 131.49 L 815.23 131.49 L 817.59 131.49 L 819.94 131.49 L 822.30 131.49 L 824.66 131.49 L 827.01 131.49 L 829.37 131.49 L 831.72 131.49 L 834.08 131.49 L 836.44 131.49 L 838.79 131.49 L 841.15 131.49 L 843.51 131.49 L 845.86 131.49 L 848.22 131.49 L 850.57 131.49 L 852.93 131.49 L 855.29 131.49 L 857.64 131.49 L 860.00 131.49" fill="none" stroke="#3fb950" stroke-width="2"/>
    <circle cx="860.00" cy="131.49" r="3" fill="#3fb950"/>
    <text x="40.00" y="235.00" font-size="9" fill="#c9d1d9" text-anchor="middle" transform="rotate(-45 40.00 235.00)">27.09.2025</text><text x="120.11" y="235.00" font-size="9" fill="#c9d1d9" text-anchor="middle" transform="rotate(-45 120.11 235.00)">28.09.2025</text><text x="200.23" y="235.00" font-size="9" fill="#c9d1d9" text-anchor="middle" transform="rotate(-45 200.23 235.00)">28.09.2025</text><text x="280.34" y="235.00" font-size="9" fill="#c9d1d9" text-anchor="middle" transform="rotate(-45 280.34 235.00)">30.09.2025</text><text x="360.46" y="235.00" font-size="9" fill="#c9d1d9" text-anchor="middle" transform="rotate(-45 360.46 235.00)">04.10.2025</text><text x="440.57" y="235.00" font-size="9" fill="#c9d1d9" text-anchor="middle" transform="rotate(-45 440.57 235.00)">04.10.2025</text><text x="520.69" y="235.00" font-size="9" fill="#c9d1d9" text-anchor="middle" transform="rotate(-45 520.69 235.00)">04.10.2025</text><text x="600.80" y="235.00" font-size="9" fill="#c9d1d9" text-anchor="middle" transform="rotate(-45 600.80 235.00)">04.10.2025</text><text x="680.92" y="235.00" font-size="9" fill="#c9d1d9" text-anchor="middle" transform="rotate(-45 680.92 235.00)">07.10.2025</text><text x="761.03" y="235.00" font-size="9" fill="#c9d1d9" text-anchor="middle" transform="rotate(-45 761.03 235.00)">09.10.2025</text><text x="841.15" y="235.00" font-size="9" fill="#c9d1d9" text-anchor="middle" transform="rotate(-45 841.15 235.00)">25.10.2025</text>
  </g>
</svg>