<svg xmlns="http://www.w3.org/2000/svg" width="900" height="290" style="font-family: -apple-system, BlinkMacSystemFont, 'Segoe UI', Helvetica, Arial, sans-serif;">
  <rect width="100%" height="100%" fill="#0d1117"/>
  <g>
    <line x1="40" y1="220.00" x2="860" y2="220.00" stroke="#30363d"/><text x="32" y="224.00" font-size="10" fill="#c9d1d9" text-anchor="end">0</text><line x1="40" y1="175.00" x2="860" y2="175.00" stroke="#30363d"/><text x="32" y="179.00" font-size="10" fill="#c9d1d9" text-anchor="end">25k</text><line x1="40" y1="130.00" x2="860" y2="130.00" stroke="#30363d"/><text x="32" y="134.00" font-size="10" fill="#c9d1d9" text-anchor="end">50k</text><line x1="40" y1="85.00" x2="860" y2="85.00" stroke="#30363d"/><text x="32" y="89.00" font-size="10" fill="#c9d1d9" text-anchor="end">75k</text><line x1="40" y1="40.00" x2="860" y2="40.00" stroke="#30363d"/><text x="32" y="44.00" font-size="10" fill="#c9d1d9" text-anchor="end">100k</text>
    <line x1="40.00" y1="40" x2="40.00" y2="220" stroke="#30363d" opacity="0.5"/><line x1="120.00" y1="40" x2="120.00" y2="220" stroke="#30363d" opacity="0.5"/><line x1="200.00" y1="40" x2="200.00" y2="220" stroke="#30363d" opacity="0.5"/><line x1="280.00" y1="40" x2="280.00" y2="220" stroke="#30363d" opacity="0.5"/><line x1="360.00" y1="40" x2="360.00" y2="220" stroke="#30363d" opacity="0.5"/><line x1="440.00" y1="40" x2="440.00" y2="220" stroke="#30363d" opacity="0.5"/><line x1="520.00" y1="40" x2="520.00" y2="220" stroke="#30363d" opacity="0.5"/><line x1="600.00" y1="40" x2="600.00" y2="220" stroke="#30363d" opacity="0.5"/><line x1="680.00" y1="40" x2="680.00" y2="220" stroke="#30363d" opacity="0.5"/><line x1="760.00" y1="40" x2="760.00" y2="220" stroke="#30363d" opacity="0.5"/><line x1="840.00" y1="40" x2="840.00" y2="220" stroke="#30363d" opacity="0.5"/>
    <line x1="40" y1="220" x2="860" y2="220" stroke="#30363d"/>
    <line x1="40" y1="40"   x2="40"   y2="220" stroke="#30363d"/>
    <path d="M 40.00 220.00 L 42.50 220.00 L 45.00 219.60 L 47.50 219.62 L 50.00 219.63 L 52.50 219.32 L 55.00 219.31 L 57.50 219.26 L 60.00 218.89 L 62.50 218.89 L 65.00 218.89 L 67.50 218.87 L 70.00 218.87 L 72.50 218.86 L 75.00 218.85 L 77.50 218.85 L 80.00 218.82 L 82.50 218.78 L 85.00 218.72 L 87.50 218.68 L 90.00 218.64 L 92.50 218.59 L 95.00 218.59 L 97.50 218.57 L 100.00 218.57 L 102.50 218.57 L 105.00 218.57 L 107.50 218.57 L 110.00 218.57 L 112.50 218.57 L 115.00 218.57 L 117.50 218.57 L 120.00 218.55 L 122.50 218.54 L 125.00 218.58 L 127.50 218.55 L 130.00 218.55 L 132.50 218.53 L 135.00 218.31 L 137.50 217.94 L 140.00 217.88 L 142.50 217.87 L 145.00 217.86 L 147.50 217.85 L 150.00 217.84 L 152.50 217.85 L 155.00 217.82 L 157.50 217.66 L 160.00 217.61 L 162.50 217.60 L 165.00 217.57 L 167.50 217.56 L 170.00 217.52 L 172.50 217.38 L 175.00 217.24 L 177.50 216.93 L 180.00 216.65 L 182.50 216.44 L 185.00 216.39 L 187.50 216.34 L 190.00 216.83 L 192.50 200.94 L 195.00 200.94 L 197.50 200.95 L 200.00 198.99 L 202.50 198.98 L 205.00 198.94 L 207.50 198.94 L 210.00 198.91 L 212.50 198.90 L 215.00 198.93 L 217.50 198.93 L 220.00 198.99 L 222.50 198.95 L 225.00 198.96 L 227.50 198.95 L 230.00 198.95 L 232.50 198.97 L 235.00 198.97 L 237.50 198.97 L 240.00 198.97 L 242.50 198.97 L 245.00 198.97 L 247.50 198.97 L 250.00 198.97 L 252.50 198.97 L 255.00 198.97 L 257.50 198.97 L 260.00 197.51 L 262.50 197.43 L 265.00 197.40 L 267.50 197.38 L 270.00 197.38 L 272.50 197.49 L 275.00 197.34 L 277.50 197.33 L 280.00 197.18 L 282.50 197.41 L 285.00 197.41 L 287.50 197.29 L 290.00 197.29 L 292.50 197.22 L 295.00 197.21 L 297.50 197.15 L 300.00 196.94 L 302.50 197.00 L 305.00 197.41 L 307.50 197.41 L 310.00 197.30 L 312.50 197.26 L 315.00 197.19 L 317.50 197.19 L 320.00 197.19 L 322.50 197.19 L 325.00 197.18 L 327.50 197.12 L 330.00 197.09 L 332.50 197.04 L 335.00 197.00 L 337.50 196.96 L 340.00 196.92 L 342.50 196.91 L 345.00 196.86 L 347.50 196.80 L 350.00 196.75 L 352.50 196.69 L 355.00 196.66 L 357.50 196.63 L 360.00 196.56 L 362.50 196.51 L 365.00 196.47 L 367.50 196.45 L 370.00 196.40 L 372.50 196.37 L 375.00 196.34 L 377.50 196.28 L 380.00 196.20 L 382.50 196.12 L 385.00 196.02 L 387.50 195.89 L 390.00 195.77 L 392.50 195.68 L 395.00 195.63 L 397.50 195.58 L 400.00 195.53 L 402.50 195.44 L 405.00 195.35 L 407.50 195.22 L 410.00 195.11 L 412.50 194.95 L 415.00 194.82 L 417.50 194.68 L 420.00 194.57 L 422.50 194.55 L 425.00 194.51 L 427.50 194.48 L 430.00 194.44 L 432.50 194.40 L 435.00 194.37 L 437.50 194.34 L 440.00 194.29 L 442.50 194.25 L 445.00 194.23 L 447.50 194.21 L 450.00 194.19 L 452.50 194.16 L 455.00 194.12 L 457.50 194.07 L 460.00 193.99 L 462.50 193.94 L 465.00 193.87 L 467.50 193.80 L 470.00 193.74 L 472.50 193.72 L 475.00 193.70 L 477.50 193.66 L 480.00 193.62 L 482.50 193.56 L 485.00 193.49 L 487.50 193.43 L 490.00 193.35 L 492.50 193.27 L 495.00 193.20 L 497.50 193.14 L 500.00 193.15 L 502.50 193.15 L 505.00 193.15 L 507.50 193.18 L 510.00 193.09 L 512.50 193.07 L 515.00 193.07 L 517.50 193.08 L 520.00 193.00 L 522.50 192.95 L 525.00 192.95 L 527.50 192.95 L 530.00 192.95 L 532.50 192.80 L 535.00 192.73 L 537.50 192.69 L 540.00 192.67 L 542.50 192.67 L 545.00 192.68 L 547.50 192.64 L 550.00 192.63 L 552.50 192.63 L 555.00 190.39 L 557.50 189.96 L 560.00 189.85 L 562.50 189.53 L 565.00 189.52 L 567.50 189.36 L 570.00 187.79 L 572.50 187.36 L 575.00 181.35 L 577.50 181.35 L 580.00 180.72 L 582.50 180.71 L 585.00 180.26 L 587.50 179.68 L 590.00 179.67 L 592.50 178.77 L 595.00 177.57 L 597.50 175.55 L 600.00 174.52 L 602.50 173.86 L 605.00 174.17 L 607.50 173.10 L 610.00 173.10 L 612.50 171.18 L 615.00 168.37 L 617.50 168.37 L 620.00 165.86 L 622.50 163.63 L 625.00 163.63 L 627.50 163.62 L 630.00 162.88 L 632.50 161.06 L 635.00 193.89 L 637.50 193.22 L 640.00 192.73 L 642.50 192.34 L 645.00 189.45 L 647.50 188.03 L 650.00 188.03 L 652.50 180.86 L 655.00 148.96 L 657.50 144.25 L 660.00 176.00 L 662.50 176.17 L 665.00 175.77 L 667.50 175.72 L 670.00 197.26 L 672.50 197.26 L 675.00 197.06 L 677.50 196.44 L 680.00 194.49 L 682.50 194.50 L 685.00 194.49 L 687.50 194.49 L 690.00 194.49 L 692.50 194.48 L 695.00 194.48 L 697.50 194.62 L 700.00 206.08 L 702.50 206.08 L 705.00 206.05 L 707.50 206.04 L 710.00 205.22 L 712.50 204.28 L 715.00 204.28 L 717.50 204.28 L 720.00 200.22 L 722.50 204.28 L 725.00 204.28 L 727.50 204.28 L 730.00 198.60 L 732.50 198.60 L 735.00 198.60 L 737.50 198.60 L 740.00 193.00 L 742.50 193.00 L 745.00 188.39 L 747.50 188.39 L 750.00 179.75 L 752.50 174.84 L 755.00 173.23 L 757.50 170.37 L 760.00 169.87 L 762.50 153.88 L 765.00 149.24 L 767.50 152.04 L 770.00 141.93 L 772.50 141.88 L 775.00 141.69 L 777.50 141.69 L 780.00 141.76 L 782.50 141.75 L 785.00 140.68 L 787.50 141.38 L 790.00 141.36 L 792.50 141.83 L 795.00 141.39 L 797.50 141.39 L 800.00 141.52 L 802.50 141.52 L 805.00 141.53 L 807.50 142.33 L 810.00 141.73 L 812.50 141.68 L 815.00 141.68 L 817.50 141.66 L 820.00 141.67 L 822.50 141.65 L 825.00 139.51 L 827.50 136.07 L 830.00 136.04 L 832.50 133.43 L 835.00 131.89 L 837.50 131.13 L 840.00 131.51 L 842.50 131.50 L 845.00 131.57 L 847.50 131.56 L 850.00 131.49 L 852.50 131.49 L 855.00 131.49 L 857.50 131.49 L 860.00 131.49" fill="none" stroke="#3fb950" stroke-width="2"/>
    <circle cx="860.00" cy="131.49" r="3" fill="#3fb950"/>
    <text x="40.00" y="235.00" font-size="9" fill="#c9d1d9" text-anchor="middle" transform="rotate(-45 40.00 235.00)">27.09.2025</text><text x="120.00" y="235.00" font-size="9" fill="#c9d1d9" text-anchor="middle" transform="rotate(-45 120.00 235.00)">28.09.2025</text><text x="200.00" y="235.00" font-size="9" fill="#c9d1d9" text-anchor="middle" transform="rotate(-45 200.00 235.00)">28.09.2025</text><text x="280.00" y="235.00" font-size="9" fill="#c9d1d9" text-anchor="middle" transform="rotate(-45 280.00 235.00)">30.09.2025</text><text x="360.00" y="235.00" font-size="9" fill="#c9d1d9" text-anchor="middle" transform="rotate(-45 360.00 235.00)">04.10.2025</text><text x="440.00" y="235.00" font-size="9" fill="#c9d1d9" text-anchor="middle" transform="rotate(-45 440.00 235.00)">04.10.2025</text><text x="520.00" y="235.00" font-size="9" fill="#c9d1d9" text-anchor="middle" transform="rotate(-45 520.00 235.00)">04.10.2025</text><text x="600.00" y="235.00" font-size="9" fill="#c9d1d9" text-anchor="middle" transform="rotate(-45 600.00 235.00)">04.10.2025</text><text x="680.00" y="235.00" font-size="9" fill="#c9d1d9" text-anchor="middle" transform="rotate(-45 680.00 235.00)">05.10.2025</text><text x="760.00" y="235.00" font-size="9" fill="#c9d1d9" text-anchor="middle" transform="rotate(-45 760.00 235.00)">08.10.2025</text><text x="840.00" y="235.00" font-size="9" fill="#c9d1d9" text-anchor="middle" transform="rotate(-45 840.00 235.00)">09.10.2025</text>
  </g>
</svg>