<svg xmlns="http://www.w3.org/2000/svg" width="900" height="290" style="font-family: -apple-system, BlinkMacSystemFont, 'Segoe UI', Helvetica, Arial, sans-serif;">
  <rect width="100%" height="100%" fill="white"/>
  <g>
    <line x1="40" y1="220.00" x2="860" y2="220.00" stroke="#e5e7eb"/><text x="32" y="224.00" font-size="10" fill="#111827" text-anchor="end">0</text><line x1="40" y1="175.00" x2="860" y2="175.00" stroke="#e5e7eb"/><text x="32" y="179.00" font-size="10" fill="#111827" text-anchor="end">25k</text><line x1="40" y1="130.00" x2="860" y2="130.00" stroke="#e5e7eb"/><text x="32" y="134.00" font-size="10" fill="#111827" text-anchor="end">50k</text><line x1="40" y1="85.00" x2="860" y2="85.00" stroke="#e5e7eb"/><text x="32" y="89.00" font-size="10" fill="#111827" text-anchor="end">75k</text><line x1="40" y1="40.00" x2="860" y2="40.00" stroke="#e5e7eb"/><text x="32" y="44.00" font-size="10" fill="#111827" text-anchor="end">100k</text>
    <line x1="40.00" y1="40" x2="40.00" y2="220" stroke="#e5e7eb" opacity="0.5"/><line x1="120.55" y1="40" x2="120.55" y2="220" stroke="#e5e7eb" opacity="0.5"/><line x1="201.11" y1="40" x2="201.11" y2="220" stroke="#e5e7eb" opacity="0.5"/><line x1="281.66" y1="40" x2="281.66" y2="220" stroke="#e5e7eb" opacity="0.5"/><line x1="362.22" y1="40" x2="362.22" y2="220" stroke="#e5e7eb" opacity="0.5"/><line x1="442.77" y1="40" x2="442.77" y2="220" stroke="#e5e7eb" opacity="0.5"/><line x1="523.32" y1="40" x2="523.32" y2="220" stroke="#e5e7eb" opacity="0.5"/><line x1="603.88" y1="40" x2="603.88" y2="220" stroke="#e5e7eb" opacity="0.5"/><line x1="684.43" y1="40" x2="684.43" y2="220" stroke="#e5e7eb" opacity="0.5"/><line x1="764.99" y1="40" x2="764.99" y2="220" stroke="#e5e7eb" opacity="0.5"/><line x1="845.54" y1="40" x2="845.54" y2="220" stroke="#e5e7eb" opacity="0.5"/>
    <line x1="40" y1="220" x2="860" y2="220" stroke="#9ca3af"/>
    <line x1="40" y1="40"   x2="40"   y2="220" stroke="#9ca3af"/>
    <path d="M 40.00 220.00 L 42.07 220.00 L 44.13 219.60 L 46.20 219.62 L 48.26 219.63 L 50.33 219.32 L 52.39 219.31 L 54.46 219.26 L 56.52 218.89 L 58.59 218.89 L 60.65 218.89 L 62.72 218.87 L 64.79 218.87 L 66.85 218.86 L 68.92 218.85 L 70.98 218.85 L 73.05 218.82 L 75.11 218.78 L 77.18 218.72 L 79.24 218.68 L 81.31 218.64 L 83.38 218.59 L 85.44 218.59 L 87.51 218.57 L 89.57 218.57 L 91.64 218.57 L 93.70 218.57 L 95.77 218.57 L 97.83 218.57 L 99.90 218.57 L 101.96 218.57 L 104.03 218.57 L 106.10 218.55 L 108.16 218.54 L 110.23 218.58 L 112.29 218.55 L 114.36 218.55 L 116.42 218.53 L 118.49 218.31 L 120.55 217.94 L 122.62 217.88 L 124.69 217.87 L 126.75 217.86 L 128.82 217.85 L 130.88 217.84 L 132.95 217.85 L 135.01 217.82 L 137.08 217.66 L 139.14 217.61 L 141.21 217.60 L 143.27 217.57 L 145.34 217.56 L 147.41 217.52 L 149.47 217.38 L 151.54 217.24 L 153.60 216.93 L 155.67 216.65 L 157.73 216.44 L 159.80 216.39 L 161.86 216.34 L 163.93 216.83 L 165.99 200.94 L 168.06 200.94 L 170.13 200.95 L 172.19 198.99 L 174.26 198.98 L 176.32 198.94 L 178.39 198.94 L 180.45 198.91 L 182.52 198.90 L 184.58 198.93 L 186.65 198.93 L 188.72 198.99 L 190.78 198.95 L 192.85 198.96 L 194.91 198.95 L 196.98 198.95 L 199.04 198.97 L 201.11 198.97 L 203.17 198.97 L 205.24 198.97 L 207.30 198.97 L 209.37 198.97 L 211.44 198.97 L 213.50 198.97 L 215.57 198.97 L 217.63 198.97 L 219.70 198.97 L 221.76 197.51 L 223.83 197.43 L 225.89 197.40 L 227.96 197.38 L 230.03 197.38 L 232.09 197.49 L 234.16 197.34 L 236.22 197.33 L 238.29 197.18 L 240.35 197.41 L 242.42 197.41 L 244.48 197.29 L 246.55 197.29 L 248.61 197.22 L 250.68 197.21 L 252.75 197.15 L 254.81 196.94 L 256.88 197.00 L 258.94 197.41 L 261.01 197.41 L 263.07 197.30 L 265.14 197.26 L 267.20 197.19 L 269.27 197.19 L 271.34 197.19 L 273.40 197.19 L 275.47 197.18 L 277.53 197.12 L 279.60 197.09 L 281.66 197.04 L 283.73 197.00 L 285.79 196.96 L 287.86 196.92 L 289.92 196.91 L 291.99 196.86 L 294.06 196.80 L 296.12 196.75 L 298.19 196.69 L 300.25 196.66 L 302.32 196.63 L 304.38 196.56 L 306.45 196.51 L 308.51 196.47 L 310.58 196.45 L 312.64 196.40 L 314.71 196.37 L 316.78 196.34 L 318.84 196.28 L 320.91 196.20 L 322.97 196.12 L 325.04 196.02 L 327.10 195.89 L 329.17 195.77 L 331.23 195.68 L 333.30 195.63 L 335.37 195.58 L 337.43 195.53 L 339.50 195.44 L 341.56 195.35 L 343.63 195.22 L 345.69 195.11 L 347.76 194.95 L 349.82 194.82 L 351.89 194.68 L 353.95 194.57 L 356.02 194.55 L 358.09 194.51 L 360.15 194.48 L 362.22 194.44 L 364.28 194.40 L 366.35 194.37 L 368.41 194.34 L 370.48 194.29 L 372.54 194.25 L 374.61 194.23 L 376.68 194.21 L 378.74 194.19 L 380.81 194.16 L 382.87 194.12 L 384.94 194.07 L 387.00 193.99 L 389.07 193.94 L 391.13 193.87 L 393.20 193.80 L 395.26 193.74 L 397.33 193.72 L 399.40 193.70 L 401.46 193.66 L 403.53 193.62 L 405.59 193.56 L 407.66 193.49 L 409.72 193.43 L 411.79 193.35 L 413.85 193.27 L 415.92 193.20 L 417.98 193.14 L 420.05 193.15 L 422.12 193.15 L 424.18 193.15 L 426.25 193.18 L 428.31 193.09 L 430.38 193.07 L 432.44 193.07 L 434.51 193.08 L 436.57 193.00 L 438.64 192.95 L 440.71 192.95 L 442.77 192.95 L 444.84 192.95 L 446.90 192.80 L 448.97 192.73 L 451.03 192.69 L 453.10 192.67 L 455.16 192.67 L 457.23 192.68 L 459.29 192.64 L 461.36 192.63 L 463.43 192.63 L 465.49 190.39 L 467.56 189.96 L 469.62 189.85 L 471.69 189.53 L 473.75 189.52 L 475.82 189.36 L 477.88 187.79 L 479.95 187.36 L 482.02 181.35 L 484.08 181.35 L 486.15 180.72 L 488.21 180.71 L 490.28 180.26 L 492.34 179.68 L 494.41 179.67 L 496.47 178.77 L 498.54 177.57 L 500.60 175.55 L 502.67 174.52 L 504.74 173.86 L 506.80 174.17 L 508.87 173.10 L 510.93 173.10 L 513.00 171.18 L 515.06 168.37 L 517.13 168.37 L 519.19 165.86 L 521.26 163.63 L 523.32 163.63 L 525.39 163.62 L 527.46 162.88 L 529.52 161.06 L 531.59 193.89 L 533.65 193.22 L 535.72 192.73 L 537.78 192.34 L 539.85 189.45 L 541.91 188.03 L 543.98 188.03 L 546.05 180.86 L 548.11 148.96 L 550.18 144.25 L 552.24 176.00 L 554.31 176.17 L 556.37 175.77 L 558.44 175.72 L 560.50 197.26 L 562.57 197.26 L 564.63 197.06 L 566.70 196.44 L 568.77 194.49 L 570.83 194.50 L 572.90 194.49 L 574.96 194.49 L 577.03 194.49 L 579.09 194.48 L 581.16 194.48 L 583.22 194.62 L 585.29 206.08 L 587.36 206.08 L 589.42 206.05 L 591.49 206.04 L 593.55 205.22 L 595.62 204.28 L 597.68 204.28 L 599.75 204.28 L 601.81 200.22 L 603.88 204.28 L 605.94 204.28 L 608.01 204.28 L 610.08 198.60 L 612.14 198.60 L 614.21 198.60 L 616.27 198.60 L 618.34 193.00 L 620.40 193.00 L 622.47 188.39 L 624.53 188.39 L 626.60 179.75 L 628.66 174.84 L 630.73 173.23 L 632.80 170.37 L 634.86 169.87 L 636.93 153.88 L 638.99 149.24 L 641.06 152.04 L 643.12 141.93 L 645.19 141.88 L 647.25 141.69 L 649.32 141.69 L 651.39 141.76 L 653.45 141.75 L 655.52 140.68 L 657.58 141.38 L 659.65 141.36 L 661.71 141.83 L 663.78 141.39 L 665.84 141.39 L 667.91 141.52 L 669.97 141.52 L 672.04 141.53 L 674.11 142.33 L 676.17 141.73 L 678.24 141.68 L 680.30 141.68 L 682.37 141.66 L 684.43 141.67 L 686.50 141.65 L 688.56 139.51 L 690.63 136.07 L 692.70 136.04 L 694.76 133.43 L 696.83 131.89 L 698.89 131.13 L 700.96 131.51 L 703.02 131.50 L 705.09 131.57 L 707.15 131.56 L 709.22 131.49 L 711.28 131.49 L 713.35 131.49 L 715.42 131.49 L 717.48 131.49 L 719.55 131.49 L 721.61 131.49 L 723.68 131.49 L 725.74 131.49 L 727.81 131.49 L 729.87 131.49 L 731.94 131.49 L 734.01 131.49 L 736.07 131.49 L 738.14 131.49 L 740.20 131.49 L 742.27 131.49 L 744.33 131.49 L 746.40 131.49 L 748.46 131.49 L 750.53 131.49 L 752.59 131.49 L 754.66 131.49 L 756.73 131.49 L 758.79 131.49 L 760.86 131.49 L 762.92 131.49 L 764.99 131.49 L 767.05 131.49 L 769.12 131.49 L 771.18 131.49 L 773.25 131.49 L 775.31 131.49 L 777.38 131.49 L 779.45 131.49 L 781.51 131.49 L 783.58 131.49 L 785.64 131.49 L 787.71 131.49 L 789.77 131.49 L 791.84 131.49 L 793.90 131.49 L 795.97 131.49 L 798.04 131.49 L 800.10 131.49 L 802.17 131.49 L 804.23 131.49 L 806.30 131.49 L 808.36 131.49 L 810.43 131.49 L 812.49 131.49 L 814.56 131.49 L 816.62 131.49 L 818.69 131.49 L 820.76 131.49 L 822.82 131.49 L 824.89 131.49 L 826.95 131.49 L 829.02 131.49 L 831.08 131.49 L 833.15 131.49 L 835.21 131.49 L 837.28 131.49 L 839.35 131.49 L 841.41 131.49 L 843.48 131.49 L 845.54 131.49 L 847.61 131.49 L 849.67 131.49 L 851.74 131.49 L 853.80 131.49 L 855.87 131.49 L 857.93 131.49 L 860.00 131.49" fill="none" stroke="#111827" stroke-width="2"/>
    <circle cx="860.00" cy="131.49" r="3" fill="#111827"/>
    <text x="40.00" y="235.00" font-size="9" fill="#111827" text-anchor="middle" transform="rotate(-45 40.00 235.00)">27.09.2025</text><text x="120.55" y="235.00" font-size="9" fill="#111827" text-anchor="middle" transform="rotate(-45 120.55 235.00)">28.09.2025</text><text x="201.11" y="235.00" font-size="9" fill="#111827" text-anchor="middle" transform="rotate(-45 201.11 235.00)">29.09.2025</text><text x="281.66" y="235.00" font-size="9" fill="#111827" text-anchor="middle" transform="rotate(-45 281.66 235.00)">04.10.2025</text><text x="362.22" y="235.00" font-size="9" fill="#111827" text-anchor="middle" transform="rotate(-45 362.22 235.00)">04.10.2025</text><text x="442.77" y="235.00" font-size="9" fill="#111827" text-anchor="middle" transform="rotate(-45 442.77 235.00)">04.10.2025</text><text x="523.32" y="235.00" font-size="9" fill="#111827" text-anchor="middle" transform="rotate(-45 523.32 235.00)">04.10.2025</text><text x="603.88" y="235.00" font-size="9" fill="#111827" text-anchor="middle" transform="rotate(-45 603.88 235.00)">07.10.2025</text><text x="684.43" y="235.00" font-size="9" fill="#111827" text-anchor="middle" transform="rotate(-45 684.43 235.00)">09.10.2025</text><text x="764.99" y="235.00" font-size="9" fill="#111827" text-anchor="middle" transform="rotate(-45 764.99 235.00)">05.11.2025</text><text x="845.54" y="235.00" font-size="9" fill="#111827" text-anchor="middle" transform="rotate(-45 845.54 235.00)">14.12.2025</text>
  </g>
</svg>