<svg xmlns="http://www.w3.org/2000/svg" width="900" height="290" style="font-family: -apple-system, BlinkMacSystemFont, 'Segoe UI', Helvetica, Arial, sans-serif;">
  <rect width="100%" height="100%" fill="white"/>
  <g>
    <line x1="40" y1="220.00" x2="860" y2="220.00" stroke="#e5e7eb"/><text x="32" y="224.00" font-size="10" fill="#111827" text-anchor="end">0</text><line x1="40" y1="175.00" x2="860" y2="175.00" stroke="#e5e7eb"/><text x="32" y="179.00" font-size="10" fill="#111827" text-anchor="end">25k</text><line x1="40" y1="130.00" x2="860" y2="130.00" stroke="#e5e7eb"/><text x="32" y="134.00" font-size="10" fill="#111827" text-anchor="end">50k</text><line x1="40" y1="85.00" x2="860" y2="85.00" stroke="#e5e7eb"/><text x="32" y="89.00" font-size="10" fill="#111827" text-anchor="end">75k</text><line x1="40" y1="40.00" x2="860" y2="40.00" stroke="#e5e7eb"/><text x="32" y="44.00" font-size="10" fill="#111827" text-anchor="end">100k</text>
    <line x1="40.00" y1="40" x2="40.00" y2="220" stroke="#e5e7eb" opacity="0.5"/><line x1="121.01" y1="40" x2="121.01" y2="220" stroke="#e5e7eb" opacity="0.5"/><line x1="202.02" y1="40" x2="202.02" y2="220" stroke="#e5e7eb" opacity="0.5"/><line x1="283.04" y1="40" x2="283.04" y2="220" stroke="#e5e7eb" opacity="0.5"/><line x1="364.05" y1="40" x2="364.05" y2="220" stroke="#e5e7eb" opacity="0.5"/><line x1="445.06" y1="40" x2="445.06" y2="220" stroke="#e5e7eb" opacity="0.5"/><line x1="526.07" y1="40" x2="526.07" y2="220" stroke="#e5e7eb" opacity="0.5"/><line x1="607.08" y1="40" x2="607.08" y2="220" stroke="#e5e7eb" opacity="0.5"/><line x1="688.10" y1="40" x2="688.10" y2="220" stroke="#e5e7eb" opacity="0.5"/><line x1="769.11" y1="40" x2="769.11" y2="220" stroke="#e5e7eb" opacity="0.5"/><line x1="850.12" y1="40" x2="850.12" y2="220" stroke="#e5e7eb" opacity="0.5"/>
    <line x1="40" y1="220" x2="860" y2="220" stroke="#9ca3af"/>
    <line x1="40" y1="40"   x2="40"   y2="220" stroke="#9ca3af"/>
    <path d="M 40.00 220.00 L 41.98 220.00 L 43.95 219.60 L 45.93 219.62 L 47.90 219.63 L 49.88 219.32 L 51.86 219.31 L 53.83 219.26 L 55.81 218.89 L 57.78 218.89 L 59.76 218.89 L 61.73 218.87 L 63.71 218.87 L 65.69 218.86 L 67.66 218.85 L 69.64 218.85 L 71.61 218.82 L 73.59 218.78 L 75.57 218.72 L 77.54 218.68 L 79.52 218.64 L 81.49 218.59 L 83.47 218.59 L 85.45 218.57 L 87.42 218.57 L 89.40 218.57 L 91.37 218.57 L 93.35 218.57 L 95.33 218.57 L 97.30 218.57 L 99.28 218.57 L 101.25 218.57 L 103.23 218.55 L 105.20 218.54 L 107.18 218.58 L 109.16 218.55 L 111.13 218.55 L 113.11 218.53 L 115.08 218.31 L 117.06 217.94 L 119.04 217.88 L 121.01 217.87 L 122.99 217.86 L 124.96 217.85 L 126.94 217.84 L 128.92 217.85 L 130.89 217.82 L 132.87 217.66 L 134.84 217.61 L 136.82 217.60 L 138.80 217.57 L 140.77 217.56 L 142.75 217.52 L 144.72 217.38 L 146.70 217.24 L 148.67 216.93 L 150.65 216.65 L 152.63 216.44 L 154.60 216.39 L 156.58 216.34 L 158.55 216.83 L 160.53 200.94 L 162.51 200.94 L 164.48 200.95 L 166.46 198.99 L 168.43 198.98 L 170.41 198.94 L 172.39 198.94 L 174.36 198.91 L 176.34 198.90 L 178.31 198.93 L 180.29 198.93 L 182.27 198.99 L 184.24 198.95 L 186.22 198.96 L 188.19 198.95 L 190.17 198.95 L 192.14 198.97 L 194.12 198.97 L 196.10 198.97 L 198.07 198.97 L 200.05 198.97 L 202.02 198.97 L 204.00 198.97 L 205.98 198.97 L 207.95 198.97 L 209.93 198.97 L 211.90 198.97 L 213.88 197.51 L 215.86 197.43 L 217.83 197.40 L 219.81 197.38 L 221.78 197.38 L 223.76 197.49 L 225.73 197.34 L 227.71 197.33 L 229.69 197.18 L 231.66 197.41 L 233.64 197.41 L 235.61 197.29 L 237.59 197.29 L 239.57 197.22 L 241.54 197.21 L 243.52 197.15 L 245.49 196.94 L 247.47 197.00 L 249.45 197.41 L 251.42 197.41 L 253.40 197.30 L 255.37 197.26 L 257.35 197.19 L 259.33 197.19 L 261.30 197.19 L 263.28 197.19 L 265.25 197.18 L 267.23 197.12 L 269.20 197.09 L 271.18 197.04 L 273.16 197.00 L 275.13 196.96 L 277.11 196.92 L 279.08 196.91 L 281.06 196.86 L 283.04 196.80 L 285.01 196.75 L 286.99 196.69 L 288.96 196.66 L 290.94 196.63 L 292.92 196.56 L 294.89 196.51 L 296.87 196.47 L 298.84 196.45 L 300.82 196.40 L 302.80 196.37 L 304.77 196.34 L 306.75 196.28 L 308.72 196.20 L 310.70 196.12 L 312.67 196.02 L 314.65 195.89 L 316.63 195.77 L 318.60 195.68 L 320.58 195.63 L 322.55 195.58 L 324.53 195.53 L 326.51 195.44 L 328.48 195.35 L 330.46 195.22 L 332.43 195.11 L 334.41 194.95 L 336.39 194.82 L 338.36 194.68 L 340.34 194.57 L 342.31 194.55 L 344.29 194.51 L 346.27 194.48 L 348.24 194.44 L 350.22 194.40 L 352.19 194.37 L 354.17 194.34 L 356.14 194.29 L 358.12 194.25 L 360.10 194.23 L 362.07 194.21 L 364.05 194.19 L 366.02 194.16 L 368.00 194.12 L 369.98 194.07 L 371.95 193.99 L 373.93 193.94 L 375.90 193.87 L 377.88 193.80 L 379.86 193.74 L 381.83 193.72 L 383.81 193.70 L 385.78 193.66 L 387.76 193.62 L 389.73 193.56 L 391.71 193.49 L 393.69 193.43 L 395.66 193.35 L 397.64 193.27 L 399.61 193.20 L 401.59 193.14 L 403.57 193.15 L 405.54 193.15 L 407.52 193.15 L 409.49 193.18 L 411.47 193.09 L 413.45 193.07 L 415.42 193.07 L 417.40 193.08 L 419.37 193.00 L 421.35 192.95 L 423.33 192.95 L 425.30 192.95 L 427.28 192.95 L 429.25 192.80 L 431.23 192.73 L 433.20 192.69 L 435.18 192.67 L 437.16 192.67 L 439.13 192.68 L 441.11 192.64 L 443.08 192.63 L 445.06 192.63 L 447.04 190.39 L 449.01 189.96 L 450.99 189.85 L 452.96 189.53 L 454.94 189.52 L 456.92 189.36 L 458.89 187.79 L 460.87 187.36 L 462.84 181.35 L 464.82 181.35 L 466.80 180.72 L 468.77 180.71 L 470.75 180.26 L 472.72 179.68 L 474.70 179.67 L 476.67 178.77 L 478.65 177.57 L 480.63 175.55 L 482.60 174.52 L 484.58 173.86 L 486.55 174.17 L 488.53 173.10 L 490.51 173.10 L 492.48 171.18 L 494.46 168.37 L 496.43 168.37 L 498.41 165.86 L 500.39 163.63 L 502.36 163.63 L 504.34 163.62 L 506.31 162.88 L 508.29 161.06 L 510.27 193.89 L 512.24 193.22 L 514.22 192.73 L 516.19 192.34 L 518.17 189.45 L 520.14 188.03 L 522.12 188.03 L 524.10 180.86 L 526.07 148.96 L 528.05 144.25 L 530.02 176.00 L 532.00 176.17 L 533.98 175.77 L 535.95 175.72 L 537.93 197.26 L 539.90 197.26 L 541.88 197.06 L 543.86 196.44 L 545.83 194.49 L 547.81 194.50 L 549.78 194.49 L 551.76 194.49 L 553.73 194.49 L 555.71 194.48 L 557.69 194.48 L 559.66 194.62 L 561.64 206.08 L 563.61 206.08 L 565.59 206.05 L 567.57 206.04 L 569.54 205.22 L 571.52 204.28 L 573.49 204.28 L 575.47 204.28 L 577.45 200.22 L 579.42 204.28 L 581.40 204.28 L 583.37 204.28 L 585.35 198.60 L 587.33 198.60 L 589.30 198.60 L 591.28 198.60 L 593.25 193.00 L 595.23 193.00 L 597.20 188.39 L 599.18 188.39 L 601.16 179.75 L 603.13 174.84 L 605.11 173.23 L 607.08 170.37 L 609.06 169.87 L 611.04 153.88 L 613.01 149.24 L 614.99 152.04 L 616.96 141.93 L 618.94 141.88 L 620.92 141.69 L 622.89 141.69 L 624.87 141.76 L 626.84 141.75 L 628.82 140.68 L 630.80 141.38 L 632.77 141.36 L 634.75 141.83 L 636.72 141.39 L 638.70 141.39 L 640.67 141.52 L 642.65 141.52 L 644.63 141.53 L 646.60 142.33 L 648.58 141.73 L 650.55 141.68 L 652.53 141.68 L 654.51 141.66 L 656.48 141.67 L 658.46 141.65 L 660.43 139.51 L 662.41 136.07 L 664.39 136.04 L 666.36 133.43 L 668.34 131.89 L 670.31 131.13 L 672.29 131.51 L 674.27 131.50 L 676.24 131.57 L 678.22 131.56 L 680.19 131.49 L 682.17 131.49 L 684.14 131.49 L 686.12 131.49 L 688.10 131.49 L 690.07 131.49 L 692.05 131.49 L 694.02 131.49 L 696.00 131.49 L 697.98 131.49 L 699.95 131.49 L 701.93 131.49 L 703.90 131.49 L 705.88 131.49 L 707.86 131.49 L 709.83 131.49 L 711.81 131.49 L 713.78 131.49 L 715.76 131.49 L 717.73 131.49 L 719.71 131.49 L 721.69 131.49 L 723.66 131.49 L 725.64 131.49 L 727.61 131.49 L 729.59 131.49 L 731.57 131.49 L 733.54 131.49 L 735.52 131.49 L 737.49 131.49 L 739.47 131.49 L 741.45 131.49 L 743.42 131.49 L 745.40 131.49 L 747.37 131.49 L 749.35 131.49 L 751.33 131.49 L 753.30 131.49 L 755.28 131.49 L 757.25 131.49 L 759.23 131.49 L 761.20 131.49 L 763.18 131.49 L 765.16 131.49 L 767.13 131.49 L 769.11 131.49 L 771.08 131.49 L 773.06 131.49 L 775.04 131.49 L 777.01 131.49 L 778.99 131.49 L 780.96 131.49 L 782.94 131.49 L 784.92 131.49 L 786.89 131.49 L 788.87 131.49 L 790.84 131.49 L 792.82 131.49 L 794.80 131.49 L 796.77 131.49 L 798.75 131.49 L 800.72 131.49 L 802.70 131.49 L 804.67 131.49 L 806.65 131.49 L 808.63 131.49 L 810.60 131.49 L 812.58 131.49 L 814.55 131.49 L 816.53 131.49 L 818.51 131.49 L 820.48 131.49 L 822.46 131.49 L 824.43 131.49 L 826.41 131.49 L 828.39 131.49 L 830.36 131.49 L 832.34 131.49 L 834.31 131.49 L 836.29 131.49 L 838.27 131.49 L 840.24 131.49 L 842.22 131.49 L 844.19 131.49 L 846.17 131.49 L 848.14 131.49 L 850.12 131.49 L 852.10 131.49 L 854.07 131.49 L 856.05 131.49 L 858.02 131.49 L 860.00 131.49" fill="none" stroke="#111827" stroke-width="2"/>
    <circle cx="860.00" cy="131.49" r="3" fill="#111827"/>
    <text x="40.00" y="235.00" font-size="9" fill="#111827" text-anchor="middle" transform="rotate(-45 40.00 235.00)">27.09.2025</text><text x="121.01" y="235.00" font-size="9" fill="#111827" text-anchor="middle" transform="rotate(-45 121.01 235.00)">28.09.2025</text><text x="202.02" y="235.00" font-size="9" fill="#111827" text-anchor="middle" transform="rotate(-45 202.02 235.00)">29.09.2025</text><text x="283.04" y="235.00" font-size="9" fill="#111827" text-anchor="middle" transform="rotate(-45 283.04 235.00)">04.10.2025</text><text x="364.05" y="235.00" font-size="9" fill="#111827" text-anchor="middle" transform="rotate(-45 364.05 235.00)">04.10.2025</text><text x="445.06" y="235.00" font-size="9" fill="#111827" text-anchor="middle" transform="rotate(-45 445.06 235.00)">04.10.2025</text><text x="526.07" y="235.00" font-size="9" fill="#111827" text-anchor="middle" transform="rotate(-45 526.07 235.00)">05.10.2025</text><text x="607.08" y="235.00" font-size="9" fill="#111827" text-anchor="middle" transform="rotate(-45 607.08 235.00)">08.10.2025</text><text x="688.10" y="235.00" font-size="9" fill="#111827" text-anchor="middle" transform="rotate(-45 688.10 235.00)">13.10.2025</text><text x="769.11" y="235.00" font-size="9" fill="#111827" text-anchor="middle" transform="rotate(-45 769.11 235.00)">23.11.2025</text><text x="850.12" y="235.00" font-size="9" fill="#111827" text-anchor="middle" transform="rotate(-45 850.12 235.00)">03.01.2026</text>
  </g>
</svg>