<svg xmlns="http://www.w3.org/2000/svg" width="900" height="290" style="font-family: -apple-system, BlinkMacSystemFont, 'Segoe UI', Helvetica, Arial, sans-serif;">
  <rect width="100%" height="100%" fill="#0d1117"/>
  <g>
    <line x1="40" y1="220.00" x2="860" y2="220.00" stroke="#30363d"/><text x="32" y="224.00" font-size="10" fill="#c9d1d9" text-anchor="end">0</text><line x1="40" y1="175.00" x2="860" y2="175.00" stroke="#30363d"/><text x="32" y="179.00" font-size="10" fill="#c9d1d9" text-anchor="end">25k</text><line x1="40" y1="130.00" x2="860" y2="130.00" stroke="#30363d"/><text x="32" y="134.00" font-size="10" fill="#c9d1d9" text-anchor="end">50k</text><line x1="40" y1="85.00" x2="860" y2="85.00" stroke="#30363d"/><text x="32" y="89.00" font-size="10" fill="#c9d1d9" text-anchor="end">75k</text><line x1="40" y1="40.00" x2="860" y2="40.00" stroke="#30363d"/><text x="32" y="44.00" font-size="10" fill="#c9d1d9" text-anchor="end">100k</text>
    <line x1="40.00" y1="40" x2="40.00" y2="220" stroke="#30363d" opacity="0.5"/><line x1="122.00" y1="40" x2="122.00" y2="220" stroke="#30363d" opacity="0.5"/><line x1="204.00" y1="40" x2="204.00" y2="220" stroke="#30363d" opacity="0.5"/><line x1="286.00" y1="40" x2="286.00" y2="220" stroke="#30363d" opacity="0.5"/><line x1="368.00" y1="40" x2="368.00" y2="220" stroke="#30363d" opacity="0.5"/><line x1="450.00" y1="40" x2="450.00" y2="220" stroke="#30363d" opacity="0.5"/><line x1="532.00" y1="40" x2="532.00" y2="220" stroke="#30363d" opacity="0.5"/><line x1="614.00" y1="40" x2="614.00" y2="220" stroke="#30363d" opacity="0.5"/><line x1="696.00" y1="40" x2="696.00" y2="220" stroke="#30363d" opacity="0.5"/><line x1="778.00" y1="40" x2="778.00" y2="220" stroke="#30363d" opacity="0.5"/><line x1="860.00" y1="40" x2="860.00" y2="220" stroke="#30363d" opacity="0.5"/>
    <line x1="40" y1="220" x2="860" y2="220" stroke="#30363d"/>
    <line x1="40" y1="40"   x2="40"   y2="220" stroke="#30363d"/>
    <path d="M 40.00 220.00 L 42.41 220.00 L 44.82 219.60 L 47.24 219.62 L 49.65 219.63 L 52.06 219.32 L 54.47 219.31 L 56.88 219.26 L 59.29 218.89 L 61.71 218.89 L 64.12 218.89 L 66.53 218.87 L 68.94 218.87 L 71.35 218.86 L 73.76 218.85 L 76.18 218.85 L 78.59 218.82 L 81.00 218.78 L 83.41 218.72 L 85.82 218.68 L 88.24 218.64 L 90.65 218.59 L 93.06 218.59 L 95.47 218.57 L 97.88 218.57 L 100.29 218.57 L 102.71 218.57 L 105.12 218.57 L 107.53 218.57 L 109.94 218.57 L 112.35 218.57 L 114.76 218.57 L 117.18 218.55 L 119.59 218.54 L 122.00 218.58 L 124.41 218.55 L 126.82 218.55 L 129.24 218.53 L 131.65 218.31 L 134.06 217.94 L 136.47 217.88 L 138.88 217.87 L 141.29 217.86 L 143.71 217.85 L 146.12 217.84 L 148.53 217.85 L 150.94 217.82 L 153.35 217.66 L 155.76 217.61 L 158.18 217.60 L 160.59 217.57 L 163.00 217.56 L 165.41 217.52 L 167.82 217.38 L 170.24 217.24 L 172.65 216.93 L 175.06 216.65 L 177.47 216.44 L 179.88 216.39 L 182.29 216.34 L 184.71 216.83 L 187.12 200.94 L 189.53 200.94 L 191.94 200.95 L 194.35 198.99 L 196.76 198.98 L 199.18 198.94 L 201.59 198.94 L 204.00 198.91 L 206.41 198.90 L 208.82 198.93 L 211.24 198.93 L 213.65 198.99 L 216.06 198.95 L 218.47 198.96 L 220.88 198.95 L 223.29 198.95 L 225.71 198.97 L 228.12 198.97 L 230.53 198.97 L 232.94 198.97 L 235.35 198.97 L 237.76 198.97 L 240.18 198.97 L 242.59 198.97 L 245.00 198.97 L 247.41 198.97 L 249.82 198.97 L 252.24 197.51 L 254.65 197.43 L 257.06 197.40 L 259.47 197.38 L 261.88 197.38 L 264.29 197.49 L 266.71 197.34 L 269.12 197.33 L 271.53 197.18 L 273.94 197.41 L 276.35 197.41 L 278.76 197.29 L 281.18 197.29 L 283.59 197.22 L 286.00 197.21 L 288.41 197.15 L 290.82 196.94 L 293.24 197.00 L 295.65 197.41 L 298.06 197.41 L 300.47 197.30 L 302.88 197.26 L 305.29 197.19 L 307.71 197.19 L 310.12 197.19 L 312.53 197.19 L 314.94 197.18 L 317.35 197.12 L 319.76 197.09 L 322.18 197.04 L 324.59 197.00 L 327.00 196.96 L 329.41 196.92 L 331.82 196.91 L 334.24 196.86 L 336.65 196.80 L 339.06 196.75 L 341.47 196.69 L 343.88 196.66 L 346.29 196.63 L 348.71 196.56 L 351.12 196.51 L 353.53 196.47 L 355.94 196.45 L 358.35 196.40 L 360.76 196.37 L 363.18 196.34 L 365.59 196.28 L 368.00 196.20 L 370.41 196.12 L 372.82 196.02 L 375.24 195.89 L 377.65 195.77 L 380.06 195.68 L 382.47 195.63 L 384.88 195.58 L 387.29 195.53 L 389.71 195.44 L 392.12 195.35 L 394.53 195.22 L 396.94 195.11 L 399.35 194.95 L 401.76 194.82 L 404.18 194.68 L 406.59 194.57 L 409.00 194.55 L 411.41 194.51 L 413.82 194.48 L 416.24 194.44 L 418.65 194.40 L 421.06 194.37 L 423.47 194.34 L 425.88 194.29 L 428.29 194.25 L 430.71 194.23 L 433.12 194.21 L 435.53 194.19 L 437.94 194.16 L 440.35 194.12 L 442.76 194.07 L 445.18 193.99 L 447.59 193.94 L 450.00 193.87 L 452.41 193.80 L 454.82 193.74 L 457.24 193.72 L 459.65 193.70 L 462.06 193.66 L 464.47 193.62 L 466.88 193.56 L 469.29 193.49 L 471.71 193.43 L 474.12 193.35 L 476.53 193.27 L 478.94 193.20 L 481.35 193.14 L 483.76 193.15 L 486.18 193.15 L 488.59 193.15 L 491.00 193.18 L 493.41 193.09 L 495.82 193.07 L 498.24 193.07 L 500.65 193.08 L 503.06 193.00 L 505.47 192.95 L 507.88 192.95 L 510.29 192.95 L 512.71 192.95 L 515.12 192.80 L 517.53 192.73 L 519.94 192.69 L 522.35 192.67 L 524.76 192.67 L 527.18 192.68 L 529.59 192.64 L 532.00 192.63 L 534.41 192.63 L 536.82 190.39 L 539.24 189.96 L 541.65 189.85 L 544.06 189.53 L 546.47 189.52 L 548.88 189.36 L 551.29 187.79 L 553.71 187.36 L 556.12 181.35 L 558.53 181.35 L 560.94 180.72 L 563.35 180.71 L 565.76 180.26 L 568.18 179.68 L 570.59 179.67 L 573.00 178.77 L 575.41 177.57 L 577.82 175.55 L 580.24 174.52 L 582.65 173.86 L 585.06 174.17 L 587.47 173.10 L 589.88 173.10 L 592.29 171.18 L 594.71 168.37 L 597.12 168.37 L 599.53 165.86 L 601.94 163.63 L 604.35 163.63 L 606.76 163.62 L 609.18 162.88 L 611.59 161.06 L 614.00 193.89 L 616.41 193.22 L 618.82 192.73 L 621.24 192.34 L 623.65 189.45 L 626.06 188.03 L 628.47 188.03 L 630.88 180.86 L 633.29 148.96 L 635.71 144.25 L 638.12 176.00 L 640.53 176.17 L 642.94 175.77 L 645.35 175.72 L 647.76 197.26 L 650.18 197.26 L 652.59 197.06 L 655.00 196.44 L 657.41 194.49 L 659.82 194.50 L 662.24 194.49 L 664.65 194.49 L 667.06 194.49 L 669.47 194.48 L 671.88 194.48 L 674.29 194.62 L 676.71 206.08 L 679.12 206.08 L 681.53 206.05 L 683.94 206.04 L 686.35 205.22 L 688.76 204.28 L 691.18 204.28 L 693.59 204.28 L 696.00 200.22 L 698.41 204.28 L 700.82 204.28 L 703.24 204.28 L 705.65 198.60 L 708.06 198.60 L 710.47 198.60 L 712.88 198.60 L 715.29 193.00 L 717.71 193.00 L 720.12 188.39 L 722.53 188.39 L 724.94 179.75 L 727.35 174.84 L 729.76 173.23 L 732.18 170.37 L 734.59 169.87 L 737.00 153.88 L 739.41 149.24 L 741.82 152.04 L 744.24 141.93 L 746.65 141.88 L 749.06 141.69 L 751.47 141.69 L 753.88 141.76 L 756.29 141.75 L 758.71 140.68 L 761.12 141.38 L 763.53 141.36 L 765.94 141.83 L 768.35 141.39 L 770.76 141.39 L 773.18 141.52 L 775.59 141.52 L 778.00 141.53 L 780.41 142.33 L 782.82 141.73 L 785.24 141.68 L 787.65 141.68 L 790.06 141.66 L 792.47 141.67 L 794.88 141.65 L 797.29 139.51 L 799.71 136.07 L 802.12 136.04 L 804.53 133.43 L 806.94 131.89 L 809.35 131.13 L 811.76 131.51 L 814.18 131.50 L 816.59 131.57 L 819.00 131.56 L 821.41 131.49 L 823.82 131.49 L 826.24 131.49 L 828.65 131.49 L 831.06 131.49 L 833.47 131.49 L 835.88 131.49 L 838.29 131.49 L 840.71 131.49 L 843.12 131.49 L 845.53 131.49 L 847.94 131.49 L 850.35 131.49 L 852.76 131.49 L 855.18 131.49 L 857.59 131.49 L 860.00 131.49" fill="none" stroke="#3fb950" stroke-width="2"/>
    <circle cx="860.00" cy="131.49" r="3" fill="#3fb950"/>
    <text x="40.00" y="235.00" font-size="9" fill="#c9d1d9" text-anchor="middle" transform="rotate(-45 40.00 235.00)">27.09.2025</text><text x="122.00" y="235.00" font-size="9" fill="#c9d1d9" text-anchor="middle" transform="rotate(-45 122.00 235.00)">28.09.2025</text><text x="204.00" y="235.00" font-size="9" fill="#c9d1d9" text-anchor="middle" transform="rotate(-45 204.00 235.00)">28.09.2025</text><text x="286.00" y="235.00" font-size="9" fill="#c9d1d9" text-anchor="middle" transform="rotate(-45 286.00 235.00)">30.09.2025</text><text x="368.00" y="235.00" font-size="9" fill="#c9d1d9" text-anchor="middle" transform="rotate(-45 368.00 235.00)">04.10.2025</text><text x="450.00" y="235.00" font-size="9" fill="#c9d1d9" text-anchor="middle" transform="rotate(-45 450.00 235.00)">04.10.2025</text><text x="532.00" y="235.00" font-size="9" fill="#c9d1d9" text-anchor="middle" transform="rotate(-45 532.00 235.00)">04.10.2025</text><text x="614.00" y="235.00" font-size="9" fill="#c9d1d9" text-anchor="middle" transform="rotate(-45 614.00 235.00)">04.10.2025</text><text x="696.00" y="235.00" font-size="9" fill="#c9d1d9" text-anchor="middle" transform="rotate(-45 696.00 235.00)">07.10.2025</text><text x="778.00" y="235.00" font-size="9" fill="#c9d1d9" text-anchor="middle" transform="rotate(-45 778.00 235.00)">09.10.2025</text><text x="860.00" y="235.00" font-size="9" fill="#c9d1d9" text-anchor="middle" transform="rotate(-45 860.00 235.00)">25.10.2025</text>
  </g>
</svg>