<svg xmlns="http://www.w3.org/2000/svg" width="900" height="290" style="font-family: -apple-system, BlinkMacSystemFont, 'Segoe UI', Helvetica, Arial, sans-serif;">
  <rect width="100%" height="100%" fill="#0d1117"/>
  <g>
    <line x1="40" y1="220.00" x2="860" y2="220.00" stroke="#30363d"/><text x="32" y="224.00" font-size="10" fill="#c9d1d9" text-anchor="end">0</text><line x1="40" y1="175.00" x2="860" y2="175.00" stroke="#30363d"/><text x="32" y="179.00" font-size="10" fill="#c9d1d9" text-anchor="end">25k</text><line x1="40" y1="130.00" x2="860" y2="130.00" stroke="#30363d"/><text x="32" y="134.00" font-size="10" fill="#c9d1d9" text-anchor="end">50k</text><line x1="40" y1="85.00" x2="860" y2="85.00" stroke="#30363d"/><text x="32" y="89.00" font-size="10" fill="#c9d1d9" text-anchor="end">75k</text><line x1="40" y1="40.00" x2="860" y2="40.00" stroke="#30363d"/><text x="32" y="44.00" font-size="10" fill="#c9d1d9" text-anchor="end">100k</text>
    <line x1="40.00" y1="40" x2="40.00" y2="220" stroke="#30363d" opacity="0.5"/><line x1="121.47" y1="40" x2="121.47" y2="220" stroke="#30363d" opacity="0.5"/><line x1="202.94" y1="40" x2="202.94" y2="220" stroke="#30363d" opacity="0.5"/><line x1="284.41" y1="40" x2="284.41" y2="220" stroke="#30363d" opacity="0.5"/><line x1="365.87" y1="40" x2="365.87" y2="220" stroke="#30363d" opacity="0.5"/><line x1="447.34" y1="40" x2="447.34" y2="220" stroke="#30363d" opacity="0.5"/><line x1="528.81" y1="40" x2="528.81" y2="220" stroke="#30363d" opacity="0.5"/><line x1="610.28" y1="40" x2="610.28" y2="220" stroke="#30363d" opacity="0.5"/><line x1="691.75" y1="40" x2="691.75" y2="220" stroke="#30363d" opacity="0.5"/><line x1="773.22" y1="40" x2="773.22" y2="220" stroke="#30363d" opacity="0.5"/><line x1="854.69" y1="40" x2="854.69" y2="220" stroke="#30363d" opacity="0.5"/>
    <line x1="40" y1="220" x2="860" y2="220" stroke="#30363d"/>
    <line x1="40" y1="40"   x2="40"   y2="220" stroke="#30363d"/>
    <path d="M 40.00 220.00 L 41.77 220.00 L 43.54 219.60 L 45.31 219.62 L 47.08 219.63 L 48.86 219.32 L 50.63 219.31 L 52.40 219.26 L 54.17 218.89 L 55.94 218.89 L 57.71 218.89 L 59.48 218.87 L 61.25 218.87 L 63.02 218.86 L 64.79 218.85 L 66.57 218.85 L 68.34 218.82 L 70.11 218.78 L 71.88 218.72 L 73.65 218.68 L 75.42 218.64 L 77.19 218.59 L 78.96 218.59 L 80.73 218.57 L 82.51 218.57 L 84.28 218.57 L 86.05 218.57 L 87.82 218.57 L 89.59 218.57 L 91.36 218.57 L 93.13 218.57 L 94.90 218.57 L 96.67 218.55 L 98.44 218.54 L 100.22 218.58 L 101.99 218.55 L 103.76 218.55 L 105.53 218.53 L 107.30 218.31 L 109.07 217.94 L 110.84 217.88 L 112.61 217.87 L 114.38 217.86 L 116.16 217.85 L 117.93 217.84 L 119.70 217.85 L 121.47 217.82 L 123.24 217.66 L 125.01 217.61 L 126.78 217.60 L 128.55 217.57 L 130.32 217.56 L 132.10 217.52 L 133.87 217.38 L 135.64 217.24 L 137.41 216.93 L 139.18 216.65 L 140.95 216.44 L 142.72 216.39 L 144.49 216.34 L 146.26 216.83 L 148.03 200.94 L 149.81 200.94 L 151.58 200.95 L 153.35 198.99 L 155.12 198.98 L 156.89 198.94 L 158.66 198.94 L 160.43 198.91 L 162.20 198.90 L 163.97 198.93 L 165.75 198.93 L 167.52 198.99 L 169.29 198.95 L 171.06 198.96 L 172.83 198.95 L 174.60 198.95 L 176.37 198.97 L 178.14 198.97 L 179.91 198.97 L 181.68 198.97 L 183.46 198.97 L 185.23 198.97 L 187.00 198.97 L 188.77 198.97 L 190.54 198.97 L 192.31 198.97 L 194.08 198.97 L 195.85 197.51 L 197.62 197.43 L 199.40 197.40 L 201.17 197.38 L 202.94 197.38 L 204.71 197.49 L 206.48 197.34 L 208.25 197.33 L 210.02 197.18 L 211.79 197.41 L 213.56 197.41 L 215.33 197.29 L 217.11 197.29 L 218.88 197.22 L 220.65 197.21 L 222.42 197.15 L 224.19 196.94 L 225.96 197.00 L 227.73 197.41 L 229.50 197.41 L 231.27 197.30 L 233.05 197.26 L 234.82 197.19 L 236.59 197.19 L 238.36 197.19 L 240.13 197.19 L 241.90 197.18 L 243.67 197.12 L 245.44 197.09 L 247.21 197.04 L 248.98 197.00 L 250.76 196.96 L 252.53 196.92 L 254.30 196.91 L 256.07 196.86 L 257.84 196.80 L 259.61 196.75 L 261.38 196.69 L 263.15 196.66 L 264.92 196.63 L 266.70 196.56 L 268.47 196.51 L 270.24 196.47 L 272.01 196.45 L 273.78 196.40 L 275.55 196.37 L 277.32 196.34 L 279.09 196.28 L 280.86 196.20 L 282.63 196.12 L 284.41 196.02 L 286.18 195.89 L 287.95 195.77 L 289.72 195.68 L 291.49 195.63 L 293.26 195.58 L 295.03 195.53 L 296.80 195.44 L 298.57 195.35 L 300.35 195.22 L 302.12 195.11 L 303.89 194.95 L 305.66 194.82 L 307.43 194.68 L 309.20 194.57 L 310.97 194.55 L 312.74 194.51 L 314.51 194.48 L 316.29 194.44 L 318.06 194.40 L 319.83 194.37 L 321.60 194.34 L 323.37 194.29 L 325.14 194.25 L 326.91 194.23 L 328.68 194.21 L 330.45 194.19 L 332.22 194.16 L 334.00 194.12 L 335.77 194.07 L 337.54 193.99 L 339.31 193.94 L 341.08 193.87 L 342.85 193.80 L 344.62 193.74 L 346.39 193.72 L 348.16 193.70 L 349.94 193.66 L 351.71 193.62 L 353.48 193.56 L 355.25 193.49 L 357.02 193.43 L 358.79 193.35 L 360.56 193.27 L 362.33 193.20 L 364.10 193.14 L 365.87 193.15 L 367.65 193.15 L 369.42 193.15 L 371.19 193.18 L 372.96 193.09 L 374.73 193.07 L 376.50 193.07 L 378.27 193.08 L 380.04 193.00 L 381.81 192.95 L 383.59 192.95 L 385.36 192.95 L 387.13 192.95 L 388.90 192.80 L 390.67 192.73 L 392.44 192.69 L 394.21 192.67 L 395.98 192.67 L 397.75 192.68 L 399.52 192.64 L 401.30 192.63 L 403.07 192.63 L 404.84 190.39 L 406.61 189.96 L 408.38 189.85 L 410.15 189.53 L 411.92 189.52 L 413.69 189.36 L 415.46 187.79 L 417.24 187.36 L 419.01 181.35 L 420.78 181.35 L 422.55 180.72 L 424.32 180.71 L 426.09 180.26 L 427.86 179.68 L 429.63 179.67 L 431.40 178.77 L 433.17 177.57 L 434.95 175.55 L 436.72 174.52 L 438.49 173.86 L 440.26 174.17 L 442.03 173.10 L 443.80 173.10 L 445.57 171.18 L 447.34 168.37 L 449.11 168.37 L 450.89 165.86 L 452.66 163.63 L 454.43 163.63 L 456.20 163.62 L 457.97 162.88 L 459.74 161.06 L 461.51 193.89 L 463.28 193.22 L 465.05 192.73 L 466.83 192.34 L 468.60 189.45 L 470.37 188.03 L 472.14 188.03 L 473.91 180.86 L 475.68 148.96 L 477.45 144.25 L 479.22 176.00 L 480.99 176.17 L 482.76 175.77 L 484.54 175.72 L 486.31 197.26 L 488.08 197.26 L 489.85 197.06 L 491.62 196.44 L 493.39 194.49 L 495.16 194.50 L 496.93 194.49 L 498.70 194.49 L 500.48 194.49 L 502.25 194.48 L 504.02 194.48 L 505.79 194.62 L 507.56 206.08 L 509.33 206.08 L 511.10 206.05 L 512.87 206.04 L 514.64 205.22 L 516.41 204.28 L 518.19 204.28 L 519.96 204.28 L 521.73 200.22 L 523.50 204.28 L 525.27 204.28 L 527.04 204.28 L 528.81 198.60 L 530.58 198.60 L 532.35 198.60 L 534.13 198.60 L 535.90 193.00 L 537.67 193.00 L 539.44 188.39 L 541.21 188.39 L 542.98 179.75 L 544.75 174.84 L 546.52 173.23 L 548.29 170.37 L 550.06 169.87 L 551.84 153.88 L 553.61 149.24 L 555.38 152.04 L 557.15 141.93 L 558.92 141.88 L 560.69 141.69 L 562.46 141.69 L 564.23 141.76 L 566.00 141.75 L 567.78 140.68 L 569.55 141.38 L 571.32 141.36 L 573.09 141.83 L 574.86 141.39 L 576.63 141.39 L 578.40 141.52 L 580.17 141.52 L 581.94 141.53 L 583.71 142.33 L 585.49 141.73 L 587.26 141.68 L 589.03 141.68 L 590.80 141.66 L 592.57 141.67 L 594.34 141.65 L 596.11 139.51 L 597.88 136.07 L 599.65 136.04 L 601.43 133.43 L 603.20 131.89 L 604.97 131.13 L 606.74 131.51 L 608.51 131.50 L 610.28 131.57 L 612.05 131.56 L 613.82 131.49 L 615.59 131.49 L 617.37 131.49 L 619.14 131.49 L 620.91 131.49 L 622.68 131.49 L 624.45 131.49 L 626.22 131.49 L 627.99 131.49 L 629.76 131.49 L 631.53 131.49 L 633.30 131.49 L 635.08 131.49 L 636.85 131.49 L 638.62 131.49 L 640.39 131.49 L 642.16 131.49 L 643.93 131.49 L 645.70 131.49 L 647.47 131.49 L 649.24 131.49 L 651.02 131.49 L 652.79 131.49 L 654.56 131.49 L 656.33 131.49 L 658.10 131.49 L 659.87 131.49 L 661.64 131.49 L 663.41 131.49 L 665.18 131.49 L 666.95 131.49 L 668.73 131.49 L 670.50 131.49 L 672.27 131.49 L 674.04 131.49 L 675.81 131.49 L 677.58 131.49 L 679.35 131.49 L 681.12 131.49 L 682.89 131.49 L 684.67 131.49 L 686.44 131.49 L 688.21 131.49 L 689.98 131.49 L 691.75 131.49 L 693.52 131.49 L 695.29 131.49 L 697.06 131.49 L 698.83 131.49 L 700.60 131.49 L 702.38 131.49 L 704.15 131.49 L 705.92 131.49 L 707.69 131.49 L 709.46 131.49 L 711.23 131.49 L 713.00 131.49 L 714.77 131.49 L 716.54 131.49 L 718.32 131.49 L 720.09 131.49 L 721.86 131.49 L 723.63 131.49 L 725.40 131.49 L 727.17 131.49 L 728.94 131.49 L 730.71 131.49 L 732.48 131.49 L 734.25 131.49 L 736.03 131.49 L 737.80 131.49 L 739.57 131.49 L 741.34 131.49 L 743.11 131.49 L 744.88 131.49 L 746.65 131.49 L 748.42 131.49 L 750.19 131.49 L 751.97 131.49 L 753.74 131.49 L 755.51 131.49 L 757.28 131.49 L 759.05 131.49 L 760.82 131.49 L 762.59 131.49 L 764.36 131.49 L 766.13 131.49 L 767.90 131.49 L 769.68 131.49 L 771.45 131.49 L 773.22 131.49 L 774.99 131.49 L 776.76 131.49 L 778.53 131.49 L 780.30 131.49 L 782.07 131.49 L 783.84 131.49 L 785.62 131.49 L 787.39 131.49 L 789.16 131.49 L 790.93 131.49 L 792.70 131.49 L 794.47 131.49 L 796.24 131.49 L 798.01 131.49 L 799.78 131.49 L 801.56 131.49 L 803.33 131.49 L 805.10 131.49 L 806.87 131.49 L 808.64 131.49 L 810.41 131.49 L 812.18 131.49 L 813.95 131.49 L 815.72 131.49 L 817.49 131.49 L 819.27 131.49 L 821.04 131.49 L 822.81 131.49 L 824.58 131.49 L 826.35 131.49 L 828.12 131.49 L 829.89 131.49 L 831.66 131.49 L 833.43 131.49 L 835.21 131.49 L 836.98 131.49 L 838.75 131.49 L 840.52 131.49 L 842.29 131.49 L 844.06 131.49 L 845.83 131.49 L 847.60 131.49 L 849.37 131.49 L 851.14 131.49 L 852.92 131.49 L 854.69 131.49 L 856.46 131.49 L 858.23 131.49 L 860.00 131.49" fill="none" stroke="#3fb950" stroke-width="2"/>
    <circle cx="860.00" cy="131.49" r="3" fill="#3fb950"/>
    <text x="40.00" y="235.00" font-size="9" fill="#c9d1d9" text-anchor="middle" transform="rotate(-45 40.00 235.00)">27.09.2025</text><text x="121.47" y="235.00" font-size="9" fill="#c9d1d9" text-anchor="middle" transform="rotate(-45 121.47 235.00)">28.09.2025</text><text x="202.94" y="235.00" font-size="9" fill="#c9d1d9" text-anchor="middle" transform="rotate(-45 202.94 235.00)">29.09.2025</text><text x="284.41" y="235.00" font-size="9" fill="#c9d1d9" text-anchor="middle" transform="rotate(-45 284.41 235.00)">04.10.2025</text><text x="365.87" y="235.00" font-size="9" fill="#c9d1d9" text-anchor="middle" transform="rotate(-45 365.87 235.00)">04.10.2025</text><text x="447.34" y="235.00" font-size="9" fill="#c9d1d9" text-anchor="middle" transform="rotate(-45 447.34 235.00)">04.10.2025</text><text x="528.81" y="235.00" font-size="9" fill="#c9d1d9" text-anchor="middle" transform="rotate(-45 528.81 235.00)">07.10.2025</text><text x="610.28" y="235.00" font-size="9" fill="#c9d1d9" text-anchor="middle" transform="rotate(-45 610.28 235.00)">10.10.2025</text><text x="691.75" y="235.00" font-size="9" fill="#c9d1d9" text-anchor="middle" transform="rotate(-45 691.75 235.00)">22.11.2025</text><text x="773.22" y="235.00" font-size="9" fill="#c9d1d9" text-anchor="middle" transform="rotate(-45 773.22 235.00)">07.01.2026</text><text x="854.69" y="235.00" font-size="9" fill="#c9d1d9" text-anchor="middle" transform="rotate(-45 854.69 235.00)">19.02.2026</text>
  </g>
</svg>