<svg xmlns="http://www.w3.org/2000/svg" width="900" height="290" style="font-family: -apple-system, BlinkMacSystemFont, 'Segoe UI', Helvetica, Arial, sans-serif;">
  <rect width="100%" height="100%" fill="white"/>
  <g>
    <line x1="40" y1="220.00" x2="860" y2="220.00" stroke="#e5e7eb"/><text x="32" y="224.00" font-size="10" fill="#111827" text-anchor="end">0</text><line x1="40" y1="175.00" x2="860" y2="175.00" stroke="#e5e7eb"/><text x="32" y="179.00" font-size="10" fill="#111827" text-anchor="end">25k</text><line x1="40" y1="130.00" x2="860" y2="130.00" stroke="#e5e7eb"/><text x="32" y="134.00" font-size="10" fill="#111827" text-anchor="end">50k</text><line x1="40" y1="85.00" x2="860" y2="85.00" stroke="#e5e7eb"/><text x="32" y="89.00" font-size="10" fill="#111827" text-anchor="end">75k</text><line x1="40" y1="40.00" x2="860" y2="40.00" stroke="#e5e7eb"/><text x="32" y="44.00" font-size="10" fill="#111827" text-anchor="end">100k</text>
    <line x1="40.00" y1="40" x2="40.00" y2="220" stroke="#e5e7eb" opacity="0.5"/><line x1="122.00" y1="40" x2="122.00" y2="220" stroke="#e5e7eb" opacity="0.5"/><line x1="204.00" y1="40" x2="204.00" y2="220" stroke="#e5e7eb" opacity="0.5"/><line x1="286.00" y1="40" x2="286.00" y2="220" stroke="#e5e7eb" opacity="0.5"/><line x1="368.00" y1="40" x2="368.00" y2="220" stroke="#e5e7eb" opacity="0.5"/><line x1="450.00" y1="40" x2="450.00" y2="220" stroke="#e5e7eb" opacity="0.5"/><line x1="532.00" y1="40" x2="532.00" y2="220" stroke="#e5e7eb" opacity="0.5"/><line x1="614.00" y1="40" x2="614.00" y2="220" stroke="#e5e7eb" opacity="0.5"/><line x1="696.00" y1="40" x2="696.00" y2="220" stroke="#e5e7eb" opacity="0.5"/><line x1="778.00" y1="40" x2="778.00" y2="220" stroke="#e5e7eb" opacity="0.5"/><line x1="860.00" y1="40" x2="860.00" y2="220" stroke="#e5e7eb" opacity="0.5"/>
    <line x1="40" y1="220" x2="860" y2="220" stroke="#9ca3af"/>
    <line x1="40" y1="40"   x2="40"   y2="220" stroke="#9ca3af"/>
    <path d="M 40.00 220.00 L 41.86 220.00 L 43.73 219.60 L 45.59 219.62 L 47.45 219.63 L 49.32 219.32 L 51.18 219.31 L 53.05 219.26 L 54.91 218.89 L 56.77 218.89 L 58.64 218.89 L 60.50 218.87 L 62.36 218.87 L 64.23 218.86 L 66.09 218.85 L 67.95 218.85 L 69.82 218.82 L 71.68 218.78 L 73.55 218.72 L 75.41 218.68 L 77.27 218.64 L 79.14 218.59 L 81.00 218.59 L 82.86 218.57 L 84.73 218.57 L 86.59 218.57 L 88.45 218.57 L 90.32 218.57 L 92.18 218.57 L 94.05 218.57 L 95.91 218.57 L 97.77 218.57 L 99.64 218.55 L 101.50 218.54 L 103.36 218.58 L 105.23 218.55 L 107.09 218.55 L 108.95 218.53 L 110.82 218.31 L 112.68 217.94 L 114.55 217.88 L 116.41 217.87 L 118.27 217.86 L 120.14 217.85 L 122.00 217.84 L 123.86 217.85 L 125.73 217.82 L 127.59 217.66 L 129.45 217.61 L 131.32 217.60 L 133.18 217.57 L 135.05 217.56 L 136.91 217.52 L 138.77 217.38 L 140.64 217.24 L 142.50 216.93 L 144.36 216.65 L 146.23 216.44 L 148.09 216.39 L 149.95 216.34 L 151.82 216.83 L 153.68 200.94 L 155.55 200.94 L 157.41 200.95 L 159.27 198.99 L 161.14 198.98 L 163.00 198.94 L 164.86 198.94 L 166.73 198.91 L 168.59 198.90 L 170.45 198.93 L 172.32 198.93 L 174.18 198.99 L 176.05 198.95 L 177.91 198.96 L 179.77 198.95 L 181.64 198.95 L 183.50 198.97 L 185.36 198.97 L 187.23 198.97 L 189.09 198.97 L 190.95 198.97 L 192.82 198.97 L 194.68 198.97 L 196.55 198.97 L 198.41 198.97 L 200.27 198.97 L 202.14 198.97 L 204.00 197.51 L 205.86 197.43 L 207.73 197.40 L 209.59 197.38 L 211.45 197.38 L 213.32 197.49 L 215.18 197.34 L 217.05 197.33 L 218.91 197.18 L 220.77 197.41 L 222.64 197.41 L 224.50 197.29 L 226.36 197.29 L 228.23 197.22 L 230.09 197.21 L 231.95 197.15 L 233.82 196.94 L 235.68 197.00 L 237.55 197.41 L 239.41 197.41 L 241.27 197.30 L 243.14 197.26 L 245.00 197.19 L 246.86 197.19 L 248.73 197.19 L 250.59 197.19 L 252.45 197.18 L 254.32 197.12 L 256.18 197.09 L 258.05 197.04 L 259.91 197.00 L 261.77 196.96 L 263.64 196.92 L 265.50 196.91 L 267.36 196.86 L 269.23 196.80 L 271.09 196.75 L 272.95 196.69 L 274.82 196.66 L 276.68 196.63 L 278.55 196.56 L 280.41 196.51 L 282.27 196.47 L 284.14 196.45 L 286.00 196.40 L 287.86 196.37 L 289.73 196.34 L 291.59 196.28 L 293.45 196.20 L 295.32 196.12 L 297.18 196.02 L 299.05 195.89 L 300.91 195.77 L 302.77 195.68 L 304.64 195.63 L 306.50 195.58 L 308.36 195.53 L 310.23 195.44 L 312.09 195.35 L 313.95 195.22 L 315.82 195.11 L 317.68 194.95 L 319.55 194.82 L 321.41 194.68 L 323.27 194.57 L 325.14 194.55 L 327.00 194.51 L 328.86 194.48 L 330.73 194.44 L 332.59 194.40 L 334.45 194.37 L 336.32 194.34 L 338.18 194.29 L 340.05 194.25 L 341.91 194.23 L 343.77 194.21 L 345.64 194.19 L 347.50 194.16 L 349.36 194.12 L 351.23 194.07 L 353.09 193.99 L 354.95 193.94 L 356.82 193.87 L 358.68 193.80 L 360.55 193.74 L 362.41 193.72 L 364.27 193.70 L 366.14 193.66 L 368.00 193.62 L 369.86 193.56 L 371.73 193.49 L 373.59 193.43 L 375.45 193.35 L 377.32 193.27 L 379.18 193.20 L 381.05 193.14 L 382.91 193.15 L 384.77 193.15 L 386.64 193.15 L 388.50 193.18 L 390.36 193.09 L 392.23 193.07 L 394.09 193.07 L 395.95 193.08 L 397.82 193.00 L 399.68 192.95 L 401.55 192.95 L 403.41 192.95 L 405.27 192.95 L 407.14 192.80 L 409.00 192.73 L 410.86 192.69 L 412.73 192.67 L 414.59 192.67 L 416.45 192.68 L 418.32 192.64 L 420.18 192.63 L 422.05 192.63 L 423.91 190.39 L 425.77 189.96 L 427.64 189.85 L 429.50 189.53 L 431.36 189.52 L 433.23 189.36 L 435.09 187.79 L 436.95 187.36 L 438.82 181.35 L 440.68 181.35 L 442.55 180.72 L 444.41 180.71 L 446.27 180.26 L 448.14 179.68 L 450.00 179.67 L 451.86 178.77 L 453.73 177.57 L 455.59 175.55 L 457.45 174.52 L 459.32 173.86 L 461.18 174.17 L 463.05 173.10 L 464.91 173.10 L 466.77 171.18 L 468.64 168.37 L 470.50 168.37 L 472.36 165.86 L 474.23 163.63 L 476.09 163.63 L 477.95 163.62 L 479.82 162.88 L 481.68 161.06 L 483.55 193.89 L 485.41 193.22 L 487.27 192.73 L 489.14 192.34 L 491.00 189.45 L 492.86 188.03 L 494.73 188.03 L 496.59 180.86 L 498.45 148.96 L 500.32 144.25 L 502.18 176.00 L 504.05 176.17 L 505.91 175.77 L 507.77 175.72 L 509.64 197.26 L 511.50 197.26 L 513.36 197.06 L 515.23 196.44 L 517.09 194.49 L 518.95 194.50 L 520.82 194.49 L 522.68 194.49 L 524.55 194.49 L 526.41 194.48 L 528.27 194.48 L 530.14 194.62 L 532.00 206.08 L 533.86 206.08 L 535.73 206.05 L 537.59 206.04 L 539.45 205.22 L 541.32 204.28 L 543.18 204.28 L 545.05 204.28 L 546.91 200.22 L 548.77 204.28 L 550.64 204.28 L 552.50 204.28 L 554.36 198.60 L 556.23 198.60 L 558.09 198.60 L 559.95 198.60 L 561.82 193.00 L 563.68 193.00 L 565.55 188.39 L 567.41 188.39 L 569.27 179.75 L 571.14 174.84 L 573.00 173.23 L 574.86 170.37 L 576.73 169.87 L 578.59 153.88 L 580.45 149.24 L 582.32 152.04 L 584.18 141.93 L 586.05 141.88 L 587.91 141.69 L 589.77 141.69 L 591.64 141.76 L 593.50 141.75 L 595.36 140.68 L 597.23 141.38 L 599.09 141.36 L 600.95 141.83 L 602.82 141.39 L 604.68 141.39 L 606.55 141.52 L 608.41 141.52 L 610.27 141.53 L 612.14 142.33 L 614.00 141.73 L 615.86 141.68 L 617.73 141.68 L 619.59 141.66 L 621.45 141.67 L 623.32 141.65 L 625.18 139.51 L 627.05 136.07 L 628.91 136.04 L 630.77 133.43 L 632.64 131.89 L 634.50 131.13 L 636.36 131.51 L 638.23 131.50 L 640.09 131.57 L 641.95 131.56 L 643.82 131.49 L 645.68 131.49 L 647.55 131.49 L 649.41 131.49 L 651.27 131.49 L 653.14 131.49 L 655.00 131.49 L 656.86 131.49 L 658.73 131.49 L 660.59 131.49 L 662.45 131.49 L 664.32 131.49 L 666.18 131.49 L 668.05 131.49 L 669.91 131.49 L 671.77 131.49 L 673.64 131.49 L 675.50 131.49 L 677.36 131.49 L 679.23 131.49 L 681.09 131.49 L 682.95 131.49 L 684.82 131.49 L 686.68 131.49 L 688.55 131.49 L 690.41 131.49 L 692.27 131.49 L 694.14 131.49 L 696.00 131.49 L 697.86 131.49 L 699.73 131.49 L 701.59 131.49 L 703.45 131.49 L 705.32 131.49 L 707.18 131.49 L 709.05 131.49 L 710.91 131.49 L 712.77 131.49 L 714.64 131.49 L 716.50 131.49 L 718.36 131.49 L 720.23 131.49 L 722.09 131.49 L 723.95 131.49 L 725.82 131.49 L 727.68 131.49 L 729.55 131.49 L 731.41 131.49 L 733.27 131.49 L 735.14 131.49 L 737.00 131.49 L 738.86 131.49 L 740.73 131.49 L 742.59 131.49 L 744.45 131.49 L 746.32 131.49 L 748.18 131.49 L 750.05 131.49 L 751.91 131.49 L 753.77 131.49 L 755.64 131.49 L 757.50 131.49 L 759.36 131.49 L 761.23 131.49 L 763.09 131.49 L 764.95 131.49 L 766.82 131.49 L 768.68 131.49 L 770.55 131.49 L 772.41 131.49 L 774.27 131.49 L 776.14 131.49 L 778.00 131.49 L 779.86 131.49 L 781.73 131.49 L 783.59 131.49 L 785.45 131.49 L 787.32 131.49 L 789.18 131.49 L 791.05 131.49 L 792.91 131.49 L 794.77 131.49 L 796.64 131.49 L 798.50 131.49 L 800.36 131.49 L 802.23 131.49 L 804.09 131.49 L 805.95 131.49 L 807.82 131.49 L 809.68 131.49 L 811.55 131.49 L 813.41 131.49 L 815.27 131.49 L 817.14 131.49 L 819.00 131.49 L 820.86 131.49 L 822.73 131.49 L 824.59 131.49 L 826.45 131.49 L 828.32 131.49 L 830.18 131.49 L 832.05 131.49 L 833.91 131.49 L 835.77 131.49 L 837.64 131.49 L 839.50 131.49 L 841.36 131.49 L 843.23 131.49 L 845.09 131.49 L 846.95 131.49 L 848.82 131.49 L 850.68 131.49 L 852.55 131.49 L 854.41 131.49 L 856.27 131.49 L 858.14 131.49 L 860.00 131.49" fill="none" stroke="#111827" stroke-width="2"/>
    <circle cx="860.00" cy="131.49" r="3" fill="#111827"/>
    <text x="40.00" y="235.00" font-size="9" fill="#111827" text-anchor="middle" transform="rotate(-45 40.00 235.00)">27.09.2025</text><text x="122.00" y="235.00" font-size="9" fill="#111827" text-anchor="middle" transform="rotate(-45 122.00 235.00)">28.09.2025</text><text x="204.00" y="235.00" font-size="9" fill="#111827" text-anchor="middle" transform="rotate(-45 204.00 235.00)">29.09.2025</text><text x="286.00" y="235.00" font-size="9" fill="#111827" text-anchor="middle" transform="rotate(-45 286.00 235.00)">04.10.2025</text><text x="368.00" y="235.00" font-size="9" fill="#111827" text-anchor="middle" transform="rotate(-45 368.00 235.00)">04.10.2025</text><text x="450.00" y="235.00" font-size="9" fill="#111827" text-anchor="middle" transform="rotate(-45 450.00 235.00)">04.10.2025</text><text x="532.00" y="235.00" font-size="9" fill="#111827" text-anchor="middle" transform="rotate(-45 532.00 235.00)">05.10.2025</text><text x="614.00" y="235.00" font-size="9" fill="#111827" text-anchor="middle" transform="rotate(-45 614.00 235.00)">09.10.2025</text><text x="696.00" y="235.00" font-size="9" fill="#111827" text-anchor="middle" transform="rotate(-45 696.00 235.00)">06.11.2025</text><text x="778.00" y="235.00" font-size="9" fill="#111827" text-anchor="middle" transform="rotate(-45 778.00 235.00)">20.12.2025</text><text x="860.00" y="235.00" font-size="9" fill="#111827" text-anchor="middle" transform="rotate(-45 860.00 235.00)">01.02.2026</text>
  </g>
</svg>