<svg xmlns="http://www.w3.org/2000/svg" width="900" height="290" style="font-family: -apple-system, BlinkMacSystemFont, 'Segoe UI', Helvetica, Arial, sans-serif;">
  <rect width="100%" height="100%" fill="white"/>
  <g>
    <line x1="40" y1="220.00" x2="860" y2="220.00" stroke="#e5e7eb"/><text x="32" y="224.00" font-size="10" fill="#111827" text-anchor="end">0</text><line x1="40" y1="175.00" x2="860" y2="175.00" stroke="#e5e7eb"/><text x="32" y="179.00" font-size="10" fill="#111827" text-anchor="end">12.5k</text><line x1="40" y1="130.00" x2="860" y2="130.00" stroke="#e5e7eb"/><text x="32" y="134.00" font-size="10" fill="#111827" text-anchor="end">25k</text><line x1="40" y1="85.00" x2="860" y2="85.00" stroke="#e5e7eb"/><text x="32" y="89.00" font-size="10" fill="#111827" text-anchor="end">37.5k</text><line x1="40" y1="40.00" x2="860" y2="40.00" stroke="#e5e7eb"/><text x="32" y="44.00" font-size="10" fill="#111827" text-anchor="end">50k</text>
    <line x1="40.00" y1="40" x2="40.00" y2="220" stroke="#e5e7eb" opacity="0.5"/><line x1="120.76" y1="40" x2="120.76" y2="220" stroke="#e5e7eb" opacity="0.5"/><line x1="201.52" y1="40" x2="201.52" y2="220" stroke="#e5e7eb" opacity="0.5"/><line x1="282.27" y1="40" x2="282.27" y2="220" stroke="#e5e7eb" opacity="0.5"/><line x1="363.03" y1="40" x2="363.03" y2="220" stroke="#e5e7eb" opacity="0.5"/><line x1="443.79" y1="40" x2="443.79" y2="220" stroke="#e5e7eb" opacity="0.5"/><line x1="524.55" y1="40" x2="524.55" y2="220" stroke="#e5e7eb" opacity="0.5"/><line x1="605.30" y1="40" x2="605.30" y2="220" stroke="#e5e7eb" opacity="0.5"/><line x1="686.06" y1="40" x2="686.06" y2="220" stroke="#e5e7eb" opacity="0.5"/><line x1="766.82" y1="40" x2="766.82" y2="220" stroke="#e5e7eb" opacity="0.5"/><line x1="847.58" y1="40" x2="847.58" y2="220" stroke="#e5e7eb" opacity="0.5"/>
    <line x1="40" y1="220" x2="860" y2="220" stroke="#9ca3af"/>
    <line x1="40" y1="40"   x2="40"   y2="220" stroke="#9ca3af"/>
    <path d="M 40.00 220.00 L 43.11 220.00 L 46.21 219.20 L 49.32 219.25 L 52.42 219.25 L 55.53 218.64 L 58.64 218.62 L 61.74 218.52 L 64.85 217.78 L 67.95 217.78 L 71.06 217.78 L 74.17 217.73 L 77.27 217.74 L 80.38 217.72 L 83.48 217.70 L 86.59 217.70 L 89.70 217.63 L 92.80 217.56 L 95.91 217.45 L 99.02 217.36 L 102.12 217.27 L 105.23 217.18 L 108.33 217.18 L 111.44 217.14 L 114.55 217.14 L 117.65 217.14 L 120.76 217.14 L 123.86 217.14 L 126.97 217.14 L 130.08 217.14 L 133.18 217.14 L 136.29 217.14 L 139.39 217.10 L 142.50 217.08 L 145.61 217.15 L 148.71 217.11 L 151.82 217.11 L 154.92 217.06 L 158.03 216.62 L 161.14 215.89 L 164.24 215.76 L 167.35 215.73 L 170.45 215.72 L 173.56 215.70 L 176.67 215.68 L 179.77 215.70 L 182.88 215.64 L 185.98 215.31 L 189.09 215.22 L 192.20 215.20 L 195.30 215.14 L 198.41 215.13 L 201.52 215.03 L 204.62 214.77 L 207.73 214.47 L 210.83 213.85 L 213.94 213.29 L 217.05 212.88 L 220.15 212.79 L 223.26 212.68 L 226.36 213.67 L 229.47 181.87 L 232.58 181.89 L 235.68 181.89 L 238.79 177.97 L 241.89 177.96 L 245.00 177.88 L 248.11 177.88 L 251.21 177.81 L 254.32 177.80 L 257.42 177.87 L 260.53 177.87 L 263.64 177.98 L 266.74 177.91 L 269.85 177.92 L 272.95 177.91 L 276.06 177.91 L 279.17 177.94 L 282.27 177.94 L 285.38 177.94 L 288.48 177.94 L 291.59 177.94 L 294.70 177.94 L 297.80 177.94 L 300.91 177.95 L 304.02 177.94 L 307.12 177.94 L 310.23 177.94 L 313.33 175.03 L 316.44 174.85 L 319.55 174.80 L 322.65 174.77 L 325.76 174.76 L 328.86 174.99 L 331.97 174.69 L 335.08 174.66 L 338.18 174.35 L 341.29 174.82 L 344.39 174.82 L 347.50 174.59 L 350.61 174.58 L 353.71 174.43 L 356.82 174.42 L 359.92 174.30 L 363.03 173.88 L 366.14 174.00 L 369.24 174.83 L 372.35 174.82 L 375.45 174.60 L 378.56 174.51 L 381.67 174.37 L 384.77 174.37 L 387.88 174.37 L 390.98 174.37 L 394.09 174.36 L 397.20 174.24 L 400.30 174.18 L 403.41 174.09 L 406.52 174.00 L 409.62 173.92 L 412.73 173.84 L 415.83 173.81 L 418.94 173.73 L 422.05 173.60 L 425.15 173.50 L 428.26 173.39 L 431.36 173.32 L 434.47 173.25 L 437.58 173.11 L 440.68 173.01 L 443.79 172.93 L 446.89 172.89 L 450.00 172.80 L 453.11 172.74 L 456.21 172.68 L 459.32 172.57 L 462.42 172.40 L 465.53 172.25 L 468.64 172.05 L 471.74 171.78 L 474.85 171.54 L 477.95 171.36 L 481.06 171.26 L 484.17 171.17 L 487.27 171.06 L 490.38 170.89 L 493.48 170.70 L 496.59 170.44 L 499.70 170.21 L 502.80 169.90 L 505.91 169.64 L 509.02 169.37 L 512.12 169.13 L 515.23 169.10 L 518.33 169.03 L 521.44 168.96 L 524.55 168.88 L 527.65 168.79 L 530.76 168.73 L 533.86 168.68 L 536.97 168.58 L 540.08 168.51 L 543.18 168.46 L 546.29 168.42 L 549.39 168.38 L 552.50 168.33 L 555.61 168.25 L 558.71 168.13 L 561.82 167.98 L 564.92 167.88 L 568.03 167.74 L 571.14 167.60 L 574.24 167.49 L 577.35 167.44 L 580.45 167.40 L 583.56 167.31 L 586.67 167.23 L 589.77 167.12 L 592.88 166.98 L 595.98 166.86 L 599.09 166.69 L 602.20 166.54 L 605.30 166.40 L 608.41 166.28 L 611.52 166.29 L 614.62 166.30 L 617.73 166.30 L 620.83 166.37 L 623.94 166.18 L 627.05 166.14 L 630.15 166.15 L 633.26 166.15 L 636.36 166.01 L 639.47 165.89 L 642.58 165.89 L 645.68 165.89 L 648.79 165.89 L 651.89 165.60 L 655.00 165.46 L 658.11 165.38 L 661.21 165.34 L 664.32 165.34 L 667.42 165.35 L 670.53 165.27 L 673.64 165.27 L 676.74 165.27 L 679.85 160.77 L 682.95 159.91 L 686.06 159.69 L 689.17 159.05 L 692.27 159.05 L 695.38 158.73 L 698.48 155.57 L 701.59 154.71 L 704.70 142.69 L 707.80 142.69 L 710.91 141.44 L 714.02 141.41 L 717.12 140.51 L 720.23 139.36 L 723.33 139.35 L 726.44 137.55 L 729.55 135.14 L 732.65 131.10 L 735.76 129.04 L 738.86 127.72 L 741.97 128.34 L 745.08 126.21 L 748.18 126.21 L 751.29 122.35 L 754.39 116.74 L 757.50 116.74 L 760.61 111.72 L 763.71 107.25 L 766.82 107.25 L 769.92 107.24 L 773.03 105.75 L 776.14 102.13 L 779.24 167.79 L 782.35 166.43 L 785.45 165.47 L 788.56 164.67 L 791.67 158.90 L 794.77 156.05 L 797.88 156.05 L 800.98 141.73 L 804.09 77.92 L 807.20 68.51 L 810.30 132.01 L 813.41 132.34 L 816.52 131.53 L 819.62 131.45 L 822.73 174.52 L 825.83 174.52 L 828.94 174.13 L 832.05 172.88 L 835.15 168.98 L 838.26 168.99 L 841.36 168.97 L 844.47 168.97 L 847.58 168.97 L 850.68 168.97 L 853.79 168.97 L 856.89 169.23 L 860.00 192.15" fill="none" stroke="#111827" stroke-width="2"/>
    <circle cx="860.00" cy="192.15" r="3" fill="#111827"/>
    <text x="40.00" y="235.00" font-size="9" fill="#111827" text-anchor="middle" transform="rotate(-45 40.00 235.00)">27.09.2025</text><text x="120.76" y="235.00" font-size="9" fill="#111827" text-anchor="middle" transform="rotate(-45 120.76 235.00)">28.09.2025</text><text x="201.52" y="235.00" font-size="9" fill="#111827" text-anchor="middle" transform="rotate(-45 201.52 235.00)">28.09.2025</text><text x="282.27" y="235.00" font-size="9" fill="#111827" text-anchor="middle" transform="rotate(-45 282.27 235.00)">29.09.2025</text><text x="363.03" y="235.00" font-size="9" fill="#111827" text-anchor="middle" transform="rotate(-45 363.03 235.00)">30.09.2025</text><text x="443.79" y="235.00" font-size="9" fill="#111827" text-anchor="middle" transform="rotate(-45 443.79 235.00)">04.10.2025</text><text x="524.55" y="235.00" font-size="9" fill="#111827" text-anchor="middle" transform="rotate(-45 524.55 235.00)">04.10.2025</text><text x="605.30" y="235.00" font-size="9" fill="#111827" text-anchor="middle" transform="rotate(-45 605.30 235.00)">04.10.2025</text><text x="686.06" y="235.00" font-size="9" fill="#111827" text-anchor="middle" transform="rotate(-45 686.06 235.00)">04.10.2025</text><text x="766.82" y="235.00" font-size="9" fill="#111827" text-anchor="middle" transform="rotate(-45 766.82 235.00)">04.10.2025</text><text x="847.58" y="235.00" font-size="9" fill="#111827" text-anchor="middle" transform="rotate(-45 847.58 235.00)">05.10.2025</text>
  </g>
</svg>