<svg xmlns="http://www.w3.org/2000/svg" width="900" height="290" style="font-family: -apple-system, BlinkMacSystemFont, 'Segoe UI', Helvetica, Arial, sans-serif;">
  <rect width="100%" height="100%" fill="#0d1117"/>
  <g>
    <line x1="40" y1="220.00" x2="860" y2="220.00" stroke="#30363d"/><text x="32" y="224.00" font-size="10" fill="#c9d1d9" text-anchor="end">0</text><line x1="40" y1="175.00" x2="860" y2="175.00" stroke="#30363d"/><text x="32" y="179.00" font-size="10" fill="#c9d1d9" text-anchor="end">25k</text><line x1="40" y1="130.00" x2="860" y2="130.00" stroke="#30363d"/><text x="32" y="134.00" font-size="10" fill="#c9d1d9" text-anchor="end">50k</text><line x1="40" y1="85.00" x2="860" y2="85.00" stroke="#30363d"/><text x="32" y="89.00" font-size="10" fill="#c9d1d9" text-anchor="end">75k</text><line x1="40" y1="40.00" x2="860" y2="40.00" stroke="#30363d"/><text x="32" y="44.00" font-size="10" fill="#c9d1d9" text-anchor="end">100k</text>
    <line x1="40.00" y1="40" x2="40.00" y2="220" stroke="#30363d" opacity="0.5"/><line x1="120.62" y1="40" x2="120.62" y2="220" stroke="#30363d" opacity="0.5"/><line x1="201.24" y1="40" x2="201.24" y2="220" stroke="#30363d" opacity="0.5"/><line x1="281.85" y1="40" x2="281.85" y2="220" stroke="#30363d" opacity="0.5"/><line x1="362.47" y1="40" x2="362.47" y2="220" stroke="#30363d" opacity="0.5"/><line x1="443.09" y1="40" x2="443.09" y2="220" stroke="#30363d" opacity="0.5"/><line x1="523.71" y1="40" x2="523.71" y2="220" stroke="#30363d" opacity="0.5"/><line x1="604.33" y1="40" x2="604.33" y2="220" stroke="#30363d" opacity="0.5"/><line x1="684.94" y1="40" x2="684.94" y2="220" stroke="#30363d" opacity="0.5"/><line x1="765.56" y1="40" x2="765.56" y2="220" stroke="#30363d" opacity="0.5"/><line x1="846.18" y1="40" x2="846.18" y2="220" stroke="#30363d" opacity="0.5"/>
    <line x1="40" y1="220" x2="860" y2="220" stroke="#30363d"/>
    <line x1="40" y1="40"   x2="40"   y2="220" stroke="#30363d"/>
    <path d="M 40.00 220.00 L 42.30 220.00 L 44.61 219.60 L 46.91 219.62 L 49.21 219.63 L 51.52 219.32 L 53.82 219.31 L 56.12 219.26 L 58.43 218.89 L 60.73 218.89 L 63.03 218.89 L 65.34 218.87 L 67.64 218.87 L 69.94 218.86 L 72.25 218.85 L 74.55 218.85 L 76.85 218.82 L 79.16 218.78 L 81.46 218.72 L 83.76 218.68 L 86.07 218.64 L 88.37 218.59 L 90.67 218.59 L 92.98 218.57 L 95.28 218.57 L 97.58 218.57 L 99.89 218.57 L 102.19 218.57 L 104.49 218.57 L 106.80 218.57 L 109.10 218.57 L 111.40 218.57 L 113.71 218.55 L 116.01 218.54 L 118.31 218.58 L 120.62 218.55 L 122.92 218.55 L 125.22 218.53 L 127.53 218.31 L 129.83 217.94 L 132.13 217.88 L 134.44 217.87 L 136.74 217.86 L 139.04 217.85 L 141.35 217.84 L 143.65 217.85 L 145.96 217.82 L 148.26 217.66 L 150.56 217.61 L 152.87 217.60 L 155.17 217.57 L 157.47 217.56 L 159.78 217.52 L 162.08 217.38 L 164.38 217.24 L 166.69 216.93 L 168.99 216.65 L 171.29 216.44 L 173.60 216.39 L 175.90 216.34 L 178.20 216.83 L 180.51 200.94 L 182.81 200.94 L 185.11 200.95 L 187.42 198.99 L 189.72 198.98 L 192.02 198.94 L 194.33 198.94 L 196.63 198.91 L 198.93 198.90 L 201.24 198.93 L 203.54 198.93 L 205.84 198.99 L 208.15 198.95 L 210.45 198.96 L 212.75 198.95 L 215.06 198.95 L 217.36 198.97 L 219.66 198.97 L 221.97 198.97 L 224.27 198.97 L 226.57 198.97 L 228.88 198.97 L 231.18 198.97 L 233.48 198.97 L 235.79 198.97 L 238.09 198.97 L 240.39 198.97 L 242.70 197.51 L 245.00 197.43 L 247.30 197.40 L 249.61 197.38 L 251.91 197.38 L 254.21 197.49 L 256.52 197.34 L 258.82 197.33 L 261.12 197.18 L 263.43 197.41 L 265.73 197.41 L 268.03 197.29 L 270.34 197.29 L 272.64 197.22 L 274.94 197.21 L 277.25 197.15 L 279.55 196.94 L 281.85 197.00 L 284.16 197.41 L 286.46 197.41 L 288.76 197.30 L 291.07 197.26 L 293.37 197.19 L 295.67 197.19 L 297.98 197.19 L 300.28 197.19 L 302.58 197.18 L 304.89 197.12 L 307.19 197.09 L 309.49 197.04 L 311.80 197.00 L 314.10 196.96 L 316.40 196.92 L 318.71 196.91 L 321.01 196.86 L 323.31 196.80 L 325.62 196.75 L 327.92 196.69 L 330.22 196.66 L 332.53 196.63 L 334.83 196.56 L 337.13 196.51 L 339.44 196.47 L 341.74 196.45 L 344.04 196.40 L 346.35 196.37 L 348.65 196.34 L 350.96 196.28 L 353.26 196.20 L 355.56 196.12 L 357.87 196.02 L 360.17 195.89 L 362.47 195.77 L 364.78 195.68 L 367.08 195.63 L 369.38 195.58 L 371.69 195.53 L 373.99 195.44 L 376.29 195.35 L 378.60 195.22 L 380.90 195.11 L 383.20 194.95 L 385.51 194.82 L 387.81 194.68 L 390.11 194.57 L 392.42 194.55 L 394.72 194.51 L 397.02 194.48 L 399.33 194.44 L 401.63 194.40 L 403.93 194.37 L 406.24 194.34 L 408.54 194.29 L 410.84 194.25 L 413.15 194.23 L 415.45 194.21 L 417.75 194.19 L 420.06 194.16 L 422.36 194.12 L 424.66 194.07 L 426.97 193.99 L 429.27 193.94 L 431.57 193.87 L 433.88 193.80 L 436.18 193.74 L 438.48 193.72 L 440.79 193.70 L 443.09 193.66 L 445.39 193.62 L 447.70 193.56 L 450.00 193.49 L 452.30 193.43 L 454.61 193.35 L 456.91 193.27 L 459.21 193.20 L 461.52 193.14 L 463.82 193.15 L 466.12 193.15 L 468.43 193.15 L 470.73 193.18 L 473.03 193.09 L 475.34 193.07 L 477.64 193.07 L 479.94 193.08 L 482.25 193.00 L 484.55 192.95 L 486.85 192.95 L 489.16 192.95 L 491.46 192.95 L 493.76 192.80 L 496.07 192.73 L 498.37 192.69 L 500.67 192.67 L 502.98 192.67 L 505.28 192.68 L 507.58 192.64 L 509.89 192.63 L 512.19 192.63 L 514.49 190.39 L 516.80 189.96 L 519.10 189.85 L 521.40 189.53 L 523.71 189.52 L 526.01 189.36 L 528.31 187.79 L 530.62 187.36 L 532.92 181.35 L 535.22 181.35 L 537.53 180.72 L 539.83 180.71 L 542.13 180.26 L 544.44 179.68 L 546.74 179.67 L 549.04 178.77 L 551.35 177.57 L 553.65 175.55 L 555.96 174.52 L 558.26 173.86 L 560.56 174.17 L 562.87 173.10 L 565.17 173.10 L 567.47 171.18 L 569.78 168.37 L 572.08 168.37 L 574.38 165.86 L 576.69 163.63 L 578.99 163.63 L 581.29 163.62 L 583.60 162.88 L 585.90 161.06 L 588.20 193.89 L 590.51 193.22 L 592.81 192.73 L 595.11 192.34 L 597.42 189.45 L 599.72 188.03 L 602.02 188.03 L 604.33 180.86 L 606.63 148.96 L 608.93 144.25 L 611.24 176.00 L 613.54 176.17 L 615.84 175.77 L 618.15 175.72 L 620.45 197.26 L 622.75 197.26 L 625.06 197.06 L 627.36 196.44 L 629.66 194.49 L 631.97 194.50 L 634.27 194.49 L 636.57 194.49 L 638.88 194.49 L 641.18 194.48 L 643.48 194.48 L 645.79 194.62 L 648.09 206.08 L 650.39 206.08 L 652.70 206.05 L 655.00 206.04 L 657.30 205.22 L 659.61 204.28 L 661.91 204.28 L 664.21 204.28 L 666.52 200.22 L 668.82 204.28 L 671.12 204.28 L 673.43 204.28 L 675.73 198.60 L 678.03 198.60 L 680.34 198.60 L 682.64 198.60 L 684.94 193.00 L 687.25 193.00 L 689.55 188.39 L 691.85 188.39 L 694.16 179.75 L 696.46 174.84 L 698.76 173.23 L 701.07 170.37 L 703.37 169.87 L 705.67 153.88 L 707.98 149.24 L 710.28 152.04 L 712.58 141.93 L 714.89 141.88 L 717.19 141.69 L 719.49 141.69 L 721.80 141.76 L 724.10 141.75 L 726.40 140.68 L 728.71 141.38 L 731.01 141.36 L 733.31 141.83 L 735.62 141.39 L 737.92 141.39 L 740.22 141.52 L 742.53 141.52 L 744.83 141.53 L 747.13 142.33 L 749.44 141.73 L 751.74 141.68 L 754.04 141.68 L 756.35 141.66 L 758.65 141.67 L 760.96 141.65 L 763.26 139.51 L 765.56 136.07 L 767.87 136.04 L 770.17 133.43 L 772.47 131.89 L 774.78 131.13 L 777.08 131.51 L 779.38 131.50 L 781.69 131.57 L 783.99 131.56 L 786.29 131.49 L 788.60 131.49 L 790.90 131.49 L 793.20 131.49 L 795.51 131.49 L 797.81 131.49 L 800.11 131.49 L 802.42 131.49 L 804.72 131.49 L 807.02 131.49 L 809.33 131.49 L 811.63 131.49 L 813.93 131.49 L 816.24 131.49 L 818.54 131.49 L 820.84 131.49 L 823.15 131.49 L 825.45 131.49 L 827.75 131.49 L 830.06 131.49 L 832.36 131.49 L 834.66 131.49 L 836.97 131.49 L 839.27 131.49 L 841.57 131.49 L 843.88 131.49 L 846.18 131.49 L 848.48 131.49 L 850.79 131.49 L 853.09 131.49 L 855.39 131.49 L 857.70 131.49 L 860.00 131.49" fill="none" stroke="#3fb950" stroke-width="2"/>
    <circle cx="860.00" cy="131.49" r="3" fill="#3fb950"/>
    <text x="40.00" y="235.00" font-size="9" fill="#c9d1d9" text-anchor="middle" transform="rotate(-45 40.00 235.00)">27.09.2025</text><text x="120.62" y="235.00" font-size="9" fill="#c9d1d9" text-anchor="middle" transform="rotate(-45 120.62 235.00)">28.09.2025</text><text x="201.24" y="235.00" font-size="9" fill="#c9d1d9" text-anchor="middle" transform="rotate(-45 201.24 235.00)">28.09.2025</text><text x="281.85" y="235.00" font-size="9" fill="#c9d1d9" text-anchor="middle" transform="rotate(-45 281.85 235.00)">30.09.2025</text><text x="362.47" y="235.00" font-size="9" fill="#c9d1d9" text-anchor="middle" transform="rotate(-45 362.47 235.00)">04.10.2025</text><text x="443.09" y="235.00" font-size="9" fill="#c9d1d9" text-anchor="middle" transform="rotate(-45 443.09 235.00)">04.10.2025</text><text x="523.71" y="235.00" font-size="9" fill="#c9d1d9" text-anchor="middle" transform="rotate(-45 523.71 235.00)">04.10.2025</text><text x="604.33" y="235.00" font-size="9" fill="#c9d1d9" text-anchor="middle" transform="rotate(-45 604.33 235.00)">05.10.2025</text><text x="684.94" y="235.00" font-size="9" fill="#c9d1d9" text-anchor="middle" transform="rotate(-45 684.94 235.00)">07.10.2025</text><text x="765.56" y="235.00" font-size="9" fill="#c9d1d9" text-anchor="middle" transform="rotate(-45 765.56 235.00)">09.10.2025</text><text x="846.18" y="235.00" font-size="9" fill="#c9d1d9" text-anchor="middle" transform="rotate(-45 846.18 235.00)">04.11.2025</text>
  </g>
</svg>