<svg xmlns="http://www.w3.org/2000/svg" width="900" height="290" style="font-family: -apple-system, BlinkMacSystemFont, 'Segoe UI', Helvetica, Arial, sans-serif;">
  <rect width="100%" height="100%" fill="white"/>
  <g>
    <line x1="40" y1="220.00" x2="860" y2="220.00" stroke="#e5e7eb"/><text x="32" y="224.00" font-size="10" fill="#111827" text-anchor="end">0</text><line x1="40" y1="175.00" x2="860" y2="175.00" stroke="#e5e7eb"/><text x="32" y="179.00" font-size="10" fill="#111827" text-anchor="end">25k</text><line x1="40" y1="130.00" x2="860" y2="130.00" stroke="#e5e7eb"/><text x="32" y="134.00" font-size="10" fill="#111827" text-anchor="end">50k</text><line x1="40" y1="85.00" x2="860" y2="85.00" stroke="#e5e7eb"/><text x="32" y="89.00" font-size="10" fill="#111827" text-anchor="end">75k</text><line x1="40" y1="40.00" x2="860" y2="40.00" stroke="#e5e7eb"/><text x="32" y="44.00" font-size="10" fill="#111827" text-anchor="end">100k</text>
    <line x1="40.00" y1="40" x2="40.00" y2="220" stroke="#e5e7eb" opacity="0.5"/><line x1="121.57" y1="40" x2="121.57" y2="220" stroke="#e5e7eb" opacity="0.5"/><line x1="203.14" y1="40" x2="203.14" y2="220" stroke="#e5e7eb" opacity="0.5"/><line x1="284.71" y1="40" x2="284.71" y2="220" stroke="#e5e7eb" opacity="0.5"/><line x1="366.28" y1="40" x2="366.28" y2="220" stroke="#e5e7eb" opacity="0.5"/><line x1="447.85" y1="40" x2="447.85" y2="220" stroke="#e5e7eb" opacity="0.5"/><line x1="529.42" y1="40" x2="529.42" y2="220" stroke="#e5e7eb" opacity="0.5"/><line x1="610.99" y1="40" x2="610.99" y2="220" stroke="#e5e7eb" opacity="0.5"/><line x1="692.57" y1="40" x2="692.57" y2="220" stroke="#e5e7eb" opacity="0.5"/><line x1="774.14" y1="40" x2="774.14" y2="220" stroke="#e5e7eb" opacity="0.5"/><line x1="855.71" y1="40" x2="855.71" y2="220" stroke="#e5e7eb" opacity="0.5"/>
    <line x1="40" y1="220" x2="860" y2="220" stroke="#9ca3af"/>
    <line x1="40" y1="40"   x2="40"   y2="220" stroke="#9ca3af"/>
    <path d="M 40.00 220.00 L 42.15 220.00 L 44.29 219.60 L 46.44 219.62 L 48.59 219.63 L 50.73 219.32 L 52.88 219.31 L 55.03 219.26 L 57.17 218.89 L 59.32 218.89 L 61.47 218.89 L 63.61 218.87 L 65.76 218.87 L 67.91 218.86 L 70.05 218.85 L 72.20 218.85 L 74.35 218.82 L 76.49 218.78 L 78.64 218.72 L 80.79 218.68 L 82.93 218.64 L 85.08 218.59 L 87.23 218.59 L 89.37 218.57 L 91.52 218.57 L 93.66 218.57 L 95.81 218.57 L 97.96 218.57 L 100.10 218.57 L 102.25 218.57 L 104.40 218.57 L 106.54 218.57 L 108.69 218.55 L 110.84 218.54 L 112.98 218.58 L 115.13 218.55 L 117.28 218.55 L 119.42 218.53 L 121.57 218.31 L 123.72 217.94 L 125.86 217.88 L 128.01 217.87 L 130.16 217.86 L 132.30 217.85 L 134.45 217.84 L 136.60 217.85 L 138.74 217.82 L 140.89 217.66 L 143.04 217.61 L 145.18 217.60 L 147.33 217.57 L 149.48 217.56 L 151.62 217.52 L 153.77 217.38 L 155.92 217.24 L 158.06 216.93 L 160.21 216.65 L 162.36 216.44 L 164.50 216.39 L 166.65 216.34 L 168.80 216.83 L 170.94 200.94 L 173.09 200.94 L 175.24 200.95 L 177.38 198.99 L 179.53 198.98 L 181.68 198.94 L 183.82 198.94 L 185.97 198.91 L 188.12 198.90 L 190.26 198.93 L 192.41 198.93 L 194.55 198.99 L 196.70 198.95 L 198.85 198.96 L 200.99 198.95 L 203.14 198.95 L 205.29 198.97 L 207.43 198.97 L 209.58 198.97 L 211.73 198.97 L 213.87 198.97 L 216.02 198.97 L 218.17 198.97 L 220.31 198.97 L 222.46 198.97 L 224.61 198.97 L 226.75 198.97 L 228.90 197.51 L 231.05 197.43 L 233.19 197.40 L 235.34 197.38 L 237.49 197.38 L 239.63 197.49 L 241.78 197.34 L 243.93 197.33 L 246.07 197.18 L 248.22 197.41 L 250.37 197.41 L 252.51 197.29 L 254.66 197.29 L 256.81 197.22 L 258.95 197.21 L 261.10 197.15 L 263.25 196.94 L 265.39 197.00 L 267.54 197.41 L 269.69 197.41 L 271.83 197.30 L 273.98 197.26 L 276.13 197.19 L 278.27 197.19 L 280.42 197.19 L 282.57 197.19 L 284.71 197.18 L 286.86 197.12 L 289.01 197.09 L 291.15 197.04 L 293.30 197.00 L 295.45 196.96 L 297.59 196.92 L 299.74 196.91 L 301.88 196.86 L 304.03 196.80 L 306.18 196.75 L 308.32 196.69 L 310.47 196.66 L 312.62 196.63 L 314.76 196.56 L 316.91 196.51 L 319.06 196.47 L 321.20 196.45 L 323.35 196.40 L 325.50 196.37 L 327.64 196.34 L 329.79 196.28 L 331.94 196.20 L 334.08 196.12 L 336.23 196.02 L 338.38 195.89 L 340.52 195.77 L 342.67 195.68 L 344.82 195.63 L 346.96 195.58 L 349.11 195.53 L 351.26 195.44 L 353.40 195.35 L 355.55 195.22 L 357.70 195.11 L 359.84 194.95 L 361.99 194.82 L 364.14 194.68 L 366.28 194.57 L 368.43 194.55 L 370.58 194.51 L 372.72 194.48 L 374.87 194.44 L 377.02 194.40 L 379.16 194.37 L 381.31 194.34 L 383.46 194.29 L 385.60 194.25 L 387.75 194.23 L 389.90 194.21 L 392.04 194.19 L 394.19 194.16 L 396.34 194.12 L 398.48 194.07 L 400.63 193.99 L 402.77 193.94 L 404.92 193.87 L 407.07 193.80 L 409.21 193.74 L 411.36 193.72 L 413.51 193.70 L 415.65 193.66 L 417.80 193.62 L 419.95 193.56 L 422.09 193.49 L 424.24 193.43 L 426.39 193.35 L 428.53 193.27 L 430.68 193.20 L 432.83 193.14 L 434.97 193.15 L 437.12 193.15 L 439.27 193.15 L 441.41 193.18 L 443.56 193.09 L 445.71 193.07 L 447.85 193.07 L 450.00 193.08 L 452.15 193.00 L 454.29 192.95 L 456.44 192.95 L 458.59 192.95 L 460.73 192.95 L 462.88 192.80 L 465.03 192.73 L 467.17 192.69 L 469.32 192.67 L 471.47 192.67 L 473.61 192.68 L 475.76 192.64 L 477.91 192.63 L 480.05 192.63 L 482.20 190.39 L 484.35 189.96 L 486.49 189.85 L 488.64 189.53 L 490.79 189.52 L 492.93 189.36 L 495.08 187.79 L 497.23 187.36 L 499.37 181.35 L 501.52 181.35 L 503.66 180.72 L 505.81 180.71 L 507.96 180.26 L 510.10 179.68 L 512.25 179.67 L 514.40 178.77 L 516.54 177.57 L 518.69 175.55 L 520.84 174.52 L 522.98 173.86 L 525.13 174.17 L 527.28 173.10 L 529.42 173.10 L 531.57 171.18 L 533.72 168.37 L 535.86 168.37 L 538.01 165.86 L 540.16 163.63 L 542.30 163.63 L 544.45 163.62 L 546.60 162.88 L 548.74 161.06 L 550.89 193.89 L 553.04 193.22 L 555.18 192.73 L 557.33 192.34 L 559.48 189.45 L 561.62 188.03 L 563.77 188.03 L 565.92 180.86 L 568.06 148.96 L 570.21 144.25 L 572.36 176.00 L 574.50 176.17 L 576.65 175.77 L 578.80 175.72 L 580.94 197.26 L 583.09 197.26 L 585.24 197.06 L 587.38 196.44 L 589.53 194.49 L 591.68 194.50 L 593.82 194.49 L 595.97 194.49 L 598.12 194.49 L 600.26 194.48 L 602.41 194.48 L 604.55 194.62 L 606.70 206.08 L 608.85 206.08 L 610.99 206.05 L 613.14 206.04 L 615.29 205.22 L 617.43 204.28 L 619.58 204.28 L 621.73 204.28 L 623.87 200.22 L 626.02 204.28 L 628.17 204.28 L 630.31 204.28 L 632.46 198.60 L 634.61 198.60 L 636.75 198.60 L 638.90 198.60 L 641.05 193.00 L 643.19 193.00 L 645.34 188.39 L 647.49 188.39 L 649.63 179.75 L 651.78 174.84 L 653.93 173.23 L 656.07 170.37 L 658.22 169.87 L 660.37 153.88 L 662.51 149.24 L 664.66 152.04 L 666.81 141.93 L 668.95 141.88 L 671.10 141.69 L 673.25 141.69 L 675.39 141.76 L 677.54 141.75 L 679.69 140.68 L 681.83 141.38 L 683.98 141.36 L 686.13 141.83 L 688.27 141.39 L 690.42 141.39 L 692.57 141.52 L 694.71 141.52 L 696.86 141.53 L 699.01 142.33 L 701.15 141.73 L 703.30 141.68 L 705.45 141.68 L 707.59 141.66 L 709.74 141.67 L 711.88 141.65 L 714.03 139.51 L 716.18 136.07 L 718.32 136.04 L 720.47 133.43 L 722.62 131.89 L 724.76 131.13 L 726.91 131.51 L 729.06 131.50 L 731.20 131.57 L 733.35 131.56 L 735.50 131.49 L 737.64 131.49 L 739.79 131.49 L 741.94 131.49 L 744.08 131.49 L 746.23 131.49 L 748.38 131.49 L 750.52 131.49 L 752.67 131.49 L 754.82 131.49 L 756.96 131.49 L 759.11 131.49 L 761.26 131.49 L 763.40 131.49 L 765.55 131.49 L 767.70 131.49 L 769.84 131.49 L 771.99 131.49 L 774.14 131.49 L 776.28 131.49 L 778.43 131.49 L 780.58 131.49 L 782.72 131.49 L 784.87 131.49 L 787.02 131.49 L 789.16 131.49 L 791.31 131.49 L 793.46 131.49 L 795.60 131.49 L 797.75 131.49 L 799.90 131.49 L 802.04 131.49 L 804.19 131.49 L 806.34 131.49 L 808.48 131.49 L 810.63 131.49 L 812.77 131.49 L 814.92 131.49 L 817.07 131.49 L 819.21 131.49 L 821.36 131.49 L 823.51 131.49 L 825.65 131.49 L 827.80 131.49 L 829.95 131.49 L 832.09 131.49 L 834.24 131.49 L 836.39 131.49 L 838.53 131.49 L 840.68 131.49 L 842.83 131.49 L 844.97 131.49 L 847.12 131.49 L 849.27 131.49 L 851.41 131.49 L 853.56 131.49 L 855.71 131.49 L 857.85 131.49 L 860.00 131.49" fill="none" stroke="#111827" stroke-width="2"/>
    <circle cx="860.00" cy="131.49" r="3" fill="#111827"/>
    <text x="40.00" y="235.00" font-size="9" fill="#111827" text-anchor="middle" transform="rotate(-45 40.00 235.00)">27.09.2025</text><text x="121.57" y="235.00" font-size="9" fill="#111827" text-anchor="middle" transform="rotate(-45 121.57 235.00)">28.09.2025</text><text x="203.14" y="235.00" font-size="9" fill="#111827" text-anchor="middle" transform="rotate(-45 203.14 235.00)">29.09.2025</text><text x="284.71" y="235.00" font-size="9" fill="#111827" text-anchor="middle" transform="rotate(-45 284.71 235.00)">04.10.2025</text><text x="366.28" y="235.00" font-size="9" fill="#111827" text-anchor="middle" transform="rotate(-45 366.28 235.00)">04.10.2025</text><text x="447.85" y="235.00" font-size="9" fill="#111827" text-anchor="middle" transform="rotate(-45 447.85 235.00)">04.10.2025</text><text x="529.42" y="235.00" font-size="9" fill="#111827" text-anchor="middle" transform="rotate(-45 529.42 235.00)">04.10.2025</text><text x="610.99" y="235.00" font-size="9" fill="#111827" text-anchor="middle" transform="rotate(-45 610.99 235.00)">05.10.2025</text><text x="692.57" y="235.00" font-size="9" fill="#111827" text-anchor="middle" transform="rotate(-45 692.57 235.00)">09.10.2025</text><text x="774.14" y="235.00" font-size="9" fill="#111827" text-anchor="middle" transform="rotate(-45 774.14 235.00)">27.10.2025</text><text x="855.71" y="235.00" font-size="9" fill="#111827" text-anchor="middle" transform="rotate(-45 855.71 235.00)">04.12.2025</text>
  </g>
</svg>