<svg xmlns="http://www.w3.org/2000/svg" width="900" height="290" style="font-family: -apple-system, BlinkMacSystemFont, 'Segoe UI', Helvetica, Arial, sans-serif;">
  <rect width="100%" height="100%" fill="#0d1117"/>
  <g>
    <line x1="40" y1="220.00" x2="860" y2="220.00" stroke="#30363d"/><text x="32" y="224.00" font-size="10" fill="#c9d1d9" text-anchor="end">0</text><line x1="40" y1="175.00" x2="860" y2="175.00" stroke="#30363d"/><text x="32" y="179.00" font-size="10" fill="#c9d1d9" text-anchor="end">25k</text><line x1="40" y1="130.00" x2="860" y2="130.00" stroke="#30363d"/><text x="32" y="134.00" font-size="10" fill="#c9d1d9" text-anchor="end">50k</text><line x1="40" y1="85.00" x2="860" y2="85.00" stroke="#30363d"/><text x="32" y="89.00" font-size="10" fill="#c9d1d9" text-anchor="end">75k</text><line x1="40" y1="40.00" x2="860" y2="40.00" stroke="#30363d"/><text x="32" y="44.00" font-size="10" fill="#c9d1d9" text-anchor="end">100k</text>
    <line x1="40.00" y1="40" x2="40.00" y2="220" stroke="#30363d" opacity="0.5"/><line x1="122.25" y1="40" x2="122.25" y2="220" stroke="#30363d" opacity="0.5"/><line x1="204.50" y1="40" x2="204.50" y2="220" stroke="#30363d" opacity="0.5"/><line x1="286.75" y1="40" x2="286.75" y2="220" stroke="#30363d" opacity="0.5"/><line x1="369.00" y1="40" x2="369.00" y2="220" stroke="#30363d" opacity="0.5"/><line x1="451.25" y1="40" x2="451.25" y2="220" stroke="#30363d" opacity="0.5"/><line x1="533.50" y1="40" x2="533.50" y2="220" stroke="#30363d" opacity="0.5"/><line x1="615.74" y1="40" x2="615.74" y2="220" stroke="#30363d" opacity="0.5"/><line x1="697.99" y1="40" x2="697.99" y2="220" stroke="#30363d" opacity="0.5"/><line x1="780.24" y1="40" x2="780.24" y2="220" stroke="#30363d" opacity="0.5"/>
    <line x1="40" y1="220" x2="860" y2="220" stroke="#30363d"/>
    <line x1="40" y1="40"   x2="40"   y2="220" stroke="#30363d"/>
    <path d="M 40.00 220.00 L 42.49 220.00 L 44.98 219.60 L 47.48 219.62 L 49.97 219.63 L 52.46 219.32 L 54.95 219.31 L 57.45 219.26 L 59.94 218.89 L 62.43 218.89 L 64.92 218.89 L 67.42 218.87 L 69.91 218.87 L 72.40 218.86 L 74.89 218.85 L 77.39 218.85 L 79.88 218.82 L 82.37 218.78 L 84.86 218.72 L 87.36 218.68 L 89.85 218.64 L 92.34 218.59 L 94.83 218.59 L 97.33 218.57 L 99.82 218.57 L 102.31 218.57 L 104.80 218.57 L 107.29 218.57 L 109.79 218.57 L 112.28 218.57 L 114.77 218.57 L 117.26 218.57 L 119.76 218.55 L 122.25 218.54 L 124.74 218.58 L 127.23 218.55 L 129.73 218.55 L 132.22 218.53 L 134.71 218.31 L 137.20 217.94 L 139.70 217.88 L 142.19 217.87 L 144.68 217.86 L 147.17 217.85 L 149.67 217.84 L 152.16 217.85 L 154.65 217.82 L 157.14 217.66 L 159.64 217.61 L 162.13 217.60 L 164.62 217.57 L 167.11 217.56 L 169.60 217.52 L 172.10 217.38 L 174.59 217.24 L 177.08 216.93 L 179.57 216.65 L 182.07 216.44 L 184.56 216.39 L 187.05 216.34 L 189.54 216.83 L 192.04 200.94 L 194.53 200.94 L 197.02 200.95 L 199.51 198.99 L 202.01 198.98 L 204.50 198.94 L 206.99 198.94 L 209.48 198.91 L 211.98 198.90 L 214.47 198.93 L 216.96 198.93 L 219.45 198.99 L 221.95 198.95 L 224.44 198.96 L 226.93 198.95 L 229.42 198.95 L 231.91 198.97 L 234.41 198.97 L 236.90 198.97 L 239.39 198.97 L 241.88 198.97 L 244.38 198.97 L 246.87 198.97 L 249.36 198.97 L 251.85 198.97 L 254.35 198.97 L 256.84 198.97 L 259.33 197.51 L 261.82 197.43 L 264.32 197.40 L 266.81 197.38 L 269.30 197.38 L 271.79 197.49 L 274.29 197.34 L 276.78 197.33 L 279.27 197.18 L 281.76 197.41 L 284.26 197.41 L 286.75 197.29 L 289.24 197.29 L 291.73 197.22 L 294.22 197.21 L 296.72 197.15 L 299.21 196.94 L 301.70 197.00 L 304.19 197.41 L 306.69 197.41 L 309.18 197.30 L 311.67 197.26 L 314.16 197.19 L 316.66 197.19 L 319.15 197.19 L 321.64 197.19 L 324.13 197.18 L 326.63 197.12 L 329.12 197.09 L 331.61 197.04 L 334.10 197.00 L 336.60 196.96 L 339.09 196.92 L 341.58 196.91 L 344.07 196.86 L 346.57 196.80 L 349.06 196.75 L 351.55 196.69 L 354.04 196.66 L 356.53 196.63 L 359.03 196.56 L 361.52 196.51 L 364.01 196.47 L 366.50 196.45 L 369.00 196.40 L 371.49 196.37 L 373.98 196.34 L 376.47 196.28 L 378.97 196.20 L 381.46 196.12 L 383.95 196.02 L 386.44 195.89 L 388.94 195.77 L 391.43 195.68 L 393.92 195.63 L 396.41 195.58 L 398.91 195.53 L 401.40 195.44 L 403.89 195.35 L 406.38 195.22 L 408.88 195.11 L 411.37 194.95 L 413.86 194.82 L 416.35 194.68 L 418.84 194.57 L 421.34 194.55 L 423.83 194.51 L 426.32 194.48 L 428.81 194.44 L 431.31 194.40 L 433.80 194.37 L 436.29 194.34 L 438.78 194.29 L 441.28 194.25 L 443.77 194.23 L 446.26 194.21 L 448.75 194.19 L 451.25 194.16 L 453.74 194.12 L 456.23 194.07 L 458.72 193.99 L 461.22 193.94 L 463.71 193.87 L 466.20 193.80 L 468.69 193.74 L 471.19 193.72 L 473.68 193.70 L 476.17 193.66 L 478.66 193.62 L 481.16 193.56 L 483.65 193.49 L 486.14 193.43 L 488.63 193.35 L 491.12 193.27 L 493.62 193.20 L 496.11 193.14 L 498.60 193.15 L 501.09 193.15 L 503.59 193.15 L 506.08 193.18 L 508.57 193.09 L 511.06 193.07 L 513.56 193.07 L 516.05 193.08 L 518.54 193.00 L 521.03 192.95 L 523.53 192.95 L 526.02 192.95 L 528.51 192.95 L 531.00 192.80 L 533.50 192.73 L 535.99 192.69 L 538.48 192.67 L 540.97 192.67 L 543.47 192.68 L 545.96 192.64 L 548.45 192.63 L 550.94 192.63 L 553.43 190.39 L 555.93 189.96 L 558.42 189.85 L 560.91 189.53 L 563.40 189.52 L 565.90 189.36 L 568.39 187.79 L 570.88 187.36 L 573.37 181.35 L 575.87 181.35 L 578.36 180.72 L 580.85 180.71 L 583.34 180.26 L 585.84 179.68 L 588.33 179.67 L 590.82 178.77 L 593.31 177.57 L 595.81 175.55 L 598.30 174.52 L 600.79 173.86 L 603.28 174.17 L 605.78 173.10 L 608.27 173.10 L 610.76 171.18 L 613.25 168.37 L 615.74 168.37 L 618.24 165.86 L 620.73 163.63 L 623.22 163.63 L 625.71 163.62 L 628.21 162.88 L 630.70 161.06 L 633.19 193.89 L 635.68 193.22 L 638.18 192.73 L 640.67 192.34 L 643.16 189.45 L 645.65 188.03 L 648.15 188.03 L 650.64 180.86 L 653.13 148.96 L 655.62 144.25 L 658.12 176.00 L 660.61 176.17 L 663.10 175.77 L 665.59 175.72 L 668.09 197.26 L 670.58 197.26 L 673.07 197.06 L 675.56 196.44 L 678.05 194.49 L 680.55 194.50 L 683.04 194.49 L 685.53 194.49 L 688.02 194.49 L 690.52 194.48 L 693.01 194.48 L 695.50 194.62 L 697.99 206.08 L 700.49 206.08 L 702.98 206.05 L 705.47 206.04 L 707.96 205.22 L 710.46 204.28 L 712.95 204.28 L 715.44 204.28 L 717.93 200.22 L 720.43 204.28 L 722.92 204.28 L 725.41 204.28 L 727.90 198.60 L 730.40 198.60 L 732.89 198.60 L 735.38 198.60 L 737.87 193.00 L 740.36 193.00 L 742.86 188.39 L 745.35 188.39 L 747.84 179.75 L 750.33 174.84 L 752.83 173.23 L 755.32 170.37 L 757.81 169.87 L 760.30 153.88 L 762.80 149.24 L 765.29 152.04 L 767.78 141.93 L 770.27 141.88 L 772.77 141.69 L 775.26 141.69 L 777.75 141.76 L 780.24 141.75 L 782.74 140.68 L 785.23 141.38 L 787.72 141.36 L 790.21 141.83 L 792.71 141.39 L 795.20 141.39 L 797.69 141.52 L 800.18 141.52 L 802.67 141.53 L 805.17 142.33 L 807.66 141.73 L 810.15 141.68 L 812.64 141.68 L 815.14 141.66 L 817.63 141.67 L 820.12 141.65 L 822.61 139.51 L 825.11 136.07 L 827.60 136.04 L 830.09 133.43 L 832.58 131.89 L 835.08 131.13 L 837.57 131.51 L 840.06 131.50 L 842.55 131.57 L 845.05 131.56 L 847.54 131.49 L 850.03 131.49 L 852.52 131.49 L 855.02 131.49 L 857.51 131.49 L 860.00 131.49" fill="none" stroke="#3fb950" stroke-width="2"/>
    <circle cx="860.00" cy="131.49" r="3" fill="#3fb950"/>
    <text x="40.00" y="235.00" font-size="9" fill="#c9d1d9" text-anchor="middle" transform="rotate(-45 40.00 235.00)">27.09.2025</text><text x="122.25" y="235.00" font-size="9" fill="#c9d1d9" text-anchor="middle" transform="rotate(-45 122.25 235.00)">28.09.2025</text><text x="204.50" y="235.00" font-size="9" fill="#c9d1d9" text-anchor="middle" transform="rotate(-45 204.50 235.00)">28.09.2025</text><text x="286.75" y="235.00" font-size="9" fill="#c9d1d9" text-anchor="middle" transform="rotate(-45 286.75 235.00)">30.09.2025</text><text x="369.00" y="235.00" font-size="9" fill="#c9d1d9" text-anchor="middle" transform="rotate(-45 369.00 235.00)">04.10.2025</text><text x="451.25" y="235.00" font-size="9" fill="#c9d1d9" text-anchor="middle" transform="rotate(-45 451.25 235.00)">04.10.2025</text><text x="533.50" y="235.00" font-size="9" fill="#c9d1d9" text-anchor="middle" transform="rotate(-45 533.50 235.00)">04.10.2025</text><text x="615.74" y="235.00" font-size="9" fill="#c9d1d9" text-anchor="middle" transform="rotate(-45 615.74 235.00)">04.10.2025</text><text x="697.99" y="235.00" font-size="9" fill="#c9d1d9" text-anchor="middle" transform="rotate(-45 697.99 235.00)">05.10.2025</text><text x="780.24" y="235.00" font-size="9" fill="#c9d1d9" text-anchor="middle" transform="rotate(-45 780.24 235.00)">08.10.2025</text>
  </g>
</svg>