<svg xmlns="http://www.w3.org/2000/svg" width="900" height="290" style="font-family: -apple-system, BlinkMacSystemFont, 'Segoe UI', Helvetica, Arial, sans-serif;">
  <rect width="100%" height="100%" fill="white"/>
  <g>
    <line x1="40" y1="220.00" x2="860" y2="220.00" stroke="#e5e7eb"/><text x="32" y="224.00" font-size="10" fill="#111827" text-anchor="end">0</text><line x1="40" y1="175.00" x2="860" y2="175.00" stroke="#e5e7eb"/><text x="32" y="179.00" font-size="10" fill="#111827" text-anchor="end">25k</text><line x1="40" y1="130.00" x2="860" y2="130.00" stroke="#e5e7eb"/><text x="32" y="134.00" font-size="10" fill="#111827" text-anchor="end">50k</text><line x1="40" y1="85.00" x2="860" y2="85.00" stroke="#e5e7eb"/><text x="32" y="89.00" font-size="10" fill="#111827" text-anchor="end">75k</text><line x1="40" y1="40.00" x2="860" y2="40.00" stroke="#e5e7eb"/><text x="32" y="44.00" font-size="10" fill="#111827" text-anchor="end">100k</text>
    <line x1="40.00" y1="40" x2="40.00" y2="220" stroke="#e5e7eb" opacity="0.5"/><line x1="121.65" y1="40" x2="121.65" y2="220" stroke="#e5e7eb" opacity="0.5"/><line x1="203.29" y1="40" x2="203.29" y2="220" stroke="#e5e7eb" opacity="0.5"/><line x1="284.94" y1="40" x2="284.94" y2="220" stroke="#e5e7eb" opacity="0.5"/><line x1="366.58" y1="40" x2="366.58" y2="220" stroke="#e5e7eb" opacity="0.5"/><line x1="448.23" y1="40" x2="448.23" y2="220" stroke="#e5e7eb" opacity="0.5"/><line x1="529.87" y1="40" x2="529.87" y2="220" stroke="#e5e7eb" opacity="0.5"/><line x1="611.52" y1="40" x2="611.52" y2="220" stroke="#e5e7eb" opacity="0.5"/><line x1="693.16" y1="40" x2="693.16" y2="220" stroke="#e5e7eb" opacity="0.5"/><line x1="774.81" y1="40" x2="774.81" y2="220" stroke="#e5e7eb" opacity="0.5"/><line x1="856.45" y1="40" x2="856.45" y2="220" stroke="#e5e7eb" opacity="0.5"/>
    <line x1="40" y1="220" x2="860" y2="220" stroke="#9ca3af"/>
    <line x1="40" y1="40"   x2="40"   y2="220" stroke="#9ca3af"/>
    <path d="M 40.00 220.00 L 41.77 220.00 L 43.55 219.60 L 45.32 219.62 L 47.10 219.63 L 48.87 219.32 L 50.65 219.31 L 52.42 219.26 L 54.20 218.89 L 55.97 218.89 L 57.75 218.89 L 59.52 218.87 L 61.30 218.87 L 63.07 218.86 L 64.85 218.85 L 66.62 218.85 L 68.40 218.82 L 70.17 218.78 L 71.95 218.72 L 73.72 218.68 L 75.50 218.64 L 77.27 218.59 L 79.05 218.59 L 80.82 218.57 L 82.60 218.57 L 84.37 218.57 L 86.15 218.57 L 87.92 218.57 L 89.70 218.57 L 91.47 218.57 L 93.25 218.57 L 95.02 218.57 L 96.80 218.55 L 98.57 218.54 L 100.35 218.58 L 102.12 218.55 L 103.90 218.55 L 105.67 218.53 L 107.45 218.31 L 109.22 217.94 L 111.00 217.88 L 112.77 217.87 L 114.55 217.86 L 116.32 217.85 L 118.10 217.84 L 119.87 217.85 L 121.65 217.82 L 123.42 217.66 L 125.19 217.61 L 126.97 217.60 L 128.74 217.57 L 130.52 217.56 L 132.29 217.52 L 134.07 217.38 L 135.84 217.24 L 137.62 216.93 L 139.39 216.65 L 141.17 216.44 L 142.94 216.39 L 144.72 216.34 L 146.49 216.83 L 148.27 200.94 L 150.04 200.94 L 151.82 200.95 L 153.59 198.99 L 155.37 198.98 L 157.14 198.94 L 158.92 198.94 L 160.69 198.91 L 162.47 198.90 L 164.24 198.93 L 166.02 198.93 L 167.79 198.99 L 169.57 198.95 L 171.34 198.96 L 173.12 198.95 L 174.89 198.95 L 176.67 198.97 L 178.44 198.97 L 180.22 198.97 L 181.99 198.97 L 183.77 198.97 L 185.54 198.97 L 187.32 198.97 L 189.09 198.97 L 190.87 198.97 L 192.64 198.97 L 194.42 198.97 L 196.19 197.51 L 197.97 197.43 L 199.74 197.40 L 201.52 197.38 L 203.29 197.38 L 205.06 197.49 L 206.84 197.34 L 208.61 197.33 L 210.39 197.18 L 212.16 197.41 L 213.94 197.41 L 215.71 197.29 L 217.49 197.29 L 219.26 197.22 L 221.04 197.21 L 222.81 197.15 L 224.59 196.94 L 226.36 197.00 L 228.14 197.41 L 229.91 197.41 L 231.69 197.30 L 233.46 197.26 L 235.24 197.19 L 237.01 197.19 L 238.79 197.19 L 240.56 197.19 L 242.34 197.18 L 244.11 197.12 L 245.89 197.09 L 247.66 197.04 L 249.44 197.00 L 251.21 196.96 L 252.99 196.92 L 254.76 196.91 L 256.54 196.86 L 258.31 196.80 L 260.09 196.75 L 261.86 196.69 L 263.64 196.66 L 265.41 196.63 L 267.19 196.56 L 268.96 196.51 L 270.74 196.47 L 272.51 196.45 L 274.29 196.40 L 276.06 196.37 L 277.84 196.34 L 279.61 196.28 L 281.39 196.20 L 283.16 196.12 L 284.94 196.02 L 286.71 195.89 L 288.48 195.77 L 290.26 195.68 L 292.03 195.63 L 293.81 195.58 L 295.58 195.53 L 297.36 195.44 L 299.13 195.35 L 300.91 195.22 L 302.68 195.11 L 304.46 194.95 L 306.23 194.82 L 308.01 194.68 L 309.78 194.57 L 311.56 194.55 L 313.33 194.51 L 315.11 194.48 L 316.88 194.44 L 318.66 194.40 L 320.43 194.37 L 322.21 194.34 L 323.98 194.29 L 325.76 194.25 L 327.53 194.23 L 329.31 194.21 L 331.08 194.19 L 332.86 194.16 L 334.63 194.12 L 336.41 194.07 L 338.18 193.99 L 339.96 193.94 L 341.73 193.87 L 343.51 193.80 L 345.28 193.74 L 347.06 193.72 L 348.83 193.70 L 350.61 193.66 L 352.38 193.62 L 354.16 193.56 L 355.93 193.49 L 357.71 193.43 L 359.48 193.35 L 361.26 193.27 L 363.03 193.20 L 364.81 193.14 L 366.58 193.15 L 368.35 193.15 L 370.13 193.15 L 371.90 193.18 L 373.68 193.09 L 375.45 193.07 L 377.23 193.07 L 379.00 193.08 L 380.78 193.00 L 382.55 192.95 L 384.33 192.95 L 386.10 192.95 L 387.88 192.95 L 389.65 192.80 L 391.43 192.73 L 393.20 192.69 L 394.98 192.67 L 396.75 192.67 L 398.53 192.68 L 400.30 192.64 L 402.08 192.63 L 403.85 192.63 L 405.63 190.39 L 407.40 189.96 L 409.18 189.85 L 410.95 189.53 L 412.73 189.52 L 414.50 189.36 L 416.28 187.79 L 418.05 187.36 L 419.83 181.35 L 421.60 181.35 L 423.38 180.72 L 425.15 180.71 L 426.93 180.26 L 428.70 179.68 L 430.48 179.67 L 432.25 178.77 L 434.03 177.57 L 435.80 175.55 L 437.58 174.52 L 439.35 173.86 L 441.13 174.17 L 442.90 173.10 L 444.68 173.10 L 446.45 171.18 L 448.23 168.37 L 450.00 168.37 L 451.77 165.86 L 453.55 163.63 L 455.32 163.63 L 457.10 163.62 L 458.87 162.88 L 460.65 161.06 L 462.42 193.89 L 464.20 193.22 L 465.97 192.73 L 467.75 192.34 L 469.52 189.45 L 471.30 188.03 L 473.07 188.03 L 474.85 180.86 L 476.62 148.96 L 478.40 144.25 L 480.17 176.00 L 481.95 176.17 L 483.72 175.77 L 485.50 175.72 L 487.27 197.26 L 489.05 197.26 L 490.82 197.06 L 492.60 196.44 L 494.37 194.49 L 496.15 194.50 L 497.92 194.49 L 499.70 194.49 L 501.47 194.49 L 503.25 194.48 L 505.02 194.48 L 506.80 194.62 L 508.57 206.08 L 510.35 206.08 L 512.12 206.05 L 513.90 206.04 L 515.67 205.22 L 517.45 204.28 L 519.22 204.28 L 521.00 204.28 L 522.77 200.22 L 524.55 204.28 L 526.32 204.28 L 528.10 204.28 L 529.87 198.60 L 531.65 198.60 L 533.42 198.60 L 535.19 198.60 L 536.97 193.00 L 538.74 193.00 L 540.52 188.39 L 542.29 188.39 L 544.07 179.75 L 545.84 174.84 L 547.62 173.23 L 549.39 170.37 L 551.17 169.87 L 552.94 153.88 L 554.72 149.24 L 556.49 152.04 L 558.27 141.93 L 560.04 141.88 L 561.82 141.69 L 563.59 141.69 L 565.37 141.76 L 567.14 141.75 L 568.92 140.68 L 570.69 141.38 L 572.47 141.36 L 574.24 141.83 L 576.02 141.39 L 577.79 141.39 L 579.57 141.52 L 581.34 141.52 L 583.12 141.53 L 584.89 142.33 L 586.67 141.73 L 588.44 141.68 L 590.22 141.68 L 591.99 141.66 L 593.77 141.67 L 595.54 141.65 L 597.32 139.51 L 599.09 136.07 L 600.87 136.04 L 602.64 133.43 L 604.42 131.89 L 606.19 131.13 L 607.97 131.51 L 609.74 131.50 L 611.52 131.57 L 613.29 131.56 L 615.06 131.49 L 616.84 131.49 L 618.61 131.49 L 620.39 131.49 L 622.16 131.49 L 623.94 131.49 L 625.71 131.49 L 627.49 131.49 L 629.26 131.49 L 631.04 131.49 L 632.81 131.49 L 634.59 131.49 L 636.36 131.49 L 638.14 131.49 L 639.91 131.49 L 641.69 131.49 L 643.46 131.49 L 645.24 131.49 L 647.01 131.49 L 648.79 131.49 L 650.56 131.49 L 652.34 131.49 L 654.11 131.49 L 655.89 131.49 L 657.66 131.49 L 659.44 131.49 L 661.21 131.49 L 662.99 131.49 L 664.76 131.49 L 666.54 131.49 L 668.31 131.49 L 670.09 131.49 L 671.86 131.49 L 673.64 131.49 L 675.41 131.49 L 677.19 131.49 L 678.96 131.49 L 680.74 131.49 L 682.51 131.49 L 684.29 131.49 L 686.06 131.49 L 687.84 131.49 L 689.61 131.49 L 691.39 131.49 L 693.16 131.49 L 694.94 131.49 L 696.71 131.49 L 698.48 131.49 L 700.26 131.49 L 702.03 131.49 L 703.81 131.49 L 705.58 131.49 L 707.36 131.49 L 709.13 131.49 L 710.91 131.49 L 712.68 131.49 L 714.46 131.49 L 716.23 131.49 L 718.01 131.49 L 719.78 131.49 L 721.56 131.49 L 723.33 131.49 L 725.11 131.49 L 726.88 131.49 L 728.66 131.49 L 730.43 131.49 L 732.21 131.49 L 733.98 131.49 L 735.76 131.49 L 737.53 131.49 L 739.31 131.49 L 741.08 131.49 L 742.86 131.49 L 744.63 131.49 L 746.41 131.49 L 748.18 131.49 L 749.96 131.49 L 751.73 131.49 L 753.51 131.49 L 755.28 131.49 L 757.06 131.49 L 758.83 131.49 L 760.61 131.49 L 762.38 131.49 L 764.16 131.49 L 765.93 131.49 L 767.71 131.49 L 769.48 131.49 L 771.26 131.49 L 773.03 131.49 L 774.81 131.49 L 776.58 131.49 L 778.35 131.49 L 780.13 131.49 L 781.90 131.49 L 783.68 131.49 L 785.45 131.49 L 787.23 131.49 L 789.00 131.49 L 790.78 131.49 L 792.55 131.49 L 794.33 131.49 L 796.10 131.49 L 797.88 131.49 L 799.65 131.49 L 801.43 131.49 L 803.20 131.49 L 804.98 131.49 L 806.75 131.49 L 808.53 131.49 L 810.30 131.49 L 812.08 131.49 L 813.85 131.49 L 815.63 131.49 L 817.40 131.49 L 819.18 131.49 L 820.95 131.49 L 822.73 131.49 L 824.50 131.49 L 826.28 131.49 L 828.05 131.49 L 829.83 131.49 L 831.60 131.49 L 833.38 131.49 L 835.15 131.49 L 836.93 131.49 L 838.70 131.49 L 840.48 131.49 L 842.25 131.49 L 844.03 131.49 L 845.80 131.49 L 847.58 131.49 L 849.35 131.49 L 851.13 131.49 L 852.90 131.49 L 854.68 131.49 L 856.45 131.49 L 858.23 131.49 L 860.00 131.49" fill="none" stroke="#111827" stroke-width="2"/>
    <circle cx="860.00" cy="131.49" r="3" fill="#111827"/>
    <text x="40.00" y="235.00" font-size="9" fill="#111827" text-anchor="middle" transform="rotate(-45 40.00 235.00)">27.09.2025</text><text x="121.65" y="235.00" font-size="9" fill="#111827" text-anchor="middle" transform="rotate(-45 121.65 235.00)">28.09.2025</text><text x="203.29" y="235.00" font-size="9" fill="#111827" text-anchor="middle" transform="rotate(-45 203.29 235.00)">29.09.2025</text><text x="284.94" y="235.00" font-size="9" fill="#111827" text-anchor="middle" transform="rotate(-45 284.94 235.00)">04.10.2025</text><text x="366.58" y="235.00" font-size="9" fill="#111827" text-anchor="middle" transform="rotate(-45 366.58 235.00)">04.10.2025</text><text x="448.23" y="235.00" font-size="9" fill="#111827" text-anchor="middle" transform="rotate(-45 448.23 235.00)">04.10.2025</text><text x="529.87" y="235.00" font-size="9" fill="#111827" text-anchor="middle" transform="rotate(-45 529.87 235.00)">07.10.2025</text><text x="611.52" y="235.00" font-size="9" fill="#111827" text-anchor="middle" transform="rotate(-45 611.52 235.00)">10.10.2025</text><text x="693.16" y="235.00" font-size="9" fill="#111827" text-anchor="middle" transform="rotate(-45 693.16 235.00)">22.11.2025</text><text x="774.81" y="235.00" font-size="9" fill="#111827" text-anchor="middle" transform="rotate(-45 774.81 235.00)">07.01.2026</text><text x="856.45" y="235.00" font-size="9" fill="#111827" text-anchor="middle" transform="rotate(-45 856.45 235.00)">19.02.2026</text>
  </g>
</svg>