<svg xmlns="http://www.w3.org/2000/svg" width="900" height="290" style="font-family: -apple-system, BlinkMacSystemFont, 'Segoe UI', Helvetica, Arial, sans-serif;">
  <rect width="100%" height="100%" fill="#0d1117"/>
  <g>
    <line x1="40" y1="220.00" x2="860" y2="220.00" stroke="#30363d"/><text x="32" y="224.00" font-size="10" fill="#c9d1d9" text-anchor="end">0</text><line x1="40" y1="175.00" x2="860" y2="175.00" stroke="#30363d"/><text x="32" y="179.00" font-size="10" fill="#c9d1d9" text-anchor="end">25k</text><line x1="40" y1="130.00" x2="860" y2="130.00" stroke="#30363d"/><text x="32" y="134.00" font-size="10" fill="#c9d1d9" text-anchor="end">50k</text><line x1="40" y1="85.00" x2="860" y2="85.00" stroke="#30363d"/><text x="32" y="89.00" font-size="10" fill="#c9d1d9" text-anchor="end">75k</text><line x1="40" y1="40.00" x2="860" y2="40.00" stroke="#30363d"/><text x="32" y="44.00" font-size="10" fill="#c9d1d9" text-anchor="end">100k</text>
    <line x1="40.00" y1="40" x2="40.00" y2="220" stroke="#30363d" opacity="0.5"/><line x1="120.50" y1="40" x2="120.50" y2="220" stroke="#30363d" opacity="0.5"/><line x1="201.00" y1="40" x2="201.00" y2="220" stroke="#30363d" opacity="0.5"/><line x1="281.51" y1="40" x2="281.51" y2="220" stroke="#30363d" opacity="0.5"/><line x1="362.01" y1="40" x2="362.01" y2="220" stroke="#30363d" opacity="0.5"/><line x1="442.51" y1="40" x2="442.51" y2="220" stroke="#30363d" opacity="0.5"/><line x1="523.01" y1="40" x2="523.01" y2="220" stroke="#30363d" opacity="0.5"/><line x1="603.52" y1="40" x2="603.52" y2="220" stroke="#30363d" opacity="0.5"/><line x1="684.02" y1="40" x2="684.02" y2="220" stroke="#30363d" opacity="0.5"/><line x1="764.52" y1="40" x2="764.52" y2="220" stroke="#30363d" opacity="0.5"/><line x1="845.02" y1="40" x2="845.02" y2="220" stroke="#30363d" opacity="0.5"/>
    <line x1="40" y1="220" x2="860" y2="220" stroke="#30363d"/>
    <line x1="40" y1="40"   x2="40"   y2="220" stroke="#30363d"/>
    <path d="M 40.00 220.00 L 41.87 220.00 L 43.74 219.60 L 45.62 219.62 L 47.49 219.63 L 49.36 219.32 L 51.23 219.31 L 53.11 219.26 L 54.98 218.89 L 56.85 218.89 L 58.72 218.89 L 60.59 218.87 L 62.47 218.87 L 64.34 218.86 L 66.21 218.85 L 68.08 218.85 L 69.95 218.82 L 71.83 218.78 L 73.70 218.72 L 75.57 218.68 L 77.44 218.64 L 79.32 218.59 L 81.19 218.59 L 83.06 218.57 L 84.93 218.57 L 86.80 218.57 L 88.68 218.57 L 90.55 218.57 L 92.42 218.57 L 94.29 218.57 L 96.16 218.57 L 98.04 218.57 L 99.91 218.55 L 101.78 218.54 L 103.65 218.58 L 105.53 218.55 L 107.40 218.55 L 109.27 218.53 L 111.14 218.31 L 113.01 217.94 L 114.89 217.88 L 116.76 217.87 L 118.63 217.86 L 120.50 217.85 L 122.37 217.84 L 124.25 217.85 L 126.12 217.82 L 127.99 217.66 L 129.86 217.61 L 131.74 217.60 L 133.61 217.57 L 135.48 217.56 L 137.35 217.52 L 139.22 217.38 L 141.10 217.24 L 142.97 216.93 L 144.84 216.65 L 146.71 216.44 L 148.58 216.39 L 150.46 216.34 L 152.33 216.83 L 154.20 200.94 L 156.07 200.94 L 157.95 200.95 L 159.82 198.99 L 161.69 198.98 L 163.56 198.94 L 165.43 198.94 L 167.31 198.91 L 169.18 198.90 L 171.05 198.93 L 172.92 198.93 L 174.79 198.99 L 176.67 198.95 L 178.54 198.96 L 180.41 198.95 L 182.28 198.95 L 184.16 198.97 L 186.03 198.97 L 187.90 198.97 L 189.77 198.97 L 191.64 198.97 L 193.52 198.97 L 195.39 198.97 L 197.26 198.97 L 199.13 198.97 L 201.00 198.97 L 202.88 198.97 L 204.75 197.51 L 206.62 197.43 L 208.49 197.40 L 210.37 197.38 L 212.24 197.38 L 214.11 197.49 L 215.98 197.34 L 217.85 197.33 L 219.73 197.18 L 221.60 197.41 L 223.47 197.41 L 225.34 197.29 L 227.21 197.29 L 229.09 197.22 L 230.96 197.21 L 232.83 197.15 L 234.70 196.94 L 236.58 197.00 L 238.45 197.41 L 240.32 197.41 L 242.19 197.30 L 244.06 197.26 L 245.94 197.19 L 247.81 197.19 L 249.68 197.19 L 251.55 197.19 L 253.42 197.18 L 255.30 197.12 L 257.17 197.09 L 259.04 197.04 L 260.91 197.00 L 262.79 196.96 L 264.66 196.92 L 266.53 196.91 L 268.40 196.86 L 270.27 196.80 L 272.15 196.75 L 274.02 196.69 L 275.89 196.66 L 277.76 196.63 L 279.63 196.56 L 281.51 196.51 L 283.38 196.47 L 285.25 196.45 L 287.12 196.40 L 289.00 196.37 L 290.87 196.34 L 292.74 196.28 L 294.61 196.20 L 296.48 196.12 L 298.36 196.02 L 300.23 195.89 L 302.10 195.77 L 303.97 195.68 L 305.84 195.63 L 307.72 195.58 L 309.59 195.53 L 311.46 195.44 L 313.33 195.35 L 315.21 195.22 L 317.08 195.11 L 318.95 194.95 L 320.82 194.82 L 322.69 194.68 L 324.57 194.57 L 326.44 194.55 L 328.31 194.51 L 330.18 194.48 L 332.05 194.44 L 333.93 194.40 L 335.80 194.37 L 337.67 194.34 L 339.54 194.29 L 341.42 194.25 L 343.29 194.23 L 345.16 194.21 L 347.03 194.19 L 348.90 194.16 L 350.78 194.12 L 352.65 194.07 L 354.52 193.99 L 356.39 193.94 L 358.26 193.87 L 360.14 193.80 L 362.01 193.74 L 363.88 193.72 L 365.75 193.70 L 367.63 193.66 L 369.50 193.62 L 371.37 193.56 L 373.24 193.49 L 375.11 193.43 L 376.99 193.35 L 378.86 193.27 L 380.73 193.20 L 382.60 193.14 L 384.47 193.15 L 386.35 193.15 L 388.22 193.15 L 390.09 193.18 L 391.96 193.09 L 393.84 193.07 L 395.71 193.07 L 397.58 193.08 L 399.45 193.00 L 401.32 192.95 L 403.20 192.95 L 405.07 192.95 L 406.94 192.95 L 408.81 192.80 L 410.68 192.73 L 412.56 192.69 L 414.43 192.67 L 416.30 192.67 L 418.17 192.68 L 420.05 192.64 L 421.92 192.63 L 423.79 192.63 L 425.66 190.39 L 427.53 189.96 L 429.41 189.85 L 431.28 189.53 L 433.15 189.52 L 435.02 189.36 L 436.89 187.79 L 438.77 187.36 L 440.64 181.35 L 442.51 181.35 L 444.38 180.72 L 446.26 180.71 L 448.13 180.26 L 450.00 179.68 L 451.87 179.67 L 453.74 178.77 L 455.62 177.57 L 457.49 175.55 L 459.36 174.52 L 461.23 173.86 L 463.11 174.17 L 464.98 173.10 L 466.85 173.10 L 468.72 171.18 L 470.59 168.37 L 472.47 168.37 L 474.34 165.86 L 476.21 163.63 L 478.08 163.63 L 479.95 163.62 L 481.83 162.88 L 483.70 161.06 L 485.57 193.89 L 487.44 193.22 L 489.32 192.73 L 491.19 192.34 L 493.06 189.45 L 494.93 188.03 L 496.80 188.03 L 498.68 180.86 L 500.55 148.96 L 502.42 144.25 L 504.29 176.00 L 506.16 176.17 L 508.04 175.77 L 509.91 175.72 L 511.78 197.26 L 513.65 197.26 L 515.53 197.06 L 517.40 196.44 L 519.27 194.49 L 521.14 194.50 L 523.01 194.49 L 524.89 194.49 L 526.76 194.49 L 528.63 194.48 L 530.50 194.48 L 532.37 194.62 L 534.25 206.08 L 536.12 206.08 L 537.99 206.05 L 539.86 206.04 L 541.74 205.22 L 543.61 204.28 L 545.48 204.28 L 547.35 204.28 L 549.22 200.22 L 551.10 204.28 L 552.97 204.28 L 554.84 204.28 L 556.71 198.60 L 558.58 198.60 L 560.46 198.60 L 562.33 198.60 L 564.20 193.00 L 566.07 193.00 L 567.95 188.39 L 569.82 188.39 L 571.69 179.75 L 573.56 174.84 L 575.43 173.23 L 577.31 170.37 L 579.18 169.87 L 581.05 153.88 L 582.92 149.24 L 584.79 152.04 L 586.67 141.93 L 588.54 141.88 L 590.41 141.69 L 592.28 141.69 L 594.16 141.76 L 596.03 141.75 L 597.90 140.68 L 599.77 141.38 L 601.64 141.36 L 603.52 141.83 L 605.39 141.39 L 607.26 141.39 L 609.13 141.52 L 611.00 141.52 L 612.88 141.53 L 614.75 142.33 L 616.62 141.73 L 618.49 141.68 L 620.37 141.68 L 622.24 141.66 L 624.11 141.67 L 625.98 141.65 L 627.85 139.51 L 629.73 136.07 L 631.60 136.04 L 633.47 133.43 L 635.34 131.89 L 637.21 131.13 L 639.09 131.51 L 640.96 131.50 L 642.83 131.57 L 644.70 131.56 L 646.58 131.49 L 648.45 131.49 L 650.32 131.49 L 652.19 131.49 L 654.06 131.49 L 655.94 131.49 L 657.81 131.49 L 659.68 131.49 L 661.55 131.49 L 663.42 131.49 L 665.30 131.49 L 667.17 131.49 L 669.04 131.49 L 670.91 131.49 L 672.79 131.49 L 674.66 131.49 L 676.53 131.49 L 678.40 131.49 L 680.27 131.49 L 682.15 131.49 L 684.02 131.49 L 685.89 131.49 L 687.76 131.49 L 689.63 131.49 L 691.51 131.49 L 693.38 131.49 L 695.25 131.49 L 697.12 131.49 L 699.00 131.49 L 700.87 131.49 L 702.74 131.49 L 704.61 131.49 L 706.48 131.49 L 708.36 131.49 L 710.23 131.49 L 712.10 131.49 L 713.97 131.49 L 715.84 131.49 L 717.72 131.49 L 719.59 131.49 L 721.46 131.49 L 723.33 131.49 L 725.21 131.49 L 727.08 131.49 L 728.95 131.49 L 730.82 131.49 L 732.69 131.49 L 734.57 131.49 L 736.44 131.49 L 738.31 131.49 L 740.18 131.49 L 742.05 131.49 L 743.93 131.49 L 745.80 131.49 L 747.67 131.49 L 749.54 131.49 L 751.42 131.49 L 753.29 131.49 L 755.16 131.49 L 757.03 131.49 L 758.90 131.49 L 760.78 131.49 L 762.65 131.49 L 764.52 131.49 L 766.39 131.49 L 768.26 131.49 L 770.14 131.49 L 772.01 131.49 L 773.88 131.49 L 775.75 131.49 L 777.63 131.49 L 779.50 131.49 L 781.37 131.49 L 783.24 131.49 L 785.11 131.49 L 786.99 131.49 L 788.86 131.49 L 790.73 131.49 L 792.60 131.49 L 794.47 131.49 L 796.35 131.49 L 798.22 131.49 L 800.09 131.49 L 801.96 131.49 L 803.84 131.49 L 805.71 131.49 L 807.58 131.49 L 809.45 131.49 L 811.32 131.49 L 813.20 131.49 L 815.07 131.49 L 816.94 131.49 L 818.81 131.49 L 820.68 131.49 L 822.56 131.49 L 824.43 131.49 L 826.30 131.49 L 828.17 131.49 L 830.05 131.49 L 831.92 131.49 L 833.79 131.49 L 835.66 131.49 L 837.53 131.49 L 839.41 131.49 L 841.28 131.49 L 843.15 131.49 L 845.02 131.49 L 846.89 131.49 L 848.77 131.49 L 850.64 131.49 L 852.51 131.49 L 854.38 131.49 L 856.26 131.49 L 858.13 131.49 L 860.00 131.49" fill="none" stroke="#3fb950" stroke-width="2"/>
    <circle cx="860.00" cy="131.49" r="3" fill="#3fb950"/>
    <text x="40.00" y="235.00" font-size="9" fill="#c9d1d9" text-anchor="middle" transform="rotate(-45 40.00 235.00)">27.09.2025</text><text x="120.50" y="235.00" font-size="9" fill="#c9d1d9" text-anchor="middle" transform="rotate(-45 120.50 235.00)">28.09.2025</text><text x="201.00" y="235.00" font-size="9" fill="#c9d1d9" text-anchor="middle" transform="rotate(-45 201.00 235.00)">29.09.2025</text><text x="281.51" y="235.00" font-size="9" fill="#c9d1d9" text-anchor="middle" transform="rotate(-45 281.51 235.00)">04.10.2025</text><text x="362.01" y="235.00" font-size="9" fill="#c9d1d9" text-anchor="middle" transform="rotate(-45 362.01 235.00)">04.10.2025</text><text x="442.51" y="235.00" font-size="9" fill="#c9d1d9" text-anchor="middle" transform="rotate(-45 442.51 235.00)">04.10.2025</text><text x="523.01" y="235.00" font-size="9" fill="#c9d1d9" text-anchor="middle" transform="rotate(-45 523.01 235.00)">05.10.2025</text><text x="603.52" y="235.00" font-size="9" fill="#c9d1d9" text-anchor="middle" transform="rotate(-45 603.52 235.00)">09.10.2025</text><text x="684.02" y="235.00" font-size="9" fill="#c9d1d9" text-anchor="middle" transform="rotate(-45 684.02 235.00)">29.10.2025</text><text x="764.52" y="235.00" font-size="9" fill="#c9d1d9" text-anchor="middle" transform="rotate(-45 764.52 235.00)">11.12.2025</text><text x="845.02" y="235.00" font-size="9" fill="#c9d1d9" text-anchor="middle" transform="rotate(-45 845.02 235.00)">22.01.2026</text>
  </g>
</svg>