<svg xmlns="http://www.w3.org/2000/svg" width="900" height="290" style="font-family: -apple-system, BlinkMacSystemFont, 'Segoe UI', Helvetica, Arial, sans-serif;">
  <rect width="100%" height="100%" fill="#0d1117"/>
  <g>
    <line x1="40" y1="220.00" x2="860" y2="220.00" stroke="#30363d"/><text x="32" y="224.00" font-size="10" fill="#c9d1d9" text-anchor="end">0</text><line x1="40" y1="175.00" x2="860" y2="175.00" stroke="#30363d"/><text x="32" y="179.00" font-size="10" fill="#c9d1d9" text-anchor="end">25k</text><line x1="40" y1="130.00" x2="860" y2="130.00" stroke="#30363d"/><text x="32" y="134.00" font-size="10" fill="#c9d1d9" text-anchor="end">50k</text><line x1="40" y1="85.00" x2="860" y2="85.00" stroke="#30363d"/><text x="32" y="89.00" font-size="10" fill="#c9d1d9" text-anchor="end">75k</text><line x1="40" y1="40.00" x2="860" y2="40.00" stroke="#30363d"/><text x="32" y="44.00" font-size="10" fill="#c9d1d9" text-anchor="end">100k</text>
    <line x1="40.00" y1="40" x2="40.00" y2="220" stroke="#30363d" opacity="0.5"/><line x1="121.77" y1="40" x2="121.77" y2="220" stroke="#30363d" opacity="0.5"/><line x1="203.55" y1="40" x2="203.55" y2="220" stroke="#30363d" opacity="0.5"/><line x1="285.32" y1="40" x2="285.32" y2="220" stroke="#30363d" opacity="0.5"/><line x1="367.09" y1="40" x2="367.09" y2="220" stroke="#30363d" opacity="0.5"/><line x1="448.86" y1="40" x2="448.86" y2="220" stroke="#30363d" opacity="0.5"/><line x1="530.64" y1="40" x2="530.64" y2="220" stroke="#30363d" opacity="0.5"/><line x1="612.41" y1="40" x2="612.41" y2="220" stroke="#30363d" opacity="0.5"/><line x1="694.18" y1="40" x2="694.18" y2="220" stroke="#30363d" opacity="0.5"/><line x1="775.96" y1="40" x2="775.96" y2="220" stroke="#30363d" opacity="0.5"/><line x1="857.73" y1="40" x2="857.73" y2="220" stroke="#30363d" opacity="0.5"/>
    <line x1="40" y1="220" x2="860" y2="220" stroke="#30363d"/>
    <line x1="40" y1="40"   x2="40"   y2="220" stroke="#30363d"/>
    <path d="M 40.00 220.00 L 42.27 220.00 L 44.54 219.60 L 46.81 219.62 L 49.09 219.63 L 51.36 219.32 L 53.63 219.31 L 55.90 219.26 L 58.17 218.89 L 60.44 218.89 L 62.71 218.89 L 64.99 218.87 L 67.26 218.87 L 69.53 218.86 L 71.80 218.85 L 74.07 218.85 L 76.34 218.82 L 78.61 218.78 L 80.89 218.72 L 83.16 218.68 L 85.43 218.64 L 87.70 218.59 L 89.97 218.59 L 92.24 218.57 L 94.52 218.57 L 96.79 218.57 L 99.06 218.57 L 101.33 218.57 L 103.60 218.57 L 105.87 218.57 L 108.14 218.57 L 110.42 218.57 L 112.69 218.55 L 114.96 218.54 L 117.23 218.58 L 119.50 218.55 L 121.77 218.55 L 124.04 218.53 L 126.32 218.31 L 128.59 217.94 L 130.86 217.88 L 133.13 217.87 L 135.40 217.86 L 137.67 217.85 L 139.94 217.84 L 142.22 217.85 L 144.49 217.82 L 146.76 217.66 L 149.03 217.61 L 151.30 217.60 L 153.57 217.57 L 155.84 217.56 L 158.12 217.52 L 160.39 217.38 L 162.66 217.24 L 164.93 216.93 L 167.20 216.65 L 169.47 216.44 L 171.75 216.39 L 174.02 216.34 L 176.29 216.83 L 178.56 200.94 L 180.83 200.94 L 183.10 200.95 L 185.37 198.99 L 187.65 198.98 L 189.92 198.94 L 192.19 198.94 L 194.46 198.91 L 196.73 198.90 L 199.00 198.93 L 201.27 198.93 L 203.55 198.99 L 205.82 198.95 L 208.09 198.96 L 210.36 198.95 L 212.63 198.95 L 214.90 198.97 L 217.17 198.97 L 219.45 198.97 L 221.72 198.97 L 223.99 198.97 L 226.26 198.97 L 228.53 198.97 L 230.80 198.97 L 233.07 198.97 L 235.35 198.97 L 237.62 198.97 L 239.89 197.51 L 242.16 197.43 L 244.43 197.40 L 246.70 197.38 L 248.98 197.38 L 251.25 197.49 L 253.52 197.34 L 255.79 197.33 L 258.06 197.18 L 260.33 197.41 L 262.60 197.41 L 264.88 197.29 L 267.15 197.29 L 269.42 197.22 L 271.69 197.21 L 273.96 197.15 L 276.23 196.94 L 278.50 197.00 L 280.78 197.41 L 283.05 197.41 L 285.32 197.30 L 287.59 197.26 L 289.86 197.19 L 292.13 197.19 L 294.40 197.19 L 296.68 197.19 L 298.95 197.18 L 301.22 197.12 L 303.49 197.09 L 305.76 197.04 L 308.03 197.00 L 310.30 196.96 L 312.58 196.92 L 314.85 196.91 L 317.12 196.86 L 319.39 196.80 L 321.66 196.75 L 323.93 196.69 L 326.20 196.66 L 328.48 196.63 L 330.75 196.56 L 333.02 196.51 L 335.29 196.47 L 337.56 196.45 L 339.83 196.40 L 342.11 196.37 L 344.38 196.34 L 346.65 196.28 L 348.92 196.20 L 351.19 196.12 L 353.46 196.02 L 355.73 195.89 L 358.01 195.77 L 360.28 195.68 L 362.55 195.63 L 364.82 195.58 L 367.09 195.53 L 369.36 195.44 L 371.63 195.35 L 373.91 195.22 L 376.18 195.11 L 378.45 194.95 L 380.72 194.82 L 382.99 194.68 L 385.26 194.57 L 387.53 194.55 L 389.81 194.51 L 392.08 194.48 L 394.35 194.44 L 396.62 194.40 L 398.89 194.37 L 401.16 194.34 L 403.43 194.29 L 405.71 194.25 L 407.98 194.23 L 410.25 194.21 L 412.52 194.19 L 414.79 194.16 L 417.06 194.12 L 419.34 194.07 L 421.61 193.99 L 423.88 193.94 L 426.15 193.87 L 428.42 193.80 L 430.69 193.74 L 432.96 193.72 L 435.24 193.70 L 437.51 193.66 L 439.78 193.62 L 442.05 193.56 L 444.32 193.49 L 446.59 193.43 L 448.86 193.35 L 451.14 193.27 L 453.41 193.20 L 455.68 193.14 L 457.95 193.15 L 460.22 193.15 L 462.49 193.15 L 464.76 193.18 L 467.04 193.09 L 469.31 193.07 L 471.58 193.07 L 473.85 193.08 L 476.12 193.00 L 478.39 192.95 L 480.66 192.95 L 482.94 192.95 L 485.21 192.95 L 487.48 192.80 L 489.75 192.73 L 492.02 192.69 L 494.29 192.67 L 496.57 192.67 L 498.84 192.68 L 501.11 192.64 L 503.38 192.63 L 505.65 192.63 L 507.92 190.39 L 510.19 189.96 L 512.47 189.85 L 514.74 189.53 L 517.01 189.52 L 519.28 189.36 L 521.55 187.79 L 523.82 187.36 L 526.09 181.35 L 528.37 181.35 L 530.64 180.72 L 532.91 180.71 L 535.18 180.26 L 537.45 179.68 L 539.72 179.67 L 541.99 178.77 L 544.27 177.57 L 546.54 175.55 L 548.81 174.52 L 551.08 173.86 L 553.35 174.17 L 555.62 173.10 L 557.89 173.10 L 560.17 171.18 L 562.44 168.37 L 564.71 168.37 L 566.98 165.86 L 569.25 163.63 L 571.52 163.63 L 573.80 163.62 L 576.07 162.88 L 578.34 161.06 L 580.61 193.89 L 582.88 193.22 L 585.15 192.73 L 587.42 192.34 L 589.70 189.45 L 591.97 188.03 L 594.24 188.03 L 596.51 180.86 L 598.78 148.96 L 601.05 144.25 L 603.32 176.00 L 605.60 176.17 L 607.87 175.77 L 610.14 175.72 L 612.41 197.26 L 614.68 197.26 L 616.95 197.06 L 619.22 196.44 L 621.50 194.49 L 623.77 194.50 L 626.04 194.49 L 628.31 194.49 L 630.58 194.49 L 632.85 194.48 L 635.12 194.48 L 637.40 194.62 L 639.67 206.08 L 641.94 206.08 L 644.21 206.05 L 646.48 206.04 L 648.75 205.22 L 651.02 204.28 L 653.30 204.28 L 655.57 204.28 L 657.84 200.22 L 660.11 204.28 L 662.38 204.28 L 664.65 204.28 L 666.93 198.60 L 669.20 198.60 L 671.47 198.60 L 673.74 198.60 L 676.01 193.00 L 678.28 193.00 L 680.55 188.39 L 682.83 188.39 L 685.10 179.75 L 687.37 174.84 L 689.64 173.23 L 691.91 170.37 L 694.18 169.87 L 696.45 153.88 L 698.73 149.24 L 701.00 152.04 L 703.27 141.93 L 705.54 141.88 L 707.81 141.69 L 710.08 141.69 L 712.35 141.76 L 714.63 141.75 L 716.90 140.68 L 719.17 141.38 L 721.44 141.36 L 723.71 141.83 L 725.98 141.39 L 728.25 141.39 L 730.53 141.52 L 732.80 141.52 L 735.07 141.53 L 737.34 142.33 L 739.61 141.73 L 741.88 141.68 L 744.16 141.68 L 746.43 141.66 L 748.70 141.67 L 750.97 141.65 L 753.24 139.51 L 755.51 136.07 L 757.78 136.04 L 760.06 133.43 L 762.33 131.89 L 764.60 131.13 L 766.87 131.51 L 769.14 131.50 L 771.41 131.57 L 773.68 131.56 L 775.96 131.49 L 778.23 131.49 L 780.50 131.49 L 782.77 131.49 L 785.04 131.49 L 787.31 131.49 L 789.58 131.49 L 791.86 131.49 L 794.13 131.49 L 796.40 131.49 L 798.67 131.49 L 800.94 131.49 L 803.21 131.49 L 805.48 131.49 L 807.76 131.49 L 810.03 131.49 L 812.30 131.49 L 814.57 131.49 L 816.84 131.49 L 819.11 131.49 L 821.39 131.49 L 823.66 131.49 L 825.93 131.49 L 828.20 131.49 L 830.47 131.49 L 832.74 131.49 L 835.01 131.49 L 837.29 131.49 L 839.56 131.49 L 841.83 131.49 L 844.10 131.49 L 846.37 131.49 L 848.64 131.49 L 850.91 131.49 L 853.19 131.49 L 855.46 131.49 L 857.73 131.49 L 860.00 131.49" fill="none" stroke="#3fb950" stroke-width="2"/>
    <circle cx="860.00" cy="131.49" r="3" fill="#3fb950"/>
    <text x="40.00" y="235.00" font-size="9" fill="#c9d1d9" text-anchor="middle" transform="rotate(-45 40.00 235.00)">27.09.2025</text><text x="121.77" y="235.00" font-size="9" fill="#c9d1d9" text-anchor="middle" transform="rotate(-45 121.77 235.00)">28.09.2025</text><text x="203.55" y="235.00" font-size="9" fill="#c9d1d9" text-anchor="middle" transform="rotate(-45 203.55 235.00)">28.09.2025</text><text x="285.32" y="235.00" font-size="9" fill="#c9d1d9" text-anchor="middle" transform="rotate(-45 285.32 235.00)">30.09.2025</text><text x="367.09" y="235.00" font-size="9" fill="#c9d1d9" text-anchor="middle" transform="rotate(-45 367.09 235.00)">04.10.2025</text><text x="448.86" y="235.00" font-size="9" fill="#c9d1d9" text-anchor="middle" transform="rotate(-45 448.86 235.00)">04.10.2025</text><text x="530.64" y="235.00" font-size="9" fill="#c9d1d9" text-anchor="middle" transform="rotate(-45 530.64 235.00)">04.10.2025</text><text x="612.41" y="235.00" font-size="9" fill="#c9d1d9" text-anchor="middle" transform="rotate(-45 612.41 235.00)">05.10.2025</text><text x="694.18" y="235.00" font-size="9" fill="#c9d1d9" text-anchor="middle" transform="rotate(-45 694.18 235.00)">08.10.2025</text><text x="775.96" y="235.00" font-size="9" fill="#c9d1d9" text-anchor="middle" transform="rotate(-45 775.96 235.00)">10.10.2025</text><text x="857.73" y="235.00" font-size="9" fill="#c9d1d9" text-anchor="middle" transform="rotate(-45 857.73 235.00)">14.11.2025</text>
  </g>
</svg>