<svg xmlns="http://www.w3.org/2000/svg" width="900" height="290" style="font-family: -apple-system, BlinkMacSystemFont, 'Segoe UI', Helvetica, Arial, sans-serif;">
  <rect width="100%" height="100%" fill="#0d1117"/>
  <g>
    <line x1="40" y1="220.00" x2="860" y2="220.00" stroke="#30363d"/><text x="32" y="224.00" font-size="10" fill="#c9d1d9" text-anchor="end">0</text><line x1="40" y1="175.00" x2="860" y2="175.00" stroke="#30363d"/><text x="32" y="179.00" font-size="10" fill="#c9d1d9" text-anchor="end">25k</text><line x1="40" y1="130.00" x2="860" y2="130.00" stroke="#30363d"/><text x="32" y="134.00" font-size="10" fill="#c9d1d9" text-anchor="end">50k</text><line x1="40" y1="85.00" x2="860" y2="85.00" stroke="#30363d"/><text x="32" y="89.00" font-size="10" fill="#c9d1d9" text-anchor="end">75k</text><line x1="40" y1="40.00" x2="860" y2="40.00" stroke="#30363d"/><text x="32" y="44.00" font-size="10" fill="#c9d1d9" text-anchor="end">100k</text>
    <line x1="40.00" y1="40" x2="40.00" y2="220" stroke="#30363d" opacity="0.5"/><line x1="120.87" y1="40" x2="120.87" y2="220" stroke="#30363d" opacity="0.5"/><line x1="201.74" y1="40" x2="201.74" y2="220" stroke="#30363d" opacity="0.5"/><line x1="282.61" y1="40" x2="282.61" y2="220" stroke="#30363d" opacity="0.5"/><line x1="363.49" y1="40" x2="363.49" y2="220" stroke="#30363d" opacity="0.5"/><line x1="444.36" y1="40" x2="444.36" y2="220" stroke="#30363d" opacity="0.5"/><line x1="525.23" y1="40" x2="525.23" y2="220" stroke="#30363d" opacity="0.5"/><line x1="606.10" y1="40" x2="606.10" y2="220" stroke="#30363d" opacity="0.5"/><line x1="686.97" y1="40" x2="686.97" y2="220" stroke="#30363d" opacity="0.5"/><line x1="767.84" y1="40" x2="767.84" y2="220" stroke="#30363d" opacity="0.5"/><line x1="848.72" y1="40" x2="848.72" y2="220" stroke="#30363d" opacity="0.5"/>
    <line x1="40" y1="220" x2="860" y2="220" stroke="#30363d"/>
    <line x1="40" y1="40"   x2="40"   y2="220" stroke="#30363d"/>
    <path d="M 40.00 220.00 L 41.88 220.00 L 43.76 219.60 L 45.64 219.62 L 47.52 219.63 L 49.40 219.32 L 51.28 219.31 L 53.17 219.26 L 55.05 218.89 L 56.93 218.89 L 58.81 218.89 L 60.69 218.87 L 62.57 218.87 L 64.45 218.86 L 66.33 218.85 L 68.21 218.85 L 70.09 218.82 L 71.97 218.78 L 73.85 218.72 L 75.73 218.68 L 77.61 218.64 L 79.50 218.59 L 81.38 218.59 L 83.26 218.57 L 85.14 218.57 L 87.02 218.57 L 88.90 218.57 L 90.78 218.57 L 92.66 218.57 L 94.54 218.57 L 96.42 218.57 L 98.30 218.57 L 100.18 218.55 L 102.06 218.54 L 103.94 218.58 L 105.83 218.55 L 107.71 218.55 L 109.59 218.53 L 111.47 218.31 L 113.35 217.94 L 115.23 217.88 L 117.11 217.87 L 118.99 217.86 L 120.87 217.85 L 122.75 217.84 L 124.63 217.85 L 126.51 217.82 L 128.39 217.66 L 130.28 217.61 L 132.16 217.60 L 134.04 217.57 L 135.92 217.56 L 137.80 217.52 L 139.68 217.38 L 141.56 217.24 L 143.44 216.93 L 145.32 216.65 L 147.20 216.44 L 149.08 216.39 L 150.96 216.34 L 152.84 216.83 L 154.72 200.94 L 156.61 200.94 L 158.49 200.95 L 160.37 198.99 L 162.25 198.98 L 164.13 198.94 L 166.01 198.94 L 167.89 198.91 L 169.77 198.90 L 171.65 198.93 L 173.53 198.93 L 175.41 198.99 L 177.29 198.95 L 179.17 198.96 L 181.06 198.95 L 182.94 198.95 L 184.82 198.97 L 186.70 198.97 L 188.58 198.97 L 190.46 198.97 L 192.34 198.97 L 194.22 198.97 L 196.10 198.97 L 197.98 198.97 L 199.86 198.97 L 201.74 198.97 L 203.62 198.97 L 205.50 197.51 L 207.39 197.43 L 209.27 197.40 L 211.15 197.38 L 213.03 197.38 L 214.91 197.49 L 216.79 197.34 L 218.67 197.33 L 220.55 197.18 L 222.43 197.41 L 224.31 197.41 L 226.19 197.29 L 228.07 197.29 L 229.95 197.22 L 231.83 197.21 L 233.72 197.15 L 235.60 196.94 L 237.48 197.00 L 239.36 197.41 L 241.24 197.41 L 243.12 197.30 L 245.00 197.26 L 246.88 197.19 L 248.76 197.19 L 250.64 197.19 L 252.52 197.19 L 254.40 197.18 L 256.28 197.12 L 258.17 197.09 L 260.05 197.04 L 261.93 197.00 L 263.81 196.96 L 265.69 196.92 L 267.57 196.91 L 269.45 196.86 L 271.33 196.80 L 273.21 196.75 L 275.09 196.69 L 276.97 196.66 L 278.85 196.63 L 280.73 196.56 L 282.61 196.51 L 284.50 196.47 L 286.38 196.45 L 288.26 196.40 L 290.14 196.37 L 292.02 196.34 L 293.90 196.28 L 295.78 196.20 L 297.66 196.12 L 299.54 196.02 L 301.42 195.89 L 303.30 195.77 L 305.18 195.68 L 307.06 195.63 L 308.94 195.58 L 310.83 195.53 L 312.71 195.44 L 314.59 195.35 L 316.47 195.22 L 318.35 195.11 L 320.23 194.95 L 322.11 194.82 L 323.99 194.68 L 325.87 194.57 L 327.75 194.55 L 329.63 194.51 L 331.51 194.48 L 333.39 194.44 L 335.28 194.40 L 337.16 194.37 L 339.04 194.34 L 340.92 194.29 L 342.80 194.25 L 344.68 194.23 L 346.56 194.21 L 348.44 194.19 L 350.32 194.16 L 352.20 194.12 L 354.08 194.07 L 355.96 193.99 L 357.84 193.94 L 359.72 193.87 L 361.61 193.80 L 363.49 193.74 L 365.37 193.72 L 367.25 193.70 L 369.13 193.66 L 371.01 193.62 L 372.89 193.56 L 374.77 193.49 L 376.65 193.43 L 378.53 193.35 L 380.41 193.27 L 382.29 193.20 L 384.17 193.14 L 386.06 193.15 L 387.94 193.15 L 389.82 193.15 L 391.70 193.18 L 393.58 193.09 L 395.46 193.07 L 397.34 193.07 L 399.22 193.08 L 401.10 193.00 L 402.98 192.95 L 404.86 192.95 L 406.74 192.95 L 408.62 192.95 L 410.50 192.80 L 412.39 192.73 L 414.27 192.69 L 416.15 192.67 L 418.03 192.67 L 419.91 192.68 L 421.79 192.64 L 423.67 192.63 L 425.55 192.63 L 427.43 190.39 L 429.31 189.96 L 431.19 189.85 L 433.07 189.53 L 434.95 189.52 L 436.83 189.36 L 438.72 187.79 L 440.60 187.36 L 442.48 181.35 L 444.36 181.35 L 446.24 180.72 L 448.12 180.71 L 450.00 180.26 L 451.88 179.68 L 453.76 179.67 L 455.64 178.77 L 457.52 177.57 L 459.40 175.55 L 461.28 174.52 L 463.17 173.86 L 465.05 174.17 L 466.93 173.10 L 468.81 173.10 L 470.69 171.18 L 472.57 168.37 L 474.45 168.37 L 476.33 165.86 L 478.21 163.63 L 480.09 163.63 L 481.97 163.62 L 483.85 162.88 L 485.73 161.06 L 487.61 193.89 L 489.50 193.22 L 491.38 192.73 L 493.26 192.34 L 495.14 189.45 L 497.02 188.03 L 498.90 188.03 L 500.78 180.86 L 502.66 148.96 L 504.54 144.25 L 506.42 176.00 L 508.30 176.17 L 510.18 175.77 L 512.06 175.72 L 513.94 197.26 L 515.83 197.26 L 517.71 197.06 L 519.59 196.44 L 521.47 194.49 L 523.35 194.50 L 525.23 194.49 L 527.11 194.49 L 528.99 194.49 L 530.87 194.48 L 532.75 194.48 L 534.63 194.62 L 536.51 206.08 L 538.39 206.08 L 540.28 206.05 L 542.16 206.04 L 544.04 205.22 L 545.92 204.28 L 547.80 204.28 L 549.68 204.28 L 551.56 200.22 L 553.44 204.28 L 555.32 204.28 L 557.20 204.28 L 559.08 198.60 L 560.96 198.60 L 562.84 198.60 L 564.72 198.60 L 566.61 193.00 L 568.49 193.00 L 570.37 188.39 L 572.25 188.39 L 574.13 179.75 L 576.01 174.84 L 577.89 173.23 L 579.77 170.37 L 581.65 169.87 L 583.53 153.88 L 585.41 149.24 L 587.29 152.04 L 589.17 141.93 L 591.06 141.88 L 592.94 141.69 L 594.82 141.69 L 596.70 141.76 L 598.58 141.75 L 600.46 140.68 L 602.34 141.38 L 604.22 141.36 L 606.10 141.83 L 607.98 141.39 L 609.86 141.39 L 611.74 141.52 L 613.62 141.52 L 615.50 141.53 L 617.39 142.33 L 619.27 141.73 L 621.15 141.68 L 623.03 141.68 L 624.91 141.66 L 626.79 141.67 L 628.67 141.65 L 630.55 139.51 L 632.43 136.07 L 634.31 136.04 L 636.19 133.43 L 638.07 131.89 L 639.95 131.13 L 641.83 131.51 L 643.72 131.50 L 645.60 131.57 L 647.48 131.56 L 649.36 131.49 L 651.24 131.49 L 653.12 131.49 L 655.00 131.49 L 656.88 131.49 L 658.76 131.49 L 660.64 131.49 L 662.52 131.49 L 664.40 131.49 L 666.28 131.49 L 668.17 131.49 L 670.05 131.49 L 671.93 131.49 L 673.81 131.49 L 675.69 131.49 L 677.57 131.49 L 679.45 131.49 L 681.33 131.49 L 683.21 131.49 L 685.09 131.49 L 686.97 131.49 L 688.85 131.49 L 690.73 131.49 L 692.61 131.49 L 694.50 131.49 L 696.38 131.49 L 698.26 131.49 L 700.14 131.49 L 702.02 131.49 L 703.90 131.49 L 705.78 131.49 L 707.66 131.49 L 709.54 131.49 L 711.42 131.49 L 713.30 131.49 L 715.18 131.49 L 717.06 131.49 L 718.94 131.49 L 720.83 131.49 L 722.71 131.49 L 724.59 131.49 L 726.47 131.49 L 728.35 131.49 L 730.23 131.49 L 732.11 131.49 L 733.99 131.49 L 735.87 131.49 L 737.75 131.49 L 739.63 131.49 L 741.51 131.49 L 743.39 131.49 L 745.28 131.49 L 747.16 131.49 L 749.04 131.49 L 750.92 131.49 L 752.80 131.49 L 754.68 131.49 L 756.56 131.49 L 758.44 131.49 L 760.32 131.49 L 762.20 131.49 L 764.08 131.49 L 765.96 131.49 L 767.84 131.49 L 769.72 131.49 L 771.61 131.49 L 773.49 131.49 L 775.37 131.49 L 777.25 131.49 L 779.13 131.49 L 781.01 131.49 L 782.89 131.49 L 784.77 131.49 L 786.65 131.49 L 788.53 131.49 L 790.41 131.49 L 792.29 131.49 L 794.17 131.49 L 796.06 131.49 L 797.94 131.49 L 799.82 131.49 L 801.70 131.49 L 803.58 131.49 L 805.46 131.49 L 807.34 131.49 L 809.22 131.49 L 811.10 131.49 L 812.98 131.49 L 814.86 131.49 L 816.74 131.49 L 818.62 131.49 L 820.50 131.49 L 822.39 131.49 L 824.27 131.49 L 826.15 131.49 L 828.03 131.49 L 829.91 131.49 L 831.79 131.49 L 833.67 131.49 L 835.55 131.49 L 837.43 131.49 L 839.31 131.49 L 841.19 131.49 L 843.07 131.49 L 844.95 131.49 L 846.83 131.49 L 848.72 131.49 L 850.60 131.49 L 852.48 131.49 L 854.36 131.49 L 856.24 131.49 L 858.12 131.49 L 860.00 131.49" fill="none" stroke="#3fb950" stroke-width="2"/>
    <circle cx="860.00" cy="131.49" r="3" fill="#3fb950"/>
    <text x="40.00" y="235.00" font-size="9" fill="#c9d1d9" text-anchor="middle" transform="rotate(-45 40.00 235.00)">27.09.2025</text><text x="120.87" y="235.00" font-size="9" fill="#c9d1d9" text-anchor="middle" transform="rotate(-45 120.87 235.00)">28.09.2025</text><text x="201.74" y="235.00" font-size="9" fill="#c9d1d9" text-anchor="middle" transform="rotate(-45 201.74 235.00)">29.09.2025</text><text x="282.61" y="235.00" font-size="9" fill="#c9d1d9" text-anchor="middle" transform="rotate(-45 282.61 235.00)">04.10.2025</text><text x="363.49" y="235.00" font-size="9" fill="#c9d1d9" text-anchor="middle" transform="rotate(-45 363.49 235.00)">04.10.2025</text><text x="444.36" y="235.00" font-size="9" fill="#c9d1d9" text-anchor="middle" transform="rotate(-45 444.36 235.00)">04.10.2025</text><text x="525.23" y="235.00" font-size="9" fill="#c9d1d9" text-anchor="middle" transform="rotate(-45 525.23 235.00)">05.10.2025</text><text x="606.10" y="235.00" font-size="9" fill="#c9d1d9" text-anchor="middle" transform="rotate(-45 606.10 235.00)">09.10.2025</text><text x="686.97" y="235.00" font-size="9" fill="#c9d1d9" text-anchor="middle" transform="rotate(-45 686.97 235.00)">29.10.2025</text><text x="767.84" y="235.00" font-size="9" fill="#c9d1d9" text-anchor="middle" transform="rotate(-45 767.84 235.00)">11.12.2025</text><text x="848.72" y="235.00" font-size="9" fill="#c9d1d9" text-anchor="middle" transform="rotate(-45 848.72 235.00)">22.01.2026</text>
  </g>
</svg>