<svg xmlns="http://www.w3.org/2000/svg" width="900" height="290" style="font-family: -apple-system, BlinkMacSystemFont, 'Segoe UI', Helvetica, Arial, sans-serif;">
  <rect width="100%" height="100%" fill="white"/>
  <g>
    <line x1="40" y1="220.00" x2="860" y2="220.00" stroke="#e5e7eb"/><text x="32" y="224.00" font-size="10" fill="#111827" text-anchor="end">0</text><line x1="40" y1="175.00" x2="860" y2="175.00" stroke="#e5e7eb"/><text x="32" y="179.00" font-size="10" fill="#111827" text-anchor="end">25k</text><line x1="40" y1="130.00" x2="860" y2="130.00" stroke="#e5e7eb"/><text x="32" y="134.00" font-size="10" fill="#111827" text-anchor="end">50k</text><line x1="40" y1="85.00" x2="860" y2="85.00" stroke="#e5e7eb"/><text x="32" y="89.00" font-size="10" fill="#111827" text-anchor="end">75k</text><line x1="40" y1="40.00" x2="860" y2="40.00" stroke="#e5e7eb"/><text x="32" y="44.00" font-size="10" fill="#111827" text-anchor="end">100k</text>
    <line x1="40.00" y1="40" x2="40.00" y2="220" stroke="#e5e7eb" opacity="0.5"/><line x1="121.79" y1="40" x2="121.79" y2="220" stroke="#e5e7eb" opacity="0.5"/><line x1="203.58" y1="40" x2="203.58" y2="220" stroke="#e5e7eb" opacity="0.5"/><line x1="285.37" y1="40" x2="285.37" y2="220" stroke="#e5e7eb" opacity="0.5"/><line x1="367.16" y1="40" x2="367.16" y2="220" stroke="#e5e7eb" opacity="0.5"/><line x1="448.95" y1="40" x2="448.95" y2="220" stroke="#e5e7eb" opacity="0.5"/><line x1="530.74" y1="40" x2="530.74" y2="220" stroke="#e5e7eb" opacity="0.5"/><line x1="612.53" y1="40" x2="612.53" y2="220" stroke="#e5e7eb" opacity="0.5"/><line x1="694.32" y1="40" x2="694.32" y2="220" stroke="#e5e7eb" opacity="0.5"/><line x1="776.11" y1="40" x2="776.11" y2="220" stroke="#e5e7eb" opacity="0.5"/><line x1="857.90" y1="40" x2="857.90" y2="220" stroke="#e5e7eb" opacity="0.5"/>
    <line x1="40" y1="220" x2="860" y2="220" stroke="#9ca3af"/>
    <line x1="40" y1="40"   x2="40"   y2="220" stroke="#9ca3af"/>
    <path d="M 40.00 220.00 L 42.10 220.00 L 44.19 219.60 L 46.29 219.62 L 48.39 219.63 L 50.49 219.32 L 52.58 219.31 L 54.68 219.26 L 56.78 218.89 L 58.87 218.89 L 60.97 218.89 L 63.07 218.87 L 65.17 218.87 L 67.26 218.86 L 69.36 218.85 L 71.46 218.85 L 73.55 218.82 L 75.65 218.78 L 77.75 218.72 L 79.85 218.68 L 81.94 218.64 L 84.04 218.59 L 86.14 218.59 L 88.24 218.57 L 90.33 218.57 L 92.43 218.57 L 94.53 218.57 L 96.62 218.57 L 98.72 218.57 L 100.82 218.57 L 102.92 218.57 L 105.01 218.57 L 107.11 218.55 L 109.21 218.54 L 111.30 218.58 L 113.40 218.55 L 115.50 218.55 L 117.60 218.53 L 119.69 218.31 L 121.79 217.94 L 123.89 217.88 L 125.98 217.87 L 128.08 217.86 L 130.18 217.85 L 132.28 217.84 L 134.37 217.85 L 136.47 217.82 L 138.57 217.66 L 140.66 217.61 L 142.76 217.60 L 144.86 217.57 L 146.96 217.56 L 149.05 217.52 L 151.15 217.38 L 153.25 217.24 L 155.35 216.93 L 157.44 216.65 L 159.54 216.44 L 161.64 216.39 L 163.73 216.34 L 165.83 216.83 L 167.93 200.94 L 170.03 200.94 L 172.12 200.95 L 174.22 198.99 L 176.32 198.98 L 178.41 198.94 L 180.51 198.94 L 182.61 198.91 L 184.71 198.90 L 186.80 198.93 L 188.90 198.93 L 191.00 198.99 L 193.09 198.95 L 195.19 198.96 L 197.29 198.95 L 199.39 198.95 L 201.48 198.97 L 203.58 198.97 L 205.68 198.97 L 207.77 198.97 L 209.87 198.97 L 211.97 198.97 L 214.07 198.97 L 216.16 198.97 L 218.26 198.97 L 220.36 198.97 L 222.46 198.97 L 224.55 197.51 L 226.65 197.43 L 228.75 197.40 L 230.84 197.38 L 232.94 197.38 L 235.04 197.49 L 237.14 197.34 L 239.23 197.33 L 241.33 197.18 L 243.43 197.41 L 245.52 197.41 L 247.62 197.29 L 249.72 197.29 L 251.82 197.22 L 253.91 197.21 L 256.01 197.15 L 258.11 196.94 L 260.20 197.00 L 262.30 197.41 L 264.40 197.41 L 266.50 197.30 L 268.59 197.26 L 270.69 197.19 L 272.79 197.19 L 274.88 197.19 L 276.98 197.19 L 279.08 197.18 L 281.18 197.12 L 283.27 197.09 L 285.37 197.04 L 287.47 197.00 L 289.57 196.96 L 291.66 196.92 L 293.76 196.91 L 295.86 196.86 L 297.95 196.80 L 300.05 196.75 L 302.15 196.69 L 304.25 196.66 L 306.34 196.63 L 308.44 196.56 L 310.54 196.51 L 312.63 196.47 L 314.73 196.45 L 316.83 196.40 L 318.93 196.37 L 321.02 196.34 L 323.12 196.28 L 325.22 196.20 L 327.31 196.12 L 329.41 196.02 L 331.51 195.89 L 333.61 195.77 L 335.70 195.68 L 337.80 195.63 L 339.90 195.58 L 341.99 195.53 L 344.09 195.44 L 346.19 195.35 L 348.29 195.22 L 350.38 195.11 L 352.48 194.95 L 354.58 194.82 L 356.68 194.68 L 358.77 194.57 L 360.87 194.55 L 362.97 194.51 L 365.06 194.48 L 367.16 194.44 L 369.26 194.40 L 371.36 194.37 L 373.45 194.34 L 375.55 194.29 L 377.65 194.25 L 379.74 194.23 L 381.84 194.21 L 383.94 194.19 L 386.04 194.16 L 388.13 194.12 L 390.23 194.07 L 392.33 193.99 L 394.42 193.94 L 396.52 193.87 L 398.62 193.80 L 400.72 193.74 L 402.81 193.72 L 404.91 193.70 L 407.01 193.66 L 409.10 193.62 L 411.20 193.56 L 413.30 193.49 L 415.40 193.43 L 417.49 193.35 L 419.59 193.27 L 421.69 193.20 L 423.79 193.14 L 425.88 193.15 L 427.98 193.15 L 430.08 193.15 L 432.17 193.18 L 434.27 193.09 L 436.37 193.07 L 438.47 193.07 L 440.56 193.08 L 442.66 193.00 L 444.76 192.95 L 446.85 192.95 L 448.95 192.95 L 451.05 192.95 L 453.15 192.80 L 455.24 192.73 L 457.34 192.69 L 459.44 192.67 L 461.53 192.67 L 463.63 192.68 L 465.73 192.64 L 467.83 192.63 L 469.92 192.63 L 472.02 190.39 L 474.12 189.96 L 476.21 189.85 L 478.31 189.53 L 480.41 189.52 L 482.51 189.36 L 484.60 187.79 L 486.70 187.36 L 488.80 181.35 L 490.90 181.35 L 492.99 180.72 L 495.09 180.71 L 497.19 180.26 L 499.28 179.68 L 501.38 179.67 L 503.48 178.77 L 505.58 177.57 L 507.67 175.55 L 509.77 174.52 L 511.87 173.86 L 513.96 174.17 L 516.06 173.10 L 518.16 173.10 L 520.26 171.18 L 522.35 168.37 L 524.45 168.37 L 526.55 165.86 L 528.64 163.63 L 530.74 163.63 L 532.84 163.62 L 534.94 162.88 L 537.03 161.06 L 539.13 193.89 L 541.23 193.22 L 543.32 192.73 L 545.42 192.34 L 547.52 189.45 L 549.62 188.03 L 551.71 188.03 L 553.81 180.86 L 555.91 148.96 L 558.01 144.25 L 560.10 176.00 L 562.20 176.17 L 564.30 175.77 L 566.39 175.72 L 568.49 197.26 L 570.59 197.26 L 572.69 197.06 L 574.78 196.44 L 576.88 194.49 L 578.98 194.50 L 581.07 194.49 L 583.17 194.49 L 585.27 194.49 L 587.37 194.48 L 589.46 194.48 L 591.56 194.62 L 593.66 206.08 L 595.75 206.08 L 597.85 206.05 L 599.95 206.04 L 602.05 205.22 L 604.14 204.28 L 606.24 204.28 L 608.34 204.28 L 610.43 200.22 L 612.53 204.28 L 614.63 204.28 L 616.73 204.28 L 618.82 198.60 L 620.92 198.60 L 623.02 198.60 L 625.12 198.60 L 627.21 193.00 L 629.31 193.00 L 631.41 188.39 L 633.50 188.39 L 635.60 179.75 L 637.70 174.84 L 639.80 173.23 L 641.89 170.37 L 643.99 169.87 L 646.09 153.88 L 648.18 149.24 L 650.28 152.04 L 652.38 141.93 L 654.48 141.88 L 656.57 141.69 L 658.67 141.69 L 660.77 141.76 L 662.86 141.75 L 664.96 140.68 L 667.06 141.38 L 669.16 141.36 L 671.25 141.83 L 673.35 141.39 L 675.45 141.39 L 677.54 141.52 L 679.64 141.52 L 681.74 141.53 L 683.84 142.33 L 685.93 141.73 L 688.03 141.68 L 690.13 141.68 L 692.23 141.66 L 694.32 141.67 L 696.42 141.65 L 698.52 139.51 L 700.61 136.07 L 702.71 136.04 L 704.81 133.43 L 706.91 131.89 L 709.00 131.13 L 711.10 131.51 L 713.20 131.50 L 715.29 131.57 L 717.39 131.56 L 719.49 131.49 L 721.59 131.49 L 723.68 131.49 L 725.78 131.49 L 727.88 131.49 L 729.97 131.49 L 732.07 131.49 L 734.17 131.49 L 736.27 131.49 L 738.36 131.49 L 740.46 131.49 L 742.56 131.49 L 744.65 131.49 L 746.75 131.49 L 748.85 131.49 L 750.95 131.49 L 753.04 131.49 L 755.14 131.49 L 757.24 131.49 L 759.34 131.49 L 761.43 131.49 L 763.53 131.49 L 765.63 131.49 L 767.72 131.49 L 769.82 131.49 L 771.92 131.49 L 774.02 131.49 L 776.11 131.49 L 778.21 131.49 L 780.31 131.49 L 782.40 131.49 L 784.50 131.49 L 786.60 131.49 L 788.70 131.49 L 790.79 131.49 L 792.89 131.49 L 794.99 131.49 L 797.08 131.49 L 799.18 131.49 L 801.28 131.49 L 803.38 131.49 L 805.47 131.49 L 807.57 131.49 L 809.67 131.49 L 811.76 131.49 L 813.86 131.49 L 815.96 131.49 L 818.06 131.49 L 820.15 131.49 L 822.25 131.49 L 824.35 131.49 L 826.45 131.49 L 828.54 131.49 L 830.64 131.49 L 832.74 131.49 L 834.83 131.49 L 836.93 131.49 L 839.03 131.49 L 841.13 131.49 L 843.22 131.49 L 845.32 131.49 L 847.42 131.49 L 849.51 131.49 L 851.61 131.49 L 853.71 131.49 L 855.81 131.49 L 857.90 131.49 L 860.00 131.49" fill="none" stroke="#111827" stroke-width="2"/>
    <circle cx="860.00" cy="131.49" r="3" fill="#111827"/>
    <text x="40.00" y="235.00" font-size="9" fill="#111827" text-anchor="middle" transform="rotate(-45 40.00 235.00)">27.09.2025</text><text x="121.79" y="235.00" font-size="9" fill="#111827" text-anchor="middle" transform="rotate(-45 121.79 235.00)">28.09.2025</text><text x="203.58" y="235.00" font-size="9" fill="#111827" text-anchor="middle" transform="rotate(-45 203.58 235.00)">29.09.2025</text><text x="285.37" y="235.00" font-size="9" fill="#111827" text-anchor="middle" transform="rotate(-45 285.37 235.00)">04.10.2025</text><text x="367.16" y="235.00" font-size="9" fill="#111827" text-anchor="middle" transform="rotate(-45 367.16 235.00)">04.10.2025</text><text x="448.95" y="235.00" font-size="9" fill="#111827" text-anchor="middle" transform="rotate(-45 448.95 235.00)">04.10.2025</text><text x="530.74" y="235.00" font-size="9" fill="#111827" text-anchor="middle" transform="rotate(-45 530.74 235.00)">04.10.2025</text><text x="612.53" y="235.00" font-size="9" fill="#111827" text-anchor="middle" transform="rotate(-45 612.53 235.00)">07.10.2025</text><text x="694.32" y="235.00" font-size="9" fill="#111827" text-anchor="middle" transform="rotate(-45 694.32 235.00)">09.10.2025</text><text x="776.11" y="235.00" font-size="9" fill="#111827" text-anchor="middle" transform="rotate(-45 776.11 235.00)">05.11.2025</text><text x="857.90" y="235.00" font-size="9" fill="#111827" text-anchor="middle" transform="rotate(-45 857.90 235.00)">14.12.2025</text>
  </g>
</svg>