<svg xmlns="http://www.w3.org/2000/svg" width="900" height="290" style="font-family: -apple-system, BlinkMacSystemFont, 'Segoe UI', Helvetica, Arial, sans-serif;">
  <rect width="100%" height="100%" fill="white"/>
  <g>
    <line x1="40" y1="220.00" x2="860" y2="220.00" stroke="#e5e7eb"/><text x="32" y="224.00" font-size="10" fill="#111827" text-anchor="end">0</text><line x1="40" y1="175.00" x2="860" y2="175.00" stroke="#e5e7eb"/><text x="32" y="179.00" font-size="10" fill="#111827" text-anchor="end">25k</text><line x1="40" y1="130.00" x2="860" y2="130.00" stroke="#e5e7eb"/><text x="32" y="134.00" font-size="10" fill="#111827" text-anchor="end">50k</text><line x1="40" y1="85.00" x2="860" y2="85.00" stroke="#e5e7eb"/><text x="32" y="89.00" font-size="10" fill="#111827" text-anchor="end">75k</text><line x1="40" y1="40.00" x2="860" y2="40.00" stroke="#e5e7eb"/><text x="32" y="44.00" font-size="10" fill="#111827" text-anchor="end">100k</text>
    <line x1="40.00" y1="40" x2="40.00" y2="220" stroke="#e5e7eb" opacity="0.5"/><line x1="122.00" y1="40" x2="122.00" y2="220" stroke="#e5e7eb" opacity="0.5"/><line x1="204.00" y1="40" x2="204.00" y2="220" stroke="#e5e7eb" opacity="0.5"/><line x1="286.00" y1="40" x2="286.00" y2="220" stroke="#e5e7eb" opacity="0.5"/><line x1="368.00" y1="40" x2="368.00" y2="220" stroke="#e5e7eb" opacity="0.5"/><line x1="450.00" y1="40" x2="450.00" y2="220" stroke="#e5e7eb" opacity="0.5"/><line x1="532.00" y1="40" x2="532.00" y2="220" stroke="#e5e7eb" opacity="0.5"/><line x1="614.00" y1="40" x2="614.00" y2="220" stroke="#e5e7eb" opacity="0.5"/><line x1="696.00" y1="40" x2="696.00" y2="220" stroke="#e5e7eb" opacity="0.5"/><line x1="778.00" y1="40" x2="778.00" y2="220" stroke="#e5e7eb" opacity="0.5"/><line x1="860.00" y1="40" x2="860.00" y2="220" stroke="#e5e7eb" opacity="0.5"/>
    <line x1="40" y1="220" x2="860" y2="220" stroke="#9ca3af"/>
    <line x1="40" y1="40"   x2="40"   y2="220" stroke="#9ca3af"/>
    <path d="M 40.00 220.00 L 42.28 220.00 L 44.56 219.60 L 46.83 219.62 L 49.11 219.63 L 51.39 219.32 L 53.67 219.31 L 55.94 219.26 L 58.22 218.89 L 60.50 218.89 L 62.78 218.89 L 65.06 218.87 L 67.33 218.87 L 69.61 218.86 L 71.89 218.85 L 74.17 218.85 L 76.44 218.82 L 78.72 218.78 L 81.00 218.72 L 83.28 218.68 L 85.56 218.64 L 87.83 218.59 L 90.11 218.59 L 92.39 218.57 L 94.67 218.57 L 96.94 218.57 L 99.22 218.57 L 101.50 218.57 L 103.78 218.57 L 106.06 218.57 L 108.33 218.57 L 110.61 218.57 L 112.89 218.55 L 115.17 218.54 L 117.44 218.58 L 119.72 218.55 L 122.00 218.55 L 124.28 218.53 L 126.56 218.31 L 128.83 217.94 L 131.11 217.88 L 133.39 217.87 L 135.67 217.86 L 137.94 217.85 L 140.22 217.84 L 142.50 217.85 L 144.78 217.82 L 147.06 217.66 L 149.33 217.61 L 151.61 217.60 L 153.89 217.57 L 156.17 217.56 L 158.44 217.52 L 160.72 217.38 L 163.00 217.24 L 165.28 216.93 L 167.56 216.65 L 169.83 216.44 L 172.11 216.39 L 174.39 216.34 L 176.67 216.83 L 178.94 200.94 L 181.22 200.94 L 183.50 200.95 L 185.78 198.99 L 188.06 198.98 L 190.33 198.94 L 192.61 198.94 L 194.89 198.91 L 197.17 198.90 L 199.44 198.93 L 201.72 198.93 L 204.00 198.99 L 206.28 198.95 L 208.56 198.96 L 210.83 198.95 L 213.11 198.95 L 215.39 198.97 L 217.67 198.97 L 219.94 198.97 L 222.22 198.97 L 224.50 198.97 L 226.78 198.97 L 229.06 198.97 L 231.33 198.97 L 233.61 198.97 L 235.89 198.97 L 238.17 198.97 L 240.44 197.51 L 242.72 197.43 L 245.00 197.40 L 247.28 197.38 L 249.56 197.38 L 251.83 197.49 L 254.11 197.34 L 256.39 197.33 L 258.67 197.18 L 260.94 197.41 L 263.22 197.41 L 265.50 197.29 L 267.78 197.29 L 270.06 197.22 L 272.33 197.21 L 274.61 197.15 L 276.89 196.94 L 279.17 197.00 L 281.44 197.41 L 283.72 197.41 L 286.00 197.30 L 288.28 197.26 L 290.56 197.19 L 292.83 197.19 L 295.11 197.19 L 297.39 197.19 L 299.67 197.18 L 301.94 197.12 L 304.22 197.09 L 306.50 197.04 L 308.78 197.00 L 311.06 196.96 L 313.33 196.92 L 315.61 196.91 L 317.89 196.86 L 320.17 196.80 L 322.44 196.75 L 324.72 196.69 L 327.00 196.66 L 329.28 196.63 L 331.56 196.56 L 333.83 196.51 L 336.11 196.47 L 338.39 196.45 L 340.67 196.40 L 342.94 196.37 L 345.22 196.34 L 347.50 196.28 L 349.78 196.20 L 352.06 196.12 L 354.33 196.02 L 356.61 195.89 L 358.89 195.77 L 361.17 195.68 L 363.44 195.63 L 365.72 195.58 L 368.00 195.53 L 370.28 195.44 L 372.56 195.35 L 374.83 195.22 L 377.11 195.11 L 379.39 194.95 L 381.67 194.82 L 383.94 194.68 L 386.22 194.57 L 388.50 194.55 L 390.78 194.51 L 393.06 194.48 L 395.33 194.44 L 397.61 194.40 L 399.89 194.37 L 402.17 194.34 L 404.44 194.29 L 406.72 194.25 L 409.00 194.23 L 411.28 194.21 L 413.56 194.19 L 415.83 194.16 L 418.11 194.12 L 420.39 194.07 L 422.67 193.99 L 424.94 193.94 L 427.22 193.87 L 429.50 193.80 L 431.78 193.74 L 434.06 193.72 L 436.33 193.70 L 438.61 193.66 L 440.89 193.62 L 443.17 193.56 L 445.44 193.49 L 447.72 193.43 L 450.00 193.35 L 452.28 193.27 L 454.56 193.20 L 456.83 193.14 L 459.11 193.15 L 461.39 193.15 L 463.67 193.15 L 465.94 193.18 L 468.22 193.09 L 470.50 193.07 L 472.78 193.07 L 475.06 193.08 L 477.33 193.00 L 479.61 192.95 L 481.89 192.95 L 484.17 192.95 L 486.44 192.95 L 488.72 192.80 L 491.00 192.73 L 493.28 192.69 L 495.56 192.67 L 497.83 192.67 L 500.11 192.68 L 502.39 192.64 L 504.67 192.63 L 506.94 192.63 L 509.22 190.39 L 511.50 189.96 L 513.78 189.85 L 516.06 189.53 L 518.33 189.52 L 520.61 189.36 L 522.89 187.79 L 525.17 187.36 L 527.44 181.35 L 529.72 181.35 L 532.00 180.72 L 534.28 180.71 L 536.56 180.26 L 538.83 179.68 L 541.11 179.67 L 543.39 178.77 L 545.67 177.57 L 547.94 175.55 L 550.22 174.52 L 552.50 173.86 L 554.78 174.17 L 557.06 173.10 L 559.33 173.10 L 561.61 171.18 L 563.89 168.37 L 566.17 168.37 L 568.44 165.86 L 570.72 163.63 L 573.00 163.63 L 575.28 163.62 L 577.56 162.88 L 579.83 161.06 L 582.11 193.89 L 584.39 193.22 L 586.67 192.73 L 588.94 192.34 L 591.22 189.45 L 593.50 188.03 L 595.78 188.03 L 598.06 180.86 L 600.33 148.96 L 602.61 144.25 L 604.89 176.00 L 607.17 176.17 L 609.44 175.77 L 611.72 175.72 L 614.00 197.26 L 616.28 197.26 L 618.56 197.06 L 620.83 196.44 L 623.11 194.49 L 625.39 194.50 L 627.67 194.49 L 629.94 194.49 L 632.22 194.49 L 634.50 194.48 L 636.78 194.48 L 639.06 194.62 L 641.33 206.08 L 643.61 206.08 L 645.89 206.05 L 648.17 206.04 L 650.44 205.22 L 652.72 204.28 L 655.00 204.28 L 657.28 204.28 L 659.56 200.22 L 661.83 204.28 L 664.11 204.28 L 666.39 204.28 L 668.67 198.60 L 670.94 198.60 L 673.22 198.60 L 675.50 198.60 L 677.78 193.00 L 680.06 193.00 L 682.33 188.39 L 684.61 188.39 L 686.89 179.75 L 689.17 174.84 L 691.44 173.23 L 693.72 170.37 L 696.00 169.87 L 698.28 153.88 L 700.56 149.24 L 702.83 152.04 L 705.11 141.93 L 707.39 141.88 L 709.67 141.69 L 711.94 141.69 L 714.22 141.76 L 716.50 141.75 L 718.78 140.68 L 721.06 141.38 L 723.33 141.36 L 725.61 141.83 L 727.89 141.39 L 730.17 141.39 L 732.44 141.52 L 734.72 141.52 L 737.00 141.53 L 739.28 142.33 L 741.56 141.73 L 743.83 141.68 L 746.11 141.68 L 748.39 141.66 L 750.67 141.67 L 752.94 141.65 L 755.22 139.51 L 757.50 136.07 L 759.78 136.04 L 762.06 133.43 L 764.33 131.89 L 766.61 131.13 L 768.89 131.51 L 771.17 131.50 L 773.44 131.57 L 775.72 131.56 L 778.00 131.49 L 780.28 131.49 L 782.56 131.49 L 784.83 131.49 L 787.11 131.49 L 789.39 131.49 L 791.67 131.49 L 793.94 131.49 L 796.22 131.49 L 798.50 131.49 L 800.78 131.49 L 803.06 131.49 L 805.33 131.49 L 807.61 131.49 L 809.89 131.49 L 812.17 131.49 L 814.44 131.49 L 816.72 131.49 L 819.00 131.49 L 821.28 131.49 L 823.56 131.49 L 825.83 131.49 L 828.11 131.49 L 830.39 131.49 L 832.67 131.49 L 834.94 131.49 L 837.22 131.49 L 839.50 131.49 L 841.78 131.49 L 844.06 131.49 L 846.33 131.49 L 848.61 131.49 L 850.89 131.49 L 853.17 131.49 L 855.44 131.49 L 857.72 131.49 L 860.00 131.49" fill="none" stroke="#111827" stroke-width="2"/>
    <circle cx="860.00" cy="131.49" r="3" fill="#111827"/>
    <text x="40.00" y="235.00" font-size="9" fill="#111827" text-anchor="middle" transform="rotate(-45 40.00 235.00)">27.09.2025</text><text x="122.00" y="235.00" font-size="9" fill="#111827" text-anchor="middle" transform="rotate(-45 122.00 235.00)">28.09.2025</text><text x="204.00" y="235.00" font-size="9" fill="#111827" text-anchor="middle" transform="rotate(-45 204.00 235.00)">28.09.2025</text><text x="286.00" y="235.00" font-size="9" fill="#111827" text-anchor="middle" transform="rotate(-45 286.00 235.00)">30.09.2025</text><text x="368.00" y="235.00" font-size="9" fill="#111827" text-anchor="middle" transform="rotate(-45 368.00 235.00)">04.10.2025</text><text x="450.00" y="235.00" font-size="9" fill="#111827" text-anchor="middle" transform="rotate(-45 450.00 235.00)">04.10.2025</text><text x="532.00" y="235.00" font-size="9" fill="#111827" text-anchor="middle" transform="rotate(-45 532.00 235.00)">04.10.2025</text><text x="614.00" y="235.00" font-size="9" fill="#111827" text-anchor="middle" transform="rotate(-45 614.00 235.00)">05.10.2025</text><text x="696.00" y="235.00" font-size="9" fill="#111827" text-anchor="middle" transform="rotate(-45 696.00 235.00)">08.10.2025</text><text x="778.00" y="235.00" font-size="9" fill="#111827" text-anchor="middle" transform="rotate(-45 778.00 235.00)">10.10.2025</text><text x="860.00" y="235.00" font-size="9" fill="#111827" text-anchor="middle" transform="rotate(-45 860.00 235.00)">14.11.2025</text>
  </g>
</svg>