<svg xmlns="http://www.w3.org/2000/svg" width="900" height="290" style="font-family: -apple-system, BlinkMacSystemFont, 'Segoe UI', Helvetica, Arial, sans-serif;">
  <rect width="100%" height="100%" fill="white"/>
  <g>
    <line x1="40" y1="220.00" x2="860" y2="220.00" stroke="#e5e7eb"/><text x="32" y="224.00" font-size="10" fill="#111827" text-anchor="end">0</text><line x1="40" y1="175.00" x2="860" y2="175.00" stroke="#e5e7eb"/><text x="32" y="179.00" font-size="10" fill="#111827" text-anchor="end">25k</text><line x1="40" y1="130.00" x2="860" y2="130.00" stroke="#e5e7eb"/><text x="32" y="134.00" font-size="10" fill="#111827" text-anchor="end">50k</text><line x1="40" y1="85.00" x2="860" y2="85.00" stroke="#e5e7eb"/><text x="32" y="89.00" font-size="10" fill="#111827" text-anchor="end">75k</text><line x1="40" y1="40.00" x2="860" y2="40.00" stroke="#e5e7eb"/><text x="32" y="44.00" font-size="10" fill="#111827" text-anchor="end">100k</text>
    <line x1="40.00" y1="40" x2="40.00" y2="220" stroke="#e5e7eb" opacity="0.5"/><line x1="121.07" y1="40" x2="121.07" y2="220" stroke="#e5e7eb" opacity="0.5"/><line x1="202.15" y1="40" x2="202.15" y2="220" stroke="#e5e7eb" opacity="0.5"/><line x1="283.22" y1="40" x2="283.22" y2="220" stroke="#e5e7eb" opacity="0.5"/><line x1="364.29" y1="40" x2="364.29" y2="220" stroke="#e5e7eb" opacity="0.5"/><line x1="445.37" y1="40" x2="445.37" y2="220" stroke="#e5e7eb" opacity="0.5"/><line x1="526.44" y1="40" x2="526.44" y2="220" stroke="#e5e7eb" opacity="0.5"/><line x1="607.51" y1="40" x2="607.51" y2="220" stroke="#e5e7eb" opacity="0.5"/><line x1="688.59" y1="40" x2="688.59" y2="220" stroke="#e5e7eb" opacity="0.5"/><line x1="769.66" y1="40" x2="769.66" y2="220" stroke="#e5e7eb" opacity="0.5"/><line x1="850.73" y1="40" x2="850.73" y2="220" stroke="#e5e7eb" opacity="0.5"/>
    <line x1="40" y1="220" x2="860" y2="220" stroke="#9ca3af"/>
    <line x1="40" y1="40"   x2="40"   y2="220" stroke="#9ca3af"/>
    <path d="M 40.00 220.00 L 42.32 220.00 L 44.63 219.60 L 46.95 219.62 L 49.27 219.63 L 51.58 219.32 L 53.90 219.31 L 56.21 219.26 L 58.53 218.89 L 60.85 218.89 L 63.16 218.89 L 65.48 218.87 L 67.80 218.87 L 70.11 218.86 L 72.43 218.85 L 74.75 218.85 L 77.06 218.82 L 79.38 218.78 L 81.69 218.72 L 84.01 218.68 L 86.33 218.64 L 88.64 218.59 L 90.96 218.59 L 93.28 218.57 L 95.59 218.57 L 97.91 218.57 L 100.23 218.57 L 102.54 218.57 L 104.86 218.57 L 107.18 218.57 L 109.49 218.57 L 111.81 218.57 L 114.12 218.55 L 116.44 218.54 L 118.76 218.58 L 121.07 218.55 L 123.39 218.55 L 125.71 218.53 L 128.02 218.31 L 130.34 217.94 L 132.66 217.88 L 134.97 217.87 L 137.29 217.86 L 139.60 217.85 L 141.92 217.84 L 144.24 217.85 L 146.55 217.82 L 148.87 217.66 L 151.19 217.61 L 153.50 217.60 L 155.82 217.57 L 158.14 217.56 L 160.45 217.52 L 162.77 217.38 L 165.08 217.24 L 167.40 216.93 L 169.72 216.65 L 172.03 216.44 L 174.35 216.39 L 176.67 216.34 L 178.98 216.83 L 181.30 200.94 L 183.62 200.94 L 185.93 200.95 L 188.25 198.99 L 190.56 198.98 L 192.88 198.94 L 195.20 198.94 L 197.51 198.91 L 199.83 198.90 L 202.15 198.93 L 204.46 198.93 L 206.78 198.99 L 209.10 198.95 L 211.41 198.96 L 213.73 198.95 L 216.05 198.95 L 218.36 198.97 L 220.68 198.97 L 222.99 198.97 L 225.31 198.97 L 227.63 198.97 L 229.94 198.97 L 232.26 198.97 L 234.58 198.97 L 236.89 198.97 L 239.21 198.97 L 241.53 198.97 L 243.84 197.51 L 246.16 197.43 L 248.47 197.40 L 250.79 197.38 L 253.11 197.38 L 255.42 197.49 L 257.74 197.34 L 260.06 197.33 L 262.37 197.18 L 264.69 197.41 L 267.01 197.41 L 269.32 197.29 L 271.64 197.29 L 273.95 197.22 L 276.27 197.21 L 278.59 197.15 L 280.90 196.94 L 283.22 197.00 L 285.54 197.41 L 287.85 197.41 L 290.17 197.30 L 292.49 197.26 L 294.80 197.19 L 297.12 197.19 L 299.44 197.19 L 301.75 197.19 L 304.07 197.18 L 306.38 197.12 L 308.70 197.09 L 311.02 197.04 L 313.33 197.00 L 315.65 196.96 L 317.97 196.92 L 320.28 196.91 L 322.60 196.86 L 324.92 196.80 L 327.23 196.75 L 329.55 196.69 L 331.86 196.66 L 334.18 196.63 L 336.50 196.56 L 338.81 196.51 L 341.13 196.47 L 343.45 196.45 L 345.76 196.40 L 348.08 196.37 L 350.40 196.34 L 352.71 196.28 L 355.03 196.20 L 357.34 196.12 L 359.66 196.02 L 361.98 195.89 L 364.29 195.77 L 366.61 195.68 L 368.93 195.63 L 371.24 195.58 L 373.56 195.53 L 375.88 195.44 L 378.19 195.35 L 380.51 195.22 L 382.82 195.11 L 385.14 194.95 L 387.46 194.82 L 389.77 194.68 L 392.09 194.57 L 394.41 194.55 L 396.72 194.51 L 399.04 194.48 L 401.36 194.44 L 403.67 194.40 L 405.99 194.37 L 408.31 194.34 L 410.62 194.29 L 412.94 194.25 L 415.25 194.23 L 417.57 194.21 L 419.89 194.19 L 422.20 194.16 L 424.52 194.12 L 426.84 194.07 L 429.15 193.99 L 431.47 193.94 L 433.79 193.87 L 436.10 193.80 L 438.42 193.74 L 440.73 193.72 L 443.05 193.70 L 445.37 193.66 L 447.68 193.62 L 450.00 193.56 L 452.32 193.49 L 454.63 193.43 L 456.95 193.35 L 459.27 193.27 L 461.58 193.20 L 463.90 193.14 L 466.21 193.15 L 468.53 193.15 L 470.85 193.15 L 473.16 193.18 L 475.48 193.09 L 477.80 193.07 L 480.11 193.07 L 482.43 193.08 L 484.75 193.00 L 487.06 192.95 L 489.38 192.95 L 491.69 192.95 L 494.01 192.95 L 496.33 192.80 L 498.64 192.73 L 500.96 192.69 L 503.28 192.67 L 505.59 192.67 L 507.91 192.68 L 510.23 192.64 L 512.54 192.63 L 514.86 192.63 L 517.18 190.39 L 519.49 189.96 L 521.81 189.85 L 524.12 189.53 L 526.44 189.52 L 528.76 189.36 L 531.07 187.79 L 533.39 187.36 L 535.71 181.35 L 538.02 181.35 L 540.34 180.72 L 542.66 180.71 L 544.97 180.26 L 547.29 179.68 L 549.60 179.67 L 551.92 178.77 L 554.24 177.57 L 556.55 175.55 L 558.87 174.52 L 561.19 173.86 L 563.50 174.17 L 565.82 173.10 L 568.14 173.10 L 570.45 171.18 L 572.77 168.37 L 575.08 168.37 L 577.40 165.86 L 579.72 163.63 L 582.03 163.63 L 584.35 163.62 L 586.67 162.88 L 588.98 161.06 L 591.30 193.89 L 593.62 193.22 L 595.93 192.73 L 598.25 192.34 L 600.56 189.45 L 602.88 188.03 L 605.20 188.03 L 607.51 180.86 L 609.83 148.96 L 612.15 144.25 L 614.46 176.00 L 616.78 176.17 L 619.10 175.77 L 621.41 175.72 L 623.73 197.26 L 626.05 197.26 L 628.36 197.06 L 630.68 196.44 L 632.99 194.49 L 635.31 194.50 L 637.63 194.49 L 639.94 194.49 L 642.26 194.49 L 644.58 194.48 L 646.89 194.48 L 649.21 194.62 L 651.53 206.08 L 653.84 206.08 L 656.16 206.05 L 658.47 206.04 L 660.79 205.22 L 663.11 204.28 L 665.42 204.28 L 667.74 204.28 L 670.06 200.22 L 672.37 204.28 L 674.69 204.28 L 677.01 204.28 L 679.32 198.60 L 681.64 198.60 L 683.95 198.60 L 686.27 198.60 L 688.59 193.00 L 690.90 193.00 L 693.22 188.39 L 695.54 188.39 L 697.85 179.75 L 700.17 174.84 L 702.49 173.23 L 704.80 170.37 L 707.12 169.87 L 709.44 153.88 L 711.75 149.24 L 714.07 152.04 L 716.38 141.93 L 718.70 141.88 L 721.02 141.69 L 723.33 141.69 L 725.65 141.76 L 727.97 141.75 L 730.28 140.68 L 732.60 141.38 L 734.92 141.36 L 737.23 141.83 L 739.55 141.39 L 741.86 141.39 L 744.18 141.52 L 746.50 141.52 L 748.81 141.53 L 751.13 142.33 L 753.45 141.73 L 755.76 141.68 L 758.08 141.68 L 760.40 141.66 L 762.71 141.67 L 765.03 141.65 L 767.34 139.51 L 769.66 136.07 L 771.98 136.04 L 774.29 133.43 L 776.61 131.89 L 778.93 131.13 L 781.24 131.51 L 783.56 131.50 L 785.88 131.57 L 788.19 131.56 L 790.51 131.49 L 792.82 131.49 L 795.14 131.49 L 797.46 131.49 L 799.77 131.49 L 802.09 131.49 L 804.41 131.49 L 806.72 131.49 L 809.04 131.49 L 811.36 131.49 L 813.67 131.49 L 815.99 131.49 L 818.31 131.49 L 820.62 131.49 L 822.94 131.49 L 825.25 131.49 L 827.57 131.49 L 829.89 131.49 L 832.20 131.49 L 834.52 131.49 L 836.84 131.49 L 839.15 131.49 L 841.47 131.49 L 843.79 131.49 L 846.10 131.49 L 848.42 131.49 L 850.73 131.49 L 853.05 131.49 L 855.37 131.49 L 857.68 131.49 L 860.00 131.49" fill="none" stroke="#111827" stroke-width="2"/>
    <circle cx="860.00" cy="131.49" r="3" fill="#111827"/>
    <text x="40.00" y="235.00" font-size="9" fill="#111827" text-anchor="middle" transform="rotate(-45 40.00 235.00)">27.09.2025</text><text x="121.07" y="235.00" font-size="9" fill="#111827" text-anchor="middle" transform="rotate(-45 121.07 235.00)">28.09.2025</text><text x="202.15" y="235.00" font-size="9" fill="#111827" text-anchor="middle" transform="rotate(-45 202.15 235.00)">28.09.2025</text><text x="283.22" y="235.00" font-size="9" fill="#111827" text-anchor="middle" transform="rotate(-45 283.22 235.00)">30.09.2025</text><text x="364.29" y="235.00" font-size="9" fill="#111827" text-anchor="middle" transform="rotate(-45 364.29 235.00)">04.10.2025</text><text x="445.37" y="235.00" font-size="9" fill="#111827" text-anchor="middle" transform="rotate(-45 445.37 235.00)">04.10.2025</text><text x="526.44" y="235.00" font-size="9" fill="#111827" text-anchor="middle" transform="rotate(-45 526.44 235.00)">04.10.2025</text><text x="607.51" y="235.00" font-size="9" fill="#111827" text-anchor="middle" transform="rotate(-45 607.51 235.00)">05.10.2025</text><text x="688.59" y="235.00" font-size="9" fill="#111827" text-anchor="middle" transform="rotate(-45 688.59 235.00)">07.10.2025</text><text x="769.66" y="235.00" font-size="9" fill="#111827" text-anchor="middle" transform="rotate(-45 769.66 235.00)">09.10.2025</text><text x="850.73" y="235.00" font-size="9" fill="#111827" text-anchor="middle" transform="rotate(-45 850.73 235.00)">04.11.2025</text>
  </g>
</svg>