<svg xmlns="http://www.w3.org/2000/svg" width="900" height="290" style="font-family: -apple-system, BlinkMacSystemFont, 'Segoe UI', Helvetica, Arial, sans-serif;">
  <rect width="100%" height="100%" fill="#0d1117"/>
  <g>
    <line x1="40" y1="220.00" x2="860" y2="220.00" stroke="#30363d"/><text x="32" y="224.00" font-size="10" fill="#c9d1d9" text-anchor="end">0</text><line x1="40" y1="175.00" x2="860" y2="175.00" stroke="#30363d"/><text x="32" y="179.00" font-size="10" fill="#c9d1d9" text-anchor="end">12.5k</text><line x1="40" y1="130.00" x2="860" y2="130.00" stroke="#30363d"/><text x="32" y="134.00" font-size="10" fill="#c9d1d9" text-anchor="end">25k</text><line x1="40" y1="85.00" x2="860" y2="85.00" stroke="#30363d"/><text x="32" y="89.00" font-size="10" fill="#c9d1d9" text-anchor="end">37.5k</text><line x1="40" y1="40.00" x2="860" y2="40.00" stroke="#30363d"/><text x="32" y="44.00" font-size="10" fill="#c9d1d9" text-anchor="end">50k</text>
    <line x1="40.00" y1="40" x2="40.00" y2="220" stroke="#30363d" opacity="0.5"/><line x1="122.00" y1="40" x2="122.00" y2="220" stroke="#30363d" opacity="0.5"/><line x1="204.00" y1="40" x2="204.00" y2="220" stroke="#30363d" opacity="0.5"/><line x1="286.00" y1="40" x2="286.00" y2="220" stroke="#30363d" opacity="0.5"/><line x1="368.00" y1="40" x2="368.00" y2="220" stroke="#30363d" opacity="0.5"/><line x1="450.00" y1="40" x2="450.00" y2="220" stroke="#30363d" opacity="0.5"/><line x1="532.00" y1="40" x2="532.00" y2="220" stroke="#30363d" opacity="0.5"/><line x1="614.00" y1="40" x2="614.00" y2="220" stroke="#30363d" opacity="0.5"/><line x1="696.00" y1="40" x2="696.00" y2="220" stroke="#30363d" opacity="0.5"/><line x1="778.00" y1="40" x2="778.00" y2="220" stroke="#30363d" opacity="0.5"/><line x1="860.00" y1="40" x2="860.00" y2="220" stroke="#30363d" opacity="0.5"/>
    <line x1="40" y1="220" x2="860" y2="220" stroke="#30363d"/>
    <line x1="40" y1="40"   x2="40"   y2="220" stroke="#30363d"/>
    <path d="M 40.00 220.00 L 43.04 220.00 L 46.07 219.20 L 49.11 219.25 L 52.15 219.25 L 55.19 218.64 L 58.22 218.62 L 61.26 218.52 L 64.30 217.78 L 67.33 217.78 L 70.37 217.78 L 73.41 217.73 L 76.44 217.74 L 79.48 217.72 L 82.52 217.70 L 85.56 217.70 L 88.59 217.63 L 91.63 217.56 L 94.67 217.45 L 97.70 217.36 L 100.74 217.27 L 103.78 217.18 L 106.81 217.18 L 109.85 217.14 L 112.89 217.14 L 115.93 217.14 L 118.96 217.14 L 122.00 217.14 L 125.04 217.14 L 128.07 217.14 L 131.11 217.14 L 134.15 217.14 L 137.19 217.10 L 140.22 217.08 L 143.26 217.15 L 146.30 217.11 L 149.33 217.11 L 152.37 217.06 L 155.41 216.62 L 158.44 215.89 L 161.48 215.76 L 164.52 215.73 L 167.56 215.72 L 170.59 215.70 L 173.63 215.68 L 176.67 215.70 L 179.70 215.64 L 182.74 215.31 L 185.78 215.22 L 188.81 215.20 L 191.85 215.14 L 194.89 215.13 L 197.93 215.03 L 200.96 214.77 L 204.00 214.47 L 207.04 213.85 L 210.07 213.29 L 213.11 212.88 L 216.15 212.79 L 219.19 212.68 L 222.22 213.67 L 225.26 181.87 L 228.30 181.89 L 231.33 181.89 L 234.37 177.97 L 237.41 177.96 L 240.44 177.88 L 243.48 177.88 L 246.52 177.81 L 249.56 177.80 L 252.59 177.87 L 255.63 177.87 L 258.67 177.98 L 261.70 177.91 L 264.74 177.92 L 267.78 177.91 L 270.81 177.91 L 273.85 177.94 L 276.89 177.94 L 279.93 177.94 L 282.96 177.94 L 286.00 177.94 L 289.04 177.94 L 292.07 177.94 L 295.11 177.95 L 298.15 177.94 L 301.19 177.94 L 304.22 177.94 L 307.26 175.03 L 310.30 174.85 L 313.33 174.80 L 316.37 174.77 L 319.41 174.76 L 322.44 174.99 L 325.48 174.69 L 328.52 174.66 L 331.56 174.35 L 334.59 174.82 L 337.63 174.82 L 340.67 174.59 L 343.70 174.58 L 346.74 174.43 L 349.78 174.42 L 352.81 174.30 L 355.85 173.88 L 358.89 174.00 L 361.93 174.83 L 364.96 174.82 L 368.00 174.60 L 371.04 174.51 L 374.07 174.37 L 377.11 174.37 L 380.15 174.37 L 383.19 174.37 L 386.22 174.36 L 389.26 174.24 L 392.30 174.18 L 395.33 174.09 L 398.37 174.00 L 401.41 173.92 L 404.44 173.84 L 407.48 173.81 L 410.52 173.73 L 413.56 173.60 L 416.59 173.50 L 419.63 173.39 L 422.67 173.32 L 425.70 173.25 L 428.74 173.11 L 431.78 173.01 L 434.81 172.93 L 437.85 172.89 L 440.89 172.80 L 443.93 172.74 L 446.96 172.68 L 450.00 172.57 L 453.04 172.40 L 456.07 172.25 L 459.11 172.05 L 462.15 171.78 L 465.19 171.54 L 468.22 171.36 L 471.26 171.26 L 474.30 171.17 L 477.33 171.06 L 480.37 170.89 L 483.41 170.70 L 486.44 170.44 L 489.48 170.21 L 492.52 169.90 L 495.56 169.64 L 498.59 169.37 L 501.63 169.13 L 504.67 169.10 L 507.70 169.03 L 510.74 168.96 L 513.78 168.88 L 516.81 168.79 L 519.85 168.73 L 522.89 168.68 L 525.93 168.58 L 528.96 168.51 L 532.00 168.46 L 535.04 168.42 L 538.07 168.38 L 541.11 168.33 L 544.15 168.25 L 547.19 168.13 L 550.22 167.98 L 553.26 167.88 L 556.30 167.74 L 559.33 167.60 L 562.37 167.49 L 565.41 167.44 L 568.44 167.40 L 571.48 167.31 L 574.52 167.23 L 577.56 167.12 L 580.59 166.98 L 583.63 166.86 L 586.67 166.69 L 589.70 166.54 L 592.74 166.40 L 595.78 166.28 L 598.81 166.29 L 601.85 166.30 L 604.89 166.30 L 607.93 166.37 L 610.96 166.18 L 614.00 166.14 L 617.04 166.15 L 620.07 166.15 L 623.11 166.01 L 626.15 165.89 L 629.19 165.89 L 632.22 165.89 L 635.26 165.89 L 638.30 165.60 L 641.33 165.46 L 644.37 165.38 L 647.41 165.34 L 650.44 165.34 L 653.48 165.35 L 656.52 165.27 L 659.56 165.27 L 662.59 165.27 L 665.63 160.77 L 668.67 159.91 L 671.70 159.69 L 674.74 159.05 L 677.78 159.05 L 680.81 158.73 L 683.85 155.57 L 686.89 154.71 L 689.93 142.69 L 692.96 142.69 L 696.00 141.44 L 699.04 141.41 L 702.07 140.51 L 705.11 139.36 L 708.15 139.35 L 711.19 137.55 L 714.22 135.14 L 717.26 131.10 L 720.30 129.04 L 723.33 127.72 L 726.37 128.34 L 729.41 126.21 L 732.44 126.21 L 735.48 122.35 L 738.52 116.74 L 741.56 116.74 L 744.59 111.72 L 747.63 107.25 L 750.67 107.25 L 753.70 107.24 L 756.74 105.75 L 759.78 102.13 L 762.81 167.79 L 765.85 166.43 L 768.89 165.47 L 771.93 164.67 L 774.96 158.90 L 778.00 156.05 L 781.04 156.05 L 784.07 141.73 L 787.11 77.92 L 790.15 68.51 L 793.19 132.01 L 796.22 132.34 L 799.26 131.53 L 802.30 131.45 L 805.33 174.52 L 808.37 174.52 L 811.41 174.13 L 814.44 172.88 L 817.48 168.98 L 820.52 168.99 L 823.56 168.97 L 826.59 168.97 L 829.63 168.97 L 832.67 168.97 L 835.70 168.97 L 838.74 169.23 L 841.78 192.15 L 844.81 192.15 L 847.85 192.10 L 850.89 192.09 L 853.93 190.44 L 856.96 188.56 L 860.00 188.56" fill="none" stroke="#3fb950" stroke-width="2"/>
    <circle cx="860.00" cy="188.56" r="3" fill="#3fb950"/>
    <text x="40.00" y="235.00" font-size="9" fill="#c9d1d9" text-anchor="middle" transform="rotate(-45 40.00 235.00)">27.09.2025</text><text x="122.00" y="235.00" font-size="9" fill="#c9d1d9" text-anchor="middle" transform="rotate(-45 122.00 235.00)">28.09.2025</text><text x="204.00" y="235.00" font-size="9" fill="#c9d1d9" text-anchor="middle" transform="rotate(-45 204.00 235.00)">28.09.2025</text><text x="286.00" y="235.00" font-size="9" fill="#c9d1d9" text-anchor="middle" transform="rotate(-45 286.00 235.00)">29.09.2025</text><text x="368.00" y="235.00" font-size="9" fill="#c9d1d9" text-anchor="middle" transform="rotate(-45 368.00 235.00)">30.09.2025</text><text x="450.00" y="235.00" font-size="9" fill="#c9d1d9" text-anchor="middle" transform="rotate(-45 450.00 235.00)">04.10.2025</text><text x="532.00" y="235.00" font-size="9" fill="#c9d1d9" text-anchor="middle" transform="rotate(-45 532.00 235.00)">04.10.2025</text><text x="614.00" y="235.00" font-size="9" fill="#c9d1d9" text-anchor="middle" transform="rotate(-45 614.00 235.00)">04.10.2025</text><text x="696.00" y="235.00" font-size="9" fill="#c9d1d9" text-anchor="middle" transform="rotate(-45 696.00 235.00)">04.10.2025</text><text x="778.00" y="235.00" font-size="9" fill="#c9d1d9" text-anchor="middle" transform="rotate(-45 778.00 235.00)">05.10.2025</text><text x="860.00" y="235.00" font-size="9" fill="#c9d1d9" text-anchor="middle" transform="rotate(-45 860.00 235.00)">06.10.2025</text>
  </g>
</svg>