<svg xmlns="http://www.w3.org/2000/svg" width="900" height="290" style="font-family: -apple-system, BlinkMacSystemFont, 'Segoe UI', Helvetica, Arial, sans-serif;">
  <rect width="100%" height="100%" fill="white"/>
  <g>
    <line x1="40" y1="220.00" x2="860" y2="220.00" stroke="#e5e7eb"/><text x="32" y="224.00" font-size="10" fill="#111827" text-anchor="end">0</text><line x1="40" y1="175.00" x2="860" y2="175.00" stroke="#e5e7eb"/><text x="32" y="179.00" font-size="10" fill="#111827" text-anchor="end">25k</text><line x1="40" y1="130.00" x2="860" y2="130.00" stroke="#e5e7eb"/><text x="32" y="134.00" font-size="10" fill="#111827" text-anchor="end">50k</text><line x1="40" y1="85.00" x2="860" y2="85.00" stroke="#e5e7eb"/><text x="32" y="89.00" font-size="10" fill="#111827" text-anchor="end">75k</text><line x1="40" y1="40.00" x2="860" y2="40.00" stroke="#e5e7eb"/><text x="32" y="44.00" font-size="10" fill="#111827" text-anchor="end">100k</text>
    <line x1="40.00" y1="40" x2="40.00" y2="220" stroke="#e5e7eb" opacity="0.5"/><line x1="120.69" y1="40" x2="120.69" y2="220" stroke="#e5e7eb" opacity="0.5"/><line x1="201.37" y1="40" x2="201.37" y2="220" stroke="#e5e7eb" opacity="0.5"/><line x1="282.06" y1="40" x2="282.06" y2="220" stroke="#e5e7eb" opacity="0.5"/><line x1="362.75" y1="40" x2="362.75" y2="220" stroke="#e5e7eb" opacity="0.5"/><line x1="443.43" y1="40" x2="443.43" y2="220" stroke="#e5e7eb" opacity="0.5"/><line x1="524.12" y1="40" x2="524.12" y2="220" stroke="#e5e7eb" opacity="0.5"/><line x1="604.81" y1="40" x2="604.81" y2="220" stroke="#e5e7eb" opacity="0.5"/><line x1="685.49" y1="40" x2="685.49" y2="220" stroke="#e5e7eb" opacity="0.5"/><line x1="766.18" y1="40" x2="766.18" y2="220" stroke="#e5e7eb" opacity="0.5"/><line x1="846.86" y1="40" x2="846.86" y2="220" stroke="#e5e7eb" opacity="0.5"/>
    <line x1="40" y1="220" x2="860" y2="220" stroke="#9ca3af"/>
    <line x1="40" y1="40"   x2="40"   y2="220" stroke="#9ca3af"/>
    <path d="M 40.00 220.00 L 41.88 220.00 L 43.75 219.60 L 45.63 219.62 L 47.51 219.63 L 49.38 219.32 L 51.26 219.31 L 53.14 219.26 L 55.01 218.89 L 56.89 218.89 L 58.76 218.89 L 60.64 218.87 L 62.52 218.87 L 64.39 218.86 L 66.27 218.85 L 68.15 218.85 L 70.02 218.82 L 71.90 218.78 L 73.78 218.72 L 75.65 218.68 L 77.53 218.64 L 79.41 218.59 L 81.28 218.59 L 83.16 218.57 L 85.03 218.57 L 86.91 218.57 L 88.79 218.57 L 90.66 218.57 L 92.54 218.57 L 94.42 218.57 L 96.29 218.57 L 98.17 218.57 L 100.05 218.55 L 101.92 218.54 L 103.80 218.58 L 105.68 218.55 L 107.55 218.55 L 109.43 218.53 L 111.30 218.31 L 113.18 217.94 L 115.06 217.88 L 116.93 217.87 L 118.81 217.86 L 120.69 217.85 L 122.56 217.84 L 124.44 217.85 L 126.32 217.82 L 128.19 217.66 L 130.07 217.61 L 131.95 217.60 L 133.82 217.57 L 135.70 217.56 L 137.57 217.52 L 139.45 217.38 L 141.33 217.24 L 143.20 216.93 L 145.08 216.65 L 146.96 216.44 L 148.83 216.39 L 150.71 216.34 L 152.59 216.83 L 154.46 200.94 L 156.34 200.94 L 158.22 200.95 L 160.09 198.99 L 161.97 198.98 L 163.84 198.94 L 165.72 198.94 L 167.60 198.91 L 169.47 198.90 L 171.35 198.93 L 173.23 198.93 L 175.10 198.99 L 176.98 198.95 L 178.86 198.96 L 180.73 198.95 L 182.61 198.95 L 184.49 198.97 L 186.36 198.97 L 188.24 198.97 L 190.11 198.97 L 191.99 198.97 L 193.87 198.97 L 195.74 198.97 L 197.62 198.97 L 199.50 198.97 L 201.37 198.97 L 203.25 198.97 L 205.13 197.51 L 207.00 197.43 L 208.88 197.40 L 210.76 197.38 L 212.63 197.38 L 214.51 197.49 L 216.38 197.34 L 218.26 197.33 L 220.14 197.18 L 222.01 197.41 L 223.89 197.41 L 225.77 197.29 L 227.64 197.29 L 229.52 197.22 L 231.40 197.21 L 233.27 197.15 L 235.15 196.94 L 237.03 197.00 L 238.90 197.41 L 240.78 197.41 L 242.65 197.30 L 244.53 197.26 L 246.41 197.19 L 248.28 197.19 L 250.16 197.19 L 252.04 197.19 L 253.91 197.18 L 255.79 197.12 L 257.67 197.09 L 259.54 197.04 L 261.42 197.00 L 263.30 196.96 L 265.17 196.92 L 267.05 196.91 L 268.92 196.86 L 270.80 196.80 L 272.68 196.75 L 274.55 196.69 L 276.43 196.66 L 278.31 196.63 L 280.18 196.56 L 282.06 196.51 L 283.94 196.47 L 285.81 196.45 L 287.69 196.40 L 289.57 196.37 L 291.44 196.34 L 293.32 196.28 L 295.19 196.20 L 297.07 196.12 L 298.95 196.02 L 300.82 195.89 L 302.70 195.77 L 304.58 195.68 L 306.45 195.63 L 308.33 195.58 L 310.21 195.53 L 312.08 195.44 L 313.96 195.35 L 315.84 195.22 L 317.71 195.11 L 319.59 194.95 L 321.46 194.82 L 323.34 194.68 L 325.22 194.57 L 327.09 194.55 L 328.97 194.51 L 330.85 194.48 L 332.72 194.44 L 334.60 194.40 L 336.48 194.37 L 338.35 194.34 L 340.23 194.29 L 342.11 194.25 L 343.98 194.23 L 345.86 194.21 L 347.73 194.19 L 349.61 194.16 L 351.49 194.12 L 353.36 194.07 L 355.24 193.99 L 357.12 193.94 L 358.99 193.87 L 360.87 193.80 L 362.75 193.74 L 364.62 193.72 L 366.50 193.70 L 368.38 193.66 L 370.25 193.62 L 372.13 193.56 L 374.00 193.49 L 375.88 193.43 L 377.76 193.35 L 379.63 193.27 L 381.51 193.20 L 383.39 193.14 L 385.26 193.15 L 387.14 193.15 L 389.02 193.15 L 390.89 193.18 L 392.77 193.09 L 394.65 193.07 L 396.52 193.07 L 398.40 193.08 L 400.27 193.00 L 402.15 192.95 L 404.03 192.95 L 405.90 192.95 L 407.78 192.95 L 409.66 192.80 L 411.53 192.73 L 413.41 192.69 L 415.29 192.67 L 417.16 192.67 L 419.04 192.68 L 420.92 192.64 L 422.79 192.63 L 424.67 192.63 L 426.54 190.39 L 428.42 189.96 L 430.30 189.85 L 432.17 189.53 L 434.05 189.52 L 435.93 189.36 L 437.80 187.79 L 439.68 187.36 L 441.56 181.35 L 443.43 181.35 L 445.31 180.72 L 447.19 180.71 L 449.06 180.26 L 450.94 179.68 L 452.81 179.67 L 454.69 178.77 L 456.57 177.57 L 458.44 175.55 L 460.32 174.52 L 462.20 173.86 L 464.07 174.17 L 465.95 173.10 L 467.83 173.10 L 469.70 171.18 L 471.58 168.37 L 473.46 168.37 L 475.33 165.86 L 477.21 163.63 L 479.08 163.63 L 480.96 163.62 L 482.84 162.88 L 484.71 161.06 L 486.59 193.89 L 488.47 193.22 L 490.34 192.73 L 492.22 192.34 L 494.10 189.45 L 495.97 188.03 L 497.85 188.03 L 499.73 180.86 L 501.60 148.96 L 503.48 144.25 L 505.35 176.00 L 507.23 176.17 L 509.11 175.77 L 510.98 175.72 L 512.86 197.26 L 514.74 197.26 L 516.61 197.06 L 518.49 196.44 L 520.37 194.49 L 522.24 194.50 L 524.12 194.49 L 526.00 194.49 L 527.87 194.49 L 529.75 194.48 L 531.62 194.48 L 533.50 194.62 L 535.38 206.08 L 537.25 206.08 L 539.13 206.05 L 541.01 206.04 L 542.88 205.22 L 544.76 204.28 L 546.64 204.28 L 548.51 204.28 L 550.39 200.22 L 552.27 204.28 L 554.14 204.28 L 556.02 204.28 L 557.89 198.60 L 559.77 198.60 L 561.65 198.60 L 563.52 198.60 L 565.40 193.00 L 567.28 193.00 L 569.15 188.39 L 571.03 188.39 L 572.91 179.75 L 574.78 174.84 L 576.66 173.23 L 578.54 170.37 L 580.41 169.87 L 582.29 153.88 L 584.16 149.24 L 586.04 152.04 L 587.92 141.93 L 589.79 141.88 L 591.67 141.69 L 593.55 141.69 L 595.42 141.76 L 597.30 141.75 L 599.18 140.68 L 601.05 141.38 L 602.93 141.36 L 604.81 141.83 L 606.68 141.39 L 608.56 141.39 L 610.43 141.52 L 612.31 141.52 L 614.19 141.53 L 616.06 142.33 L 617.94 141.73 L 619.82 141.68 L 621.69 141.68 L 623.57 141.66 L 625.45 141.67 L 627.32 141.65 L 629.20 139.51 L 631.08 136.07 L 632.95 136.04 L 634.83 133.43 L 636.70 131.89 L 638.58 131.13 L 640.46 131.51 L 642.33 131.50 L 644.21 131.57 L 646.09 131.56 L 647.96 131.49 L 649.84 131.49 L 651.72 131.49 L 653.59 131.49 L 655.47 131.49 L 657.35 131.49 L 659.22 131.49 L 661.10 131.49 L 662.97 131.49 L 664.85 131.49 L 666.73 131.49 L 668.60 131.49 L 670.48 131.49 L 672.36 131.49 L 674.23 131.49 L 676.11 131.49 L 677.99 131.49 L 679.86 131.49 L 681.74 131.49 L 683.62 131.49 L 685.49 131.49 L 687.37 131.49 L 689.24 131.49 L 691.12 131.49 L 693.00 131.49 L 694.87 131.49 L 696.75 131.49 L 698.63 131.49 L 700.50 131.49 L 702.38 131.49 L 704.26 131.49 L 706.13 131.49 L 708.01 131.49 L 709.89 131.49 L 711.76 131.49 L 713.64 131.49 L 715.51 131.49 L 717.39 131.49 L 719.27 131.49 L 721.14 131.49 L 723.02 131.49 L 724.90 131.49 L 726.77 131.49 L 728.65 131.49 L 730.53 131.49 L 732.40 131.49 L 734.28 131.49 L 736.16 131.49 L 738.03 131.49 L 739.91 131.49 L 741.78 131.49 L 743.66 131.49 L 745.54 131.49 L 747.41 131.49 L 749.29 131.49 L 751.17 131.49 L 753.04 131.49 L 754.92 131.49 L 756.80 131.49 L 758.67 131.49 L 760.55 131.49 L 762.43 131.49 L 764.30 131.49 L 766.18 131.49 L 768.05 131.49 L 769.93 131.49 L 771.81 131.49 L 773.68 131.49 L 775.56 131.49 L 777.44 131.49 L 779.31 131.49 L 781.19 131.49 L 783.07 131.49 L 784.94 131.49 L 786.82 131.49 L 788.70 131.49 L 790.57 131.49 L 792.45 131.49 L 794.32 131.49 L 796.20 131.49 L 798.08 131.49 L 799.95 131.49 L 801.83 131.49 L 803.71 131.49 L 805.58 131.49 L 807.46 131.49 L 809.34 131.49 L 811.21 131.49 L 813.09 131.49 L 814.97 131.49 L 816.84 131.49 L 818.72 131.49 L 820.59 131.49 L 822.47 131.49 L 824.35 131.49 L 826.22 131.49 L 828.10 131.49 L 829.98 131.49 L 831.85 131.49 L 833.73 131.49 L 835.61 131.49 L 837.48 131.49 L 839.36 131.49 L 841.24 131.49 L 843.11 131.49 L 844.99 131.49 L 846.86 131.49 L 848.74 131.49 L 850.62 131.49 L 852.49 131.49 L 854.37 131.49 L 856.25 131.49 L 858.12 131.49 L 860.00 131.49" fill="none" stroke="#111827" stroke-width="2"/>
    <circle cx="860.00" cy="131.49" r="3" fill="#111827"/>
    <text x="40.00" y="235.00" font-size="9" fill="#111827" text-anchor="middle" transform="rotate(-45 40.00 235.00)">27.09.2025</text><text x="120.69" y="235.00" font-size="9" fill="#111827" text-anchor="middle" transform="rotate(-45 120.69 235.00)">28.09.2025</text><text x="201.37" y="235.00" font-size="9" fill="#111827" text-anchor="middle" transform="rotate(-45 201.37 235.00)">29.09.2025</text><text x="282.06" y="235.00" font-size="9" fill="#111827" text-anchor="middle" transform="rotate(-45 282.06 235.00)">04.10.2025</text><text x="362.75" y="235.00" font-size="9" fill="#111827" text-anchor="middle" transform="rotate(-45 362.75 235.00)">04.10.2025</text><text x="443.43" y="235.00" font-size="9" fill="#111827" text-anchor="middle" transform="rotate(-45 443.43 235.00)">04.10.2025</text><text x="524.12" y="235.00" font-size="9" fill="#111827" text-anchor="middle" transform="rotate(-45 524.12 235.00)">05.10.2025</text><text x="604.81" y="235.00" font-size="9" fill="#111827" text-anchor="middle" transform="rotate(-45 604.81 235.00)">09.10.2025</text><text x="685.49" y="235.00" font-size="9" fill="#111827" text-anchor="middle" transform="rotate(-45 685.49 235.00)">29.10.2025</text><text x="766.18" y="235.00" font-size="9" fill="#111827" text-anchor="middle" transform="rotate(-45 766.18 235.00)">11.12.2025</text><text x="846.86" y="235.00" font-size="9" fill="#111827" text-anchor="middle" transform="rotate(-45 846.86 235.00)">22.01.2026</text>
  </g>
</svg>