<svg xmlns="http://www.w3.org/2000/svg" width="900" height="290" style="font-family: -apple-system, BlinkMacSystemFont, 'Segoe UI', Helvetica, Arial, sans-serif;">
  <rect width="100%" height="100%" fill="#0d1117"/>
  <g>
    <line x1="40" y1="220.00" x2="860" y2="220.00" stroke="#30363d"/><text x="32" y="224.00" font-size="10" fill="#c9d1d9" text-anchor="end">0</text><line x1="40" y1="175.00" x2="860" y2="175.00" stroke="#30363d"/><text x="32" y="179.00" font-size="10" fill="#c9d1d9" text-anchor="end">25k</text><line x1="40" y1="130.00" x2="860" y2="130.00" stroke="#30363d"/><text x="32" y="134.00" font-size="10" fill="#c9d1d9" text-anchor="end">50k</text><line x1="40" y1="85.00" x2="860" y2="85.00" stroke="#30363d"/><text x="32" y="89.00" font-size="10" fill="#c9d1d9" text-anchor="end">75k</text><line x1="40" y1="40.00" x2="860" y2="40.00" stroke="#30363d"/><text x="32" y="44.00" font-size="10" fill="#c9d1d9" text-anchor="end">100k</text>
    <line x1="40.00" y1="40" x2="40.00" y2="220" stroke="#30363d" opacity="0.5"/><line x1="121.26" y1="40" x2="121.26" y2="220" stroke="#30363d" opacity="0.5"/><line x1="202.52" y1="40" x2="202.52" y2="220" stroke="#30363d" opacity="0.5"/><line x1="283.78" y1="40" x2="283.78" y2="220" stroke="#30363d" opacity="0.5"/><line x1="365.05" y1="40" x2="365.05" y2="220" stroke="#30363d" opacity="0.5"/><line x1="446.31" y1="40" x2="446.31" y2="220" stroke="#30363d" opacity="0.5"/><line x1="527.57" y1="40" x2="527.57" y2="220" stroke="#30363d" opacity="0.5"/><line x1="608.83" y1="40" x2="608.83" y2="220" stroke="#30363d" opacity="0.5"/><line x1="690.09" y1="40" x2="690.09" y2="220" stroke="#30363d" opacity="0.5"/><line x1="771.35" y1="40" x2="771.35" y2="220" stroke="#30363d" opacity="0.5"/><line x1="852.61" y1="40" x2="852.61" y2="220" stroke="#30363d" opacity="0.5"/>
    <line x1="40" y1="220" x2="860" y2="220" stroke="#30363d"/>
    <line x1="40" y1="40"   x2="40"   y2="220" stroke="#30363d"/>
    <path d="M 40.00 220.00 L 41.85 220.00 L 43.69 219.60 L 45.54 219.62 L 47.39 219.63 L 49.23 219.32 L 51.08 219.31 L 52.93 219.26 L 54.77 218.89 L 56.62 218.89 L 58.47 218.89 L 60.32 218.87 L 62.16 218.87 L 64.01 218.86 L 65.86 218.85 L 67.70 218.85 L 69.55 218.82 L 71.40 218.78 L 73.24 218.72 L 75.09 218.68 L 76.94 218.64 L 78.78 218.59 L 80.63 218.59 L 82.48 218.57 L 84.32 218.57 L 86.17 218.57 L 88.02 218.57 L 89.86 218.57 L 91.71 218.57 L 93.56 218.57 L 95.41 218.57 L 97.25 218.57 L 99.10 218.55 L 100.95 218.54 L 102.79 218.58 L 104.64 218.55 L 106.49 218.55 L 108.33 218.53 L 110.18 218.31 L 112.03 217.94 L 113.87 217.88 L 115.72 217.87 L 117.57 217.86 L 119.41 217.85 L 121.26 217.84 L 123.11 217.85 L 124.95 217.82 L 126.80 217.66 L 128.65 217.61 L 130.50 217.60 L 132.34 217.57 L 134.19 217.56 L 136.04 217.52 L 137.88 217.38 L 139.73 217.24 L 141.58 216.93 L 143.42 216.65 L 145.27 216.44 L 147.12 216.39 L 148.96 216.34 L 150.81 216.83 L 152.66 200.94 L 154.50 200.94 L 156.35 200.95 L 158.20 198.99 L 160.05 198.98 L 161.89 198.94 L 163.74 198.94 L 165.59 198.91 L 167.43 198.90 L 169.28 198.93 L 171.13 198.93 L 172.97 198.99 L 174.82 198.95 L 176.67 198.96 L 178.51 198.95 L 180.36 198.95 L 182.21 198.97 L 184.05 198.97 L 185.90 198.97 L 187.75 198.97 L 189.59 198.97 L 191.44 198.97 L 193.29 198.97 L 195.14 198.97 L 196.98 198.97 L 198.83 198.97 L 200.68 198.97 L 202.52 197.51 L 204.37 197.43 L 206.22 197.40 L 208.06 197.38 L 209.91 197.38 L 211.76 197.49 L 213.60 197.34 L 215.45 197.33 L 217.30 197.18 L 219.14 197.41 L 220.99 197.41 L 222.84 197.29 L 224.68 197.29 L 226.53 197.22 L 228.38 197.21 L 230.23 197.15 L 232.07 196.94 L 233.92 197.00 L 235.77 197.41 L 237.61 197.41 L 239.46 197.30 L 241.31 197.26 L 243.15 197.19 L 245.00 197.19 L 246.85 197.19 L 248.69 197.19 L 250.54 197.18 L 252.39 197.12 L 254.23 197.09 L 256.08 197.04 L 257.93 197.00 L 259.77 196.96 L 261.62 196.92 L 263.47 196.91 L 265.32 196.86 L 267.16 196.80 L 269.01 196.75 L 270.86 196.69 L 272.70 196.66 L 274.55 196.63 L 276.40 196.56 L 278.24 196.51 L 280.09 196.47 L 281.94 196.45 L 283.78 196.40 L 285.63 196.37 L 287.48 196.34 L 289.32 196.28 L 291.17 196.20 L 293.02 196.12 L 294.86 196.02 L 296.71 195.89 L 298.56 195.77 L 300.41 195.68 L 302.25 195.63 L 304.10 195.58 L 305.95 195.53 L 307.79 195.44 L 309.64 195.35 L 311.49 195.22 L 313.33 195.11 L 315.18 194.95 L 317.03 194.82 L 318.87 194.68 L 320.72 194.57 L 322.57 194.55 L 324.41 194.51 L 326.26 194.48 L 328.11 194.44 L 329.95 194.40 L 331.80 194.37 L 333.65 194.34 L 335.50 194.29 L 337.34 194.25 L 339.19 194.23 L 341.04 194.21 L 342.88 194.19 L 344.73 194.16 L 346.58 194.12 L 348.42 194.07 L 350.27 193.99 L 352.12 193.94 L 353.96 193.87 L 355.81 193.80 L 357.66 193.74 L 359.50 193.72 L 361.35 193.70 L 363.20 193.66 L 365.05 193.62 L 366.89 193.56 L 368.74 193.49 L 370.59 193.43 L 372.43 193.35 L 374.28 193.27 L 376.13 193.20 L 377.97 193.14 L 379.82 193.15 L 381.67 193.15 L 383.51 193.15 L 385.36 193.18 L 387.21 193.09 L 389.05 193.07 L 390.90 193.07 L 392.75 193.08 L 394.59 193.00 L 396.44 192.95 L 398.29 192.95 L 400.14 192.95 L 401.98 192.95 L 403.83 192.80 L 405.68 192.73 L 407.52 192.69 L 409.37 192.67 L 411.22 192.67 L 413.06 192.68 L 414.91 192.64 L 416.76 192.63 L 418.60 192.63 L 420.45 190.39 L 422.30 189.96 L 424.14 189.85 L 425.99 189.53 L 427.84 189.52 L 429.68 189.36 L 431.53 187.79 L 433.38 187.36 L 435.23 181.35 L 437.07 181.35 L 438.92 180.72 L 440.77 180.71 L 442.61 180.26 L 444.46 179.68 L 446.31 179.67 L 448.15 178.77 L 450.00 177.57 L 451.85 175.55 L 453.69 174.52 L 455.54 173.86 L 457.39 174.17 L 459.23 173.10 L 461.08 173.10 L 462.93 171.18 L 464.77 168.37 L 466.62 168.37 L 468.47 165.86 L 470.32 163.63 L 472.16 163.63 L 474.01 163.62 L 475.86 162.88 L 477.70 161.06 L 479.55 193.89 L 481.40 193.22 L 483.24 192.73 L 485.09 192.34 L 486.94 189.45 L 488.78 188.03 L 490.63 188.03 L 492.48 180.86 L 494.32 148.96 L 496.17 144.25 L 498.02 176.00 L 499.86 176.17 L 501.71 175.77 L 503.56 175.72 L 505.41 197.26 L 507.25 197.26 L 509.10 197.06 L 510.95 196.44 L 512.79 194.49 L 514.64 194.50 L 516.49 194.49 L 518.33 194.49 L 520.18 194.49 L 522.03 194.48 L 523.87 194.48 L 525.72 194.62 L 527.57 206.08 L 529.41 206.08 L 531.26 206.05 L 533.11 206.04 L 534.95 205.22 L 536.80 204.28 L 538.65 204.28 L 540.50 204.28 L 542.34 200.22 L 544.19 204.28 L 546.04 204.28 L 547.88 204.28 L 549.73 198.60 L 551.58 198.60 L 553.42 198.60 L 555.27 198.60 L 557.12 193.00 L 558.96 193.00 L 560.81 188.39 L 562.66 188.39 L 564.50 179.75 L 566.35 174.84 L 568.20 173.23 L 570.05 170.37 L 571.89 169.87 L 573.74 153.88 L 575.59 149.24 L 577.43 152.04 L 579.28 141.93 L 581.13 141.88 L 582.97 141.69 L 584.82 141.69 L 586.67 141.76 L 588.51 141.75 L 590.36 140.68 L 592.21 141.38 L 594.05 141.36 L 595.90 141.83 L 597.75 141.39 L 599.59 141.39 L 601.44 141.52 L 603.29 141.52 L 605.14 141.53 L 606.98 142.33 L 608.83 141.73 L 610.68 141.68 L 612.52 141.68 L 614.37 141.66 L 616.22 141.67 L 618.06 141.65 L 619.91 139.51 L 621.76 136.07 L 623.60 136.04 L 625.45 133.43 L 627.30 131.89 L 629.14 131.13 L 630.99 131.51 L 632.84 131.50 L 634.68 131.57 L 636.53 131.56 L 638.38 131.49 L 640.23 131.49 L 642.07 131.49 L 643.92 131.49 L 645.77 131.49 L 647.61 131.49 L 649.46 131.49 L 651.31 131.49 L 653.15 131.49 L 655.00 131.49 L 656.85 131.49 L 658.69 131.49 L 660.54 131.49 L 662.39 131.49 L 664.23 131.49 L 666.08 131.49 L 667.93 131.49 L 669.77 131.49 L 671.62 131.49 L 673.47 131.49 L 675.32 131.49 L 677.16 131.49 L 679.01 131.49 L 680.86 131.49 L 682.70 131.49 L 684.55 131.49 L 686.40 131.49 L 688.24 131.49 L 690.09 131.49 L 691.94 131.49 L 693.78 131.49 L 695.63 131.49 L 697.48 131.49 L 699.32 131.49 L 701.17 131.49 L 703.02 131.49 L 704.86 131.49 L 706.71 131.49 L 708.56 131.49 L 710.41 131.49 L 712.25 131.49 L 714.10 131.49 L 715.95 131.49 L 717.79 131.49 L 719.64 131.49 L 721.49 131.49 L 723.33 131.49 L 725.18 131.49 L 727.03 131.49 L 728.87 131.49 L 730.72 131.49 L 732.57 131.49 L 734.41 131.49 L 736.26 131.49 L 738.11 131.49 L 739.95 131.49 L 741.80 131.49 L 743.65 131.49 L 745.50 131.49 L 747.34 131.49 L 749.19 131.49 L 751.04 131.49 L 752.88 131.49 L 754.73 131.49 L 756.58 131.49 L 758.42 131.49 L 760.27 131.49 L 762.12 131.49 L 763.96 131.49 L 765.81 131.49 L 767.66 131.49 L 769.50 131.49 L 771.35 131.49 L 773.20 131.49 L 775.05 131.49 L 776.89 131.49 L 778.74 131.49 L 780.59 131.49 L 782.43 131.49 L 784.28 131.49 L 786.13 131.49 L 787.97 131.49 L 789.82 131.49 L 791.67 131.49 L 793.51 131.49 L 795.36 131.49 L 797.21 131.49 L 799.05 131.49 L 800.90 131.49 L 802.75 131.49 L 804.59 131.49 L 806.44 131.49 L 808.29 131.49 L 810.14 131.49 L 811.98 131.49 L 813.83 131.49 L 815.68 131.49 L 817.52 131.49 L 819.37 131.49 L 821.22 131.49 L 823.06 131.49 L 824.91 131.49 L 826.76 131.49 L 828.60 131.49 L 830.45 131.49 L 832.30 131.49 L 834.14 131.49 L 835.99 131.49 L 837.84 131.49 L 839.68 131.49 L 841.53 131.49 L 843.38 131.49 L 845.23 131.49 L 847.07 131.49 L 848.92 131.49 L 850.77 131.49 L 852.61 131.49 L 854.46 131.49 L 856.31 131.49 L 858.15 131.49 L 860.00 131.49" fill="none" stroke="#3fb950" stroke-width="2"/>
    <circle cx="860.00" cy="131.49" r="3" fill="#3fb950"/>
    <text x="40.00" y="235.00" font-size="9" fill="#c9d1d9" text-anchor="middle" transform="rotate(-45 40.00 235.00)">27.09.2025</text><text x="121.26" y="235.00" font-size="9" fill="#c9d1d9" text-anchor="middle" transform="rotate(-45 121.26 235.00)">28.09.2025</text><text x="202.52" y="235.00" font-size="9" fill="#c9d1d9" text-anchor="middle" transform="rotate(-45 202.52 235.00)">29.09.2025</text><text x="283.78" y="235.00" font-size="9" fill="#c9d1d9" text-anchor="middle" transform="rotate(-45 283.78 235.00)">04.10.2025</text><text x="365.05" y="235.00" font-size="9" fill="#c9d1d9" text-anchor="middle" transform="rotate(-45 365.05 235.00)">04.10.2025</text><text x="446.31" y="235.00" font-size="9" fill="#c9d1d9" text-anchor="middle" transform="rotate(-45 446.31 235.00)">04.10.2025</text><text x="527.57" y="235.00" font-size="9" fill="#c9d1d9" text-anchor="middle" transform="rotate(-45 527.57 235.00)">05.10.2025</text><text x="608.83" y="235.00" font-size="9" fill="#c9d1d9" text-anchor="middle" transform="rotate(-45 608.83 235.00)">09.10.2025</text><text x="690.09" y="235.00" font-size="9" fill="#c9d1d9" text-anchor="middle" transform="rotate(-45 690.09 235.00)">06.11.2025</text><text x="771.35" y="235.00" font-size="9" fill="#c9d1d9" text-anchor="middle" transform="rotate(-45 771.35 235.00)">20.12.2025</text><text x="852.61" y="235.00" font-size="9" fill="#c9d1d9" text-anchor="middle" transform="rotate(-45 852.61 235.00)">01.02.2026</text>
  </g>
</svg>