<svg xmlns="http://www.w3.org/2000/svg" width="900" height="290" style="font-family: -apple-system, BlinkMacSystemFont, 'Segoe UI', Helvetica, Arial, sans-serif;">
  <rect width="100%" height="100%" fill="#0d1117"/>
  <g>
    <line x1="40" y1="220.00" x2="860" y2="220.00" stroke="#30363d"/><text x="32" y="224.00" font-size="10" fill="#c9d1d9" text-anchor="end">0</text><line x1="40" y1="175.00" x2="860" y2="175.00" stroke="#30363d"/><text x="32" y="179.00" font-size="10" fill="#c9d1d9" text-anchor="end">25k</text><line x1="40" y1="130.00" x2="860" y2="130.00" stroke="#30363d"/><text x="32" y="134.00" font-size="10" fill="#c9d1d9" text-anchor="end">50k</text><line x1="40" y1="85.00" x2="860" y2="85.00" stroke="#30363d"/><text x="32" y="89.00" font-size="10" fill="#c9d1d9" text-anchor="end">75k</text><line x1="40" y1="40.00" x2="860" y2="40.00" stroke="#30363d"/><text x="32" y="44.00" font-size="10" fill="#c9d1d9" text-anchor="end">100k</text>
    <line x1="40.00" y1="40" x2="40.00" y2="220" stroke="#30363d" opacity="0.5"/><line x1="122.00" y1="40" x2="122.00" y2="220" stroke="#30363d" opacity="0.5"/><line x1="204.00" y1="40" x2="204.00" y2="220" stroke="#30363d" opacity="0.5"/><line x1="286.00" y1="40" x2="286.00" y2="220" stroke="#30363d" opacity="0.5"/><line x1="368.00" y1="40" x2="368.00" y2="220" stroke="#30363d" opacity="0.5"/><line x1="450.00" y1="40" x2="450.00" y2="220" stroke="#30363d" opacity="0.5"/><line x1="532.00" y1="40" x2="532.00" y2="220" stroke="#30363d" opacity="0.5"/><line x1="614.00" y1="40" x2="614.00" y2="220" stroke="#30363d" opacity="0.5"/><line x1="696.00" y1="40" x2="696.00" y2="220" stroke="#30363d" opacity="0.5"/><line x1="778.00" y1="40" x2="778.00" y2="220" stroke="#30363d" opacity="0.5"/><line x1="860.00" y1="40" x2="860.00" y2="220" stroke="#30363d" opacity="0.5"/>
    <line x1="40" y1="220" x2="860" y2="220" stroke="#30363d"/>
    <line x1="40" y1="40"   x2="40"   y2="220" stroke="#30363d"/>
    <path d="M 40.00 220.00 L 41.91 220.00 L 43.81 219.60 L 45.72 219.62 L 47.63 219.63 L 49.53 219.32 L 51.44 219.31 L 53.35 219.26 L 55.26 218.89 L 57.16 218.89 L 59.07 218.89 L 60.98 218.87 L 62.88 218.87 L 64.79 218.86 L 66.70 218.85 L 68.60 218.85 L 70.51 218.82 L 72.42 218.78 L 74.33 218.72 L 76.23 218.68 L 78.14 218.64 L 80.05 218.59 L 81.95 218.59 L 83.86 218.57 L 85.77 218.57 L 87.67 218.57 L 89.58 218.57 L 91.49 218.57 L 93.40 218.57 L 95.30 218.57 L 97.21 218.57 L 99.12 218.57 L 101.02 218.55 L 102.93 218.54 L 104.84 218.58 L 106.74 218.55 L 108.65 218.55 L 110.56 218.53 L 112.47 218.31 L 114.37 217.94 L 116.28 217.88 L 118.19 217.87 L 120.09 217.86 L 122.00 217.85 L 123.91 217.84 L 125.81 217.85 L 127.72 217.82 L 129.63 217.66 L 131.53 217.61 L 133.44 217.60 L 135.35 217.57 L 137.26 217.56 L 139.16 217.52 L 141.07 217.38 L 142.98 217.24 L 144.88 216.93 L 146.79 216.65 L 148.70 216.44 L 150.60 216.39 L 152.51 216.34 L 154.42 216.83 L 156.33 200.94 L 158.23 200.94 L 160.14 200.95 L 162.05 198.99 L 163.95 198.98 L 165.86 198.94 L 167.77 198.94 L 169.67 198.91 L 171.58 198.90 L 173.49 198.93 L 175.40 198.93 L 177.30 198.99 L 179.21 198.95 L 181.12 198.96 L 183.02 198.95 L 184.93 198.95 L 186.84 198.97 L 188.74 198.97 L 190.65 198.97 L 192.56 198.97 L 194.47 198.97 L 196.37 198.97 L 198.28 198.97 L 200.19 198.97 L 202.09 198.97 L 204.00 198.97 L 205.91 198.97 L 207.81 197.51 L 209.72 197.43 L 211.63 197.40 L 213.53 197.38 L 215.44 197.38 L 217.35 197.49 L 219.26 197.34 L 221.16 197.33 L 223.07 197.18 L 224.98 197.41 L 226.88 197.41 L 228.79 197.29 L 230.70 197.29 L 232.60 197.22 L 234.51 197.21 L 236.42 197.15 L 238.33 196.94 L 240.23 197.00 L 242.14 197.41 L 244.05 197.41 L 245.95 197.30 L 247.86 197.26 L 249.77 197.19 L 251.67 197.19 L 253.58 197.19 L 255.49 197.19 L 257.40 197.18 L 259.30 197.12 L 261.21 197.09 L 263.12 197.04 L 265.02 197.00 L 266.93 196.96 L 268.84 196.92 L 270.74 196.91 L 272.65 196.86 L 274.56 196.80 L 276.47 196.75 L 278.37 196.69 L 280.28 196.66 L 282.19 196.63 L 284.09 196.56 L 286.00 196.51 L 287.91 196.47 L 289.81 196.45 L 291.72 196.40 L 293.63 196.37 L 295.53 196.34 L 297.44 196.28 L 299.35 196.20 L 301.26 196.12 L 303.16 196.02 L 305.07 195.89 L 306.98 195.77 L 308.88 195.68 L 310.79 195.63 L 312.70 195.58 L 314.60 195.53 L 316.51 195.44 L 318.42 195.35 L 320.33 195.22 L 322.23 195.11 L 324.14 194.95 L 326.05 194.82 L 327.95 194.68 L 329.86 194.57 L 331.77 194.55 L 333.67 194.51 L 335.58 194.48 L 337.49 194.44 L 339.40 194.40 L 341.30 194.37 L 343.21 194.34 L 345.12 194.29 L 347.02 194.25 L 348.93 194.23 L 350.84 194.21 L 352.74 194.19 L 354.65 194.16 L 356.56 194.12 L 358.47 194.07 L 360.37 193.99 L 362.28 193.94 L 364.19 193.87 L 366.09 193.80 L 368.00 193.74 L 369.91 193.72 L 371.81 193.70 L 373.72 193.66 L 375.63 193.62 L 377.53 193.56 L 379.44 193.49 L 381.35 193.43 L 383.26 193.35 L 385.16 193.27 L 387.07 193.20 L 388.98 193.14 L 390.88 193.15 L 392.79 193.15 L 394.70 193.15 L 396.60 193.18 L 398.51 193.09 L 400.42 193.07 L 402.33 193.07 L 404.23 193.08 L 406.14 193.00 L 408.05 192.95 L 409.95 192.95 L 411.86 192.95 L 413.77 192.95 L 415.67 192.80 L 417.58 192.73 L 419.49 192.69 L 421.40 192.67 L 423.30 192.67 L 425.21 192.68 L 427.12 192.64 L 429.02 192.63 L 430.93 192.63 L 432.84 190.39 L 434.74 189.96 L 436.65 189.85 L 438.56 189.53 L 440.47 189.52 L 442.37 189.36 L 444.28 187.79 L 446.19 187.36 L 448.09 181.35 L 450.00 181.35 L 451.91 180.72 L 453.81 180.71 L 455.72 180.26 L 457.63 179.68 L 459.53 179.67 L 461.44 178.77 L 463.35 177.57 L 465.26 175.55 L 467.16 174.52 L 469.07 173.86 L 470.98 174.17 L 472.88 173.10 L 474.79 173.10 L 476.70 171.18 L 478.60 168.37 L 480.51 168.37 L 482.42 165.86 L 484.33 163.63 L 486.23 163.63 L 488.14 163.62 L 490.05 162.88 L 491.95 161.06 L 493.86 193.89 L 495.77 193.22 L 497.67 192.73 L 499.58 192.34 L 501.49 189.45 L 503.40 188.03 L 505.30 188.03 L 507.21 180.86 L 509.12 148.96 L 511.02 144.25 L 512.93 176.00 L 514.84 176.17 L 516.74 175.77 L 518.65 175.72 L 520.56 197.26 L 522.47 197.26 L 524.37 197.06 L 526.28 196.44 L 528.19 194.49 L 530.09 194.50 L 532.00 194.49 L 533.91 194.49 L 535.81 194.49 L 537.72 194.48 L 539.63 194.48 L 541.53 194.62 L 543.44 206.08 L 545.35 206.08 L 547.26 206.05 L 549.16 206.04 L 551.07 205.22 L 552.98 204.28 L 554.88 204.28 L 556.79 204.28 L 558.70 200.22 L 560.60 204.28 L 562.51 204.28 L 564.42 204.28 L 566.33 198.60 L 568.23 198.60 L 570.14 198.60 L 572.05 198.60 L 573.95 193.00 L 575.86 193.00 L 577.77 188.39 L 579.67 188.39 L 581.58 179.75 L 583.49 174.84 L 585.40 173.23 L 587.30 170.37 L 589.21 169.87 L 591.12 153.88 L 593.02 149.24 L 594.93 152.04 L 596.84 141.93 L 598.74 141.88 L 600.65 141.69 L 602.56 141.69 L 604.47 141.76 L 606.37 141.75 L 608.28 140.68 L 610.19 141.38 L 612.09 141.36 L 614.00 141.83 L 615.91 141.39 L 617.81 141.39 L 619.72 141.52 L 621.63 141.52 L 623.53 141.53 L 625.44 142.33 L 627.35 141.73 L 629.26 141.68 L 631.16 141.68 L 633.07 141.66 L 634.98 141.67 L 636.88 141.65 L 638.79 139.51 L 640.70 136.07 L 642.60 136.04 L 644.51 133.43 L 646.42 131.89 L 648.33 131.13 L 650.23 131.51 L 652.14 131.50 L 654.05 131.57 L 655.95 131.56 L 657.86 131.49 L 659.77 131.49 L 661.67 131.49 L 663.58 131.49 L 665.49 131.49 L 667.40 131.49 L 669.30 131.49 L 671.21 131.49 L 673.12 131.49 L 675.02 131.49 L 676.93 131.49 L 678.84 131.49 L 680.74 131.49 L 682.65 131.49 L 684.56 131.49 L 686.47 131.49 L 688.37 131.49 L 690.28 131.49 L 692.19 131.49 L 694.09 131.49 L 696.00 131.49 L 697.91 131.49 L 699.81 131.49 L 701.72 131.49 L 703.63 131.49 L 705.53 131.49 L 707.44 131.49 L 709.35 131.49 L 711.26 131.49 L 713.16 131.49 L 715.07 131.49 L 716.98 131.49 L 718.88 131.49 L 720.79 131.49 L 722.70 131.49 L 724.60 131.49 L 726.51 131.49 L 728.42 131.49 L 730.33 131.49 L 732.23 131.49 L 734.14 131.49 L 736.05 131.49 L 737.95 131.49 L 739.86 131.49 L 741.77 131.49 L 743.67 131.49 L 745.58 131.49 L 747.49 131.49 L 749.40 131.49 L 751.30 131.49 L 753.21 131.49 L 755.12 131.49 L 757.02 131.49 L 758.93 131.49 L 760.84 131.49 L 762.74 131.49 L 764.65 131.49 L 766.56 131.49 L 768.47 131.49 L 770.37 131.49 L 772.28 131.49 L 774.19 131.49 L 776.09 131.49 L 778.00 131.49 L 779.91 131.49 L 781.81 131.49 L 783.72 131.49 L 785.63 131.49 L 787.53 131.49 L 789.44 131.49 L 791.35 131.49 L 793.26 131.49 L 795.16 131.49 L 797.07 131.49 L 798.98 131.49 L 800.88 131.49 L 802.79 131.49 L 804.70 131.49 L 806.60 131.49 L 808.51 131.49 L 810.42 131.49 L 812.33 131.49 L 814.23 131.49 L 816.14 131.49 L 818.05 131.49 L 819.95 131.49 L 821.86 131.49 L 823.77 131.49 L 825.67 131.49 L 827.58 131.49 L 829.49 131.49 L 831.40 131.49 L 833.30 131.49 L 835.21 131.49 L 837.12 131.49 L 839.02 131.49 L 840.93 131.49 L 842.84 131.49 L 844.74 131.49 L 846.65 131.49 L 848.56 131.49 L 850.47 131.49 L 852.37 131.49 L 854.28 131.49 L 856.19 131.49 L 858.09 131.49 L 860.00 131.49" fill="none" stroke="#3fb950" stroke-width="2"/>
    <circle cx="860.00" cy="131.49" r="3" fill="#3fb950"/>
    <text x="40.00" y="235.00" font-size="9" fill="#c9d1d9" text-anchor="middle" transform="rotate(-45 40.00 235.00)">27.09.2025</text><text x="122.00" y="235.00" font-size="9" fill="#c9d1d9" text-anchor="middle" transform="rotate(-45 122.00 235.00)">28.09.2025</text><text x="204.00" y="235.00" font-size="9" fill="#c9d1d9" text-anchor="middle" transform="rotate(-45 204.00 235.00)">29.09.2025</text><text x="286.00" y="235.00" font-size="9" fill="#c9d1d9" text-anchor="middle" transform="rotate(-45 286.00 235.00)">04.10.2025</text><text x="368.00" y="235.00" font-size="9" fill="#c9d1d9" text-anchor="middle" transform="rotate(-45 368.00 235.00)">04.10.2025</text><text x="450.00" y="235.00" font-size="9" fill="#c9d1d9" text-anchor="middle" transform="rotate(-45 450.00 235.00)">04.10.2025</text><text x="532.00" y="235.00" font-size="9" fill="#c9d1d9" text-anchor="middle" transform="rotate(-45 532.00 235.00)">05.10.2025</text><text x="614.00" y="235.00" font-size="9" fill="#c9d1d9" text-anchor="middle" transform="rotate(-45 614.00 235.00)">09.10.2025</text><text x="696.00" y="235.00" font-size="9" fill="#c9d1d9" text-anchor="middle" transform="rotate(-45 696.00 235.00)">29.10.2025</text><text x="778.00" y="235.00" font-size="9" fill="#c9d1d9" text-anchor="middle" transform="rotate(-45 778.00 235.00)">11.12.2025</text><text x="860.00" y="235.00" font-size="9" fill="#c9d1d9" text-anchor="middle" transform="rotate(-45 860.00 235.00)">22.01.2026</text>
  </g>
</svg>