<svg xmlns="http://www.w3.org/2000/svg" width="900" height="290" style="font-family: -apple-system, BlinkMacSystemFont, 'Segoe UI', Helvetica, Arial, sans-serif;">
  <rect width="100%" height="100%" fill="#0d1117"/>
  <g>
    <line x1="40" y1="220.00" x2="860" y2="220.00" stroke="#30363d"/><text x="32" y="224.00" font-size="10" fill="#c9d1d9" text-anchor="end">0</text><line x1="40" y1="175.00" x2="860" y2="175.00" stroke="#30363d"/><text x="32" y="179.00" font-size="10" fill="#c9d1d9" text-anchor="end">25k</text><line x1="40" y1="130.00" x2="860" y2="130.00" stroke="#30363d"/><text x="32" y="134.00" font-size="10" fill="#c9d1d9" text-anchor="end">50k</text><line x1="40" y1="85.00" x2="860" y2="85.00" stroke="#30363d"/><text x="32" y="89.00" font-size="10" fill="#c9d1d9" text-anchor="end">75k</text><line x1="40" y1="40.00" x2="860" y2="40.00" stroke="#30363d"/><text x="32" y="44.00" font-size="10" fill="#c9d1d9" text-anchor="end">100k</text>
    <line x1="40.00" y1="40" x2="40.00" y2="220" stroke="#30363d" opacity="0.5"/><line x1="122.21" y1="40" x2="122.21" y2="220" stroke="#30363d" opacity="0.5"/><line x1="204.42" y1="40" x2="204.42" y2="220" stroke="#30363d" opacity="0.5"/><line x1="286.63" y1="40" x2="286.63" y2="220" stroke="#30363d" opacity="0.5"/><line x1="368.84" y1="40" x2="368.84" y2="220" stroke="#30363d" opacity="0.5"/><line x1="451.05" y1="40" x2="451.05" y2="220" stroke="#30363d" opacity="0.5"/><line x1="533.26" y1="40" x2="533.26" y2="220" stroke="#30363d" opacity="0.5"/><line x1="615.48" y1="40" x2="615.48" y2="220" stroke="#30363d" opacity="0.5"/><line x1="697.69" y1="40" x2="697.69" y2="220" stroke="#30363d" opacity="0.5"/><line x1="779.90" y1="40" x2="779.90" y2="220" stroke="#30363d" opacity="0.5"/>
    <line x1="40" y1="220" x2="860" y2="220" stroke="#30363d"/>
    <line x1="40" y1="40"   x2="40"   y2="220" stroke="#30363d"/>
    <path d="M 40.00 220.00 L 42.11 220.00 L 44.22 219.60 L 46.32 219.62 L 48.43 219.63 L 50.54 219.32 L 52.65 219.31 L 54.76 219.26 L 56.86 218.89 L 58.97 218.89 L 61.08 218.89 L 63.19 218.87 L 65.30 218.87 L 67.40 218.86 L 69.51 218.85 L 71.62 218.85 L 73.73 218.82 L 75.84 218.78 L 77.94 218.72 L 80.05 218.68 L 82.16 218.64 L 84.27 218.59 L 86.38 218.59 L 88.48 218.57 L 90.59 218.57 L 92.70 218.57 L 94.81 218.57 L 96.92 218.57 L 99.02 218.57 L 101.13 218.57 L 103.24 218.57 L 105.35 218.57 L 107.46 218.55 L 109.56 218.54 L 111.67 218.58 L 113.78 218.55 L 115.89 218.55 L 117.99 218.53 L 120.10 218.31 L 122.21 217.94 L 124.32 217.88 L 126.43 217.87 L 128.53 217.86 L 130.64 217.85 L 132.75 217.84 L 134.86 217.85 L 136.97 217.82 L 139.07 217.66 L 141.18 217.61 L 143.29 217.60 L 145.40 217.57 L 147.51 217.56 L 149.61 217.52 L 151.72 217.38 L 153.83 217.24 L 155.94 216.93 L 158.05 216.65 L 160.15 216.44 L 162.26 216.39 L 164.37 216.34 L 166.48 216.83 L 168.59 200.94 L 170.69 200.94 L 172.80 200.95 L 174.91 198.99 L 177.02 198.98 L 179.13 198.94 L 181.23 198.94 L 183.34 198.91 L 185.45 198.90 L 187.56 198.93 L 189.67 198.93 L 191.77 198.99 L 193.88 198.95 L 195.99 198.96 L 198.10 198.95 L 200.21 198.95 L 202.31 198.97 L 204.42 198.97 L 206.53 198.97 L 208.64 198.97 L 210.75 198.97 L 212.85 198.97 L 214.96 198.97 L 217.07 198.97 L 219.18 198.97 L 221.29 198.97 L 223.39 198.97 L 225.50 197.51 L 227.61 197.43 L 229.72 197.40 L 231.83 197.38 L 233.93 197.38 L 236.04 197.49 L 238.15 197.34 L 240.26 197.33 L 242.37 197.18 L 244.47 197.41 L 246.58 197.41 L 248.69 197.29 L 250.80 197.29 L 252.90 197.22 L 255.01 197.21 L 257.12 197.15 L 259.23 196.94 L 261.34 197.00 L 263.44 197.41 L 265.55 197.41 L 267.66 197.30 L 269.77 197.26 L 271.88 197.19 L 273.98 197.19 L 276.09 197.19 L 278.20 197.19 L 280.31 197.18 L 282.42 197.12 L 284.52 197.09 L 286.63 197.04 L 288.74 197.00 L 290.85 196.96 L 292.96 196.92 L 295.06 196.91 L 297.17 196.86 L 299.28 196.80 L 301.39 196.75 L 303.50 196.69 L 305.60 196.66 L 307.71 196.63 L 309.82 196.56 L 311.93 196.51 L 314.04 196.47 L 316.14 196.45 L 318.25 196.40 L 320.36 196.37 L 322.47 196.34 L 324.58 196.28 L 326.68 196.20 L 328.79 196.12 L 330.90 196.02 L 333.01 195.89 L 335.12 195.77 L 337.22 195.68 L 339.33 195.63 L 341.44 195.58 L 343.55 195.53 L 345.66 195.44 L 347.76 195.35 L 349.87 195.22 L 351.98 195.11 L 354.09 194.95 L 356.20 194.82 L 358.30 194.68 L 360.41 194.57 L 362.52 194.55 L 364.63 194.51 L 366.74 194.48 L 368.84 194.44 L 370.95 194.40 L 373.06 194.37 L 375.17 194.34 L 377.28 194.29 L 379.38 194.25 L 381.49 194.23 L 383.60 194.21 L 385.71 194.19 L 387.81 194.16 L 389.92 194.12 L 392.03 194.07 L 394.14 193.99 L 396.25 193.94 L 398.35 193.87 L 400.46 193.80 L 402.57 193.74 L 404.68 193.72 L 406.79 193.70 L 408.89 193.66 L 411.00 193.62 L 413.11 193.56 L 415.22 193.49 L 417.33 193.43 L 419.43 193.35 L 421.54 193.27 L 423.65 193.20 L 425.76 193.14 L 427.87 193.15 L 429.97 193.15 L 432.08 193.15 L 434.19 193.18 L 436.30 193.09 L 438.41 193.07 L 440.51 193.07 L 442.62 193.08 L 444.73 193.00 L 446.84 192.95 L 448.95 192.95 L 451.05 192.95 L 453.16 192.95 L 455.27 192.80 L 457.38 192.73 L 459.49 192.69 L 461.59 192.67 L 463.70 192.67 L 465.81 192.68 L 467.92 192.64 L 470.03 192.63 L 472.13 192.63 L 474.24 190.39 L 476.35 189.96 L 478.46 189.85 L 480.57 189.53 L 482.67 189.52 L 484.78 189.36 L 486.89 187.79 L 489.00 187.36 L 491.11 181.35 L 493.21 181.35 L 495.32 180.72 L 497.43 180.71 L 499.54 180.26 L 501.65 179.68 L 503.75 179.67 L 505.86 178.77 L 507.97 177.57 L 510.08 175.55 L 512.19 174.52 L 514.29 173.86 L 516.40 174.17 L 518.51 173.10 L 520.62 173.10 L 522.72 171.18 L 524.83 168.37 L 526.94 168.37 L 529.05 165.86 L 531.16 163.63 L 533.26 163.63 L 535.37 163.62 L 537.48 162.88 L 539.59 161.06 L 541.70 193.89 L 543.80 193.22 L 545.91 192.73 L 548.02 192.34 L 550.13 189.45 L 552.24 188.03 L 554.34 188.03 L 556.45 180.86 L 558.56 148.96 L 560.67 144.25 L 562.78 176.00 L 564.88 176.17 L 566.99 175.77 L 569.10 175.72 L 571.21 197.26 L 573.32 197.26 L 575.42 197.06 L 577.53 196.44 L 579.64 194.49 L 581.75 194.50 L 583.86 194.49 L 585.96 194.49 L 588.07 194.49 L 590.18 194.48 L 592.29 194.48 L 594.40 194.62 L 596.50 206.08 L 598.61 206.08 L 600.72 206.05 L 602.83 206.04 L 604.94 205.22 L 607.04 204.28 L 609.15 204.28 L 611.26 204.28 L 613.37 200.22 L 615.48 204.28 L 617.58 204.28 L 619.69 204.28 L 621.80 198.60 L 623.91 198.60 L 626.02 198.60 L 628.12 198.60 L 630.23 193.00 L 632.34 193.00 L 634.45 188.39 L 636.56 188.39 L 638.66 179.75 L 640.77 174.84 L 642.88 173.23 L 644.99 170.37 L 647.10 169.87 L 649.20 153.88 L 651.31 149.24 L 653.42 152.04 L 655.53 141.93 L 657.63 141.88 L 659.74 141.69 L 661.85 141.69 L 663.96 141.76 L 666.07 141.75 L 668.17 140.68 L 670.28 141.38 L 672.39 141.36 L 674.50 141.83 L 676.61 141.39 L 678.71 141.39 L 680.82 141.52 L 682.93 141.52 L 685.04 141.53 L 687.15 142.33 L 689.25 141.73 L 691.36 141.68 L 693.47 141.68 L 695.58 141.66 L 697.69 141.67 L 699.79 141.65 L 701.90 139.51 L 704.01 136.07 L 706.12 136.04 L 708.23 133.43 L 710.33 131.89 L 712.44 131.13 L 714.55 131.51 L 716.66 131.50 L 718.77 131.57 L 720.87 131.56 L 722.98 131.49 L 725.09 131.49 L 727.20 131.49 L 729.31 131.49 L 731.41 131.49 L 733.52 131.49 L 735.63 131.49 L 737.74 131.49 L 739.85 131.49 L 741.95 131.49 L 744.06 131.49 L 746.17 131.49 L 748.28 131.49 L 750.39 131.49 L 752.49 131.49 L 754.60 131.49 L 756.71 131.49 L 758.82 131.49 L 760.93 131.49 L 763.03 131.49 L 765.14 131.49 L 767.25 131.49 L 769.36 131.49 L 771.47 131.49 L 773.57 131.49 L 775.68 131.49 L 777.79 131.49 L 779.90 131.49 L 782.01 131.49 L 784.11 131.49 L 786.22 131.49 L 788.33 131.49 L 790.44 131.49 L 792.54 131.49 L 794.65 131.49 L 796.76 131.49 L 798.87 131.49 L 800.98 131.49 L 803.08 131.49 L 805.19 131.49 L 807.30 131.49 L 809.41 131.49 L 811.52 131.49 L 813.62 131.49 L 815.73 131.49 L 817.84 131.49 L 819.95 131.49 L 822.06 131.49 L 824.16 131.49 L 826.27 131.49 L 828.38 131.49 L 830.49 131.49 L 832.60 131.49 L 834.70 131.49 L 836.81 131.49 L 838.92 131.49 L 841.03 131.49 L 843.14 131.49 L 845.24 131.49 L 847.35 131.49 L 849.46 131.49 L 851.57 131.49 L 853.68 131.49 L 855.78 131.49 L 857.89 131.49 L 860.00 131.49" fill="none" stroke="#3fb950" stroke-width="2"/>
    <circle cx="860.00" cy="131.49" r="3" fill="#3fb950"/>
    <text x="40.00" y="235.00" font-size="9" fill="#c9d1d9" text-anchor="middle" transform="rotate(-45 40.00 235.00)">27.09.2025</text><text x="122.21" y="235.00" font-size="9" fill="#c9d1d9" text-anchor="middle" transform="rotate(-45 122.21 235.00)">28.09.2025</text><text x="204.42" y="235.00" font-size="9" fill="#c9d1d9" text-anchor="middle" transform="rotate(-45 204.42 235.00)">29.09.2025</text><text x="286.63" y="235.00" font-size="9" fill="#c9d1d9" text-anchor="middle" transform="rotate(-45 286.63 235.00)">04.10.2025</text><text x="368.84" y="235.00" font-size="9" fill="#c9d1d9" text-anchor="middle" transform="rotate(-45 368.84 235.00)">04.10.2025</text><text x="451.05" y="235.00" font-size="9" fill="#c9d1d9" text-anchor="middle" transform="rotate(-45 451.05 235.00)">04.10.2025</text><text x="533.26" y="235.00" font-size="9" fill="#c9d1d9" text-anchor="middle" transform="rotate(-45 533.26 235.00)">04.10.2025</text><text x="615.48" y="235.00" font-size="9" fill="#c9d1d9" text-anchor="middle" transform="rotate(-45 615.48 235.00)">07.10.2025</text><text x="697.69" y="235.00" font-size="9" fill="#c9d1d9" text-anchor="middle" transform="rotate(-45 697.69 235.00)">09.10.2025</text><text x="779.90" y="235.00" font-size="9" fill="#c9d1d9" text-anchor="middle" transform="rotate(-45 779.90 235.00)">05.11.2025</text>
  </g>
</svg>