<svg xmlns="http://www.w3.org/2000/svg" width="900" height="290" style="font-family: -apple-system, BlinkMacSystemFont, 'Segoe UI', Helvetica, Arial, sans-serif;">
  <rect width="100%" height="100%" fill="#0d1117"/>
  <g>
    <line x1="40" y1="220.00" x2="860" y2="220.00" stroke="#30363d"/><text x="32" y="224.00" font-size="10" fill="#c9d1d9" text-anchor="end">0</text><line x1="40" y1="175.00" x2="860" y2="175.00" stroke="#30363d"/><text x="32" y="179.00" font-size="10" fill="#c9d1d9" text-anchor="end">25k</text><line x1="40" y1="130.00" x2="860" y2="130.00" stroke="#30363d"/><text x="32" y="134.00" font-size="10" fill="#c9d1d9" text-anchor="end">50k</text><line x1="40" y1="85.00" x2="860" y2="85.00" stroke="#30363d"/><text x="32" y="89.00" font-size="10" fill="#c9d1d9" text-anchor="end">75k</text><line x1="40" y1="40.00" x2="860" y2="40.00" stroke="#30363d"/><text x="32" y="44.00" font-size="10" fill="#c9d1d9" text-anchor="end">100k</text>
    <line x1="40.00" y1="40" x2="40.00" y2="220" stroke="#30363d" opacity="0.5"/><line x1="120.43" y1="40" x2="120.43" y2="220" stroke="#30363d" opacity="0.5"/><line x1="200.86" y1="40" x2="200.86" y2="220" stroke="#30363d" opacity="0.5"/><line x1="281.29" y1="40" x2="281.29" y2="220" stroke="#30363d" opacity="0.5"/><line x1="361.72" y1="40" x2="361.72" y2="220" stroke="#30363d" opacity="0.5"/><line x1="442.15" y1="40" x2="442.15" y2="220" stroke="#30363d" opacity="0.5"/><line x1="522.58" y1="40" x2="522.58" y2="220" stroke="#30363d" opacity="0.5"/><line x1="603.01" y1="40" x2="603.01" y2="220" stroke="#30363d" opacity="0.5"/><line x1="683.44" y1="40" x2="683.44" y2="220" stroke="#30363d" opacity="0.5"/><line x1="763.88" y1="40" x2="763.88" y2="220" stroke="#30363d" opacity="0.5"/><line x1="844.31" y1="40" x2="844.31" y2="220" stroke="#30363d" opacity="0.5"/>
    <line x1="40" y1="220" x2="860" y2="220" stroke="#30363d"/>
    <line x1="40" y1="40"   x2="40"   y2="220" stroke="#30363d"/>
    <path d="M 40.00 220.00 L 41.96 220.00 L 43.92 219.60 L 45.89 219.62 L 47.85 219.63 L 49.81 219.32 L 51.77 219.31 L 53.73 219.26 L 55.69 218.89 L 57.66 218.89 L 59.62 218.89 L 61.58 218.87 L 63.54 218.87 L 65.50 218.86 L 67.46 218.85 L 69.43 218.85 L 71.39 218.82 L 73.35 218.78 L 75.31 218.72 L 77.27 218.68 L 79.23 218.64 L 81.20 218.59 L 83.16 218.59 L 85.12 218.57 L 87.08 218.57 L 89.04 218.57 L 91.00 218.57 L 92.97 218.57 L 94.93 218.57 L 96.89 218.57 L 98.85 218.57 L 100.81 218.57 L 102.78 218.55 L 104.74 218.54 L 106.70 218.58 L 108.66 218.55 L 110.62 218.55 L 112.58 218.53 L 114.55 218.31 L 116.51 217.94 L 118.47 217.88 L 120.43 217.87 L 122.39 217.86 L 124.35 217.85 L 126.32 217.84 L 128.28 217.85 L 130.24 217.82 L 132.20 217.66 L 134.16 217.61 L 136.12 217.60 L 138.09 217.57 L 140.05 217.56 L 142.01 217.52 L 143.97 217.38 L 145.93 217.24 L 147.89 216.93 L 149.86 216.65 L 151.82 216.44 L 153.78 216.39 L 155.74 216.34 L 157.70 216.83 L 159.67 200.94 L 161.63 200.94 L 163.59 200.95 L 165.55 198.99 L 167.51 198.98 L 169.47 198.94 L 171.44 198.94 L 173.40 198.91 L 175.36 198.90 L 177.32 198.93 L 179.28 198.93 L 181.24 198.99 L 183.21 198.95 L 185.17 198.96 L 187.13 198.95 L 189.09 198.95 L 191.05 198.97 L 193.01 198.97 L 194.98 198.97 L 196.94 198.97 L 198.90 198.97 L 200.86 198.97 L 202.82 198.97 L 204.78 198.97 L 206.75 198.97 L 208.71 198.97 L 210.67 198.97 L 212.63 197.51 L 214.59 197.43 L 216.56 197.40 L 218.52 197.38 L 220.48 197.38 L 222.44 197.49 L 224.40 197.34 L 226.36 197.33 L 228.33 197.18 L 230.29 197.41 L 232.25 197.41 L 234.21 197.29 L 236.17 197.29 L 238.13 197.22 L 240.10 197.21 L 242.06 197.15 L 244.02 196.94 L 245.98 197.00 L 247.94 197.41 L 249.90 197.41 L 251.87 197.30 L 253.83 197.26 L 255.79 197.19 L 257.75 197.19 L 259.71 197.19 L 261.67 197.19 L 263.64 197.18 L 265.60 197.12 L 267.56 197.09 L 269.52 197.04 L 271.48 197.00 L 273.44 196.96 L 275.41 196.92 L 277.37 196.91 L 279.33 196.86 L 281.29 196.80 L 283.25 196.75 L 285.22 196.69 L 287.18 196.66 L 289.14 196.63 L 291.10 196.56 L 293.06 196.51 L 295.02 196.47 L 296.99 196.45 L 298.95 196.40 L 300.91 196.37 L 302.87 196.34 L 304.83 196.28 L 306.79 196.20 L 308.76 196.12 L 310.72 196.02 L 312.68 195.89 L 314.64 195.77 L 316.60 195.68 L 318.56 195.63 L 320.53 195.58 L 322.49 195.53 L 324.45 195.44 L 326.41 195.35 L 328.37 195.22 L 330.33 195.11 L 332.30 194.95 L 334.26 194.82 L 336.22 194.68 L 338.18 194.57 L 340.14 194.55 L 342.11 194.51 L 344.07 194.48 L 346.03 194.44 L 347.99 194.40 L 349.95 194.37 L 351.91 194.34 L 353.88 194.29 L 355.84 194.25 L 357.80 194.23 L 359.76 194.21 L 361.72 194.19 L 363.68 194.16 L 365.65 194.12 L 367.61 194.07 L 369.57 193.99 L 371.53 193.94 L 373.49 193.87 L 375.45 193.80 L 377.42 193.74 L 379.38 193.72 L 381.34 193.70 L 383.30 193.66 L 385.26 193.62 L 387.22 193.56 L 389.19 193.49 L 391.15 193.43 L 393.11 193.35 L 395.07 193.27 L 397.03 193.20 L 399.00 193.14 L 400.96 193.15 L 402.92 193.15 L 404.88 193.15 L 406.84 193.18 L 408.80 193.09 L 410.77 193.07 L 412.73 193.07 L 414.69 193.08 L 416.65 193.00 L 418.61 192.95 L 420.57 192.95 L 422.54 192.95 L 424.50 192.95 L 426.46 192.80 L 428.42 192.73 L 430.38 192.69 L 432.34 192.67 L 434.31 192.67 L 436.27 192.68 L 438.23 192.64 L 440.19 192.63 L 442.15 192.63 L 444.11 190.39 L 446.08 189.96 L 448.04 189.85 L 450.00 189.53 L 451.96 189.52 L 453.92 189.36 L 455.89 187.79 L 457.85 187.36 L 459.81 181.35 L 461.77 181.35 L 463.73 180.72 L 465.69 180.71 L 467.66 180.26 L 469.62 179.68 L 471.58 179.67 L 473.54 178.77 L 475.50 177.57 L 477.46 175.55 L 479.43 174.52 L 481.39 173.86 L 483.35 174.17 L 485.31 173.10 L 487.27 173.10 L 489.23 171.18 L 491.20 168.37 L 493.16 168.37 L 495.12 165.86 L 497.08 163.63 L 499.04 163.63 L 501.00 163.62 L 502.97 162.88 L 504.93 161.06 L 506.89 193.89 L 508.85 193.22 L 510.81 192.73 L 512.78 192.34 L 514.74 189.45 L 516.70 188.03 L 518.66 188.03 L 520.62 180.86 L 522.58 148.96 L 524.55 144.25 L 526.51 176.00 L 528.47 176.17 L 530.43 175.77 L 532.39 175.72 L 534.35 197.26 L 536.32 197.26 L 538.28 197.06 L 540.24 196.44 L 542.20 194.49 L 544.16 194.50 L 546.12 194.49 L 548.09 194.49 L 550.05 194.49 L 552.01 194.48 L 553.97 194.48 L 555.93 194.62 L 557.89 206.08 L 559.86 206.08 L 561.82 206.05 L 563.78 206.04 L 565.74 205.22 L 567.70 204.28 L 569.67 204.28 L 571.63 204.28 L 573.59 200.22 L 575.55 204.28 L 577.51 204.28 L 579.47 204.28 L 581.44 198.60 L 583.40 198.60 L 585.36 198.60 L 587.32 198.60 L 589.28 193.00 L 591.24 193.00 L 593.21 188.39 L 595.17 188.39 L 597.13 179.75 L 599.09 174.84 L 601.05 173.23 L 603.01 170.37 L 604.98 169.87 L 606.94 153.88 L 608.90 149.24 L 610.86 152.04 L 612.82 141.93 L 614.78 141.88 L 616.75 141.69 L 618.71 141.69 L 620.67 141.76 L 622.63 141.75 L 624.59 140.68 L 626.56 141.38 L 628.52 141.36 L 630.48 141.83 L 632.44 141.39 L 634.40 141.39 L 636.36 141.52 L 638.33 141.52 L 640.29 141.53 L 642.25 142.33 L 644.21 141.73 L 646.17 141.68 L 648.13 141.68 L 650.10 141.66 L 652.06 141.67 L 654.02 141.65 L 655.98 139.51 L 657.94 136.07 L 659.90 136.04 L 661.87 133.43 L 663.83 131.89 L 665.79 131.13 L 667.75 131.51 L 669.71 131.50 L 671.67 131.57 L 673.64 131.56 L 675.60 131.49 L 677.56 131.49 L 679.52 131.49 L 681.48 131.49 L 683.44 131.49 L 685.41 131.49 L 687.37 131.49 L 689.33 131.49 L 691.29 131.49 L 693.25 131.49 L 695.22 131.49 L 697.18 131.49 L 699.14 131.49 L 701.10 131.49 L 703.06 131.49 L 705.02 131.49 L 706.99 131.49 L 708.95 131.49 L 710.91 131.49 L 712.87 131.49 L 714.83 131.49 L 716.79 131.49 L 718.76 131.49 L 720.72 131.49 L 722.68 131.49 L 724.64 131.49 L 726.60 131.49 L 728.56 131.49 L 730.53 131.49 L 732.49 131.49 L 734.45 131.49 L 736.41 131.49 L 738.37 131.49 L 740.33 131.49 L 742.30 131.49 L 744.26 131.49 L 746.22 131.49 L 748.18 131.49 L 750.14 131.49 L 752.11 131.49 L 754.07 131.49 L 756.03 131.49 L 757.99 131.49 L 759.95 131.49 L 761.91 131.49 L 763.88 131.49 L 765.84 131.49 L 767.80 131.49 L 769.76 131.49 L 771.72 131.49 L 773.68 131.49 L 775.65 131.49 L 777.61 131.49 L 779.57 131.49 L 781.53 131.49 L 783.49 131.49 L 785.45 131.49 L 787.42 131.49 L 789.38 131.49 L 791.34 131.49 L 793.30 131.49 L 795.26 131.49 L 797.22 131.49 L 799.19 131.49 L 801.15 131.49 L 803.11 131.49 L 805.07 131.49 L 807.03 131.49 L 809.00 131.49 L 810.96 131.49 L 812.92 131.49 L 814.88 131.49 L 816.84 131.49 L 818.80 131.49 L 820.77 131.49 L 822.73 131.49 L 824.69 131.49 L 826.65 131.49 L 828.61 131.49 L 830.57 131.49 L 832.54 131.49 L 834.50 131.49 L 836.46 131.49 L 838.42 131.49 L 840.38 131.49 L 842.34 131.49 L 844.31 131.49 L 846.27 131.49 L 848.23 131.49 L 850.19 131.49 L 852.15 131.49 L 854.11 131.49 L 856.08 131.49 L 858.04 131.49 L 860.00 131.49" fill="none" stroke="#3fb950" stroke-width="2"/>
    <circle cx="860.00" cy="131.49" r="3" fill="#3fb950"/>
    <text x="40.00" y="235.00" font-size="9" fill="#c9d1d9" text-anchor="middle" transform="rotate(-45 40.00 235.00)">27.09.2025</text><text x="120.43" y="235.00" font-size="9" fill="#c9d1d9" text-anchor="middle" transform="rotate(-45 120.43 235.00)">28.09.2025</text><text x="200.86" y="235.00" font-size="9" fill="#c9d1d9" text-anchor="middle" transform="rotate(-45 200.86 235.00)">29.09.2025</text><text x="281.29" y="235.00" font-size="9" fill="#c9d1d9" text-anchor="middle" transform="rotate(-45 281.29 235.00)">04.10.2025</text><text x="361.72" y="235.00" font-size="9" fill="#c9d1d9" text-anchor="middle" transform="rotate(-45 361.72 235.00)">04.10.2025</text><text x="442.15" y="235.00" font-size="9" fill="#c9d1d9" text-anchor="middle" transform="rotate(-45 442.15 235.00)">04.10.2025</text><text x="522.58" y="235.00" font-size="9" fill="#c9d1d9" text-anchor="middle" transform="rotate(-45 522.58 235.00)">05.10.2025</text><text x="603.01" y="235.00" font-size="9" fill="#c9d1d9" text-anchor="middle" transform="rotate(-45 603.01 235.00)">08.10.2025</text><text x="683.44" y="235.00" font-size="9" fill="#c9d1d9" text-anchor="middle" transform="rotate(-45 683.44 235.00)">13.10.2025</text><text x="763.88" y="235.00" font-size="9" fill="#c9d1d9" text-anchor="middle" transform="rotate(-45 763.88 235.00)">23.11.2025</text><text x="844.31" y="235.00" font-size="9" fill="#c9d1d9" text-anchor="middle" transform="rotate(-45 844.31 235.00)">03.01.2026</text>
  </g>
</svg>