<svg xmlns="http://www.w3.org/2000/svg" width="900" height="290" style="font-family: -apple-system, BlinkMacSystemFont, 'Segoe UI', Helvetica, Arial, sans-serif;">
  <rect width="100%" height="100%" fill="white"/>
  <g>
    <line x1="40" y1="220.00" x2="860" y2="220.00" stroke="#e5e7eb"/><text x="32" y="224.00" font-size="10" fill="#111827" text-anchor="end">0</text><line x1="40" y1="175.00" x2="860" y2="175.00" stroke="#e5e7eb"/><text x="32" y="179.00" font-size="10" fill="#111827" text-anchor="end">25k</text><line x1="40" y1="130.00" x2="860" y2="130.00" stroke="#e5e7eb"/><text x="32" y="134.00" font-size="10" fill="#111827" text-anchor="end">50k</text><line x1="40" y1="85.00" x2="860" y2="85.00" stroke="#e5e7eb"/><text x="32" y="89.00" font-size="10" fill="#111827" text-anchor="end">75k</text><line x1="40" y1="40.00" x2="860" y2="40.00" stroke="#e5e7eb"/><text x="32" y="44.00" font-size="10" fill="#111827" text-anchor="end">100k</text>
    <line x1="40.00" y1="40" x2="40.00" y2="220" stroke="#e5e7eb" opacity="0.5"/><line x1="120.48" y1="40" x2="120.48" y2="220" stroke="#e5e7eb" opacity="0.5"/><line x1="200.95" y1="40" x2="200.95" y2="220" stroke="#e5e7eb" opacity="0.5"/><line x1="281.43" y1="40" x2="281.43" y2="220" stroke="#e5e7eb" opacity="0.5"/><line x1="361.91" y1="40" x2="361.91" y2="220" stroke="#e5e7eb" opacity="0.5"/><line x1="442.39" y1="40" x2="442.39" y2="220" stroke="#e5e7eb" opacity="0.5"/><line x1="522.86" y1="40" x2="522.86" y2="220" stroke="#e5e7eb" opacity="0.5"/><line x1="603.34" y1="40" x2="603.34" y2="220" stroke="#e5e7eb" opacity="0.5"/><line x1="683.82" y1="40" x2="683.82" y2="220" stroke="#e5e7eb" opacity="0.5"/><line x1="764.30" y1="40" x2="764.30" y2="220" stroke="#e5e7eb" opacity="0.5"/><line x1="844.77" y1="40" x2="844.77" y2="220" stroke="#e5e7eb" opacity="0.5"/>
    <line x1="40" y1="220" x2="860" y2="220" stroke="#9ca3af"/>
    <line x1="40" y1="40"   x2="40"   y2="220" stroke="#9ca3af"/>
    <path d="M 40.00 220.00 L 42.18 220.00 L 44.35 219.60 L 46.53 219.62 L 48.70 219.63 L 50.88 219.32 L 53.05 219.31 L 55.23 219.26 L 57.40 218.89 L 59.58 218.89 L 61.75 218.89 L 63.93 218.87 L 66.10 218.87 L 68.28 218.86 L 70.45 218.85 L 72.63 218.85 L 74.80 218.82 L 76.98 218.78 L 79.15 218.72 L 81.33 218.68 L 83.50 218.64 L 85.68 218.59 L 87.85 218.59 L 90.03 218.57 L 92.20 218.57 L 94.38 218.57 L 96.55 218.57 L 98.73 218.57 L 100.90 218.57 L 103.08 218.57 L 105.25 218.57 L 107.43 218.57 L 109.60 218.55 L 111.78 218.54 L 113.95 218.58 L 116.13 218.55 L 118.30 218.55 L 120.48 218.53 L 122.65 218.31 L 124.83 217.94 L 127.00 217.88 L 129.18 217.87 L 131.35 217.86 L 133.53 217.85 L 135.70 217.84 L 137.88 217.85 L 140.05 217.82 L 142.23 217.66 L 144.40 217.61 L 146.58 217.60 L 148.75 217.57 L 150.93 217.56 L 153.10 217.52 L 155.28 217.38 L 157.45 217.24 L 159.63 216.93 L 161.80 216.65 L 163.98 216.44 L 166.15 216.39 L 168.33 216.34 L 170.50 216.83 L 172.68 200.94 L 174.85 200.94 L 177.03 200.95 L 179.20 198.99 L 181.38 198.98 L 183.55 198.94 L 185.73 198.94 L 187.90 198.91 L 190.08 198.90 L 192.25 198.93 L 194.43 198.93 L 196.60 198.99 L 198.78 198.95 L 200.95 198.96 L 203.13 198.95 L 205.31 198.95 L 207.48 198.97 L 209.66 198.97 L 211.83 198.97 L 214.01 198.97 L 216.18 198.97 L 218.36 198.97 L 220.53 198.97 L 222.71 198.97 L 224.88 198.97 L 227.06 198.97 L 229.23 198.97 L 231.41 197.51 L 233.58 197.43 L 235.76 197.40 L 237.93 197.38 L 240.11 197.38 L 242.28 197.49 L 244.46 197.34 L 246.63 197.33 L 248.81 197.18 L 250.98 197.41 L 253.16 197.41 L 255.33 197.29 L 257.51 197.29 L 259.68 197.22 L 261.86 197.21 L 264.03 197.15 L 266.21 196.94 L 268.38 197.00 L 270.56 197.41 L 272.73 197.41 L 274.91 197.30 L 277.08 197.26 L 279.26 197.19 L 281.43 197.19 L 283.61 197.19 L 285.78 197.19 L 287.96 197.18 L 290.13 197.12 L 292.31 197.09 L 294.48 197.04 L 296.66 197.00 L 298.83 196.96 L 301.01 196.92 L 303.18 196.91 L 305.36 196.86 L 307.53 196.80 L 309.71 196.75 L 311.88 196.69 L 314.06 196.66 L 316.23 196.63 L 318.41 196.56 L 320.58 196.51 L 322.76 196.47 L 324.93 196.45 L 327.11 196.40 L 329.28 196.37 L 331.46 196.34 L 333.63 196.28 L 335.81 196.20 L 337.98 196.12 L 340.16 196.02 L 342.33 195.89 L 344.51 195.77 L 346.68 195.68 L 348.86 195.63 L 351.03 195.58 L 353.21 195.53 L 355.38 195.44 L 357.56 195.35 L 359.73 195.22 L 361.91 195.11 L 364.08 194.95 L 366.26 194.82 L 368.44 194.68 L 370.61 194.57 L 372.79 194.55 L 374.96 194.51 L 377.14 194.48 L 379.31 194.44 L 381.49 194.40 L 383.66 194.37 L 385.84 194.34 L 388.01 194.29 L 390.19 194.25 L 392.36 194.23 L 394.54 194.21 L 396.71 194.19 L 398.89 194.16 L 401.06 194.12 L 403.24 194.07 L 405.41 193.99 L 407.59 193.94 L 409.76 193.87 L 411.94 193.80 L 414.11 193.74 L 416.29 193.72 L 418.46 193.70 L 420.64 193.66 L 422.81 193.62 L 424.99 193.56 L 427.16 193.49 L 429.34 193.43 L 431.51 193.35 L 433.69 193.27 L 435.86 193.20 L 438.04 193.14 L 440.21 193.15 L 442.39 193.15 L 444.56 193.15 L 446.74 193.18 L 448.91 193.09 L 451.09 193.07 L 453.26 193.07 L 455.44 193.08 L 457.61 193.00 L 459.79 192.95 L 461.96 192.95 L 464.14 192.95 L 466.31 192.95 L 468.49 192.80 L 470.66 192.73 L 472.84 192.69 L 475.01 192.67 L 477.19 192.67 L 479.36 192.68 L 481.54 192.64 L 483.71 192.63 L 485.89 192.63 L 488.06 190.39 L 490.24 189.96 L 492.41 189.85 L 494.59 189.53 L 496.76 189.52 L 498.94 189.36 L 501.11 187.79 L 503.29 187.36 L 505.46 181.35 L 507.64 181.35 L 509.81 180.72 L 511.99 180.71 L 514.16 180.26 L 516.34 179.68 L 518.51 179.67 L 520.69 178.77 L 522.86 177.57 L 525.04 175.55 L 527.21 174.52 L 529.39 173.86 L 531.56 174.17 L 533.74 173.10 L 535.92 173.10 L 538.09 171.18 L 540.27 168.37 L 542.44 168.37 L 544.62 165.86 L 546.79 163.63 L 548.97 163.63 L 551.14 163.62 L 553.32 162.88 L 555.49 161.06 L 557.67 193.89 L 559.84 193.22 L 562.02 192.73 L 564.19 192.34 L 566.37 189.45 L 568.54 188.03 L 570.72 188.03 L 572.89 180.86 L 575.07 148.96 L 577.24 144.25 L 579.42 176.00 L 581.59 176.17 L 583.77 175.77 L 585.94 175.72 L 588.12 197.26 L 590.29 197.26 L 592.47 197.06 L 594.64 196.44 L 596.82 194.49 L 598.99 194.50 L 601.17 194.49 L 603.34 194.49 L 605.52 194.49 L 607.69 194.48 L 609.87 194.48 L 612.04 194.62 L 614.22 206.08 L 616.39 206.08 L 618.57 206.05 L 620.74 206.04 L 622.92 205.22 L 625.09 204.28 L 627.27 204.28 L 629.44 204.28 L 631.62 200.22 L 633.79 204.28 L 635.97 204.28 L 638.14 204.28 L 640.32 198.60 L 642.49 198.60 L 644.67 198.60 L 646.84 198.60 L 649.02 193.00 L 651.19 193.00 L 653.37 188.39 L 655.54 188.39 L 657.72 179.75 L 659.89 174.84 L 662.07 173.23 L 664.24 170.37 L 666.42 169.87 L 668.59 153.88 L 670.77 149.24 L 672.94 152.04 L 675.12 141.93 L 677.29 141.88 L 679.47 141.69 L 681.64 141.69 L 683.82 141.76 L 685.99 141.75 L 688.17 140.68 L 690.34 141.38 L 692.52 141.36 L 694.69 141.83 L 696.87 141.39 L 699.05 141.39 L 701.22 141.52 L 703.40 141.52 L 705.57 141.53 L 707.75 142.33 L 709.92 141.73 L 712.10 141.68 L 714.27 141.68 L 716.45 141.66 L 718.62 141.67 L 720.80 141.65 L 722.97 139.51 L 725.15 136.07 L 727.32 136.04 L 729.50 133.43 L 731.67 131.89 L 733.85 131.13 L 736.02 131.51 L 738.20 131.50 L 740.37 131.57 L 742.55 131.56 L 744.72 131.49 L 746.90 131.49 L 749.07 131.49 L 751.25 131.49 L 753.42 131.49 L 755.60 131.49 L 757.77 131.49 L 759.95 131.49 L 762.12 131.49 L 764.30 131.49 L 766.47 131.49 L 768.65 131.49 L 770.82 131.49 L 773.00 131.49 L 775.17 131.49 L 777.35 131.49 L 779.52 131.49 L 781.70 131.49 L 783.87 131.49 L 786.05 131.49 L 788.22 131.49 L 790.40 131.49 L 792.57 131.49 L 794.75 131.49 L 796.92 131.49 L 799.10 131.49 L 801.27 131.49 L 803.45 131.49 L 805.62 131.49 L 807.80 131.49 L 809.97 131.49 L 812.15 131.49 L 814.32 131.49 L 816.50 131.49 L 818.67 131.49 L 820.85 131.49 L 823.02 131.49 L 825.20 131.49 L 827.37 131.49 L 829.55 131.49 L 831.72 131.49 L 833.90 131.49 L 836.07 131.49 L 838.25 131.49 L 840.42 131.49 L 842.60 131.49 L 844.77 131.49 L 846.95 131.49 L 849.12 131.49 L 851.30 131.49 L 853.47 131.49 L 855.65 131.49 L 857.82 131.49 L 860.00 131.49" fill="none" stroke="#111827" stroke-width="2"/>
    <circle cx="860.00" cy="131.49" r="3" fill="#111827"/>
    <text x="40.00" y="235.00" font-size="9" fill="#111827" text-anchor="middle" transform="rotate(-45 40.00 235.00)">27.09.2025</text><text x="120.48" y="235.00" font-size="9" fill="#111827" text-anchor="middle" transform="rotate(-45 120.48 235.00)">28.09.2025</text><text x="200.95" y="235.00" font-size="9" fill="#111827" text-anchor="middle" transform="rotate(-45 200.95 235.00)">28.09.2025</text><text x="281.43" y="235.00" font-size="9" fill="#111827" text-anchor="middle" transform="rotate(-45 281.43 235.00)">04.10.2025</text><text x="361.91" y="235.00" font-size="9" fill="#111827" text-anchor="middle" transform="rotate(-45 361.91 235.00)">04.10.2025</text><text x="442.39" y="235.00" font-size="9" fill="#111827" text-anchor="middle" transform="rotate(-45 442.39 235.00)">04.10.2025</text><text x="522.86" y="235.00" font-size="9" fill="#111827" text-anchor="middle" transform="rotate(-45 522.86 235.00)">04.10.2025</text><text x="603.34" y="235.00" font-size="9" fill="#111827" text-anchor="middle" transform="rotate(-45 603.34 235.00)">05.10.2025</text><text x="683.82" y="235.00" font-size="9" fill="#111827" text-anchor="middle" transform="rotate(-45 683.82 235.00)">08.10.2025</text><text x="764.30" y="235.00" font-size="9" fill="#111827" text-anchor="middle" transform="rotate(-45 764.30 235.00)">18.10.2025</text><text x="844.77" y="235.00" font-size="9" fill="#111827" text-anchor="middle" transform="rotate(-45 844.77 235.00)">24.11.2025</text>
  </g>
</svg>