<svg xmlns="http://www.w3.org/2000/svg" width="900" height="290" style="font-family: -apple-system, BlinkMacSystemFont, 'Segoe UI', Helvetica, Arial, sans-serif;">
  <rect width="100%" height="100%" fill="white"/>
  <g>
    <line x1="40" y1="220.00" x2="860" y2="220.00" stroke="#e5e7eb"/><text x="32" y="224.00" font-size="10" fill="#111827" text-anchor="end">0</text><line x1="40" y1="175.00" x2="860" y2="175.00" stroke="#e5e7eb"/><text x="32" y="179.00" font-size="10" fill="#111827" text-anchor="end">12.5k</text><line x1="40" y1="130.00" x2="860" y2="130.00" stroke="#e5e7eb"/><text x="32" y="134.00" font-size="10" fill="#111827" text-anchor="end">25k</text><line x1="40" y1="85.00" x2="860" y2="85.00" stroke="#e5e7eb"/><text x="32" y="89.00" font-size="10" fill="#111827" text-anchor="end">37.5k</text><line x1="40" y1="40.00" x2="860" y2="40.00" stroke="#e5e7eb"/><text x="32" y="44.00" font-size="10" fill="#111827" text-anchor="end">50k</text>
    <line x1="40.00" y1="40" x2="40.00" y2="220" stroke="#e5e7eb" opacity="0.5"/><line x1="122.30" y1="40" x2="122.30" y2="220" stroke="#e5e7eb" opacity="0.5"/><line x1="204.61" y1="40" x2="204.61" y2="220" stroke="#e5e7eb" opacity="0.5"/><line x1="286.91" y1="40" x2="286.91" y2="220" stroke="#e5e7eb" opacity="0.5"/><line x1="369.22" y1="40" x2="369.22" y2="220" stroke="#e5e7eb" opacity="0.5"/><line x1="451.52" y1="40" x2="451.52" y2="220" stroke="#e5e7eb" opacity="0.5"/><line x1="533.83" y1="40" x2="533.83" y2="220" stroke="#e5e7eb" opacity="0.5"/><line x1="616.13" y1="40" x2="616.13" y2="220" stroke="#e5e7eb" opacity="0.5"/><line x1="698.44" y1="40" x2="698.44" y2="220" stroke="#e5e7eb" opacity="0.5"/><line x1="780.74" y1="40" x2="780.74" y2="220" stroke="#e5e7eb" opacity="0.5"/>
    <line x1="40" y1="220" x2="860" y2="220" stroke="#9ca3af"/>
    <line x1="40" y1="40"   x2="40"   y2="220" stroke="#9ca3af"/>
    <path d="M 40.00 220.00 L 43.05 220.00 L 46.10 219.20 L 49.14 219.25 L 52.19 219.25 L 55.24 218.64 L 58.29 218.62 L 61.34 218.52 L 64.39 217.78 L 67.43 217.78 L 70.48 217.78 L 73.53 217.73 L 76.58 217.74 L 79.63 217.72 L 82.68 217.70 L 85.72 217.70 L 88.77 217.63 L 91.82 217.56 L 94.87 217.45 L 97.92 217.36 L 100.97 217.27 L 104.01 217.18 L 107.06 217.18 L 110.11 217.14 L 113.16 217.14 L 116.21 217.14 L 119.26 217.14 L 122.30 217.14 L 125.35 217.14 L 128.40 217.14 L 131.45 217.14 L 134.50 217.14 L 137.55 217.10 L 140.59 217.08 L 143.64 217.15 L 146.69 217.11 L 149.74 217.11 L 152.79 217.06 L 155.84 216.62 L 158.88 215.89 L 161.93 215.76 L 164.98 215.73 L 168.03 215.72 L 171.08 215.70 L 174.13 215.68 L 177.17 215.70 L 180.22 215.64 L 183.27 215.31 L 186.32 215.22 L 189.37 215.20 L 192.42 215.14 L 195.46 215.13 L 198.51 215.03 L 201.56 214.77 L 204.61 214.47 L 207.66 213.85 L 210.71 213.29 L 213.75 212.88 L 216.80 212.79 L 219.85 212.68 L 222.90 213.67 L 225.95 181.87 L 229.00 181.89 L 232.04 181.89 L 235.09 177.97 L 238.14 177.96 L 241.19 177.88 L 244.24 177.88 L 247.29 177.81 L 250.33 177.80 L 253.38 177.87 L 256.43 177.87 L 259.48 177.98 L 262.53 177.91 L 265.58 177.92 L 268.62 177.91 L 271.67 177.91 L 274.72 177.94 L 277.77 177.94 L 280.82 177.94 L 283.87 177.94 L 286.91 177.94 L 289.96 177.94 L 293.01 177.94 L 296.06 177.95 L 299.11 177.94 L 302.16 177.94 L 305.20 177.94 L 308.25 175.03 L 311.30 174.85 L 314.35 174.80 L 317.40 174.77 L 320.45 174.76 L 323.49 174.99 L 326.54 174.69 L 329.59 174.66 L 332.64 174.35 L 335.69 174.82 L 338.74 174.82 L 341.78 174.59 L 344.83 174.58 L 347.88 174.43 L 350.93 174.42 L 353.98 174.30 L 357.03 173.88 L 360.07 174.00 L 363.12 174.83 L 366.17 174.82 L 369.22 174.60 L 372.27 174.51 L 375.32 174.37 L 378.36 174.37 L 381.41 174.37 L 384.46 174.37 L 387.51 174.36 L 390.56 174.24 L 393.61 174.18 L 396.65 174.09 L 399.70 174.00 L 402.75 173.92 L 405.80 173.84 L 408.85 173.81 L 411.90 173.73 L 414.94 173.60 L 417.99 173.50 L 421.04 173.39 L 424.09 173.32 L 427.14 173.25 L 430.19 173.11 L 433.23 173.01 L 436.28 172.93 L 439.33 172.89 L 442.38 172.80 L 445.43 172.74 L 448.48 172.68 L 451.52 172.57 L 454.57 172.40 L 457.62 172.25 L 460.67 172.05 L 463.72 171.78 L 466.77 171.54 L 469.81 171.36 L 472.86 171.26 L 475.91 171.17 L 478.96 171.06 L 482.01 170.89 L 485.06 170.70 L 488.10 170.44 L 491.15 170.21 L 494.20 169.90 L 497.25 169.64 L 500.30 169.37 L 503.35 169.13 L 506.39 169.10 L 509.44 169.03 L 512.49 168.96 L 515.54 168.88 L 518.59 168.79 L 521.64 168.73 L 524.68 168.68 L 527.73 168.58 L 530.78 168.51 L 533.83 168.46 L 536.88 168.42 L 539.93 168.38 L 542.97 168.33 L 546.02 168.25 L 549.07 168.13 L 552.12 167.98 L 555.17 167.88 L 558.22 167.74 L 561.26 167.60 L 564.31 167.49 L 567.36 167.44 L 570.41 167.40 L 573.46 167.31 L 576.51 167.23 L 579.55 167.12 L 582.60 166.98 L 585.65 166.86 L 588.70 166.69 L 591.75 166.54 L 594.80 166.40 L 597.84 166.28 L 600.89 166.29 L 603.94 166.30 L 606.99 166.30 L 610.04 166.37 L 613.09 166.18 L 616.13 166.14 L 619.18 166.15 L 622.23 166.15 L 625.28 166.01 L 628.33 165.89 L 631.38 165.89 L 634.42 165.89 L 637.47 165.89 L 640.52 165.60 L 643.57 165.46 L 646.62 165.38 L 649.67 165.34 L 652.71 165.34 L 655.76 165.35 L 658.81 165.27 L 661.86 165.27 L 664.91 165.27 L 667.96 160.77 L 671.00 159.91 L 674.05 159.69 L 677.10 159.05 L 680.15 159.05 L 683.20 158.73 L 686.25 155.57 L 689.29 154.71 L 692.34 142.69 L 695.39 142.69 L 698.44 141.44 L 701.49 141.41 L 704.54 140.51 L 707.58 139.36 L 710.63 139.35 L 713.68 137.55 L 716.73 135.14 L 719.78 131.10 L 722.83 129.04 L 725.87 127.72 L 728.92 128.34 L 731.97 126.21 L 735.02 126.21 L 738.07 122.35 L 741.12 116.74 L 744.16 116.74 L 747.21 111.72 L 750.26 107.25 L 753.31 107.25 L 756.36 107.24 L 759.41 105.75 L 762.45 102.13 L 765.50 167.79 L 768.55 166.43 L 771.60 165.47 L 774.65 164.67 L 777.70 158.90 L 780.74 156.05 L 783.79 156.05 L 786.84 141.73 L 789.89 77.92 L 792.94 68.51 L 795.99 132.01 L 799.03 132.34 L 802.08 131.53 L 805.13 131.45 L 808.18 174.52 L 811.23 174.52 L 814.28 174.13 L 817.32 172.88 L 820.37 168.98 L 823.42 168.99 L 826.47 168.97 L 829.52 168.97 L 832.57 168.97 L 835.61 168.97 L 838.66 168.97 L 841.71 169.23 L 844.76 192.15 L 847.81 192.15 L 850.86 192.10 L 853.90 192.09 L 856.95 190.44 L 860.00 188.56" fill="none" stroke="#111827" stroke-width="2"/>
    <circle cx="860.00" cy="188.56" r="3" fill="#111827"/>
    <text x="40.00" y="235.00" font-size="9" fill="#111827" text-anchor="middle" transform="rotate(-45 40.00 235.00)">27.09.2025</text><text x="122.30" y="235.00" font-size="9" fill="#111827" text-anchor="middle" transform="rotate(-45 122.30 235.00)">28.09.2025</text><text x="204.61" y="235.00" font-size="9" fill="#111827" text-anchor="middle" transform="rotate(-45 204.61 235.00)">28.09.2025</text><text x="286.91" y="235.00" font-size="9" fill="#111827" text-anchor="middle" transform="rotate(-45 286.91 235.00)">29.09.2025</text><text x="369.22" y="235.00" font-size="9" fill="#111827" text-anchor="middle" transform="rotate(-45 369.22 235.00)">30.09.2025</text><text x="451.52" y="235.00" font-size="9" fill="#111827" text-anchor="middle" transform="rotate(-45 451.52 235.00)">04.10.2025</text><text x="533.83" y="235.00" font-size="9" fill="#111827" text-anchor="middle" transform="rotate(-45 533.83 235.00)">04.10.2025</text><text x="616.13" y="235.00" font-size="9" fill="#111827" text-anchor="middle" transform="rotate(-45 616.13 235.00)">04.10.2025</text><text x="698.44" y="235.00" font-size="9" fill="#111827" text-anchor="middle" transform="rotate(-45 698.44 235.00)">04.10.2025</text><text x="780.74" y="235.00" font-size="9" fill="#111827" text-anchor="middle" transform="rotate(-45 780.74 235.00)">05.10.2025</text>
  </g>
</svg>