<svg xmlns="http://www.w3.org/2000/svg" width="900" height="290" style="font-family: -apple-system, BlinkMacSystemFont, 'Segoe UI', Helvetica, Arial, sans-serif;">
  <rect width="100%" height="100%" fill="#0d1117"/>
  <g>
    <line x1="40" y1="220.00" x2="860" y2="220.00" stroke="#30363d"/><text x="32" y="224.00" font-size="10" fill="#c9d1d9" text-anchor="end">0</text><line x1="40" y1="175.00" x2="860" y2="175.00" stroke="#30363d"/><text x="32" y="179.00" font-size="10" fill="#c9d1d9" text-anchor="end">25k</text><line x1="40" y1="130.00" x2="860" y2="130.00" stroke="#30363d"/><text x="32" y="134.00" font-size="10" fill="#c9d1d9" text-anchor="end">50k</text><line x1="40" y1="85.00" x2="860" y2="85.00" stroke="#30363d"/><text x="32" y="89.00" font-size="10" fill="#c9d1d9" text-anchor="end">75k</text><line x1="40" y1="40.00" x2="860" y2="40.00" stroke="#30363d"/><text x="32" y="44.00" font-size="10" fill="#c9d1d9" text-anchor="end">100k</text>
    <line x1="40.00" y1="40" x2="40.00" y2="220" stroke="#30363d" opacity="0.5"/><line x1="122.18" y1="40" x2="122.18" y2="220" stroke="#30363d" opacity="0.5"/><line x1="204.36" y1="40" x2="204.36" y2="220" stroke="#30363d" opacity="0.5"/><line x1="286.54" y1="40" x2="286.54" y2="220" stroke="#30363d" opacity="0.5"/><line x1="368.71" y1="40" x2="368.71" y2="220" stroke="#30363d" opacity="0.5"/><line x1="450.89" y1="40" x2="450.89" y2="220" stroke="#30363d" opacity="0.5"/><line x1="533.07" y1="40" x2="533.07" y2="220" stroke="#30363d" opacity="0.5"/><line x1="615.25" y1="40" x2="615.25" y2="220" stroke="#30363d" opacity="0.5"/><line x1="697.43" y1="40" x2="697.43" y2="220" stroke="#30363d" opacity="0.5"/><line x1="779.61" y1="40" x2="779.61" y2="220" stroke="#30363d" opacity="0.5"/>
    <line x1="40" y1="220" x2="860" y2="220" stroke="#30363d"/>
    <line x1="40" y1="40"   x2="40"   y2="220" stroke="#30363d"/>
    <path d="M 40.00 220.00 L 41.79 220.00 L 43.57 219.60 L 45.36 219.62 L 47.15 219.63 L 48.93 219.32 L 50.72 219.31 L 52.51 219.26 L 54.29 218.89 L 56.08 218.89 L 57.86 218.89 L 59.65 218.87 L 61.44 218.87 L 63.22 218.86 L 65.01 218.85 L 66.80 218.85 L 68.58 218.82 L 70.37 218.78 L 72.16 218.72 L 73.94 218.68 L 75.73 218.64 L 77.52 218.59 L 79.30 218.59 L 81.09 218.57 L 82.88 218.57 L 84.66 218.57 L 86.45 218.57 L 88.24 218.57 L 90.02 218.57 L 91.81 218.57 L 93.59 218.57 L 95.38 218.57 L 97.17 218.55 L 98.95 218.54 L 100.74 218.58 L 102.53 218.55 L 104.31 218.55 L 106.10 218.53 L 107.89 218.31 L 109.67 217.94 L 111.46 217.88 L 113.25 217.87 L 115.03 217.86 L 116.82 217.85 L 118.61 217.84 L 120.39 217.85 L 122.18 217.82 L 123.97 217.66 L 125.75 217.61 L 127.54 217.60 L 129.32 217.57 L 131.11 217.56 L 132.90 217.52 L 134.68 217.38 L 136.47 217.24 L 138.26 216.93 L 140.04 216.65 L 141.83 216.44 L 143.62 216.39 L 145.40 216.34 L 147.19 216.83 L 148.98 200.94 L 150.76 200.94 L 152.55 200.95 L 154.34 198.99 L 156.12 198.98 L 157.91 198.94 L 159.69 198.94 L 161.48 198.91 L 163.27 198.90 L 165.05 198.93 L 166.84 198.93 L 168.63 198.99 L 170.41 198.95 L 172.20 198.96 L 173.99 198.95 L 175.77 198.95 L 177.56 198.97 L 179.35 198.97 L 181.13 198.97 L 182.92 198.97 L 184.71 198.97 L 186.49 198.97 L 188.28 198.97 L 190.07 198.97 L 191.85 198.97 L 193.64 198.97 L 195.42 198.97 L 197.21 197.51 L 199.00 197.43 L 200.78 197.40 L 202.57 197.38 L 204.36 197.38 L 206.14 197.49 L 207.93 197.34 L 209.72 197.33 L 211.50 197.18 L 213.29 197.41 L 215.08 197.41 L 216.86 197.29 L 218.65 197.29 L 220.44 197.22 L 222.22 197.21 L 224.01 197.15 L 225.80 196.94 L 227.58 197.00 L 229.37 197.41 L 231.15 197.41 L 232.94 197.30 L 234.73 197.26 L 236.51 197.19 L 238.30 197.19 L 240.09 197.19 L 241.87 197.19 L 243.66 197.18 L 245.45 197.12 L 247.23 197.09 L 249.02 197.04 L 250.81 197.00 L 252.59 196.96 L 254.38 196.92 L 256.17 196.91 L 257.95 196.86 L 259.74 196.80 L 261.53 196.75 L 263.31 196.69 L 265.10 196.66 L 266.88 196.63 L 268.67 196.56 L 270.46 196.51 L 272.24 196.47 L 274.03 196.45 L 275.82 196.40 L 277.60 196.37 L 279.39 196.34 L 281.18 196.28 L 282.96 196.20 L 284.75 196.12 L 286.54 196.02 L 288.32 195.89 L 290.11 195.77 L 291.90 195.68 L 293.68 195.63 L 295.47 195.58 L 297.25 195.53 L 299.04 195.44 L 300.83 195.35 L 302.61 195.22 L 304.40 195.11 L 306.19 194.95 L 307.97 194.82 L 309.76 194.68 L 311.55 194.57 L 313.33 194.55 L 315.12 194.51 L 316.91 194.48 L 318.69 194.44 L 320.48 194.40 L 322.27 194.37 L 324.05 194.34 L 325.84 194.29 L 327.63 194.25 L 329.41 194.23 L 331.20 194.21 L 332.98 194.19 L 334.77 194.16 L 336.56 194.12 L 338.34 194.07 L 340.13 193.99 L 341.92 193.94 L 343.70 193.87 L 345.49 193.80 L 347.28 193.74 L 349.06 193.72 L 350.85 193.70 L 352.64 193.66 L 354.42 193.62 L 356.21 193.56 L 358.00 193.49 L 359.78 193.43 L 361.57 193.35 L 363.36 193.27 L 365.14 193.20 L 366.93 193.14 L 368.71 193.15 L 370.50 193.15 L 372.29 193.15 L 374.07 193.18 L 375.86 193.09 L 377.65 193.07 L 379.43 193.07 L 381.22 193.08 L 383.01 193.00 L 384.79 192.95 L 386.58 192.95 L 388.37 192.95 L 390.15 192.95 L 391.94 192.80 L 393.73 192.73 L 395.51 192.69 L 397.30 192.67 L 399.08 192.67 L 400.87 192.68 L 402.66 192.64 L 404.44 192.63 L 406.23 192.63 L 408.02 190.39 L 409.80 189.96 L 411.59 189.85 L 413.38 189.53 L 415.16 189.52 L 416.95 189.36 L 418.74 187.79 L 420.52 187.36 L 422.31 181.35 L 424.10 181.35 L 425.88 180.72 L 427.67 180.71 L 429.46 180.26 L 431.24 179.68 L 433.03 179.67 L 434.81 178.77 L 436.60 177.57 L 438.39 175.55 L 440.17 174.52 L 441.96 173.86 L 443.75 174.17 L 445.53 173.10 L 447.32 173.10 L 449.11 171.18 L 450.89 168.37 L 452.68 168.37 L 454.47 165.86 L 456.25 163.63 L 458.04 163.63 L 459.83 163.62 L 461.61 162.88 L 463.40 161.06 L 465.19 193.89 L 466.97 193.22 L 468.76 192.73 L 470.54 192.34 L 472.33 189.45 L 474.12 188.03 L 475.90 188.03 L 477.69 180.86 L 479.48 148.96 L 481.26 144.25 L 483.05 176.00 L 484.84 176.17 L 486.62 175.77 L 488.41 175.72 L 490.20 197.26 L 491.98 197.26 L 493.77 197.06 L 495.56 196.44 L 497.34 194.49 L 499.13 194.50 L 500.92 194.49 L 502.70 194.49 L 504.49 194.49 L 506.27 194.48 L 508.06 194.48 L 509.85 194.62 L 511.63 206.08 L 513.42 206.08 L 515.21 206.05 L 516.99 206.04 L 518.78 205.22 L 520.57 204.28 L 522.35 204.28 L 524.14 204.28 L 525.93 200.22 L 527.71 204.28 L 529.50 204.28 L 531.29 204.28 L 533.07 198.60 L 534.86 198.60 L 536.64 198.60 L 538.43 198.60 L 540.22 193.00 L 542.00 193.00 L 543.79 188.39 L 545.58 188.39 L 547.36 179.75 L 549.15 174.84 L 550.94 173.23 L 552.72 170.37 L 554.51 169.87 L 556.30 153.88 L 558.08 149.24 L 559.87 152.04 L 561.66 141.93 L 563.44 141.88 L 565.23 141.69 L 567.02 141.69 L 568.80 141.76 L 570.59 141.75 L 572.37 140.68 L 574.16 141.38 L 575.95 141.36 L 577.73 141.83 L 579.52 141.39 L 581.31 141.39 L 583.09 141.52 L 584.88 141.52 L 586.67 141.53 L 588.45 142.33 L 590.24 141.73 L 592.03 141.68 L 593.81 141.68 L 595.60 141.66 L 597.39 141.67 L 599.17 141.65 L 600.96 139.51 L 602.75 136.07 L 604.53 136.04 L 606.32 133.43 L 608.10 131.89 L 609.89 131.13 L 611.68 131.51 L 613.46 131.50 L 615.25 131.57 L 617.04 131.56 L 618.82 131.49 L 620.61 131.49 L 622.40 131.49 L 624.18 131.49 L 625.97 131.49 L 627.76 131.49 L 629.54 131.49 L 631.33 131.49 L 633.12 131.49 L 634.90 131.49 L 636.69 131.49 L 638.47 131.49 L 640.26 131.49 L 642.05 131.49 L 643.83 131.49 L 645.62 131.49 L 647.41 131.49 L 649.19 131.49 L 650.98 131.49 L 652.77 131.49 L 654.55 131.49 L 656.34 131.49 L 658.13 131.49 L 659.91 131.49 L 661.70 131.49 L 663.49 131.49 L 665.27 131.49 L 667.06 131.49 L 668.85 131.49 L 670.63 131.49 L 672.42 131.49 L 674.20 131.49 L 675.99 131.49 L 677.78 131.49 L 679.56 131.49 L 681.35 131.49 L 683.14 131.49 L 684.92 131.49 L 686.71 131.49 L 688.50 131.49 L 690.28 131.49 L 692.07 131.49 L 693.86 131.49 L 695.64 131.49 L 697.43 131.49 L 699.22 131.49 L 701.00 131.49 L 702.79 131.49 L 704.58 131.49 L 706.36 131.49 L 708.15 131.49 L 709.93 131.49 L 711.72 131.49 L 713.51 131.49 L 715.29 131.49 L 717.08 131.49 L 718.87 131.49 L 720.65 131.49 L 722.44 131.49 L 724.23 131.49 L 726.01 131.49 L 727.80 131.49 L 729.59 131.49 L 731.37 131.49 L 733.16 131.49 L 734.95 131.49 L 736.73 131.49 L 738.52 131.49 L 740.31 131.49 L 742.09 131.49 L 743.88 131.49 L 745.66 131.49 L 747.45 131.49 L 749.24 131.49 L 751.02 131.49 L 752.81 131.49 L 754.60 131.49 L 756.38 131.49 L 758.17 131.49 L 759.96 131.49 L 761.74 131.49 L 763.53 131.49 L 765.32 131.49 L 767.10 131.49 L 768.89 131.49 L 770.68 131.49 L 772.46 131.49 L 774.25 131.49 L 776.03 131.49 L 777.82 131.49 L 779.61 131.49 L 781.39 131.49 L 783.18 131.49 L 784.97 131.49 L 786.75 131.49 L 788.54 131.49 L 790.33 131.49 L 792.11 131.49 L 793.90 131.49 L 795.69 131.49 L 797.47 131.49 L 799.26 131.49 L 801.05 131.49 L 802.83 131.49 L 804.62 131.49 L 806.41 131.49 L 808.19 131.49 L 809.98 131.49 L 811.76 131.49 L 813.55 131.49 L 815.34 131.49 L 817.12 131.49 L 818.91 131.49 L 820.70 131.49 L 822.48 131.49 L 824.27 131.49 L 826.06 131.49 L 827.84 131.49 L 829.63 131.49 L 831.42 131.49 L 833.20 131.49 L 834.99 131.49 L 836.78 131.49 L 838.56 131.49 L 840.35 131.49 L 842.14 131.49 L 843.92 131.49 L 845.71 131.49 L 847.49 131.49 L 849.28 131.49 L 851.07 131.49 L 852.85 131.49 L 854.64 131.49 L 856.43 131.49 L 858.21 131.49 L 860.00 131.49" fill="none" stroke="#3fb950" stroke-width="2"/>
    <circle cx="860.00" cy="131.49" r="3" fill="#3fb950"/>
    <text x="40.00" y="235.00" font-size="9" fill="#c9d1d9" text-anchor="middle" transform="rotate(-45 40.00 235.00)">27.09.2025</text><text x="122.18" y="235.00" font-size="9" fill="#c9d1d9" text-anchor="middle" transform="rotate(-45 122.18 235.00)">28.09.2025</text><text x="204.36" y="235.00" font-size="9" fill="#c9d1d9" text-anchor="middle" transform="rotate(-45 204.36 235.00)">29.09.2025</text><text x="286.54" y="235.00" font-size="9" fill="#c9d1d9" text-anchor="middle" transform="rotate(-45 286.54 235.00)">04.10.2025</text><text x="368.71" y="235.00" font-size="9" fill="#c9d1d9" text-anchor="middle" transform="rotate(-45 368.71 235.00)">04.10.2025</text><text x="450.89" y="235.00" font-size="9" fill="#c9d1d9" text-anchor="middle" transform="rotate(-45 450.89 235.00)">04.10.2025</text><text x="533.07" y="235.00" font-size="9" fill="#c9d1d9" text-anchor="middle" transform="rotate(-45 533.07 235.00)">07.10.2025</text><text x="615.25" y="235.00" font-size="9" fill="#c9d1d9" text-anchor="middle" transform="rotate(-45 615.25 235.00)">10.10.2025</text><text x="697.43" y="235.00" font-size="9" fill="#c9d1d9" text-anchor="middle" transform="rotate(-45 697.43 235.00)">22.11.2025</text><text x="779.61" y="235.00" font-size="9" fill="#c9d1d9" text-anchor="middle" transform="rotate(-45 779.61 235.00)">07.01.2026</text>
  </g>
</svg>