<svg xmlns="http://www.w3.org/2000/svg" width="900" height="290" style="font-family: -apple-system, BlinkMacSystemFont, 'Segoe UI', Helvetica, Arial, sans-serif;">
  <rect width="100%" height="100%" fill="#0d1117"/>
  <g>
    <line x1="40" y1="220.00" x2="860" y2="220.00" stroke="#30363d"/><text x="32" y="224.00" font-size="10" fill="#c9d1d9" text-anchor="end">0</text><line x1="40" y1="175.00" x2="860" y2="175.00" stroke="#30363d"/><text x="32" y="179.00" font-size="10" fill="#c9d1d9" text-anchor="end">25k</text><line x1="40" y1="130.00" x2="860" y2="130.00" stroke="#30363d"/><text x="32" y="134.00" font-size="10" fill="#c9d1d9" text-anchor="end">50k</text><line x1="40" y1="85.00" x2="860" y2="85.00" stroke="#30363d"/><text x="32" y="89.00" font-size="10" fill="#c9d1d9" text-anchor="end">75k</text><line x1="40" y1="40.00" x2="860" y2="40.00" stroke="#30363d"/><text x="32" y="44.00" font-size="10" fill="#c9d1d9" text-anchor="end">100k</text>
    <line x1="40.00" y1="40" x2="40.00" y2="220" stroke="#30363d" opacity="0.5"/><line x1="122.21" y1="40" x2="122.21" y2="220" stroke="#30363d" opacity="0.5"/><line x1="204.41" y1="40" x2="204.41" y2="220" stroke="#30363d" opacity="0.5"/><line x1="286.62" y1="40" x2="286.62" y2="220" stroke="#30363d" opacity="0.5"/><line x1="368.82" y1="40" x2="368.82" y2="220" stroke="#30363d" opacity="0.5"/><line x1="451.03" y1="40" x2="451.03" y2="220" stroke="#30363d" opacity="0.5"/><line x1="533.23" y1="40" x2="533.23" y2="220" stroke="#30363d" opacity="0.5"/><line x1="615.44" y1="40" x2="615.44" y2="220" stroke="#30363d" opacity="0.5"/><line x1="697.64" y1="40" x2="697.64" y2="220" stroke="#30363d" opacity="0.5"/><line x1="779.85" y1="40" x2="779.85" y2="220" stroke="#30363d" opacity="0.5"/>
    <line x1="40" y1="220" x2="860" y2="220" stroke="#30363d"/>
    <line x1="40" y1="40"   x2="40"   y2="220" stroke="#30363d"/>
    <path d="M 40.00 220.00 L 42.06 220.00 L 44.11 219.60 L 46.17 219.62 L 48.22 219.63 L 50.28 219.32 L 52.33 219.31 L 54.39 219.26 L 56.44 218.89 L 58.50 218.89 L 60.55 218.89 L 62.61 218.87 L 64.66 218.87 L 66.72 218.86 L 68.77 218.85 L 70.83 218.85 L 72.88 218.82 L 74.94 218.78 L 76.99 218.72 L 79.05 218.68 L 81.10 218.64 L 83.16 218.59 L 85.21 218.59 L 87.27 218.57 L 89.32 218.57 L 91.38 218.57 L 93.43 218.57 L 95.49 218.57 L 97.54 218.57 L 99.60 218.57 L 101.65 218.57 L 103.71 218.57 L 105.76 218.55 L 107.82 218.54 L 109.87 218.58 L 111.93 218.55 L 113.98 218.55 L 116.04 218.53 L 118.10 218.31 L 120.15 217.94 L 122.21 217.88 L 124.26 217.87 L 126.32 217.86 L 128.37 217.85 L 130.43 217.84 L 132.48 217.85 L 134.54 217.82 L 136.59 217.66 L 138.65 217.61 L 140.70 217.60 L 142.76 217.57 L 144.81 217.56 L 146.87 217.52 L 148.92 217.38 L 150.98 217.24 L 153.03 216.93 L 155.09 216.65 L 157.14 216.44 L 159.20 216.39 L 161.25 216.34 L 163.31 216.83 L 165.36 200.94 L 167.42 200.94 L 169.47 200.95 L 171.53 198.99 L 173.58 198.98 L 175.64 198.94 L 177.69 198.94 L 179.75 198.91 L 181.80 198.90 L 183.86 198.93 L 185.91 198.93 L 187.97 198.99 L 190.03 198.95 L 192.08 198.96 L 194.14 198.95 L 196.19 198.95 L 198.25 198.97 L 200.30 198.97 L 202.36 198.97 L 204.41 198.97 L 206.47 198.97 L 208.52 198.97 L 210.58 198.97 L 212.63 198.97 L 214.69 198.97 L 216.74 198.97 L 218.80 198.97 L 220.85 197.51 L 222.91 197.43 L 224.96 197.40 L 227.02 197.38 L 229.07 197.38 L 231.13 197.49 L 233.18 197.34 L 235.24 197.33 L 237.29 197.18 L 239.35 197.41 L 241.40 197.41 L 243.46 197.29 L 245.51 197.29 L 247.57 197.22 L 249.62 197.21 L 251.68 197.15 L 253.73 196.94 L 255.79 197.00 L 257.84 197.41 L 259.90 197.41 L 261.95 197.30 L 264.01 197.26 L 266.07 197.19 L 268.12 197.19 L 270.18 197.19 L 272.23 197.19 L 274.29 197.18 L 276.34 197.12 L 278.40 197.09 L 280.45 197.04 L 282.51 197.00 L 284.56 196.96 L 286.62 196.92 L 288.67 196.91 L 290.73 196.86 L 292.78 196.80 L 294.84 196.75 L 296.89 196.69 L 298.95 196.66 L 301.00 196.63 L 303.06 196.56 L 305.11 196.51 L 307.17 196.47 L 309.22 196.45 L 311.28 196.40 L 313.33 196.37 L 315.39 196.34 L 317.44 196.28 L 319.50 196.20 L 321.55 196.12 L 323.61 196.02 L 325.66 195.89 L 327.72 195.77 L 329.77 195.68 L 331.83 195.63 L 333.88 195.58 L 335.94 195.53 L 337.99 195.44 L 340.05 195.35 L 342.11 195.22 L 344.16 195.11 L 346.22 194.95 L 348.27 194.82 L 350.33 194.68 L 352.38 194.57 L 354.44 194.55 L 356.49 194.51 L 358.55 194.48 L 360.60 194.44 L 362.66 194.40 L 364.71 194.37 L 366.77 194.34 L 368.82 194.29 L 370.88 194.25 L 372.93 194.23 L 374.99 194.21 L 377.04 194.19 L 379.10 194.16 L 381.15 194.12 L 383.21 194.07 L 385.26 193.99 L 387.32 193.94 L 389.37 193.87 L 391.43 193.80 L 393.48 193.74 L 395.54 193.72 L 397.59 193.70 L 399.65 193.66 L 401.70 193.62 L 403.76 193.56 L 405.81 193.49 L 407.87 193.43 L 409.92 193.35 L 411.98 193.27 L 414.04 193.20 L 416.09 193.14 L 418.15 193.15 L 420.20 193.15 L 422.26 193.15 L 424.31 193.18 L 426.37 193.09 L 428.42 193.07 L 430.48 193.07 L 432.53 193.08 L 434.59 193.00 L 436.64 192.95 L 438.70 192.95 L 440.75 192.95 L 442.81 192.95 L 444.86 192.80 L 446.92 192.73 L 448.97 192.69 L 451.03 192.67 L 453.08 192.67 L 455.14 192.68 L 457.19 192.64 L 459.25 192.63 L 461.30 192.63 L 463.36 190.39 L 465.41 189.96 L 467.47 189.85 L 469.52 189.53 L 471.58 189.52 L 473.63 189.36 L 475.69 187.79 L 477.74 187.36 L 479.80 181.35 L 481.85 181.35 L 483.91 180.72 L 485.96 180.71 L 488.02 180.26 L 490.08 179.68 L 492.13 179.67 L 494.19 178.77 L 496.24 177.57 L 498.30 175.55 L 500.35 174.52 L 502.41 173.86 L 504.46 174.17 L 506.52 173.10 L 508.57 173.10 L 510.63 171.18 L 512.68 168.37 L 514.74 168.37 L 516.79 165.86 L 518.85 163.63 L 520.90 163.63 L 522.96 163.62 L 525.01 162.88 L 527.07 161.06 L 529.12 193.89 L 531.18 193.22 L 533.23 192.73 L 535.29 192.34 L 537.34 189.45 L 539.40 188.03 L 541.45 188.03 L 543.51 180.86 L 545.56 148.96 L 547.62 144.25 L 549.67 176.00 L 551.73 176.17 L 553.78 175.77 L 555.84 175.72 L 557.89 197.26 L 559.95 197.26 L 562.01 197.06 L 564.06 196.44 L 566.12 194.49 L 568.17 194.50 L 570.23 194.49 L 572.28 194.49 L 574.34 194.49 L 576.39 194.48 L 578.45 194.48 L 580.50 194.62 L 582.56 206.08 L 584.61 206.08 L 586.67 206.05 L 588.72 206.04 L 590.78 205.22 L 592.83 204.28 L 594.89 204.28 L 596.94 204.28 L 599.00 200.22 L 601.05 204.28 L 603.11 204.28 L 605.16 204.28 L 607.22 198.60 L 609.27 198.60 L 611.33 198.60 L 613.38 198.60 L 615.44 193.00 L 617.49 193.00 L 619.55 188.39 L 621.60 188.39 L 623.66 179.75 L 625.71 174.84 L 627.77 173.23 L 629.82 170.37 L 631.88 169.87 L 633.93 153.88 L 635.99 149.24 L 638.05 152.04 L 640.10 141.93 L 642.16 141.88 L 644.21 141.69 L 646.27 141.69 L 648.32 141.76 L 650.38 141.75 L 652.43 140.68 L 654.49 141.38 L 656.54 141.36 L 658.60 141.83 L 660.65 141.39 L 662.71 141.39 L 664.76 141.52 L 666.82 141.52 L 668.87 141.53 L 670.93 142.33 L 672.98 141.73 L 675.04 141.68 L 677.09 141.68 L 679.15 141.66 L 681.20 141.67 L 683.26 141.65 L 685.31 139.51 L 687.37 136.07 L 689.42 136.04 L 691.48 133.43 L 693.53 131.89 L 695.59 131.13 L 697.64 131.51 L 699.70 131.50 L 701.75 131.57 L 703.81 131.56 L 705.86 131.49 L 707.92 131.49 L 709.97 131.49 L 712.03 131.49 L 714.09 131.49 L 716.14 131.49 L 718.20 131.49 L 720.25 131.49 L 722.31 131.49 L 724.36 131.49 L 726.42 131.49 L 728.47 131.49 L 730.53 131.49 L 732.58 131.49 L 734.64 131.49 L 736.69 131.49 L 738.75 131.49 L 740.80 131.49 L 742.86 131.49 L 744.91 131.49 L 746.97 131.49 L 749.02 131.49 L 751.08 131.49 L 753.13 131.49 L 755.19 131.49 L 757.24 131.49 L 759.30 131.49 L 761.35 131.49 L 763.41 131.49 L 765.46 131.49 L 767.52 131.49 L 769.57 131.49 L 771.63 131.49 L 773.68 131.49 L 775.74 131.49 L 777.79 131.49 L 779.85 131.49 L 781.90 131.49 L 783.96 131.49 L 786.02 131.49 L 788.07 131.49 L 790.13 131.49 L 792.18 131.49 L 794.24 131.49 L 796.29 131.49 L 798.35 131.49 L 800.40 131.49 L 802.46 131.49 L 804.51 131.49 L 806.57 131.49 L 808.62 131.49 L 810.68 131.49 L 812.73 131.49 L 814.79 131.49 L 816.84 131.49 L 818.90 131.49 L 820.95 131.49 L 823.01 131.49 L 825.06 131.49 L 827.12 131.49 L 829.17 131.49 L 831.23 131.49 L 833.28 131.49 L 835.34 131.49 L 837.39 131.49 L 839.45 131.49 L 841.50 131.49 L 843.56 131.49 L 845.61 131.49 L 847.67 131.49 L 849.72 131.49 L 851.78 131.49 L 853.83 131.49 L 855.89 131.49 L 857.94 131.49 L 860.00 131.49" fill="none" stroke="#3fb950" stroke-width="2"/>
    <circle cx="860.00" cy="131.49" r="3" fill="#3fb950"/>
    <text x="40.00" y="235.00" font-size="9" fill="#c9d1d9" text-anchor="middle" transform="rotate(-45 40.00 235.00)">27.09.2025</text><text x="122.21" y="235.00" font-size="9" fill="#c9d1d9" text-anchor="middle" transform="rotate(-45 122.21 235.00)">28.09.2025</text><text x="204.41" y="235.00" font-size="9" fill="#c9d1d9" text-anchor="middle" transform="rotate(-45 204.41 235.00)">29.09.2025</text><text x="286.62" y="235.00" font-size="9" fill="#c9d1d9" text-anchor="middle" transform="rotate(-45 286.62 235.00)">04.10.2025</text><text x="368.82" y="235.00" font-size="9" fill="#c9d1d9" text-anchor="middle" transform="rotate(-45 368.82 235.00)">04.10.2025</text><text x="451.03" y="235.00" font-size="9" fill="#c9d1d9" text-anchor="middle" transform="rotate(-45 451.03 235.00)">04.10.2025</text><text x="533.23" y="235.00" font-size="9" fill="#c9d1d9" text-anchor="middle" transform="rotate(-45 533.23 235.00)">04.10.2025</text><text x="615.44" y="235.00" font-size="9" fill="#c9d1d9" text-anchor="middle" transform="rotate(-45 615.44 235.00)">07.10.2025</text><text x="697.64" y="235.00" font-size="9" fill="#c9d1d9" text-anchor="middle" transform="rotate(-45 697.64 235.00)">09.10.2025</text><text x="779.85" y="235.00" font-size="9" fill="#c9d1d9" text-anchor="middle" transform="rotate(-45 779.85 235.00)">14.11.2025</text>
  </g>
</svg>