<svg xmlns="http://www.w3.org/2000/svg" width="900" height="290" style="font-family: -apple-system, BlinkMacSystemFont, 'Segoe UI', Helvetica, Arial, sans-serif;">
  <rect width="100%" height="100%" fill="white"/>
  <g>
    <line x1="40" y1="220.00" x2="860" y2="220.00" stroke="#e5e7eb"/><text x="32" y="224.00" font-size="10" fill="#111827" text-anchor="end">0</text><line x1="40" y1="175.00" x2="860" y2="175.00" stroke="#e5e7eb"/><text x="32" y="179.00" font-size="10" fill="#111827" text-anchor="end">25k</text><line x1="40" y1="130.00" x2="860" y2="130.00" stroke="#e5e7eb"/><text x="32" y="134.00" font-size="10" fill="#111827" text-anchor="end">50k</text><line x1="40" y1="85.00" x2="860" y2="85.00" stroke="#e5e7eb"/><text x="32" y="89.00" font-size="10" fill="#111827" text-anchor="end">75k</text><line x1="40" y1="40.00" x2="860" y2="40.00" stroke="#e5e7eb"/><text x="32" y="44.00" font-size="10" fill="#111827" text-anchor="end">100k</text>
    <line x1="40.00" y1="40" x2="40.00" y2="220" stroke="#e5e7eb" opacity="0.5"/><line x1="121.34" y1="40" x2="121.34" y2="220" stroke="#e5e7eb" opacity="0.5"/><line x1="202.68" y1="40" x2="202.68" y2="220" stroke="#e5e7eb" opacity="0.5"/><line x1="284.02" y1="40" x2="284.02" y2="220" stroke="#e5e7eb" opacity="0.5"/><line x1="365.36" y1="40" x2="365.36" y2="220" stroke="#e5e7eb" opacity="0.5"/><line x1="446.70" y1="40" x2="446.70" y2="220" stroke="#e5e7eb" opacity="0.5"/><line x1="528.04" y1="40" x2="528.04" y2="220" stroke="#e5e7eb" opacity="0.5"/><line x1="609.38" y1="40" x2="609.38" y2="220" stroke="#e5e7eb" opacity="0.5"/><line x1="690.72" y1="40" x2="690.72" y2="220" stroke="#e5e7eb" opacity="0.5"/><line x1="772.06" y1="40" x2="772.06" y2="220" stroke="#e5e7eb" opacity="0.5"/><line x1="853.40" y1="40" x2="853.40" y2="220" stroke="#e5e7eb" opacity="0.5"/>
    <line x1="40" y1="220" x2="860" y2="220" stroke="#9ca3af"/>
    <line x1="40" y1="40"   x2="40"   y2="220" stroke="#9ca3af"/>
    <path d="M 40.00 220.00 L 42.20 220.00 L 44.40 219.60 L 46.60 219.62 L 48.79 219.63 L 50.99 219.32 L 53.19 219.31 L 55.39 219.26 L 57.59 218.89 L 59.79 218.89 L 61.98 218.89 L 64.18 218.87 L 66.38 218.87 L 68.58 218.86 L 70.78 218.85 L 72.98 218.85 L 75.17 218.82 L 77.37 218.78 L 79.57 218.72 L 81.77 218.68 L 83.97 218.64 L 86.17 218.59 L 88.36 218.59 L 90.56 218.57 L 92.76 218.57 L 94.96 218.57 L 97.16 218.57 L 99.36 218.57 L 101.55 218.57 L 103.75 218.57 L 105.95 218.57 L 108.15 218.57 L 110.35 218.55 L 112.55 218.54 L 114.75 218.58 L 116.94 218.55 L 119.14 218.55 L 121.34 218.53 L 123.54 218.31 L 125.74 217.94 L 127.94 217.88 L 130.13 217.87 L 132.33 217.86 L 134.53 217.85 L 136.73 217.84 L 138.93 217.85 L 141.13 217.82 L 143.32 217.66 L 145.52 217.61 L 147.72 217.60 L 149.92 217.57 L 152.12 217.56 L 154.32 217.52 L 156.51 217.38 L 158.71 217.24 L 160.91 216.93 L 163.11 216.65 L 165.31 216.44 L 167.51 216.39 L 169.71 216.34 L 171.90 216.83 L 174.10 200.94 L 176.30 200.94 L 178.50 200.95 L 180.70 198.99 L 182.90 198.98 L 185.09 198.94 L 187.29 198.94 L 189.49 198.91 L 191.69 198.90 L 193.89 198.93 L 196.09 198.93 L 198.28 198.99 L 200.48 198.95 L 202.68 198.96 L 204.88 198.95 L 207.08 198.95 L 209.28 198.97 L 211.47 198.97 L 213.67 198.97 L 215.87 198.97 L 218.07 198.97 L 220.27 198.97 L 222.47 198.97 L 224.66 198.97 L 226.86 198.97 L 229.06 198.97 L 231.26 198.97 L 233.46 197.51 L 235.66 197.43 L 237.86 197.40 L 240.05 197.38 L 242.25 197.38 L 244.45 197.49 L 246.65 197.34 L 248.85 197.33 L 251.05 197.18 L 253.24 197.41 L 255.44 197.41 L 257.64 197.29 L 259.84 197.29 L 262.04 197.22 L 264.24 197.21 L 266.43 197.15 L 268.63 196.94 L 270.83 197.00 L 273.03 197.41 L 275.23 197.41 L 277.43 197.30 L 279.62 197.26 L 281.82 197.19 L 284.02 197.19 L 286.22 197.19 L 288.42 197.19 L 290.62 197.18 L 292.82 197.12 L 295.01 197.09 L 297.21 197.04 L 299.41 197.00 L 301.61 196.96 L 303.81 196.92 L 306.01 196.91 L 308.20 196.86 L 310.40 196.80 L 312.60 196.75 L 314.80 196.69 L 317.00 196.66 L 319.20 196.63 L 321.39 196.56 L 323.59 196.51 L 325.79 196.47 L 327.99 196.45 L 330.19 196.40 L 332.39 196.37 L 334.58 196.34 L 336.78 196.28 L 338.98 196.20 L 341.18 196.12 L 343.38 196.02 L 345.58 195.89 L 347.77 195.77 L 349.97 195.68 L 352.17 195.63 L 354.37 195.58 L 356.57 195.53 L 358.77 195.44 L 360.97 195.35 L 363.16 195.22 L 365.36 195.11 L 367.56 194.95 L 369.76 194.82 L 371.96 194.68 L 374.16 194.57 L 376.35 194.55 L 378.55 194.51 L 380.75 194.48 L 382.95 194.44 L 385.15 194.40 L 387.35 194.37 L 389.54 194.34 L 391.74 194.29 L 393.94 194.25 L 396.14 194.23 L 398.34 194.21 L 400.54 194.19 L 402.73 194.16 L 404.93 194.12 L 407.13 194.07 L 409.33 193.99 L 411.53 193.94 L 413.73 193.87 L 415.92 193.80 L 418.12 193.74 L 420.32 193.72 L 422.52 193.70 L 424.72 193.66 L 426.92 193.62 L 429.12 193.56 L 431.31 193.49 L 433.51 193.43 L 435.71 193.35 L 437.91 193.27 L 440.11 193.20 L 442.31 193.14 L 444.50 193.15 L 446.70 193.15 L 448.90 193.15 L 451.10 193.18 L 453.30 193.09 L 455.50 193.07 L 457.69 193.07 L 459.89 193.08 L 462.09 193.00 L 464.29 192.95 L 466.49 192.95 L 468.69 192.95 L 470.88 192.95 L 473.08 192.80 L 475.28 192.73 L 477.48 192.69 L 479.68 192.67 L 481.88 192.67 L 484.08 192.68 L 486.27 192.64 L 488.47 192.63 L 490.67 192.63 L 492.87 190.39 L 495.07 189.96 L 497.27 189.85 L 499.46 189.53 L 501.66 189.52 L 503.86 189.36 L 506.06 187.79 L 508.26 187.36 L 510.46 181.35 L 512.65 181.35 L 514.85 180.72 L 517.05 180.71 L 519.25 180.26 L 521.45 179.68 L 523.65 179.67 L 525.84 178.77 L 528.04 177.57 L 530.24 175.55 L 532.44 174.52 L 534.64 173.86 L 536.84 174.17 L 539.03 173.10 L 541.23 173.10 L 543.43 171.18 L 545.63 168.37 L 547.83 168.37 L 550.03 165.86 L 552.23 163.63 L 554.42 163.63 L 556.62 163.62 L 558.82 162.88 L 561.02 161.06 L 563.22 193.89 L 565.42 193.22 L 567.61 192.73 L 569.81 192.34 L 572.01 189.45 L 574.21 188.03 L 576.41 188.03 L 578.61 180.86 L 580.80 148.96 L 583.00 144.25 L 585.20 176.00 L 587.40 176.17 L 589.60 175.77 L 591.80 175.72 L 593.99 197.26 L 596.19 197.26 L 598.39 197.06 L 600.59 196.44 L 602.79 194.49 L 604.99 194.50 L 607.18 194.49 L 609.38 194.49 L 611.58 194.49 L 613.78 194.48 L 615.98 194.48 L 618.18 194.62 L 620.38 206.08 L 622.57 206.08 L 624.77 206.05 L 626.97 206.04 L 629.17 205.22 L 631.37 204.28 L 633.57 204.28 L 635.76 204.28 L 637.96 200.22 L 640.16 204.28 L 642.36 204.28 L 644.56 204.28 L 646.76 198.60 L 648.95 198.60 L 651.15 198.60 L 653.35 198.60 L 655.55 193.00 L 657.75 193.00 L 659.95 188.39 L 662.14 188.39 L 664.34 179.75 L 666.54 174.84 L 668.74 173.23 L 670.94 170.37 L 673.14 169.87 L 675.34 153.88 L 677.53 149.24 L 679.73 152.04 L 681.93 141.93 L 684.13 141.88 L 686.33 141.69 L 688.53 141.69 L 690.72 141.76 L 692.92 141.75 L 695.12 140.68 L 697.32 141.38 L 699.52 141.36 L 701.72 141.83 L 703.91 141.39 L 706.11 141.39 L 708.31 141.52 L 710.51 141.52 L 712.71 141.53 L 714.91 142.33 L 717.10 141.73 L 719.30 141.68 L 721.50 141.68 L 723.70 141.66 L 725.90 141.67 L 728.10 141.65 L 730.29 139.51 L 732.49 136.07 L 734.69 136.04 L 736.89 133.43 L 739.09 131.89 L 741.29 131.13 L 743.49 131.51 L 745.68 131.50 L 747.88 131.57 L 750.08 131.56 L 752.28 131.49 L 754.48 131.49 L 756.68 131.49 L 758.87 131.49 L 761.07 131.49 L 763.27 131.49 L 765.47 131.49 L 767.67 131.49 L 769.87 131.49 L 772.06 131.49 L 774.26 131.49 L 776.46 131.49 L 778.66 131.49 L 780.86 131.49 L 783.06 131.49 L 785.25 131.49 L 787.45 131.49 L 789.65 131.49 L 791.85 131.49 L 794.05 131.49 L 796.25 131.49 L 798.45 131.49 L 800.64 131.49 L 802.84 131.49 L 805.04 131.49 L 807.24 131.49 L 809.44 131.49 L 811.64 131.49 L 813.83 131.49 L 816.03 131.49 L 818.23 131.49 L 820.43 131.49 L 822.63 131.49 L 824.83 131.49 L 827.02 131.49 L 829.22 131.49 L 831.42 131.49 L 833.62 131.49 L 835.82 131.49 L 838.02 131.49 L 840.21 131.49 L 842.41 131.49 L 844.61 131.49 L 846.81 131.49 L 849.01 131.49 L 851.21 131.49 L 853.40 131.49 L 855.60 131.49 L 857.80 131.49 L 860.00 131.49" fill="none" stroke="#111827" stroke-width="2"/>
    <circle cx="860.00" cy="131.49" r="3" fill="#111827"/>
    <text x="40.00" y="235.00" font-size="9" fill="#111827" text-anchor="middle" transform="rotate(-45 40.00 235.00)">27.09.2025</text><text x="121.34" y="235.00" font-size="9" fill="#111827" text-anchor="middle" transform="rotate(-45 121.34 235.00)">28.09.2025</text><text x="202.68" y="235.00" font-size="9" fill="#111827" text-anchor="middle" transform="rotate(-45 202.68 235.00)">28.09.2025</text><text x="284.02" y="235.00" font-size="9" fill="#111827" text-anchor="middle" transform="rotate(-45 284.02 235.00)">04.10.2025</text><text x="365.36" y="235.00" font-size="9" fill="#111827" text-anchor="middle" transform="rotate(-45 365.36 235.00)">04.10.2025</text><text x="446.70" y="235.00" font-size="9" fill="#111827" text-anchor="middle" transform="rotate(-45 446.70 235.00)">04.10.2025</text><text x="528.04" y="235.00" font-size="9" fill="#111827" text-anchor="middle" transform="rotate(-45 528.04 235.00)">04.10.2025</text><text x="609.38" y="235.00" font-size="9" fill="#111827" text-anchor="middle" transform="rotate(-45 609.38 235.00)">05.10.2025</text><text x="690.72" y="235.00" font-size="9" fill="#111827" text-anchor="middle" transform="rotate(-45 690.72 235.00)">08.10.2025</text><text x="772.06" y="235.00" font-size="9" fill="#111827" text-anchor="middle" transform="rotate(-45 772.06 235.00)">18.10.2025</text><text x="853.40" y="235.00" font-size="9" fill="#111827" text-anchor="middle" transform="rotate(-45 853.40 235.00)">24.11.2025</text>
  </g>
</svg>