<svg xmlns="http://www.w3.org/2000/svg" width="900" height="290" style="font-family: -apple-system, BlinkMacSystemFont, 'Segoe UI', Helvetica, Arial, sans-serif;">
  <rect width="100%" height="100%" fill="white"/>
  <g>
    <line x1="40" y1="220.00" x2="860" y2="220.00" stroke="#e5e7eb"/><text x="32" y="224.00" font-size="10" fill="#111827" text-anchor="end">0</text><line x1="40" y1="175.00" x2="860" y2="175.00" stroke="#e5e7eb"/><text x="32" y="179.00" font-size="10" fill="#111827" text-anchor="end">25k</text><line x1="40" y1="130.00" x2="860" y2="130.00" stroke="#e5e7eb"/><text x="32" y="134.00" font-size="10" fill="#111827" text-anchor="end">50k</text><line x1="40" y1="85.00" x2="860" y2="85.00" stroke="#e5e7eb"/><text x="32" y="89.00" font-size="10" fill="#111827" text-anchor="end">75k</text><line x1="40" y1="40.00" x2="860" y2="40.00" stroke="#e5e7eb"/><text x="32" y="44.00" font-size="10" fill="#111827" text-anchor="end">100k</text>
    <line x1="40.00" y1="40" x2="40.00" y2="220" stroke="#e5e7eb" opacity="0.5"/><line x1="120.79" y1="40" x2="120.79" y2="220" stroke="#e5e7eb" opacity="0.5"/><line x1="201.58" y1="40" x2="201.58" y2="220" stroke="#e5e7eb" opacity="0.5"/><line x1="282.36" y1="40" x2="282.36" y2="220" stroke="#e5e7eb" opacity="0.5"/><line x1="363.15" y1="40" x2="363.15" y2="220" stroke="#e5e7eb" opacity="0.5"/><line x1="443.94" y1="40" x2="443.94" y2="220" stroke="#e5e7eb" opacity="0.5"/><line x1="524.73" y1="40" x2="524.73" y2="220" stroke="#e5e7eb" opacity="0.5"/><line x1="605.52" y1="40" x2="605.52" y2="220" stroke="#e5e7eb" opacity="0.5"/><line x1="686.31" y1="40" x2="686.31" y2="220" stroke="#e5e7eb" opacity="0.5"/><line x1="767.09" y1="40" x2="767.09" y2="220" stroke="#e5e7eb" opacity="0.5"/><line x1="847.88" y1="40" x2="847.88" y2="220" stroke="#e5e7eb" opacity="0.5"/>
    <line x1="40" y1="220" x2="860" y2="220" stroke="#9ca3af"/>
    <line x1="40" y1="40"   x2="40"   y2="220" stroke="#9ca3af"/>
    <path d="M 40.00 220.00 L 42.02 220.00 L 44.04 219.60 L 46.06 219.62 L 48.08 219.63 L 50.10 219.32 L 52.12 219.31 L 54.14 219.26 L 56.16 218.89 L 58.18 218.89 L 60.20 218.89 L 62.22 218.87 L 64.24 218.87 L 66.26 218.86 L 68.28 218.85 L 70.30 218.85 L 72.32 218.82 L 74.33 218.78 L 76.35 218.72 L 78.37 218.68 L 80.39 218.64 L 82.41 218.59 L 84.43 218.59 L 86.45 218.57 L 88.47 218.57 L 90.49 218.57 L 92.51 218.57 L 94.53 218.57 L 96.55 218.57 L 98.57 218.57 L 100.59 218.57 L 102.61 218.57 L 104.63 218.55 L 106.65 218.54 L 108.67 218.58 L 110.69 218.55 L 112.71 218.55 L 114.73 218.53 L 116.75 218.31 L 118.77 217.94 L 120.79 217.88 L 122.81 217.87 L 124.83 217.86 L 126.85 217.85 L 128.87 217.84 L 130.89 217.85 L 132.91 217.82 L 134.93 217.66 L 136.95 217.61 L 138.97 217.60 L 140.99 217.57 L 143.00 217.56 L 145.02 217.52 L 147.04 217.38 L 149.06 217.24 L 151.08 216.93 L 153.10 216.65 L 155.12 216.44 L 157.14 216.39 L 159.16 216.34 L 161.18 216.83 L 163.20 200.94 L 165.22 200.94 L 167.24 200.95 L 169.26 198.99 L 171.28 198.98 L 173.30 198.94 L 175.32 198.94 L 177.34 198.91 L 179.36 198.90 L 181.38 198.93 L 183.40 198.93 L 185.42 198.99 L 187.44 198.95 L 189.46 198.96 L 191.48 198.95 L 193.50 198.95 L 195.52 198.97 L 197.54 198.97 L 199.56 198.97 L 201.58 198.97 L 203.60 198.97 L 205.62 198.97 L 207.64 198.97 L 209.66 198.97 L 211.67 198.97 L 213.69 198.97 L 215.71 198.97 L 217.73 197.51 L 219.75 197.43 L 221.77 197.40 L 223.79 197.38 L 225.81 197.38 L 227.83 197.49 L 229.85 197.34 L 231.87 197.33 L 233.89 197.18 L 235.91 197.41 L 237.93 197.41 L 239.95 197.29 L 241.97 197.29 L 243.99 197.22 L 246.01 197.21 L 248.03 197.15 L 250.05 196.94 L 252.07 197.00 L 254.09 197.41 L 256.11 197.41 L 258.13 197.30 L 260.15 197.26 L 262.17 197.19 L 264.19 197.19 L 266.21 197.19 L 268.23 197.19 L 270.25 197.18 L 272.27 197.12 L 274.29 197.09 L 276.31 197.04 L 278.33 197.00 L 280.34 196.96 L 282.36 196.92 L 284.38 196.91 L 286.40 196.86 L 288.42 196.80 L 290.44 196.75 L 292.46 196.69 L 294.48 196.66 L 296.50 196.63 L 298.52 196.56 L 300.54 196.51 L 302.56 196.47 L 304.58 196.45 L 306.60 196.40 L 308.62 196.37 L 310.64 196.34 L 312.66 196.28 L 314.68 196.20 L 316.70 196.12 L 318.72 196.02 L 320.74 195.89 L 322.76 195.77 L 324.78 195.68 L 326.80 195.63 L 328.82 195.58 L 330.84 195.53 L 332.86 195.44 L 334.88 195.35 L 336.90 195.22 L 338.92 195.11 L 340.94 194.95 L 342.96 194.82 L 344.98 194.68 L 347.00 194.57 L 349.01 194.55 L 351.03 194.51 L 353.05 194.48 L 355.07 194.44 L 357.09 194.40 L 359.11 194.37 L 361.13 194.34 L 363.15 194.29 L 365.17 194.25 L 367.19 194.23 L 369.21 194.21 L 371.23 194.19 L 373.25 194.16 L 375.27 194.12 L 377.29 194.07 L 379.31 193.99 L 381.33 193.94 L 383.35 193.87 L 385.37 193.80 L 387.39 193.74 L 389.41 193.72 L 391.43 193.70 L 393.45 193.66 L 395.47 193.62 L 397.49 193.56 L 399.51 193.49 L 401.53 193.43 L 403.55 193.35 L 405.57 193.27 L 407.59 193.20 L 409.61 193.14 L 411.63 193.15 L 413.65 193.15 L 415.67 193.15 L 417.68 193.18 L 419.70 193.09 L 421.72 193.07 L 423.74 193.07 L 425.76 193.08 L 427.78 193.00 L 429.80 192.95 L 431.82 192.95 L 433.84 192.95 L 435.86 192.95 L 437.88 192.80 L 439.90 192.73 L 441.92 192.69 L 443.94 192.67 L 445.96 192.67 L 447.98 192.68 L 450.00 192.64 L 452.02 192.63 L 454.04 192.63 L 456.06 190.39 L 458.08 189.96 L 460.10 189.85 L 462.12 189.53 L 464.14 189.52 L 466.16 189.36 L 468.18 187.79 L 470.20 187.36 L 472.22 181.35 L 474.24 181.35 L 476.26 180.72 L 478.28 180.71 L 480.30 180.26 L 482.32 179.68 L 484.33 179.67 L 486.35 178.77 L 488.37 177.57 L 490.39 175.55 L 492.41 174.52 L 494.43 173.86 L 496.45 174.17 L 498.47 173.10 L 500.49 173.10 L 502.51 171.18 L 504.53 168.37 L 506.55 168.37 L 508.57 165.86 L 510.59 163.63 L 512.61 163.63 L 514.63 163.62 L 516.65 162.88 L 518.67 161.06 L 520.69 193.89 L 522.71 193.22 L 524.73 192.73 L 526.75 192.34 L 528.77 189.45 L 530.79 188.03 L 532.81 188.03 L 534.83 180.86 L 536.85 148.96 L 538.87 144.25 L 540.89 176.00 L 542.91 176.17 L 544.93 175.77 L 546.95 175.72 L 548.97 197.26 L 550.99 197.26 L 553.00 197.06 L 555.02 196.44 L 557.04 194.49 L 559.06 194.50 L 561.08 194.49 L 563.10 194.49 L 565.12 194.49 L 567.14 194.48 L 569.16 194.48 L 571.18 194.62 L 573.20 206.08 L 575.22 206.08 L 577.24 206.05 L 579.26 206.04 L 581.28 205.22 L 583.30 204.28 L 585.32 204.28 L 587.34 204.28 L 589.36 200.22 L 591.38 204.28 L 593.40 204.28 L 595.42 204.28 L 597.44 198.60 L 599.46 198.60 L 601.48 198.60 L 603.50 198.60 L 605.52 193.00 L 607.54 193.00 L 609.56 188.39 L 611.58 188.39 L 613.60 179.75 L 615.62 174.84 L 617.64 173.23 L 619.66 170.37 L 621.67 169.87 L 623.69 153.88 L 625.71 149.24 L 627.73 152.04 L 629.75 141.93 L 631.77 141.88 L 633.79 141.69 L 635.81 141.69 L 637.83 141.76 L 639.85 141.75 L 641.87 140.68 L 643.89 141.38 L 645.91 141.36 L 647.93 141.83 L 649.95 141.39 L 651.97 141.39 L 653.99 141.52 L 656.01 141.52 L 658.03 141.53 L 660.05 142.33 L 662.07 141.73 L 664.09 141.68 L 666.11 141.68 L 668.13 141.66 L 670.15 141.67 L 672.17 141.65 L 674.19 139.51 L 676.21 136.07 L 678.23 136.04 L 680.25 133.43 L 682.27 131.89 L 684.29 131.13 L 686.31 131.51 L 688.33 131.50 L 690.34 131.57 L 692.36 131.56 L 694.38 131.49 L 696.40 131.49 L 698.42 131.49 L 700.44 131.49 L 702.46 131.49 L 704.48 131.49 L 706.50 131.49 L 708.52 131.49 L 710.54 131.49 L 712.56 131.49 L 714.58 131.49 L 716.60 131.49 L 718.62 131.49 L 720.64 131.49 L 722.66 131.49 L 724.68 131.49 L 726.70 131.49 L 728.72 131.49 L 730.74 131.49 L 732.76 131.49 L 734.78 131.49 L 736.80 131.49 L 738.82 131.49 L 740.84 131.49 L 742.86 131.49 L 744.88 131.49 L 746.90 131.49 L 748.92 131.49 L 750.94 131.49 L 752.96 131.49 L 754.98 131.49 L 757.00 131.49 L 759.01 131.49 L 761.03 131.49 L 763.05 131.49 L 765.07 131.49 L 767.09 131.49 L 769.11 131.49 L 771.13 131.49 L 773.15 131.49 L 775.17 131.49 L 777.19 131.49 L 779.21 131.49 L 781.23 131.49 L 783.25 131.49 L 785.27 131.49 L 787.29 131.49 L 789.31 131.49 L 791.33 131.49 L 793.35 131.49 L 795.37 131.49 L 797.39 131.49 L 799.41 131.49 L 801.43 131.49 L 803.45 131.49 L 805.47 131.49 L 807.49 131.49 L 809.51 131.49 L 811.53 131.49 L 813.55 131.49 L 815.57 131.49 L 817.59 131.49 L 819.61 131.49 L 821.63 131.49 L 823.65 131.49 L 825.67 131.49 L 827.68 131.49 L 829.70 131.49 L 831.72 131.49 L 833.74 131.49 L 835.76 131.49 L 837.78 131.49 L 839.80 131.49 L 841.82 131.49 L 843.84 131.49 L 845.86 131.49 L 847.88 131.49 L 849.90 131.49 L 851.92 131.49 L 853.94 131.49 L 855.96 131.49 L 857.98 131.49 L 860.00 131.49" fill="none" stroke="#111827" stroke-width="2"/>
    <circle cx="860.00" cy="131.49" r="3" fill="#111827"/>
    <text x="40.00" y="235.00" font-size="9" fill="#111827" text-anchor="middle" transform="rotate(-45 40.00 235.00)">27.09.2025</text><text x="120.79" y="235.00" font-size="9" fill="#111827" text-anchor="middle" transform="rotate(-45 120.79 235.00)">28.09.2025</text><text x="201.58" y="235.00" font-size="9" fill="#111827" text-anchor="middle" transform="rotate(-45 201.58 235.00)">29.09.2025</text><text x="282.36" y="235.00" font-size="9" fill="#111827" text-anchor="middle" transform="rotate(-45 282.36 235.00)">04.10.2025</text><text x="363.15" y="235.00" font-size="9" fill="#111827" text-anchor="middle" transform="rotate(-45 363.15 235.00)">04.10.2025</text><text x="443.94" y="235.00" font-size="9" fill="#111827" text-anchor="middle" transform="rotate(-45 443.94 235.00)">04.10.2025</text><text x="524.73" y="235.00" font-size="9" fill="#111827" text-anchor="middle" transform="rotate(-45 524.73 235.00)">04.10.2025</text><text x="605.52" y="235.00" font-size="9" fill="#111827" text-anchor="middle" transform="rotate(-45 605.52 235.00)">07.10.2025</text><text x="686.31" y="235.00" font-size="9" fill="#111827" text-anchor="middle" transform="rotate(-45 686.31 235.00)">09.10.2025</text><text x="767.09" y="235.00" font-size="9" fill="#111827" text-anchor="middle" transform="rotate(-45 767.09 235.00)">14.11.2025</text><text x="847.88" y="235.00" font-size="9" fill="#111827" text-anchor="middle" transform="rotate(-45 847.88 235.00)">24.12.2025</text>
  </g>
</svg>