<svg xmlns="http://www.w3.org/2000/svg" width="900" height="290" style="font-family: -apple-system, BlinkMacSystemFont, 'Segoe UI', Helvetica, Arial, sans-serif;">
  <rect width="100%" height="100%" fill="#0d1117"/>
  <g>
    <line x1="40" y1="220.00" x2="860" y2="220.00" stroke="#30363d"/><text x="32" y="224.00" font-size="10" fill="#c9d1d9" text-anchor="end">0</text><line x1="40" y1="175.00" x2="860" y2="175.00" stroke="#30363d"/><text x="32" y="179.00" font-size="10" fill="#c9d1d9" text-anchor="end">25k</text><line x1="40" y1="130.00" x2="860" y2="130.00" stroke="#30363d"/><text x="32" y="134.00" font-size="10" fill="#c9d1d9" text-anchor="end">50k</text><line x1="40" y1="85.00" x2="860" y2="85.00" stroke="#30363d"/><text x="32" y="89.00" font-size="10" fill="#c9d1d9" text-anchor="end">75k</text><line x1="40" y1="40.00" x2="860" y2="40.00" stroke="#30363d"/><text x="32" y="44.00" font-size="10" fill="#c9d1d9" text-anchor="end">100k</text>
    <line x1="40.00" y1="40" x2="40.00" y2="220" stroke="#30363d" opacity="0.5"/><line x1="122.18" y1="40" x2="122.18" y2="220" stroke="#30363d" opacity="0.5"/><line x1="204.37" y1="40" x2="204.37" y2="220" stroke="#30363d" opacity="0.5"/><line x1="286.55" y1="40" x2="286.55" y2="220" stroke="#30363d" opacity="0.5"/><line x1="368.73" y1="40" x2="368.73" y2="220" stroke="#30363d" opacity="0.5"/><line x1="450.91" y1="40" x2="450.91" y2="220" stroke="#30363d" opacity="0.5"/><line x1="533.10" y1="40" x2="533.10" y2="220" stroke="#30363d" opacity="0.5"/><line x1="615.28" y1="40" x2="615.28" y2="220" stroke="#30363d" opacity="0.5"/><line x1="697.46" y1="40" x2="697.46" y2="220" stroke="#30363d" opacity="0.5"/><line x1="779.64" y1="40" x2="779.64" y2="220" stroke="#30363d" opacity="0.5"/>
    <line x1="40" y1="220" x2="860" y2="220" stroke="#30363d"/>
    <line x1="40" y1="40"   x2="40"   y2="220" stroke="#30363d"/>
    <path d="M 40.00 220.00 L 41.83 220.00 L 43.65 219.60 L 45.48 219.62 L 47.31 219.63 L 49.13 219.32 L 50.96 219.31 L 52.78 219.26 L 54.61 218.89 L 56.44 218.89 L 58.26 218.89 L 60.09 218.87 L 61.92 218.87 L 63.74 218.86 L 65.57 218.85 L 67.39 218.85 L 69.22 218.82 L 71.05 218.78 L 72.87 218.72 L 74.70 218.68 L 76.53 218.64 L 78.35 218.59 L 80.18 218.59 L 82.00 218.57 L 83.83 218.57 L 85.66 218.57 L 87.48 218.57 L 89.31 218.57 L 91.14 218.57 L 92.96 218.57 L 94.79 218.57 L 96.61 218.57 L 98.44 218.55 L 100.27 218.54 L 102.09 218.58 L 103.92 218.55 L 105.75 218.55 L 107.57 218.53 L 109.40 218.31 L 111.22 217.94 L 113.05 217.88 L 114.88 217.87 L 116.70 217.86 L 118.53 217.85 L 120.36 217.84 L 122.18 217.85 L 124.01 217.82 L 125.84 217.66 L 127.66 217.61 L 129.49 217.60 L 131.31 217.57 L 133.14 217.56 L 134.97 217.52 L 136.79 217.38 L 138.62 217.24 L 140.45 216.93 L 142.27 216.65 L 144.10 216.44 L 145.92 216.39 L 147.75 216.34 L 149.58 216.83 L 151.40 200.94 L 153.23 200.94 L 155.06 200.95 L 156.88 198.99 L 158.71 198.98 L 160.53 198.94 L 162.36 198.94 L 164.19 198.91 L 166.01 198.90 L 167.84 198.93 L 169.67 198.93 L 171.49 198.99 L 173.32 198.95 L 175.14 198.96 L 176.97 198.95 L 178.80 198.95 L 180.62 198.97 L 182.45 198.97 L 184.28 198.97 L 186.10 198.97 L 187.93 198.97 L 189.76 198.97 L 191.58 198.97 L 193.41 198.97 L 195.23 198.97 L 197.06 198.97 L 198.89 198.97 L 200.71 197.51 L 202.54 197.43 L 204.37 197.40 L 206.19 197.38 L 208.02 197.38 L 209.84 197.49 L 211.67 197.34 L 213.50 197.33 L 215.32 197.18 L 217.15 197.41 L 218.98 197.41 L 220.80 197.29 L 222.63 197.29 L 224.45 197.22 L 226.28 197.21 L 228.11 197.15 L 229.93 196.94 L 231.76 197.00 L 233.59 197.41 L 235.41 197.41 L 237.24 197.30 L 239.06 197.26 L 240.89 197.19 L 242.72 197.19 L 244.54 197.19 L 246.37 197.19 L 248.20 197.18 L 250.02 197.12 L 251.85 197.09 L 253.67 197.04 L 255.50 197.00 L 257.33 196.96 L 259.15 196.92 L 260.98 196.91 L 262.81 196.86 L 264.63 196.80 L 266.46 196.75 L 268.29 196.69 L 270.11 196.66 L 271.94 196.63 L 273.76 196.56 L 275.59 196.51 L 277.42 196.47 L 279.24 196.45 L 281.07 196.40 L 282.90 196.37 L 284.72 196.34 L 286.55 196.28 L 288.37 196.20 L 290.20 196.12 L 292.03 196.02 L 293.85 195.89 L 295.68 195.77 L 297.51 195.68 L 299.33 195.63 L 301.16 195.58 L 302.98 195.53 L 304.81 195.44 L 306.64 195.35 L 308.46 195.22 L 310.29 195.11 L 312.12 194.95 L 313.94 194.82 L 315.77 194.68 L 317.59 194.57 L 319.42 194.55 L 321.25 194.51 L 323.07 194.48 L 324.90 194.44 L 326.73 194.40 L 328.55 194.37 L 330.38 194.34 L 332.20 194.29 L 334.03 194.25 L 335.86 194.23 L 337.68 194.21 L 339.51 194.19 L 341.34 194.16 L 343.16 194.12 L 344.99 194.07 L 346.82 193.99 L 348.64 193.94 L 350.47 193.87 L 352.29 193.80 L 354.12 193.74 L 355.95 193.72 L 357.77 193.70 L 359.60 193.66 L 361.43 193.62 L 363.25 193.56 L 365.08 193.49 L 366.90 193.43 L 368.73 193.35 L 370.56 193.27 L 372.38 193.20 L 374.21 193.14 L 376.04 193.15 L 377.86 193.15 L 379.69 193.15 L 381.51 193.18 L 383.34 193.09 L 385.17 193.07 L 386.99 193.07 L 388.82 193.08 L 390.65 193.00 L 392.47 192.95 L 394.30 192.95 L 396.12 192.95 L 397.95 192.95 L 399.78 192.80 L 401.60 192.73 L 403.43 192.69 L 405.26 192.67 L 407.08 192.67 L 408.91 192.68 L 410.73 192.64 L 412.56 192.63 L 414.39 192.63 L 416.21 190.39 L 418.04 189.96 L 419.87 189.85 L 421.69 189.53 L 423.52 189.52 L 425.35 189.36 L 427.17 187.79 L 429.00 187.36 L 430.82 181.35 L 432.65 181.35 L 434.48 180.72 L 436.30 180.71 L 438.13 180.26 L 439.96 179.68 L 441.78 179.67 L 443.61 178.77 L 445.43 177.57 L 447.26 175.55 L 449.09 174.52 L 450.91 173.86 L 452.74 174.17 L 454.57 173.10 L 456.39 173.10 L 458.22 171.18 L 460.04 168.37 L 461.87 168.37 L 463.70 165.86 L 465.52 163.63 L 467.35 163.63 L 469.18 163.62 L 471.00 162.88 L 472.83 161.06 L 474.65 193.89 L 476.48 193.22 L 478.31 192.73 L 480.13 192.34 L 481.96 189.45 L 483.79 188.03 L 485.61 188.03 L 487.44 180.86 L 489.27 148.96 L 491.09 144.25 L 492.92 176.00 L 494.74 176.17 L 496.57 175.77 L 498.40 175.72 L 500.22 197.26 L 502.05 197.26 L 503.88 197.06 L 505.70 196.44 L 507.53 194.49 L 509.35 194.50 L 511.18 194.49 L 513.01 194.49 L 514.83 194.49 L 516.66 194.48 L 518.49 194.48 L 520.31 194.62 L 522.14 206.08 L 523.96 206.08 L 525.79 206.05 L 527.62 206.04 L 529.44 205.22 L 531.27 204.28 L 533.10 204.28 L 534.92 204.28 L 536.75 200.22 L 538.57 204.28 L 540.40 204.28 L 542.23 204.28 L 544.05 198.60 L 545.88 198.60 L 547.71 198.60 L 549.53 198.60 L 551.36 193.00 L 553.18 193.00 L 555.01 188.39 L 556.84 188.39 L 558.66 179.75 L 560.49 174.84 L 562.32 173.23 L 564.14 170.37 L 565.97 169.87 L 567.80 153.88 L 569.62 149.24 L 571.45 152.04 L 573.27 141.93 L 575.10 141.88 L 576.93 141.69 L 578.75 141.69 L 580.58 141.76 L 582.41 141.75 L 584.23 140.68 L 586.06 141.38 L 587.88 141.36 L 589.71 141.83 L 591.54 141.39 L 593.36 141.39 L 595.19 141.52 L 597.02 141.52 L 598.84 141.53 L 600.67 142.33 L 602.49 141.73 L 604.32 141.68 L 606.15 141.68 L 607.97 141.66 L 609.80 141.67 L 611.63 141.65 L 613.45 139.51 L 615.28 136.07 L 617.10 136.04 L 618.93 133.43 L 620.76 131.89 L 622.58 131.13 L 624.41 131.51 L 626.24 131.50 L 628.06 131.57 L 629.89 131.56 L 631.71 131.49 L 633.54 131.49 L 635.37 131.49 L 637.19 131.49 L 639.02 131.49 L 640.85 131.49 L 642.67 131.49 L 644.50 131.49 L 646.33 131.49 L 648.15 131.49 L 649.98 131.49 L 651.80 131.49 L 653.63 131.49 L 655.46 131.49 L 657.28 131.49 L 659.11 131.49 L 660.94 131.49 L 662.76 131.49 L 664.59 131.49 L 666.41 131.49 L 668.24 131.49 L 670.07 131.49 L 671.89 131.49 L 673.72 131.49 L 675.55 131.49 L 677.37 131.49 L 679.20 131.49 L 681.02 131.49 L 682.85 131.49 L 684.68 131.49 L 686.50 131.49 L 688.33 131.49 L 690.16 131.49 L 691.98 131.49 L 693.81 131.49 L 695.63 131.49 L 697.46 131.49 L 699.29 131.49 L 701.11 131.49 L 702.94 131.49 L 704.77 131.49 L 706.59 131.49 L 708.42 131.49 L 710.24 131.49 L 712.07 131.49 L 713.90 131.49 L 715.72 131.49 L 717.55 131.49 L 719.38 131.49 L 721.20 131.49 L 723.03 131.49 L 724.86 131.49 L 726.68 131.49 L 728.51 131.49 L 730.33 131.49 L 732.16 131.49 L 733.99 131.49 L 735.81 131.49 L 737.64 131.49 L 739.47 131.49 L 741.29 131.49 L 743.12 131.49 L 744.94 131.49 L 746.77 131.49 L 748.60 131.49 L 750.42 131.49 L 752.25 131.49 L 754.08 131.49 L 755.90 131.49 L 757.73 131.49 L 759.55 131.49 L 761.38 131.49 L 763.21 131.49 L 765.03 131.49 L 766.86 131.49 L 768.69 131.49 L 770.51 131.49 L 772.34 131.49 L 774.16 131.49 L 775.99 131.49 L 777.82 131.49 L 779.64 131.49 L 781.47 131.49 L 783.30 131.49 L 785.12 131.49 L 786.95 131.49 L 788.78 131.49 L 790.60 131.49 L 792.43 131.49 L 794.25 131.49 L 796.08 131.49 L 797.91 131.49 L 799.73 131.49 L 801.56 131.49 L 803.39 131.49 L 805.21 131.49 L 807.04 131.49 L 808.86 131.49 L 810.69 131.49 L 812.52 131.49 L 814.34 131.49 L 816.17 131.49 L 818.00 131.49 L 819.82 131.49 L 821.65 131.49 L 823.47 131.49 L 825.30 131.49 L 827.13 131.49 L 828.95 131.49 L 830.78 131.49 L 832.61 131.49 L 834.43 131.49 L 836.26 131.49 L 838.08 131.49 L 839.91 131.49 L 841.74 131.49 L 843.56 131.49 L 845.39 131.49 L 847.22 131.49 L 849.04 131.49 L 850.87 131.49 L 852.69 131.49 L 854.52 131.49 L 856.35 131.49 L 858.17 131.49 L 860.00 131.49" fill="none" stroke="#3fb950" stroke-width="2"/>
    <circle cx="860.00" cy="131.49" r="3" fill="#3fb950"/>
    <text x="40.00" y="235.00" font-size="9" fill="#c9d1d9" text-anchor="middle" transform="rotate(-45 40.00 235.00)">27.09.2025</text><text x="122.18" y="235.00" font-size="9" fill="#c9d1d9" text-anchor="middle" transform="rotate(-45 122.18 235.00)">28.09.2025</text><text x="204.37" y="235.00" font-size="9" fill="#c9d1d9" text-anchor="middle" transform="rotate(-45 204.37 235.00)">29.09.2025</text><text x="286.55" y="235.00" font-size="9" fill="#c9d1d9" text-anchor="middle" transform="rotate(-45 286.55 235.00)">04.10.2025</text><text x="368.73" y="235.00" font-size="9" fill="#c9d1d9" text-anchor="middle" transform="rotate(-45 368.73 235.00)">04.10.2025</text><text x="450.91" y="235.00" font-size="9" fill="#c9d1d9" text-anchor="middle" transform="rotate(-45 450.91 235.00)">04.10.2025</text><text x="533.10" y="235.00" font-size="9" fill="#c9d1d9" text-anchor="middle" transform="rotate(-45 533.10 235.00)">06.10.2025</text><text x="615.28" y="235.00" font-size="9" fill="#c9d1d9" text-anchor="middle" transform="rotate(-45 615.28 235.00)">09.10.2025</text><text x="697.46" y="235.00" font-size="9" fill="#c9d1d9" text-anchor="middle" transform="rotate(-45 697.46 235.00)">14.11.2025</text><text x="779.64" y="235.00" font-size="9" fill="#c9d1d9" text-anchor="middle" transform="rotate(-45 779.64 235.00)">29.12.2025</text>
  </g>
</svg>