<svg xmlns="http://www.w3.org/2000/svg" width="900" height="290" style="font-family: -apple-system, BlinkMacSystemFont, 'Segoe UI', Helvetica, Arial, sans-serif;">
  <rect width="100%" height="100%" fill="white"/>
  <g>
    <line x1="40" y1="220.00" x2="860" y2="220.00" stroke="#e5e7eb"/><text x="32" y="224.00" font-size="10" fill="#111827" text-anchor="end">0</text><line x1="40" y1="175.00" x2="860" y2="175.00" stroke="#e5e7eb"/><text x="32" y="179.00" font-size="10" fill="#111827" text-anchor="end">25k</text><line x1="40" y1="130.00" x2="860" y2="130.00" stroke="#e5e7eb"/><text x="32" y="134.00" font-size="10" fill="#111827" text-anchor="end">50k</text><line x1="40" y1="85.00" x2="860" y2="85.00" stroke="#e5e7eb"/><text x="32" y="89.00" font-size="10" fill="#111827" text-anchor="end">75k</text><line x1="40" y1="40.00" x2="860" y2="40.00" stroke="#e5e7eb"/><text x="32" y="44.00" font-size="10" fill="#111827" text-anchor="end">100k</text>
    <line x1="40.00" y1="40" x2="40.00" y2="220" stroke="#e5e7eb" opacity="0.5"/><line x1="121.23" y1="40" x2="121.23" y2="220" stroke="#e5e7eb" opacity="0.5"/><line x1="202.45" y1="40" x2="202.45" y2="220" stroke="#e5e7eb" opacity="0.5"/><line x1="283.68" y1="40" x2="283.68" y2="220" stroke="#e5e7eb" opacity="0.5"/><line x1="364.91" y1="40" x2="364.91" y2="220" stroke="#e5e7eb" opacity="0.5"/><line x1="446.13" y1="40" x2="446.13" y2="220" stroke="#e5e7eb" opacity="0.5"/><line x1="527.36" y1="40" x2="527.36" y2="220" stroke="#e5e7eb" opacity="0.5"/><line x1="608.58" y1="40" x2="608.58" y2="220" stroke="#e5e7eb" opacity="0.5"/><line x1="689.81" y1="40" x2="689.81" y2="220" stroke="#e5e7eb" opacity="0.5"/><line x1="771.04" y1="40" x2="771.04" y2="220" stroke="#e5e7eb" opacity="0.5"/><line x1="852.26" y1="40" x2="852.26" y2="220" stroke="#e5e7eb" opacity="0.5"/>
    <line x1="40" y1="220" x2="860" y2="220" stroke="#9ca3af"/>
    <line x1="40" y1="40"   x2="40"   y2="220" stroke="#9ca3af"/>
    <path d="M 40.00 220.00 L 41.93 220.00 L 43.87 219.60 L 45.80 219.62 L 47.74 219.63 L 49.67 219.32 L 51.60 219.31 L 53.54 219.26 L 55.47 218.89 L 57.41 218.89 L 59.34 218.89 L 61.27 218.87 L 63.21 218.87 L 65.14 218.86 L 67.08 218.85 L 69.01 218.85 L 70.94 218.82 L 72.88 218.78 L 74.81 218.72 L 76.75 218.68 L 78.68 218.64 L 80.61 218.59 L 82.55 218.59 L 84.48 218.57 L 86.42 218.57 L 88.35 218.57 L 90.28 218.57 L 92.22 218.57 L 94.15 218.57 L 96.08 218.57 L 98.02 218.57 L 99.95 218.57 L 101.89 218.55 L 103.82 218.54 L 105.75 218.58 L 107.69 218.55 L 109.62 218.55 L 111.56 218.53 L 113.49 218.31 L 115.42 217.94 L 117.36 217.88 L 119.29 217.87 L 121.23 217.86 L 123.16 217.85 L 125.09 217.84 L 127.03 217.85 L 128.96 217.82 L 130.90 217.66 L 132.83 217.61 L 134.76 217.60 L 136.70 217.57 L 138.63 217.56 L 140.57 217.52 L 142.50 217.38 L 144.43 217.24 L 146.37 216.93 L 148.30 216.65 L 150.24 216.44 L 152.17 216.39 L 154.10 216.34 L 156.04 216.83 L 157.97 200.94 L 159.91 200.94 L 161.84 200.95 L 163.77 198.99 L 165.71 198.98 L 167.64 198.94 L 169.58 198.94 L 171.51 198.91 L 173.44 198.90 L 175.38 198.93 L 177.31 198.93 L 179.25 198.99 L 181.18 198.95 L 183.11 198.96 L 185.05 198.95 L 186.98 198.95 L 188.92 198.97 L 190.85 198.97 L 192.78 198.97 L 194.72 198.97 L 196.65 198.97 L 198.58 198.97 L 200.52 198.97 L 202.45 198.97 L 204.39 198.97 L 206.32 198.97 L 208.25 198.97 L 210.19 197.51 L 212.12 197.43 L 214.06 197.40 L 215.99 197.38 L 217.92 197.38 L 219.86 197.49 L 221.79 197.34 L 223.73 197.33 L 225.66 197.18 L 227.59 197.41 L 229.53 197.41 L 231.46 197.29 L 233.40 197.29 L 235.33 197.22 L 237.26 197.21 L 239.20 197.15 L 241.13 196.94 L 243.07 197.00 L 245.00 197.41 L 246.93 197.41 L 248.87 197.30 L 250.80 197.26 L 252.74 197.19 L 254.67 197.19 L 256.60 197.19 L 258.54 197.19 L 260.47 197.18 L 262.41 197.12 L 264.34 197.09 L 266.27 197.04 L 268.21 197.00 L 270.14 196.96 L 272.08 196.92 L 274.01 196.91 L 275.94 196.86 L 277.88 196.80 L 279.81 196.75 L 281.75 196.69 L 283.68 196.66 L 285.61 196.63 L 287.55 196.56 L 289.48 196.51 L 291.42 196.47 L 293.35 196.45 L 295.28 196.40 L 297.22 196.37 L 299.15 196.34 L 301.08 196.28 L 303.02 196.20 L 304.95 196.12 L 306.89 196.02 L 308.82 195.89 L 310.75 195.77 L 312.69 195.68 L 314.62 195.63 L 316.56 195.58 L 318.49 195.53 L 320.42 195.44 L 322.36 195.35 L 324.29 195.22 L 326.23 195.11 L 328.16 194.95 L 330.09 194.82 L 332.03 194.68 L 333.96 194.57 L 335.90 194.55 L 337.83 194.51 L 339.76 194.48 L 341.70 194.44 L 343.63 194.40 L 345.57 194.37 L 347.50 194.34 L 349.43 194.29 L 351.37 194.25 L 353.30 194.23 L 355.24 194.21 L 357.17 194.19 L 359.10 194.16 L 361.04 194.12 L 362.97 194.07 L 364.91 193.99 L 366.84 193.94 L 368.77 193.87 L 370.71 193.80 L 372.64 193.74 L 374.58 193.72 L 376.51 193.70 L 378.44 193.66 L 380.38 193.62 L 382.31 193.56 L 384.25 193.49 L 386.18 193.43 L 388.11 193.35 L 390.05 193.27 L 391.98 193.20 L 393.92 193.14 L 395.85 193.15 L 397.78 193.15 L 399.72 193.15 L 401.65 193.18 L 403.58 193.09 L 405.52 193.07 L 407.45 193.07 L 409.39 193.08 L 411.32 193.00 L 413.25 192.95 L 415.19 192.95 L 417.12 192.95 L 419.06 192.95 L 420.99 192.80 L 422.92 192.73 L 424.86 192.69 L 426.79 192.67 L 428.73 192.67 L 430.66 192.68 L 432.59 192.64 L 434.53 192.63 L 436.46 192.63 L 438.40 190.39 L 440.33 189.96 L 442.26 189.85 L 444.20 189.53 L 446.13 189.52 L 448.07 189.36 L 450.00 187.79 L 451.93 187.36 L 453.87 181.35 L 455.80 181.35 L 457.74 180.72 L 459.67 180.71 L 461.60 180.26 L 463.54 179.68 L 465.47 179.67 L 467.41 178.77 L 469.34 177.57 L 471.27 175.55 L 473.21 174.52 L 475.14 173.86 L 477.08 174.17 L 479.01 173.10 L 480.94 173.10 L 482.88 171.18 L 484.81 168.37 L 486.75 168.37 L 488.68 165.86 L 490.61 163.63 L 492.55 163.63 L 494.48 163.62 L 496.42 162.88 L 498.35 161.06 L 500.28 193.89 L 502.22 193.22 L 504.15 192.73 L 506.08 192.34 L 508.02 189.45 L 509.95 188.03 L 511.89 188.03 L 513.82 180.86 L 515.75 148.96 L 517.69 144.25 L 519.62 176.00 L 521.56 176.17 L 523.49 175.77 L 525.42 175.72 L 527.36 197.26 L 529.29 197.26 L 531.23 197.06 L 533.16 196.44 L 535.09 194.49 L 537.03 194.50 L 538.96 194.49 L 540.90 194.49 L 542.83 194.49 L 544.76 194.48 L 546.70 194.48 L 548.63 194.62 L 550.57 206.08 L 552.50 206.08 L 554.43 206.05 L 556.37 206.04 L 558.30 205.22 L 560.24 204.28 L 562.17 204.28 L 564.10 204.28 L 566.04 200.22 L 567.97 204.28 L 569.91 204.28 L 571.84 204.28 L 573.77 198.60 L 575.71 198.60 L 577.64 198.60 L 579.58 198.60 L 581.51 193.00 L 583.44 193.00 L 585.38 188.39 L 587.31 188.39 L 589.25 179.75 L 591.18 174.84 L 593.11 173.23 L 595.05 170.37 L 596.98 169.87 L 598.92 153.88 L 600.85 149.24 L 602.78 152.04 L 604.72 141.93 L 606.65 141.88 L 608.58 141.69 L 610.52 141.69 L 612.45 141.76 L 614.39 141.75 L 616.32 140.68 L 618.25 141.38 L 620.19 141.36 L 622.12 141.83 L 624.06 141.39 L 625.99 141.39 L 627.92 141.52 L 629.86 141.52 L 631.79 141.53 L 633.73 142.33 L 635.66 141.73 L 637.59 141.68 L 639.53 141.68 L 641.46 141.66 L 643.40 141.67 L 645.33 141.65 L 647.26 139.51 L 649.20 136.07 L 651.13 136.04 L 653.07 133.43 L 655.00 131.89 L 656.93 131.13 L 658.87 131.51 L 660.80 131.50 L 662.74 131.57 L 664.67 131.56 L 666.60 131.49 L 668.54 131.49 L 670.47 131.49 L 672.41 131.49 L 674.34 131.49 L 676.27 131.49 L 678.21 131.49 L 680.14 131.49 L 682.08 131.49 L 684.01 131.49 L 685.94 131.49 L 687.88 131.49 L 689.81 131.49 L 691.75 131.49 L 693.68 131.49 L 695.61 131.49 L 697.55 131.49 L 699.48 131.49 L 701.42 131.49 L 703.35 131.49 L 705.28 131.49 L 707.22 131.49 L 709.15 131.49 L 711.08 131.49 L 713.02 131.49 L 714.95 131.49 L 716.89 131.49 L 718.82 131.49 L 720.75 131.49 L 722.69 131.49 L 724.62 131.49 L 726.56 131.49 L 728.49 131.49 L 730.42 131.49 L 732.36 131.49 L 734.29 131.49 L 736.23 131.49 L 738.16 131.49 L 740.09 131.49 L 742.03 131.49 L 743.96 131.49 L 745.90 131.49 L 747.83 131.49 L 749.76 131.49 L 751.70 131.49 L 753.63 131.49 L 755.57 131.49 L 757.50 131.49 L 759.43 131.49 L 761.37 131.49 L 763.30 131.49 L 765.24 131.49 L 767.17 131.49 L 769.10 131.49 L 771.04 131.49 L 772.97 131.49 L 774.91 131.49 L 776.84 131.49 L 778.77 131.49 L 780.71 131.49 L 782.64 131.49 L 784.58 131.49 L 786.51 131.49 L 788.44 131.49 L 790.38 131.49 L 792.31 131.49 L 794.25 131.49 L 796.18 131.49 L 798.11 131.49 L 800.05 131.49 L 801.98 131.49 L 803.92 131.49 L 805.85 131.49 L 807.78 131.49 L 809.72 131.49 L 811.65 131.49 L 813.58 131.49 L 815.52 131.49 L 817.45 131.49 L 819.39 131.49 L 821.32 131.49 L 823.25 131.49 L 825.19 131.49 L 827.12 131.49 L 829.06 131.49 L 830.99 131.49 L 832.92 131.49 L 834.86 131.49 L 836.79 131.49 L 838.73 131.49 L 840.66 131.49 L 842.59 131.49 L 844.53 131.49 L 846.46 131.49 L 848.40 131.49 L 850.33 131.49 L 852.26 131.49 L 854.20 131.49 L 856.13 131.49 L 858.07 131.49 L 860.00 131.49" fill="none" stroke="#111827" stroke-width="2"/>
    <circle cx="860.00" cy="131.49" r="3" fill="#111827"/>
    <text x="40.00" y="235.00" font-size="9" fill="#111827" text-anchor="middle" transform="rotate(-45 40.00 235.00)">27.09.2025</text><text x="121.23" y="235.00" font-size="9" fill="#111827" text-anchor="middle" transform="rotate(-45 121.23 235.00)">28.09.2025</text><text x="202.45" y="235.00" font-size="9" fill="#111827" text-anchor="middle" transform="rotate(-45 202.45 235.00)">29.09.2025</text><text x="283.68" y="235.00" font-size="9" fill="#111827" text-anchor="middle" transform="rotate(-45 283.68 235.00)">04.10.2025</text><text x="364.91" y="235.00" font-size="9" fill="#111827" text-anchor="middle" transform="rotate(-45 364.91 235.00)">04.10.2025</text><text x="446.13" y="235.00" font-size="9" fill="#111827" text-anchor="middle" transform="rotate(-45 446.13 235.00)">04.10.2025</text><text x="527.36" y="235.00" font-size="9" fill="#111827" text-anchor="middle" transform="rotate(-45 527.36 235.00)">05.10.2025</text><text x="608.58" y="235.00" font-size="9" fill="#111827" text-anchor="middle" transform="rotate(-45 608.58 235.00)">08.10.2025</text><text x="689.81" y="235.00" font-size="9" fill="#111827" text-anchor="middle" transform="rotate(-45 689.81 235.00)">21.10.2025</text><text x="771.04" y="235.00" font-size="9" fill="#111827" text-anchor="middle" transform="rotate(-45 771.04 235.00)">02.12.2025</text><text x="852.26" y="235.00" font-size="9" fill="#111827" text-anchor="middle" transform="rotate(-45 852.26 235.00)">13.01.2026</text>
  </g>
</svg>