<svg xmlns="http://www.w3.org/2000/svg" width="900" height="290" style="font-family: -apple-system, BlinkMacSystemFont, 'Segoe UI', Helvetica, Arial, sans-serif;">
  <rect width="100%" height="100%" fill="#0d1117"/>
  <g>
    <line x1="40" y1="220.00" x2="860" y2="220.00" stroke="#30363d"/><text x="32" y="224.00" font-size="10" fill="#c9d1d9" text-anchor="end">0</text><line x1="40" y1="175.00" x2="860" y2="175.00" stroke="#30363d"/><text x="32" y="179.00" font-size="10" fill="#c9d1d9" text-anchor="end">25k</text><line x1="40" y1="130.00" x2="860" y2="130.00" stroke="#30363d"/><text x="32" y="134.00" font-size="10" fill="#c9d1d9" text-anchor="end">50k</text><line x1="40" y1="85.00" x2="860" y2="85.00" stroke="#30363d"/><text x="32" y="89.00" font-size="10" fill="#c9d1d9" text-anchor="end">75k</text><line x1="40" y1="40.00" x2="860" y2="40.00" stroke="#30363d"/><text x="32" y="44.00" font-size="10" fill="#c9d1d9" text-anchor="end">100k</text>
    <line x1="40.00" y1="40" x2="40.00" y2="220" stroke="#30363d" opacity="0.5"/><line x1="121.28" y1="40" x2="121.28" y2="220" stroke="#30363d" opacity="0.5"/><line x1="202.57" y1="40" x2="202.57" y2="220" stroke="#30363d" opacity="0.5"/><line x1="283.85" y1="40" x2="283.85" y2="220" stroke="#30363d" opacity="0.5"/><line x1="365.13" y1="40" x2="365.13" y2="220" stroke="#30363d" opacity="0.5"/><line x1="446.41" y1="40" x2="446.41" y2="220" stroke="#30363d" opacity="0.5"/><line x1="527.70" y1="40" x2="527.70" y2="220" stroke="#30363d" opacity="0.5"/><line x1="608.98" y1="40" x2="608.98" y2="220" stroke="#30363d" opacity="0.5"/><line x1="690.26" y1="40" x2="690.26" y2="220" stroke="#30363d" opacity="0.5"/><line x1="771.55" y1="40" x2="771.55" y2="220" stroke="#30363d" opacity="0.5"/><line x1="852.83" y1="40" x2="852.83" y2="220" stroke="#30363d" opacity="0.5"/>
    <line x1="40" y1="220" x2="860" y2="220" stroke="#30363d"/>
    <line x1="40" y1="40"   x2="40"   y2="220" stroke="#30363d"/>
    <path d="M 40.00 220.00 L 42.39 220.00 L 44.78 219.60 L 47.17 219.62 L 49.56 219.63 L 51.95 219.32 L 54.34 219.31 L 56.73 219.26 L 59.13 218.89 L 61.52 218.89 L 63.91 218.89 L 66.30 218.87 L 68.69 218.87 L 71.08 218.86 L 73.47 218.85 L 75.86 218.85 L 78.25 218.82 L 80.64 218.78 L 83.03 218.72 L 85.42 218.68 L 87.81 218.64 L 90.20 218.59 L 92.59 218.59 L 94.99 218.57 L 97.38 218.57 L 99.77 218.57 L 102.16 218.57 L 104.55 218.57 L 106.94 218.57 L 109.33 218.57 L 111.72 218.57 L 114.11 218.57 L 116.50 218.55 L 118.89 218.54 L 121.28 218.58 L 123.67 218.55 L 126.06 218.55 L 128.45 218.53 L 130.85 218.31 L 133.24 217.94 L 135.63 217.88 L 138.02 217.87 L 140.41 217.86 L 142.80 217.85 L 145.19 217.84 L 147.58 217.85 L 149.97 217.82 L 152.36 217.66 L 154.75 217.61 L 157.14 217.60 L 159.53 217.57 L 161.92 217.56 L 164.31 217.52 L 166.71 217.38 L 169.10 217.24 L 171.49 216.93 L 173.88 216.65 L 176.27 216.44 L 178.66 216.39 L 181.05 216.34 L 183.44 216.83 L 185.83 200.94 L 188.22 200.94 L 190.61 200.95 L 193.00 198.99 L 195.39 198.98 L 197.78 198.94 L 200.17 198.94 L 202.57 198.91 L 204.96 198.90 L 207.35 198.93 L 209.74 198.93 L 212.13 198.99 L 214.52 198.95 L 216.91 198.96 L 219.30 198.95 L 221.69 198.95 L 224.08 198.97 L 226.47 198.97 L 228.86 198.97 L 231.25 198.97 L 233.64 198.97 L 236.03 198.97 L 238.43 198.97 L 240.82 198.97 L 243.21 198.97 L 245.60 198.97 L 247.99 198.97 L 250.38 197.51 L 252.77 197.43 L 255.16 197.40 L 257.55 197.38 L 259.94 197.38 L 262.33 197.49 L 264.72 197.34 L 267.11 197.33 L 269.50 197.18 L 271.90 197.41 L 274.29 197.41 L 276.68 197.29 L 279.07 197.29 L 281.46 197.22 L 283.85 197.21 L 286.24 197.15 L 288.63 196.94 L 291.02 197.00 L 293.41 197.41 L 295.80 197.41 L 298.19 197.30 L 300.58 197.26 L 302.97 197.19 L 305.36 197.19 L 307.76 197.19 L 310.15 197.19 L 312.54 197.18 L 314.93 197.12 L 317.32 197.09 L 319.71 197.04 L 322.10 197.00 L 324.49 196.96 L 326.88 196.92 L 329.27 196.91 L 331.66 196.86 L 334.05 196.80 L 336.44 196.75 L 338.83 196.69 L 341.22 196.66 L 343.62 196.63 L 346.01 196.56 L 348.40 196.51 L 350.79 196.47 L 353.18 196.45 L 355.57 196.40 L 357.96 196.37 L 360.35 196.34 L 362.74 196.28 L 365.13 196.20 L 367.52 196.12 L 369.91 196.02 L 372.30 195.89 L 374.69 195.77 L 377.08 195.68 L 379.48 195.63 L 381.87 195.58 L 384.26 195.53 L 386.65 195.44 L 389.04 195.35 L 391.43 195.22 L 393.82 195.11 L 396.21 194.95 L 398.60 194.82 L 400.99 194.68 L 403.38 194.57 L 405.77 194.55 L 408.16 194.51 L 410.55 194.48 L 412.94 194.44 L 415.34 194.40 L 417.73 194.37 L 420.12 194.34 L 422.51 194.29 L 424.90 194.25 L 427.29 194.23 L 429.68 194.21 L 432.07 194.19 L 434.46 194.16 L 436.85 194.12 L 439.24 194.07 L 441.63 193.99 L 444.02 193.94 L 446.41 193.87 L 448.80 193.80 L 451.20 193.74 L 453.59 193.72 L 455.98 193.70 L 458.37 193.66 L 460.76 193.62 L 463.15 193.56 L 465.54 193.49 L 467.93 193.43 L 470.32 193.35 L 472.71 193.27 L 475.10 193.20 L 477.49 193.14 L 479.88 193.15 L 482.27 193.15 L 484.66 193.15 L 487.06 193.18 L 489.45 193.09 L 491.84 193.07 L 494.23 193.07 L 496.62 193.08 L 499.01 193.00 L 501.40 192.95 L 503.79 192.95 L 506.18 192.95 L 508.57 192.95 L 510.96 192.80 L 513.35 192.73 L 515.74 192.69 L 518.13 192.67 L 520.52 192.67 L 522.92 192.68 L 525.31 192.64 L 527.70 192.63 L 530.09 192.63 L 532.48 190.39 L 534.87 189.96 L 537.26 189.85 L 539.65 189.53 L 542.04 189.52 L 544.43 189.36 L 546.82 187.79 L 549.21 187.36 L 551.60 181.35 L 553.99 181.35 L 556.38 180.72 L 558.78 180.71 L 561.17 180.26 L 563.56 179.68 L 565.95 179.67 L 568.34 178.77 L 570.73 177.57 L 573.12 175.55 L 575.51 174.52 L 577.90 173.86 L 580.29 174.17 L 582.68 173.10 L 585.07 173.10 L 587.46 171.18 L 589.85 168.37 L 592.24 168.37 L 594.64 165.86 L 597.03 163.63 L 599.42 163.63 L 601.81 163.62 L 604.20 162.88 L 606.59 161.06 L 608.98 193.89 L 611.37 193.22 L 613.76 192.73 L 616.15 192.34 L 618.54 189.45 L 620.93 188.03 L 623.32 188.03 L 625.71 180.86 L 628.10 148.96 L 630.50 144.25 L 632.89 176.00 L 635.28 176.17 L 637.67 175.77 L 640.06 175.72 L 642.45 197.26 L 644.84 197.26 L 647.23 197.06 L 649.62 196.44 L 652.01 194.49 L 654.40 194.50 L 656.79 194.49 L 659.18 194.49 L 661.57 194.49 L 663.97 194.48 L 666.36 194.48 L 668.75 194.62 L 671.14 206.08 L 673.53 206.08 L 675.92 206.05 L 678.31 206.04 L 680.70 205.22 L 683.09 204.28 L 685.48 204.28 L 687.87 204.28 L 690.26 200.22 L 692.65 204.28 L 695.04 204.28 L 697.43 204.28 L 699.83 198.60 L 702.22 198.60 L 704.61 198.60 L 707.00 198.60 L 709.39 193.00 L 711.78 193.00 L 714.17 188.39 L 716.56 188.39 L 718.95 179.75 L 721.34 174.84 L 723.73 173.23 L 726.12 170.37 L 728.51 169.87 L 730.90 153.88 L 733.29 149.24 L 735.69 152.04 L 738.08 141.93 L 740.47 141.88 L 742.86 141.69 L 745.25 141.69 L 747.64 141.76 L 750.03 141.75 L 752.42 140.68 L 754.81 141.38 L 757.20 141.36 L 759.59 141.83 L 761.98 141.39 L 764.37 141.39 L 766.76 141.52 L 769.15 141.52 L 771.55 141.53 L 773.94 142.33 L 776.33 141.73 L 778.72 141.68 L 781.11 141.68 L 783.50 141.66 L 785.89 141.67 L 788.28 141.65 L 790.67 139.51 L 793.06 136.07 L 795.45 136.04 L 797.84 133.43 L 800.23 131.89 L 802.62 131.13 L 805.01 131.51 L 807.41 131.50 L 809.80 131.57 L 812.19 131.56 L 814.58 131.49 L 816.97 131.49 L 819.36 131.49 L 821.75 131.49 L 824.14 131.49 L 826.53 131.49 L 828.92 131.49 L 831.31 131.49 L 833.70 131.49 L 836.09 131.49 L 838.48 131.49 L 840.87 131.49 L 843.27 131.49 L 845.66 131.49 L 848.05 131.49 L 850.44 131.49 L 852.83 131.49 L 855.22 131.49 L 857.61 131.49 L 860.00 131.49" fill="none" stroke="#3fb950" stroke-width="2"/>
    <circle cx="860.00" cy="131.49" r="3" fill="#3fb950"/>
    <text x="40.00" y="235.00" font-size="9" fill="#c9d1d9" text-anchor="middle" transform="rotate(-45 40.00 235.00)">27.09.2025</text><text x="121.28" y="235.00" font-size="9" fill="#c9d1d9" text-anchor="middle" transform="rotate(-45 121.28 235.00)">28.09.2025</text><text x="202.57" y="235.00" font-size="9" fill="#c9d1d9" text-anchor="middle" transform="rotate(-45 202.57 235.00)">28.09.2025</text><text x="283.85" y="235.00" font-size="9" fill="#c9d1d9" text-anchor="middle" transform="rotate(-45 283.85 235.00)">30.09.2025</text><text x="365.13" y="235.00" font-size="9" fill="#c9d1d9" text-anchor="middle" transform="rotate(-45 365.13 235.00)">04.10.2025</text><text x="446.41" y="235.00" font-size="9" fill="#c9d1d9" text-anchor="middle" transform="rotate(-45 446.41 235.00)">04.10.2025</text><text x="527.70" y="235.00" font-size="9" fill="#c9d1d9" text-anchor="middle" transform="rotate(-45 527.70 235.00)">04.10.2025</text><text x="608.98" y="235.00" font-size="9" fill="#c9d1d9" text-anchor="middle" transform="rotate(-45 608.98 235.00)">04.10.2025</text><text x="690.26" y="235.00" font-size="9" fill="#c9d1d9" text-anchor="middle" transform="rotate(-45 690.26 235.00)">07.10.2025</text><text x="771.55" y="235.00" font-size="9" fill="#c9d1d9" text-anchor="middle" transform="rotate(-45 771.55 235.00)">09.10.2025</text><text x="852.83" y="235.00" font-size="9" fill="#c9d1d9" text-anchor="middle" transform="rotate(-45 852.83 235.00)">25.10.2025</text>
  </g>
</svg>