<svg xmlns="http://www.w3.org/2000/svg" width="900" height="290" style="font-family: -apple-system, BlinkMacSystemFont, 'Segoe UI', Helvetica, Arial, sans-serif;">
  <rect width="100%" height="100%" fill="#0d1117"/>
  <g>
    <line x1="40" y1="220.00" x2="860" y2="220.00" stroke="#30363d"/><text x="32" y="224.00" font-size="10" fill="#c9d1d9" text-anchor="end">0</text><line x1="40" y1="175.00" x2="860" y2="175.00" stroke="#30363d"/><text x="32" y="179.00" font-size="10" fill="#c9d1d9" text-anchor="end">25k</text><line x1="40" y1="130.00" x2="860" y2="130.00" stroke="#30363d"/><text x="32" y="134.00" font-size="10" fill="#c9d1d9" text-anchor="end">50k</text><line x1="40" y1="85.00" x2="860" y2="85.00" stroke="#30363d"/><text x="32" y="89.00" font-size="10" fill="#c9d1d9" text-anchor="end">75k</text><line x1="40" y1="40.00" x2="860" y2="40.00" stroke="#30363d"/><text x="32" y="44.00" font-size="10" fill="#c9d1d9" text-anchor="end">100k</text>
    <line x1="40.00" y1="40" x2="40.00" y2="220" stroke="#30363d" opacity="0.5"/><line x1="120.90" y1="40" x2="120.90" y2="220" stroke="#30363d" opacity="0.5"/><line x1="201.79" y1="40" x2="201.79" y2="220" stroke="#30363d" opacity="0.5"/><line x1="282.69" y1="40" x2="282.69" y2="220" stroke="#30363d" opacity="0.5"/><line x1="363.59" y1="40" x2="363.59" y2="220" stroke="#30363d" opacity="0.5"/><line x1="444.48" y1="40" x2="444.48" y2="220" stroke="#30363d" opacity="0.5"/><line x1="525.38" y1="40" x2="525.38" y2="220" stroke="#30363d" opacity="0.5"/><line x1="606.28" y1="40" x2="606.28" y2="220" stroke="#30363d" opacity="0.5"/><line x1="687.17" y1="40" x2="687.17" y2="220" stroke="#30363d" opacity="0.5"/><line x1="768.07" y1="40" x2="768.07" y2="220" stroke="#30363d" opacity="0.5"/><line x1="848.97" y1="40" x2="848.97" y2="220" stroke="#30363d" opacity="0.5"/>
    <line x1="40" y1="220" x2="860" y2="220" stroke="#30363d"/>
    <line x1="40" y1="40"   x2="40"   y2="220" stroke="#30363d"/>
    <path d="M 40.00 220.00 L 41.84 220.00 L 43.68 219.60 L 45.52 219.62 L 47.35 219.63 L 49.19 219.32 L 51.03 219.31 L 52.87 219.26 L 54.71 218.89 L 56.55 218.89 L 58.39 218.89 L 60.22 218.87 L 62.06 218.87 L 63.90 218.86 L 65.74 218.85 L 67.58 218.85 L 69.42 218.82 L 71.26 218.78 L 73.09 218.72 L 74.93 218.68 L 76.77 218.64 L 78.61 218.59 L 80.45 218.59 L 82.29 218.57 L 84.13 218.57 L 85.96 218.57 L 87.80 218.57 L 89.64 218.57 L 91.48 218.57 L 93.32 218.57 L 95.16 218.57 L 97.00 218.57 L 98.83 218.55 L 100.67 218.54 L 102.51 218.58 L 104.35 218.55 L 106.19 218.55 L 108.03 218.53 L 109.87 218.31 L 111.70 217.94 L 113.54 217.88 L 115.38 217.87 L 117.22 217.86 L 119.06 217.85 L 120.90 217.84 L 122.74 217.85 L 124.57 217.82 L 126.41 217.66 L 128.25 217.61 L 130.09 217.60 L 131.93 217.57 L 133.77 217.56 L 135.61 217.52 L 137.44 217.38 L 139.28 217.24 L 141.12 216.93 L 142.96 216.65 L 144.80 216.44 L 146.64 216.39 L 148.48 216.34 L 150.31 216.83 L 152.15 200.94 L 153.99 200.94 L 155.83 200.95 L 157.67 198.99 L 159.51 198.98 L 161.35 198.94 L 163.18 198.94 L 165.02 198.91 L 166.86 198.90 L 168.70 198.93 L 170.54 198.93 L 172.38 198.99 L 174.22 198.95 L 176.05 198.96 L 177.89 198.95 L 179.73 198.95 L 181.57 198.97 L 183.41 198.97 L 185.25 198.97 L 187.09 198.97 L 188.92 198.97 L 190.76 198.97 L 192.60 198.97 L 194.44 198.97 L 196.28 198.97 L 198.12 198.97 L 199.96 198.97 L 201.79 197.51 L 203.63 197.43 L 205.47 197.40 L 207.31 197.38 L 209.15 197.38 L 210.99 197.49 L 212.83 197.34 L 214.66 197.33 L 216.50 197.18 L 218.34 197.41 L 220.18 197.41 L 222.02 197.29 L 223.86 197.29 L 225.70 197.22 L 227.53 197.21 L 229.37 197.15 L 231.21 196.94 L 233.05 197.00 L 234.89 197.41 L 236.73 197.41 L 238.57 197.30 L 240.40 197.26 L 242.24 197.19 L 244.08 197.19 L 245.92 197.19 L 247.76 197.19 L 249.60 197.18 L 251.43 197.12 L 253.27 197.09 L 255.11 197.04 L 256.95 197.00 L 258.79 196.96 L 260.63 196.92 L 262.47 196.91 L 264.30 196.86 L 266.14 196.80 L 267.98 196.75 L 269.82 196.69 L 271.66 196.66 L 273.50 196.63 L 275.34 196.56 L 277.17 196.51 L 279.01 196.47 L 280.85 196.45 L 282.69 196.40 L 284.53 196.37 L 286.37 196.34 L 288.21 196.28 L 290.04 196.20 L 291.88 196.12 L 293.72 196.02 L 295.56 195.89 L 297.40 195.77 L 299.24 195.68 L 301.08 195.63 L 302.91 195.58 L 304.75 195.53 L 306.59 195.44 L 308.43 195.35 L 310.27 195.22 L 312.11 195.11 L 313.95 194.95 L 315.78 194.82 L 317.62 194.68 L 319.46 194.57 L 321.30 194.55 L 323.14 194.51 L 324.98 194.48 L 326.82 194.44 L 328.65 194.40 L 330.49 194.37 L 332.33 194.34 L 334.17 194.29 L 336.01 194.25 L 337.85 194.23 L 339.69 194.21 L 341.52 194.19 L 343.36 194.16 L 345.20 194.12 L 347.04 194.07 L 348.88 193.99 L 350.72 193.94 L 352.56 193.87 L 354.39 193.80 L 356.23 193.74 L 358.07 193.72 L 359.91 193.70 L 361.75 193.66 L 363.59 193.62 L 365.43 193.56 L 367.26 193.49 L 369.10 193.43 L 370.94 193.35 L 372.78 193.27 L 374.62 193.20 L 376.46 193.14 L 378.30 193.15 L 380.13 193.15 L 381.97 193.15 L 383.81 193.18 L 385.65 193.09 L 387.49 193.07 L 389.33 193.07 L 391.17 193.08 L 393.00 193.00 L 394.84 192.95 L 396.68 192.95 L 398.52 192.95 L 400.36 192.95 L 402.20 192.80 L 404.04 192.73 L 405.87 192.69 L 407.71 192.67 L 409.55 192.67 L 411.39 192.68 L 413.23 192.64 L 415.07 192.63 L 416.91 192.63 L 418.74 190.39 L 420.58 189.96 L 422.42 189.85 L 424.26 189.53 L 426.10 189.52 L 427.94 189.36 L 429.78 187.79 L 431.61 187.36 L 433.45 181.35 L 435.29 181.35 L 437.13 180.72 L 438.97 180.71 L 440.81 180.26 L 442.65 179.68 L 444.48 179.67 L 446.32 178.77 L 448.16 177.57 L 450.00 175.55 L 451.84 174.52 L 453.68 173.86 L 455.52 174.17 L 457.35 173.10 L 459.19 173.10 L 461.03 171.18 L 462.87 168.37 L 464.71 168.37 L 466.55 165.86 L 468.39 163.63 L 470.22 163.63 L 472.06 163.62 L 473.90 162.88 L 475.74 161.06 L 477.58 193.89 L 479.42 193.22 L 481.26 192.73 L 483.09 192.34 L 484.93 189.45 L 486.77 188.03 L 488.61 188.03 L 490.45 180.86 L 492.29 148.96 L 494.13 144.25 L 495.96 176.00 L 497.80 176.17 L 499.64 175.77 L 501.48 175.72 L 503.32 197.26 L 505.16 197.26 L 507.00 197.06 L 508.83 196.44 L 510.67 194.49 L 512.51 194.50 L 514.35 194.49 L 516.19 194.49 L 518.03 194.49 L 519.87 194.48 L 521.70 194.48 L 523.54 194.62 L 525.38 206.08 L 527.22 206.08 L 529.06 206.05 L 530.90 206.04 L 532.74 205.22 L 534.57 204.28 L 536.41 204.28 L 538.25 204.28 L 540.09 200.22 L 541.93 204.28 L 543.77 204.28 L 545.61 204.28 L 547.44 198.60 L 549.28 198.60 L 551.12 198.60 L 552.96 198.60 L 554.80 193.00 L 556.64 193.00 L 558.48 188.39 L 560.31 188.39 L 562.15 179.75 L 563.99 174.84 L 565.83 173.23 L 567.67 170.37 L 569.51 169.87 L 571.35 153.88 L 573.18 149.24 L 575.02 152.04 L 576.86 141.93 L 578.70 141.88 L 580.54 141.69 L 582.38 141.69 L 584.22 141.76 L 586.05 141.75 L 587.89 140.68 L 589.73 141.38 L 591.57 141.36 L 593.41 141.83 L 595.25 141.39 L 597.09 141.39 L 598.92 141.52 L 600.76 141.52 L 602.60 141.53 L 604.44 142.33 L 606.28 141.73 L 608.12 141.68 L 609.96 141.68 L 611.79 141.66 L 613.63 141.67 L 615.47 141.65 L 617.31 139.51 L 619.15 136.07 L 620.99 136.04 L 622.83 133.43 L 624.66 131.89 L 626.50 131.13 L 628.34 131.51 L 630.18 131.50 L 632.02 131.57 L 633.86 131.56 L 635.70 131.49 L 637.53 131.49 L 639.37 131.49 L 641.21 131.49 L 643.05 131.49 L 644.89 131.49 L 646.73 131.49 L 648.57 131.49 L 650.40 131.49 L 652.24 131.49 L 654.08 131.49 L 655.92 131.49 L 657.76 131.49 L 659.60 131.49 L 661.43 131.49 L 663.27 131.49 L 665.11 131.49 L 666.95 131.49 L 668.79 131.49 L 670.63 131.49 L 672.47 131.49 L 674.30 131.49 L 676.14 131.49 L 677.98 131.49 L 679.82 131.49 L 681.66 131.49 L 683.50 131.49 L 685.34 131.49 L 687.17 131.49 L 689.01 131.49 L 690.85 131.49 L 692.69 131.49 L 694.53 131.49 L 696.37 131.49 L 698.21 131.49 L 700.04 131.49 L 701.88 131.49 L 703.72 131.49 L 705.56 131.49 L 707.40 131.49 L 709.24 131.49 L 711.08 131.49 L 712.91 131.49 L 714.75 131.49 L 716.59 131.49 L 718.43 131.49 L 720.27 131.49 L 722.11 131.49 L 723.95 131.49 L 725.78 131.49 L 727.62 131.49 L 729.46 131.49 L 731.30 131.49 L 733.14 131.49 L 734.98 131.49 L 736.82 131.49 L 738.65 131.49 L 740.49 131.49 L 742.33 131.49 L 744.17 131.49 L 746.01 131.49 L 747.85 131.49 L 749.69 131.49 L 751.52 131.49 L 753.36 131.49 L 755.20 131.49 L 757.04 131.49 L 758.88 131.49 L 760.72 131.49 L 762.56 131.49 L 764.39 131.49 L 766.23 131.49 L 768.07 131.49 L 769.91 131.49 L 771.75 131.49 L 773.59 131.49 L 775.43 131.49 L 777.26 131.49 L 779.10 131.49 L 780.94 131.49 L 782.78 131.49 L 784.62 131.49 L 786.46 131.49 L 788.30 131.49 L 790.13 131.49 L 791.97 131.49 L 793.81 131.49 L 795.65 131.49 L 797.49 131.49 L 799.33 131.49 L 801.17 131.49 L 803.00 131.49 L 804.84 131.49 L 806.68 131.49 L 808.52 131.49 L 810.36 131.49 L 812.20 131.49 L 814.04 131.49 L 815.87 131.49 L 817.71 131.49 L 819.55 131.49 L 821.39 131.49 L 823.23 131.49 L 825.07 131.49 L 826.91 131.49 L 828.74 131.49 L 830.58 131.49 L 832.42 131.49 L 834.26 131.49 L 836.10 131.49 L 837.94 131.49 L 839.78 131.49 L 841.61 131.49 L 843.45 131.49 L 845.29 131.49 L 847.13 131.49 L 848.97 131.49 L 850.81 131.49 L 852.65 131.49 L 854.48 131.49 L 856.32 131.49 L 858.16 131.49 L 860.00 131.49" fill="none" stroke="#3fb950" stroke-width="2"/>
    <circle cx="860.00" cy="131.49" r="3" fill="#3fb950"/>
    <text x="40.00" y="235.00" font-size="9" fill="#c9d1d9" text-anchor="middle" transform="rotate(-45 40.00 235.00)">27.09.2025</text><text x="120.90" y="235.00" font-size="9" fill="#c9d1d9" text-anchor="middle" transform="rotate(-45 120.90 235.00)">28.09.2025</text><text x="201.79" y="235.00" font-size="9" fill="#c9d1d9" text-anchor="middle" transform="rotate(-45 201.79 235.00)">29.09.2025</text><text x="282.69" y="235.00" font-size="9" fill="#c9d1d9" text-anchor="middle" transform="rotate(-45 282.69 235.00)">04.10.2025</text><text x="363.59" y="235.00" font-size="9" fill="#c9d1d9" text-anchor="middle" transform="rotate(-45 363.59 235.00)">04.10.2025</text><text x="444.48" y="235.00" font-size="9" fill="#c9d1d9" text-anchor="middle" transform="rotate(-45 444.48 235.00)">04.10.2025</text><text x="525.38" y="235.00" font-size="9" fill="#c9d1d9" text-anchor="middle" transform="rotate(-45 525.38 235.00)">05.10.2025</text><text x="606.28" y="235.00" font-size="9" fill="#c9d1d9" text-anchor="middle" transform="rotate(-45 606.28 235.00)">09.10.2025</text><text x="687.17" y="235.00" font-size="9" fill="#c9d1d9" text-anchor="middle" transform="rotate(-45 687.17 235.00)">06.11.2025</text><text x="768.07" y="235.00" font-size="9" fill="#c9d1d9" text-anchor="middle" transform="rotate(-45 768.07 235.00)">20.12.2025</text><text x="848.97" y="235.00" font-size="9" fill="#c9d1d9" text-anchor="middle" transform="rotate(-45 848.97 235.00)">01.02.2026</text>
  </g>
</svg>