<svg xmlns="http://www.w3.org/2000/svg" width="900" height="290" style="font-family: -apple-system, BlinkMacSystemFont, 'Segoe UI', Helvetica, Arial, sans-serif;">
  <rect width="100%" height="100%" fill="#0d1117"/>
  <g>
    <line x1="40" y1="220.00" x2="860" y2="220.00" stroke="#30363d"/><text x="32" y="224.00" font-size="10" fill="#c9d1d9" text-anchor="end">0</text><line x1="40" y1="175.00" x2="860" y2="175.00" stroke="#30363d"/><text x="32" y="179.00" font-size="10" fill="#c9d1d9" text-anchor="end">25k</text><line x1="40" y1="130.00" x2="860" y2="130.00" stroke="#30363d"/><text x="32" y="134.00" font-size="10" fill="#c9d1d9" text-anchor="end">50k</text><line x1="40" y1="85.00" x2="860" y2="85.00" stroke="#30363d"/><text x="32" y="89.00" font-size="10" fill="#c9d1d9" text-anchor="end">75k</text><line x1="40" y1="40.00" x2="860" y2="40.00" stroke="#30363d"/><text x="32" y="44.00" font-size="10" fill="#c9d1d9" text-anchor="end">100k</text>
    <line x1="40.00" y1="40" x2="40.00" y2="220" stroke="#30363d" opacity="0.5"/><line x1="121.39" y1="40" x2="121.39" y2="220" stroke="#30363d" opacity="0.5"/><line x1="202.78" y1="40" x2="202.78" y2="220" stroke="#30363d" opacity="0.5"/><line x1="284.17" y1="40" x2="284.17" y2="220" stroke="#30363d" opacity="0.5"/><line x1="365.56" y1="40" x2="365.56" y2="220" stroke="#30363d" opacity="0.5"/><line x1="446.95" y1="40" x2="446.95" y2="220" stroke="#30363d" opacity="0.5"/><line x1="528.34" y1="40" x2="528.34" y2="220" stroke="#30363d" opacity="0.5"/><line x1="609.73" y1="40" x2="609.73" y2="220" stroke="#30363d" opacity="0.5"/><line x1="691.12" y1="40" x2="691.12" y2="220" stroke="#30363d" opacity="0.5"/><line x1="772.51" y1="40" x2="772.51" y2="220" stroke="#30363d" opacity="0.5"/><line x1="853.90" y1="40" x2="853.90" y2="220" stroke="#30363d" opacity="0.5"/>
    <line x1="40" y1="220" x2="860" y2="220" stroke="#30363d"/>
    <line x1="40" y1="40"   x2="40"   y2="220" stroke="#30363d"/>
    <path d="M 40.00 220.00 L 42.03 220.00 L 44.07 219.60 L 46.10 219.62 L 48.14 219.63 L 50.17 219.32 L 52.21 219.31 L 54.24 219.26 L 56.28 218.89 L 58.31 218.89 L 60.35 218.89 L 62.38 218.87 L 64.42 218.87 L 66.45 218.86 L 68.49 218.85 L 70.52 218.85 L 72.56 218.82 L 74.59 218.78 L 76.63 218.72 L 78.66 218.68 L 80.69 218.64 L 82.73 218.59 L 84.76 218.59 L 86.80 218.57 L 88.83 218.57 L 90.87 218.57 L 92.90 218.57 L 94.94 218.57 L 96.97 218.57 L 99.01 218.57 L 101.04 218.57 L 103.08 218.57 L 105.11 218.55 L 107.15 218.54 L 109.18 218.58 L 111.22 218.55 L 113.25 218.55 L 115.29 218.53 L 117.32 218.31 L 119.35 217.94 L 121.39 217.88 L 123.42 217.87 L 125.46 217.86 L 127.49 217.85 L 129.53 217.84 L 131.56 217.85 L 133.60 217.82 L 135.63 217.66 L 137.67 217.61 L 139.70 217.60 L 141.74 217.57 L 143.77 217.56 L 145.81 217.52 L 147.84 217.38 L 149.88 217.24 L 151.91 216.93 L 153.95 216.65 L 155.98 216.44 L 158.01 216.39 L 160.05 216.34 L 162.08 216.83 L 164.12 200.94 L 166.15 200.94 L 168.19 200.95 L 170.22 198.99 L 172.26 198.98 L 174.29 198.94 L 176.33 198.94 L 178.36 198.91 L 180.40 198.90 L 182.43 198.93 L 184.47 198.93 L 186.50 198.99 L 188.54 198.95 L 190.57 198.96 L 192.61 198.95 L 194.64 198.95 L 196.67 198.97 L 198.71 198.97 L 200.74 198.97 L 202.78 198.97 L 204.81 198.97 L 206.85 198.97 L 208.88 198.97 L 210.92 198.97 L 212.95 198.97 L 214.99 198.97 L 217.02 198.97 L 219.06 197.51 L 221.09 197.43 L 223.13 197.40 L 225.16 197.38 L 227.20 197.38 L 229.23 197.49 L 231.27 197.34 L 233.30 197.33 L 235.33 197.18 L 237.37 197.41 L 239.40 197.41 L 241.44 197.29 L 243.47 197.29 L 245.51 197.22 L 247.54 197.21 L 249.58 197.15 L 251.61 196.94 L 253.65 197.00 L 255.68 197.41 L 257.72 197.41 L 259.75 197.30 L 261.79 197.26 L 263.82 197.19 L 265.86 197.19 L 267.89 197.19 L 269.93 197.19 L 271.96 197.18 L 274.00 197.12 L 276.03 197.09 L 278.06 197.04 L 280.10 197.00 L 282.13 196.96 L 284.17 196.92 L 286.20 196.91 L 288.24 196.86 L 290.27 196.80 L 292.31 196.75 L 294.34 196.69 L 296.38 196.66 L 298.41 196.63 L 300.45 196.56 L 302.48 196.51 L 304.52 196.47 L 306.55 196.45 L 308.59 196.40 L 310.62 196.37 L 312.66 196.34 L 314.69 196.28 L 316.72 196.20 L 318.76 196.12 L 320.79 196.02 L 322.83 195.89 L 324.86 195.77 L 326.90 195.68 L 328.93 195.63 L 330.97 195.58 L 333.00 195.53 L 335.04 195.44 L 337.07 195.35 L 339.11 195.22 L 341.14 195.11 L 343.18 194.95 L 345.21 194.82 L 347.25 194.68 L 349.28 194.57 L 351.32 194.55 L 353.35 194.51 L 355.38 194.48 L 357.42 194.44 L 359.45 194.40 L 361.49 194.37 L 363.52 194.34 L 365.56 194.29 L 367.59 194.25 L 369.63 194.23 L 371.66 194.21 L 373.70 194.19 L 375.73 194.16 L 377.77 194.12 L 379.80 194.07 L 381.84 193.99 L 383.87 193.94 L 385.91 193.87 L 387.94 193.80 L 389.98 193.74 L 392.01 193.72 L 394.04 193.70 L 396.08 193.66 L 398.11 193.62 L 400.15 193.56 L 402.18 193.49 L 404.22 193.43 L 406.25 193.35 L 408.29 193.27 L 410.32 193.20 L 412.36 193.14 L 414.39 193.15 L 416.43 193.15 L 418.46 193.15 L 420.50 193.18 L 422.53 193.09 L 424.57 193.07 L 426.60 193.07 L 428.64 193.08 L 430.67 193.00 L 432.70 192.95 L 434.74 192.95 L 436.77 192.95 L 438.81 192.95 L 440.84 192.80 L 442.88 192.73 L 444.91 192.69 L 446.95 192.67 L 448.98 192.67 L 451.02 192.68 L 453.05 192.64 L 455.09 192.63 L 457.12 192.63 L 459.16 190.39 L 461.19 189.96 L 463.23 189.85 L 465.26 189.53 L 467.30 189.52 L 469.33 189.36 L 471.36 187.79 L 473.40 187.36 L 475.43 181.35 L 477.47 181.35 L 479.50 180.72 L 481.54 180.71 L 483.57 180.26 L 485.61 179.68 L 487.64 179.67 L 489.68 178.77 L 491.71 177.57 L 493.75 175.55 L 495.78 174.52 L 497.82 173.86 L 499.85 174.17 L 501.89 173.10 L 503.92 173.10 L 505.96 171.18 L 507.99 168.37 L 510.02 168.37 L 512.06 165.86 L 514.09 163.63 L 516.13 163.63 L 518.16 163.62 L 520.20 162.88 L 522.23 161.06 L 524.27 193.89 L 526.30 193.22 L 528.34 192.73 L 530.37 192.34 L 532.41 189.45 L 534.44 188.03 L 536.48 188.03 L 538.51 180.86 L 540.55 148.96 L 542.58 144.25 L 544.62 176.00 L 546.65 176.17 L 548.68 175.77 L 550.72 175.72 L 552.75 197.26 L 554.79 197.26 L 556.82 197.06 L 558.86 196.44 L 560.89 194.49 L 562.93 194.50 L 564.96 194.49 L 567.00 194.49 L 569.03 194.49 L 571.07 194.48 L 573.10 194.48 L 575.14 194.62 L 577.17 206.08 L 579.21 206.08 L 581.24 206.05 L 583.28 206.04 L 585.31 205.22 L 587.34 204.28 L 589.38 204.28 L 591.41 204.28 L 593.45 200.22 L 595.48 204.28 L 597.52 204.28 L 599.55 204.28 L 601.59 198.60 L 603.62 198.60 L 605.66 198.60 L 607.69 198.60 L 609.73 193.00 L 611.76 193.00 L 613.80 188.39 L 615.83 188.39 L 617.87 179.75 L 619.90 174.84 L 621.94 173.23 L 623.97 170.37 L 626.00 169.87 L 628.04 153.88 L 630.07 149.24 L 632.11 152.04 L 634.14 141.93 L 636.18 141.88 L 638.21 141.69 L 640.25 141.69 L 642.28 141.76 L 644.32 141.75 L 646.35 140.68 L 648.39 141.38 L 650.42 141.36 L 652.46 141.83 L 654.49 141.39 L 656.53 141.39 L 658.56 141.52 L 660.60 141.52 L 662.63 141.53 L 664.67 142.33 L 666.70 141.73 L 668.73 141.68 L 670.77 141.68 L 672.80 141.66 L 674.84 141.67 L 676.87 141.65 L 678.91 139.51 L 680.94 136.07 L 682.98 136.04 L 685.01 133.43 L 687.05 131.89 L 689.08 131.13 L 691.12 131.51 L 693.15 131.50 L 695.19 131.57 L 697.22 131.56 L 699.26 131.49 L 701.29 131.49 L 703.33 131.49 L 705.36 131.49 L 707.39 131.49 L 709.43 131.49 L 711.46 131.49 L 713.50 131.49 L 715.53 131.49 L 717.57 131.49 L 719.60 131.49 L 721.64 131.49 L 723.67 131.49 L 725.71 131.49 L 727.74 131.49 L 729.78 131.49 L 731.81 131.49 L 733.85 131.49 L 735.88 131.49 L 737.92 131.49 L 739.95 131.49 L 741.99 131.49 L 744.02 131.49 L 746.05 131.49 L 748.09 131.49 L 750.12 131.49 L 752.16 131.49 L 754.19 131.49 L 756.23 131.49 L 758.26 131.49 L 760.30 131.49 L 762.33 131.49 L 764.37 131.49 L 766.40 131.49 L 768.44 131.49 L 770.47 131.49 L 772.51 131.49 L 774.54 131.49 L 776.58 131.49 L 778.61 131.49 L 780.65 131.49 L 782.68 131.49 L 784.71 131.49 L 786.75 131.49 L 788.78 131.49 L 790.82 131.49 L 792.85 131.49 L 794.89 131.49 L 796.92 131.49 L 798.96 131.49 L 800.99 131.49 L 803.03 131.49 L 805.06 131.49 L 807.10 131.49 L 809.13 131.49 L 811.17 131.49 L 813.20 131.49 L 815.24 131.49 L 817.27 131.49 L 819.31 131.49 L 821.34 131.49 L 823.37 131.49 L 825.41 131.49 L 827.44 131.49 L 829.48 131.49 L 831.51 131.49 L 833.55 131.49 L 835.58 131.49 L 837.62 131.49 L 839.65 131.49 L 841.69 131.49 L 843.72 131.49 L 845.76 131.49 L 847.79 131.49 L 849.83 131.49 L 851.86 131.49 L 853.90 131.49 L 855.93 131.49 L 857.97 131.49 L 860.00 131.49" fill="none" stroke="#3fb950" stroke-width="2"/>
    <circle cx="860.00" cy="131.49" r="3" fill="#3fb950"/>
    <text x="40.00" y="235.00" font-size="9" fill="#c9d1d9" text-anchor="middle" transform="rotate(-45 40.00 235.00)">27.09.2025</text><text x="121.39" y="235.00" font-size="9" fill="#c9d1d9" text-anchor="middle" transform="rotate(-45 121.39 235.00)">28.09.2025</text><text x="202.78" y="235.00" font-size="9" fill="#c9d1d9" text-anchor="middle" transform="rotate(-45 202.78 235.00)">29.09.2025</text><text x="284.17" y="235.00" font-size="9" fill="#c9d1d9" text-anchor="middle" transform="rotate(-45 284.17 235.00)">04.10.2025</text><text x="365.56" y="235.00" font-size="9" fill="#c9d1d9" text-anchor="middle" transform="rotate(-45 365.56 235.00)">04.10.2025</text><text x="446.95" y="235.00" font-size="9" fill="#c9d1d9" text-anchor="middle" transform="rotate(-45 446.95 235.00)">04.10.2025</text><text x="528.34" y="235.00" font-size="9" fill="#c9d1d9" text-anchor="middle" transform="rotate(-45 528.34 235.00)">04.10.2025</text><text x="609.73" y="235.00" font-size="9" fill="#c9d1d9" text-anchor="middle" transform="rotate(-45 609.73 235.00)">07.10.2025</text><text x="691.12" y="235.00" font-size="9" fill="#c9d1d9" text-anchor="middle" transform="rotate(-45 691.12 235.00)">09.10.2025</text><text x="772.51" y="235.00" font-size="9" fill="#c9d1d9" text-anchor="middle" transform="rotate(-45 772.51 235.00)">14.11.2025</text><text x="853.90" y="235.00" font-size="9" fill="#c9d1d9" text-anchor="middle" transform="rotate(-45 853.90 235.00)">24.12.2025</text>
  </g>
</svg>