<svg xmlns="http://www.w3.org/2000/svg" width="900" height="290" style="font-family: -apple-system, BlinkMacSystemFont, 'Segoe UI', Helvetica, Arial, sans-serif;">
  <rect width="100%" height="100%" fill="#0d1117"/>
  <g>
    <line x1="40" y1="220.00" x2="860" y2="220.00" stroke="#30363d"/><text x="32" y="224.00" font-size="10" fill="#c9d1d9" text-anchor="end">0</text><line x1="40" y1="175.00" x2="860" y2="175.00" stroke="#30363d"/><text x="32" y="179.00" font-size="10" fill="#c9d1d9" text-anchor="end">25k</text><line x1="40" y1="130.00" x2="860" y2="130.00" stroke="#30363d"/><text x="32" y="134.00" font-size="10" fill="#c9d1d9" text-anchor="end">50k</text><line x1="40" y1="85.00" x2="860" y2="85.00" stroke="#30363d"/><text x="32" y="89.00" font-size="10" fill="#c9d1d9" text-anchor="end">75k</text><line x1="40" y1="40.00" x2="860" y2="40.00" stroke="#30363d"/><text x="32" y="44.00" font-size="10" fill="#c9d1d9" text-anchor="end">100k</text>
    <line x1="40.00" y1="40" x2="40.00" y2="220" stroke="#30363d" opacity="0.5"/><line x1="120.99" y1="40" x2="120.99" y2="220" stroke="#30363d" opacity="0.5"/><line x1="201.98" y1="40" x2="201.98" y2="220" stroke="#30363d" opacity="0.5"/><line x1="282.96" y1="40" x2="282.96" y2="220" stroke="#30363d" opacity="0.5"/><line x1="363.95" y1="40" x2="363.95" y2="220" stroke="#30363d" opacity="0.5"/><line x1="444.94" y1="40" x2="444.94" y2="220" stroke="#30363d" opacity="0.5"/><line x1="525.93" y1="40" x2="525.93" y2="220" stroke="#30363d" opacity="0.5"/><line x1="606.91" y1="40" x2="606.91" y2="220" stroke="#30363d" opacity="0.5"/><line x1="687.90" y1="40" x2="687.90" y2="220" stroke="#30363d" opacity="0.5"/><line x1="768.89" y1="40" x2="768.89" y2="220" stroke="#30363d" opacity="0.5"/><line x1="849.88" y1="40" x2="849.88" y2="220" stroke="#30363d" opacity="0.5"/>
    <line x1="40" y1="220" x2="860" y2="220" stroke="#30363d"/>
    <line x1="40" y1="40"   x2="40"   y2="220" stroke="#30363d"/>
    <path d="M 40.00 220.00 L 42.53 220.00 L 45.06 219.60 L 47.59 219.62 L 50.12 219.63 L 52.65 219.32 L 55.19 219.31 L 57.72 219.26 L 60.25 218.89 L 62.78 218.89 L 65.31 218.89 L 67.84 218.87 L 70.37 218.87 L 72.90 218.86 L 75.43 218.85 L 77.96 218.85 L 80.49 218.82 L 83.02 218.78 L 85.56 218.72 L 88.09 218.68 L 90.62 218.64 L 93.15 218.59 L 95.68 218.59 L 98.21 218.57 L 100.74 218.57 L 103.27 218.57 L 105.80 218.57 L 108.33 218.57 L 110.86 218.57 L 113.40 218.57 L 115.93 218.57 L 118.46 218.57 L 120.99 218.55 L 123.52 218.54 L 126.05 218.58 L 128.58 218.55 L 131.11 218.55 L 133.64 218.53 L 136.17 218.31 L 138.70 217.94 L 141.23 217.88 L 143.77 217.87 L 146.30 217.86 L 148.83 217.85 L 151.36 217.84 L 153.89 217.85 L 156.42 217.82 L 158.95 217.66 L 161.48 217.61 L 164.01 217.60 L 166.54 217.57 L 169.07 217.56 L 171.60 217.52 L 174.14 217.38 L 176.67 217.24 L 179.20 216.93 L 181.73 216.65 L 184.26 216.44 L 186.79 216.39 L 189.32 216.34 L 191.85 216.83 L 194.38 200.94 L 196.91 200.94 L 199.44 200.95 L 201.98 198.99 L 204.51 198.98 L 207.04 198.94 L 209.57 198.94 L 212.10 198.91 L 214.63 198.90 L 217.16 198.93 L 219.69 198.93 L 222.22 198.99 L 224.75 198.95 L 227.28 198.96 L 229.81 198.95 L 232.35 198.95 L 234.88 198.97 L 237.41 198.97 L 239.94 198.97 L 242.47 198.97 L 245.00 198.97 L 247.53 198.97 L 250.06 198.97 L 252.59 198.97 L 255.12 198.97 L 257.65 198.97 L 260.19 198.97 L 262.72 197.51 L 265.25 197.43 L 267.78 197.40 L 270.31 197.38 L 272.84 197.38 L 275.37 197.49 L 277.90 197.34 L 280.43 197.33 L 282.96 197.18 L 285.49 197.41 L 288.02 197.41 L 290.56 197.29 L 293.09 197.29 L 295.62 197.22 L 298.15 197.21 L 300.68 197.15 L 303.21 196.94 L 305.74 197.00 L 308.27 197.41 L 310.80 197.41 L 313.33 197.30 L 315.86 197.26 L 318.40 197.19 L 320.93 197.19 L 323.46 197.19 L 325.99 197.19 L 328.52 197.18 L 331.05 197.12 L 333.58 197.09 L 336.11 197.04 L 338.64 197.00 L 341.17 196.96 L 343.70 196.92 L 346.23 196.91 L 348.77 196.86 L 351.30 196.80 L 353.83 196.75 L 356.36 196.69 L 358.89 196.66 L 361.42 196.63 L 363.95 196.56 L 366.48 196.51 L 369.01 196.47 L 371.54 196.45 L 374.07 196.40 L 376.60 196.37 L 379.14 196.34 L 381.67 196.28 L 384.20 196.20 L 386.73 196.12 L 389.26 196.02 L 391.79 195.89 L 394.32 195.77 L 396.85 195.68 L 399.38 195.63 L 401.91 195.58 L 404.44 195.53 L 406.98 195.44 L 409.51 195.35 L 412.04 195.22 L 414.57 195.11 L 417.10 194.95 L 419.63 194.82 L 422.16 194.68 L 424.69 194.57 L 427.22 194.55 L 429.75 194.51 L 432.28 194.48 L 434.81 194.44 L 437.35 194.40 L 439.88 194.37 L 442.41 194.34 L 444.94 194.29 L 447.47 194.25 L 450.00 194.23 L 452.53 194.21 L 455.06 194.19 L 457.59 194.16 L 460.12 194.12 L 462.65 194.07 L 465.19 193.99 L 467.72 193.94 L 470.25 193.87 L 472.78 193.80 L 475.31 193.74 L 477.84 193.72 L 480.37 193.70 L 482.90 193.66 L 485.43 193.62 L 487.96 193.56 L 490.49 193.49 L 493.02 193.43 L 495.56 193.35 L 498.09 193.27 L 500.62 193.20 L 503.15 193.14 L 505.68 193.15 L 508.21 193.15 L 510.74 193.15 L 513.27 193.18 L 515.80 193.09 L 518.33 193.07 L 520.86 193.07 L 523.40 193.08 L 525.93 193.00 L 528.46 192.95 L 530.99 192.95 L 533.52 192.95 L 536.05 192.95 L 538.58 192.80 L 541.11 192.73 L 543.64 192.69 L 546.17 192.67 L 548.70 192.67 L 551.23 192.68 L 553.77 192.64 L 556.30 192.63 L 558.83 192.63 L 561.36 190.39 L 563.89 189.96 L 566.42 189.85 L 568.95 189.53 L 571.48 189.52 L 574.01 189.36 L 576.54 187.79 L 579.07 187.36 L 581.60 181.35 L 584.14 181.35 L 586.67 180.72 L 589.20 180.71 L 591.73 180.26 L 594.26 179.68 L 596.79 179.67 L 599.32 178.77 L 601.85 177.57 L 604.38 175.55 L 606.91 174.52 L 609.44 173.86 L 611.98 174.17 L 614.51 173.10 L 617.04 173.10 L 619.57 171.18 L 622.10 168.37 L 624.63 168.37 L 627.16 165.86 L 629.69 163.63 L 632.22 163.63 L 634.75 163.62 L 637.28 162.88 L 639.81 161.06 L 642.35 193.89 L 644.88 193.22 L 647.41 192.73 L 649.94 192.34 L 652.47 189.45 L 655.00 188.03 L 657.53 188.03 L 660.06 180.86 L 662.59 148.96 L 665.12 144.25 L 667.65 176.00 L 670.19 176.17 L 672.72 175.77 L 675.25 175.72 L 677.78 197.26 L 680.31 197.26 L 682.84 197.06 L 685.37 196.44 L 687.90 194.49 L 690.43 194.50 L 692.96 194.49 L 695.49 194.49 L 698.02 194.49 L 700.56 194.48 L 703.09 194.48 L 705.62 194.62 L 708.15 206.08 L 710.68 206.08 L 713.21 206.05 L 715.74 206.04 L 718.27 205.22 L 720.80 204.28 L 723.33 204.28 L 725.86 204.28 L 728.40 200.22 L 730.93 204.28 L 733.46 204.28 L 735.99 204.28 L 738.52 198.60 L 741.05 198.60 L 743.58 198.60 L 746.11 198.60 L 748.64 193.00 L 751.17 193.00 L 753.70 188.39 L 756.23 188.39 L 758.77 179.75 L 761.30 174.84 L 763.83 173.23 L 766.36 170.37 L 768.89 169.87 L 771.42 153.88 L 773.95 149.24 L 776.48 152.04 L 779.01 141.93 L 781.54 141.88 L 784.07 141.69 L 786.60 141.69 L 789.14 141.76 L 791.67 141.75 L 794.20 140.68 L 796.73 141.38 L 799.26 141.36 L 801.79 141.83 L 804.32 141.39 L 806.85 141.39 L 809.38 141.52 L 811.91 141.52 L 814.44 141.53 L 816.98 142.33 L 819.51 141.73 L 822.04 141.68 L 824.57 141.68 L 827.10 141.66 L 829.63 141.67 L 832.16 141.65 L 834.69 139.51 L 837.22 136.07 L 839.75 136.04 L 842.28 133.43 L 844.81 131.89 L 847.35 131.13 L 849.88 131.51 L 852.41 131.50 L 854.94 131.57 L 857.47 131.56 L 860.00 131.49" fill="none" stroke="#3fb950" stroke-width="2"/>
    <circle cx="860.00" cy="131.49" r="3" fill="#3fb950"/>
    <text x="40.00" y="235.00" font-size="9" fill="#c9d1d9" text-anchor="middle" transform="rotate(-45 40.00 235.00)">27.09.2025</text><text x="120.99" y="235.00" font-size="9" fill="#c9d1d9" text-anchor="middle" transform="rotate(-45 120.99 235.00)">28.09.2025</text><text x="201.98" y="235.00" font-size="9" fill="#c9d1d9" text-anchor="middle" transform="rotate(-45 201.98 235.00)">28.09.2025</text><text x="282.96" y="235.00" font-size="9" fill="#c9d1d9" text-anchor="middle" transform="rotate(-45 282.96 235.00)">30.09.2025</text><text x="363.95" y="235.00" font-size="9" fill="#c9d1d9" text-anchor="middle" transform="rotate(-45 363.95 235.00)">04.10.2025</text><text x="444.94" y="235.00" font-size="9" fill="#c9d1d9" text-anchor="middle" transform="rotate(-45 444.94 235.00)">04.10.2025</text><text x="525.93" y="235.00" font-size="9" fill="#c9d1d9" text-anchor="middle" transform="rotate(-45 525.93 235.00)">04.10.2025</text><text x="606.91" y="235.00" font-size="9" fill="#c9d1d9" text-anchor="middle" transform="rotate(-45 606.91 235.00)">04.10.2025</text><text x="687.90" y="235.00" font-size="9" fill="#c9d1d9" text-anchor="middle" transform="rotate(-45 687.90 235.00)">05.10.2025</text><text x="768.89" y="235.00" font-size="9" fill="#c9d1d9" text-anchor="middle" transform="rotate(-45 768.89 235.00)">08.10.2025</text><text x="849.88" y="235.00" font-size="9" fill="#c9d1d9" text-anchor="middle" transform="rotate(-45 849.88 235.00)">09.10.2025</text>
  </g>
</svg>