<svg xmlns="http://www.w3.org/2000/svg" width="900" height="290" style="font-family: -apple-system, BlinkMacSystemFont, 'Segoe UI', Helvetica, Arial, sans-serif;">
  <rect width="100%" height="100%" fill="white"/>
  <g>
    <line x1="40" y1="220.00" x2="860" y2="220.00" stroke="#e5e7eb"/><text x="32" y="224.00" font-size="10" fill="#111827" text-anchor="end">0</text><line x1="40" y1="175.00" x2="860" y2="175.00" stroke="#e5e7eb"/><text x="32" y="179.00" font-size="10" fill="#111827" text-anchor="end">12.5k</text><line x1="40" y1="130.00" x2="860" y2="130.00" stroke="#e5e7eb"/><text x="32" y="134.00" font-size="10" fill="#111827" text-anchor="end">25k</text><line x1="40" y1="85.00" x2="860" y2="85.00" stroke="#e5e7eb"/><text x="32" y="89.00" font-size="10" fill="#111827" text-anchor="end">37.5k</text><line x1="40" y1="40.00" x2="860" y2="40.00" stroke="#e5e7eb"/><text x="32" y="44.00" font-size="10" fill="#111827" text-anchor="end">50k</text>
    <line x1="40.00" y1="40" x2="40.00" y2="220" stroke="#e5e7eb" opacity="0.5"/><line x1="122.27" y1="40" x2="122.27" y2="220" stroke="#e5e7eb" opacity="0.5"/><line x1="204.53" y1="40" x2="204.53" y2="220" stroke="#e5e7eb" opacity="0.5"/><line x1="286.80" y1="40" x2="286.80" y2="220" stroke="#e5e7eb" opacity="0.5"/><line x1="369.06" y1="40" x2="369.06" y2="220" stroke="#e5e7eb" opacity="0.5"/><line x1="451.33" y1="40" x2="451.33" y2="220" stroke="#e5e7eb" opacity="0.5"/><line x1="533.59" y1="40" x2="533.59" y2="220" stroke="#e5e7eb" opacity="0.5"/><line x1="615.86" y1="40" x2="615.86" y2="220" stroke="#e5e7eb" opacity="0.5"/><line x1="698.12" y1="40" x2="698.12" y2="220" stroke="#e5e7eb" opacity="0.5"/><line x1="780.39" y1="40" x2="780.39" y2="220" stroke="#e5e7eb" opacity="0.5"/>
    <line x1="40" y1="220" x2="860" y2="220" stroke="#9ca3af"/>
    <line x1="40" y1="40"   x2="40"   y2="220" stroke="#9ca3af"/>
    <path d="M 40.00 220.00 L 42.65 220.00 L 45.31 219.20 L 47.96 219.25 L 50.61 219.25 L 53.27 218.64 L 55.92 218.62 L 58.58 218.52 L 61.23 217.78 L 63.88 217.78 L 66.54 217.78 L 69.19 217.73 L 71.84 217.74 L 74.50 217.72 L 77.15 217.70 L 79.81 217.70 L 82.46 217.63 L 85.11 217.56 L 87.77 217.45 L 90.42 217.36 L 93.07 217.27 L 95.73 217.18 L 98.38 217.18 L 101.04 217.14 L 103.69 217.14 L 106.34 217.14 L 109.00 217.14 L 111.65 217.14 L 114.30 217.14 L 116.96 217.14 L 119.61 217.14 L 122.27 217.14 L 124.92 217.10 L 127.57 217.08 L 130.23 217.15 L 132.88 217.11 L 135.53 217.11 L 138.19 217.06 L 140.84 216.62 L 143.50 215.89 L 146.15 215.76 L 148.80 215.73 L 151.46 215.72 L 154.11 215.70 L 156.76 215.68 L 159.42 215.70 L 162.07 215.64 L 164.72 215.31 L 167.38 215.22 L 170.03 215.20 L 172.69 215.14 L 175.34 215.13 L 177.99 215.03 L 180.65 214.77 L 183.30 214.47 L 185.95 213.85 L 188.61 213.29 L 191.26 212.88 L 193.92 212.79 L 196.57 212.68 L 199.22 213.67 L 201.88 181.87 L 204.53 181.89 L 207.18 181.89 L 209.84 177.97 L 212.49 177.96 L 215.15 177.88 L 217.80 177.88 L 220.45 177.81 L 223.11 177.80 L 225.76 177.87 L 228.41 177.87 L 231.07 177.98 L 233.72 177.91 L 236.38 177.92 L 239.03 177.91 L 241.68 177.91 L 244.34 177.94 L 246.99 177.94 L 249.64 177.94 L 252.30 177.94 L 254.95 177.94 L 257.61 177.94 L 260.26 177.94 L 262.91 177.95 L 265.57 177.94 L 268.22 177.94 L 270.87 177.94 L 273.53 175.03 L 276.18 174.85 L 278.83 174.80 L 281.49 174.77 L 284.14 174.76 L 286.80 174.99 L 289.45 174.69 L 292.10 174.66 L 294.76 174.35 L 297.41 174.82 L 300.06 174.82 L 302.72 174.59 L 305.37 174.58 L 308.03 174.43 L 310.68 174.42 L 313.33 174.30 L 315.99 173.88 L 318.64 174.00 L 321.29 174.83 L 323.95 174.82 L 326.60 174.60 L 329.26 174.51 L 331.91 174.37 L 334.56 174.37 L 337.22 174.37 L 339.87 174.37 L 342.52 174.36 L 345.18 174.24 L 347.83 174.18 L 350.49 174.09 L 353.14 174.00 L 355.79 173.92 L 358.45 173.84 L 361.10 173.81 L 363.75 173.73 L 366.41 173.60 L 369.06 173.50 L 371.72 173.39 L 374.37 173.32 L 377.02 173.25 L 379.68 173.11 L 382.33 173.01 L 384.98 172.93 L 387.64 172.89 L 390.29 172.80 L 392.94 172.74 L 395.60 172.68 L 398.25 172.57 L 400.91 172.40 L 403.56 172.25 L 406.21 172.05 L 408.87 171.78 L 411.52 171.54 L 414.17 171.36 L 416.83 171.26 L 419.48 171.17 L 422.14 171.06 L 424.79 170.89 L 427.44 170.70 L 430.10 170.44 L 432.75 170.21 L 435.40 169.90 L 438.06 169.64 L 440.71 169.37 L 443.37 169.13 L 446.02 169.10 L 448.67 169.03 L 451.33 168.96 L 453.98 168.88 L 456.63 168.79 L 459.29 168.73 L 461.94 168.68 L 464.60 168.58 L 467.25 168.51 L 469.90 168.46 L 472.56 168.42 L 475.21 168.38 L 477.86 168.33 L 480.52 168.25 L 483.17 168.13 L 485.83 167.98 L 488.48 167.88 L 491.13 167.74 L 493.79 167.60 L 496.44 167.49 L 499.09 167.44 L 501.75 167.40 L 504.40 167.31 L 507.06 167.23 L 509.71 167.12 L 512.36 166.98 L 515.02 166.86 L 517.67 166.69 L 520.32 166.54 L 522.98 166.40 L 525.63 166.28 L 528.28 166.29 L 530.94 166.30 L 533.59 166.30 L 536.25 166.37 L 538.90 166.18 L 541.55 166.14 L 544.21 166.15 L 546.86 166.15 L 549.51 166.01 L 552.17 165.89 L 554.82 165.89 L 557.48 165.89 L 560.13 165.89 L 562.78 165.60 L 565.44 165.46 L 568.09 165.38 L 570.74 165.34 L 573.40 165.34 L 576.05 165.35 L 578.71 165.27 L 581.36 165.27 L 584.01 165.27 L 586.67 160.77 L 589.32 159.91 L 591.97 159.69 L 594.63 159.05 L 597.28 159.05 L 599.94 158.73 L 602.59 155.57 L 605.24 154.71 L 607.90 142.69 L 610.55 142.69 L 613.20 141.44 L 615.86 141.41 L 618.51 140.51 L 621.17 139.36 L 623.82 139.35 L 626.47 137.55 L 629.13 135.14 L 631.78 131.10 L 634.43 129.04 L 637.09 127.72 L 639.74 128.34 L 642.39 126.21 L 645.05 126.21 L 647.70 122.35 L 650.36 116.74 L 653.01 116.74 L 655.66 111.72 L 658.32 107.25 L 660.97 107.25 L 663.62 107.24 L 666.28 105.75 L 668.93 102.13 L 671.59 167.79 L 674.24 166.43 L 676.89 165.47 L 679.55 164.67 L 682.20 158.90 L 684.85 156.05 L 687.51 156.05 L 690.16 141.73 L 692.82 77.92 L 695.47 68.51 L 698.12 132.01 L 700.78 132.34 L 703.43 131.53 L 706.08 131.45 L 708.74 174.52 L 711.39 174.52 L 714.05 174.13 L 716.70 172.88 L 719.35 168.98 L 722.01 168.99 L 724.66 168.97 L 727.31 168.97 L 729.97 168.97 L 732.62 168.97 L 735.28 168.97 L 737.93 169.23 L 740.58 192.15 L 743.24 192.15 L 745.89 192.10 L 748.54 192.09 L 751.20 190.44 L 753.85 188.56 L 756.50 188.56 L 759.16 188.56 L 761.81 180.43 L 764.47 188.56 L 767.12 188.56 L 769.77 188.56 L 772.43 177.20 L 775.08 177.20 L 777.73 177.20 L 780.39 177.20 L 783.04 166.00 L 785.70 166.00 L 788.35 156.78 L 791.00 156.78 L 793.66 139.49 L 796.31 129.68 L 798.96 126.46 L 801.62 120.74 L 804.27 119.74 L 806.93 87.77 L 809.58 78.47 L 812.23 84.08 L 814.89 63.86 L 817.54 63.76 L 820.19 63.39 L 822.85 63.39 L 825.50 63.51 L 828.16 63.50 L 830.81 61.37 L 833.46 62.76 L 836.12 62.72 L 838.77 63.66 L 841.42 62.77 L 844.08 62.78 L 846.73 63.04 L 849.39 63.03 L 852.04 63.07 L 854.69 64.66 L 857.35 63.45 L 860.00 63.36" fill="none" stroke="#111827" stroke-width="2"/>
    <circle cx="860.00" cy="63.36" r="3" fill="#111827"/>
    <text x="40.00" y="235.00" font-size="9" fill="#111827" text-anchor="middle" transform="rotate(-45 40.00 235.00)">27.09.2025</text><text x="122.27" y="235.00" font-size="9" fill="#111827" text-anchor="middle" transform="rotate(-45 122.27 235.00)">28.09.2025</text><text x="204.53" y="235.00" font-size="9" fill="#111827" text-anchor="middle" transform="rotate(-45 204.53 235.00)">28.09.2025</text><text x="286.80" y="235.00" font-size="9" fill="#111827" text-anchor="middle" transform="rotate(-45 286.80 235.00)">29.09.2025</text><text x="369.06" y="235.00" font-size="9" fill="#111827" text-anchor="middle" transform="rotate(-45 369.06 235.00)">04.10.2025</text><text x="451.33" y="235.00" font-size="9" fill="#111827" text-anchor="middle" transform="rotate(-45 451.33 235.00)">04.10.2025</text><text x="533.59" y="235.00" font-size="9" fill="#111827" text-anchor="middle" transform="rotate(-45 533.59 235.00)">04.10.2025</text><text x="615.86" y="235.00" font-size="9" fill="#111827" text-anchor="middle" transform="rotate(-45 615.86 235.00)">04.10.2025</text><text x="698.12" y="235.00" font-size="9" fill="#111827" text-anchor="middle" transform="rotate(-45 698.12 235.00)">05.10.2025</text><text x="780.39" y="235.00" font-size="9" fill="#111827" text-anchor="middle" transform="rotate(-45 780.39 235.00)">07.10.2025</text>
  </g>
</svg>