<svg xmlns="http://www.w3.org/2000/svg" width="900" height="290" style="font-family: -apple-system, BlinkMacSystemFont, 'Segoe UI', Helvetica, Arial, sans-serif;">
  <rect width="100%" height="100%" fill="#0d1117"/>
  <g>
    <line x1="40" y1="220.00" x2="860" y2="220.00" stroke="#30363d"/><text x="32" y="224.00" font-size="10" fill="#c9d1d9" text-anchor="end">0</text><line x1="40" y1="175.00" x2="860" y2="175.00" stroke="#30363d"/><text x="32" y="179.00" font-size="10" fill="#c9d1d9" text-anchor="end">25k</text><line x1="40" y1="130.00" x2="860" y2="130.00" stroke="#30363d"/><text x="32" y="134.00" font-size="10" fill="#c9d1d9" text-anchor="end">50k</text><line x1="40" y1="85.00" x2="860" y2="85.00" stroke="#30363d"/><text x="32" y="89.00" font-size="10" fill="#c9d1d9" text-anchor="end">75k</text><line x1="40" y1="40.00" x2="860" y2="40.00" stroke="#30363d"/><text x="32" y="44.00" font-size="10" fill="#c9d1d9" text-anchor="end">100k</text>
    <line x1="40.00" y1="40" x2="40.00" y2="220" stroke="#30363d" opacity="0.5"/><line x1="120.77" y1="40" x2="120.77" y2="220" stroke="#30363d" opacity="0.5"/><line x1="201.54" y1="40" x2="201.54" y2="220" stroke="#30363d" opacity="0.5"/><line x1="282.31" y1="40" x2="282.31" y2="220" stroke="#30363d" opacity="0.5"/><line x1="363.08" y1="40" x2="363.08" y2="220" stroke="#30363d" opacity="0.5"/><line x1="443.85" y1="40" x2="443.85" y2="220" stroke="#30363d" opacity="0.5"/><line x1="524.63" y1="40" x2="524.63" y2="220" stroke="#30363d" opacity="0.5"/><line x1="605.40" y1="40" x2="605.40" y2="220" stroke="#30363d" opacity="0.5"/><line x1="686.17" y1="40" x2="686.17" y2="220" stroke="#30363d" opacity="0.5"/><line x1="766.94" y1="40" x2="766.94" y2="220" stroke="#30363d" opacity="0.5"/><line x1="847.71" y1="40" x2="847.71" y2="220" stroke="#30363d" opacity="0.5"/>
    <line x1="40" y1="220" x2="860" y2="220" stroke="#30363d"/>
    <line x1="40" y1="40"   x2="40"   y2="220" stroke="#30363d"/>
    <path d="M 40.00 220.00 L 41.76 220.00 L 43.51 219.60 L 45.27 219.62 L 47.02 219.63 L 48.78 219.32 L 50.54 219.31 L 52.29 219.26 L 54.05 218.89 L 55.80 218.89 L 57.56 218.89 L 59.31 218.87 L 61.07 218.87 L 62.83 218.86 L 64.58 218.85 L 66.34 218.85 L 68.09 218.82 L 69.85 218.78 L 71.61 218.72 L 73.36 218.68 L 75.12 218.64 L 76.87 218.59 L 78.63 218.59 L 80.39 218.57 L 82.14 218.57 L 83.90 218.57 L 85.65 218.57 L 87.41 218.57 L 89.16 218.57 L 90.92 218.57 L 92.68 218.57 L 94.43 218.57 L 96.19 218.55 L 97.94 218.54 L 99.70 218.58 L 101.46 218.55 L 103.21 218.55 L 104.97 218.53 L 106.72 218.31 L 108.48 217.94 L 110.24 217.88 L 111.99 217.87 L 113.75 217.86 L 115.50 217.85 L 117.26 217.84 L 119.01 217.85 L 120.77 217.82 L 122.53 217.66 L 124.28 217.61 L 126.04 217.60 L 127.79 217.57 L 129.55 217.56 L 131.31 217.52 L 133.06 217.38 L 134.82 217.24 L 136.57 216.93 L 138.33 216.65 L 140.09 216.44 L 141.84 216.39 L 143.60 216.34 L 145.35 216.83 L 147.11 200.94 L 148.87 200.94 L 150.62 200.95 L 152.38 198.99 L 154.13 198.98 L 155.89 198.94 L 157.64 198.94 L 159.40 198.91 L 161.16 198.90 L 162.91 198.93 L 164.67 198.93 L 166.42 198.99 L 168.18 198.95 L 169.94 198.96 L 171.69 198.95 L 173.45 198.95 L 175.20 198.97 L 176.96 198.97 L 178.72 198.97 L 180.47 198.97 L 182.23 198.97 L 183.98 198.97 L 185.74 198.97 L 187.49 198.97 L 189.25 198.97 L 191.01 198.97 L 192.76 198.97 L 194.52 197.51 L 196.27 197.43 L 198.03 197.40 L 199.79 197.38 L 201.54 197.38 L 203.30 197.49 L 205.05 197.34 L 206.81 197.33 L 208.57 197.18 L 210.32 197.41 L 212.08 197.41 L 213.83 197.29 L 215.59 197.29 L 217.34 197.22 L 219.10 197.21 L 220.86 197.15 L 222.61 196.94 L 224.37 197.00 L 226.12 197.41 L 227.88 197.41 L 229.64 197.30 L 231.39 197.26 L 233.15 197.19 L 234.90 197.19 L 236.66 197.19 L 238.42 197.19 L 240.17 197.18 L 241.93 197.12 L 243.68 197.09 L 245.44 197.04 L 247.19 197.00 L 248.95 196.96 L 250.71 196.92 L 252.46 196.91 L 254.22 196.86 L 255.97 196.80 L 257.73 196.75 L 259.49 196.69 L 261.24 196.66 L 263.00 196.63 L 264.75 196.56 L 266.51 196.51 L 268.27 196.47 L 270.02 196.45 L 271.78 196.40 L 273.53 196.37 L 275.29 196.34 L 277.04 196.28 L 278.80 196.20 L 280.56 196.12 L 282.31 196.02 L 284.07 195.89 L 285.82 195.77 L 287.58 195.68 L 289.34 195.63 L 291.09 195.58 L 292.85 195.53 L 294.60 195.44 L 296.36 195.35 L 298.12 195.22 L 299.87 195.11 L 301.63 194.95 L 303.38 194.82 L 305.14 194.68 L 306.90 194.57 L 308.65 194.55 L 310.41 194.51 L 312.16 194.48 L 313.92 194.44 L 315.67 194.40 L 317.43 194.37 L 319.19 194.34 L 320.94 194.29 L 322.70 194.25 L 324.45 194.23 L 326.21 194.21 L 327.97 194.19 L 329.72 194.16 L 331.48 194.12 L 333.23 194.07 L 334.99 193.99 L 336.75 193.94 L 338.50 193.87 L 340.26 193.80 L 342.01 193.74 L 343.77 193.72 L 345.52 193.70 L 347.28 193.66 L 349.04 193.62 L 350.79 193.56 L 352.55 193.49 L 354.30 193.43 L 356.06 193.35 L 357.82 193.27 L 359.57 193.20 L 361.33 193.14 L 363.08 193.15 L 364.84 193.15 L 366.60 193.15 L 368.35 193.18 L 370.11 193.09 L 371.86 193.07 L 373.62 193.07 L 375.37 193.08 L 377.13 193.00 L 378.89 192.95 L 380.64 192.95 L 382.40 192.95 L 384.15 192.95 L 385.91 192.80 L 387.67 192.73 L 389.42 192.69 L 391.18 192.67 L 392.93 192.67 L 394.69 192.68 L 396.45 192.64 L 398.20 192.63 L 399.96 192.63 L 401.71 190.39 L 403.47 189.96 L 405.22 189.85 L 406.98 189.53 L 408.74 189.52 L 410.49 189.36 L 412.25 187.79 L 414.00 187.36 L 415.76 181.35 L 417.52 181.35 L 419.27 180.72 L 421.03 180.71 L 422.78 180.26 L 424.54 179.68 L 426.30 179.67 L 428.05 178.77 L 429.81 177.57 L 431.56 175.55 L 433.32 174.52 L 435.07 173.86 L 436.83 174.17 L 438.59 173.10 L 440.34 173.10 L 442.10 171.18 L 443.85 168.37 L 445.61 168.37 L 447.37 165.86 L 449.12 163.63 L 450.88 163.63 L 452.63 163.62 L 454.39 162.88 L 456.15 161.06 L 457.90 193.89 L 459.66 193.22 L 461.41 192.73 L 463.17 192.34 L 464.93 189.45 L 466.68 188.03 L 468.44 188.03 L 470.19 180.86 L 471.95 148.96 L 473.70 144.25 L 475.46 176.00 L 477.22 176.17 L 478.97 175.77 L 480.73 175.72 L 482.48 197.26 L 484.24 197.26 L 486.00 197.06 L 487.75 196.44 L 489.51 194.49 L 491.26 194.50 L 493.02 194.49 L 494.78 194.49 L 496.53 194.49 L 498.29 194.48 L 500.04 194.48 L 501.80 194.62 L 503.55 206.08 L 505.31 206.08 L 507.07 206.05 L 508.82 206.04 L 510.58 205.22 L 512.33 204.28 L 514.09 204.28 L 515.85 204.28 L 517.60 200.22 L 519.36 204.28 L 521.11 204.28 L 522.87 204.28 L 524.63 198.60 L 526.38 198.60 L 528.14 198.60 L 529.89 198.60 L 531.65 193.00 L 533.40 193.00 L 535.16 188.39 L 536.92 188.39 L 538.67 179.75 L 540.43 174.84 L 542.18 173.23 L 543.94 170.37 L 545.70 169.87 L 547.45 153.88 L 549.21 149.24 L 550.96 152.04 L 552.72 141.93 L 554.48 141.88 L 556.23 141.69 L 557.99 141.69 L 559.74 141.76 L 561.50 141.75 L 563.25 140.68 L 565.01 141.38 L 566.77 141.36 L 568.52 141.83 L 570.28 141.39 L 572.03 141.39 L 573.79 141.52 L 575.55 141.52 L 577.30 141.53 L 579.06 142.33 L 580.81 141.73 L 582.57 141.68 L 584.33 141.68 L 586.08 141.66 L 587.84 141.67 L 589.59 141.65 L 591.35 139.51 L 593.10 136.07 L 594.86 136.04 L 596.62 133.43 L 598.37 131.89 L 600.13 131.13 L 601.88 131.51 L 603.64 131.50 L 605.40 131.57 L 607.15 131.56 L 608.91 131.49 L 610.66 131.49 L 612.42 131.49 L 614.18 131.49 L 615.93 131.49 L 617.69 131.49 L 619.44 131.49 L 621.20 131.49 L 622.96 131.49 L 624.71 131.49 L 626.47 131.49 L 628.22 131.49 L 629.98 131.49 L 631.73 131.49 L 633.49 131.49 L 635.25 131.49 L 637.00 131.49 L 638.76 131.49 L 640.51 131.49 L 642.27 131.49 L 644.03 131.49 L 645.78 131.49 L 647.54 131.49 L 649.29 131.49 L 651.05 131.49 L 652.81 131.49 L 654.56 131.49 L 656.32 131.49 L 658.07 131.49 L 659.83 131.49 L 661.58 131.49 L 663.34 131.49 L 665.10 131.49 L 666.85 131.49 L 668.61 131.49 L 670.36 131.49 L 672.12 131.49 L 673.88 131.49 L 675.63 131.49 L 677.39 131.49 L 679.14 131.49 L 680.90 131.49 L 682.66 131.49 L 684.41 131.49 L 686.17 131.49 L 687.92 131.49 L 689.68 131.49 L 691.43 131.49 L 693.19 131.49 L 694.95 131.49 L 696.70 131.49 L 698.46 131.49 L 700.21 131.49 L 701.97 131.49 L 703.73 131.49 L 705.48 131.49 L 707.24 131.49 L 708.99 131.49 L 710.75 131.49 L 712.51 131.49 L 714.26 131.49 L 716.02 131.49 L 717.77 131.49 L 719.53 131.49 L 721.28 131.49 L 723.04 131.49 L 724.80 131.49 L 726.55 131.49 L 728.31 131.49 L 730.06 131.49 L 731.82 131.49 L 733.58 131.49 L 735.33 131.49 L 737.09 131.49 L 738.84 131.49 L 740.60 131.49 L 742.36 131.49 L 744.11 131.49 L 745.87 131.49 L 747.62 131.49 L 749.38 131.49 L 751.13 131.49 L 752.89 131.49 L 754.65 131.49 L 756.40 131.49 L 758.16 131.49 L 759.91 131.49 L 761.67 131.49 L 763.43 131.49 L 765.18 131.49 L 766.94 131.49 L 768.69 131.49 L 770.45 131.49 L 772.21 131.49 L 773.96 131.49 L 775.72 131.49 L 777.47 131.49 L 779.23 131.49 L 780.99 131.49 L 782.74 131.49 L 784.50 131.49 L 786.25 131.49 L 788.01 131.49 L 789.76 131.49 L 791.52 131.49 L 793.28 131.49 L 795.03 131.49 L 796.79 131.49 L 798.54 131.49 L 800.30 131.49 L 802.06 131.49 L 803.81 131.49 L 805.57 131.49 L 807.32 131.49 L 809.08 131.49 L 810.84 131.49 L 812.59 131.49 L 814.35 131.49 L 816.10 131.49 L 817.86 131.49 L 819.61 131.49 L 821.37 131.49 L 823.13 131.49 L 824.88 131.49 L 826.64 131.49 L 828.39 131.49 L 830.15 131.49 L 831.91 131.49 L 833.66 131.49 L 835.42 131.49 L 837.17 131.49 L 838.93 131.49 L 840.69 131.49 L 842.44 131.49 L 844.20 131.49 L 845.95 131.49 L 847.71 131.49 L 849.46 131.49 L 851.22 131.49 L 852.98 131.49 L 854.73 131.49 L 856.49 131.49 L 858.24 131.49 L 860.00 131.49" fill="none" stroke="#3fb950" stroke-width="2"/>
    <circle cx="860.00" cy="131.49" r="3" fill="#3fb950"/>
    <text x="40.00" y="235.00" font-size="9" fill="#c9d1d9" text-anchor="middle" transform="rotate(-45 40.00 235.00)">27.09.2025</text><text x="120.77" y="235.00" font-size="9" fill="#c9d1d9" text-anchor="middle" transform="rotate(-45 120.77 235.00)">28.09.2025</text><text x="201.54" y="235.00" font-size="9" fill="#c9d1d9" text-anchor="middle" transform="rotate(-45 201.54 235.00)">29.09.2025</text><text x="282.31" y="235.00" font-size="9" fill="#c9d1d9" text-anchor="middle" transform="rotate(-45 282.31 235.00)">04.10.2025</text><text x="363.08" y="235.00" font-size="9" fill="#c9d1d9" text-anchor="middle" transform="rotate(-45 363.08 235.00)">04.10.2025</text><text x="443.85" y="235.00" font-size="9" fill="#c9d1d9" text-anchor="middle" transform="rotate(-45 443.85 235.00)">04.10.2025</text><text x="524.63" y="235.00" font-size="9" fill="#c9d1d9" text-anchor="middle" transform="rotate(-45 524.63 235.00)">07.10.2025</text><text x="605.40" y="235.00" font-size="9" fill="#c9d1d9" text-anchor="middle" transform="rotate(-45 605.40 235.00)">10.10.2025</text><text x="686.17" y="235.00" font-size="9" fill="#c9d1d9" text-anchor="middle" transform="rotate(-45 686.17 235.00)">22.11.2025</text><text x="766.94" y="235.00" font-size="9" fill="#c9d1d9" text-anchor="middle" transform="rotate(-45 766.94 235.00)">07.01.2026</text><text x="847.71" y="235.00" font-size="9" fill="#c9d1d9" text-anchor="middle" transform="rotate(-45 847.71 235.00)">19.02.2026</text>
  </g>
</svg>