<svg xmlns="http://www.w3.org/2000/svg" width="900" height="290" style="font-family: -apple-system, BlinkMacSystemFont, 'Segoe UI', Helvetica, Arial, sans-serif;">
  <rect width="100%" height="100%" fill="white"/>
  <g>
    <line x1="40" y1="220.00" x2="860" y2="220.00" stroke="#e5e7eb"/><text x="32" y="224.00" font-size="10" fill="#111827" text-anchor="end">0</text><line x1="40" y1="175.00" x2="860" y2="175.00" stroke="#e5e7eb"/><text x="32" y="179.00" font-size="10" fill="#111827" text-anchor="end">25k</text><line x1="40" y1="130.00" x2="860" y2="130.00" stroke="#e5e7eb"/><text x="32" y="134.00" font-size="10" fill="#111827" text-anchor="end">50k</text><line x1="40" y1="85.00" x2="860" y2="85.00" stroke="#e5e7eb"/><text x="32" y="89.00" font-size="10" fill="#111827" text-anchor="end">75k</text><line x1="40" y1="40.00" x2="860" y2="40.00" stroke="#e5e7eb"/><text x="32" y="44.00" font-size="10" fill="#111827" text-anchor="end">100k</text>
    <line x1="40.00" y1="40" x2="40.00" y2="220" stroke="#e5e7eb" opacity="0.5"/><line x1="121.17" y1="40" x2="121.17" y2="220" stroke="#e5e7eb" opacity="0.5"/><line x1="202.34" y1="40" x2="202.34" y2="220" stroke="#e5e7eb" opacity="0.5"/><line x1="283.50" y1="40" x2="283.50" y2="220" stroke="#e5e7eb" opacity="0.5"/><line x1="364.67" y1="40" x2="364.67" y2="220" stroke="#e5e7eb" opacity="0.5"/><line x1="445.84" y1="40" x2="445.84" y2="220" stroke="#e5e7eb" opacity="0.5"/><line x1="527.01" y1="40" x2="527.01" y2="220" stroke="#e5e7eb" opacity="0.5"/><line x1="608.17" y1="40" x2="608.17" y2="220" stroke="#e5e7eb" opacity="0.5"/><line x1="689.34" y1="40" x2="689.34" y2="220" stroke="#e5e7eb" opacity="0.5"/><line x1="770.51" y1="40" x2="770.51" y2="220" stroke="#e5e7eb" opacity="0.5"/><line x1="851.68" y1="40" x2="851.68" y2="220" stroke="#e5e7eb" opacity="0.5"/>
    <line x1="40" y1="220" x2="860" y2="220" stroke="#9ca3af"/>
    <line x1="40" y1="40"   x2="40"   y2="220" stroke="#9ca3af"/>
    <path d="M 40.00 220.00 L 42.08 220.00 L 44.16 219.60 L 46.24 219.62 L 48.32 219.63 L 50.41 219.32 L 52.49 219.31 L 54.57 219.26 L 56.65 218.89 L 58.73 218.89 L 60.81 218.89 L 62.89 218.87 L 64.97 218.87 L 67.06 218.86 L 69.14 218.85 L 71.22 218.85 L 73.30 218.82 L 75.38 218.78 L 77.46 218.72 L 79.54 218.68 L 81.62 218.64 L 83.71 218.59 L 85.79 218.59 L 87.87 218.57 L 89.95 218.57 L 92.03 218.57 L 94.11 218.57 L 96.19 218.57 L 98.27 218.57 L 100.36 218.57 L 102.44 218.57 L 104.52 218.57 L 106.60 218.55 L 108.68 218.54 L 110.76 218.58 L 112.84 218.55 L 114.92 218.55 L 117.01 218.53 L 119.09 218.31 L 121.17 217.94 L 123.25 217.88 L 125.33 217.87 L 127.41 217.86 L 129.49 217.85 L 131.57 217.84 L 133.65 217.85 L 135.74 217.82 L 137.82 217.66 L 139.90 217.61 L 141.98 217.60 L 144.06 217.57 L 146.14 217.56 L 148.22 217.52 L 150.30 217.38 L 152.39 217.24 L 154.47 216.93 L 156.55 216.65 L 158.63 216.44 L 160.71 216.39 L 162.79 216.34 L 164.87 216.83 L 166.95 200.94 L 169.04 200.94 L 171.12 200.95 L 173.20 198.99 L 175.28 198.98 L 177.36 198.94 L 179.44 198.94 L 181.52 198.91 L 183.60 198.90 L 185.69 198.93 L 187.77 198.93 L 189.85 198.99 L 191.93 198.95 L 194.01 198.96 L 196.09 198.95 L 198.17 198.95 L 200.25 198.97 L 202.34 198.97 L 204.42 198.97 L 206.50 198.97 L 208.58 198.97 L 210.66 198.97 L 212.74 198.97 L 214.82 198.97 L 216.90 198.97 L 218.98 198.97 L 221.07 198.97 L 223.15 197.51 L 225.23 197.43 L 227.31 197.40 L 229.39 197.38 L 231.47 197.38 L 233.55 197.49 L 235.63 197.34 L 237.72 197.33 L 239.80 197.18 L 241.88 197.41 L 243.96 197.41 L 246.04 197.29 L 248.12 197.29 L 250.20 197.22 L 252.28 197.21 L 254.37 197.15 L 256.45 196.94 L 258.53 197.00 L 260.61 197.41 L 262.69 197.41 L 264.77 197.30 L 266.85 197.26 L 268.93 197.19 L 271.02 197.19 L 273.10 197.19 L 275.18 197.19 L 277.26 197.18 L 279.34 197.12 L 281.42 197.09 L 283.50 197.04 L 285.58 197.00 L 287.66 196.96 L 289.75 196.92 L 291.83 196.91 L 293.91 196.86 L 295.99 196.80 L 298.07 196.75 L 300.15 196.69 L 302.23 196.66 L 304.31 196.63 L 306.40 196.56 L 308.48 196.51 L 310.56 196.47 L 312.64 196.45 L 314.72 196.40 L 316.80 196.37 L 318.88 196.34 L 320.96 196.28 L 323.05 196.20 L 325.13 196.12 L 327.21 196.02 L 329.29 195.89 L 331.37 195.77 L 333.45 195.68 L 335.53 195.63 L 337.61 195.58 L 339.70 195.53 L 341.78 195.44 L 343.86 195.35 L 345.94 195.22 L 348.02 195.11 L 350.10 194.95 L 352.18 194.82 L 354.26 194.68 L 356.35 194.57 L 358.43 194.55 L 360.51 194.51 L 362.59 194.48 L 364.67 194.44 L 366.75 194.40 L 368.83 194.37 L 370.91 194.34 L 372.99 194.29 L 375.08 194.25 L 377.16 194.23 L 379.24 194.21 L 381.32 194.19 L 383.40 194.16 L 385.48 194.12 L 387.56 194.07 L 389.64 193.99 L 391.73 193.94 L 393.81 193.87 L 395.89 193.80 L 397.97 193.74 L 400.05 193.72 L 402.13 193.70 L 404.21 193.66 L 406.29 193.62 L 408.38 193.56 L 410.46 193.49 L 412.54 193.43 L 414.62 193.35 L 416.70 193.27 L 418.78 193.20 L 420.86 193.14 L 422.94 193.15 L 425.03 193.15 L 427.11 193.15 L 429.19 193.18 L 431.27 193.09 L 433.35 193.07 L 435.43 193.07 L 437.51 193.08 L 439.59 193.00 L 441.68 192.95 L 443.76 192.95 L 445.84 192.95 L 447.92 192.95 L 450.00 192.80 L 452.08 192.73 L 454.16 192.69 L 456.24 192.67 L 458.32 192.67 L 460.41 192.68 L 462.49 192.64 L 464.57 192.63 L 466.65 192.63 L 468.73 190.39 L 470.81 189.96 L 472.89 189.85 L 474.97 189.53 L 477.06 189.52 L 479.14 189.36 L 481.22 187.79 L 483.30 187.36 L 485.38 181.35 L 487.46 181.35 L 489.54 180.72 L 491.62 180.71 L 493.71 180.26 L 495.79 179.68 L 497.87 179.67 L 499.95 178.77 L 502.03 177.57 L 504.11 175.55 L 506.19 174.52 L 508.27 173.86 L 510.36 174.17 L 512.44 173.10 L 514.52 173.10 L 516.60 171.18 L 518.68 168.37 L 520.76 168.37 L 522.84 165.86 L 524.92 163.63 L 527.01 163.63 L 529.09 163.62 L 531.17 162.88 L 533.25 161.06 L 535.33 193.89 L 537.41 193.22 L 539.49 192.73 L 541.57 192.34 L 543.65 189.45 L 545.74 188.03 L 547.82 188.03 L 549.90 180.86 L 551.98 148.96 L 554.06 144.25 L 556.14 176.00 L 558.22 176.17 L 560.30 175.77 L 562.39 175.72 L 564.47 197.26 L 566.55 197.26 L 568.63 197.06 L 570.71 196.44 L 572.79 194.49 L 574.87 194.50 L 576.95 194.49 L 579.04 194.49 L 581.12 194.49 L 583.20 194.48 L 585.28 194.48 L 587.36 194.62 L 589.44 206.08 L 591.52 206.08 L 593.60 206.05 L 595.69 206.04 L 597.77 205.22 L 599.85 204.28 L 601.93 204.28 L 604.01 204.28 L 606.09 200.22 L 608.17 204.28 L 610.25 204.28 L 612.34 204.28 L 614.42 198.60 L 616.50 198.60 L 618.58 198.60 L 620.66 198.60 L 622.74 193.00 L 624.82 193.00 L 626.90 188.39 L 628.98 188.39 L 631.07 179.75 L 633.15 174.84 L 635.23 173.23 L 637.31 170.37 L 639.39 169.87 L 641.47 153.88 L 643.55 149.24 L 645.63 152.04 L 647.72 141.93 L 649.80 141.88 L 651.88 141.69 L 653.96 141.69 L 656.04 141.76 L 658.12 141.75 L 660.20 140.68 L 662.28 141.38 L 664.37 141.36 L 666.45 141.83 L 668.53 141.39 L 670.61 141.39 L 672.69 141.52 L 674.77 141.52 L 676.85 141.53 L 678.93 142.33 L 681.02 141.73 L 683.10 141.68 L 685.18 141.68 L 687.26 141.66 L 689.34 141.67 L 691.42 141.65 L 693.50 139.51 L 695.58 136.07 L 697.66 136.04 L 699.75 133.43 L 701.83 131.89 L 703.91 131.13 L 705.99 131.51 L 708.07 131.50 L 710.15 131.57 L 712.23 131.56 L 714.31 131.49 L 716.40 131.49 L 718.48 131.49 L 720.56 131.49 L 722.64 131.49 L 724.72 131.49 L 726.80 131.49 L 728.88 131.49 L 730.96 131.49 L 733.05 131.49 L 735.13 131.49 L 737.21 131.49 L 739.29 131.49 L 741.37 131.49 L 743.45 131.49 L 745.53 131.49 L 747.61 131.49 L 749.70 131.49 L 751.78 131.49 L 753.86 131.49 L 755.94 131.49 L 758.02 131.49 L 760.10 131.49 L 762.18 131.49 L 764.26 131.49 L 766.35 131.49 L 768.43 131.49 L 770.51 131.49 L 772.59 131.49 L 774.67 131.49 L 776.75 131.49 L 778.83 131.49 L 780.91 131.49 L 782.99 131.49 L 785.08 131.49 L 787.16 131.49 L 789.24 131.49 L 791.32 131.49 L 793.40 131.49 L 795.48 131.49 L 797.56 131.49 L 799.64 131.49 L 801.73 131.49 L 803.81 131.49 L 805.89 131.49 L 807.97 131.49 L 810.05 131.49 L 812.13 131.49 L 814.21 131.49 L 816.29 131.49 L 818.38 131.49 L 820.46 131.49 L 822.54 131.49 L 824.62 131.49 L 826.70 131.49 L 828.78 131.49 L 830.86 131.49 L 832.94 131.49 L 835.03 131.49 L 837.11 131.49 L 839.19 131.49 L 841.27 131.49 L 843.35 131.49 L 845.43 131.49 L 847.51 131.49 L 849.59 131.49 L 851.68 131.49 L 853.76 131.49 L 855.84 131.49 L 857.92 131.49 L 860.00 131.49" fill="none" stroke="#111827" stroke-width="2"/>
    <circle cx="860.00" cy="131.49" r="3" fill="#111827"/>
    <text x="40.00" y="235.00" font-size="9" fill="#111827" text-anchor="middle" transform="rotate(-45 40.00 235.00)">27.09.2025</text><text x="121.17" y="235.00" font-size="9" fill="#111827" text-anchor="middle" transform="rotate(-45 121.17 235.00)">28.09.2025</text><text x="202.34" y="235.00" font-size="9" fill="#111827" text-anchor="middle" transform="rotate(-45 202.34 235.00)">29.09.2025</text><text x="283.50" y="235.00" font-size="9" fill="#111827" text-anchor="middle" transform="rotate(-45 283.50 235.00)">04.10.2025</text><text x="364.67" y="235.00" font-size="9" fill="#111827" text-anchor="middle" transform="rotate(-45 364.67 235.00)">04.10.2025</text><text x="445.84" y="235.00" font-size="9" fill="#111827" text-anchor="middle" transform="rotate(-45 445.84 235.00)">04.10.2025</text><text x="527.01" y="235.00" font-size="9" fill="#111827" text-anchor="middle" transform="rotate(-45 527.01 235.00)">04.10.2025</text><text x="608.17" y="235.00" font-size="9" fill="#111827" text-anchor="middle" transform="rotate(-45 608.17 235.00)">07.10.2025</text><text x="689.34" y="235.00" font-size="9" fill="#111827" text-anchor="middle" transform="rotate(-45 689.34 235.00)">09.10.2025</text><text x="770.51" y="235.00" font-size="9" fill="#111827" text-anchor="middle" transform="rotate(-45 770.51 235.00)">05.11.2025</text><text x="851.68" y="235.00" font-size="9" fill="#111827" text-anchor="middle" transform="rotate(-45 851.68 235.00)">14.12.2025</text>
  </g>
</svg>