<svg xmlns="http://www.w3.org/2000/svg" width="900" height="290" style="font-family: -apple-system, BlinkMacSystemFont, 'Segoe UI', Helvetica, Arial, sans-serif;">
  <rect width="100%" height="100%" fill="#0d1117"/>
  <g>
    <line x1="40" y1="220.00" x2="860" y2="220.00" stroke="#30363d"/><text x="32" y="224.00" font-size="10" fill="#c9d1d9" text-anchor="end">0</text><line x1="40" y1="175.00" x2="860" y2="175.00" stroke="#30363d"/><text x="32" y="179.00" font-size="10" fill="#c9d1d9" text-anchor="end">25k</text><line x1="40" y1="130.00" x2="860" y2="130.00" stroke="#30363d"/><text x="32" y="134.00" font-size="10" fill="#c9d1d9" text-anchor="end">50k</text><line x1="40" y1="85.00" x2="860" y2="85.00" stroke="#30363d"/><text x="32" y="89.00" font-size="10" fill="#c9d1d9" text-anchor="end">75k</text><line x1="40" y1="40.00" x2="860" y2="40.00" stroke="#30363d"/><text x="32" y="44.00" font-size="10" fill="#c9d1d9" text-anchor="end">100k</text>
    <line x1="40.00" y1="40" x2="40.00" y2="220" stroke="#30363d" opacity="0.5"/><line x1="120.73" y1="40" x2="120.73" y2="220" stroke="#30363d" opacity="0.5"/><line x1="201.45" y1="40" x2="201.45" y2="220" stroke="#30363d" opacity="0.5"/><line x1="282.18" y1="40" x2="282.18" y2="220" stroke="#30363d" opacity="0.5"/><line x1="362.90" y1="40" x2="362.90" y2="220" stroke="#30363d" opacity="0.5"/><line x1="443.63" y1="40" x2="443.63" y2="220" stroke="#30363d" opacity="0.5"/><line x1="524.35" y1="40" x2="524.35" y2="220" stroke="#30363d" opacity="0.5"/><line x1="605.08" y1="40" x2="605.08" y2="220" stroke="#30363d" opacity="0.5"/><line x1="685.80" y1="40" x2="685.80" y2="220" stroke="#30363d" opacity="0.5"/><line x1="766.53" y1="40" x2="766.53" y2="220" stroke="#30363d" opacity="0.5"/><line x1="847.25" y1="40" x2="847.25" y2="220" stroke="#30363d" opacity="0.5"/>
    <line x1="40" y1="220" x2="860" y2="220" stroke="#30363d"/>
    <line x1="40" y1="40"   x2="40"   y2="220" stroke="#30363d"/>
    <path d="M 40.00 220.00 L 42.12 220.00 L 44.25 219.60 L 46.37 219.62 L 48.50 219.63 L 50.62 219.32 L 52.75 219.31 L 54.87 219.26 L 56.99 218.89 L 59.12 218.89 L 61.24 218.89 L 63.37 218.87 L 65.49 218.87 L 67.62 218.86 L 69.74 218.85 L 71.87 218.85 L 73.99 218.82 L 76.11 218.78 L 78.24 218.72 L 80.36 218.68 L 82.49 218.64 L 84.61 218.59 L 86.74 218.59 L 88.86 218.57 L 90.98 218.57 L 93.11 218.57 L 95.23 218.57 L 97.36 218.57 L 99.48 218.57 L 101.61 218.57 L 103.73 218.57 L 105.85 218.57 L 107.98 218.55 L 110.10 218.54 L 112.23 218.58 L 114.35 218.55 L 116.48 218.55 L 118.60 218.53 L 120.73 218.31 L 122.85 217.94 L 124.97 217.88 L 127.10 217.87 L 129.22 217.86 L 131.35 217.85 L 133.47 217.84 L 135.60 217.85 L 137.72 217.82 L 139.84 217.66 L 141.97 217.61 L 144.09 217.60 L 146.22 217.57 L 148.34 217.56 L 150.47 217.52 L 152.59 217.38 L 154.72 217.24 L 156.84 216.93 L 158.96 216.65 L 161.09 216.44 L 163.21 216.39 L 165.34 216.34 L 167.46 216.83 L 169.59 200.94 L 171.71 200.94 L 173.83 200.95 L 175.96 198.99 L 178.08 198.98 L 180.21 198.94 L 182.33 198.94 L 184.46 198.91 L 186.58 198.90 L 188.70 198.93 L 190.83 198.93 L 192.95 198.99 L 195.08 198.95 L 197.20 198.96 L 199.33 198.95 L 201.45 198.95 L 203.58 198.97 L 205.70 198.97 L 207.82 198.97 L 209.95 198.97 L 212.07 198.97 L 214.20 198.97 L 216.32 198.97 L 218.45 198.97 L 220.57 198.97 L 222.69 198.97 L 224.82 198.97 L 226.94 197.51 L 229.07 197.43 L 231.19 197.40 L 233.32 197.38 L 235.44 197.38 L 237.56 197.49 L 239.69 197.34 L 241.81 197.33 L 243.94 197.18 L 246.06 197.41 L 248.19 197.41 L 250.31 197.29 L 252.44 197.29 L 254.56 197.22 L 256.68 197.21 L 258.81 197.15 L 260.93 196.94 L 263.06 197.00 L 265.18 197.41 L 267.31 197.41 L 269.43 197.30 L 271.55 197.26 L 273.68 197.19 L 275.80 197.19 L 277.93 197.19 L 280.05 197.19 L 282.18 197.18 L 284.30 197.12 L 286.42 197.09 L 288.55 197.04 L 290.67 197.00 L 292.80 196.96 L 294.92 196.92 L 297.05 196.91 L 299.17 196.86 L 301.30 196.80 L 303.42 196.75 L 305.54 196.69 L 307.67 196.66 L 309.79 196.63 L 311.92 196.56 L 314.04 196.51 L 316.17 196.47 L 318.29 196.45 L 320.41 196.40 L 322.54 196.37 L 324.66 196.34 L 326.79 196.28 L 328.91 196.20 L 331.04 196.12 L 333.16 196.02 L 335.28 195.89 L 337.41 195.77 L 339.53 195.68 L 341.66 195.63 L 343.78 195.58 L 345.91 195.53 L 348.03 195.44 L 350.16 195.35 L 352.28 195.22 L 354.40 195.11 L 356.53 194.95 L 358.65 194.82 L 360.78 194.68 L 362.90 194.57 L 365.03 194.55 L 367.15 194.51 L 369.27 194.48 L 371.40 194.44 L 373.52 194.40 L 375.65 194.37 L 377.77 194.34 L 379.90 194.29 L 382.02 194.25 L 384.15 194.23 L 386.27 194.21 L 388.39 194.19 L 390.52 194.16 L 392.64 194.12 L 394.77 194.07 L 396.89 193.99 L 399.02 193.94 L 401.14 193.87 L 403.26 193.80 L 405.39 193.74 L 407.51 193.72 L 409.64 193.70 L 411.76 193.66 L 413.89 193.62 L 416.01 193.56 L 418.13 193.49 L 420.26 193.43 L 422.38 193.35 L 424.51 193.27 L 426.63 193.20 L 428.76 193.14 L 430.88 193.15 L 433.01 193.15 L 435.13 193.15 L 437.25 193.18 L 439.38 193.09 L 441.50 193.07 L 443.63 193.07 L 445.75 193.08 L 447.88 193.00 L 450.00 192.95 L 452.12 192.95 L 454.25 192.95 L 456.37 192.95 L 458.50 192.80 L 460.62 192.73 L 462.75 192.69 L 464.87 192.67 L 466.99 192.67 L 469.12 192.68 L 471.24 192.64 L 473.37 192.63 L 475.49 192.63 L 477.62 190.39 L 479.74 189.96 L 481.87 189.85 L 483.99 189.53 L 486.11 189.52 L 488.24 189.36 L 490.36 187.79 L 492.49 187.36 L 494.61 181.35 L 496.74 181.35 L 498.86 180.72 L 500.98 180.71 L 503.11 180.26 L 505.23 179.68 L 507.36 179.67 L 509.48 178.77 L 511.61 177.57 L 513.73 175.55 L 515.85 174.52 L 517.98 173.86 L 520.10 174.17 L 522.23 173.10 L 524.35 173.10 L 526.48 171.18 L 528.60 168.37 L 530.73 168.37 L 532.85 165.86 L 534.97 163.63 L 537.10 163.63 L 539.22 163.62 L 541.35 162.88 L 543.47 161.06 L 545.60 193.89 L 547.72 193.22 L 549.84 192.73 L 551.97 192.34 L 554.09 189.45 L 556.22 188.03 L 558.34 188.03 L 560.47 180.86 L 562.59 148.96 L 564.72 144.25 L 566.84 176.00 L 568.96 176.17 L 571.09 175.77 L 573.21 175.72 L 575.34 197.26 L 577.46 197.26 L 579.59 197.06 L 581.71 196.44 L 583.83 194.49 L 585.96 194.50 L 588.08 194.49 L 590.21 194.49 L 592.33 194.49 L 594.46 194.48 L 596.58 194.48 L 598.70 194.62 L 600.83 206.08 L 602.95 206.08 L 605.08 206.05 L 607.20 206.04 L 609.33 205.22 L 611.45 204.28 L 613.58 204.28 L 615.70 204.28 L 617.82 200.22 L 619.95 204.28 L 622.07 204.28 L 624.20 204.28 L 626.32 198.60 L 628.45 198.60 L 630.57 198.60 L 632.69 198.60 L 634.82 193.00 L 636.94 193.00 L 639.07 188.39 L 641.19 188.39 L 643.32 179.75 L 645.44 174.84 L 647.56 173.23 L 649.69 170.37 L 651.81 169.87 L 653.94 153.88 L 656.06 149.24 L 658.19 152.04 L 660.31 141.93 L 662.44 141.88 L 664.56 141.69 L 666.68 141.69 L 668.81 141.76 L 670.93 141.75 L 673.06 140.68 L 675.18 141.38 L 677.31 141.36 L 679.43 141.83 L 681.55 141.39 L 683.68 141.39 L 685.80 141.52 L 687.93 141.52 L 690.05 141.53 L 692.18 142.33 L 694.30 141.73 L 696.42 141.68 L 698.55 141.68 L 700.67 141.66 L 702.80 141.67 L 704.92 141.65 L 707.05 139.51 L 709.17 136.07 L 711.30 136.04 L 713.42 133.43 L 715.54 131.89 L 717.67 131.13 L 719.79 131.51 L 721.92 131.50 L 724.04 131.57 L 726.17 131.56 L 728.29 131.49 L 730.41 131.49 L 732.54 131.49 L 734.66 131.49 L 736.79 131.49 L 738.91 131.49 L 741.04 131.49 L 743.16 131.49 L 745.28 131.49 L 747.41 131.49 L 749.53 131.49 L 751.66 131.49 L 753.78 131.49 L 755.91 131.49 L 758.03 131.49 L 760.16 131.49 L 762.28 131.49 L 764.40 131.49 L 766.53 131.49 L 768.65 131.49 L 770.78 131.49 L 772.90 131.49 L 775.03 131.49 L 777.15 131.49 L 779.27 131.49 L 781.40 131.49 L 783.52 131.49 L 785.65 131.49 L 787.77 131.49 L 789.90 131.49 L 792.02 131.49 L 794.15 131.49 L 796.27 131.49 L 798.39 131.49 L 800.52 131.49 L 802.64 131.49 L 804.77 131.49 L 806.89 131.49 L 809.02 131.49 L 811.14 131.49 L 813.26 131.49 L 815.39 131.49 L 817.51 131.49 L 819.64 131.49 L 821.76 131.49 L 823.89 131.49 L 826.01 131.49 L 828.13 131.49 L 830.26 131.49 L 832.38 131.49 L 834.51 131.49 L 836.63 131.49 L 838.76 131.49 L 840.88 131.49 L 843.01 131.49 L 845.13 131.49 L 847.25 131.49 L 849.38 131.49 L 851.50 131.49 L 853.63 131.49 L 855.75 131.49 L 857.88 131.49 L 860.00 131.49" fill="none" stroke="#3fb950" stroke-width="2"/>
    <circle cx="860.00" cy="131.49" r="3" fill="#3fb950"/>
    <text x="40.00" y="235.00" font-size="9" fill="#c9d1d9" text-anchor="middle" transform="rotate(-45 40.00 235.00)">27.09.2025</text><text x="120.73" y="235.00" font-size="9" fill="#c9d1d9" text-anchor="middle" transform="rotate(-45 120.73 235.00)">28.09.2025</text><text x="201.45" y="235.00" font-size="9" fill="#c9d1d9" text-anchor="middle" transform="rotate(-45 201.45 235.00)">29.09.2025</text><text x="282.18" y="235.00" font-size="9" fill="#c9d1d9" text-anchor="middle" transform="rotate(-45 282.18 235.00)">04.10.2025</text><text x="362.90" y="235.00" font-size="9" fill="#c9d1d9" text-anchor="middle" transform="rotate(-45 362.90 235.00)">04.10.2025</text><text x="443.63" y="235.00" font-size="9" fill="#c9d1d9" text-anchor="middle" transform="rotate(-45 443.63 235.00)">04.10.2025</text><text x="524.35" y="235.00" font-size="9" fill="#c9d1d9" text-anchor="middle" transform="rotate(-45 524.35 235.00)">04.10.2025</text><text x="605.08" y="235.00" font-size="9" fill="#c9d1d9" text-anchor="middle" transform="rotate(-45 605.08 235.00)">05.10.2025</text><text x="685.80" y="235.00" font-size="9" fill="#c9d1d9" text-anchor="middle" transform="rotate(-45 685.80 235.00)">09.10.2025</text><text x="766.53" y="235.00" font-size="9" fill="#c9d1d9" text-anchor="middle" transform="rotate(-45 766.53 235.00)">27.10.2025</text><text x="847.25" y="235.00" font-size="9" fill="#c9d1d9" text-anchor="middle" transform="rotate(-45 847.25 235.00)">04.12.2025</text>
  </g>
</svg>