<svg xmlns="http://www.w3.org/2000/svg" width="900" height="290" style="font-family: -apple-system, BlinkMacSystemFont, 'Segoe UI', Helvetica, Arial, sans-serif;">
  <rect width="100%" height="100%" fill="white"/>
  <g>
    <line x1="40" y1="220.00" x2="860" y2="220.00" stroke="#e5e7eb"/><text x="32" y="224.00" font-size="10" fill="#111827" text-anchor="end">0</text><line x1="40" y1="175.00" x2="860" y2="175.00" stroke="#e5e7eb"/><text x="32" y="179.00" font-size="10" fill="#111827" text-anchor="end">25k</text><line x1="40" y1="130.00" x2="860" y2="130.00" stroke="#e5e7eb"/><text x="32" y="134.00" font-size="10" fill="#111827" text-anchor="end">50k</text><line x1="40" y1="85.00" x2="860" y2="85.00" stroke="#e5e7eb"/><text x="32" y="89.00" font-size="10" fill="#111827" text-anchor="end">75k</text><line x1="40" y1="40.00" x2="860" y2="40.00" stroke="#e5e7eb"/><text x="32" y="44.00" font-size="10" fill="#111827" text-anchor="end">100k</text>
    <line x1="40.00" y1="40" x2="40.00" y2="220" stroke="#e5e7eb" opacity="0.5"/><line x1="121.29" y1="40" x2="121.29" y2="220" stroke="#e5e7eb" opacity="0.5"/><line x1="202.59" y1="40" x2="202.59" y2="220" stroke="#e5e7eb" opacity="0.5"/><line x1="283.88" y1="40" x2="283.88" y2="220" stroke="#e5e7eb" opacity="0.5"/><line x1="365.17" y1="40" x2="365.17" y2="220" stroke="#e5e7eb" opacity="0.5"/><line x1="446.47" y1="40" x2="446.47" y2="220" stroke="#e5e7eb" opacity="0.5"/><line x1="527.76" y1="40" x2="527.76" y2="220" stroke="#e5e7eb" opacity="0.5"/><line x1="609.05" y1="40" x2="609.05" y2="220" stroke="#e5e7eb" opacity="0.5"/><line x1="690.34" y1="40" x2="690.34" y2="220" stroke="#e5e7eb" opacity="0.5"/><line x1="771.64" y1="40" x2="771.64" y2="220" stroke="#e5e7eb" opacity="0.5"/><line x1="852.93" y1="40" x2="852.93" y2="220" stroke="#e5e7eb" opacity="0.5"/>
    <line x1="40" y1="220" x2="860" y2="220" stroke="#9ca3af"/>
    <line x1="40" y1="40"   x2="40"   y2="220" stroke="#9ca3af"/>
    <path d="M 40.00 220.00 L 41.77 220.00 L 43.53 219.60 L 45.30 219.62 L 47.07 219.63 L 48.84 219.32 L 50.60 219.31 L 52.37 219.26 L 54.14 218.89 L 55.91 218.89 L 57.67 218.89 L 59.44 218.87 L 61.21 218.87 L 62.97 218.86 L 64.74 218.85 L 66.51 218.85 L 68.28 218.82 L 70.04 218.78 L 71.81 218.72 L 73.58 218.68 L 75.34 218.64 L 77.11 218.59 L 78.88 218.59 L 80.65 218.57 L 82.41 218.57 L 84.18 218.57 L 85.95 218.57 L 87.72 218.57 L 89.48 218.57 L 91.25 218.57 L 93.02 218.57 L 94.78 218.57 L 96.55 218.55 L 98.32 218.54 L 100.09 218.58 L 101.85 218.55 L 103.62 218.55 L 105.39 218.53 L 107.16 218.31 L 108.92 217.94 L 110.69 217.88 L 112.46 217.87 L 114.22 217.86 L 115.99 217.85 L 117.76 217.84 L 119.53 217.85 L 121.29 217.82 L 123.06 217.66 L 124.83 217.61 L 126.59 217.60 L 128.36 217.57 L 130.13 217.56 L 131.90 217.52 L 133.66 217.38 L 135.43 217.24 L 137.20 216.93 L 138.97 216.65 L 140.73 216.44 L 142.50 216.39 L 144.27 216.34 L 146.03 216.83 L 147.80 200.94 L 149.57 200.94 L 151.34 200.95 L 153.10 198.99 L 154.87 198.98 L 156.64 198.94 L 158.41 198.94 L 160.17 198.91 L 161.94 198.90 L 163.71 198.93 L 165.47 198.93 L 167.24 198.99 L 169.01 198.95 L 170.78 198.96 L 172.54 198.95 L 174.31 198.95 L 176.08 198.97 L 177.84 198.97 L 179.61 198.97 L 181.38 198.97 L 183.15 198.97 L 184.91 198.97 L 186.68 198.97 L 188.45 198.97 L 190.22 198.97 L 191.98 198.97 L 193.75 198.97 L 195.52 197.51 L 197.28 197.43 L 199.05 197.40 L 200.82 197.38 L 202.59 197.38 L 204.35 197.49 L 206.12 197.34 L 207.89 197.33 L 209.66 197.18 L 211.42 197.41 L 213.19 197.41 L 214.96 197.29 L 216.72 197.29 L 218.49 197.22 L 220.26 197.21 L 222.03 197.15 L 223.79 196.94 L 225.56 197.00 L 227.33 197.41 L 229.09 197.41 L 230.86 197.30 L 232.63 197.26 L 234.40 197.19 L 236.16 197.19 L 237.93 197.19 L 239.70 197.19 L 241.47 197.18 L 243.23 197.12 L 245.00 197.09 L 246.77 197.04 L 248.53 197.00 L 250.30 196.96 L 252.07 196.92 L 253.84 196.91 L 255.60 196.86 L 257.37 196.80 L 259.14 196.75 L 260.91 196.69 L 262.67 196.66 L 264.44 196.63 L 266.21 196.56 L 267.97 196.51 L 269.74 196.47 L 271.51 196.45 L 273.28 196.40 L 275.04 196.37 L 276.81 196.34 L 278.58 196.28 L 280.34 196.20 L 282.11 196.12 L 283.88 196.02 L 285.65 195.89 L 287.41 195.77 L 289.18 195.68 L 290.95 195.63 L 292.72 195.58 L 294.48 195.53 L 296.25 195.44 L 298.02 195.35 L 299.78 195.22 L 301.55 195.11 L 303.32 194.95 L 305.09 194.82 L 306.85 194.68 L 308.62 194.57 L 310.39 194.55 L 312.16 194.51 L 313.92 194.48 L 315.69 194.44 L 317.46 194.40 L 319.22 194.37 L 320.99 194.34 L 322.76 194.29 L 324.53 194.25 L 326.29 194.23 L 328.06 194.21 L 329.83 194.19 L 331.59 194.16 L 333.36 194.12 L 335.13 194.07 L 336.90 193.99 L 338.66 193.94 L 340.43 193.87 L 342.20 193.80 L 343.97 193.74 L 345.73 193.72 L 347.50 193.70 L 349.27 193.66 L 351.03 193.62 L 352.80 193.56 L 354.57 193.49 L 356.34 193.43 L 358.10 193.35 L 359.87 193.27 L 361.64 193.20 L 363.41 193.14 L 365.17 193.15 L 366.94 193.15 L 368.71 193.15 L 370.47 193.18 L 372.24 193.09 L 374.01 193.07 L 375.78 193.07 L 377.54 193.08 L 379.31 193.00 L 381.08 192.95 L 382.84 192.95 L 384.61 192.95 L 386.38 192.95 L 388.15 192.80 L 389.91 192.73 L 391.68 192.69 L 393.45 192.67 L 395.22 192.67 L 396.98 192.68 L 398.75 192.64 L 400.52 192.63 L 402.28 192.63 L 404.05 190.39 L 405.82 189.96 L 407.59 189.85 L 409.35 189.53 L 411.12 189.52 L 412.89 189.36 L 414.66 187.79 L 416.42 187.36 L 418.19 181.35 L 419.96 181.35 L 421.72 180.72 L 423.49 180.71 L 425.26 180.26 L 427.03 179.68 L 428.79 179.67 L 430.56 178.77 L 432.33 177.57 L 434.09 175.55 L 435.86 174.52 L 437.63 173.86 L 439.40 174.17 L 441.16 173.10 L 442.93 173.10 L 444.70 171.18 L 446.47 168.37 L 448.23 168.37 L 450.00 165.86 L 451.77 163.63 L 453.53 163.63 L 455.30 163.62 L 457.07 162.88 L 458.84 161.06 L 460.60 193.89 L 462.37 193.22 L 464.14 192.73 L 465.91 192.34 L 467.67 189.45 L 469.44 188.03 L 471.21 188.03 L 472.97 180.86 L 474.74 148.96 L 476.51 144.25 L 478.28 176.00 L 480.04 176.17 L 481.81 175.77 L 483.58 175.72 L 485.34 197.26 L 487.11 197.26 L 488.88 197.06 L 490.65 196.44 L 492.41 194.49 L 494.18 194.50 L 495.95 194.49 L 497.72 194.49 L 499.48 194.49 L 501.25 194.48 L 503.02 194.48 L 504.78 194.62 L 506.55 206.08 L 508.32 206.08 L 510.09 206.05 L 511.85 206.04 L 513.62 205.22 L 515.39 204.28 L 517.16 204.28 L 518.92 204.28 L 520.69 200.22 L 522.46 204.28 L 524.22 204.28 L 525.99 204.28 L 527.76 198.60 L 529.53 198.60 L 531.29 198.60 L 533.06 198.60 L 534.83 193.00 L 536.59 193.00 L 538.36 188.39 L 540.13 188.39 L 541.90 179.75 L 543.66 174.84 L 545.43 173.23 L 547.20 170.37 L 548.97 169.87 L 550.73 153.88 L 552.50 149.24 L 554.27 152.04 L 556.03 141.93 L 557.80 141.88 L 559.57 141.69 L 561.34 141.69 L 563.10 141.76 L 564.87 141.75 L 566.64 140.68 L 568.41 141.38 L 570.17 141.36 L 571.94 141.83 L 573.71 141.39 L 575.47 141.39 L 577.24 141.52 L 579.01 141.52 L 580.78 141.53 L 582.54 142.33 L 584.31 141.73 L 586.08 141.68 L 587.84 141.68 L 589.61 141.66 L 591.38 141.67 L 593.15 141.65 L 594.91 139.51 L 596.68 136.07 L 598.45 136.04 L 600.22 133.43 L 601.98 131.89 L 603.75 131.13 L 605.52 131.51 L 607.28 131.50 L 609.05 131.57 L 610.82 131.56 L 612.59 131.49 L 614.35 131.49 L 616.12 131.49 L 617.89 131.49 L 619.66 131.49 L 621.42 131.49 L 623.19 131.49 L 624.96 131.49 L 626.72 131.49 L 628.49 131.49 L 630.26 131.49 L 632.03 131.49 L 633.79 131.49 L 635.56 131.49 L 637.33 131.49 L 639.09 131.49 L 640.86 131.49 L 642.63 131.49 L 644.40 131.49 L 646.16 131.49 L 647.93 131.49 L 649.70 131.49 L 651.47 131.49 L 653.23 131.49 L 655.00 131.49 L 656.77 131.49 L 658.53 131.49 L 660.30 131.49 L 662.07 131.49 L 663.84 131.49 L 665.60 131.49 L 667.37 131.49 L 669.14 131.49 L 670.91 131.49 L 672.67 131.49 L 674.44 131.49 L 676.21 131.49 L 677.97 131.49 L 679.74 131.49 L 681.51 131.49 L 683.28 131.49 L 685.04 131.49 L 686.81 131.49 L 688.58 131.49 L 690.34 131.49 L 692.11 131.49 L 693.88 131.49 L 695.65 131.49 L 697.41 131.49 L 699.18 131.49 L 700.95 131.49 L 702.72 131.49 L 704.48 131.49 L 706.25 131.49 L 708.02 131.49 L 709.78 131.49 L 711.55 131.49 L 713.32 131.49 L 715.09 131.49 L 716.85 131.49 L 718.62 131.49 L 720.39 131.49 L 722.16 131.49 L 723.92 131.49 L 725.69 131.49 L 727.46 131.49 L 729.22 131.49 L 730.99 131.49 L 732.76 131.49 L 734.53 131.49 L 736.29 131.49 L 738.06 131.49 L 739.83 131.49 L 741.59 131.49 L 743.36 131.49 L 745.13 131.49 L 746.90 131.49 L 748.66 131.49 L 750.43 131.49 L 752.20 131.49 L 753.97 131.49 L 755.73 131.49 L 757.50 131.49 L 759.27 131.49 L 761.03 131.49 L 762.80 131.49 L 764.57 131.49 L 766.34 131.49 L 768.10 131.49 L 769.87 131.49 L 771.64 131.49 L 773.41 131.49 L 775.17 131.49 L 776.94 131.49 L 778.71 131.49 L 780.47 131.49 L 782.24 131.49 L 784.01 131.49 L 785.78 131.49 L 787.54 131.49 L 789.31 131.49 L 791.08 131.49 L 792.84 131.49 L 794.61 131.49 L 796.38 131.49 L 798.15 131.49 L 799.91 131.49 L 801.68 131.49 L 803.45 131.49 L 805.22 131.49 L 806.98 131.49 L 808.75 131.49 L 810.52 131.49 L 812.28 131.49 L 814.05 131.49 L 815.82 131.49 L 817.59 131.49 L 819.35 131.49 L 821.12 131.49 L 822.89 131.49 L 824.66 131.49 L 826.42 131.49 L 828.19 131.49 L 829.96 131.49 L 831.72 131.49 L 833.49 131.49 L 835.26 131.49 L 837.03 131.49 L 838.79 131.49 L 840.56 131.49 L 842.33 131.49 L 844.09 131.49 L 845.86 131.49 L 847.63 131.49 L 849.40 131.49 L 851.16 131.49 L 852.93 131.49 L 854.70 131.49 L 856.47 131.49 L 858.23 131.49 L 860.00 131.49" fill="none" stroke="#111827" stroke-width="2"/>
    <circle cx="860.00" cy="131.49" r="3" fill="#111827"/>
    <text x="40.00" y="235.00" font-size="9" fill="#111827" text-anchor="middle" transform="rotate(-45 40.00 235.00)">27.09.2025</text><text x="121.29" y="235.00" font-size="9" fill="#111827" text-anchor="middle" transform="rotate(-45 121.29 235.00)">28.09.2025</text><text x="202.59" y="235.00" font-size="9" fill="#111827" text-anchor="middle" transform="rotate(-45 202.59 235.00)">29.09.2025</text><text x="283.88" y="235.00" font-size="9" fill="#111827" text-anchor="middle" transform="rotate(-45 283.88 235.00)">04.10.2025</text><text x="365.17" y="235.00" font-size="9" fill="#111827" text-anchor="middle" transform="rotate(-45 365.17 235.00)">04.10.2025</text><text x="446.47" y="235.00" font-size="9" fill="#111827" text-anchor="middle" transform="rotate(-45 446.47 235.00)">04.10.2025</text><text x="527.76" y="235.00" font-size="9" fill="#111827" text-anchor="middle" transform="rotate(-45 527.76 235.00)">07.10.2025</text><text x="609.05" y="235.00" font-size="9" fill="#111827" text-anchor="middle" transform="rotate(-45 609.05 235.00)">10.10.2025</text><text x="690.34" y="235.00" font-size="9" fill="#111827" text-anchor="middle" transform="rotate(-45 690.34 235.00)">22.11.2025</text><text x="771.64" y="235.00" font-size="9" fill="#111827" text-anchor="middle" transform="rotate(-45 771.64 235.00)">07.01.2026</text><text x="852.93" y="235.00" font-size="9" fill="#111827" text-anchor="middle" transform="rotate(-45 852.93 235.00)">19.02.2026</text>
  </g>
</svg>