<svg xmlns="http://www.w3.org/2000/svg" width="900" height="290" style="font-family: -apple-system, BlinkMacSystemFont, 'Segoe UI', Helvetica, Arial, sans-serif;">
  <rect width="100%" height="100%" fill="#0d1117"/>
  <g>
    <line x1="40" y1="220.00" x2="860" y2="220.00" stroke="#30363d"/><text x="32" y="224.00" font-size="10" fill="#c9d1d9" text-anchor="end">0</text><line x1="40" y1="175.00" x2="860" y2="175.00" stroke="#30363d"/><text x="32" y="179.00" font-size="10" fill="#c9d1d9" text-anchor="end">25k</text><line x1="40" y1="130.00" x2="860" y2="130.00" stroke="#30363d"/><text x="32" y="134.00" font-size="10" fill="#c9d1d9" text-anchor="end">50k</text><line x1="40" y1="85.00" x2="860" y2="85.00" stroke="#30363d"/><text x="32" y="89.00" font-size="10" fill="#c9d1d9" text-anchor="end">75k</text><line x1="40" y1="40.00" x2="860" y2="40.00" stroke="#30363d"/><text x="32" y="44.00" font-size="10" fill="#c9d1d9" text-anchor="end">100k</text>
    <line x1="40.00" y1="40" x2="40.00" y2="220" stroke="#30363d" opacity="0.5"/><line x1="121.36" y1="40" x2="121.36" y2="220" stroke="#30363d" opacity="0.5"/><line x1="202.72" y1="40" x2="202.72" y2="220" stroke="#30363d" opacity="0.5"/><line x1="284.07" y1="40" x2="284.07" y2="220" stroke="#30363d" opacity="0.5"/><line x1="365.43" y1="40" x2="365.43" y2="220" stroke="#30363d" opacity="0.5"/><line x1="446.79" y1="40" x2="446.79" y2="220" stroke="#30363d" opacity="0.5"/><line x1="528.15" y1="40" x2="528.15" y2="220" stroke="#30363d" opacity="0.5"/><line x1="609.50" y1="40" x2="609.50" y2="220" stroke="#30363d" opacity="0.5"/><line x1="690.86" y1="40" x2="690.86" y2="220" stroke="#30363d" opacity="0.5"/><line x1="772.22" y1="40" x2="772.22" y2="220" stroke="#30363d" opacity="0.5"/><line x1="853.58" y1="40" x2="853.58" y2="220" stroke="#30363d" opacity="0.5"/>
    <line x1="40" y1="220" x2="860" y2="220" stroke="#30363d"/>
    <line x1="40" y1="40"   x2="40"   y2="220" stroke="#30363d"/>
    <path d="M 40.00 220.00 L 42.14 220.00 L 44.28 219.60 L 46.42 219.62 L 48.56 219.63 L 50.70 219.32 L 52.85 219.31 L 54.99 219.26 L 57.13 218.89 L 59.27 218.89 L 61.41 218.89 L 63.55 218.87 L 65.69 218.87 L 67.83 218.86 L 69.97 218.85 L 72.11 218.85 L 74.26 218.82 L 76.40 218.78 L 78.54 218.72 L 80.68 218.68 L 82.82 218.64 L 84.96 218.59 L 87.10 218.59 L 89.24 218.57 L 91.38 218.57 L 93.52 218.57 L 95.67 218.57 L 97.81 218.57 L 99.95 218.57 L 102.09 218.57 L 104.23 218.57 L 106.37 218.57 L 108.51 218.55 L 110.65 218.54 L 112.79 218.58 L 114.93 218.55 L 117.08 218.55 L 119.22 218.53 L 121.36 218.31 L 123.50 217.94 L 125.64 217.88 L 127.78 217.87 L 129.92 217.86 L 132.06 217.85 L 134.20 217.84 L 136.34 217.85 L 138.49 217.82 L 140.63 217.66 L 142.77 217.61 L 144.91 217.60 L 147.05 217.57 L 149.19 217.56 L 151.33 217.52 L 153.47 217.38 L 155.61 217.24 L 157.75 216.93 L 159.90 216.65 L 162.04 216.44 L 164.18 216.39 L 166.32 216.34 L 168.46 216.83 L 170.60 200.94 L 172.74 200.94 L 174.88 200.95 L 177.02 198.99 L 179.16 198.98 L 181.31 198.94 L 183.45 198.94 L 185.59 198.91 L 187.73 198.90 L 189.87 198.93 L 192.01 198.93 L 194.15 198.99 L 196.29 198.95 L 198.43 198.96 L 200.57 198.95 L 202.72 198.95 L 204.86 198.97 L 207.00 198.97 L 209.14 198.97 L 211.28 198.97 L 213.42 198.97 L 215.56 198.97 L 217.70 198.97 L 219.84 198.97 L 221.98 198.97 L 224.13 198.97 L 226.27 198.97 L 228.41 197.51 L 230.55 197.43 L 232.69 197.40 L 234.83 197.38 L 236.97 197.38 L 239.11 197.49 L 241.25 197.34 L 243.39 197.33 L 245.54 197.18 L 247.68 197.41 L 249.82 197.41 L 251.96 197.29 L 254.10 197.29 L 256.24 197.22 L 258.38 197.21 L 260.52 197.15 L 262.66 196.94 L 264.80 197.00 L 266.95 197.41 L 269.09 197.41 L 271.23 197.30 L 273.37 197.26 L 275.51 197.19 L 277.65 197.19 L 279.79 197.19 L 281.93 197.19 L 284.07 197.18 L 286.21 197.12 L 288.36 197.09 L 290.50 197.04 L 292.64 197.00 L 294.78 196.96 L 296.92 196.92 L 299.06 196.91 L 301.20 196.86 L 303.34 196.80 L 305.48 196.75 L 307.62 196.69 L 309.77 196.66 L 311.91 196.63 L 314.05 196.56 L 316.19 196.51 L 318.33 196.47 L 320.47 196.45 L 322.61 196.40 L 324.75 196.37 L 326.89 196.34 L 329.03 196.28 L 331.17 196.20 L 333.32 196.12 L 335.46 196.02 L 337.60 195.89 L 339.74 195.77 L 341.88 195.68 L 344.02 195.63 L 346.16 195.58 L 348.30 195.53 L 350.44 195.44 L 352.58 195.35 L 354.73 195.22 L 356.87 195.11 L 359.01 194.95 L 361.15 194.82 L 363.29 194.68 L 365.43 194.57 L 367.57 194.55 L 369.71 194.51 L 371.85 194.48 L 373.99 194.44 L 376.14 194.40 L 378.28 194.37 L 380.42 194.34 L 382.56 194.29 L 384.70 194.25 L 386.84 194.23 L 388.98 194.21 L 391.12 194.19 L 393.26 194.16 L 395.40 194.12 L 397.55 194.07 L 399.69 193.99 L 401.83 193.94 L 403.97 193.87 L 406.11 193.80 L 408.25 193.74 L 410.39 193.72 L 412.53 193.70 L 414.67 193.66 L 416.81 193.62 L 418.96 193.56 L 421.10 193.49 L 423.24 193.43 L 425.38 193.35 L 427.52 193.27 L 429.66 193.20 L 431.80 193.14 L 433.94 193.15 L 436.08 193.15 L 438.22 193.15 L 440.37 193.18 L 442.51 193.09 L 444.65 193.07 L 446.79 193.07 L 448.93 193.08 L 451.07 193.00 L 453.21 192.95 L 455.35 192.95 L 457.49 192.95 L 459.63 192.95 L 461.78 192.80 L 463.92 192.73 L 466.06 192.69 L 468.20 192.67 L 470.34 192.67 L 472.48 192.68 L 474.62 192.64 L 476.76 192.63 L 478.90 192.63 L 481.04 190.39 L 483.19 189.96 L 485.33 189.85 L 487.47 189.53 L 489.61 189.52 L 491.75 189.36 L 493.89 187.79 L 496.03 187.36 L 498.17 181.35 L 500.31 181.35 L 502.45 180.72 L 504.60 180.71 L 506.74 180.26 L 508.88 179.68 L 511.02 179.67 L 513.16 178.77 L 515.30 177.57 L 517.44 175.55 L 519.58 174.52 L 521.72 173.86 L 523.86 174.17 L 526.01 173.10 L 528.15 173.10 L 530.29 171.18 L 532.43 168.37 L 534.57 168.37 L 536.71 165.86 L 538.85 163.63 L 540.99 163.63 L 543.13 163.62 L 545.27 162.88 L 547.42 161.06 L 549.56 193.89 L 551.70 193.22 L 553.84 192.73 L 555.98 192.34 L 558.12 189.45 L 560.26 188.03 L 562.40 188.03 L 564.54 180.86 L 566.68 148.96 L 568.83 144.25 L 570.97 176.00 L 573.11 176.17 L 575.25 175.77 L 577.39 175.72 L 579.53 197.26 L 581.67 197.26 L 583.81 197.06 L 585.95 196.44 L 588.09 194.49 L 590.23 194.50 L 592.38 194.49 L 594.52 194.49 L 596.66 194.49 L 598.80 194.48 L 600.94 194.48 L 603.08 194.62 L 605.22 206.08 L 607.36 206.08 L 609.50 206.05 L 611.64 206.04 L 613.79 205.22 L 615.93 204.28 L 618.07 204.28 L 620.21 204.28 L 622.35 200.22 L 624.49 204.28 L 626.63 204.28 L 628.77 204.28 L 630.91 198.60 L 633.05 198.60 L 635.20 198.60 L 637.34 198.60 L 639.48 193.00 L 641.62 193.00 L 643.76 188.39 L 645.90 188.39 L 648.04 179.75 L 650.18 174.84 L 652.32 173.23 L 654.46 170.37 L 656.61 169.87 L 658.75 153.88 L 660.89 149.24 L 663.03 152.04 L 665.17 141.93 L 667.31 141.88 L 669.45 141.69 L 671.59 141.69 L 673.73 141.76 L 675.87 141.75 L 678.02 140.68 L 680.16 141.38 L 682.30 141.36 L 684.44 141.83 L 686.58 141.39 L 688.72 141.39 L 690.86 141.52 L 693.00 141.52 L 695.14 141.53 L 697.28 142.33 L 699.43 141.73 L 701.57 141.68 L 703.71 141.68 L 705.85 141.66 L 707.99 141.67 L 710.13 141.65 L 712.27 139.51 L 714.41 136.07 L 716.55 136.04 L 718.69 133.43 L 720.84 131.89 L 722.98 131.13 L 725.12 131.51 L 727.26 131.50 L 729.40 131.57 L 731.54 131.56 L 733.68 131.49 L 735.82 131.49 L 737.96 131.49 L 740.10 131.49 L 742.25 131.49 L 744.39 131.49 L 746.53 131.49 L 748.67 131.49 L 750.81 131.49 L 752.95 131.49 L 755.09 131.49 L 757.23 131.49 L 759.37 131.49 L 761.51 131.49 L 763.66 131.49 L 765.80 131.49 L 767.94 131.49 L 770.08 131.49 L 772.22 131.49 L 774.36 131.49 L 776.50 131.49 L 778.64 131.49 L 780.78 131.49 L 782.92 131.49 L 785.07 131.49 L 787.21 131.49 L 789.35 131.49 L 791.49 131.49 L 793.63 131.49 L 795.77 131.49 L 797.91 131.49 L 800.05 131.49 L 802.19 131.49 L 804.33 131.49 L 806.48 131.49 L 808.62 131.49 L 810.76 131.49 L 812.90 131.49 L 815.04 131.49 L 817.18 131.49 L 819.32 131.49 L 821.46 131.49 L 823.60 131.49 L 825.74 131.49 L 827.89 131.49 L 830.03 131.49 L 832.17 131.49 L 834.31 131.49 L 836.45 131.49 L 838.59 131.49 L 840.73 131.49 L 842.87 131.49 L 845.01 131.49 L 847.15 131.49 L 849.30 131.49 L 851.44 131.49 L 853.58 131.49 L 855.72 131.49 L 857.86 131.49 L 860.00 131.49" fill="none" stroke="#3fb950" stroke-width="2"/>
    <circle cx="860.00" cy="131.49" r="3" fill="#3fb950"/>
    <text x="40.00" y="235.00" font-size="9" fill="#c9d1d9" text-anchor="middle" transform="rotate(-45 40.00 235.00)">27.09.2025</text><text x="121.36" y="235.00" font-size="9" fill="#c9d1d9" text-anchor="middle" transform="rotate(-45 121.36 235.00)">28.09.2025</text><text x="202.72" y="235.00" font-size="9" fill="#c9d1d9" text-anchor="middle" transform="rotate(-45 202.72 235.00)">29.09.2025</text><text x="284.07" y="235.00" font-size="9" fill="#c9d1d9" text-anchor="middle" transform="rotate(-45 284.07 235.00)">04.10.2025</text><text x="365.43" y="235.00" font-size="9" fill="#c9d1d9" text-anchor="middle" transform="rotate(-45 365.43 235.00)">04.10.2025</text><text x="446.79" y="235.00" font-size="9" fill="#c9d1d9" text-anchor="middle" transform="rotate(-45 446.79 235.00)">04.10.2025</text><text x="528.15" y="235.00" font-size="9" fill="#c9d1d9" text-anchor="middle" transform="rotate(-45 528.15 235.00)">04.10.2025</text><text x="609.50" y="235.00" font-size="9" fill="#c9d1d9" text-anchor="middle" transform="rotate(-45 609.50 235.00)">05.10.2025</text><text x="690.86" y="235.00" font-size="9" fill="#c9d1d9" text-anchor="middle" transform="rotate(-45 690.86 235.00)">09.10.2025</text><text x="772.22" y="235.00" font-size="9" fill="#c9d1d9" text-anchor="middle" transform="rotate(-45 772.22 235.00)">27.10.2025</text><text x="853.58" y="235.00" font-size="9" fill="#c9d1d9" text-anchor="middle" transform="rotate(-45 853.58 235.00)">04.12.2025</text>
  </g>
</svg>