<svg xmlns="http://www.w3.org/2000/svg" width="900" height="290" style="font-family: -apple-system, BlinkMacSystemFont, 'Segoe UI', Helvetica, Arial, sans-serif;">
  <rect width="100%" height="100%" fill="#0d1117"/>
  <g>
    <line x1="40" y1="220.00" x2="860" y2="220.00" stroke="#30363d"/><text x="32" y="224.00" font-size="10" fill="#c9d1d9" text-anchor="end">0</text><line x1="40" y1="175.00" x2="860" y2="175.00" stroke="#30363d"/><text x="32" y="179.00" font-size="10" fill="#c9d1d9" text-anchor="end">25k</text><line x1="40" y1="130.00" x2="860" y2="130.00" stroke="#30363d"/><text x="32" y="134.00" font-size="10" fill="#c9d1d9" text-anchor="end">50k</text><line x1="40" y1="85.00" x2="860" y2="85.00" stroke="#30363d"/><text x="32" y="89.00" font-size="10" fill="#c9d1d9" text-anchor="end">75k</text><line x1="40" y1="40.00" x2="860" y2="40.00" stroke="#30363d"/><text x="32" y="44.00" font-size="10" fill="#c9d1d9" text-anchor="end">100k</text>
    <line x1="40.00" y1="40" x2="40.00" y2="220" stroke="#30363d" opacity="0.5"/><line x1="122.00" y1="40" x2="122.00" y2="220" stroke="#30363d" opacity="0.5"/><line x1="204.00" y1="40" x2="204.00" y2="220" stroke="#30363d" opacity="0.5"/><line x1="286.00" y1="40" x2="286.00" y2="220" stroke="#30363d" opacity="0.5"/><line x1="368.00" y1="40" x2="368.00" y2="220" stroke="#30363d" opacity="0.5"/><line x1="450.00" y1="40" x2="450.00" y2="220" stroke="#30363d" opacity="0.5"/><line x1="532.00" y1="40" x2="532.00" y2="220" stroke="#30363d" opacity="0.5"/><line x1="614.00" y1="40" x2="614.00" y2="220" stroke="#30363d" opacity="0.5"/><line x1="696.00" y1="40" x2="696.00" y2="220" stroke="#30363d" opacity="0.5"/><line x1="778.00" y1="40" x2="778.00" y2="220" stroke="#30363d" opacity="0.5"/><line x1="860.00" y1="40" x2="860.00" y2="220" stroke="#30363d" opacity="0.5"/>
    <line x1="40" y1="220" x2="860" y2="220" stroke="#30363d"/>
    <line x1="40" y1="40"   x2="40"   y2="220" stroke="#30363d"/>
    <path d="M 40.00 220.00 L 42.48 220.00 L 44.97 219.60 L 47.45 219.62 L 49.94 219.63 L 52.42 219.32 L 54.91 219.31 L 57.39 219.26 L 59.88 218.89 L 62.36 218.89 L 64.85 218.89 L 67.33 218.87 L 69.82 218.87 L 72.30 218.86 L 74.79 218.85 L 77.27 218.85 L 79.76 218.82 L 82.24 218.78 L 84.73 218.72 L 87.21 218.68 L 89.70 218.64 L 92.18 218.59 L 94.67 218.59 L 97.15 218.57 L 99.64 218.57 L 102.12 218.57 L 104.61 218.57 L 107.09 218.57 L 109.58 218.57 L 112.06 218.57 L 114.55 218.57 L 117.03 218.57 L 119.52 218.55 L 122.00 218.54 L 124.48 218.58 L 126.97 218.55 L 129.45 218.55 L 131.94 218.53 L 134.42 218.31 L 136.91 217.94 L 139.39 217.88 L 141.88 217.87 L 144.36 217.86 L 146.85 217.85 L 149.33 217.84 L 151.82 217.85 L 154.30 217.82 L 156.79 217.66 L 159.27 217.61 L 161.76 217.60 L 164.24 217.57 L 166.73 217.56 L 169.21 217.52 L 171.70 217.38 L 174.18 217.24 L 176.67 216.93 L 179.15 216.65 L 181.64 216.44 L 184.12 216.39 L 186.61 216.34 L 189.09 216.83 L 191.58 200.94 L 194.06 200.94 L 196.55 200.95 L 199.03 198.99 L 201.52 198.98 L 204.00 198.94 L 206.48 198.94 L 208.97 198.91 L 211.45 198.90 L 213.94 198.93 L 216.42 198.93 L 218.91 198.99 L 221.39 198.95 L 223.88 198.96 L 226.36 198.95 L 228.85 198.95 L 231.33 198.97 L 233.82 198.97 L 236.30 198.97 L 238.79 198.97 L 241.27 198.97 L 243.76 198.97 L 246.24 198.97 L 248.73 198.97 L 251.21 198.97 L 253.70 198.97 L 256.18 198.97 L 258.67 197.51 L 261.15 197.43 L 263.64 197.40 L 266.12 197.38 L 268.61 197.38 L 271.09 197.49 L 273.58 197.34 L 276.06 197.33 L 278.55 197.18 L 281.03 197.41 L 283.52 197.41 L 286.00 197.29 L 288.48 197.29 L 290.97 197.22 L 293.45 197.21 L 295.94 197.15 L 298.42 196.94 L 300.91 197.00 L 303.39 197.41 L 305.88 197.41 L 308.36 197.30 L 310.85 197.26 L 313.33 197.19 L 315.82 197.19 L 318.30 197.19 L 320.79 197.19 L 323.27 197.18 L 325.76 197.12 L 328.24 197.09 L 330.73 197.04 L 333.21 197.00 L 335.70 196.96 L 338.18 196.92 L 340.67 196.91 L 343.15 196.86 L 345.64 196.80 L 348.12 196.75 L 350.61 196.69 L 353.09 196.66 L 355.58 196.63 L 358.06 196.56 L 360.55 196.51 L 363.03 196.47 L 365.52 196.45 L 368.00 196.40 L 370.48 196.37 L 372.97 196.34 L 375.45 196.28 L 377.94 196.20 L 380.42 196.12 L 382.91 196.02 L 385.39 195.89 L 387.88 195.77 L 390.36 195.68 L 392.85 195.63 L 395.33 195.58 L 397.82 195.53 L 400.30 195.44 L 402.79 195.35 L 405.27 195.22 L 407.76 195.11 L 410.24 194.95 L 412.73 194.82 L 415.21 194.68 L 417.70 194.57 L 420.18 194.55 L 422.67 194.51 L 425.15 194.48 L 427.64 194.44 L 430.12 194.40 L 432.61 194.37 L 435.09 194.34 L 437.58 194.29 L 440.06 194.25 L 442.55 194.23 L 445.03 194.21 L 447.52 194.19 L 450.00 194.16 L 452.48 194.12 L 454.97 194.07 L 457.45 193.99 L 459.94 193.94 L 462.42 193.87 L 464.91 193.80 L 467.39 193.74 L 469.88 193.72 L 472.36 193.70 L 474.85 193.66 L 477.33 193.62 L 479.82 193.56 L 482.30 193.49 L 484.79 193.43 L 487.27 193.35 L 489.76 193.27 L 492.24 193.20 L 494.73 193.14 L 497.21 193.15 L 499.70 193.15 L 502.18 193.15 L 504.67 193.18 L 507.15 193.09 L 509.64 193.07 L 512.12 193.07 L 514.61 193.08 L 517.09 193.00 L 519.58 192.95 L 522.06 192.95 L 524.55 192.95 L 527.03 192.95 L 529.52 192.80 L 532.00 192.73 L 534.48 192.69 L 536.97 192.67 L 539.45 192.67 L 541.94 192.68 L 544.42 192.64 L 546.91 192.63 L 549.39 192.63 L 551.88 190.39 L 554.36 189.96 L 556.85 189.85 L 559.33 189.53 L 561.82 189.52 L 564.30 189.36 L 566.79 187.79 L 569.27 187.36 L 571.76 181.35 L 574.24 181.35 L 576.73 180.72 L 579.21 180.71 L 581.70 180.26 L 584.18 179.68 L 586.67 179.67 L 589.15 178.77 L 591.64 177.57 L 594.12 175.55 L 596.61 174.52 L 599.09 173.86 L 601.58 174.17 L 604.06 173.10 L 606.55 173.10 L 609.03 171.18 L 611.52 168.37 L 614.00 168.37 L 616.48 165.86 L 618.97 163.63 L 621.45 163.63 L 623.94 163.62 L 626.42 162.88 L 628.91 161.06 L 631.39 193.89 L 633.88 193.22 L 636.36 192.73 L 638.85 192.34 L 641.33 189.45 L 643.82 188.03 L 646.30 188.03 L 648.79 180.86 L 651.27 148.96 L 653.76 144.25 L 656.24 176.00 L 658.73 176.17 L 661.21 175.77 L 663.70 175.72 L 666.18 197.26 L 668.67 197.26 L 671.15 197.06 L 673.64 196.44 L 676.12 194.49 L 678.61 194.50 L 681.09 194.49 L 683.58 194.49 L 686.06 194.49 L 688.55 194.48 L 691.03 194.48 L 693.52 194.62 L 696.00 206.08 L 698.48 206.08 L 700.97 206.05 L 703.45 206.04 L 705.94 205.22 L 708.42 204.28 L 710.91 204.28 L 713.39 204.28 L 715.88 200.22 L 718.36 204.28 L 720.85 204.28 L 723.33 204.28 L 725.82 198.60 L 728.30 198.60 L 730.79 198.60 L 733.27 198.60 L 735.76 193.00 L 738.24 193.00 L 740.73 188.39 L 743.21 188.39 L 745.70 179.75 L 748.18 174.84 L 750.67 173.23 L 753.15 170.37 L 755.64 169.87 L 758.12 153.88 L 760.61 149.24 L 763.09 152.04 L 765.58 141.93 L 768.06 141.88 L 770.55 141.69 L 773.03 141.69 L 775.52 141.76 L 778.00 141.75 L 780.48 140.68 L 782.97 141.38 L 785.45 141.36 L 787.94 141.83 L 790.42 141.39 L 792.91 141.39 L 795.39 141.52 L 797.88 141.52 L 800.36 141.53 L 802.85 142.33 L 805.33 141.73 L 807.82 141.68 L 810.30 141.68 L 812.79 141.66 L 815.27 141.67 L 817.76 141.65 L 820.24 139.51 L 822.73 136.07 L 825.21 136.04 L 827.70 133.43 L 830.18 131.89 L 832.67 131.13 L 835.15 131.51 L 837.64 131.50 L 840.12 131.57 L 842.61 131.56 L 845.09 131.49 L 847.58 131.49 L 850.06 131.49 L 852.55 131.49 L 855.03 131.49 L 857.52 131.49 L 860.00 131.49" fill="none" stroke="#3fb950" stroke-width="2"/>
    <circle cx="860.00" cy="131.49" r="3" fill="#3fb950"/>
    <text x="40.00" y="235.00" font-size="9" fill="#c9d1d9" text-anchor="middle" transform="rotate(-45 40.00 235.00)">27.09.2025</text><text x="122.00" y="235.00" font-size="9" fill="#c9d1d9" text-anchor="middle" transform="rotate(-45 122.00 235.00)">28.09.2025</text><text x="204.00" y="235.00" font-size="9" fill="#c9d1d9" text-anchor="middle" transform="rotate(-45 204.00 235.00)">28.09.2025</text><text x="286.00" y="235.00" font-size="9" fill="#c9d1d9" text-anchor="middle" transform="rotate(-45 286.00 235.00)">30.09.2025</text><text x="368.00" y="235.00" font-size="9" fill="#c9d1d9" text-anchor="middle" transform="rotate(-45 368.00 235.00)">04.10.2025</text><text x="450.00" y="235.00" font-size="9" fill="#c9d1d9" text-anchor="middle" transform="rotate(-45 450.00 235.00)">04.10.2025</text><text x="532.00" y="235.00" font-size="9" fill="#c9d1d9" text-anchor="middle" transform="rotate(-45 532.00 235.00)">04.10.2025</text><text x="614.00" y="235.00" font-size="9" fill="#c9d1d9" text-anchor="middle" transform="rotate(-45 614.00 235.00)">04.10.2025</text><text x="696.00" y="235.00" font-size="9" fill="#c9d1d9" text-anchor="middle" transform="rotate(-45 696.00 235.00)">05.10.2025</text><text x="778.00" y="235.00" font-size="9" fill="#c9d1d9" text-anchor="middle" transform="rotate(-45 778.00 235.00)">08.10.2025</text><text x="860.00" y="235.00" font-size="9" fill="#c9d1d9" text-anchor="middle" transform="rotate(-45 860.00 235.00)">15.10.2025</text>
  </g>
</svg>