<svg xmlns="http://www.w3.org/2000/svg" width="900" height="290" style="font-family: -apple-system, BlinkMacSystemFont, 'Segoe UI', Helvetica, Arial, sans-serif;">
  <rect width="100%" height="100%" fill="#0d1117"/>
  <g>
    <line x1="40" y1="220.00" x2="860" y2="220.00" stroke="#30363d"/><text x="32" y="224.00" font-size="10" fill="#c9d1d9" text-anchor="end">0</text><line x1="40" y1="175.00" x2="860" y2="175.00" stroke="#30363d"/><text x="32" y="179.00" font-size="10" fill="#c9d1d9" text-anchor="end">25k</text><line x1="40" y1="130.00" x2="860" y2="130.00" stroke="#30363d"/><text x="32" y="134.00" font-size="10" fill="#c9d1d9" text-anchor="end">50k</text><line x1="40" y1="85.00" x2="860" y2="85.00" stroke="#30363d"/><text x="32" y="89.00" font-size="10" fill="#c9d1d9" text-anchor="end">75k</text><line x1="40" y1="40.00" x2="860" y2="40.00" stroke="#30363d"/><text x="32" y="44.00" font-size="10" fill="#c9d1d9" text-anchor="end">100k</text>
    <line x1="40.00" y1="40" x2="40.00" y2="220" stroke="#30363d" opacity="0.5"/><line x1="120.96" y1="40" x2="120.96" y2="220" stroke="#30363d" opacity="0.5"/><line x1="201.92" y1="40" x2="201.92" y2="220" stroke="#30363d" opacity="0.5"/><line x1="282.89" y1="40" x2="282.89" y2="220" stroke="#30363d" opacity="0.5"/><line x1="363.85" y1="40" x2="363.85" y2="220" stroke="#30363d" opacity="0.5"/><line x1="444.81" y1="40" x2="444.81" y2="220" stroke="#30363d" opacity="0.5"/><line x1="525.77" y1="40" x2="525.77" y2="220" stroke="#30363d" opacity="0.5"/><line x1="606.73" y1="40" x2="606.73" y2="220" stroke="#30363d" opacity="0.5"/><line x1="687.70" y1="40" x2="687.70" y2="220" stroke="#30363d" opacity="0.5"/><line x1="768.66" y1="40" x2="768.66" y2="220" stroke="#30363d" opacity="0.5"/><line x1="849.62" y1="40" x2="849.62" y2="220" stroke="#30363d" opacity="0.5"/>
    <line x1="40" y1="220" x2="860" y2="220" stroke="#30363d"/>
    <line x1="40" y1="40"   x2="40"   y2="220" stroke="#30363d"/>
    <path d="M 40.00 220.00 L 42.08 220.00 L 44.15 219.60 L 46.23 219.62 L 48.30 219.63 L 50.38 219.32 L 52.46 219.31 L 54.53 219.26 L 56.61 218.89 L 58.68 218.89 L 60.76 218.89 L 62.84 218.87 L 64.91 218.87 L 66.99 218.86 L 69.06 218.85 L 71.14 218.85 L 73.22 218.82 L 75.29 218.78 L 77.37 218.72 L 79.44 218.68 L 81.52 218.64 L 83.59 218.59 L 85.67 218.59 L 87.75 218.57 L 89.82 218.57 L 91.90 218.57 L 93.97 218.57 L 96.05 218.57 L 98.13 218.57 L 100.20 218.57 L 102.28 218.57 L 104.35 218.57 L 106.43 218.55 L 108.51 218.54 L 110.58 218.58 L 112.66 218.55 L 114.73 218.55 L 116.81 218.53 L 118.89 218.31 L 120.96 217.94 L 123.04 217.88 L 125.11 217.87 L 127.19 217.86 L 129.27 217.85 L 131.34 217.84 L 133.42 217.85 L 135.49 217.82 L 137.57 217.66 L 139.65 217.61 L 141.72 217.60 L 143.80 217.57 L 145.87 217.56 L 147.95 217.52 L 150.03 217.38 L 152.10 217.24 L 154.18 216.93 L 156.25 216.65 L 158.33 216.44 L 160.41 216.39 L 162.48 216.34 L 164.56 216.83 L 166.63 200.94 L 168.71 200.94 L 170.78 200.95 L 172.86 198.99 L 174.94 198.98 L 177.01 198.94 L 179.09 198.94 L 181.16 198.91 L 183.24 198.90 L 185.32 198.93 L 187.39 198.93 L 189.47 198.99 L 191.54 198.95 L 193.62 198.96 L 195.70 198.95 L 197.77 198.95 L 199.85 198.97 L 201.92 198.97 L 204.00 198.97 L 206.08 198.97 L 208.15 198.97 L 210.23 198.97 L 212.30 198.97 L 214.38 198.97 L 216.46 198.97 L 218.53 198.97 L 220.61 198.97 L 222.68 197.51 L 224.76 197.43 L 226.84 197.40 L 228.91 197.38 L 230.99 197.38 L 233.06 197.49 L 235.14 197.34 L 237.22 197.33 L 239.29 197.18 L 241.37 197.41 L 243.44 197.41 L 245.52 197.29 L 247.59 197.29 L 249.67 197.22 L 251.75 197.21 L 253.82 197.15 L 255.90 196.94 L 257.97 197.00 L 260.05 197.41 L 262.13 197.41 L 264.20 197.30 L 266.28 197.26 L 268.35 197.19 L 270.43 197.19 L 272.51 197.19 L 274.58 197.19 L 276.66 197.18 L 278.73 197.12 L 280.81 197.09 L 282.89 197.04 L 284.96 197.00 L 287.04 196.96 L 289.11 196.92 L 291.19 196.91 L 293.27 196.86 L 295.34 196.80 L 297.42 196.75 L 299.49 196.69 L 301.57 196.66 L 303.65 196.63 L 305.72 196.56 L 307.80 196.51 L 309.87 196.47 L 311.95 196.45 L 314.03 196.40 L 316.10 196.37 L 318.18 196.34 L 320.25 196.28 L 322.33 196.20 L 324.41 196.12 L 326.48 196.02 L 328.56 195.89 L 330.63 195.77 L 332.71 195.68 L 334.78 195.63 L 336.86 195.58 L 338.94 195.53 L 341.01 195.44 L 343.09 195.35 L 345.16 195.22 L 347.24 195.11 L 349.32 194.95 L 351.39 194.82 L 353.47 194.68 L 355.54 194.57 L 357.62 194.55 L 359.70 194.51 L 361.77 194.48 L 363.85 194.44 L 365.92 194.40 L 368.00 194.37 L 370.08 194.34 L 372.15 194.29 L 374.23 194.25 L 376.30 194.23 L 378.38 194.21 L 380.46 194.19 L 382.53 194.16 L 384.61 194.12 L 386.68 194.07 L 388.76 193.99 L 390.84 193.94 L 392.91 193.87 L 394.99 193.80 L 397.06 193.74 L 399.14 193.72 L 401.22 193.70 L 403.29 193.66 L 405.37 193.62 L 407.44 193.56 L 409.52 193.49 L 411.59 193.43 L 413.67 193.35 L 415.75 193.27 L 417.82 193.20 L 419.90 193.14 L 421.97 193.15 L 424.05 193.15 L 426.13 193.15 L 428.20 193.18 L 430.28 193.09 L 432.35 193.07 L 434.43 193.07 L 436.51 193.08 L 438.58 193.00 L 440.66 192.95 L 442.73 192.95 L 444.81 192.95 L 446.89 192.95 L 448.96 192.80 L 451.04 192.73 L 453.11 192.69 L 455.19 192.67 L 457.27 192.67 L 459.34 192.68 L 461.42 192.64 L 463.49 192.63 L 465.57 192.63 L 467.65 190.39 L 469.72 189.96 L 471.80 189.85 L 473.87 189.53 L 475.95 189.52 L 478.03 189.36 L 480.10 187.79 L 482.18 187.36 L 484.25 181.35 L 486.33 181.35 L 488.41 180.72 L 490.48 180.71 L 492.56 180.26 L 494.63 179.68 L 496.71 179.67 L 498.78 178.77 L 500.86 177.57 L 502.94 175.55 L 505.01 174.52 L 507.09 173.86 L 509.16 174.17 L 511.24 173.10 L 513.32 173.10 L 515.39 171.18 L 517.47 168.37 L 519.54 168.37 L 521.62 165.86 L 523.70 163.63 L 525.77 163.63 L 527.85 163.62 L 529.92 162.88 L 532.00 161.06 L 534.08 193.89 L 536.15 193.22 L 538.23 192.73 L 540.30 192.34 L 542.38 189.45 L 544.46 188.03 L 546.53 188.03 L 548.61 180.86 L 550.68 148.96 L 552.76 144.25 L 554.84 176.00 L 556.91 176.17 L 558.99 175.77 L 561.06 175.72 L 563.14 197.26 L 565.22 197.26 L 567.29 197.06 L 569.37 196.44 L 571.44 194.49 L 573.52 194.50 L 575.59 194.49 L 577.67 194.49 L 579.75 194.49 L 581.82 194.48 L 583.90 194.48 L 585.97 194.62 L 588.05 206.08 L 590.13 206.08 L 592.20 206.05 L 594.28 206.04 L 596.35 205.22 L 598.43 204.28 L 600.51 204.28 L 602.58 204.28 L 604.66 200.22 L 606.73 204.28 L 608.81 204.28 L 610.89 204.28 L 612.96 198.60 L 615.04 198.60 L 617.11 198.60 L 619.19 198.60 L 621.27 193.00 L 623.34 193.00 L 625.42 188.39 L 627.49 188.39 L 629.57 179.75 L 631.65 174.84 L 633.72 173.23 L 635.80 170.37 L 637.87 169.87 L 639.95 153.88 L 642.03 149.24 L 644.10 152.04 L 646.18 141.93 L 648.25 141.88 L 650.33 141.69 L 652.41 141.69 L 654.48 141.76 L 656.56 141.75 L 658.63 140.68 L 660.71 141.38 L 662.78 141.36 L 664.86 141.83 L 666.94 141.39 L 669.01 141.39 L 671.09 141.52 L 673.16 141.52 L 675.24 141.53 L 677.32 142.33 L 679.39 141.73 L 681.47 141.68 L 683.54 141.68 L 685.62 141.66 L 687.70 141.67 L 689.77 141.65 L 691.85 139.51 L 693.92 136.07 L 696.00 136.04 L 698.08 133.43 L 700.15 131.89 L 702.23 131.13 L 704.30 131.51 L 706.38 131.50 L 708.46 131.57 L 710.53 131.56 L 712.61 131.49 L 714.68 131.49 L 716.76 131.49 L 718.84 131.49 L 720.91 131.49 L 722.99 131.49 L 725.06 131.49 L 727.14 131.49 L 729.22 131.49 L 731.29 131.49 L 733.37 131.49 L 735.44 131.49 L 737.52 131.49 L 739.59 131.49 L 741.67 131.49 L 743.75 131.49 L 745.82 131.49 L 747.90 131.49 L 749.97 131.49 L 752.05 131.49 L 754.13 131.49 L 756.20 131.49 L 758.28 131.49 L 760.35 131.49 L 762.43 131.49 L 764.51 131.49 L 766.58 131.49 L 768.66 131.49 L 770.73 131.49 L 772.81 131.49 L 774.89 131.49 L 776.96 131.49 L 779.04 131.49 L 781.11 131.49 L 783.19 131.49 L 785.27 131.49 L 787.34 131.49 L 789.42 131.49 L 791.49 131.49 L 793.57 131.49 L 795.65 131.49 L 797.72 131.49 L 799.80 131.49 L 801.87 131.49 L 803.95 131.49 L 806.03 131.49 L 808.10 131.49 L 810.18 131.49 L 812.25 131.49 L 814.33 131.49 L 816.41 131.49 L 818.48 131.49 L 820.56 131.49 L 822.63 131.49 L 824.71 131.49 L 826.78 131.49 L 828.86 131.49 L 830.94 131.49 L 833.01 131.49 L 835.09 131.49 L 837.16 131.49 L 839.24 131.49 L 841.32 131.49 L 843.39 131.49 L 845.47 131.49 L 847.54 131.49 L 849.62 131.49 L 851.70 131.49 L 853.77 131.49 L 855.85 131.49 L 857.92 131.49 L 860.00 131.49" fill="none" stroke="#3fb950" stroke-width="2"/>
    <circle cx="860.00" cy="131.49" r="3" fill="#3fb950"/>
    <text x="40.00" y="235.00" font-size="9" fill="#c9d1d9" text-anchor="middle" transform="rotate(-45 40.00 235.00)">27.09.2025</text><text x="120.96" y="235.00" font-size="9" fill="#c9d1d9" text-anchor="middle" transform="rotate(-45 120.96 235.00)">28.09.2025</text><text x="201.92" y="235.00" font-size="9" fill="#c9d1d9" text-anchor="middle" transform="rotate(-45 201.92 235.00)">29.09.2025</text><text x="282.89" y="235.00" font-size="9" fill="#c9d1d9" text-anchor="middle" transform="rotate(-45 282.89 235.00)">04.10.2025</text><text x="363.85" y="235.00" font-size="9" fill="#c9d1d9" text-anchor="middle" transform="rotate(-45 363.85 235.00)">04.10.2025</text><text x="444.81" y="235.00" font-size="9" fill="#c9d1d9" text-anchor="middle" transform="rotate(-45 444.81 235.00)">04.10.2025</text><text x="525.77" y="235.00" font-size="9" fill="#c9d1d9" text-anchor="middle" transform="rotate(-45 525.77 235.00)">04.10.2025</text><text x="606.73" y="235.00" font-size="9" fill="#c9d1d9" text-anchor="middle" transform="rotate(-45 606.73 235.00)">07.10.2025</text><text x="687.70" y="235.00" font-size="9" fill="#c9d1d9" text-anchor="middle" transform="rotate(-45 687.70 235.00)">09.10.2025</text><text x="768.66" y="235.00" font-size="9" fill="#c9d1d9" text-anchor="middle" transform="rotate(-45 768.66 235.00)">05.11.2025</text><text x="849.62" y="235.00" font-size="9" fill="#c9d1d9" text-anchor="middle" transform="rotate(-45 849.62 235.00)">14.12.2025</text>
  </g>
</svg>