<svg xmlns="http://www.w3.org/2000/svg" width="900" height="290" style="font-family: -apple-system, BlinkMacSystemFont, 'Segoe UI', Helvetica, Arial, sans-serif;">
  <rect width="100%" height="100%" fill="#0d1117"/>
  <g>
    <line x1="40" y1="220.00" x2="860" y2="220.00" stroke="#30363d"/><text x="32" y="224.00" font-size="10" fill="#c9d1d9" text-anchor="end">0</text><line x1="40" y1="175.00" x2="860" y2="175.00" stroke="#30363d"/><text x="32" y="179.00" font-size="10" fill="#c9d1d9" text-anchor="end">25k</text><line x1="40" y1="130.00" x2="860" y2="130.00" stroke="#30363d"/><text x="32" y="134.00" font-size="10" fill="#c9d1d9" text-anchor="end">50k</text><line x1="40" y1="85.00" x2="860" y2="85.00" stroke="#30363d"/><text x="32" y="89.00" font-size="10" fill="#c9d1d9" text-anchor="end">75k</text><line x1="40" y1="40.00" x2="860" y2="40.00" stroke="#30363d"/><text x="32" y="44.00" font-size="10" fill="#c9d1d9" text-anchor="end">100k</text>
    <line x1="40.00" y1="40" x2="40.00" y2="220" stroke="#30363d" opacity="0.5"/><line x1="121.51" y1="40" x2="121.51" y2="220" stroke="#30363d" opacity="0.5"/><line x1="203.01" y1="40" x2="203.01" y2="220" stroke="#30363d" opacity="0.5"/><line x1="284.52" y1="40" x2="284.52" y2="220" stroke="#30363d" opacity="0.5"/><line x1="366.02" y1="40" x2="366.02" y2="220" stroke="#30363d" opacity="0.5"/><line x1="447.53" y1="40" x2="447.53" y2="220" stroke="#30363d" opacity="0.5"/><line x1="529.04" y1="40" x2="529.04" y2="220" stroke="#30363d" opacity="0.5"/><line x1="610.54" y1="40" x2="610.54" y2="220" stroke="#30363d" opacity="0.5"/><line x1="692.05" y1="40" x2="692.05" y2="220" stroke="#30363d" opacity="0.5"/><line x1="773.55" y1="40" x2="773.55" y2="220" stroke="#30363d" opacity="0.5"/><line x1="855.06" y1="40" x2="855.06" y2="220" stroke="#30363d" opacity="0.5"/>
    <line x1="40" y1="220" x2="860" y2="220" stroke="#30363d"/>
    <line x1="40" y1="40"   x2="40"   y2="220" stroke="#30363d"/>
    <path d="M 40.00 220.00 L 42.47 220.00 L 44.94 219.60 L 47.41 219.62 L 49.88 219.63 L 52.35 219.32 L 54.82 219.31 L 57.29 219.26 L 59.76 218.89 L 62.23 218.89 L 64.70 218.89 L 67.17 218.87 L 69.64 218.87 L 72.11 218.86 L 74.58 218.85 L 77.05 218.85 L 79.52 218.82 L 81.99 218.78 L 84.46 218.72 L 86.93 218.68 L 89.40 218.64 L 91.87 218.59 L 94.34 218.59 L 96.81 218.57 L 99.28 218.57 L 101.75 218.57 L 104.22 218.57 L 106.69 218.57 L 109.16 218.57 L 111.63 218.57 L 114.10 218.57 L 116.57 218.57 L 119.04 218.55 L 121.51 218.54 L 123.98 218.58 L 126.45 218.55 L 128.92 218.55 L 131.39 218.53 L 133.86 218.31 L 136.33 217.94 L 138.80 217.88 L 141.27 217.87 L 143.73 217.86 L 146.20 217.85 L 148.67 217.84 L 151.14 217.85 L 153.61 217.82 L 156.08 217.66 L 158.55 217.61 L 161.02 217.60 L 163.49 217.57 L 165.96 217.56 L 168.43 217.52 L 170.90 217.38 L 173.37 217.24 L 175.84 216.93 L 178.31 216.65 L 180.78 216.44 L 183.25 216.39 L 185.72 216.34 L 188.19 216.83 L 190.66 200.94 L 193.13 200.94 L 195.60 200.95 L 198.07 198.99 L 200.54 198.98 L 203.01 198.94 L 205.48 198.94 L 207.95 198.91 L 210.42 198.90 L 212.89 198.93 L 215.36 198.93 L 217.83 198.99 L 220.30 198.95 L 222.77 198.96 L 225.24 198.95 L 227.71 198.95 L 230.18 198.97 L 232.65 198.97 L 235.12 198.97 L 237.59 198.97 L 240.06 198.97 L 242.53 198.97 L 245.00 198.97 L 247.47 198.97 L 249.94 198.97 L 252.41 198.97 L 254.88 198.97 L 257.35 197.51 L 259.82 197.43 L 262.29 197.40 L 264.76 197.38 L 267.23 197.38 L 269.70 197.49 L 272.17 197.34 L 274.64 197.33 L 277.11 197.18 L 279.58 197.41 L 282.05 197.41 L 284.52 197.29 L 286.99 197.29 L 289.46 197.22 L 291.93 197.21 L 294.40 197.15 L 296.87 196.94 L 299.34 197.00 L 301.81 197.41 L 304.28 197.41 L 306.75 197.30 L 309.22 197.26 L 311.69 197.19 L 314.16 197.19 L 316.63 197.19 L 319.10 197.19 L 321.57 197.18 L 324.04 197.12 L 326.51 197.09 L 328.98 197.04 L 331.45 197.00 L 333.92 196.96 L 336.39 196.92 L 338.86 196.91 L 341.33 196.86 L 343.80 196.80 L 346.27 196.75 L 348.73 196.69 L 351.20 196.66 L 353.67 196.63 L 356.14 196.56 L 358.61 196.51 L 361.08 196.47 L 363.55 196.45 L 366.02 196.40 L 368.49 196.37 L 370.96 196.34 L 373.43 196.28 L 375.90 196.20 L 378.37 196.12 L 380.84 196.02 L 383.31 195.89 L 385.78 195.77 L 388.25 195.68 L 390.72 195.63 L 393.19 195.58 L 395.66 195.53 L 398.13 195.44 L 400.60 195.35 L 403.07 195.22 L 405.54 195.11 L 408.01 194.95 L 410.48 194.82 L 412.95 194.68 L 415.42 194.57 L 417.89 194.55 L 420.36 194.51 L 422.83 194.48 L 425.30 194.44 L 427.77 194.40 L 430.24 194.37 L 432.71 194.34 L 435.18 194.29 L 437.65 194.25 L 440.12 194.23 L 442.59 194.21 L 445.06 194.19 L 447.53 194.16 L 450.00 194.12 L 452.47 194.07 L 454.94 193.99 L 457.41 193.94 L 459.88 193.87 L 462.35 193.80 L 464.82 193.74 L 467.29 193.72 L 469.76 193.70 L 472.23 193.66 L 474.70 193.62 L 477.17 193.56 L 479.64 193.49 L 482.11 193.43 L 484.58 193.35 L 487.05 193.27 L 489.52 193.20 L 491.99 193.14 L 494.46 193.15 L 496.93 193.15 L 499.40 193.15 L 501.87 193.18 L 504.34 193.09 L 506.81 193.07 L 509.28 193.07 L 511.75 193.08 L 514.22 193.00 L 516.69 192.95 L 519.16 192.95 L 521.63 192.95 L 524.10 192.95 L 526.57 192.80 L 529.04 192.73 L 531.51 192.69 L 533.98 192.67 L 536.45 192.67 L 538.92 192.68 L 541.39 192.64 L 543.86 192.63 L 546.33 192.63 L 548.80 190.39 L 551.27 189.96 L 553.73 189.85 L 556.20 189.53 L 558.67 189.52 L 561.14 189.36 L 563.61 187.79 L 566.08 187.36 L 568.55 181.35 L 571.02 181.35 L 573.49 180.72 L 575.96 180.71 L 578.43 180.26 L 580.90 179.68 L 583.37 179.67 L 585.84 178.77 L 588.31 177.57 L 590.78 175.55 L 593.25 174.52 L 595.72 173.86 L 598.19 174.17 L 600.66 173.10 L 603.13 173.10 L 605.60 171.18 L 608.07 168.37 L 610.54 168.37 L 613.01 165.86 L 615.48 163.63 L 617.95 163.63 L 620.42 163.62 L 622.89 162.88 L 625.36 161.06 L 627.83 193.89 L 630.30 193.22 L 632.77 192.73 L 635.24 192.34 L 637.71 189.45 L 640.18 188.03 L 642.65 188.03 L 645.12 180.86 L 647.59 148.96 L 650.06 144.25 L 652.53 176.00 L 655.00 176.17 L 657.47 175.77 L 659.94 175.72 L 662.41 197.26 L 664.88 197.26 L 667.35 197.06 L 669.82 196.44 L 672.29 194.49 L 674.76 194.50 L 677.23 194.49 L 679.70 194.49 L 682.17 194.49 L 684.64 194.48 L 687.11 194.48 L 689.58 194.62 L 692.05 206.08 L 694.52 206.08 L 696.99 206.05 L 699.46 206.04 L 701.93 205.22 L 704.40 204.28 L 706.87 204.28 L 709.34 204.28 L 711.81 200.22 L 714.28 204.28 L 716.75 204.28 L 719.22 204.28 L 721.69 198.60 L 724.16 198.60 L 726.63 198.60 L 729.10 198.60 L 731.57 193.00 L 734.04 193.00 L 736.51 188.39 L 738.98 188.39 L 741.45 179.75 L 743.92 174.84 L 746.39 173.23 L 748.86 170.37 L 751.33 169.87 L 753.80 153.88 L 756.27 149.24 L 758.73 152.04 L 761.20 141.93 L 763.67 141.88 L 766.14 141.69 L 768.61 141.69 L 771.08 141.76 L 773.55 141.75 L 776.02 140.68 L 778.49 141.38 L 780.96 141.36 L 783.43 141.83 L 785.90 141.39 L 788.37 141.39 L 790.84 141.52 L 793.31 141.52 L 795.78 141.53 L 798.25 142.33 L 800.72 141.73 L 803.19 141.68 L 805.66 141.68 L 808.13 141.66 L 810.60 141.67 L 813.07 141.65 L 815.54 139.51 L 818.01 136.07 L 820.48 136.04 L 822.95 133.43 L 825.42 131.89 L 827.89 131.13 L 830.36 131.51 L 832.83 131.50 L 835.30 131.57 L 837.77 131.56 L 840.24 131.49 L 842.71 131.49 L 845.18 131.49 L 847.65 131.49 L 850.12 131.49 L 852.59 131.49 L 855.06 131.49 L 857.53 131.49 L 860.00 131.49" fill="none" stroke="#3fb950" stroke-width="2"/>
    <circle cx="860.00" cy="131.49" r="3" fill="#3fb950"/>
    <text x="40.00" y="235.00" font-size="9" fill="#c9d1d9" text-anchor="middle" transform="rotate(-45 40.00 235.00)">27.09.2025</text><text x="121.51" y="235.00" font-size="9" fill="#c9d1d9" text-anchor="middle" transform="rotate(-45 121.51 235.00)">28.09.2025</text><text x="203.01" y="235.00" font-size="9" fill="#c9d1d9" text-anchor="middle" transform="rotate(-45 203.01 235.00)">28.09.2025</text><text x="284.52" y="235.00" font-size="9" fill="#c9d1d9" text-anchor="middle" transform="rotate(-45 284.52 235.00)">30.09.2025</text><text x="366.02" y="235.00" font-size="9" fill="#c9d1d9" text-anchor="middle" transform="rotate(-45 366.02 235.00)">04.10.2025</text><text x="447.53" y="235.00" font-size="9" fill="#c9d1d9" text-anchor="middle" transform="rotate(-45 447.53 235.00)">04.10.2025</text><text x="529.04" y="235.00" font-size="9" fill="#c9d1d9" text-anchor="middle" transform="rotate(-45 529.04 235.00)">04.10.2025</text><text x="610.54" y="235.00" font-size="9" fill="#c9d1d9" text-anchor="middle" transform="rotate(-45 610.54 235.00)">04.10.2025</text><text x="692.05" y="235.00" font-size="9" fill="#c9d1d9" text-anchor="middle" transform="rotate(-45 692.05 235.00)">05.10.2025</text><text x="773.55" y="235.00" font-size="9" fill="#c9d1d9" text-anchor="middle" transform="rotate(-45 773.55 235.00)">08.10.2025</text><text x="855.06" y="235.00" font-size="9" fill="#c9d1d9" text-anchor="middle" transform="rotate(-45 855.06 235.00)">15.10.2025</text>
  </g>
</svg>