<svg xmlns="http://www.w3.org/2000/svg" width="900" height="290" style="font-family: -apple-system, BlinkMacSystemFont, 'Segoe UI', Helvetica, Arial, sans-serif;">
  <rect width="100%" height="100%" fill="white"/>
  <g>
    <line x1="40" y1="220.00" x2="860" y2="220.00" stroke="#e5e7eb"/><text x="32" y="224.00" font-size="10" fill="#111827" text-anchor="end">0</text><line x1="40" y1="175.00" x2="860" y2="175.00" stroke="#e5e7eb"/><text x="32" y="179.00" font-size="10" fill="#111827" text-anchor="end">25k</text><line x1="40" y1="130.00" x2="860" y2="130.00" stroke="#e5e7eb"/><text x="32" y="134.00" font-size="10" fill="#111827" text-anchor="end">50k</text><line x1="40" y1="85.00" x2="860" y2="85.00" stroke="#e5e7eb"/><text x="32" y="89.00" font-size="10" fill="#111827" text-anchor="end">75k</text><line x1="40" y1="40.00" x2="860" y2="40.00" stroke="#e5e7eb"/><text x="32" y="44.00" font-size="10" fill="#111827" text-anchor="end">100k</text>
    <line x1="40.00" y1="40" x2="40.00" y2="220" stroke="#e5e7eb" opacity="0.5"/><line x1="122.00" y1="40" x2="122.00" y2="220" stroke="#e5e7eb" opacity="0.5"/><line x1="204.00" y1="40" x2="204.00" y2="220" stroke="#e5e7eb" opacity="0.5"/><line x1="286.00" y1="40" x2="286.00" y2="220" stroke="#e5e7eb" opacity="0.5"/><line x1="368.00" y1="40" x2="368.00" y2="220" stroke="#e5e7eb" opacity="0.5"/><line x1="450.00" y1="40" x2="450.00" y2="220" stroke="#e5e7eb" opacity="0.5"/><line x1="532.00" y1="40" x2="532.00" y2="220" stroke="#e5e7eb" opacity="0.5"/><line x1="614.00" y1="40" x2="614.00" y2="220" stroke="#e5e7eb" opacity="0.5"/><line x1="696.00" y1="40" x2="696.00" y2="220" stroke="#e5e7eb" opacity="0.5"/><line x1="778.00" y1="40" x2="778.00" y2="220" stroke="#e5e7eb" opacity="0.5"/><line x1="860.00" y1="40" x2="860.00" y2="220" stroke="#e5e7eb" opacity="0.5"/>
    <line x1="40" y1="220" x2="860" y2="220" stroke="#9ca3af"/>
    <line x1="40" y1="40"   x2="40"   y2="220" stroke="#9ca3af"/>
    <path d="M 40.00 220.00 L 42.10 220.00 L 44.21 219.60 L 46.31 219.62 L 48.41 219.63 L 50.51 219.32 L 52.62 219.31 L 54.72 219.26 L 56.82 218.89 L 58.92 218.89 L 61.03 218.89 L 63.13 218.87 L 65.23 218.87 L 67.33 218.86 L 69.44 218.85 L 71.54 218.85 L 73.64 218.82 L 75.74 218.78 L 77.85 218.72 L 79.95 218.68 L 82.05 218.64 L 84.15 218.59 L 86.26 218.59 L 88.36 218.57 L 90.46 218.57 L 92.56 218.57 L 94.67 218.57 L 96.77 218.57 L 98.87 218.57 L 100.97 218.57 L 103.08 218.57 L 105.18 218.57 L 107.28 218.55 L 109.38 218.54 L 111.49 218.58 L 113.59 218.55 L 115.69 218.55 L 117.79 218.53 L 119.90 218.31 L 122.00 217.94 L 124.10 217.88 L 126.21 217.87 L 128.31 217.86 L 130.41 217.85 L 132.51 217.84 L 134.62 217.85 L 136.72 217.82 L 138.82 217.66 L 140.92 217.61 L 143.03 217.60 L 145.13 217.57 L 147.23 217.56 L 149.33 217.52 L 151.44 217.38 L 153.54 217.24 L 155.64 216.93 L 157.74 216.65 L 159.85 216.44 L 161.95 216.39 L 164.05 216.34 L 166.15 216.83 L 168.26 200.94 L 170.36 200.94 L 172.46 200.95 L 174.56 198.99 L 176.67 198.98 L 178.77 198.94 L 180.87 198.94 L 182.97 198.91 L 185.08 198.90 L 187.18 198.93 L 189.28 198.93 L 191.38 198.99 L 193.49 198.95 L 195.59 198.96 L 197.69 198.95 L 199.79 198.95 L 201.90 198.97 L 204.00 198.97 L 206.10 198.97 L 208.21 198.97 L 210.31 198.97 L 212.41 198.97 L 214.51 198.97 L 216.62 198.97 L 218.72 198.97 L 220.82 198.97 L 222.92 198.97 L 225.03 197.51 L 227.13 197.43 L 229.23 197.40 L 231.33 197.38 L 233.44 197.38 L 235.54 197.49 L 237.64 197.34 L 239.74 197.33 L 241.85 197.18 L 243.95 197.41 L 246.05 197.41 L 248.15 197.29 L 250.26 197.29 L 252.36 197.22 L 254.46 197.21 L 256.56 197.15 L 258.67 196.94 L 260.77 197.00 L 262.87 197.41 L 264.97 197.41 L 267.08 197.30 L 269.18 197.26 L 271.28 197.19 L 273.38 197.19 L 275.49 197.19 L 277.59 197.19 L 279.69 197.18 L 281.79 197.12 L 283.90 197.09 L 286.00 197.04 L 288.10 197.00 L 290.21 196.96 L 292.31 196.92 L 294.41 196.91 L 296.51 196.86 L 298.62 196.80 L 300.72 196.75 L 302.82 196.69 L 304.92 196.66 L 307.03 196.63 L 309.13 196.56 L 311.23 196.51 L 313.33 196.47 L 315.44 196.45 L 317.54 196.40 L 319.64 196.37 L 321.74 196.34 L 323.85 196.28 L 325.95 196.20 L 328.05 196.12 L 330.15 196.02 L 332.26 195.89 L 334.36 195.77 L 336.46 195.68 L 338.56 195.63 L 340.67 195.58 L 342.77 195.53 L 344.87 195.44 L 346.97 195.35 L 349.08 195.22 L 351.18 195.11 L 353.28 194.95 L 355.38 194.82 L 357.49 194.68 L 359.59 194.57 L 361.69 194.55 L 363.79 194.51 L 365.90 194.48 L 368.00 194.44 L 370.10 194.40 L 372.21 194.37 L 374.31 194.34 L 376.41 194.29 L 378.51 194.25 L 380.62 194.23 L 382.72 194.21 L 384.82 194.19 L 386.92 194.16 L 389.03 194.12 L 391.13 194.07 L 393.23 193.99 L 395.33 193.94 L 397.44 193.87 L 399.54 193.80 L 401.64 193.74 L 403.74 193.72 L 405.85 193.70 L 407.95 193.66 L 410.05 193.62 L 412.15 193.56 L 414.26 193.49 L 416.36 193.43 L 418.46 193.35 L 420.56 193.27 L 422.67 193.20 L 424.77 193.14 L 426.87 193.15 L 428.97 193.15 L 431.08 193.15 L 433.18 193.18 L 435.28 193.09 L 437.38 193.07 L 439.49 193.07 L 441.59 193.08 L 443.69 193.00 L 445.79 192.95 L 447.90 192.95 L 450.00 192.95 L 452.10 192.95 L 454.21 192.80 L 456.31 192.73 L 458.41 192.69 L 460.51 192.67 L 462.62 192.67 L 464.72 192.68 L 466.82 192.64 L 468.92 192.63 L 471.03 192.63 L 473.13 190.39 L 475.23 189.96 L 477.33 189.85 L 479.44 189.53 L 481.54 189.52 L 483.64 189.36 L 485.74 187.79 L 487.85 187.36 L 489.95 181.35 L 492.05 181.35 L 494.15 180.72 L 496.26 180.71 L 498.36 180.26 L 500.46 179.68 L 502.56 179.67 L 504.67 178.77 L 506.77 177.57 L 508.87 175.55 L 510.97 174.52 L 513.08 173.86 L 515.18 174.17 L 517.28 173.10 L 519.38 173.10 L 521.49 171.18 L 523.59 168.37 L 525.69 168.37 L 527.79 165.86 L 529.90 163.63 L 532.00 163.63 L 534.10 163.62 L 536.21 162.88 L 538.31 161.06 L 540.41 193.89 L 542.51 193.22 L 544.62 192.73 L 546.72 192.34 L 548.82 189.45 L 550.92 188.03 L 553.03 188.03 L 555.13 180.86 L 557.23 148.96 L 559.33 144.25 L 561.44 176.00 L 563.54 176.17 L 565.64 175.77 L 567.74 175.72 L 569.85 197.26 L 571.95 197.26 L 574.05 197.06 L 576.15 196.44 L 578.26 194.49 L 580.36 194.50 L 582.46 194.49 L 584.56 194.49 L 586.67 194.49 L 588.77 194.48 L 590.87 194.48 L 592.97 194.62 L 595.08 206.08 L 597.18 206.08 L 599.28 206.05 L 601.38 206.04 L 603.49 205.22 L 605.59 204.28 L 607.69 204.28 L 609.79 204.28 L 611.90 200.22 L 614.00 204.28 L 616.10 204.28 L 618.21 204.28 L 620.31 198.60 L 622.41 198.60 L 624.51 198.60 L 626.62 198.60 L 628.72 193.00 L 630.82 193.00 L 632.92 188.39 L 635.03 188.39 L 637.13 179.75 L 639.23 174.84 L 641.33 173.23 L 643.44 170.37 L 645.54 169.87 L 647.64 153.88 L 649.74 149.24 L 651.85 152.04 L 653.95 141.93 L 656.05 141.88 L 658.15 141.69 L 660.26 141.69 L 662.36 141.76 L 664.46 141.75 L 666.56 140.68 L 668.67 141.38 L 670.77 141.36 L 672.87 141.83 L 674.97 141.39 L 677.08 141.39 L 679.18 141.52 L 681.28 141.52 L 683.38 141.53 L 685.49 142.33 L 687.59 141.73 L 689.69 141.68 L 691.79 141.68 L 693.90 141.66 L 696.00 141.67 L 698.10 141.65 L 700.21 139.51 L 702.31 136.07 L 704.41 136.04 L 706.51 133.43 L 708.62 131.89 L 710.72 131.13 L 712.82 131.51 L 714.92 131.50 L 717.03 131.57 L 719.13 131.56 L 721.23 131.49 L 723.33 131.49 L 725.44 131.49 L 727.54 131.49 L 729.64 131.49 L 731.74 131.49 L 733.85 131.49 L 735.95 131.49 L 738.05 131.49 L 740.15 131.49 L 742.26 131.49 L 744.36 131.49 L 746.46 131.49 L 748.56 131.49 L 750.67 131.49 L 752.77 131.49 L 754.87 131.49 L 756.97 131.49 L 759.08 131.49 L 761.18 131.49 L 763.28 131.49 L 765.38 131.49 L 767.49 131.49 L 769.59 131.49 L 771.69 131.49 L 773.79 131.49 L 775.90 131.49 L 778.00 131.49 L 780.10 131.49 L 782.21 131.49 L 784.31 131.49 L 786.41 131.49 L 788.51 131.49 L 790.62 131.49 L 792.72 131.49 L 794.82 131.49 L 796.92 131.49 L 799.03 131.49 L 801.13 131.49 L 803.23 131.49 L 805.33 131.49 L 807.44 131.49 L 809.54 131.49 L 811.64 131.49 L 813.74 131.49 L 815.85 131.49 L 817.95 131.49 L 820.05 131.49 L 822.15 131.49 L 824.26 131.49 L 826.36 131.49 L 828.46 131.49 L 830.56 131.49 L 832.67 131.49 L 834.77 131.49 L 836.87 131.49 L 838.97 131.49 L 841.08 131.49 L 843.18 131.49 L 845.28 131.49 L 847.38 131.49 L 849.49 131.49 L 851.59 131.49 L 853.69 131.49 L 855.79 131.49 L 857.90 131.49 L 860.00 131.49" fill="none" stroke="#111827" stroke-width="2"/>
    <circle cx="860.00" cy="131.49" r="3" fill="#111827"/>
    <text x="40.00" y="235.00" font-size="9" fill="#111827" text-anchor="middle" transform="rotate(-45 40.00 235.00)">27.09.2025</text><text x="122.00" y="235.00" font-size="9" fill="#111827" text-anchor="middle" transform="rotate(-45 122.00 235.00)">28.09.2025</text><text x="204.00" y="235.00" font-size="9" fill="#111827" text-anchor="middle" transform="rotate(-45 204.00 235.00)">29.09.2025</text><text x="286.00" y="235.00" font-size="9" fill="#111827" text-anchor="middle" transform="rotate(-45 286.00 235.00)">04.10.2025</text><text x="368.00" y="235.00" font-size="9" fill="#111827" text-anchor="middle" transform="rotate(-45 368.00 235.00)">04.10.2025</text><text x="450.00" y="235.00" font-size="9" fill="#111827" text-anchor="middle" transform="rotate(-45 450.00 235.00)">04.10.2025</text><text x="532.00" y="235.00" font-size="9" fill="#111827" text-anchor="middle" transform="rotate(-45 532.00 235.00)">04.10.2025</text><text x="614.00" y="235.00" font-size="9" fill="#111827" text-anchor="middle" transform="rotate(-45 614.00 235.00)">07.10.2025</text><text x="696.00" y="235.00" font-size="9" fill="#111827" text-anchor="middle" transform="rotate(-45 696.00 235.00)">09.10.2025</text><text x="778.00" y="235.00" font-size="9" fill="#111827" text-anchor="middle" transform="rotate(-45 778.00 235.00)">05.11.2025</text><text x="860.00" y="235.00" font-size="9" fill="#111827" text-anchor="middle" transform="rotate(-45 860.00 235.00)">14.12.2025</text>
  </g>
</svg>