<svg xmlns="http://www.w3.org/2000/svg" width="900" height="290" style="font-family: -apple-system, BlinkMacSystemFont, 'Segoe UI', Helvetica, Arial, sans-serif;">
  <rect width="100%" height="100%" fill="white"/>
  <g>
    <line x1="40" y1="220.00" x2="860" y2="220.00" stroke="#e5e7eb"/><text x="32" y="224.00" font-size="10" fill="#111827" text-anchor="end">0</text><line x1="40" y1="175.00" x2="860" y2="175.00" stroke="#e5e7eb"/><text x="32" y="179.00" font-size="10" fill="#111827" text-anchor="end">25k</text><line x1="40" y1="130.00" x2="860" y2="130.00" stroke="#e5e7eb"/><text x="32" y="134.00" font-size="10" fill="#111827" text-anchor="end">50k</text><line x1="40" y1="85.00" x2="860" y2="85.00" stroke="#e5e7eb"/><text x="32" y="89.00" font-size="10" fill="#111827" text-anchor="end">75k</text><line x1="40" y1="40.00" x2="860" y2="40.00" stroke="#e5e7eb"/><text x="32" y="44.00" font-size="10" fill="#111827" text-anchor="end">100k</text>
    <line x1="40.00" y1="40" x2="40.00" y2="220" stroke="#e5e7eb" opacity="0.5"/><line x1="120.24" y1="40" x2="120.24" y2="220" stroke="#e5e7eb" opacity="0.5"/><line x1="200.49" y1="40" x2="200.49" y2="220" stroke="#e5e7eb" opacity="0.5"/><line x1="280.73" y1="40" x2="280.73" y2="220" stroke="#e5e7eb" opacity="0.5"/><line x1="360.98" y1="40" x2="360.98" y2="220" stroke="#e5e7eb" opacity="0.5"/><line x1="441.22" y1="40" x2="441.22" y2="220" stroke="#e5e7eb" opacity="0.5"/><line x1="521.47" y1="40" x2="521.47" y2="220" stroke="#e5e7eb" opacity="0.5"/><line x1="601.71" y1="40" x2="601.71" y2="220" stroke="#e5e7eb" opacity="0.5"/><line x1="681.96" y1="40" x2="681.96" y2="220" stroke="#e5e7eb" opacity="0.5"/><line x1="762.20" y1="40" x2="762.20" y2="220" stroke="#e5e7eb" opacity="0.5"/><line x1="842.45" y1="40" x2="842.45" y2="220" stroke="#e5e7eb" opacity="0.5"/>
    <line x1="40" y1="220" x2="860" y2="220" stroke="#9ca3af"/>
    <line x1="40" y1="40"   x2="40"   y2="220" stroke="#9ca3af"/>
    <path d="M 40.00 220.00 L 42.51 220.00 L 45.02 219.60 L 47.52 219.62 L 50.03 219.63 L 52.54 219.32 L 55.05 219.31 L 57.55 219.26 L 60.06 218.89 L 62.57 218.89 L 65.08 218.89 L 67.58 218.87 L 70.09 218.87 L 72.60 218.86 L 75.11 218.85 L 77.61 218.85 L 80.12 218.82 L 82.63 218.78 L 85.14 218.72 L 87.65 218.68 L 90.15 218.64 L 92.66 218.59 L 95.17 218.59 L 97.68 218.57 L 100.18 218.57 L 102.69 218.57 L 105.20 218.57 L 107.71 218.57 L 110.21 218.57 L 112.72 218.57 L 115.23 218.57 L 117.74 218.57 L 120.24 218.55 L 122.75 218.54 L 125.26 218.58 L 127.77 218.55 L 130.28 218.55 L 132.78 218.53 L 135.29 218.31 L 137.80 217.94 L 140.31 217.88 L 142.81 217.87 L 145.32 217.86 L 147.83 217.85 L 150.34 217.84 L 152.84 217.85 L 155.35 217.82 L 157.86 217.66 L 160.37 217.61 L 162.87 217.60 L 165.38 217.57 L 167.89 217.56 L 170.40 217.52 L 172.91 217.38 L 175.41 217.24 L 177.92 216.93 L 180.43 216.65 L 182.94 216.44 L 185.44 216.39 L 187.95 216.34 L 190.46 216.83 L 192.97 200.94 L 195.47 200.94 L 197.98 200.95 L 200.49 198.99 L 203.00 198.98 L 205.50 198.94 L 208.01 198.94 L 210.52 198.91 L 213.03 198.90 L 215.54 198.93 L 218.04 198.93 L 220.55 198.99 L 223.06 198.95 L 225.57 198.96 L 228.07 198.95 L 230.58 198.95 L 233.09 198.97 L 235.60 198.97 L 238.10 198.97 L 240.61 198.97 L 243.12 198.97 L 245.63 198.97 L 248.13 198.97 L 250.64 198.97 L 253.15 198.97 L 255.66 198.97 L 258.17 198.97 L 260.67 197.51 L 263.18 197.43 L 265.69 197.40 L 268.20 197.38 L 270.70 197.38 L 273.21 197.49 L 275.72 197.34 L 278.23 197.33 L 280.73 197.18 L 283.24 197.41 L 285.75 197.41 L 288.26 197.29 L 290.76 197.29 L 293.27 197.22 L 295.78 197.21 L 298.29 197.15 L 300.80 196.94 L 303.30 197.00 L 305.81 197.41 L 308.32 197.41 L 310.83 197.30 L 313.33 197.26 L 315.84 197.19 L 318.35 197.19 L 320.86 197.19 L 323.36 197.19 L 325.87 197.18 L 328.38 197.12 L 330.89 197.09 L 333.39 197.04 L 335.90 197.00 L 338.41 196.96 L 340.92 196.92 L 343.43 196.91 L 345.93 196.86 L 348.44 196.80 L 350.95 196.75 L 353.46 196.69 L 355.96 196.66 L 358.47 196.63 L 360.98 196.56 L 363.49 196.51 L 365.99 196.47 L 368.50 196.45 L 371.01 196.40 L 373.52 196.37 L 376.02 196.34 L 378.53 196.28 L 381.04 196.20 L 383.55 196.12 L 386.06 196.02 L 388.56 195.89 L 391.07 195.77 L 393.58 195.68 L 396.09 195.63 L 398.59 195.58 L 401.10 195.53 L 403.61 195.44 L 406.12 195.35 L 408.62 195.22 L 411.13 195.11 L 413.64 194.95 L 416.15 194.82 L 418.65 194.68 L 421.16 194.57 L 423.67 194.55 L 426.18 194.51 L 428.69 194.48 L 431.19 194.44 L 433.70 194.40 L 436.21 194.37 L 438.72 194.34 L 441.22 194.29 L 443.73 194.25 L 446.24 194.23 L 448.75 194.21 L 451.25 194.19 L 453.76 194.16 L 456.27 194.12 L 458.78 194.07 L 461.28 193.99 L 463.79 193.94 L 466.30 193.87 L 468.81 193.80 L 471.31 193.74 L 473.82 193.72 L 476.33 193.70 L 478.84 193.66 L 481.35 193.62 L 483.85 193.56 L 486.36 193.49 L 488.87 193.43 L 491.38 193.35 L 493.88 193.27 L 496.39 193.20 L 498.90 193.14 L 501.41 193.15 L 503.91 193.15 L 506.42 193.15 L 508.93 193.18 L 511.44 193.09 L 513.94 193.07 L 516.45 193.07 L 518.96 193.08 L 521.47 193.00 L 523.98 192.95 L 526.48 192.95 L 528.99 192.95 L 531.50 192.95 L 534.01 192.80 L 536.51 192.73 L 539.02 192.69 L 541.53 192.67 L 544.04 192.67 L 546.54 192.68 L 549.05 192.64 L 551.56 192.63 L 554.07 192.63 L 556.57 190.39 L 559.08 189.96 L 561.59 189.85 L 564.10 189.53 L 566.61 189.52 L 569.11 189.36 L 571.62 187.79 L 574.13 187.36 L 576.64 181.35 L 579.14 181.35 L 581.65 180.72 L 584.16 180.71 L 586.67 180.26 L 589.17 179.68 L 591.68 179.67 L 594.19 178.77 L 596.70 177.57 L 599.20 175.55 L 601.71 174.52 L 604.22 173.86 L 606.73 174.17 L 609.24 173.10 L 611.74 173.10 L 614.25 171.18 L 616.76 168.37 L 619.27 168.37 L 621.77 165.86 L 624.28 163.63 L 626.79 163.63 L 629.30 163.62 L 631.80 162.88 L 634.31 161.06 L 636.82 193.89 L 639.33 193.22 L 641.83 192.73 L 644.34 192.34 L 646.85 189.45 L 649.36 188.03 L 651.87 188.03 L 654.37 180.86 L 656.88 148.96 L 659.39 144.25 L 661.90 176.00 L 664.40 176.17 L 666.91 175.77 L 669.42 175.72 L 671.93 197.26 L 674.43 197.26 L 676.94 197.06 L 679.45 196.44 L 681.96 194.49 L 684.46 194.50 L 686.97 194.49 L 689.48 194.49 L 691.99 194.49 L 694.50 194.48 L 697.00 194.48 L 699.51 194.62 L 702.02 206.08 L 704.53 206.08 L 707.03 206.05 L 709.54 206.04 L 712.05 205.22 L 714.56 204.28 L 717.06 204.28 L 719.57 204.28 L 722.08 200.22 L 724.59 204.28 L 727.09 204.28 L 729.60 204.28 L 732.11 198.60 L 734.62 198.60 L 737.13 198.60 L 739.63 198.60 L 742.14 193.00 L 744.65 193.00 L 747.16 188.39 L 749.66 188.39 L 752.17 179.75 L 754.68 174.84 L 757.19 173.23 L 759.69 170.37 L 762.20 169.87 L 764.71 153.88 L 767.22 149.24 L 769.72 152.04 L 772.23 141.93 L 774.74 141.88 L 777.25 141.69 L 779.76 141.69 L 782.26 141.76 L 784.77 141.75 L 787.28 140.68 L 789.79 141.38 L 792.29 141.36 L 794.80 141.83 L 797.31 141.39 L 799.82 141.39 L 802.32 141.52 L 804.83 141.52 L 807.34 141.53 L 809.85 142.33 L 812.35 141.73 L 814.86 141.68 L 817.37 141.68 L 819.88 141.66 L 822.39 141.67 L 824.89 141.65 L 827.40 139.51 L 829.91 136.07 L 832.42 136.04 L 834.92 133.43 L 837.43 131.89 L 839.94 131.13 L 842.45 131.51 L 844.95 131.50 L 847.46 131.57 L 849.97 131.56 L 852.48 131.49 L 854.98 131.49 L 857.49 131.49 L 860.00 131.49" fill="none" stroke="#111827" stroke-width="2"/>
    <circle cx="860.00" cy="131.49" r="3" fill="#111827"/>
    <text x="40.00" y="235.00" font-size="9" fill="#111827" text-anchor="middle" transform="rotate(-45 40.00 235.00)">27.09.2025</text><text x="120.24" y="235.00" font-size="9" fill="#111827" text-anchor="middle" transform="rotate(-45 120.24 235.00)">28.09.2025</text><text x="200.49" y="235.00" font-size="9" fill="#111827" text-anchor="middle" transform="rotate(-45 200.49 235.00)">28.09.2025</text><text x="280.73" y="235.00" font-size="9" fill="#111827" text-anchor="middle" transform="rotate(-45 280.73 235.00)">30.09.2025</text><text x="360.98" y="235.00" font-size="9" fill="#111827" text-anchor="middle" transform="rotate(-45 360.98 235.00)">04.10.2025</text><text x="441.22" y="235.00" font-size="9" fill="#111827" text-anchor="middle" transform="rotate(-45 441.22 235.00)">04.10.2025</text><text x="521.47" y="235.00" font-size="9" fill="#111827" text-anchor="middle" transform="rotate(-45 521.47 235.00)">04.10.2025</text><text x="601.71" y="235.00" font-size="9" fill="#111827" text-anchor="middle" transform="rotate(-45 601.71 235.00)">04.10.2025</text><text x="681.96" y="235.00" font-size="9" fill="#111827" text-anchor="middle" transform="rotate(-45 681.96 235.00)">05.10.2025</text><text x="762.20" y="235.00" font-size="9" fill="#111827" text-anchor="middle" transform="rotate(-45 762.20 235.00)">08.10.2025</text><text x="842.45" y="235.00" font-size="9" fill="#111827" text-anchor="middle" transform="rotate(-45 842.45 235.00)">09.10.2025</text>
  </g>
</svg>