<svg xmlns="http://www.w3.org/2000/svg" width="900" height="290" style="font-family: -apple-system, BlinkMacSystemFont, 'Segoe UI', Helvetica, Arial, sans-serif;">
  <rect width="100%" height="100%" fill="white"/>
  <g>
    <line x1="40" y1="220.00" x2="860" y2="220.00" stroke="#e5e7eb"/><text x="32" y="224.00" font-size="10" fill="#111827" text-anchor="end">0</text><line x1="40" y1="175.00" x2="860" y2="175.00" stroke="#e5e7eb"/><text x="32" y="179.00" font-size="10" fill="#111827" text-anchor="end">25k</text><line x1="40" y1="130.00" x2="860" y2="130.00" stroke="#e5e7eb"/><text x="32" y="134.00" font-size="10" fill="#111827" text-anchor="end">50k</text><line x1="40" y1="85.00" x2="860" y2="85.00" stroke="#e5e7eb"/><text x="32" y="89.00" font-size="10" fill="#111827" text-anchor="end">75k</text><line x1="40" y1="40.00" x2="860" y2="40.00" stroke="#e5e7eb"/><text x="32" y="44.00" font-size="10" fill="#111827" text-anchor="end">100k</text>
    <line x1="40.00" y1="40" x2="40.00" y2="220" stroke="#e5e7eb" opacity="0.5"/><line x1="121.10" y1="40" x2="121.10" y2="220" stroke="#e5e7eb" opacity="0.5"/><line x1="202.20" y1="40" x2="202.20" y2="220" stroke="#e5e7eb" opacity="0.5"/><line x1="283.30" y1="40" x2="283.30" y2="220" stroke="#e5e7eb" opacity="0.5"/><line x1="364.40" y1="40" x2="364.40" y2="220" stroke="#e5e7eb" opacity="0.5"/><line x1="445.49" y1="40" x2="445.49" y2="220" stroke="#e5e7eb" opacity="0.5"/><line x1="526.59" y1="40" x2="526.59" y2="220" stroke="#e5e7eb" opacity="0.5"/><line x1="607.69" y1="40" x2="607.69" y2="220" stroke="#e5e7eb" opacity="0.5"/><line x1="688.79" y1="40" x2="688.79" y2="220" stroke="#e5e7eb" opacity="0.5"/><line x1="769.89" y1="40" x2="769.89" y2="220" stroke="#e5e7eb" opacity="0.5"/><line x1="850.99" y1="40" x2="850.99" y2="220" stroke="#e5e7eb" opacity="0.5"/>
    <line x1="40" y1="220" x2="860" y2="220" stroke="#9ca3af"/>
    <line x1="40" y1="40"   x2="40"   y2="220" stroke="#9ca3af"/>
    <path d="M 40.00 220.00 L 42.25 220.00 L 44.51 219.60 L 46.76 219.62 L 49.01 219.63 L 51.26 219.32 L 53.52 219.31 L 55.77 219.26 L 58.02 218.89 L 60.27 218.89 L 62.53 218.89 L 64.78 218.87 L 67.03 218.87 L 69.29 218.86 L 71.54 218.85 L 73.79 218.85 L 76.04 218.82 L 78.30 218.78 L 80.55 218.72 L 82.80 218.68 L 85.05 218.64 L 87.31 218.59 L 89.56 218.59 L 91.81 218.57 L 94.07 218.57 L 96.32 218.57 L 98.57 218.57 L 100.82 218.57 L 103.08 218.57 L 105.33 218.57 L 107.58 218.57 L 109.84 218.57 L 112.09 218.55 L 114.34 218.54 L 116.59 218.58 L 118.85 218.55 L 121.10 218.55 L 123.35 218.53 L 125.60 218.31 L 127.86 217.94 L 130.11 217.88 L 132.36 217.87 L 134.62 217.86 L 136.87 217.85 L 139.12 217.84 L 141.37 217.85 L 143.63 217.82 L 145.88 217.66 L 148.13 217.61 L 150.38 217.60 L 152.64 217.57 L 154.89 217.56 L 157.14 217.52 L 159.40 217.38 L 161.65 217.24 L 163.90 216.93 L 166.15 216.65 L 168.41 216.44 L 170.66 216.39 L 172.91 216.34 L 175.16 216.83 L 177.42 200.94 L 179.67 200.94 L 181.92 200.95 L 184.18 198.99 L 186.43 198.98 L 188.68 198.94 L 190.93 198.94 L 193.19 198.91 L 195.44 198.90 L 197.69 198.93 L 199.95 198.93 L 202.20 198.99 L 204.45 198.95 L 206.70 198.96 L 208.96 198.95 L 211.21 198.95 L 213.46 198.97 L 215.71 198.97 L 217.97 198.97 L 220.22 198.97 L 222.47 198.97 L 224.73 198.97 L 226.98 198.97 L 229.23 198.97 L 231.48 198.97 L 233.74 198.97 L 235.99 198.97 L 238.24 197.51 L 240.49 197.43 L 242.75 197.40 L 245.00 197.38 L 247.25 197.38 L 249.51 197.49 L 251.76 197.34 L 254.01 197.33 L 256.26 197.18 L 258.52 197.41 L 260.77 197.41 L 263.02 197.29 L 265.27 197.29 L 267.53 197.22 L 269.78 197.21 L 272.03 197.15 L 274.29 196.94 L 276.54 197.00 L 278.79 197.41 L 281.04 197.41 L 283.30 197.30 L 285.55 197.26 L 287.80 197.19 L 290.05 197.19 L 292.31 197.19 L 294.56 197.19 L 296.81 197.18 L 299.07 197.12 L 301.32 197.09 L 303.57 197.04 L 305.82 197.00 L 308.08 196.96 L 310.33 196.92 L 312.58 196.91 L 314.84 196.86 L 317.09 196.80 L 319.34 196.75 L 321.59 196.69 L 323.85 196.66 L 326.10 196.63 L 328.35 196.56 L 330.60 196.51 L 332.86 196.47 L 335.11 196.45 L 337.36 196.40 L 339.62 196.37 L 341.87 196.34 L 344.12 196.28 L 346.37 196.20 L 348.63 196.12 L 350.88 196.02 L 353.13 195.89 L 355.38 195.77 L 357.64 195.68 L 359.89 195.63 L 362.14 195.58 L 364.40 195.53 L 366.65 195.44 L 368.90 195.35 L 371.15 195.22 L 373.41 195.11 L 375.66 194.95 L 377.91 194.82 L 380.16 194.68 L 382.42 194.57 L 384.67 194.55 L 386.92 194.51 L 389.18 194.48 L 391.43 194.44 L 393.68 194.40 L 395.93 194.37 L 398.19 194.34 L 400.44 194.29 L 402.69 194.25 L 404.95 194.23 L 407.20 194.21 L 409.45 194.19 L 411.70 194.16 L 413.96 194.12 L 416.21 194.07 L 418.46 193.99 L 420.71 193.94 L 422.97 193.87 L 425.22 193.80 L 427.47 193.74 L 429.73 193.72 L 431.98 193.70 L 434.23 193.66 L 436.48 193.62 L 438.74 193.56 L 440.99 193.49 L 443.24 193.43 L 445.49 193.35 L 447.75 193.27 L 450.00 193.20 L 452.25 193.14 L 454.51 193.15 L 456.76 193.15 L 459.01 193.15 L 461.26 193.18 L 463.52 193.09 L 465.77 193.07 L 468.02 193.07 L 470.27 193.08 L 472.53 193.00 L 474.78 192.95 L 477.03 192.95 L 479.29 192.95 L 481.54 192.95 L 483.79 192.80 L 486.04 192.73 L 488.30 192.69 L 490.55 192.67 L 492.80 192.67 L 495.05 192.68 L 497.31 192.64 L 499.56 192.63 L 501.81 192.63 L 504.07 190.39 L 506.32 189.96 L 508.57 189.85 L 510.82 189.53 L 513.08 189.52 L 515.33 189.36 L 517.58 187.79 L 519.84 187.36 L 522.09 181.35 L 524.34 181.35 L 526.59 180.72 L 528.85 180.71 L 531.10 180.26 L 533.35 179.68 L 535.60 179.67 L 537.86 178.77 L 540.11 177.57 L 542.36 175.55 L 544.62 174.52 L 546.87 173.86 L 549.12 174.17 L 551.37 173.10 L 553.63 173.10 L 555.88 171.18 L 558.13 168.37 L 560.38 168.37 L 562.64 165.86 L 564.89 163.63 L 567.14 163.63 L 569.40 163.62 L 571.65 162.88 L 573.90 161.06 L 576.15 193.89 L 578.41 193.22 L 580.66 192.73 L 582.91 192.34 L 585.16 189.45 L 587.42 188.03 L 589.67 188.03 L 591.92 180.86 L 594.18 148.96 L 596.43 144.25 L 598.68 176.00 L 600.93 176.17 L 603.19 175.77 L 605.44 175.72 L 607.69 197.26 L 609.95 197.26 L 612.20 197.06 L 614.45 196.44 L 616.70 194.49 L 618.96 194.50 L 621.21 194.49 L 623.46 194.49 L 625.71 194.49 L 627.97 194.48 L 630.22 194.48 L 632.47 194.62 L 634.73 206.08 L 636.98 206.08 L 639.23 206.05 L 641.48 206.04 L 643.74 205.22 L 645.99 204.28 L 648.24 204.28 L 650.49 204.28 L 652.75 200.22 L 655.00 204.28 L 657.25 204.28 L 659.51 204.28 L 661.76 198.60 L 664.01 198.60 L 666.26 198.60 L 668.52 198.60 L 670.77 193.00 L 673.02 193.00 L 675.27 188.39 L 677.53 188.39 L 679.78 179.75 L 682.03 174.84 L 684.29 173.23 L 686.54 170.37 L 688.79 169.87 L 691.04 153.88 L 693.30 149.24 L 695.55 152.04 L 697.80 141.93 L 700.05 141.88 L 702.31 141.69 L 704.56 141.69 L 706.81 141.76 L 709.07 141.75 L 711.32 140.68 L 713.57 141.38 L 715.82 141.36 L 718.08 141.83 L 720.33 141.39 L 722.58 141.39 L 724.84 141.52 L 727.09 141.52 L 729.34 141.53 L 731.59 142.33 L 733.85 141.73 L 736.10 141.68 L 738.35 141.68 L 740.60 141.66 L 742.86 141.67 L 745.11 141.65 L 747.36 139.51 L 749.62 136.07 L 751.87 136.04 L 754.12 133.43 L 756.37 131.89 L 758.63 131.13 L 760.88 131.51 L 763.13 131.50 L 765.38 131.57 L 767.64 131.56 L 769.89 131.49 L 772.14 131.49 L 774.40 131.49 L 776.65 131.49 L 778.90 131.49 L 781.15 131.49 L 783.41 131.49 L 785.66 131.49 L 787.91 131.49 L 790.16 131.49 L 792.42 131.49 L 794.67 131.49 L 796.92 131.49 L 799.18 131.49 L 801.43 131.49 L 803.68 131.49 L 805.93 131.49 L 808.19 131.49 L 810.44 131.49 L 812.69 131.49 L 814.95 131.49 L 817.20 131.49 L 819.45 131.49 L 821.70 131.49 L 823.96 131.49 L 826.21 131.49 L 828.46 131.49 L 830.71 131.49 L 832.97 131.49 L 835.22 131.49 L 837.47 131.49 L 839.73 131.49 L 841.98 131.49 L 844.23 131.49 L 846.48 131.49 L 848.74 131.49 L 850.99 131.49 L 853.24 131.49 L 855.49 131.49 L 857.75 131.49 L 860.00 131.49" fill="none" stroke="#111827" stroke-width="2"/>
    <circle cx="860.00" cy="131.49" r="3" fill="#111827"/>
    <text x="40.00" y="235.00" font-size="9" fill="#111827" text-anchor="middle" transform="rotate(-45 40.00 235.00)">27.09.2025</text><text x="121.10" y="235.00" font-size="9" fill="#111827" text-anchor="middle" transform="rotate(-45 121.10 235.00)">28.09.2025</text><text x="202.20" y="235.00" font-size="9" fill="#111827" text-anchor="middle" transform="rotate(-45 202.20 235.00)">28.09.2025</text><text x="283.30" y="235.00" font-size="9" fill="#111827" text-anchor="middle" transform="rotate(-45 283.30 235.00)">30.09.2025</text><text x="364.40" y="235.00" font-size="9" fill="#111827" text-anchor="middle" transform="rotate(-45 364.40 235.00)">04.10.2025</text><text x="445.49" y="235.00" font-size="9" fill="#111827" text-anchor="middle" transform="rotate(-45 445.49 235.00)">04.10.2025</text><text x="526.59" y="235.00" font-size="9" fill="#111827" text-anchor="middle" transform="rotate(-45 526.59 235.00)">04.10.2025</text><text x="607.69" y="235.00" font-size="9" fill="#111827" text-anchor="middle" transform="rotate(-45 607.69 235.00)">05.10.2025</text><text x="688.79" y="235.00" font-size="9" fill="#111827" text-anchor="middle" transform="rotate(-45 688.79 235.00)">08.10.2025</text><text x="769.89" y="235.00" font-size="9" fill="#111827" text-anchor="middle" transform="rotate(-45 769.89 235.00)">10.10.2025</text><text x="850.99" y="235.00" font-size="9" fill="#111827" text-anchor="middle" transform="rotate(-45 850.99 235.00)">14.11.2025</text>
  </g>
</svg>