<svg xmlns="http://www.w3.org/2000/svg" width="900" height="290" style="font-family: -apple-system, BlinkMacSystemFont, 'Segoe UI', Helvetica, Arial, sans-serif;">
  <rect width="100%" height="100%" fill="#0d1117"/>
  <g>
    <line x1="40" y1="220.00" x2="860" y2="220.00" stroke="#30363d"/><text x="32" y="224.00" font-size="10" fill="#c9d1d9" text-anchor="end">0</text><line x1="40" y1="175.00" x2="860" y2="175.00" stroke="#30363d"/><text x="32" y="179.00" font-size="10" fill="#c9d1d9" text-anchor="end">25k</text><line x1="40" y1="130.00" x2="860" y2="130.00" stroke="#30363d"/><text x="32" y="134.00" font-size="10" fill="#c9d1d9" text-anchor="end">50k</text><line x1="40" y1="85.00" x2="860" y2="85.00" stroke="#30363d"/><text x="32" y="89.00" font-size="10" fill="#c9d1d9" text-anchor="end">75k</text><line x1="40" y1="40.00" x2="860" y2="40.00" stroke="#30363d"/><text x="32" y="44.00" font-size="10" fill="#c9d1d9" text-anchor="end">100k</text>
    <line x1="40.00" y1="40" x2="40.00" y2="220" stroke="#30363d" opacity="0.5"/><line x1="121.40" y1="40" x2="121.40" y2="220" stroke="#30363d" opacity="0.5"/><line x1="202.81" y1="40" x2="202.81" y2="220" stroke="#30363d" opacity="0.5"/><line x1="284.21" y1="40" x2="284.21" y2="220" stroke="#30363d" opacity="0.5"/><line x1="365.62" y1="40" x2="365.62" y2="220" stroke="#30363d" opacity="0.5"/><line x1="447.02" y1="40" x2="447.02" y2="220" stroke="#30363d" opacity="0.5"/><line x1="528.43" y1="40" x2="528.43" y2="220" stroke="#30363d" opacity="0.5"/><line x1="609.83" y1="40" x2="609.83" y2="220" stroke="#30363d" opacity="0.5"/><line x1="691.23" y1="40" x2="691.23" y2="220" stroke="#30363d" opacity="0.5"/><line x1="772.64" y1="40" x2="772.64" y2="220" stroke="#30363d" opacity="0.5"/><line x1="854.04" y1="40" x2="854.04" y2="220" stroke="#30363d" opacity="0.5"/>
    <line x1="40" y1="220" x2="860" y2="220" stroke="#30363d"/>
    <line x1="40" y1="40"   x2="40"   y2="220" stroke="#30363d"/>
    <path d="M 40.00 220.00 L 41.99 220.00 L 43.97 219.60 L 45.96 219.62 L 47.94 219.63 L 49.93 219.32 L 51.91 219.31 L 53.90 219.26 L 55.88 218.89 L 57.87 218.89 L 59.85 218.89 L 61.84 218.87 L 63.83 218.87 L 65.81 218.86 L 67.80 218.85 L 69.78 218.85 L 71.77 218.82 L 73.75 218.78 L 75.74 218.72 L 77.72 218.68 L 79.71 218.64 L 81.69 218.59 L 83.68 218.59 L 85.67 218.57 L 87.65 218.57 L 89.64 218.57 L 91.62 218.57 L 93.61 218.57 L 95.59 218.57 L 97.58 218.57 L 99.56 218.57 L 101.55 218.57 L 103.54 218.55 L 105.52 218.54 L 107.51 218.58 L 109.49 218.55 L 111.48 218.55 L 113.46 218.53 L 115.45 218.31 L 117.43 217.94 L 119.42 217.88 L 121.40 217.87 L 123.39 217.86 L 125.38 217.85 L 127.36 217.84 L 129.35 217.85 L 131.33 217.82 L 133.32 217.66 L 135.30 217.61 L 137.29 217.60 L 139.27 217.57 L 141.26 217.56 L 143.24 217.52 L 145.23 217.38 L 147.22 217.24 L 149.20 216.93 L 151.19 216.65 L 153.17 216.44 L 155.16 216.39 L 157.14 216.34 L 159.13 216.83 L 161.11 200.94 L 163.10 200.94 L 165.08 200.95 L 167.07 198.99 L 169.06 198.98 L 171.04 198.94 L 173.03 198.94 L 175.01 198.91 L 177.00 198.90 L 178.98 198.93 L 180.97 198.93 L 182.95 198.99 L 184.94 198.95 L 186.92 198.96 L 188.91 198.95 L 190.90 198.95 L 192.88 198.97 L 194.87 198.97 L 196.85 198.97 L 198.84 198.97 L 200.82 198.97 L 202.81 198.97 L 204.79 198.97 L 206.78 198.97 L 208.77 198.97 L 210.75 198.97 L 212.74 198.97 L 214.72 197.51 L 216.71 197.43 L 218.69 197.40 L 220.68 197.38 L 222.66 197.38 L 224.65 197.49 L 226.63 197.34 L 228.62 197.33 L 230.61 197.18 L 232.59 197.41 L 234.58 197.41 L 236.56 197.29 L 238.55 197.29 L 240.53 197.22 L 242.52 197.21 L 244.50 197.15 L 246.49 196.94 L 248.47 197.00 L 250.46 197.41 L 252.45 197.41 L 254.43 197.30 L 256.42 197.26 L 258.40 197.19 L 260.39 197.19 L 262.37 197.19 L 264.36 197.19 L 266.34 197.18 L 268.33 197.12 L 270.31 197.09 L 272.30 197.04 L 274.29 197.00 L 276.27 196.96 L 278.26 196.92 L 280.24 196.91 L 282.23 196.86 L 284.21 196.80 L 286.20 196.75 L 288.18 196.69 L 290.17 196.66 L 292.15 196.63 L 294.14 196.56 L 296.13 196.51 L 298.11 196.47 L 300.10 196.45 L 302.08 196.40 L 304.07 196.37 L 306.05 196.34 L 308.04 196.28 L 310.02 196.20 L 312.01 196.12 L 314.00 196.02 L 315.98 195.89 L 317.97 195.77 L 319.95 195.68 L 321.94 195.63 L 323.92 195.58 L 325.91 195.53 L 327.89 195.44 L 329.88 195.35 L 331.86 195.22 L 333.85 195.11 L 335.84 194.95 L 337.82 194.82 L 339.81 194.68 L 341.79 194.57 L 343.78 194.55 L 345.76 194.51 L 347.75 194.48 L 349.73 194.44 L 351.72 194.40 L 353.70 194.37 L 355.69 194.34 L 357.68 194.29 L 359.66 194.25 L 361.65 194.23 L 363.63 194.21 L 365.62 194.19 L 367.60 194.16 L 369.59 194.12 L 371.57 194.07 L 373.56 193.99 L 375.54 193.94 L 377.53 193.87 L 379.52 193.80 L 381.50 193.74 L 383.49 193.72 L 385.47 193.70 L 387.46 193.66 L 389.44 193.62 L 391.43 193.56 L 393.41 193.49 L 395.40 193.43 L 397.38 193.35 L 399.37 193.27 L 401.36 193.20 L 403.34 193.14 L 405.33 193.15 L 407.31 193.15 L 409.30 193.15 L 411.28 193.18 L 413.27 193.09 L 415.25 193.07 L 417.24 193.07 L 419.23 193.08 L 421.21 193.00 L 423.20 192.95 L 425.18 192.95 L 427.17 192.95 L 429.15 192.95 L 431.14 192.80 L 433.12 192.73 L 435.11 192.69 L 437.09 192.67 L 439.08 192.67 L 441.07 192.68 L 443.05 192.64 L 445.04 192.63 L 447.02 192.63 L 449.01 190.39 L 450.99 189.96 L 452.98 189.85 L 454.96 189.53 L 456.95 189.52 L 458.93 189.36 L 460.92 187.79 L 462.91 187.36 L 464.89 181.35 L 466.88 181.35 L 468.86 180.72 L 470.85 180.71 L 472.83 180.26 L 474.82 179.68 L 476.80 179.67 L 478.79 178.77 L 480.77 177.57 L 482.76 175.55 L 484.75 174.52 L 486.73 173.86 L 488.72 174.17 L 490.70 173.10 L 492.69 173.10 L 494.67 171.18 L 496.66 168.37 L 498.64 168.37 L 500.63 165.86 L 502.62 163.63 L 504.60 163.63 L 506.59 163.62 L 508.57 162.88 L 510.56 161.06 L 512.54 193.89 L 514.53 193.22 L 516.51 192.73 L 518.50 192.34 L 520.48 189.45 L 522.47 188.03 L 524.46 188.03 L 526.44 180.86 L 528.43 148.96 L 530.41 144.25 L 532.40 176.00 L 534.38 176.17 L 536.37 175.77 L 538.35 175.72 L 540.34 197.26 L 542.32 197.26 L 544.31 197.06 L 546.30 196.44 L 548.28 194.49 L 550.27 194.50 L 552.25 194.49 L 554.24 194.49 L 556.22 194.49 L 558.21 194.48 L 560.19 194.48 L 562.18 194.62 L 564.16 206.08 L 566.15 206.08 L 568.14 206.05 L 570.12 206.04 L 572.11 205.22 L 574.09 204.28 L 576.08 204.28 L 578.06 204.28 L 580.05 200.22 L 582.03 204.28 L 584.02 204.28 L 586.00 204.28 L 587.99 198.60 L 589.98 198.60 L 591.96 198.60 L 593.95 198.60 L 595.93 193.00 L 597.92 193.00 L 599.90 188.39 L 601.89 188.39 L 603.87 179.75 L 605.86 174.84 L 607.85 173.23 L 609.83 170.37 L 611.82 169.87 L 613.80 153.88 L 615.79 149.24 L 617.77 152.04 L 619.76 141.93 L 621.74 141.88 L 623.73 141.69 L 625.71 141.69 L 627.70 141.76 L 629.69 141.75 L 631.67 140.68 L 633.66 141.38 L 635.64 141.36 L 637.63 141.83 L 639.61 141.39 L 641.60 141.39 L 643.58 141.52 L 645.57 141.52 L 647.55 141.53 L 649.54 142.33 L 651.53 141.73 L 653.51 141.68 L 655.50 141.68 L 657.48 141.66 L 659.47 141.67 L 661.45 141.65 L 663.44 139.51 L 665.42 136.07 L 667.41 136.04 L 669.39 133.43 L 671.38 131.89 L 673.37 131.13 L 675.35 131.51 L 677.34 131.50 L 679.32 131.57 L 681.31 131.56 L 683.29 131.49 L 685.28 131.49 L 687.26 131.49 L 689.25 131.49 L 691.23 131.49 L 693.22 131.49 L 695.21 131.49 L 697.19 131.49 L 699.18 131.49 L 701.16 131.49 L 703.15 131.49 L 705.13 131.49 L 707.12 131.49 L 709.10 131.49 L 711.09 131.49 L 713.08 131.49 L 715.06 131.49 L 717.05 131.49 L 719.03 131.49 L 721.02 131.49 L 723.00 131.49 L 724.99 131.49 L 726.97 131.49 L 728.96 131.49 L 730.94 131.49 L 732.93 131.49 L 734.92 131.49 L 736.90 131.49 L 738.89 131.49 L 740.87 131.49 L 742.86 131.49 L 744.84 131.49 L 746.83 131.49 L 748.81 131.49 L 750.80 131.49 L 752.78 131.49 L 754.77 131.49 L 756.76 131.49 L 758.74 131.49 L 760.73 131.49 L 762.71 131.49 L 764.70 131.49 L 766.68 131.49 L 768.67 131.49 L 770.65 131.49 L 772.64 131.49 L 774.62 131.49 L 776.61 131.49 L 778.60 131.49 L 780.58 131.49 L 782.57 131.49 L 784.55 131.49 L 786.54 131.49 L 788.52 131.49 L 790.51 131.49 L 792.49 131.49 L 794.48 131.49 L 796.46 131.49 L 798.45 131.49 L 800.44 131.49 L 802.42 131.49 L 804.41 131.49 L 806.39 131.49 L 808.38 131.49 L 810.36 131.49 L 812.35 131.49 L 814.33 131.49 L 816.32 131.49 L 818.31 131.49 L 820.29 131.49 L 822.28 131.49 L 824.26 131.49 L 826.25 131.49 L 828.23 131.49 L 830.22 131.49 L 832.20 131.49 L 834.19 131.49 L 836.17 131.49 L 838.16 131.49 L 840.15 131.49 L 842.13 131.49 L 844.12 131.49 L 846.10 131.49 L 848.09 131.49 L 850.07 131.49 L 852.06 131.49 L 854.04 131.49 L 856.03 131.49 L 858.01 131.49 L 860.00 131.49" fill="none" stroke="#3fb950" stroke-width="2"/>
    <circle cx="860.00" cy="131.49" r="3" fill="#3fb950"/>
    <text x="40.00" y="235.00" font-size="9" fill="#c9d1d9" text-anchor="middle" transform="rotate(-45 40.00 235.00)">27.09.2025</text><text x="121.40" y="235.00" font-size="9" fill="#c9d1d9" text-anchor="middle" transform="rotate(-45 121.40 235.00)">28.09.2025</text><text x="202.81" y="235.00" font-size="9" fill="#c9d1d9" text-anchor="middle" transform="rotate(-45 202.81 235.00)">29.09.2025</text><text x="284.21" y="235.00" font-size="9" fill="#c9d1d9" text-anchor="middle" transform="rotate(-45 284.21 235.00)">04.10.2025</text><text x="365.62" y="235.00" font-size="9" fill="#c9d1d9" text-anchor="middle" transform="rotate(-45 365.62 235.00)">04.10.2025</text><text x="447.02" y="235.00" font-size="9" fill="#c9d1d9" text-anchor="middle" transform="rotate(-45 447.02 235.00)">04.10.2025</text><text x="528.43" y="235.00" font-size="9" fill="#c9d1d9" text-anchor="middle" transform="rotate(-45 528.43 235.00)">05.10.2025</text><text x="609.83" y="235.00" font-size="9" fill="#c9d1d9" text-anchor="middle" transform="rotate(-45 609.83 235.00)">08.10.2025</text><text x="691.23" y="235.00" font-size="9" fill="#c9d1d9" text-anchor="middle" transform="rotate(-45 691.23 235.00)">13.10.2025</text><text x="772.64" y="235.00" font-size="9" fill="#c9d1d9" text-anchor="middle" transform="rotate(-45 772.64 235.00)">23.11.2025</text><text x="854.04" y="235.00" font-size="9" fill="#c9d1d9" text-anchor="middle" transform="rotate(-45 854.04 235.00)">03.01.2026</text>
  </g>
</svg>