<svg xmlns="http://www.w3.org/2000/svg" width="900" height="290" style="font-family: -apple-system, BlinkMacSystemFont, 'Segoe UI', Helvetica, Arial, sans-serif;">
  <rect width="100%" height="100%" fill="white"/>
  <g>
    <line x1="40" y1="220.00" x2="860" y2="220.00" stroke="#e5e7eb"/><text x="32" y="224.00" font-size="10" fill="#111827" text-anchor="end">0</text><line x1="40" y1="175.00" x2="860" y2="175.00" stroke="#e5e7eb"/><text x="32" y="179.00" font-size="10" fill="#111827" text-anchor="end">25k</text><line x1="40" y1="130.00" x2="860" y2="130.00" stroke="#e5e7eb"/><text x="32" y="134.00" font-size="10" fill="#111827" text-anchor="end">50k</text><line x1="40" y1="85.00" x2="860" y2="85.00" stroke="#e5e7eb"/><text x="32" y="89.00" font-size="10" fill="#111827" text-anchor="end">75k</text><line x1="40" y1="40.00" x2="860" y2="40.00" stroke="#e5e7eb"/><text x="32" y="44.00" font-size="10" fill="#111827" text-anchor="end">100k</text>
    <line x1="40.00" y1="40" x2="40.00" y2="220" stroke="#e5e7eb" opacity="0.5"/><line x1="120.72" y1="40" x2="120.72" y2="220" stroke="#e5e7eb" opacity="0.5"/><line x1="201.43" y1="40" x2="201.43" y2="220" stroke="#e5e7eb" opacity="0.5"/><line x1="282.15" y1="40" x2="282.15" y2="220" stroke="#e5e7eb" opacity="0.5"/><line x1="362.86" y1="40" x2="362.86" y2="220" stroke="#e5e7eb" opacity="0.5"/><line x1="443.58" y1="40" x2="443.58" y2="220" stroke="#e5e7eb" opacity="0.5"/><line x1="524.30" y1="40" x2="524.30" y2="220" stroke="#e5e7eb" opacity="0.5"/><line x1="605.01" y1="40" x2="605.01" y2="220" stroke="#e5e7eb" opacity="0.5"/><line x1="685.73" y1="40" x2="685.73" y2="220" stroke="#e5e7eb" opacity="0.5"/><line x1="766.44" y1="40" x2="766.44" y2="220" stroke="#e5e7eb" opacity="0.5"/><line x1="847.16" y1="40" x2="847.16" y2="220" stroke="#e5e7eb" opacity="0.5"/>
    <line x1="40" y1="220" x2="860" y2="220" stroke="#9ca3af"/>
    <line x1="40" y1="40"   x2="40"   y2="220" stroke="#9ca3af"/>
    <path d="M 40.00 220.00 L 41.83 220.00 L 43.67 219.60 L 45.50 219.62 L 47.34 219.63 L 49.17 219.32 L 51.01 219.31 L 52.84 219.26 L 54.68 218.89 L 56.51 218.89 L 58.34 218.89 L 60.18 218.87 L 62.01 218.87 L 63.85 218.86 L 65.68 218.85 L 67.52 218.85 L 69.35 218.82 L 71.19 218.78 L 73.02 218.72 L 74.85 218.68 L 76.69 218.64 L 78.52 218.59 L 80.36 218.59 L 82.19 218.57 L 84.03 218.57 L 85.86 218.57 L 87.70 218.57 L 89.53 218.57 L 91.36 218.57 L 93.20 218.57 L 95.03 218.57 L 96.87 218.57 L 98.70 218.55 L 100.54 218.54 L 102.37 218.58 L 104.21 218.55 L 106.04 218.55 L 107.87 218.53 L 109.71 218.31 L 111.54 217.94 L 113.38 217.88 L 115.21 217.87 L 117.05 217.86 L 118.88 217.85 L 120.72 217.84 L 122.55 217.85 L 124.38 217.82 L 126.22 217.66 L 128.05 217.61 L 129.89 217.60 L 131.72 217.57 L 133.56 217.56 L 135.39 217.52 L 137.23 217.38 L 139.06 217.24 L 140.89 216.93 L 142.73 216.65 L 144.56 216.44 L 146.40 216.39 L 148.23 216.34 L 150.07 216.83 L 151.90 200.94 L 153.74 200.94 L 155.57 200.95 L 157.40 198.99 L 159.24 198.98 L 161.07 198.94 L 162.91 198.94 L 164.74 198.91 L 166.58 198.90 L 168.41 198.93 L 170.25 198.93 L 172.08 198.99 L 173.91 198.95 L 175.75 198.96 L 177.58 198.95 L 179.42 198.95 L 181.25 198.97 L 183.09 198.97 L 184.92 198.97 L 186.76 198.97 L 188.59 198.97 L 190.43 198.97 L 192.26 198.97 L 194.09 198.97 L 195.93 198.97 L 197.76 198.97 L 199.60 198.97 L 201.43 197.51 L 203.27 197.43 L 205.10 197.40 L 206.94 197.38 L 208.77 197.38 L 210.60 197.49 L 212.44 197.34 L 214.27 197.33 L 216.11 197.18 L 217.94 197.41 L 219.78 197.41 L 221.61 197.29 L 223.45 197.29 L 225.28 197.22 L 227.11 197.21 L 228.95 197.15 L 230.78 196.94 L 232.62 197.00 L 234.45 197.41 L 236.29 197.41 L 238.12 197.30 L 239.96 197.26 L 241.79 197.19 L 243.62 197.19 L 245.46 197.19 L 247.29 197.19 L 249.13 197.18 L 250.96 197.12 L 252.80 197.09 L 254.63 197.04 L 256.47 197.00 L 258.30 196.96 L 260.13 196.92 L 261.97 196.91 L 263.80 196.86 L 265.64 196.80 L 267.47 196.75 L 269.31 196.69 L 271.14 196.66 L 272.98 196.63 L 274.81 196.56 L 276.64 196.51 L 278.48 196.47 L 280.31 196.45 L 282.15 196.40 L 283.98 196.37 L 285.82 196.34 L 287.65 196.28 L 289.49 196.20 L 291.32 196.12 L 293.15 196.02 L 294.99 195.89 L 296.82 195.77 L 298.66 195.68 L 300.49 195.63 L 302.33 195.58 L 304.16 195.53 L 306.00 195.44 L 307.83 195.35 L 309.66 195.22 L 311.50 195.11 L 313.33 194.95 L 315.17 194.82 L 317.00 194.68 L 318.84 194.57 L 320.67 194.55 L 322.51 194.51 L 324.34 194.48 L 326.17 194.44 L 328.01 194.40 L 329.84 194.37 L 331.68 194.34 L 333.51 194.29 L 335.35 194.25 L 337.18 194.23 L 339.02 194.21 L 340.85 194.19 L 342.68 194.16 L 344.52 194.12 L 346.35 194.07 L 348.19 193.99 L 350.02 193.94 L 351.86 193.87 L 353.69 193.80 L 355.53 193.74 L 357.36 193.72 L 359.19 193.70 L 361.03 193.66 L 362.86 193.62 L 364.70 193.56 L 366.53 193.49 L 368.37 193.43 L 370.20 193.35 L 372.04 193.27 L 373.87 193.20 L 375.70 193.14 L 377.54 193.15 L 379.37 193.15 L 381.21 193.15 L 383.04 193.18 L 384.88 193.09 L 386.71 193.07 L 388.55 193.07 L 390.38 193.08 L 392.21 193.00 L 394.05 192.95 L 395.88 192.95 L 397.72 192.95 L 399.55 192.95 L 401.39 192.80 L 403.22 192.73 L 405.06 192.69 L 406.89 192.67 L 408.72 192.67 L 410.56 192.68 L 412.39 192.64 L 414.23 192.63 L 416.06 192.63 L 417.90 190.39 L 419.73 189.96 L 421.57 189.85 L 423.40 189.53 L 425.23 189.52 L 427.07 189.36 L 428.90 187.79 L 430.74 187.36 L 432.57 181.35 L 434.41 181.35 L 436.24 180.72 L 438.08 180.71 L 439.91 180.26 L 441.74 179.68 L 443.58 179.67 L 445.41 178.77 L 447.25 177.57 L 449.08 175.55 L 450.92 174.52 L 452.75 173.86 L 454.59 174.17 L 456.42 173.10 L 458.26 173.10 L 460.09 171.18 L 461.92 168.37 L 463.76 168.37 L 465.59 165.86 L 467.43 163.63 L 469.26 163.63 L 471.10 163.62 L 472.93 162.88 L 474.77 161.06 L 476.60 193.89 L 478.43 193.22 L 480.27 192.73 L 482.10 192.34 L 483.94 189.45 L 485.77 188.03 L 487.61 188.03 L 489.44 180.86 L 491.28 148.96 L 493.11 144.25 L 494.94 176.00 L 496.78 176.17 L 498.61 175.77 L 500.45 175.72 L 502.28 197.26 L 504.12 197.26 L 505.95 197.06 L 507.79 196.44 L 509.62 194.49 L 511.45 194.50 L 513.29 194.49 L 515.12 194.49 L 516.96 194.49 L 518.79 194.48 L 520.63 194.48 L 522.46 194.62 L 524.30 206.08 L 526.13 206.08 L 527.96 206.05 L 529.80 206.04 L 531.63 205.22 L 533.47 204.28 L 535.30 204.28 L 537.14 204.28 L 538.97 200.22 L 540.81 204.28 L 542.64 204.28 L 544.47 204.28 L 546.31 198.60 L 548.14 198.60 L 549.98 198.60 L 551.81 198.60 L 553.65 193.00 L 555.48 193.00 L 557.32 188.39 L 559.15 188.39 L 560.98 179.75 L 562.82 174.84 L 564.65 173.23 L 566.49 170.37 L 568.32 169.87 L 570.16 153.88 L 571.99 149.24 L 573.83 152.04 L 575.66 141.93 L 577.49 141.88 L 579.33 141.69 L 581.16 141.69 L 583.00 141.76 L 584.83 141.75 L 586.67 140.68 L 588.50 141.38 L 590.34 141.36 L 592.17 141.83 L 594.00 141.39 L 595.84 141.39 L 597.67 141.52 L 599.51 141.52 L 601.34 141.53 L 603.18 142.33 L 605.01 141.73 L 606.85 141.68 L 608.68 141.68 L 610.51 141.66 L 612.35 141.67 L 614.18 141.65 L 616.02 139.51 L 617.85 136.07 L 619.69 136.04 L 621.52 133.43 L 623.36 131.89 L 625.19 131.13 L 627.02 131.51 L 628.86 131.50 L 630.69 131.57 L 632.53 131.56 L 634.36 131.49 L 636.20 131.49 L 638.03 131.49 L 639.87 131.49 L 641.70 131.49 L 643.53 131.49 L 645.37 131.49 L 647.20 131.49 L 649.04 131.49 L 650.87 131.49 L 652.71 131.49 L 654.54 131.49 L 656.38 131.49 L 658.21 131.49 L 660.04 131.49 L 661.88 131.49 L 663.71 131.49 L 665.55 131.49 L 667.38 131.49 L 669.22 131.49 L 671.05 131.49 L 672.89 131.49 L 674.72 131.49 L 676.55 131.49 L 678.39 131.49 L 680.22 131.49 L 682.06 131.49 L 683.89 131.49 L 685.73 131.49 L 687.56 131.49 L 689.40 131.49 L 691.23 131.49 L 693.06 131.49 L 694.90 131.49 L 696.73 131.49 L 698.57 131.49 L 700.40 131.49 L 702.24 131.49 L 704.07 131.49 L 705.91 131.49 L 707.74 131.49 L 709.57 131.49 L 711.41 131.49 L 713.24 131.49 L 715.08 131.49 L 716.91 131.49 L 718.75 131.49 L 720.58 131.49 L 722.42 131.49 L 724.25 131.49 L 726.09 131.49 L 727.92 131.49 L 729.75 131.49 L 731.59 131.49 L 733.42 131.49 L 735.26 131.49 L 737.09 131.49 L 738.93 131.49 L 740.76 131.49 L 742.60 131.49 L 744.43 131.49 L 746.26 131.49 L 748.10 131.49 L 749.93 131.49 L 751.77 131.49 L 753.60 131.49 L 755.44 131.49 L 757.27 131.49 L 759.11 131.49 L 760.94 131.49 L 762.77 131.49 L 764.61 131.49 L 766.44 131.49 L 768.28 131.49 L 770.11 131.49 L 771.95 131.49 L 773.78 131.49 L 775.62 131.49 L 777.45 131.49 L 779.28 131.49 L 781.12 131.49 L 782.95 131.49 L 784.79 131.49 L 786.62 131.49 L 788.46 131.49 L 790.29 131.49 L 792.13 131.49 L 793.96 131.49 L 795.79 131.49 L 797.63 131.49 L 799.46 131.49 L 801.30 131.49 L 803.13 131.49 L 804.97 131.49 L 806.80 131.49 L 808.64 131.49 L 810.47 131.49 L 812.30 131.49 L 814.14 131.49 L 815.97 131.49 L 817.81 131.49 L 819.64 131.49 L 821.48 131.49 L 823.31 131.49 L 825.15 131.49 L 826.98 131.49 L 828.81 131.49 L 830.65 131.49 L 832.48 131.49 L 834.32 131.49 L 836.15 131.49 L 837.99 131.49 L 839.82 131.49 L 841.66 131.49 L 843.49 131.49 L 845.32 131.49 L 847.16 131.49 L 848.99 131.49 L 850.83 131.49 L 852.66 131.49 L 854.50 131.49 L 856.33 131.49 L 858.17 131.49 L 860.00 131.49" fill="none" stroke="#111827" stroke-width="2"/>
    <circle cx="860.00" cy="131.49" r="3" fill="#111827"/>
    <text x="40.00" y="235.00" font-size="9" fill="#111827" text-anchor="middle" transform="rotate(-45 40.00 235.00)">27.09.2025</text><text x="120.72" y="235.00" font-size="9" fill="#111827" text-anchor="middle" transform="rotate(-45 120.72 235.00)">28.09.2025</text><text x="201.43" y="235.00" font-size="9" fill="#111827" text-anchor="middle" transform="rotate(-45 201.43 235.00)">29.09.2025</text><text x="282.15" y="235.00" font-size="9" fill="#111827" text-anchor="middle" transform="rotate(-45 282.15 235.00)">04.10.2025</text><text x="362.86" y="235.00" font-size="9" fill="#111827" text-anchor="middle" transform="rotate(-45 362.86 235.00)">04.10.2025</text><text x="443.58" y="235.00" font-size="9" fill="#111827" text-anchor="middle" transform="rotate(-45 443.58 235.00)">04.10.2025</text><text x="524.30" y="235.00" font-size="9" fill="#111827" text-anchor="middle" transform="rotate(-45 524.30 235.00)">05.10.2025</text><text x="605.01" y="235.00" font-size="9" fill="#111827" text-anchor="middle" transform="rotate(-45 605.01 235.00)">09.10.2025</text><text x="685.73" y="235.00" font-size="9" fill="#111827" text-anchor="middle" transform="rotate(-45 685.73 235.00)">06.11.2025</text><text x="766.44" y="235.00" font-size="9" fill="#111827" text-anchor="middle" transform="rotate(-45 766.44 235.00)">20.12.2025</text><text x="847.16" y="235.00" font-size="9" fill="#111827" text-anchor="middle" transform="rotate(-45 847.16 235.00)">01.02.2026</text>
  </g>
</svg>