<svg xmlns="http://www.w3.org/2000/svg" width="900" height="290" style="font-family: -apple-system, BlinkMacSystemFont, 'Segoe UI', Helvetica, Arial, sans-serif;">
  <rect width="100%" height="100%" fill="white"/>
  <g>
    <line x1="40" y1="220.00" x2="860" y2="220.00" stroke="#e5e7eb"/><text x="32" y="224.00" font-size="10" fill="#111827" text-anchor="end">0</text><line x1="40" y1="175.00" x2="860" y2="175.00" stroke="#e5e7eb"/><text x="32" y="179.00" font-size="10" fill="#111827" text-anchor="end">25k</text><line x1="40" y1="130.00" x2="860" y2="130.00" stroke="#e5e7eb"/><text x="32" y="134.00" font-size="10" fill="#111827" text-anchor="end">50k</text><line x1="40" y1="85.00" x2="860" y2="85.00" stroke="#e5e7eb"/><text x="32" y="89.00" font-size="10" fill="#111827" text-anchor="end">75k</text><line x1="40" y1="40.00" x2="860" y2="40.00" stroke="#e5e7eb"/><text x="32" y="44.00" font-size="10" fill="#111827" text-anchor="end">100k</text>
    <line x1="40.00" y1="40" x2="40.00" y2="220" stroke="#e5e7eb" opacity="0.5"/><line x1="120.52" y1="40" x2="120.52" y2="220" stroke="#e5e7eb" opacity="0.5"/><line x1="201.03" y1="40" x2="201.03" y2="220" stroke="#e5e7eb" opacity="0.5"/><line x1="281.55" y1="40" x2="281.55" y2="220" stroke="#e5e7eb" opacity="0.5"/><line x1="362.07" y1="40" x2="362.07" y2="220" stroke="#e5e7eb" opacity="0.5"/><line x1="442.58" y1="40" x2="442.58" y2="220" stroke="#e5e7eb" opacity="0.5"/><line x1="523.10" y1="40" x2="523.10" y2="220" stroke="#e5e7eb" opacity="0.5"/><line x1="603.62" y1="40" x2="603.62" y2="220" stroke="#e5e7eb" opacity="0.5"/><line x1="684.13" y1="40" x2="684.13" y2="220" stroke="#e5e7eb" opacity="0.5"/><line x1="764.65" y1="40" x2="764.65" y2="220" stroke="#e5e7eb" opacity="0.5"/><line x1="845.17" y1="40" x2="845.17" y2="220" stroke="#e5e7eb" opacity="0.5"/>
    <line x1="40" y1="220" x2="860" y2="220" stroke="#9ca3af"/>
    <line x1="40" y1="40"   x2="40"   y2="220" stroke="#9ca3af"/>
    <path d="M 40.00 220.00 L 42.12 220.00 L 44.24 219.60 L 46.36 219.62 L 48.48 219.63 L 50.59 219.32 L 52.71 219.31 L 54.83 219.26 L 56.95 218.89 L 59.07 218.89 L 61.19 218.89 L 63.31 218.87 L 65.43 218.87 L 67.55 218.86 L 69.66 218.85 L 71.78 218.85 L 73.90 218.82 L 76.02 218.78 L 78.14 218.72 L 80.26 218.68 L 82.38 218.64 L 84.50 218.59 L 86.61 218.59 L 88.73 218.57 L 90.85 218.57 L 92.97 218.57 L 95.09 218.57 L 97.21 218.57 L 99.33 218.57 L 101.45 218.57 L 103.57 218.57 L 105.68 218.57 L 107.80 218.55 L 109.92 218.54 L 112.04 218.58 L 114.16 218.55 L 116.28 218.55 L 118.40 218.53 L 120.52 218.31 L 122.64 217.94 L 124.75 217.88 L 126.87 217.87 L 128.99 217.86 L 131.11 217.85 L 133.23 217.84 L 135.35 217.85 L 137.47 217.82 L 139.59 217.66 L 141.71 217.61 L 143.82 217.60 L 145.94 217.57 L 148.06 217.56 L 150.18 217.52 L 152.30 217.38 L 154.42 217.24 L 156.54 216.93 L 158.66 216.65 L 160.78 216.44 L 162.89 216.39 L 165.01 216.34 L 167.13 216.83 L 169.25 200.94 L 171.37 200.94 L 173.49 200.95 L 175.61 198.99 L 177.73 198.98 L 179.84 198.94 L 181.96 198.94 L 184.08 198.91 L 186.20 198.90 L 188.32 198.93 L 190.44 198.93 L 192.56 198.99 L 194.68 198.95 L 196.80 198.96 L 198.91 198.95 L 201.03 198.95 L 203.15 198.97 L 205.27 198.97 L 207.39 198.97 L 209.51 198.97 L 211.63 198.97 L 213.75 198.97 L 215.87 198.97 L 217.98 198.97 L 220.10 198.97 L 222.22 198.97 L 224.34 198.97 L 226.46 197.51 L 228.58 197.43 L 230.70 197.40 L 232.82 197.38 L 234.94 197.38 L 237.05 197.49 L 239.17 197.34 L 241.29 197.33 L 243.41 197.18 L 245.53 197.41 L 247.65 197.41 L 249.77 197.29 L 251.89 197.29 L 254.01 197.22 L 256.12 197.21 L 258.24 197.15 L 260.36 196.94 L 262.48 197.00 L 264.60 197.41 L 266.72 197.41 L 268.84 197.30 L 270.96 197.26 L 273.07 197.19 L 275.19 197.19 L 277.31 197.19 L 279.43 197.19 L 281.55 197.18 L 283.67 197.12 L 285.79 197.09 L 287.91 197.04 L 290.03 197.00 L 292.14 196.96 L 294.26 196.92 L 296.38 196.91 L 298.50 196.86 L 300.62 196.80 L 302.74 196.75 L 304.86 196.69 L 306.98 196.66 L 309.10 196.63 L 311.21 196.56 L 313.33 196.51 L 315.45 196.47 L 317.57 196.45 L 319.69 196.40 L 321.81 196.37 L 323.93 196.34 L 326.05 196.28 L 328.17 196.20 L 330.28 196.12 L 332.40 196.02 L 334.52 195.89 L 336.64 195.77 L 338.76 195.68 L 340.88 195.63 L 343.00 195.58 L 345.12 195.53 L 347.24 195.44 L 349.35 195.35 L 351.47 195.22 L 353.59 195.11 L 355.71 194.95 L 357.83 194.82 L 359.95 194.68 L 362.07 194.57 L 364.19 194.55 L 366.30 194.51 L 368.42 194.48 L 370.54 194.44 L 372.66 194.40 L 374.78 194.37 L 376.90 194.34 L 379.02 194.29 L 381.14 194.25 L 383.26 194.23 L 385.37 194.21 L 387.49 194.19 L 389.61 194.16 L 391.73 194.12 L 393.85 194.07 L 395.97 193.99 L 398.09 193.94 L 400.21 193.87 L 402.33 193.80 L 404.44 193.74 L 406.56 193.72 L 408.68 193.70 L 410.80 193.66 L 412.92 193.62 L 415.04 193.56 L 417.16 193.49 L 419.28 193.43 L 421.40 193.35 L 423.51 193.27 L 425.63 193.20 L 427.75 193.14 L 429.87 193.15 L 431.99 193.15 L 434.11 193.15 L 436.23 193.18 L 438.35 193.09 L 440.47 193.07 L 442.58 193.07 L 444.70 193.08 L 446.82 193.00 L 448.94 192.95 L 451.06 192.95 L 453.18 192.95 L 455.30 192.95 L 457.42 192.80 L 459.53 192.73 L 461.65 192.69 L 463.77 192.67 L 465.89 192.67 L 468.01 192.68 L 470.13 192.64 L 472.25 192.63 L 474.37 192.63 L 476.49 190.39 L 478.60 189.96 L 480.72 189.85 L 482.84 189.53 L 484.96 189.52 L 487.08 189.36 L 489.20 187.79 L 491.32 187.36 L 493.44 181.35 L 495.56 181.35 L 497.67 180.72 L 499.79 180.71 L 501.91 180.26 L 504.03 179.68 L 506.15 179.67 L 508.27 178.77 L 510.39 177.57 L 512.51 175.55 L 514.63 174.52 L 516.74 173.86 L 518.86 174.17 L 520.98 173.10 L 523.10 173.10 L 525.22 171.18 L 527.34 168.37 L 529.46 168.37 L 531.58 165.86 L 533.70 163.63 L 535.81 163.63 L 537.93 163.62 L 540.05 162.88 L 542.17 161.06 L 544.29 193.89 L 546.41 193.22 L 548.53 192.73 L 550.65 192.34 L 552.76 189.45 L 554.88 188.03 L 557.00 188.03 L 559.12 180.86 L 561.24 148.96 L 563.36 144.25 L 565.48 176.00 L 567.60 176.17 L 569.72 175.77 L 571.83 175.72 L 573.95 197.26 L 576.07 197.26 L 578.19 197.06 L 580.31 196.44 L 582.43 194.49 L 584.55 194.50 L 586.67 194.49 L 588.79 194.49 L 590.90 194.49 L 593.02 194.48 L 595.14 194.48 L 597.26 194.62 L 599.38 206.08 L 601.50 206.08 L 603.62 206.05 L 605.74 206.04 L 607.86 205.22 L 609.97 204.28 L 612.09 204.28 L 614.21 204.28 L 616.33 200.22 L 618.45 204.28 L 620.57 204.28 L 622.69 204.28 L 624.81 198.60 L 626.93 198.60 L 629.04 198.60 L 631.16 198.60 L 633.28 193.00 L 635.40 193.00 L 637.52 188.39 L 639.64 188.39 L 641.76 179.75 L 643.88 174.84 L 645.99 173.23 L 648.11 170.37 L 650.23 169.87 L 652.35 153.88 L 654.47 149.24 L 656.59 152.04 L 658.71 141.93 L 660.83 141.88 L 662.95 141.69 L 665.06 141.69 L 667.18 141.76 L 669.30 141.75 L 671.42 140.68 L 673.54 141.38 L 675.66 141.36 L 677.78 141.83 L 679.90 141.39 L 682.02 141.39 L 684.13 141.52 L 686.25 141.52 L 688.37 141.53 L 690.49 142.33 L 692.61 141.73 L 694.73 141.68 L 696.85 141.68 L 698.97 141.66 L 701.09 141.67 L 703.20 141.65 L 705.32 139.51 L 707.44 136.07 L 709.56 136.04 L 711.68 133.43 L 713.80 131.89 L 715.92 131.13 L 718.04 131.51 L 720.16 131.50 L 722.27 131.57 L 724.39 131.56 L 726.51 131.49 L 728.63 131.49 L 730.75 131.49 L 732.87 131.49 L 734.99 131.49 L 737.11 131.49 L 739.22 131.49 L 741.34 131.49 L 743.46 131.49 L 745.58 131.49 L 747.70 131.49 L 749.82 131.49 L 751.94 131.49 L 754.06 131.49 L 756.18 131.49 L 758.29 131.49 L 760.41 131.49 L 762.53 131.49 L 764.65 131.49 L 766.77 131.49 L 768.89 131.49 L 771.01 131.49 L 773.13 131.49 L 775.25 131.49 L 777.36 131.49 L 779.48 131.49 L 781.60 131.49 L 783.72 131.49 L 785.84 131.49 L 787.96 131.49 L 790.08 131.49 L 792.20 131.49 L 794.32 131.49 L 796.43 131.49 L 798.55 131.49 L 800.67 131.49 L 802.79 131.49 L 804.91 131.49 L 807.03 131.49 L 809.15 131.49 L 811.27 131.49 L 813.39 131.49 L 815.50 131.49 L 817.62 131.49 L 819.74 131.49 L 821.86 131.49 L 823.98 131.49 L 826.10 131.49 L 828.22 131.49 L 830.34 131.49 L 832.45 131.49 L 834.57 131.49 L 836.69 131.49 L 838.81 131.49 L 840.93 131.49 L 843.05 131.49 L 845.17 131.49 L 847.29 131.49 L 849.41 131.49 L 851.52 131.49 L 853.64 131.49 L 855.76 131.49 L 857.88 131.49 L 860.00 131.49" fill="none" stroke="#111827" stroke-width="2"/>
    <circle cx="860.00" cy="131.49" r="3" fill="#111827"/>
    <text x="40.00" y="235.00" font-size="9" fill="#111827" text-anchor="middle" transform="rotate(-45 40.00 235.00)">27.09.2025</text><text x="120.52" y="235.00" font-size="9" fill="#111827" text-anchor="middle" transform="rotate(-45 120.52 235.00)">28.09.2025</text><text x="201.03" y="235.00" font-size="9" fill="#111827" text-anchor="middle" transform="rotate(-45 201.03 235.00)">29.09.2025</text><text x="281.55" y="235.00" font-size="9" fill="#111827" text-anchor="middle" transform="rotate(-45 281.55 235.00)">04.10.2025</text><text x="362.07" y="235.00" font-size="9" fill="#111827" text-anchor="middle" transform="rotate(-45 362.07 235.00)">04.10.2025</text><text x="442.58" y="235.00" font-size="9" fill="#111827" text-anchor="middle" transform="rotate(-45 442.58 235.00)">04.10.2025</text><text x="523.10" y="235.00" font-size="9" fill="#111827" text-anchor="middle" transform="rotate(-45 523.10 235.00)">04.10.2025</text><text x="603.62" y="235.00" font-size="9" fill="#111827" text-anchor="middle" transform="rotate(-45 603.62 235.00)">05.10.2025</text><text x="684.13" y="235.00" font-size="9" fill="#111827" text-anchor="middle" transform="rotate(-45 684.13 235.00)">09.10.2025</text><text x="764.65" y="235.00" font-size="9" fill="#111827" text-anchor="middle" transform="rotate(-45 764.65 235.00)">27.10.2025</text><text x="845.17" y="235.00" font-size="9" fill="#111827" text-anchor="middle" transform="rotate(-45 845.17 235.00)">04.12.2025</text>
  </g>
</svg>