<svg xmlns="http://www.w3.org/2000/svg" width="900" height="290" style="font-family: -apple-system, BlinkMacSystemFont, 'Segoe UI', Helvetica, Arial, sans-serif;">
  <rect width="100%" height="100%" fill="white"/>
  <g>
    <line x1="40" y1="220.00" x2="860" y2="220.00" stroke="#e5e7eb"/><text x="32" y="224.00" font-size="10" fill="#111827" text-anchor="end">0</text><line x1="40" y1="175.00" x2="860" y2="175.00" stroke="#e5e7eb"/><text x="32" y="179.00" font-size="10" fill="#111827" text-anchor="end">25k</text><line x1="40" y1="130.00" x2="860" y2="130.00" stroke="#e5e7eb"/><text x="32" y="134.00" font-size="10" fill="#111827" text-anchor="end">50k</text><line x1="40" y1="85.00" x2="860" y2="85.00" stroke="#e5e7eb"/><text x="32" y="89.00" font-size="10" fill="#111827" text-anchor="end">75k</text><line x1="40" y1="40.00" x2="860" y2="40.00" stroke="#e5e7eb"/><text x="32" y="44.00" font-size="10" fill="#111827" text-anchor="end">100k</text>
    <line x1="40.00" y1="40" x2="40.00" y2="220" stroke="#e5e7eb" opacity="0.5"/><line x1="120.91" y1="40" x2="120.91" y2="220" stroke="#e5e7eb" opacity="0.5"/><line x1="201.81" y1="40" x2="201.81" y2="220" stroke="#e5e7eb" opacity="0.5"/><line x1="282.72" y1="40" x2="282.72" y2="220" stroke="#e5e7eb" opacity="0.5"/><line x1="363.63" y1="40" x2="363.63" y2="220" stroke="#e5e7eb" opacity="0.5"/><line x1="444.53" y1="40" x2="444.53" y2="220" stroke="#e5e7eb" opacity="0.5"/><line x1="525.44" y1="40" x2="525.44" y2="220" stroke="#e5e7eb" opacity="0.5"/><line x1="606.35" y1="40" x2="606.35" y2="220" stroke="#e5e7eb" opacity="0.5"/><line x1="687.25" y1="40" x2="687.25" y2="220" stroke="#e5e7eb" opacity="0.5"/><line x1="768.16" y1="40" x2="768.16" y2="220" stroke="#e5e7eb" opacity="0.5"/><line x1="849.07" y1="40" x2="849.07" y2="220" stroke="#e5e7eb" opacity="0.5"/>
    <line x1="40" y1="220" x2="860" y2="220" stroke="#9ca3af"/>
    <line x1="40" y1="40"   x2="40"   y2="220" stroke="#9ca3af"/>
    <path d="M 40.00 220.00 L 42.19 220.00 L 44.37 219.60 L 46.56 219.62 L 48.75 219.63 L 50.93 219.32 L 53.12 219.31 L 55.31 219.26 L 57.49 218.89 L 59.68 218.89 L 61.87 218.89 L 64.05 218.87 L 66.24 218.87 L 68.43 218.86 L 70.61 218.85 L 72.80 218.85 L 74.99 218.82 L 77.17 218.78 L 79.36 218.72 L 81.55 218.68 L 83.73 218.64 L 85.92 218.59 L 88.11 218.59 L 90.29 218.57 L 92.48 218.57 L 94.67 218.57 L 96.85 218.57 L 99.04 218.57 L 101.23 218.57 L 103.41 218.57 L 105.60 218.57 L 107.79 218.57 L 109.97 218.55 L 112.16 218.54 L 114.35 218.58 L 116.53 218.55 L 118.72 218.55 L 120.91 218.53 L 123.09 218.31 L 125.28 217.94 L 127.47 217.88 L 129.65 217.87 L 131.84 217.86 L 134.03 217.85 L 136.21 217.84 L 138.40 217.85 L 140.59 217.82 L 142.77 217.66 L 144.96 217.61 L 147.15 217.60 L 149.33 217.57 L 151.52 217.56 L 153.71 217.52 L 155.89 217.38 L 158.08 217.24 L 160.27 216.93 L 162.45 216.65 L 164.64 216.44 L 166.83 216.39 L 169.01 216.34 L 171.20 216.83 L 173.39 200.94 L 175.57 200.94 L 177.76 200.95 L 179.95 198.99 L 182.13 198.98 L 184.32 198.94 L 186.51 198.94 L 188.69 198.91 L 190.88 198.90 L 193.07 198.93 L 195.25 198.93 L 197.44 198.99 L 199.63 198.95 L 201.81 198.96 L 204.00 198.95 L 206.19 198.95 L 208.37 198.97 L 210.56 198.97 L 212.75 198.97 L 214.93 198.97 L 217.12 198.97 L 219.31 198.97 L 221.49 198.97 L 223.68 198.97 L 225.87 198.97 L 228.05 198.97 L 230.24 198.97 L 232.43 197.51 L 234.61 197.43 L 236.80 197.40 L 238.99 197.38 L 241.17 197.38 L 243.36 197.49 L 245.55 197.34 L 247.73 197.33 L 249.92 197.18 L 252.11 197.41 L 254.29 197.41 L 256.48 197.29 L 258.67 197.29 L 260.85 197.22 L 263.04 197.21 L 265.23 197.15 L 267.41 196.94 L 269.60 197.00 L 271.79 197.41 L 273.97 197.41 L 276.16 197.30 L 278.35 197.26 L 280.53 197.19 L 282.72 197.19 L 284.91 197.19 L 287.09 197.19 L 289.28 197.18 L 291.47 197.12 L 293.65 197.09 L 295.84 197.04 L 298.03 197.00 L 300.21 196.96 L 302.40 196.92 L 304.59 196.91 L 306.77 196.86 L 308.96 196.80 L 311.15 196.75 L 313.33 196.69 L 315.52 196.66 L 317.71 196.63 L 319.89 196.56 L 322.08 196.51 L 324.27 196.47 L 326.45 196.45 L 328.64 196.40 L 330.83 196.37 L 333.01 196.34 L 335.20 196.28 L 337.39 196.20 L 339.57 196.12 L 341.76 196.02 L 343.95 195.89 L 346.13 195.77 L 348.32 195.68 L 350.51 195.63 L 352.69 195.58 L 354.88 195.53 L 357.07 195.44 L 359.25 195.35 L 361.44 195.22 L 363.63 195.11 L 365.81 194.95 L 368.00 194.82 L 370.19 194.68 L 372.37 194.57 L 374.56 194.55 L 376.75 194.51 L 378.93 194.48 L 381.12 194.44 L 383.31 194.40 L 385.49 194.37 L 387.68 194.34 L 389.87 194.29 L 392.05 194.25 L 394.24 194.23 L 396.43 194.21 L 398.61 194.19 L 400.80 194.16 L 402.99 194.12 L 405.17 194.07 L 407.36 193.99 L 409.55 193.94 L 411.73 193.87 L 413.92 193.80 L 416.11 193.74 L 418.29 193.72 L 420.48 193.70 L 422.67 193.66 L 424.85 193.62 L 427.04 193.56 L 429.23 193.49 L 431.41 193.43 L 433.60 193.35 L 435.79 193.27 L 437.97 193.20 L 440.16 193.14 L 442.35 193.15 L 444.53 193.15 L 446.72 193.15 L 448.91 193.18 L 451.09 193.09 L 453.28 193.07 L 455.47 193.07 L 457.65 193.08 L 459.84 193.00 L 462.03 192.95 L 464.21 192.95 L 466.40 192.95 L 468.59 192.95 L 470.77 192.80 L 472.96 192.73 L 475.15 192.69 L 477.33 192.67 L 479.52 192.67 L 481.71 192.68 L 483.89 192.64 L 486.08 192.63 L 488.27 192.63 L 490.45 190.39 L 492.64 189.96 L 494.83 189.85 L 497.01 189.53 L 499.20 189.52 L 501.39 189.36 L 503.57 187.79 L 505.76 187.36 L 507.95 181.35 L 510.13 181.35 L 512.32 180.72 L 514.51 180.71 L 516.69 180.26 L 518.88 179.68 L 521.07 179.67 L 523.25 178.77 L 525.44 177.57 L 527.63 175.55 L 529.81 174.52 L 532.00 173.86 L 534.19 174.17 L 536.37 173.10 L 538.56 173.10 L 540.75 171.18 L 542.93 168.37 L 545.12 168.37 L 547.31 165.86 L 549.49 163.63 L 551.68 163.63 L 553.87 163.62 L 556.05 162.88 L 558.24 161.06 L 560.43 193.89 L 562.61 193.22 L 564.80 192.73 L 566.99 192.34 L 569.17 189.45 L 571.36 188.03 L 573.55 188.03 L 575.73 180.86 L 577.92 148.96 L 580.11 144.25 L 582.29 176.00 L 584.48 176.17 L 586.67 175.77 L 588.85 175.72 L 591.04 197.26 L 593.23 197.26 L 595.41 197.06 L 597.60 196.44 L 599.79 194.49 L 601.97 194.50 L 604.16 194.49 L 606.35 194.49 L 608.53 194.49 L 610.72 194.48 L 612.91 194.48 L 615.09 194.62 L 617.28 206.08 L 619.47 206.08 L 621.65 206.05 L 623.84 206.04 L 626.03 205.22 L 628.21 204.28 L 630.40 204.28 L 632.59 204.28 L 634.77 200.22 L 636.96 204.28 L 639.15 204.28 L 641.33 204.28 L 643.52 198.60 L 645.71 198.60 L 647.89 198.60 L 650.08 198.60 L 652.27 193.00 L 654.45 193.00 L 656.64 188.39 L 658.83 188.39 L 661.01 179.75 L 663.20 174.84 L 665.39 173.23 L 667.57 170.37 L 669.76 169.87 L 671.95 153.88 L 674.13 149.24 L 676.32 152.04 L 678.51 141.93 L 680.69 141.88 L 682.88 141.69 L 685.07 141.69 L 687.25 141.76 L 689.44 141.75 L 691.63 140.68 L 693.81 141.38 L 696.00 141.36 L 698.19 141.83 L 700.37 141.39 L 702.56 141.39 L 704.75 141.52 L 706.93 141.52 L 709.12 141.53 L 711.31 142.33 L 713.49 141.73 L 715.68 141.68 L 717.87 141.68 L 720.05 141.66 L 722.24 141.67 L 724.43 141.65 L 726.61 139.51 L 728.80 136.07 L 730.99 136.04 L 733.17 133.43 L 735.36 131.89 L 737.55 131.13 L 739.73 131.51 L 741.92 131.50 L 744.11 131.57 L 746.29 131.56 L 748.48 131.49 L 750.67 131.49 L 752.85 131.49 L 755.04 131.49 L 757.23 131.49 L 759.41 131.49 L 761.60 131.49 L 763.79 131.49 L 765.97 131.49 L 768.16 131.49 L 770.35 131.49 L 772.53 131.49 L 774.72 131.49 L 776.91 131.49 L 779.09 131.49 L 781.28 131.49 L 783.47 131.49 L 785.65 131.49 L 787.84 131.49 L 790.03 131.49 L 792.21 131.49 L 794.40 131.49 L 796.59 131.49 L 798.77 131.49 L 800.96 131.49 L 803.15 131.49 L 805.33 131.49 L 807.52 131.49 L 809.71 131.49 L 811.89 131.49 L 814.08 131.49 L 816.27 131.49 L 818.45 131.49 L 820.64 131.49 L 822.83 131.49 L 825.01 131.49 L 827.20 131.49 L 829.39 131.49 L 831.57 131.49 L 833.76 131.49 L 835.95 131.49 L 838.13 131.49 L 840.32 131.49 L 842.51 131.49 L 844.69 131.49 L 846.88 131.49 L 849.07 131.49 L 851.25 131.49 L 853.44 131.49 L 855.63 131.49 L 857.81 131.49 L 860.00 131.49" fill="none" stroke="#111827" stroke-width="2"/>
    <circle cx="860.00" cy="131.49" r="3" fill="#111827"/>
    <text x="40.00" y="235.00" font-size="9" fill="#111827" text-anchor="middle" transform="rotate(-45 40.00 235.00)">27.09.2025</text><text x="120.91" y="235.00" font-size="9" fill="#111827" text-anchor="middle" transform="rotate(-45 120.91 235.00)">28.09.2025</text><text x="201.81" y="235.00" font-size="9" fill="#111827" text-anchor="middle" transform="rotate(-45 201.81 235.00)">28.09.2025</text><text x="282.72" y="235.00" font-size="9" fill="#111827" text-anchor="middle" transform="rotate(-45 282.72 235.00)">04.10.2025</text><text x="363.63" y="235.00" font-size="9" fill="#111827" text-anchor="middle" transform="rotate(-45 363.63 235.00)">04.10.2025</text><text x="444.53" y="235.00" font-size="9" fill="#111827" text-anchor="middle" transform="rotate(-45 444.53 235.00)">04.10.2025</text><text x="525.44" y="235.00" font-size="9" fill="#111827" text-anchor="middle" transform="rotate(-45 525.44 235.00)">04.10.2025</text><text x="606.35" y="235.00" font-size="9" fill="#111827" text-anchor="middle" transform="rotate(-45 606.35 235.00)">05.10.2025</text><text x="687.25" y="235.00" font-size="9" fill="#111827" text-anchor="middle" transform="rotate(-45 687.25 235.00)">08.10.2025</text><text x="768.16" y="235.00" font-size="9" fill="#111827" text-anchor="middle" transform="rotate(-45 768.16 235.00)">18.10.2025</text><text x="849.07" y="235.00" font-size="9" fill="#111827" text-anchor="middle" transform="rotate(-45 849.07 235.00)">24.11.2025</text>
  </g>
</svg>