<svg xmlns="http://www.w3.org/2000/svg" width="900" height="290" style="font-family: -apple-system, BlinkMacSystemFont, 'Segoe UI', Helvetica, Arial, sans-serif;">
  <rect width="100%" height="100%" fill="white"/>
  <g>
    <line x1="40" y1="220.00" x2="860" y2="220.00" stroke="#e5e7eb"/><text x="32" y="224.00" font-size="10" fill="#111827" text-anchor="end">0</text><line x1="40" y1="175.00" x2="860" y2="175.00" stroke="#e5e7eb"/><text x="32" y="179.00" font-size="10" fill="#111827" text-anchor="end">25k</text><line x1="40" y1="130.00" x2="860" y2="130.00" stroke="#e5e7eb"/><text x="32" y="134.00" font-size="10" fill="#111827" text-anchor="end">50k</text><line x1="40" y1="85.00" x2="860" y2="85.00" stroke="#e5e7eb"/><text x="32" y="89.00" font-size="10" fill="#111827" text-anchor="end">75k</text><line x1="40" y1="40.00" x2="860" y2="40.00" stroke="#e5e7eb"/><text x="32" y="44.00" font-size="10" fill="#111827" text-anchor="end">100k</text>
    <line x1="40.00" y1="40" x2="40.00" y2="220" stroke="#e5e7eb" opacity="0.5"/><line x1="121.37" y1="40" x2="121.37" y2="220" stroke="#e5e7eb" opacity="0.5"/><line x1="202.75" y1="40" x2="202.75" y2="220" stroke="#e5e7eb" opacity="0.5"/><line x1="284.12" y1="40" x2="284.12" y2="220" stroke="#e5e7eb" opacity="0.5"/><line x1="365.50" y1="40" x2="365.50" y2="220" stroke="#e5e7eb" opacity="0.5"/><line x1="446.87" y1="40" x2="446.87" y2="220" stroke="#e5e7eb" opacity="0.5"/><line x1="528.24" y1="40" x2="528.24" y2="220" stroke="#e5e7eb" opacity="0.5"/><line x1="609.62" y1="40" x2="609.62" y2="220" stroke="#e5e7eb" opacity="0.5"/><line x1="690.99" y1="40" x2="690.99" y2="220" stroke="#e5e7eb" opacity="0.5"/><line x1="772.37" y1="40" x2="772.37" y2="220" stroke="#e5e7eb" opacity="0.5"/><line x1="853.74" y1="40" x2="853.74" y2="220" stroke="#e5e7eb" opacity="0.5"/>
    <line x1="40" y1="220" x2="860" y2="220" stroke="#9ca3af"/>
    <line x1="40" y1="40"   x2="40"   y2="220" stroke="#9ca3af"/>
    <path d="M 40.00 220.00 L 42.09 220.00 L 44.17 219.60 L 46.26 219.62 L 48.35 219.63 L 50.43 219.32 L 52.52 219.31 L 54.61 219.26 L 56.69 218.89 L 58.78 218.89 L 60.87 218.89 L 62.95 218.87 L 65.04 218.87 L 67.12 218.86 L 69.21 218.85 L 71.30 218.85 L 73.38 218.82 L 75.47 218.78 L 77.56 218.72 L 79.64 218.68 L 81.73 218.64 L 83.82 218.59 L 85.90 218.59 L 87.99 218.57 L 90.08 218.57 L 92.16 218.57 L 94.25 218.57 L 96.34 218.57 L 98.42 218.57 L 100.51 218.57 L 102.60 218.57 L 104.68 218.57 L 106.77 218.55 L 108.85 218.54 L 110.94 218.58 L 113.03 218.55 L 115.11 218.55 L 117.20 218.53 L 119.29 218.31 L 121.37 217.94 L 123.46 217.88 L 125.55 217.87 L 127.63 217.86 L 129.72 217.85 L 131.81 217.84 L 133.89 217.85 L 135.98 217.82 L 138.07 217.66 L 140.15 217.61 L 142.24 217.60 L 144.33 217.57 L 146.41 217.56 L 148.50 217.52 L 150.59 217.38 L 152.67 217.24 L 154.76 216.93 L 156.84 216.65 L 158.93 216.44 L 161.02 216.39 L 163.10 216.34 L 165.19 216.83 L 167.28 200.94 L 169.36 200.94 L 171.45 200.95 L 173.54 198.99 L 175.62 198.98 L 177.71 198.94 L 179.80 198.94 L 181.88 198.91 L 183.97 198.90 L 186.06 198.93 L 188.14 198.93 L 190.23 198.99 L 192.32 198.95 L 194.40 198.96 L 196.49 198.95 L 198.58 198.95 L 200.66 198.97 L 202.75 198.97 L 204.83 198.97 L 206.92 198.97 L 209.01 198.97 L 211.09 198.97 L 213.18 198.97 L 215.27 198.97 L 217.35 198.97 L 219.44 198.97 L 221.53 198.97 L 223.61 197.51 L 225.70 197.43 L 227.79 197.40 L 229.87 197.38 L 231.96 197.38 L 234.05 197.49 L 236.13 197.34 L 238.22 197.33 L 240.31 197.18 L 242.39 197.41 L 244.48 197.41 L 246.56 197.29 L 248.65 197.29 L 250.74 197.22 L 252.82 197.21 L 254.91 197.15 L 257.00 196.94 L 259.08 197.00 L 261.17 197.41 L 263.26 197.41 L 265.34 197.30 L 267.43 197.26 L 269.52 197.19 L 271.60 197.19 L 273.69 197.19 L 275.78 197.19 L 277.86 197.18 L 279.95 197.12 L 282.04 197.09 L 284.12 197.04 L 286.21 197.00 L 288.30 196.96 L 290.38 196.92 L 292.47 196.91 L 294.55 196.86 L 296.64 196.80 L 298.73 196.75 L 300.81 196.69 L 302.90 196.66 L 304.99 196.63 L 307.07 196.56 L 309.16 196.51 L 311.25 196.47 L 313.33 196.45 L 315.42 196.40 L 317.51 196.37 L 319.59 196.34 L 321.68 196.28 L 323.77 196.20 L 325.85 196.12 L 327.94 196.02 L 330.03 195.89 L 332.11 195.77 L 334.20 195.68 L 336.28 195.63 L 338.37 195.58 L 340.46 195.53 L 342.54 195.44 L 344.63 195.35 L 346.72 195.22 L 348.80 195.11 L 350.89 194.95 L 352.98 194.82 L 355.06 194.68 L 357.15 194.57 L 359.24 194.55 L 361.32 194.51 L 363.41 194.48 L 365.50 194.44 L 367.58 194.40 L 369.67 194.37 L 371.76 194.34 L 373.84 194.29 L 375.93 194.25 L 378.02 194.23 L 380.10 194.21 L 382.19 194.19 L 384.27 194.16 L 386.36 194.12 L 388.45 194.07 L 390.53 193.99 L 392.62 193.94 L 394.71 193.87 L 396.79 193.80 L 398.88 193.74 L 400.97 193.72 L 403.05 193.70 L 405.14 193.66 L 407.23 193.62 L 409.31 193.56 L 411.40 193.49 L 413.49 193.43 L 415.57 193.35 L 417.66 193.27 L 419.75 193.20 L 421.83 193.14 L 423.92 193.15 L 426.01 193.15 L 428.09 193.15 L 430.18 193.18 L 432.26 193.09 L 434.35 193.07 L 436.44 193.07 L 438.52 193.08 L 440.61 193.00 L 442.70 192.95 L 444.78 192.95 L 446.87 192.95 L 448.96 192.95 L 451.04 192.80 L 453.13 192.73 L 455.22 192.69 L 457.30 192.67 L 459.39 192.67 L 461.48 192.68 L 463.56 192.64 L 465.65 192.63 L 467.74 192.63 L 469.82 190.39 L 471.91 189.96 L 473.99 189.85 L 476.08 189.53 L 478.17 189.52 L 480.25 189.36 L 482.34 187.79 L 484.43 187.36 L 486.51 181.35 L 488.60 181.35 L 490.69 180.72 L 492.77 180.71 L 494.86 180.26 L 496.95 179.68 L 499.03 179.67 L 501.12 178.77 L 503.21 177.57 L 505.29 175.55 L 507.38 174.52 L 509.47 173.86 L 511.55 174.17 L 513.64 173.10 L 515.73 173.10 L 517.81 171.18 L 519.90 168.37 L 521.98 168.37 L 524.07 165.86 L 526.16 163.63 L 528.24 163.63 L 530.33 163.62 L 532.42 162.88 L 534.50 161.06 L 536.59 193.89 L 538.68 193.22 L 540.76 192.73 L 542.85 192.34 L 544.94 189.45 L 547.02 188.03 L 549.11 188.03 L 551.20 180.86 L 553.28 148.96 L 555.37 144.25 L 557.46 176.00 L 559.54 176.17 L 561.63 175.77 L 563.72 175.72 L 565.80 197.26 L 567.89 197.26 L 569.97 197.06 L 572.06 196.44 L 574.15 194.49 L 576.23 194.50 L 578.32 194.49 L 580.41 194.49 L 582.49 194.49 L 584.58 194.48 L 586.67 194.48 L 588.75 194.62 L 590.84 206.08 L 592.93 206.08 L 595.01 206.05 L 597.10 206.04 L 599.19 205.22 L 601.27 204.28 L 603.36 204.28 L 605.45 204.28 L 607.53 200.22 L 609.62 204.28 L 611.70 204.28 L 613.79 204.28 L 615.88 198.60 L 617.96 198.60 L 620.05 198.60 L 622.14 198.60 L 624.22 193.00 L 626.31 193.00 L 628.40 188.39 L 630.48 188.39 L 632.57 179.75 L 634.66 174.84 L 636.74 173.23 L 638.83 170.37 L 640.92 169.87 L 643.00 153.88 L 645.09 149.24 L 647.18 152.04 L 649.26 141.93 L 651.35 141.88 L 653.44 141.69 L 655.52 141.69 L 657.61 141.76 L 659.69 141.75 L 661.78 140.68 L 663.87 141.38 L 665.95 141.36 L 668.04 141.83 L 670.13 141.39 L 672.21 141.39 L 674.30 141.52 L 676.39 141.52 L 678.47 141.53 L 680.56 142.33 L 682.65 141.73 L 684.73 141.68 L 686.82 141.68 L 688.91 141.66 L 690.99 141.67 L 693.08 141.65 L 695.17 139.51 L 697.25 136.07 L 699.34 136.04 L 701.42 133.43 L 703.51 131.89 L 705.60 131.13 L 707.68 131.51 L 709.77 131.50 L 711.86 131.57 L 713.94 131.56 L 716.03 131.49 L 718.12 131.49 L 720.20 131.49 L 722.29 131.49 L 724.38 131.49 L 726.46 131.49 L 728.55 131.49 L 730.64 131.49 L 732.72 131.49 L 734.81 131.49 L 736.90 131.49 L 738.98 131.49 L 741.07 131.49 L 743.16 131.49 L 745.24 131.49 L 747.33 131.49 L 749.41 131.49 L 751.50 131.49 L 753.59 131.49 L 755.67 131.49 L 757.76 131.49 L 759.85 131.49 L 761.93 131.49 L 764.02 131.49 L 766.11 131.49 L 768.19 131.49 L 770.28 131.49 L 772.37 131.49 L 774.45 131.49 L 776.54 131.49 L 778.63 131.49 L 780.71 131.49 L 782.80 131.49 L 784.89 131.49 L 786.97 131.49 L 789.06 131.49 L 791.15 131.49 L 793.23 131.49 L 795.32 131.49 L 797.40 131.49 L 799.49 131.49 L 801.58 131.49 L 803.66 131.49 L 805.75 131.49 L 807.84 131.49 L 809.92 131.49 L 812.01 131.49 L 814.10 131.49 L 816.18 131.49 L 818.27 131.49 L 820.36 131.49 L 822.44 131.49 L 824.53 131.49 L 826.62 131.49 L 828.70 131.49 L 830.79 131.49 L 832.88 131.49 L 834.96 131.49 L 837.05 131.49 L 839.13 131.49 L 841.22 131.49 L 843.31 131.49 L 845.39 131.49 L 847.48 131.49 L 849.57 131.49 L 851.65 131.49 L 853.74 131.49 L 855.83 131.49 L 857.91 131.49 L 860.00 131.49" fill="none" stroke="#111827" stroke-width="2"/>
    <circle cx="860.00" cy="131.49" r="3" fill="#111827"/>
    <text x="40.00" y="235.00" font-size="9" fill="#111827" text-anchor="middle" transform="rotate(-45 40.00 235.00)">27.09.2025</text><text x="121.37" y="235.00" font-size="9" fill="#111827" text-anchor="middle" transform="rotate(-45 121.37 235.00)">28.09.2025</text><text x="202.75" y="235.00" font-size="9" fill="#111827" text-anchor="middle" transform="rotate(-45 202.75 235.00)">29.09.2025</text><text x="284.12" y="235.00" font-size="9" fill="#111827" text-anchor="middle" transform="rotate(-45 284.12 235.00)">04.10.2025</text><text x="365.50" y="235.00" font-size="9" fill="#111827" text-anchor="middle" transform="rotate(-45 365.50 235.00)">04.10.2025</text><text x="446.87" y="235.00" font-size="9" fill="#111827" text-anchor="middle" transform="rotate(-45 446.87 235.00)">04.10.2025</text><text x="528.24" y="235.00" font-size="9" fill="#111827" text-anchor="middle" transform="rotate(-45 528.24 235.00)">04.10.2025</text><text x="609.62" y="235.00" font-size="9" fill="#111827" text-anchor="middle" transform="rotate(-45 609.62 235.00)">07.10.2025</text><text x="690.99" y="235.00" font-size="9" fill="#111827" text-anchor="middle" transform="rotate(-45 690.99 235.00)">09.10.2025</text><text x="772.37" y="235.00" font-size="9" fill="#111827" text-anchor="middle" transform="rotate(-45 772.37 235.00)">05.11.2025</text><text x="853.74" y="235.00" font-size="9" fill="#111827" text-anchor="middle" transform="rotate(-45 853.74 235.00)">14.12.2025</text>
  </g>
</svg>