<svg xmlns="http://www.w3.org/2000/svg" width="900" height="290" style="font-family: -apple-system, BlinkMacSystemFont, 'Segoe UI', Helvetica, Arial, sans-serif;">
  <rect width="100%" height="100%" fill="#0d1117"/>
  <g>
    <line x1="40" y1="220.00" x2="860" y2="220.00" stroke="#30363d"/><text x="32" y="224.00" font-size="10" fill="#c9d1d9" text-anchor="end">0</text><line x1="40" y1="175.00" x2="860" y2="175.00" stroke="#30363d"/><text x="32" y="179.00" font-size="10" fill="#c9d1d9" text-anchor="end">25k</text><line x1="40" y1="130.00" x2="860" y2="130.00" stroke="#30363d"/><text x="32" y="134.00" font-size="10" fill="#c9d1d9" text-anchor="end">50k</text><line x1="40" y1="85.00" x2="860" y2="85.00" stroke="#30363d"/><text x="32" y="89.00" font-size="10" fill="#c9d1d9" text-anchor="end">75k</text><line x1="40" y1="40.00" x2="860" y2="40.00" stroke="#30363d"/><text x="32" y="44.00" font-size="10" fill="#c9d1d9" text-anchor="end">100k</text>
    <line x1="40.00" y1="40" x2="40.00" y2="220" stroke="#30363d" opacity="0.5"/><line x1="120.94" y1="40" x2="120.94" y2="220" stroke="#30363d" opacity="0.5"/><line x1="201.89" y1="40" x2="201.89" y2="220" stroke="#30363d" opacity="0.5"/><line x1="282.83" y1="40" x2="282.83" y2="220" stroke="#30363d" opacity="0.5"/><line x1="363.78" y1="40" x2="363.78" y2="220" stroke="#30363d" opacity="0.5"/><line x1="444.72" y1="40" x2="444.72" y2="220" stroke="#30363d" opacity="0.5"/><line x1="525.67" y1="40" x2="525.67" y2="220" stroke="#30363d" opacity="0.5"/><line x1="606.61" y1="40" x2="606.61" y2="220" stroke="#30363d" opacity="0.5"/><line x1="687.55" y1="40" x2="687.55" y2="220" stroke="#30363d" opacity="0.5"/><line x1="768.50" y1="40" x2="768.50" y2="220" stroke="#30363d" opacity="0.5"/><line x1="849.44" y1="40" x2="849.44" y2="220" stroke="#30363d" opacity="0.5"/>
    <line x1="40" y1="220" x2="860" y2="220" stroke="#30363d"/>
    <line x1="40" y1="40"   x2="40"   y2="220" stroke="#30363d"/>
    <path d="M 40.00 220.00 L 41.76 220.00 L 43.52 219.60 L 45.28 219.62 L 47.04 219.63 L 48.80 219.32 L 50.56 219.31 L 52.32 219.26 L 54.08 218.89 L 55.84 218.89 L 57.60 218.89 L 59.36 218.87 L 61.12 218.87 L 62.88 218.86 L 64.64 218.85 L 66.39 218.85 L 68.15 218.82 L 69.91 218.78 L 71.67 218.72 L 73.43 218.68 L 75.19 218.64 L 76.95 218.59 L 78.71 218.59 L 80.47 218.57 L 82.23 218.57 L 83.99 218.57 L 85.75 218.57 L 87.51 218.57 L 89.27 218.57 L 91.03 218.57 L 92.79 218.57 L 94.55 218.57 L 96.31 218.55 L 98.07 218.54 L 99.83 218.58 L 101.59 218.55 L 103.35 218.55 L 105.11 218.53 L 106.87 218.31 L 108.63 217.94 L 110.39 217.88 L 112.15 217.87 L 113.91 217.86 L 115.67 217.85 L 117.42 217.84 L 119.18 217.85 L 120.94 217.82 L 122.70 217.66 L 124.46 217.61 L 126.22 217.60 L 127.98 217.57 L 129.74 217.56 L 131.50 217.52 L 133.26 217.38 L 135.02 217.24 L 136.78 216.93 L 138.54 216.65 L 140.30 216.44 L 142.06 216.39 L 143.82 216.34 L 145.58 216.83 L 147.34 200.94 L 149.10 200.94 L 150.86 200.95 L 152.62 198.99 L 154.38 198.98 L 156.14 198.94 L 157.90 198.94 L 159.66 198.91 L 161.42 198.90 L 163.18 198.93 L 164.94 198.93 L 166.70 198.99 L 168.45 198.95 L 170.21 198.96 L 171.97 198.95 L 173.73 198.95 L 175.49 198.97 L 177.25 198.97 L 179.01 198.97 L 180.77 198.97 L 182.53 198.97 L 184.29 198.97 L 186.05 198.97 L 187.81 198.97 L 189.57 198.97 L 191.33 198.97 L 193.09 198.97 L 194.85 197.51 L 196.61 197.43 L 198.37 197.40 L 200.13 197.38 L 201.89 197.38 L 203.65 197.49 L 205.41 197.34 L 207.17 197.33 L 208.93 197.18 L 210.69 197.41 L 212.45 197.41 L 214.21 197.29 L 215.97 197.29 L 217.73 197.22 L 219.48 197.21 L 221.24 197.15 L 223.00 196.94 L 224.76 197.00 L 226.52 197.41 L 228.28 197.41 L 230.04 197.30 L 231.80 197.26 L 233.56 197.19 L 235.32 197.19 L 237.08 197.19 L 238.84 197.19 L 240.60 197.18 L 242.36 197.12 L 244.12 197.09 L 245.88 197.04 L 247.64 197.00 L 249.40 196.96 L 251.16 196.92 L 252.92 196.91 L 254.68 196.86 L 256.44 196.80 L 258.20 196.75 L 259.96 196.69 L 261.72 196.66 L 263.48 196.63 L 265.24 196.56 L 267.00 196.51 L 268.76 196.47 L 270.52 196.45 L 272.27 196.40 L 274.03 196.37 L 275.79 196.34 L 277.55 196.28 L 279.31 196.20 L 281.07 196.12 L 282.83 196.02 L 284.59 195.89 L 286.35 195.77 L 288.11 195.68 L 289.87 195.63 L 291.63 195.58 L 293.39 195.53 L 295.15 195.44 L 296.91 195.35 L 298.67 195.22 L 300.43 195.11 L 302.19 194.95 L 303.95 194.82 L 305.71 194.68 L 307.47 194.57 L 309.23 194.55 L 310.99 194.51 L 312.75 194.48 L 314.51 194.44 L 316.27 194.40 L 318.03 194.37 L 319.79 194.34 L 321.55 194.29 L 323.30 194.25 L 325.06 194.23 L 326.82 194.21 L 328.58 194.19 L 330.34 194.16 L 332.10 194.12 L 333.86 194.07 L 335.62 193.99 L 337.38 193.94 L 339.14 193.87 L 340.90 193.80 L 342.66 193.74 L 344.42 193.72 L 346.18 193.70 L 347.94 193.66 L 349.70 193.62 L 351.46 193.56 L 353.22 193.49 L 354.98 193.43 L 356.74 193.35 L 358.50 193.27 L 360.26 193.20 L 362.02 193.14 L 363.78 193.15 L 365.54 193.15 L 367.30 193.15 L 369.06 193.18 L 370.82 193.09 L 372.58 193.07 L 374.33 193.07 L 376.09 193.08 L 377.85 193.00 L 379.61 192.95 L 381.37 192.95 L 383.13 192.95 L 384.89 192.95 L 386.65 192.80 L 388.41 192.73 L 390.17 192.69 L 391.93 192.67 L 393.69 192.67 L 395.45 192.68 L 397.21 192.64 L 398.97 192.63 L 400.73 192.63 L 402.49 190.39 L 404.25 189.96 L 406.01 189.85 L 407.77 189.53 L 409.53 189.52 L 411.29 189.36 L 413.05 187.79 L 414.81 187.36 L 416.57 181.35 L 418.33 181.35 L 420.09 180.72 L 421.85 180.71 L 423.61 180.26 L 425.36 179.68 L 427.12 179.67 L 428.88 178.77 L 430.64 177.57 L 432.40 175.55 L 434.16 174.52 L 435.92 173.86 L 437.68 174.17 L 439.44 173.10 L 441.20 173.10 L 442.96 171.18 L 444.72 168.37 L 446.48 168.37 L 448.24 165.86 L 450.00 163.63 L 451.76 163.63 L 453.52 163.62 L 455.28 162.88 L 457.04 161.06 L 458.80 193.89 L 460.56 193.22 L 462.32 192.73 L 464.08 192.34 L 465.84 189.45 L 467.60 188.03 L 469.36 188.03 L 471.12 180.86 L 472.88 148.96 L 474.64 144.25 L 476.39 176.00 L 478.15 176.17 L 479.91 175.77 L 481.67 175.72 L 483.43 197.26 L 485.19 197.26 L 486.95 197.06 L 488.71 196.44 L 490.47 194.49 L 492.23 194.50 L 493.99 194.49 L 495.75 194.49 L 497.51 194.49 L 499.27 194.48 L 501.03 194.48 L 502.79 194.62 L 504.55 206.08 L 506.31 206.08 L 508.07 206.05 L 509.83 206.04 L 511.59 205.22 L 513.35 204.28 L 515.11 204.28 L 516.87 204.28 L 518.63 200.22 L 520.39 204.28 L 522.15 204.28 L 523.91 204.28 L 525.67 198.60 L 527.42 198.60 L 529.18 198.60 L 530.94 198.60 L 532.70 193.00 L 534.46 193.00 L 536.22 188.39 L 537.98 188.39 L 539.74 179.75 L 541.50 174.84 L 543.26 173.23 L 545.02 170.37 L 546.78 169.87 L 548.54 153.88 L 550.30 149.24 L 552.06 152.04 L 553.82 141.93 L 555.58 141.88 L 557.34 141.69 L 559.10 141.69 L 560.86 141.76 L 562.62 141.75 L 564.38 140.68 L 566.14 141.38 L 567.90 141.36 L 569.66 141.83 L 571.42 141.39 L 573.18 141.39 L 574.94 141.52 L 576.70 141.52 L 578.45 141.53 L 580.21 142.33 L 581.97 141.73 L 583.73 141.68 L 585.49 141.68 L 587.25 141.66 L 589.01 141.67 L 590.77 141.65 L 592.53 139.51 L 594.29 136.07 L 596.05 136.04 L 597.81 133.43 L 599.57 131.89 L 601.33 131.13 L 603.09 131.51 L 604.85 131.50 L 606.61 131.57 L 608.37 131.56 L 610.13 131.49 L 611.89 131.49 L 613.65 131.49 L 615.41 131.49 L 617.17 131.49 L 618.93 131.49 L 620.69 131.49 L 622.45 131.49 L 624.21 131.49 L 625.97 131.49 L 627.73 131.49 L 629.48 131.49 L 631.24 131.49 L 633.00 131.49 L 634.76 131.49 L 636.52 131.49 L 638.28 131.49 L 640.04 131.49 L 641.80 131.49 L 643.56 131.49 L 645.32 131.49 L 647.08 131.49 L 648.84 131.49 L 650.60 131.49 L 652.36 131.49 L 654.12 131.49 L 655.88 131.49 L 657.64 131.49 L 659.40 131.49 L 661.16 131.49 L 662.92 131.49 L 664.68 131.49 L 666.44 131.49 L 668.20 131.49 L 669.96 131.49 L 671.72 131.49 L 673.48 131.49 L 675.24 131.49 L 677.00 131.49 L 678.76 131.49 L 680.52 131.49 L 682.27 131.49 L 684.03 131.49 L 685.79 131.49 L 687.55 131.49 L 689.31 131.49 L 691.07 131.49 L 692.83 131.49 L 694.59 131.49 L 696.35 131.49 L 698.11 131.49 L 699.87 131.49 L 701.63 131.49 L 703.39 131.49 L 705.15 131.49 L 706.91 131.49 L 708.67 131.49 L 710.43 131.49 L 712.19 131.49 L 713.95 131.49 L 715.71 131.49 L 717.47 131.49 L 719.23 131.49 L 720.99 131.49 L 722.75 131.49 L 724.51 131.49 L 726.27 131.49 L 728.03 131.49 L 729.79 131.49 L 731.55 131.49 L 733.30 131.49 L 735.06 131.49 L 736.82 131.49 L 738.58 131.49 L 740.34 131.49 L 742.10 131.49 L 743.86 131.49 L 745.62 131.49 L 747.38 131.49 L 749.14 131.49 L 750.90 131.49 L 752.66 131.49 L 754.42 131.49 L 756.18 131.49 L 757.94 131.49 L 759.70 131.49 L 761.46 131.49 L 763.22 131.49 L 764.98 131.49 L 766.74 131.49 L 768.50 131.49 L 770.26 131.49 L 772.02 131.49 L 773.78 131.49 L 775.54 131.49 L 777.30 131.49 L 779.06 131.49 L 780.82 131.49 L 782.58 131.49 L 784.33 131.49 L 786.09 131.49 L 787.85 131.49 L 789.61 131.49 L 791.37 131.49 L 793.13 131.49 L 794.89 131.49 L 796.65 131.49 L 798.41 131.49 L 800.17 131.49 L 801.93 131.49 L 803.69 131.49 L 805.45 131.49 L 807.21 131.49 L 808.97 131.49 L 810.73 131.49 L 812.49 131.49 L 814.25 131.49 L 816.01 131.49 L 817.77 131.49 L 819.53 131.49 L 821.29 131.49 L 823.05 131.49 L 824.81 131.49 L 826.57 131.49 L 828.33 131.49 L 830.09 131.49 L 831.85 131.49 L 833.61 131.49 L 835.36 131.49 L 837.12 131.49 L 838.88 131.49 L 840.64 131.49 L 842.40 131.49 L 844.16 131.49 L 845.92 131.49 L 847.68 131.49 L 849.44 131.49 L 851.20 131.49 L 852.96 131.49 L 854.72 131.49 L 856.48 131.49 L 858.24 131.49 L 860.00 131.49" fill="none" stroke="#3fb950" stroke-width="2"/>
    <circle cx="860.00" cy="131.49" r="3" fill="#3fb950"/>
    <text x="40.00" y="235.00" font-size="9" fill="#c9d1d9" text-anchor="middle" transform="rotate(-45 40.00 235.00)">27.09.2025</text><text x="120.94" y="235.00" font-size="9" fill="#c9d1d9" text-anchor="middle" transform="rotate(-45 120.94 235.00)">28.09.2025</text><text x="201.89" y="235.00" font-size="9" fill="#c9d1d9" text-anchor="middle" transform="rotate(-45 201.89 235.00)">29.09.2025</text><text x="282.83" y="235.00" font-size="9" fill="#c9d1d9" text-anchor="middle" transform="rotate(-45 282.83 235.00)">04.10.2025</text><text x="363.78" y="235.00" font-size="9" fill="#c9d1d9" text-anchor="middle" transform="rotate(-45 363.78 235.00)">04.10.2025</text><text x="444.72" y="235.00" font-size="9" fill="#c9d1d9" text-anchor="middle" transform="rotate(-45 444.72 235.00)">04.10.2025</text><text x="525.67" y="235.00" font-size="9" fill="#c9d1d9" text-anchor="middle" transform="rotate(-45 525.67 235.00)">07.10.2025</text><text x="606.61" y="235.00" font-size="9" fill="#c9d1d9" text-anchor="middle" transform="rotate(-45 606.61 235.00)">10.10.2025</text><text x="687.55" y="235.00" font-size="9" fill="#c9d1d9" text-anchor="middle" transform="rotate(-45 687.55 235.00)">22.11.2025</text><text x="768.50" y="235.00" font-size="9" fill="#c9d1d9" text-anchor="middle" transform="rotate(-45 768.50 235.00)">07.01.2026</text><text x="849.44" y="235.00" font-size="9" fill="#c9d1d9" text-anchor="middle" transform="rotate(-45 849.44 235.00)">19.02.2026</text>
  </g>
</svg>