<svg xmlns="http://www.w3.org/2000/svg" width="900" height="290" style="font-family: -apple-system, BlinkMacSystemFont, 'Segoe UI', Helvetica, Arial, sans-serif;">
  <rect width="100%" height="100%" fill="white"/>
  <g>
    <line x1="40" y1="220.00" x2="860" y2="220.00" stroke="#e5e7eb"/><text x="32" y="224.00" font-size="10" fill="#111827" text-anchor="end">0</text><line x1="40" y1="175.00" x2="860" y2="175.00" stroke="#e5e7eb"/><text x="32" y="179.00" font-size="10" fill="#111827" text-anchor="end">25k</text><line x1="40" y1="130.00" x2="860" y2="130.00" stroke="#e5e7eb"/><text x="32" y="134.00" font-size="10" fill="#111827" text-anchor="end">50k</text><line x1="40" y1="85.00" x2="860" y2="85.00" stroke="#e5e7eb"/><text x="32" y="89.00" font-size="10" fill="#111827" text-anchor="end">75k</text><line x1="40" y1="40.00" x2="860" y2="40.00" stroke="#e5e7eb"/><text x="32" y="44.00" font-size="10" fill="#111827" text-anchor="end">100k</text>
    <line x1="40.00" y1="40" x2="40.00" y2="220" stroke="#e5e7eb" opacity="0.5"/><line x1="121.62" y1="40" x2="121.62" y2="220" stroke="#e5e7eb" opacity="0.5"/><line x1="203.24" y1="40" x2="203.24" y2="220" stroke="#e5e7eb" opacity="0.5"/><line x1="284.86" y1="40" x2="284.86" y2="220" stroke="#e5e7eb" opacity="0.5"/><line x1="366.48" y1="40" x2="366.48" y2="220" stroke="#e5e7eb" opacity="0.5"/><line x1="448.10" y1="40" x2="448.10" y2="220" stroke="#e5e7eb" opacity="0.5"/><line x1="529.72" y1="40" x2="529.72" y2="220" stroke="#e5e7eb" opacity="0.5"/><line x1="611.34" y1="40" x2="611.34" y2="220" stroke="#e5e7eb" opacity="0.5"/><line x1="692.96" y1="40" x2="692.96" y2="220" stroke="#e5e7eb" opacity="0.5"/><line x1="774.58" y1="40" x2="774.58" y2="220" stroke="#e5e7eb" opacity="0.5"/><line x1="856.20" y1="40" x2="856.20" y2="220" stroke="#e5e7eb" opacity="0.5"/>
    <line x1="40" y1="220" x2="860" y2="220" stroke="#9ca3af"/>
    <line x1="40" y1="40"   x2="40"   y2="220" stroke="#9ca3af"/>
    <path d="M 40.00 220.00 L 41.90 220.00 L 43.80 219.60 L 45.69 219.62 L 47.59 219.63 L 49.49 219.32 L 51.39 219.31 L 53.29 219.26 L 55.19 218.89 L 57.08 218.89 L 58.98 218.89 L 60.88 218.87 L 62.78 218.87 L 64.68 218.86 L 66.57 218.85 L 68.47 218.85 L 70.37 218.82 L 72.27 218.78 L 74.17 218.72 L 76.06 218.68 L 77.96 218.64 L 79.86 218.59 L 81.76 218.59 L 83.66 218.57 L 85.56 218.57 L 87.45 218.57 L 89.35 218.57 L 91.25 218.57 L 93.15 218.57 L 95.05 218.57 L 96.94 218.57 L 98.84 218.57 L 100.74 218.55 L 102.64 218.54 L 104.54 218.58 L 106.44 218.55 L 108.33 218.55 L 110.23 218.53 L 112.13 218.31 L 114.03 217.94 L 115.93 217.88 L 117.82 217.87 L 119.72 217.86 L 121.62 217.85 L 123.52 217.84 L 125.42 217.85 L 127.31 217.82 L 129.21 217.66 L 131.11 217.61 L 133.01 217.60 L 134.91 217.57 L 136.81 217.56 L 138.70 217.52 L 140.60 217.38 L 142.50 217.24 L 144.40 216.93 L 146.30 216.65 L 148.19 216.44 L 150.09 216.39 L 151.99 216.34 L 153.89 216.83 L 155.79 200.94 L 157.69 200.94 L 159.58 200.95 L 161.48 198.99 L 163.38 198.98 L 165.28 198.94 L 167.18 198.94 L 169.07 198.91 L 170.97 198.90 L 172.87 198.93 L 174.77 198.93 L 176.67 198.99 L 178.56 198.95 L 180.46 198.96 L 182.36 198.95 L 184.26 198.95 L 186.16 198.97 L 188.06 198.97 L 189.95 198.97 L 191.85 198.97 L 193.75 198.97 L 195.65 198.97 L 197.55 198.97 L 199.44 198.97 L 201.34 198.97 L 203.24 198.97 L 205.14 198.97 L 207.04 197.51 L 208.94 197.43 L 210.83 197.40 L 212.73 197.38 L 214.63 197.38 L 216.53 197.49 L 218.43 197.34 L 220.32 197.33 L 222.22 197.18 L 224.12 197.41 L 226.02 197.41 L 227.92 197.29 L 229.81 197.29 L 231.71 197.22 L 233.61 197.21 L 235.51 197.15 L 237.41 196.94 L 239.31 197.00 L 241.20 197.41 L 243.10 197.41 L 245.00 197.30 L 246.90 197.26 L 248.80 197.19 L 250.69 197.19 L 252.59 197.19 L 254.49 197.19 L 256.39 197.18 L 258.29 197.12 L 260.19 197.09 L 262.08 197.04 L 263.98 197.00 L 265.88 196.96 L 267.78 196.92 L 269.68 196.91 L 271.57 196.86 L 273.47 196.80 L 275.37 196.75 L 277.27 196.69 L 279.17 196.66 L 281.06 196.63 L 282.96 196.56 L 284.86 196.51 L 286.76 196.47 L 288.66 196.45 L 290.56 196.40 L 292.45 196.37 L 294.35 196.34 L 296.25 196.28 L 298.15 196.20 L 300.05 196.12 L 301.94 196.02 L 303.84 195.89 L 305.74 195.77 L 307.64 195.68 L 309.54 195.63 L 311.44 195.58 L 313.33 195.53 L 315.23 195.44 L 317.13 195.35 L 319.03 195.22 L 320.93 195.11 L 322.82 194.95 L 324.72 194.82 L 326.62 194.68 L 328.52 194.57 L 330.42 194.55 L 332.31 194.51 L 334.21 194.48 L 336.11 194.44 L 338.01 194.40 L 339.91 194.37 L 341.81 194.34 L 343.70 194.29 L 345.60 194.25 L 347.50 194.23 L 349.40 194.21 L 351.30 194.19 L 353.19 194.16 L 355.09 194.12 L 356.99 194.07 L 358.89 193.99 L 360.79 193.94 L 362.69 193.87 L 364.58 193.80 L 366.48 193.74 L 368.38 193.72 L 370.28 193.70 L 372.18 193.66 L 374.07 193.62 L 375.97 193.56 L 377.87 193.49 L 379.77 193.43 L 381.67 193.35 L 383.56 193.27 L 385.46 193.20 L 387.36 193.14 L 389.26 193.15 L 391.16 193.15 L 393.06 193.15 L 394.95 193.18 L 396.85 193.09 L 398.75 193.07 L 400.65 193.07 L 402.55 193.08 L 404.44 193.00 L 406.34 192.95 L 408.24 192.95 L 410.14 192.95 L 412.04 192.95 L 413.94 192.80 L 415.83 192.73 L 417.73 192.69 L 419.63 192.67 L 421.53 192.67 L 423.43 192.68 L 425.32 192.64 L 427.22 192.63 L 429.12 192.63 L 431.02 190.39 L 432.92 189.96 L 434.81 189.85 L 436.71 189.53 L 438.61 189.52 L 440.51 189.36 L 442.41 187.79 L 444.31 187.36 L 446.20 181.35 L 448.10 181.35 L 450.00 180.72 L 451.90 180.71 L 453.80 180.26 L 455.69 179.68 L 457.59 179.67 L 459.49 178.77 L 461.39 177.57 L 463.29 175.55 L 465.19 174.52 L 467.08 173.86 L 468.98 174.17 L 470.88 173.10 L 472.78 173.10 L 474.68 171.18 L 476.57 168.37 L 478.47 168.37 L 480.37 165.86 L 482.27 163.63 L 484.17 163.63 L 486.06 163.62 L 487.96 162.88 L 489.86 161.06 L 491.76 193.89 L 493.66 193.22 L 495.56 192.73 L 497.45 192.34 L 499.35 189.45 L 501.25 188.03 L 503.15 188.03 L 505.05 180.86 L 506.94 148.96 L 508.84 144.25 L 510.74 176.00 L 512.64 176.17 L 514.54 175.77 L 516.44 175.72 L 518.33 197.26 L 520.23 197.26 L 522.13 197.06 L 524.03 196.44 L 525.93 194.49 L 527.82 194.50 L 529.72 194.49 L 531.62 194.49 L 533.52 194.49 L 535.42 194.48 L 537.31 194.48 L 539.21 194.62 L 541.11 206.08 L 543.01 206.08 L 544.91 206.05 L 546.81 206.04 L 548.70 205.22 L 550.60 204.28 L 552.50 204.28 L 554.40 204.28 L 556.30 200.22 L 558.19 204.28 L 560.09 204.28 L 561.99 204.28 L 563.89 198.60 L 565.79 198.60 L 567.69 198.60 L 569.58 198.60 L 571.48 193.00 L 573.38 193.00 L 575.28 188.39 L 577.18 188.39 L 579.07 179.75 L 580.97 174.84 L 582.87 173.23 L 584.77 170.37 L 586.67 169.87 L 588.56 153.88 L 590.46 149.24 L 592.36 152.04 L 594.26 141.93 L 596.16 141.88 L 598.06 141.69 L 599.95 141.69 L 601.85 141.76 L 603.75 141.75 L 605.65 140.68 L 607.55 141.38 L 609.44 141.36 L 611.34 141.83 L 613.24 141.39 L 615.14 141.39 L 617.04 141.52 L 618.94 141.52 L 620.83 141.53 L 622.73 142.33 L 624.63 141.73 L 626.53 141.68 L 628.43 141.68 L 630.32 141.66 L 632.22 141.67 L 634.12 141.65 L 636.02 139.51 L 637.92 136.07 L 639.81 136.04 L 641.71 133.43 L 643.61 131.89 L 645.51 131.13 L 647.41 131.51 L 649.31 131.50 L 651.20 131.57 L 653.10 131.56 L 655.00 131.49 L 656.90 131.49 L 658.80 131.49 L 660.69 131.49 L 662.59 131.49 L 664.49 131.49 L 666.39 131.49 L 668.29 131.49 L 670.19 131.49 L 672.08 131.49 L 673.98 131.49 L 675.88 131.49 L 677.78 131.49 L 679.68 131.49 L 681.57 131.49 L 683.47 131.49 L 685.37 131.49 L 687.27 131.49 L 689.17 131.49 L 691.06 131.49 L 692.96 131.49 L 694.86 131.49 L 696.76 131.49 L 698.66 131.49 L 700.56 131.49 L 702.45 131.49 L 704.35 131.49 L 706.25 131.49 L 708.15 131.49 L 710.05 131.49 L 711.94 131.49 L 713.84 131.49 L 715.74 131.49 L 717.64 131.49 L 719.54 131.49 L 721.44 131.49 L 723.33 131.49 L 725.23 131.49 L 727.13 131.49 L 729.03 131.49 L 730.93 131.49 L 732.82 131.49 L 734.72 131.49 L 736.62 131.49 L 738.52 131.49 L 740.42 131.49 L 742.31 131.49 L 744.21 131.49 L 746.11 131.49 L 748.01 131.49 L 749.91 131.49 L 751.81 131.49 L 753.70 131.49 L 755.60 131.49 L 757.50 131.49 L 759.40 131.49 L 761.30 131.49 L 763.19 131.49 L 765.09 131.49 L 766.99 131.49 L 768.89 131.49 L 770.79 131.49 L 772.69 131.49 L 774.58 131.49 L 776.48 131.49 L 778.38 131.49 L 780.28 131.49 L 782.18 131.49 L 784.07 131.49 L 785.97 131.49 L 787.87 131.49 L 789.77 131.49 L 791.67 131.49 L 793.56 131.49 L 795.46 131.49 L 797.36 131.49 L 799.26 131.49 L 801.16 131.49 L 803.06 131.49 L 804.95 131.49 L 806.85 131.49 L 808.75 131.49 L 810.65 131.49 L 812.55 131.49 L 814.44 131.49 L 816.34 131.49 L 818.24 131.49 L 820.14 131.49 L 822.04 131.49 L 823.94 131.49 L 825.83 131.49 L 827.73 131.49 L 829.63 131.49 L 831.53 131.49 L 833.43 131.49 L 835.32 131.49 L 837.22 131.49 L 839.12 131.49 L 841.02 131.49 L 842.92 131.49 L 844.81 131.49 L 846.71 131.49 L 848.61 131.49 L 850.51 131.49 L 852.41 131.49 L 854.31 131.49 L 856.20 131.49 L 858.10 131.49 L 860.00 131.49" fill="none" stroke="#111827" stroke-width="2"/>
    <circle cx="860.00" cy="131.49" r="3" fill="#111827"/>
    <text x="40.00" y="235.00" font-size="9" fill="#111827" text-anchor="middle" transform="rotate(-45 40.00 235.00)">27.09.2025</text><text x="121.62" y="235.00" font-size="9" fill="#111827" text-anchor="middle" transform="rotate(-45 121.62 235.00)">28.09.2025</text><text x="203.24" y="235.00" font-size="9" fill="#111827" text-anchor="middle" transform="rotate(-45 203.24 235.00)">29.09.2025</text><text x="284.86" y="235.00" font-size="9" fill="#111827" text-anchor="middle" transform="rotate(-45 284.86 235.00)">04.10.2025</text><text x="366.48" y="235.00" font-size="9" fill="#111827" text-anchor="middle" transform="rotate(-45 366.48 235.00)">04.10.2025</text><text x="448.10" y="235.00" font-size="9" fill="#111827" text-anchor="middle" transform="rotate(-45 448.10 235.00)">04.10.2025</text><text x="529.72" y="235.00" font-size="9" fill="#111827" text-anchor="middle" transform="rotate(-45 529.72 235.00)">05.10.2025</text><text x="611.34" y="235.00" font-size="9" fill="#111827" text-anchor="middle" transform="rotate(-45 611.34 235.00)">09.10.2025</text><text x="692.96" y="235.00" font-size="9" fill="#111827" text-anchor="middle" transform="rotate(-45 692.96 235.00)">29.10.2025</text><text x="774.58" y="235.00" font-size="9" fill="#111827" text-anchor="middle" transform="rotate(-45 774.58 235.00)">11.12.2025</text><text x="856.20" y="235.00" font-size="9" fill="#111827" text-anchor="middle" transform="rotate(-45 856.20 235.00)">22.01.2026</text>
  </g>
</svg>