<svg xmlns="http://www.w3.org/2000/svg" width="900" height="290" style="font-family: -apple-system, BlinkMacSystemFont, 'Segoe UI', Helvetica, Arial, sans-serif;">
  <rect width="100%" height="100%" fill="white"/>
  <g>
    <line x1="40" y1="220.00" x2="860" y2="220.00" stroke="#e5e7eb"/><text x="32" y="224.00" font-size="10" fill="#111827" text-anchor="end">0</text><line x1="40" y1="175.00" x2="860" y2="175.00" stroke="#e5e7eb"/><text x="32" y="179.00" font-size="10" fill="#111827" text-anchor="end">25k</text><line x1="40" y1="130.00" x2="860" y2="130.00" stroke="#e5e7eb"/><text x="32" y="134.00" font-size="10" fill="#111827" text-anchor="end">50k</text><line x1="40" y1="85.00" x2="860" y2="85.00" stroke="#e5e7eb"/><text x="32" y="89.00" font-size="10" fill="#111827" text-anchor="end">75k</text><line x1="40" y1="40.00" x2="860" y2="40.00" stroke="#e5e7eb"/><text x="32" y="44.00" font-size="10" fill="#111827" text-anchor="end">100k</text>
    <line x1="40.00" y1="40" x2="40.00" y2="220" stroke="#e5e7eb" opacity="0.5"/><line x1="121.78" y1="40" x2="121.78" y2="220" stroke="#e5e7eb" opacity="0.5"/><line x1="203.56" y1="40" x2="203.56" y2="220" stroke="#e5e7eb" opacity="0.5"/><line x1="285.34" y1="40" x2="285.34" y2="220" stroke="#e5e7eb" opacity="0.5"/><line x1="367.12" y1="40" x2="367.12" y2="220" stroke="#e5e7eb" opacity="0.5"/><line x1="448.89" y1="40" x2="448.89" y2="220" stroke="#e5e7eb" opacity="0.5"/><line x1="530.67" y1="40" x2="530.67" y2="220" stroke="#e5e7eb" opacity="0.5"/><line x1="612.45" y1="40" x2="612.45" y2="220" stroke="#e5e7eb" opacity="0.5"/><line x1="694.23" y1="40" x2="694.23" y2="220" stroke="#e5e7eb" opacity="0.5"/><line x1="776.01" y1="40" x2="776.01" y2="220" stroke="#e5e7eb" opacity="0.5"/><line x1="857.79" y1="40" x2="857.79" y2="220" stroke="#e5e7eb" opacity="0.5"/>
    <line x1="40" y1="220" x2="860" y2="220" stroke="#9ca3af"/>
    <line x1="40" y1="40"   x2="40"   y2="220" stroke="#9ca3af"/>
    <path d="M 40.00 220.00 L 42.21 220.00 L 44.42 219.60 L 46.63 219.62 L 48.84 219.63 L 51.05 219.32 L 53.26 219.31 L 55.47 219.26 L 57.68 218.89 L 59.89 218.89 L 62.10 218.89 L 64.31 218.87 L 66.52 218.87 L 68.73 218.86 L 70.94 218.85 L 73.15 218.85 L 75.36 218.82 L 77.57 218.78 L 79.78 218.72 L 81.99 218.68 L 84.20 218.64 L 86.42 218.59 L 88.63 218.59 L 90.84 218.57 L 93.05 218.57 L 95.26 218.57 L 97.47 218.57 L 99.68 218.57 L 101.89 218.57 L 104.10 218.57 L 106.31 218.57 L 108.52 218.57 L 110.73 218.55 L 112.94 218.54 L 115.15 218.58 L 117.36 218.55 L 119.57 218.55 L 121.78 218.53 L 123.99 218.31 L 126.20 217.94 L 128.41 217.88 L 130.62 217.87 L 132.83 217.86 L 135.04 217.85 L 137.25 217.84 L 139.46 217.85 L 141.67 217.82 L 143.88 217.66 L 146.09 217.61 L 148.30 217.60 L 150.51 217.57 L 152.72 217.56 L 154.93 217.52 L 157.14 217.38 L 159.35 217.24 L 161.56 216.93 L 163.77 216.65 L 165.98 216.44 L 168.19 216.39 L 170.40 216.34 L 172.61 216.83 L 174.82 200.94 L 177.04 200.94 L 179.25 200.95 L 181.46 198.99 L 183.67 198.98 L 185.88 198.94 L 188.09 198.94 L 190.30 198.91 L 192.51 198.90 L 194.72 198.93 L 196.93 198.93 L 199.14 198.99 L 201.35 198.95 L 203.56 198.96 L 205.77 198.95 L 207.98 198.95 L 210.19 198.97 L 212.40 198.97 L 214.61 198.97 L 216.82 198.97 L 219.03 198.97 L 221.24 198.97 L 223.45 198.97 L 225.66 198.97 L 227.87 198.97 L 230.08 198.97 L 232.29 198.97 L 234.50 197.51 L 236.71 197.43 L 238.92 197.40 L 241.13 197.38 L 243.34 197.38 L 245.55 197.49 L 247.76 197.34 L 249.97 197.33 L 252.18 197.18 L 254.39 197.41 L 256.60 197.41 L 258.81 197.29 L 261.02 197.29 L 263.23 197.22 L 265.44 197.21 L 267.65 197.15 L 269.87 196.94 L 272.08 197.00 L 274.29 197.41 L 276.50 197.41 L 278.71 197.30 L 280.92 197.26 L 283.13 197.19 L 285.34 197.19 L 287.55 197.19 L 289.76 197.19 L 291.97 197.18 L 294.18 197.12 L 296.39 197.09 L 298.60 197.04 L 300.81 197.00 L 303.02 196.96 L 305.23 196.92 L 307.44 196.91 L 309.65 196.86 L 311.86 196.80 L 314.07 196.75 L 316.28 196.69 L 318.49 196.66 L 320.70 196.63 L 322.91 196.56 L 325.12 196.51 L 327.33 196.47 L 329.54 196.45 L 331.75 196.40 L 333.96 196.37 L 336.17 196.34 L 338.38 196.28 L 340.59 196.20 L 342.80 196.12 L 345.01 196.02 L 347.22 195.89 L 349.43 195.77 L 351.64 195.68 L 353.85 195.63 L 356.06 195.58 L 358.27 195.53 L 360.49 195.44 L 362.70 195.35 L 364.91 195.22 L 367.12 195.11 L 369.33 194.95 L 371.54 194.82 L 373.75 194.68 L 375.96 194.57 L 378.17 194.55 L 380.38 194.51 L 382.59 194.48 L 384.80 194.44 L 387.01 194.40 L 389.22 194.37 L 391.43 194.34 L 393.64 194.29 L 395.85 194.25 L 398.06 194.23 L 400.27 194.21 L 402.48 194.19 L 404.69 194.16 L 406.90 194.12 L 409.11 194.07 L 411.32 193.99 L 413.53 193.94 L 415.74 193.87 L 417.95 193.80 L 420.16 193.74 L 422.37 193.72 L 424.58 193.70 L 426.79 193.66 L 429.00 193.62 L 431.21 193.56 L 433.42 193.49 L 435.63 193.43 L 437.84 193.35 L 440.05 193.27 L 442.26 193.20 L 444.47 193.14 L 446.68 193.15 L 448.89 193.15 L 451.11 193.15 L 453.32 193.18 L 455.53 193.09 L 457.74 193.07 L 459.95 193.07 L 462.16 193.08 L 464.37 193.00 L 466.58 192.95 L 468.79 192.95 L 471.00 192.95 L 473.21 192.95 L 475.42 192.80 L 477.63 192.73 L 479.84 192.69 L 482.05 192.67 L 484.26 192.67 L 486.47 192.68 L 488.68 192.64 L 490.89 192.63 L 493.10 192.63 L 495.31 190.39 L 497.52 189.96 L 499.73 189.85 L 501.94 189.53 L 504.15 189.52 L 506.36 189.36 L 508.57 187.79 L 510.78 187.36 L 512.99 181.35 L 515.20 181.35 L 517.41 180.72 L 519.62 180.71 L 521.83 180.26 L 524.04 179.68 L 526.25 179.67 L 528.46 178.77 L 530.67 177.57 L 532.88 175.55 L 535.09 174.52 L 537.30 173.86 L 539.51 174.17 L 541.73 173.10 L 543.94 173.10 L 546.15 171.18 L 548.36 168.37 L 550.57 168.37 L 552.78 165.86 L 554.99 163.63 L 557.20 163.63 L 559.41 163.62 L 561.62 162.88 L 563.83 161.06 L 566.04 193.89 L 568.25 193.22 L 570.46 192.73 L 572.67 192.34 L 574.88 189.45 L 577.09 188.03 L 579.30 188.03 L 581.51 180.86 L 583.72 148.96 L 585.93 144.25 L 588.14 176.00 L 590.35 176.17 L 592.56 175.77 L 594.77 175.72 L 596.98 197.26 L 599.19 197.26 L 601.40 197.06 L 603.61 196.44 L 605.82 194.49 L 608.03 194.50 L 610.24 194.49 L 612.45 194.49 L 614.66 194.49 L 616.87 194.48 L 619.08 194.48 L 621.29 194.62 L 623.50 206.08 L 625.71 206.08 L 627.92 206.05 L 630.13 206.04 L 632.35 205.22 L 634.56 204.28 L 636.77 204.28 L 638.98 204.28 L 641.19 200.22 L 643.40 204.28 L 645.61 204.28 L 647.82 204.28 L 650.03 198.60 L 652.24 198.60 L 654.45 198.60 L 656.66 198.60 L 658.87 193.00 L 661.08 193.00 L 663.29 188.39 L 665.50 188.39 L 667.71 179.75 L 669.92 174.84 L 672.13 173.23 L 674.34 170.37 L 676.55 169.87 L 678.76 153.88 L 680.97 149.24 L 683.18 152.04 L 685.39 141.93 L 687.60 141.88 L 689.81 141.69 L 692.02 141.69 L 694.23 141.76 L 696.44 141.75 L 698.65 140.68 L 700.86 141.38 L 703.07 141.36 L 705.28 141.83 L 707.49 141.39 L 709.70 141.39 L 711.91 141.52 L 714.12 141.52 L 716.33 141.53 L 718.54 142.33 L 720.75 141.73 L 722.96 141.68 L 725.18 141.68 L 727.39 141.66 L 729.60 141.67 L 731.81 141.65 L 734.02 139.51 L 736.23 136.07 L 738.44 136.04 L 740.65 133.43 L 742.86 131.89 L 745.07 131.13 L 747.28 131.51 L 749.49 131.50 L 751.70 131.57 L 753.91 131.56 L 756.12 131.49 L 758.33 131.49 L 760.54 131.49 L 762.75 131.49 L 764.96 131.49 L 767.17 131.49 L 769.38 131.49 L 771.59 131.49 L 773.80 131.49 L 776.01 131.49 L 778.22 131.49 L 780.43 131.49 L 782.64 131.49 L 784.85 131.49 L 787.06 131.49 L 789.27 131.49 L 791.48 131.49 L 793.69 131.49 L 795.90 131.49 L 798.11 131.49 L 800.32 131.49 L 802.53 131.49 L 804.74 131.49 L 806.95 131.49 L 809.16 131.49 L 811.37 131.49 L 813.58 131.49 L 815.80 131.49 L 818.01 131.49 L 820.22 131.49 L 822.43 131.49 L 824.64 131.49 L 826.85 131.49 L 829.06 131.49 L 831.27 131.49 L 833.48 131.49 L 835.69 131.49 L 837.90 131.49 L 840.11 131.49 L 842.32 131.49 L 844.53 131.49 L 846.74 131.49 L 848.95 131.49 L 851.16 131.49 L 853.37 131.49 L 855.58 131.49 L 857.79 131.49 L 860.00 131.49" fill="none" stroke="#111827" stroke-width="2"/>
    <circle cx="860.00" cy="131.49" r="3" fill="#111827"/>
    <text x="40.00" y="235.00" font-size="9" fill="#111827" text-anchor="middle" transform="rotate(-45 40.00 235.00)">27.09.2025</text><text x="121.78" y="235.00" font-size="9" fill="#111827" text-anchor="middle" transform="rotate(-45 121.78 235.00)">28.09.2025</text><text x="203.56" y="235.00" font-size="9" fill="#111827" text-anchor="middle" transform="rotate(-45 203.56 235.00)">28.09.2025</text><text x="285.34" y="235.00" font-size="9" fill="#111827" text-anchor="middle" transform="rotate(-45 285.34 235.00)">04.10.2025</text><text x="367.12" y="235.00" font-size="9" fill="#111827" text-anchor="middle" transform="rotate(-45 367.12 235.00)">04.10.2025</text><text x="448.89" y="235.00" font-size="9" fill="#111827" text-anchor="middle" transform="rotate(-45 448.89 235.00)">04.10.2025</text><text x="530.67" y="235.00" font-size="9" fill="#111827" text-anchor="middle" transform="rotate(-45 530.67 235.00)">04.10.2025</text><text x="612.45" y="235.00" font-size="9" fill="#111827" text-anchor="middle" transform="rotate(-45 612.45 235.00)">05.10.2025</text><text x="694.23" y="235.00" font-size="9" fill="#111827" text-anchor="middle" transform="rotate(-45 694.23 235.00)">08.10.2025</text><text x="776.01" y="235.00" font-size="9" fill="#111827" text-anchor="middle" transform="rotate(-45 776.01 235.00)">18.10.2025</text><text x="857.79" y="235.00" font-size="9" fill="#111827" text-anchor="middle" transform="rotate(-45 857.79 235.00)">24.11.2025</text>
  </g>
</svg>