<svg xmlns="http://www.w3.org/2000/svg" width="900" height="290" style="font-family: -apple-system, BlinkMacSystemFont, 'Segoe UI', Helvetica, Arial, sans-serif;">
  <rect width="100%" height="100%" fill="#0d1117"/>
  <g>
    <line x1="40" y1="220.00" x2="860" y2="220.00" stroke="#30363d"/><text x="32" y="224.00" font-size="10" fill="#c9d1d9" text-anchor="end">0</text><line x1="40" y1="175.00" x2="860" y2="175.00" stroke="#30363d"/><text x="32" y="179.00" font-size="10" fill="#c9d1d9" text-anchor="end">25k</text><line x1="40" y1="130.00" x2="860" y2="130.00" stroke="#30363d"/><text x="32" y="134.00" font-size="10" fill="#c9d1d9" text-anchor="end">50k</text><line x1="40" y1="85.00" x2="860" y2="85.00" stroke="#30363d"/><text x="32" y="89.00" font-size="10" fill="#c9d1d9" text-anchor="end">75k</text><line x1="40" y1="40.00" x2="860" y2="40.00" stroke="#30363d"/><text x="32" y="44.00" font-size="10" fill="#c9d1d9" text-anchor="end">100k</text>
    <line x1="40.00" y1="40" x2="40.00" y2="220" stroke="#30363d" opacity="0.5"/><line x1="122.19" y1="40" x2="122.19" y2="220" stroke="#30363d" opacity="0.5"/><line x1="204.37" y1="40" x2="204.37" y2="220" stroke="#30363d" opacity="0.5"/><line x1="286.56" y1="40" x2="286.56" y2="220" stroke="#30363d" opacity="0.5"/><line x1="368.75" y1="40" x2="368.75" y2="220" stroke="#30363d" opacity="0.5"/><line x1="450.93" y1="40" x2="450.93" y2="220" stroke="#30363d" opacity="0.5"/><line x1="533.12" y1="40" x2="533.12" y2="220" stroke="#30363d" opacity="0.5"/><line x1="615.31" y1="40" x2="615.31" y2="220" stroke="#30363d" opacity="0.5"/><line x1="697.49" y1="40" x2="697.49" y2="220" stroke="#30363d" opacity="0.5"/><line x1="779.68" y1="40" x2="779.68" y2="220" stroke="#30363d" opacity="0.5"/>
    <line x1="40" y1="220" x2="860" y2="220" stroke="#30363d"/>
    <line x1="40" y1="40"   x2="40"   y2="220" stroke="#30363d"/>
    <path d="M 40.00 220.00 L 41.87 220.00 L 43.74 219.60 L 45.60 219.62 L 47.47 219.63 L 49.34 219.32 L 51.21 219.31 L 53.08 219.26 L 54.94 218.89 L 56.81 218.89 L 58.68 218.89 L 60.55 218.87 L 62.41 218.87 L 64.28 218.86 L 66.15 218.85 L 68.02 218.85 L 69.89 218.82 L 71.75 218.78 L 73.62 218.72 L 75.49 218.68 L 77.36 218.64 L 79.23 218.59 L 81.09 218.59 L 82.96 218.57 L 84.83 218.57 L 86.70 218.57 L 88.56 218.57 L 90.43 218.57 L 92.30 218.57 L 94.17 218.57 L 96.04 218.57 L 97.90 218.57 L 99.77 218.55 L 101.64 218.54 L 103.51 218.58 L 105.38 218.55 L 107.24 218.55 L 109.11 218.53 L 110.98 218.31 L 112.85 217.94 L 114.72 217.88 L 116.58 217.87 L 118.45 217.86 L 120.32 217.85 L 122.19 217.84 L 124.05 217.85 L 125.92 217.82 L 127.79 217.66 L 129.66 217.61 L 131.53 217.60 L 133.39 217.57 L 135.26 217.56 L 137.13 217.52 L 139.00 217.38 L 140.87 217.24 L 142.73 216.93 L 144.60 216.65 L 146.47 216.44 L 148.34 216.39 L 150.21 216.34 L 152.07 216.83 L 153.94 200.94 L 155.81 200.94 L 157.68 200.95 L 159.54 198.99 L 161.41 198.98 L 163.28 198.94 L 165.15 198.94 L 167.02 198.91 L 168.88 198.90 L 170.75 198.93 L 172.62 198.93 L 174.49 198.99 L 176.36 198.95 L 178.22 198.96 L 180.09 198.95 L 181.96 198.95 L 183.83 198.97 L 185.69 198.97 L 187.56 198.97 L 189.43 198.97 L 191.30 198.97 L 193.17 198.97 L 195.03 198.97 L 196.90 198.97 L 198.77 198.97 L 200.64 198.97 L 202.51 198.97 L 204.37 197.51 L 206.24 197.43 L 208.11 197.40 L 209.98 197.38 L 211.85 197.38 L 213.71 197.49 L 215.58 197.34 L 217.45 197.33 L 219.32 197.18 L 221.18 197.41 L 223.05 197.41 L 224.92 197.29 L 226.79 197.29 L 228.66 197.22 L 230.52 197.21 L 232.39 197.15 L 234.26 196.94 L 236.13 197.00 L 238.00 197.41 L 239.86 197.41 L 241.73 197.30 L 243.60 197.26 L 245.47 197.19 L 247.33 197.19 L 249.20 197.19 L 251.07 197.19 L 252.94 197.18 L 254.81 197.12 L 256.67 197.09 L 258.54 197.04 L 260.41 197.00 L 262.28 196.96 L 264.15 196.92 L 266.01 196.91 L 267.88 196.86 L 269.75 196.80 L 271.62 196.75 L 273.49 196.69 L 275.35 196.66 L 277.22 196.63 L 279.09 196.56 L 280.96 196.51 L 282.82 196.47 L 284.69 196.45 L 286.56 196.40 L 288.43 196.37 L 290.30 196.34 L 292.16 196.28 L 294.03 196.20 L 295.90 196.12 L 297.77 196.02 L 299.64 195.89 L 301.50 195.77 L 303.37 195.68 L 305.24 195.63 L 307.11 195.58 L 308.97 195.53 L 310.84 195.44 L 312.71 195.35 L 314.58 195.22 L 316.45 195.11 L 318.31 194.95 L 320.18 194.82 L 322.05 194.68 L 323.92 194.57 L 325.79 194.55 L 327.65 194.51 L 329.52 194.48 L 331.39 194.44 L 333.26 194.40 L 335.13 194.37 L 336.99 194.34 L 338.86 194.29 L 340.73 194.25 L 342.60 194.23 L 344.46 194.21 L 346.33 194.19 L 348.20 194.16 L 350.07 194.12 L 351.94 194.07 L 353.80 193.99 L 355.67 193.94 L 357.54 193.87 L 359.41 193.80 L 361.28 193.74 L 363.14 193.72 L 365.01 193.70 L 366.88 193.66 L 368.75 193.62 L 370.62 193.56 L 372.48 193.49 L 374.35 193.43 L 376.22 193.35 L 378.09 193.27 L 379.95 193.20 L 381.82 193.14 L 383.69 193.15 L 385.56 193.15 L 387.43 193.15 L 389.29 193.18 L 391.16 193.09 L 393.03 193.07 L 394.90 193.07 L 396.77 193.08 L 398.63 193.00 L 400.50 192.95 L 402.37 192.95 L 404.24 192.95 L 406.10 192.95 L 407.97 192.80 L 409.84 192.73 L 411.71 192.69 L 413.58 192.67 L 415.44 192.67 L 417.31 192.68 L 419.18 192.64 L 421.05 192.63 L 422.92 192.63 L 424.78 190.39 L 426.65 189.96 L 428.52 189.85 L 430.39 189.53 L 432.26 189.52 L 434.12 189.36 L 435.99 187.79 L 437.86 187.36 L 439.73 181.35 L 441.59 181.35 L 443.46 180.72 L 445.33 180.71 L 447.20 180.26 L 449.07 179.68 L 450.93 179.67 L 452.80 178.77 L 454.67 177.57 L 456.54 175.55 L 458.41 174.52 L 460.27 173.86 L 462.14 174.17 L 464.01 173.10 L 465.88 173.10 L 467.74 171.18 L 469.61 168.37 L 471.48 168.37 L 473.35 165.86 L 475.22 163.63 L 477.08 163.63 L 478.95 163.62 L 480.82 162.88 L 482.69 161.06 L 484.56 193.89 L 486.42 193.22 L 488.29 192.73 L 490.16 192.34 L 492.03 189.45 L 493.90 188.03 L 495.76 188.03 L 497.63 180.86 L 499.50 148.96 L 501.37 144.25 L 503.23 176.00 L 505.10 176.17 L 506.97 175.77 L 508.84 175.72 L 510.71 197.26 L 512.57 197.26 L 514.44 197.06 L 516.31 196.44 L 518.18 194.49 L 520.05 194.50 L 521.91 194.49 L 523.78 194.49 L 525.65 194.49 L 527.52 194.48 L 529.38 194.48 L 531.25 194.62 L 533.12 206.08 L 534.99 206.08 L 536.86 206.05 L 538.72 206.04 L 540.59 205.22 L 542.46 204.28 L 544.33 204.28 L 546.20 204.28 L 548.06 200.22 L 549.93 204.28 L 551.80 204.28 L 553.67 204.28 L 555.54 198.60 L 557.40 198.60 L 559.27 198.60 L 561.14 198.60 L 563.01 193.00 L 564.87 193.00 L 566.74 188.39 L 568.61 188.39 L 570.48 179.75 L 572.35 174.84 L 574.21 173.23 L 576.08 170.37 L 577.95 169.87 L 579.82 153.88 L 581.69 149.24 L 583.55 152.04 L 585.42 141.93 L 587.29 141.88 L 589.16 141.69 L 591.03 141.69 L 592.89 141.76 L 594.76 141.75 L 596.63 140.68 L 598.50 141.38 L 600.36 141.36 L 602.23 141.83 L 604.10 141.39 L 605.97 141.39 L 607.84 141.52 L 609.70 141.52 L 611.57 141.53 L 613.44 142.33 L 615.31 141.73 L 617.18 141.68 L 619.04 141.68 L 620.91 141.66 L 622.78 141.67 L 624.65 141.65 L 626.51 139.51 L 628.38 136.07 L 630.25 136.04 L 632.12 133.43 L 633.99 131.89 L 635.85 131.13 L 637.72 131.51 L 639.59 131.50 L 641.46 131.57 L 643.33 131.56 L 645.19 131.49 L 647.06 131.49 L 648.93 131.49 L 650.80 131.49 L 652.67 131.49 L 654.53 131.49 L 656.40 131.49 L 658.27 131.49 L 660.14 131.49 L 662.00 131.49 L 663.87 131.49 L 665.74 131.49 L 667.61 131.49 L 669.48 131.49 L 671.34 131.49 L 673.21 131.49 L 675.08 131.49 L 676.95 131.49 L 678.82 131.49 L 680.68 131.49 L 682.55 131.49 L 684.42 131.49 L 686.29 131.49 L 688.15 131.49 L 690.02 131.49 L 691.89 131.49 L 693.76 131.49 L 695.63 131.49 L 697.49 131.49 L 699.36 131.49 L 701.23 131.49 L 703.10 131.49 L 704.97 131.49 L 706.83 131.49 L 708.70 131.49 L 710.57 131.49 L 712.44 131.49 L 714.31 131.49 L 716.17 131.49 L 718.04 131.49 L 719.91 131.49 L 721.78 131.49 L 723.64 131.49 L 725.51 131.49 L 727.38 131.49 L 729.25 131.49 L 731.12 131.49 L 732.98 131.49 L 734.85 131.49 L 736.72 131.49 L 738.59 131.49 L 740.46 131.49 L 742.32 131.49 L 744.19 131.49 L 746.06 131.49 L 747.93 131.49 L 749.79 131.49 L 751.66 131.49 L 753.53 131.49 L 755.40 131.49 L 757.27 131.49 L 759.13 131.49 L 761.00 131.49 L 762.87 131.49 L 764.74 131.49 L 766.61 131.49 L 768.47 131.49 L 770.34 131.49 L 772.21 131.49 L 774.08 131.49 L 775.95 131.49 L 777.81 131.49 L 779.68 131.49 L 781.55 131.49 L 783.42 131.49 L 785.28 131.49 L 787.15 131.49 L 789.02 131.49 L 790.89 131.49 L 792.76 131.49 L 794.62 131.49 L 796.49 131.49 L 798.36 131.49 L 800.23 131.49 L 802.10 131.49 L 803.96 131.49 L 805.83 131.49 L 807.70 131.49 L 809.57 131.49 L 811.44 131.49 L 813.30 131.49 L 815.17 131.49 L 817.04 131.49 L 818.91 131.49 L 820.77 131.49 L 822.64 131.49 L 824.51 131.49 L 826.38 131.49 L 828.25 131.49 L 830.11 131.49 L 831.98 131.49 L 833.85 131.49 L 835.72 131.49 L 837.59 131.49 L 839.45 131.49 L 841.32 131.49 L 843.19 131.49 L 845.06 131.49 L 846.92 131.49 L 848.79 131.49 L 850.66 131.49 L 852.53 131.49 L 854.40 131.49 L 856.26 131.49 L 858.13 131.49 L 860.00 131.49" fill="none" stroke="#3fb950" stroke-width="2"/>
    <circle cx="860.00" cy="131.49" r="3" fill="#3fb950"/>
    <text x="40.00" y="235.00" font-size="9" fill="#c9d1d9" text-anchor="middle" transform="rotate(-45 40.00 235.00)">27.09.2025</text><text x="122.19" y="235.00" font-size="9" fill="#c9d1d9" text-anchor="middle" transform="rotate(-45 122.19 235.00)">28.09.2025</text><text x="204.37" y="235.00" font-size="9" fill="#c9d1d9" text-anchor="middle" transform="rotate(-45 204.37 235.00)">29.09.2025</text><text x="286.56" y="235.00" font-size="9" fill="#c9d1d9" text-anchor="middle" transform="rotate(-45 286.56 235.00)">04.10.2025</text><text x="368.75" y="235.00" font-size="9" fill="#c9d1d9" text-anchor="middle" transform="rotate(-45 368.75 235.00)">04.10.2025</text><text x="450.93" y="235.00" font-size="9" fill="#c9d1d9" text-anchor="middle" transform="rotate(-45 450.93 235.00)">04.10.2025</text><text x="533.12" y="235.00" font-size="9" fill="#c9d1d9" text-anchor="middle" transform="rotate(-45 533.12 235.00)">05.10.2025</text><text x="615.31" y="235.00" font-size="9" fill="#c9d1d9" text-anchor="middle" transform="rotate(-45 615.31 235.00)">09.10.2025</text><text x="697.49" y="235.00" font-size="9" fill="#c9d1d9" text-anchor="middle" transform="rotate(-45 697.49 235.00)">06.11.2025</text><text x="779.68" y="235.00" font-size="9" fill="#c9d1d9" text-anchor="middle" transform="rotate(-45 779.68 235.00)">20.12.2025</text>
  </g>
</svg>