<svg xmlns="http://www.w3.org/2000/svg" width="900" height="290" style="font-family: -apple-system, BlinkMacSystemFont, 'Segoe UI', Helvetica, Arial, sans-serif;">
  <rect width="100%" height="100%" fill="white"/>
  <g>
    <line x1="40" y1="220.00" x2="860" y2="220.00" stroke="#e5e7eb"/><text x="32" y="224.00" font-size="10" fill="#111827" text-anchor="end">0</text><line x1="40" y1="175.00" x2="860" y2="175.00" stroke="#e5e7eb"/><text x="32" y="179.00" font-size="10" fill="#111827" text-anchor="end">12.5k</text><line x1="40" y1="130.00" x2="860" y2="130.00" stroke="#e5e7eb"/><text x="32" y="134.00" font-size="10" fill="#111827" text-anchor="end">25k</text><line x1="40" y1="85.00" x2="860" y2="85.00" stroke="#e5e7eb"/><text x="32" y="89.00" font-size="10" fill="#111827" text-anchor="end">37.5k</text><line x1="40" y1="40.00" x2="860" y2="40.00" stroke="#e5e7eb"/><text x="32" y="44.00" font-size="10" fill="#111827" text-anchor="end">50k</text>
    <line x1="40.00" y1="40" x2="40.00" y2="220" stroke="#e5e7eb" opacity="0.5"/><line x1="121.42" y1="40" x2="121.42" y2="220" stroke="#e5e7eb" opacity="0.5"/><line x1="202.84" y1="40" x2="202.84" y2="220" stroke="#e5e7eb" opacity="0.5"/><line x1="284.26" y1="40" x2="284.26" y2="220" stroke="#e5e7eb" opacity="0.5"/><line x1="365.67" y1="40" x2="365.67" y2="220" stroke="#e5e7eb" opacity="0.5"/><line x1="447.09" y1="40" x2="447.09" y2="220" stroke="#e5e7eb" opacity="0.5"/><line x1="528.51" y1="40" x2="528.51" y2="220" stroke="#e5e7eb" opacity="0.5"/><line x1="609.93" y1="40" x2="609.93" y2="220" stroke="#e5e7eb" opacity="0.5"/><line x1="691.35" y1="40" x2="691.35" y2="220" stroke="#e5e7eb" opacity="0.5"/><line x1="772.77" y1="40" x2="772.77" y2="220" stroke="#e5e7eb" opacity="0.5"/><line x1="854.18" y1="40" x2="854.18" y2="220" stroke="#e5e7eb" opacity="0.5"/>
    <line x1="40" y1="220" x2="860" y2="220" stroke="#9ca3af"/>
    <line x1="40" y1="40"   x2="40"   y2="220" stroke="#9ca3af"/>
    <path d="M 40.00 220.00 L 42.91 220.00 L 45.82 219.20 L 48.72 219.25 L 51.63 219.25 L 54.54 218.64 L 57.45 218.62 L 60.35 218.52 L 63.26 217.78 L 66.17 217.78 L 69.08 217.78 L 71.99 217.73 L 74.89 217.74 L 77.80 217.72 L 80.71 217.70 L 83.62 217.70 L 86.52 217.63 L 89.43 217.56 L 92.34 217.45 L 95.25 217.36 L 98.16 217.27 L 101.06 217.18 L 103.97 217.18 L 106.88 217.14 L 109.79 217.14 L 112.70 217.14 L 115.60 217.14 L 118.51 217.14 L 121.42 217.14 L 124.33 217.14 L 127.23 217.14 L 130.14 217.14 L 133.05 217.10 L 135.96 217.08 L 138.87 217.15 L 141.77 217.11 L 144.68 217.11 L 147.59 217.06 L 150.50 216.62 L 153.40 215.89 L 156.31 215.76 L 159.22 215.73 L 162.13 215.72 L 165.04 215.70 L 167.94 215.68 L 170.85 215.70 L 173.76 215.64 L 176.67 215.31 L 179.57 215.22 L 182.48 215.20 L 185.39 215.14 L 188.30 215.13 L 191.21 215.03 L 194.11 214.77 L 197.02 214.47 L 199.93 213.85 L 202.84 213.29 L 205.74 212.88 L 208.65 212.79 L 211.56 212.68 L 214.47 213.67 L 217.38 181.87 L 220.28 181.89 L 223.19 181.89 L 226.10 177.97 L 229.01 177.96 L 231.91 177.88 L 234.82 177.88 L 237.73 177.81 L 240.64 177.80 L 243.55 177.87 L 246.45 177.87 L 249.36 177.98 L 252.27 177.91 L 255.18 177.92 L 258.09 177.91 L 260.99 177.91 L 263.90 177.94 L 266.81 177.94 L 269.72 177.94 L 272.62 177.94 L 275.53 177.94 L 278.44 177.94 L 281.35 177.94 L 284.26 177.95 L 287.16 177.94 L 290.07 177.94 L 292.98 177.94 L 295.89 175.03 L 298.79 174.85 L 301.70 174.80 L 304.61 174.77 L 307.52 174.76 L 310.43 174.99 L 313.33 174.69 L 316.24 174.66 L 319.15 174.35 L 322.06 174.82 L 324.96 174.82 L 327.87 174.59 L 330.78 174.58 L 333.69 174.43 L 336.60 174.42 L 339.50 174.30 L 342.41 173.88 L 345.32 174.00 L 348.23 174.83 L 351.13 174.82 L 354.04 174.60 L 356.95 174.51 L 359.86 174.37 L 362.77 174.37 L 365.67 174.37 L 368.58 174.37 L 371.49 174.36 L 374.40 174.24 L 377.30 174.18 L 380.21 174.09 L 383.12 174.00 L 386.03 173.92 L 388.94 173.84 L 391.84 173.81 L 394.75 173.73 L 397.66 173.60 L 400.57 173.50 L 403.48 173.39 L 406.38 173.32 L 409.29 173.25 L 412.20 173.11 L 415.11 173.01 L 418.01 172.93 L 420.92 172.89 L 423.83 172.80 L 426.74 172.74 L 429.65 172.68 L 432.55 172.57 L 435.46 172.40 L 438.37 172.25 L 441.28 172.05 L 444.18 171.78 L 447.09 171.54 L 450.00 171.36 L 452.91 171.26 L 455.82 171.17 L 458.72 171.06 L 461.63 170.89 L 464.54 170.70 L 467.45 170.44 L 470.35 170.21 L 473.26 169.90 L 476.17 169.64 L 479.08 169.37 L 481.99 169.13 L 484.89 169.10 L 487.80 169.03 L 490.71 168.96 L 493.62 168.88 L 496.52 168.79 L 499.43 168.73 L 502.34 168.68 L 505.25 168.58 L 508.16 168.51 L 511.06 168.46 L 513.97 168.42 L 516.88 168.38 L 519.79 168.33 L 522.70 168.25 L 525.60 168.13 L 528.51 167.98 L 531.42 167.88 L 534.33 167.74 L 537.23 167.60 L 540.14 167.49 L 543.05 167.44 L 545.96 167.40 L 548.87 167.31 L 551.77 167.23 L 554.68 167.12 L 557.59 166.98 L 560.50 166.86 L 563.40 166.69 L 566.31 166.54 L 569.22 166.40 L 572.13 166.28 L 575.04 166.29 L 577.94 166.30 L 580.85 166.30 L 583.76 166.37 L 586.67 166.18 L 589.57 166.14 L 592.48 166.15 L 595.39 166.15 L 598.30 166.01 L 601.21 165.89 L 604.11 165.89 L 607.02 165.89 L 609.93 165.89 L 612.84 165.60 L 615.74 165.46 L 618.65 165.38 L 621.56 165.34 L 624.47 165.34 L 627.38 165.35 L 630.28 165.27 L 633.19 165.27 L 636.10 165.27 L 639.01 160.77 L 641.91 159.91 L 644.82 159.69 L 647.73 159.05 L 650.64 159.05 L 653.55 158.73 L 656.45 155.57 L 659.36 154.71 L 662.27 142.69 L 665.18 142.69 L 668.09 141.44 L 670.99 141.41 L 673.90 140.51 L 676.81 139.36 L 679.72 139.35 L 682.62 137.55 L 685.53 135.14 L 688.44 131.10 L 691.35 129.04 L 694.26 127.72 L 697.16 128.34 L 700.07 126.21 L 702.98 126.21 L 705.89 122.35 L 708.79 116.74 L 711.70 116.74 L 714.61 111.72 L 717.52 107.25 L 720.43 107.25 L 723.33 107.24 L 726.24 105.75 L 729.15 102.13 L 732.06 167.79 L 734.96 166.43 L 737.87 165.47 L 740.78 164.67 L 743.69 158.90 L 746.60 156.05 L 749.50 156.05 L 752.41 141.73 L 755.32 77.92 L 758.23 68.51 L 761.13 132.01 L 764.04 132.34 L 766.95 131.53 L 769.86 131.45 L 772.77 174.52 L 775.67 174.52 L 778.58 174.13 L 781.49 172.88 L 784.40 168.98 L 787.30 168.99 L 790.21 168.97 L 793.12 168.97 L 796.03 168.97 L 798.94 168.97 L 801.84 168.97 L 804.75 169.23 L 807.66 192.15 L 810.57 192.15 L 813.48 192.10 L 816.38 192.09 L 819.29 190.44 L 822.20 188.56 L 825.11 188.56 L 828.01 188.56 L 830.92 180.43 L 833.83 188.56 L 836.74 188.56 L 839.65 188.56 L 842.55 177.20 L 845.46 177.20 L 848.37 177.20 L 851.28 177.20 L 854.18 166.00 L 857.09 166.00 L 860.00 156.78" fill="none" stroke="#111827" stroke-width="2"/>
    <circle cx="860.00" cy="156.78" r="3" fill="#111827"/>
    <text x="40.00" y="235.00" font-size="9" fill="#111827" text-anchor="middle" transform="rotate(-45 40.00 235.00)">27.09.2025</text><text x="121.42" y="235.00" font-size="9" fill="#111827" text-anchor="middle" transform="rotate(-45 121.42 235.00)">28.09.2025</text><text x="202.84" y="235.00" font-size="9" fill="#111827" text-anchor="middle" transform="rotate(-45 202.84 235.00)">28.09.2025</text><text x="284.26" y="235.00" font-size="9" fill="#111827" text-anchor="middle" transform="rotate(-45 284.26 235.00)">29.09.2025</text><text x="365.67" y="235.00" font-size="9" fill="#111827" text-anchor="middle" transform="rotate(-45 365.67 235.00)">04.10.2025</text><text x="447.09" y="235.00" font-size="9" fill="#111827" text-anchor="middle" transform="rotate(-45 447.09 235.00)">04.10.2025</text><text x="528.51" y="235.00" font-size="9" fill="#111827" text-anchor="middle" transform="rotate(-45 528.51 235.00)">04.10.2025</text><text x="609.93" y="235.00" font-size="9" fill="#111827" text-anchor="middle" transform="rotate(-45 609.93 235.00)">04.10.2025</text><text x="691.35" y="235.00" font-size="9" fill="#111827" text-anchor="middle" transform="rotate(-45 691.35 235.00)">04.10.2025</text><text x="772.77" y="235.00" font-size="9" fill="#111827" text-anchor="middle" transform="rotate(-45 772.77 235.00)">05.10.2025</text><text x="854.18" y="235.00" font-size="9" fill="#111827" text-anchor="middle" transform="rotate(-45 854.18 235.00)">07.10.2025</text>
  </g>
</svg>