<svg xmlns="http://www.w3.org/2000/svg" width="900" height="290" style="font-family: -apple-system, BlinkMacSystemFont, 'Segoe UI', Helvetica, Arial, sans-serif;">
  <rect width="100%" height="100%" fill="white"/>
  <g>
    <line x1="40" y1="220.00" x2="860" y2="220.00" stroke="#e5e7eb"/><text x="32" y="224.00" font-size="10" fill="#111827" text-anchor="end">0</text><line x1="40" y1="175.00" x2="860" y2="175.00" stroke="#e5e7eb"/><text x="32" y="179.00" font-size="10" fill="#111827" text-anchor="end">25k</text><line x1="40" y1="130.00" x2="860" y2="130.00" stroke="#e5e7eb"/><text x="32" y="134.00" font-size="10" fill="#111827" text-anchor="end">50k</text><line x1="40" y1="85.00" x2="860" y2="85.00" stroke="#e5e7eb"/><text x="32" y="89.00" font-size="10" fill="#111827" text-anchor="end">75k</text><line x1="40" y1="40.00" x2="860" y2="40.00" stroke="#e5e7eb"/><text x="32" y="44.00" font-size="10" fill="#111827" text-anchor="end">100k</text>
    <line x1="40.00" y1="40" x2="40.00" y2="220" stroke="#e5e7eb" opacity="0.5"/><line x1="122.24" y1="40" x2="122.24" y2="220" stroke="#e5e7eb" opacity="0.5"/><line x1="204.48" y1="40" x2="204.48" y2="220" stroke="#e5e7eb" opacity="0.5"/><line x1="286.73" y1="40" x2="286.73" y2="220" stroke="#e5e7eb" opacity="0.5"/><line x1="368.97" y1="40" x2="368.97" y2="220" stroke="#e5e7eb" opacity="0.5"/><line x1="451.21" y1="40" x2="451.21" y2="220" stroke="#e5e7eb" opacity="0.5"/><line x1="533.45" y1="40" x2="533.45" y2="220" stroke="#e5e7eb" opacity="0.5"/><line x1="615.69" y1="40" x2="615.69" y2="220" stroke="#e5e7eb" opacity="0.5"/><line x1="697.94" y1="40" x2="697.94" y2="220" stroke="#e5e7eb" opacity="0.5"/><line x1="780.18" y1="40" x2="780.18" y2="220" stroke="#e5e7eb" opacity="0.5"/>
    <line x1="40" y1="220" x2="860" y2="220" stroke="#9ca3af"/>
    <line x1="40" y1="40"   x2="40"   y2="220" stroke="#9ca3af"/>
    <path d="M 40.00 220.00 L 42.42 220.00 L 44.84 219.60 L 47.26 219.62 L 49.68 219.63 L 52.09 219.32 L 54.51 219.31 L 56.93 219.26 L 59.35 218.89 L 61.77 218.89 L 64.19 218.89 L 66.61 218.87 L 69.03 218.87 L 71.45 218.86 L 73.86 218.85 L 76.28 218.85 L 78.70 218.82 L 81.12 218.78 L 83.54 218.72 L 85.96 218.68 L 88.38 218.64 L 90.80 218.59 L 93.22 218.59 L 95.63 218.57 L 98.05 218.57 L 100.47 218.57 L 102.89 218.57 L 105.31 218.57 L 107.73 218.57 L 110.15 218.57 L 112.57 218.57 L 114.99 218.57 L 117.40 218.55 L 119.82 218.54 L 122.24 218.58 L 124.66 218.55 L 127.08 218.55 L 129.50 218.53 L 131.92 218.31 L 134.34 217.94 L 136.76 217.88 L 139.17 217.87 L 141.59 217.86 L 144.01 217.85 L 146.43 217.84 L 148.85 217.85 L 151.27 217.82 L 153.69 217.66 L 156.11 217.61 L 158.53 217.60 L 160.94 217.57 L 163.36 217.56 L 165.78 217.52 L 168.20 217.38 L 170.62 217.24 L 173.04 216.93 L 175.46 216.65 L 177.88 216.44 L 180.29 216.39 L 182.71 216.34 L 185.13 216.83 L 187.55 200.94 L 189.97 200.94 L 192.39 200.95 L 194.81 198.99 L 197.23 198.98 L 199.65 198.94 L 202.06 198.94 L 204.48 198.91 L 206.90 198.90 L 209.32 198.93 L 211.74 198.93 L 214.16 198.99 L 216.58 198.95 L 219.00 198.96 L 221.42 198.95 L 223.83 198.95 L 226.25 198.97 L 228.67 198.97 L 231.09 198.97 L 233.51 198.97 L 235.93 198.97 L 238.35 198.97 L 240.77 198.97 L 243.19 198.97 L 245.60 198.97 L 248.02 198.97 L 250.44 198.97 L 252.86 197.51 L 255.28 197.43 L 257.70 197.40 L 260.12 197.38 L 262.54 197.38 L 264.96 197.49 L 267.37 197.34 L 269.79 197.33 L 272.21 197.18 L 274.63 197.41 L 277.05 197.41 L 279.47 197.29 L 281.89 197.29 L 284.31 197.22 L 286.73 197.21 L 289.14 197.15 L 291.56 196.94 L 293.98 197.00 L 296.40 197.41 L 298.82 197.41 L 301.24 197.30 L 303.66 197.26 L 306.08 197.19 L 308.50 197.19 L 310.91 197.19 L 313.33 197.19 L 315.75 197.18 L 318.17 197.12 L 320.59 197.09 L 323.01 197.04 L 325.43 197.00 L 327.85 196.96 L 330.27 196.92 L 332.68 196.91 L 335.10 196.86 L 337.52 196.80 L 339.94 196.75 L 342.36 196.69 L 344.78 196.66 L 347.20 196.63 L 349.62 196.56 L 352.04 196.51 L 354.45 196.47 L 356.87 196.45 L 359.29 196.40 L 361.71 196.37 L 364.13 196.34 L 366.55 196.28 L 368.97 196.20 L 371.39 196.12 L 373.81 196.02 L 376.22 195.89 L 378.64 195.77 L 381.06 195.68 L 383.48 195.63 L 385.90 195.58 L 388.32 195.53 L 390.74 195.44 L 393.16 195.35 L 395.58 195.22 L 397.99 195.11 L 400.41 194.95 L 402.83 194.82 L 405.25 194.68 L 407.67 194.57 L 410.09 194.55 L 412.51 194.51 L 414.93 194.48 L 417.35 194.44 L 419.76 194.40 L 422.18 194.37 L 424.60 194.34 L 427.02 194.29 L 429.44 194.25 L 431.86 194.23 L 434.28 194.21 L 436.70 194.19 L 439.12 194.16 L 441.53 194.12 L 443.95 194.07 L 446.37 193.99 L 448.79 193.94 L 451.21 193.87 L 453.63 193.80 L 456.05 193.74 L 458.47 193.72 L 460.88 193.70 L 463.30 193.66 L 465.72 193.62 L 468.14 193.56 L 470.56 193.49 L 472.98 193.43 L 475.40 193.35 L 477.82 193.27 L 480.24 193.20 L 482.65 193.14 L 485.07 193.15 L 487.49 193.15 L 489.91 193.15 L 492.33 193.18 L 494.75 193.09 L 497.17 193.07 L 499.59 193.07 L 502.01 193.08 L 504.42 193.00 L 506.84 192.95 L 509.26 192.95 L 511.68 192.95 L 514.10 192.95 L 516.52 192.80 L 518.94 192.73 L 521.36 192.69 L 523.78 192.67 L 526.19 192.67 L 528.61 192.68 L 531.03 192.64 L 533.45 192.63 L 535.87 192.63 L 538.29 190.39 L 540.71 189.96 L 543.13 189.85 L 545.55 189.53 L 547.96 189.52 L 550.38 189.36 L 552.80 187.79 L 555.22 187.36 L 557.64 181.35 L 560.06 181.35 L 562.48 180.72 L 564.90 180.71 L 567.32 180.26 L 569.73 179.68 L 572.15 179.67 L 574.57 178.77 L 576.99 177.57 L 579.41 175.55 L 581.83 174.52 L 584.25 173.86 L 586.67 174.17 L 589.09 173.10 L 591.50 173.10 L 593.92 171.18 L 596.34 168.37 L 598.76 168.37 L 601.18 165.86 L 603.60 163.63 L 606.02 163.63 L 608.44 163.62 L 610.86 162.88 L 613.27 161.06 L 615.69 193.89 L 618.11 193.22 L 620.53 192.73 L 622.95 192.34 L 625.37 189.45 L 627.79 188.03 L 630.21 188.03 L 632.63 180.86 L 635.04 148.96 L 637.46 144.25 L 639.88 176.00 L 642.30 176.17 L 644.72 175.77 L 647.14 175.72 L 649.56 197.26 L 651.98 197.26 L 654.40 197.06 L 656.81 196.44 L 659.23 194.49 L 661.65 194.50 L 664.07 194.49 L 666.49 194.49 L 668.91 194.49 L 671.33 194.48 L 673.75 194.48 L 676.17 194.62 L 678.58 206.08 L 681.00 206.08 L 683.42 206.05 L 685.84 206.04 L 688.26 205.22 L 690.68 204.28 L 693.10 204.28 L 695.52 204.28 L 697.94 200.22 L 700.35 204.28 L 702.77 204.28 L 705.19 204.28 L 707.61 198.60 L 710.03 198.60 L 712.45 198.60 L 714.87 198.60 L 717.29 193.00 L 719.71 193.00 L 722.12 188.39 L 724.54 188.39 L 726.96 179.75 L 729.38 174.84 L 731.80 173.23 L 734.22 170.37 L 736.64 169.87 L 739.06 153.88 L 741.47 149.24 L 743.89 152.04 L 746.31 141.93 L 748.73 141.88 L 751.15 141.69 L 753.57 141.69 L 755.99 141.76 L 758.41 141.75 L 760.83 140.68 L 763.24 141.38 L 765.66 141.36 L 768.08 141.83 L 770.50 141.39 L 772.92 141.39 L 775.34 141.52 L 777.76 141.52 L 780.18 141.53 L 782.60 142.33 L 785.01 141.73 L 787.43 141.68 L 789.85 141.68 L 792.27 141.66 L 794.69 141.67 L 797.11 141.65 L 799.53 139.51 L 801.95 136.07 L 804.37 136.04 L 806.78 133.43 L 809.20 131.89 L 811.62 131.13 L 814.04 131.51 L 816.46 131.50 L 818.88 131.57 L 821.30 131.56 L 823.72 131.49 L 826.14 131.49 L 828.55 131.49 L 830.97 131.49 L 833.39 131.49 L 835.81 131.49 L 838.23 131.49 L 840.65 131.49 L 843.07 131.49 L 845.49 131.49 L 847.91 131.49 L 850.32 131.49 L 852.74 131.49 L 855.16 131.49 L 857.58 131.49 L 860.00 131.49" fill="none" stroke="#111827" stroke-width="2"/>
    <circle cx="860.00" cy="131.49" r="3" fill="#111827"/>
    <text x="40.00" y="235.00" font-size="9" fill="#111827" text-anchor="middle" transform="rotate(-45 40.00 235.00)">27.09.2025</text><text x="122.24" y="235.00" font-size="9" fill="#111827" text-anchor="middle" transform="rotate(-45 122.24 235.00)">28.09.2025</text><text x="204.48" y="235.00" font-size="9" fill="#111827" text-anchor="middle" transform="rotate(-45 204.48 235.00)">28.09.2025</text><text x="286.73" y="235.00" font-size="9" fill="#111827" text-anchor="middle" transform="rotate(-45 286.73 235.00)">30.09.2025</text><text x="368.97" y="235.00" font-size="9" fill="#111827" text-anchor="middle" transform="rotate(-45 368.97 235.00)">04.10.2025</text><text x="451.21" y="235.00" font-size="9" fill="#111827" text-anchor="middle" transform="rotate(-45 451.21 235.00)">04.10.2025</text><text x="533.45" y="235.00" font-size="9" fill="#111827" text-anchor="middle" transform="rotate(-45 533.45 235.00)">04.10.2025</text><text x="615.69" y="235.00" font-size="9" fill="#111827" text-anchor="middle" transform="rotate(-45 615.69 235.00)">04.10.2025</text><text x="697.94" y="235.00" font-size="9" fill="#111827" text-anchor="middle" transform="rotate(-45 697.94 235.00)">07.10.2025</text><text x="780.18" y="235.00" font-size="9" fill="#111827" text-anchor="middle" transform="rotate(-45 780.18 235.00)">09.10.2025</text>
  </g>
</svg>