<svg xmlns="http://www.w3.org/2000/svg" width="900" height="290" style="font-family: -apple-system, BlinkMacSystemFont, 'Segoe UI', Helvetica, Arial, sans-serif;">
  <rect width="100%" height="100%" fill="white"/>
  <g>
    <line x1="40" y1="220.00" x2="860" y2="220.00" stroke="#e5e7eb"/><text x="32" y="224.00" font-size="10" fill="#111827" text-anchor="end">0</text><line x1="40" y1="175.00" x2="860" y2="175.00" stroke="#e5e7eb"/><text x="32" y="179.00" font-size="10" fill="#111827" text-anchor="end">25k</text><line x1="40" y1="130.00" x2="860" y2="130.00" stroke="#e5e7eb"/><text x="32" y="134.00" font-size="10" fill="#111827" text-anchor="end">50k</text><line x1="40" y1="85.00" x2="860" y2="85.00" stroke="#e5e7eb"/><text x="32" y="89.00" font-size="10" fill="#111827" text-anchor="end">75k</text><line x1="40" y1="40.00" x2="860" y2="40.00" stroke="#e5e7eb"/><text x="32" y="44.00" font-size="10" fill="#111827" text-anchor="end">100k</text>
    <line x1="40.00" y1="40" x2="40.00" y2="220" stroke="#e5e7eb" opacity="0.5"/><line x1="121.05" y1="40" x2="121.05" y2="220" stroke="#e5e7eb" opacity="0.5"/><line x1="202.09" y1="40" x2="202.09" y2="220" stroke="#e5e7eb" opacity="0.5"/><line x1="283.14" y1="40" x2="283.14" y2="220" stroke="#e5e7eb" opacity="0.5"/><line x1="364.19" y1="40" x2="364.19" y2="220" stroke="#e5e7eb" opacity="0.5"/><line x1="445.23" y1="40" x2="445.23" y2="220" stroke="#e5e7eb" opacity="0.5"/><line x1="526.28" y1="40" x2="526.28" y2="220" stroke="#e5e7eb" opacity="0.5"/><line x1="607.33" y1="40" x2="607.33" y2="220" stroke="#e5e7eb" opacity="0.5"/><line x1="688.37" y1="40" x2="688.37" y2="220" stroke="#e5e7eb" opacity="0.5"/><line x1="769.42" y1="40" x2="769.42" y2="220" stroke="#e5e7eb" opacity="0.5"/><line x1="850.47" y1="40" x2="850.47" y2="220" stroke="#e5e7eb" opacity="0.5"/>
    <line x1="40" y1="220" x2="860" y2="220" stroke="#9ca3af"/>
    <line x1="40" y1="40"   x2="40"   y2="220" stroke="#9ca3af"/>
    <path d="M 40.00 220.00 L 42.38 220.00 L 44.77 219.60 L 47.15 219.62 L 49.53 219.63 L 51.92 219.32 L 54.30 219.31 L 56.69 219.26 L 59.07 218.89 L 61.45 218.89 L 63.84 218.89 L 66.22 218.87 L 68.60 218.87 L 70.99 218.86 L 73.37 218.85 L 75.76 218.85 L 78.14 218.82 L 80.52 218.78 L 82.91 218.72 L 85.29 218.68 L 87.67 218.64 L 90.06 218.59 L 92.44 218.59 L 94.83 218.57 L 97.21 218.57 L 99.59 218.57 L 101.98 218.57 L 104.36 218.57 L 106.74 218.57 L 109.13 218.57 L 111.51 218.57 L 113.90 218.57 L 116.28 218.55 L 118.66 218.54 L 121.05 218.58 L 123.43 218.55 L 125.81 218.55 L 128.20 218.53 L 130.58 218.31 L 132.97 217.94 L 135.35 217.88 L 137.73 217.87 L 140.12 217.86 L 142.50 217.85 L 144.88 217.84 L 147.27 217.85 L 149.65 217.82 L 152.03 217.66 L 154.42 217.61 L 156.80 217.60 L 159.19 217.57 L 161.57 217.56 L 163.95 217.52 L 166.34 217.38 L 168.72 217.24 L 171.10 216.93 L 173.49 216.65 L 175.87 216.44 L 178.26 216.39 L 180.64 216.34 L 183.02 216.83 L 185.41 200.94 L 187.79 200.94 L 190.17 200.95 L 192.56 198.99 L 194.94 198.98 L 197.33 198.94 L 199.71 198.94 L 202.09 198.91 L 204.48 198.90 L 206.86 198.93 L 209.24 198.93 L 211.63 198.99 L 214.01 198.95 L 216.40 198.96 L 218.78 198.95 L 221.16 198.95 L 223.55 198.97 L 225.93 198.97 L 228.31 198.97 L 230.70 198.97 L 233.08 198.97 L 235.47 198.97 L 237.85 198.97 L 240.23 198.97 L 242.62 198.97 L 245.00 198.97 L 247.38 198.97 L 249.77 197.51 L 252.15 197.43 L 254.53 197.40 L 256.92 197.38 L 259.30 197.38 L 261.69 197.49 L 264.07 197.34 L 266.45 197.33 L 268.84 197.18 L 271.22 197.41 L 273.60 197.41 L 275.99 197.29 L 278.37 197.29 L 280.76 197.22 L 283.14 197.21 L 285.52 197.15 L 287.91 196.94 L 290.29 197.00 L 292.67 197.41 L 295.06 197.41 L 297.44 197.30 L 299.83 197.26 L 302.21 197.19 L 304.59 197.19 L 306.98 197.19 L 309.36 197.19 L 311.74 197.18 L 314.13 197.12 L 316.51 197.09 L 318.90 197.04 L 321.28 197.00 L 323.66 196.96 L 326.05 196.92 L 328.43 196.91 L 330.81 196.86 L 333.20 196.80 L 335.58 196.75 L 337.97 196.69 L 340.35 196.66 L 342.73 196.63 L 345.12 196.56 L 347.50 196.51 L 349.88 196.47 L 352.27 196.45 L 354.65 196.40 L 357.03 196.37 L 359.42 196.34 L 361.80 196.28 L 364.19 196.20 L 366.57 196.12 L 368.95 196.02 L 371.34 195.89 L 373.72 195.77 L 376.10 195.68 L 378.49 195.63 L 380.87 195.58 L 383.26 195.53 L 385.64 195.44 L 388.02 195.35 L 390.41 195.22 L 392.79 195.11 L 395.17 194.95 L 397.56 194.82 L 399.94 194.68 L 402.33 194.57 L 404.71 194.55 L 407.09 194.51 L 409.48 194.48 L 411.86 194.44 L 414.24 194.40 L 416.63 194.37 L 419.01 194.34 L 421.40 194.29 L 423.78 194.25 L 426.16 194.23 L 428.55 194.21 L 430.93 194.19 L 433.31 194.16 L 435.70 194.12 L 438.08 194.07 L 440.47 193.99 L 442.85 193.94 L 445.23 193.87 L 447.62 193.80 L 450.00 193.74 L 452.38 193.72 L 454.77 193.70 L 457.15 193.66 L 459.53 193.62 L 461.92 193.56 L 464.30 193.49 L 466.69 193.43 L 469.07 193.35 L 471.45 193.27 L 473.84 193.20 L 476.22 193.14 L 478.60 193.15 L 480.99 193.15 L 483.37 193.15 L 485.76 193.18 L 488.14 193.09 L 490.52 193.07 L 492.91 193.07 L 495.29 193.08 L 497.67 193.00 L 500.06 192.95 L 502.44 192.95 L 504.83 192.95 L 507.21 192.95 L 509.59 192.80 L 511.98 192.73 L 514.36 192.69 L 516.74 192.67 L 519.13 192.67 L 521.51 192.68 L 523.90 192.64 L 526.28 192.63 L 528.66 192.63 L 531.05 190.39 L 533.43 189.96 L 535.81 189.85 L 538.20 189.53 L 540.58 189.52 L 542.97 189.36 L 545.35 187.79 L 547.73 187.36 L 550.12 181.35 L 552.50 181.35 L 554.88 180.72 L 557.27 180.71 L 559.65 180.26 L 562.03 179.68 L 564.42 179.67 L 566.80 178.77 L 569.19 177.57 L 571.57 175.55 L 573.95 174.52 L 576.34 173.86 L 578.72 174.17 L 581.10 173.10 L 583.49 173.10 L 585.87 171.18 L 588.26 168.37 L 590.64 168.37 L 593.02 165.86 L 595.41 163.63 L 597.79 163.63 L 600.17 163.62 L 602.56 162.88 L 604.94 161.06 L 607.33 193.89 L 609.71 193.22 L 612.09 192.73 L 614.48 192.34 L 616.86 189.45 L 619.24 188.03 L 621.63 188.03 L 624.01 180.86 L 626.40 148.96 L 628.78 144.25 L 631.16 176.00 L 633.55 176.17 L 635.93 175.77 L 638.31 175.72 L 640.70 197.26 L 643.08 197.26 L 645.47 197.06 L 647.85 196.44 L 650.23 194.49 L 652.62 194.50 L 655.00 194.49 L 657.38 194.49 L 659.77 194.49 L 662.15 194.48 L 664.53 194.48 L 666.92 194.62 L 669.30 206.08 L 671.69 206.08 L 674.07 206.05 L 676.45 206.04 L 678.84 205.22 L 681.22 204.28 L 683.60 204.28 L 685.99 204.28 L 688.37 200.22 L 690.76 204.28 L 693.14 204.28 L 695.52 204.28 L 697.91 198.60 L 700.29 198.60 L 702.67 198.60 L 705.06 198.60 L 707.44 193.00 L 709.83 193.00 L 712.21 188.39 L 714.59 188.39 L 716.98 179.75 L 719.36 174.84 L 721.74 173.23 L 724.13 170.37 L 726.51 169.87 L 728.90 153.88 L 731.28 149.24 L 733.66 152.04 L 736.05 141.93 L 738.43 141.88 L 740.81 141.69 L 743.20 141.69 L 745.58 141.76 L 747.97 141.75 L 750.35 140.68 L 752.73 141.38 L 755.12 141.36 L 757.50 141.83 L 759.88 141.39 L 762.27 141.39 L 764.65 141.52 L 767.03 141.52 L 769.42 141.53 L 771.80 142.33 L 774.19 141.73 L 776.57 141.68 L 778.95 141.68 L 781.34 141.66 L 783.72 141.67 L 786.10 141.65 L 788.49 139.51 L 790.87 136.07 L 793.26 136.04 L 795.64 133.43 L 798.02 131.89 L 800.41 131.13 L 802.79 131.51 L 805.17 131.50 L 807.56 131.57 L 809.94 131.56 L 812.33 131.49 L 814.71 131.49 L 817.09 131.49 L 819.48 131.49 L 821.86 131.49 L 824.24 131.49 L 826.63 131.49 L 829.01 131.49 L 831.40 131.49 L 833.78 131.49 L 836.16 131.49 L 838.55 131.49 L 840.93 131.49 L 843.31 131.49 L 845.70 131.49 L 848.08 131.49 L 850.47 131.49 L 852.85 131.49 L 855.23 131.49 L 857.62 131.49 L 860.00 131.49" fill="none" stroke="#111827" stroke-width="2"/>
    <circle cx="860.00" cy="131.49" r="3" fill="#111827"/>
    <text x="40.00" y="235.00" font-size="9" fill="#111827" text-anchor="middle" transform="rotate(-45 40.00 235.00)">27.09.2025</text><text x="121.05" y="235.00" font-size="9" fill="#111827" text-anchor="middle" transform="rotate(-45 121.05 235.00)">28.09.2025</text><text x="202.09" y="235.00" font-size="9" fill="#111827" text-anchor="middle" transform="rotate(-45 202.09 235.00)">28.09.2025</text><text x="283.14" y="235.00" font-size="9" fill="#111827" text-anchor="middle" transform="rotate(-45 283.14 235.00)">30.09.2025</text><text x="364.19" y="235.00" font-size="9" fill="#111827" text-anchor="middle" transform="rotate(-45 364.19 235.00)">04.10.2025</text><text x="445.23" y="235.00" font-size="9" fill="#111827" text-anchor="middle" transform="rotate(-45 445.23 235.00)">04.10.2025</text><text x="526.28" y="235.00" font-size="9" fill="#111827" text-anchor="middle" transform="rotate(-45 526.28 235.00)">04.10.2025</text><text x="607.33" y="235.00" font-size="9" fill="#111827" text-anchor="middle" transform="rotate(-45 607.33 235.00)">04.10.2025</text><text x="688.37" y="235.00" font-size="9" fill="#111827" text-anchor="middle" transform="rotate(-45 688.37 235.00)">07.10.2025</text><text x="769.42" y="235.00" font-size="9" fill="#111827" text-anchor="middle" transform="rotate(-45 769.42 235.00)">09.10.2025</text><text x="850.47" y="235.00" font-size="9" fill="#111827" text-anchor="middle" transform="rotate(-45 850.47 235.00)">25.10.2025</text>
  </g>
</svg>