<svg xmlns="http://www.w3.org/2000/svg" width="900" height="290" style="font-family: -apple-system, BlinkMacSystemFont, 'Segoe UI', Helvetica, Arial, sans-serif;">
  <rect width="100%" height="100%" fill="white"/>
  <g>
    <line x1="40" y1="220.00" x2="860" y2="220.00" stroke="#e5e7eb"/><text x="32" y="224.00" font-size="10" fill="#111827" text-anchor="end">0</text><line x1="40" y1="175.00" x2="860" y2="175.00" stroke="#e5e7eb"/><text x="32" y="179.00" font-size="10" fill="#111827" text-anchor="end">25k</text><line x1="40" y1="130.00" x2="860" y2="130.00" stroke="#e5e7eb"/><text x="32" y="134.00" font-size="10" fill="#111827" text-anchor="end">50k</text><line x1="40" y1="85.00" x2="860" y2="85.00" stroke="#e5e7eb"/><text x="32" y="89.00" font-size="10" fill="#111827" text-anchor="end">75k</text><line x1="40" y1="40.00" x2="860" y2="40.00" stroke="#e5e7eb"/><text x="32" y="44.00" font-size="10" fill="#111827" text-anchor="end">100k</text>
    <line x1="40.00" y1="40" x2="40.00" y2="220" stroke="#e5e7eb" opacity="0.5"/><line x1="121.75" y1="40" x2="121.75" y2="220" stroke="#e5e7eb" opacity="0.5"/><line x1="203.50" y1="40" x2="203.50" y2="220" stroke="#e5e7eb" opacity="0.5"/><line x1="285.26" y1="40" x2="285.26" y2="220" stroke="#e5e7eb" opacity="0.5"/><line x1="367.01" y1="40" x2="367.01" y2="220" stroke="#e5e7eb" opacity="0.5"/><line x1="448.76" y1="40" x2="448.76" y2="220" stroke="#e5e7eb" opacity="0.5"/><line x1="530.51" y1="40" x2="530.51" y2="220" stroke="#e5e7eb" opacity="0.5"/><line x1="612.27" y1="40" x2="612.27" y2="220" stroke="#e5e7eb" opacity="0.5"/><line x1="694.02" y1="40" x2="694.02" y2="220" stroke="#e5e7eb" opacity="0.5"/><line x1="775.77" y1="40" x2="775.77" y2="220" stroke="#e5e7eb" opacity="0.5"/><line x1="857.52" y1="40" x2="857.52" y2="220" stroke="#e5e7eb" opacity="0.5"/>
    <line x1="40" y1="220" x2="860" y2="220" stroke="#9ca3af"/>
    <line x1="40" y1="40"   x2="40"   y2="220" stroke="#9ca3af"/>
    <path d="M 40.00 220.00 L 42.48 220.00 L 44.95 219.60 L 47.43 219.62 L 49.91 219.63 L 52.39 219.32 L 54.86 219.31 L 57.34 219.26 L 59.82 218.89 L 62.30 218.89 L 64.77 218.89 L 67.25 218.87 L 69.73 218.87 L 72.21 218.86 L 74.68 218.85 L 77.16 218.85 L 79.64 218.82 L 82.11 218.78 L 84.59 218.72 L 87.07 218.68 L 89.55 218.64 L 92.02 218.59 L 94.50 218.59 L 96.98 218.57 L 99.46 218.57 L 101.93 218.57 L 104.41 218.57 L 106.89 218.57 L 109.37 218.57 L 111.84 218.57 L 114.32 218.57 L 116.80 218.57 L 119.27 218.55 L 121.75 218.54 L 124.23 218.58 L 126.71 218.55 L 129.18 218.55 L 131.66 218.53 L 134.14 218.31 L 136.62 217.94 L 139.09 217.88 L 141.57 217.87 L 144.05 217.86 L 146.53 217.85 L 149.00 217.84 L 151.48 217.85 L 153.96 217.82 L 156.44 217.66 L 158.91 217.61 L 161.39 217.60 L 163.87 217.57 L 166.34 217.56 L 168.82 217.52 L 171.30 217.38 L 173.78 217.24 L 176.25 216.93 L 178.73 216.65 L 181.21 216.44 L 183.69 216.39 L 186.16 216.34 L 188.64 216.83 L 191.12 200.94 L 193.60 200.94 L 196.07 200.95 L 198.55 198.99 L 201.03 198.98 L 203.50 198.94 L 205.98 198.94 L 208.46 198.91 L 210.94 198.90 L 213.41 198.93 L 215.89 198.93 L 218.37 198.99 L 220.85 198.95 L 223.32 198.96 L 225.80 198.95 L 228.28 198.95 L 230.76 198.97 L 233.23 198.97 L 235.71 198.97 L 238.19 198.97 L 240.66 198.97 L 243.14 198.97 L 245.62 198.97 L 248.10 198.97 L 250.57 198.97 L 253.05 198.97 L 255.53 198.97 L 258.01 197.51 L 260.48 197.43 L 262.96 197.40 L 265.44 197.38 L 267.92 197.38 L 270.39 197.49 L 272.87 197.34 L 275.35 197.33 L 277.82 197.18 L 280.30 197.41 L 282.78 197.41 L 285.26 197.29 L 287.73 197.29 L 290.21 197.22 L 292.69 197.21 L 295.17 197.15 L 297.64 196.94 L 300.12 197.00 L 302.60 197.41 L 305.08 197.41 L 307.55 197.30 L 310.03 197.26 L 312.51 197.19 L 314.98 197.19 L 317.46 197.19 L 319.94 197.19 L 322.42 197.18 L 324.89 197.12 L 327.37 197.09 L 329.85 197.04 L 332.33 197.00 L 334.80 196.96 L 337.28 196.92 L 339.76 196.91 L 342.24 196.86 L 344.71 196.80 L 347.19 196.75 L 349.67 196.69 L 352.15 196.66 L 354.62 196.63 L 357.10 196.56 L 359.58 196.51 L 362.05 196.47 L 364.53 196.45 L 367.01 196.40 L 369.49 196.37 L 371.96 196.34 L 374.44 196.28 L 376.92 196.20 L 379.40 196.12 L 381.87 196.02 L 384.35 195.89 L 386.83 195.77 L 389.31 195.68 L 391.78 195.63 L 394.26 195.58 L 396.74 195.53 L 399.21 195.44 L 401.69 195.35 L 404.17 195.22 L 406.65 195.11 L 409.12 194.95 L 411.60 194.82 L 414.08 194.68 L 416.56 194.57 L 419.03 194.55 L 421.51 194.51 L 423.99 194.48 L 426.47 194.44 L 428.94 194.40 L 431.42 194.37 L 433.90 194.34 L 436.37 194.29 L 438.85 194.25 L 441.33 194.23 L 443.81 194.21 L 446.28 194.19 L 448.76 194.16 L 451.24 194.12 L 453.72 194.07 L 456.19 193.99 L 458.67 193.94 L 461.15 193.87 L 463.63 193.80 L 466.10 193.74 L 468.58 193.72 L 471.06 193.70 L 473.53 193.66 L 476.01 193.62 L 478.49 193.56 L 480.97 193.49 L 483.44 193.43 L 485.92 193.35 L 488.40 193.27 L 490.88 193.20 L 493.35 193.14 L 495.83 193.15 L 498.31 193.15 L 500.79 193.15 L 503.26 193.18 L 505.74 193.09 L 508.22 193.07 L 510.69 193.07 L 513.17 193.08 L 515.65 193.00 L 518.13 192.95 L 520.60 192.95 L 523.08 192.95 L 525.56 192.95 L 528.04 192.80 L 530.51 192.73 L 532.99 192.69 L 535.47 192.67 L 537.95 192.67 L 540.42 192.68 L 542.90 192.64 L 545.38 192.63 L 547.85 192.63 L 550.33 190.39 L 552.81 189.96 L 555.29 189.85 L 557.76 189.53 L 560.24 189.52 L 562.72 189.36 L 565.20 187.79 L 567.67 187.36 L 570.15 181.35 L 572.63 181.35 L 575.11 180.72 L 577.58 180.71 L 580.06 180.26 L 582.54 179.68 L 585.02 179.67 L 587.49 178.77 L 589.97 177.57 L 592.45 175.55 L 594.92 174.52 L 597.40 173.86 L 599.88 174.17 L 602.36 173.10 L 604.83 173.10 L 607.31 171.18 L 609.79 168.37 L 612.27 168.37 L 614.74 165.86 L 617.22 163.63 L 619.70 163.63 L 622.18 163.62 L 624.65 162.88 L 627.13 161.06 L 629.61 193.89 L 632.08 193.22 L 634.56 192.73 L 637.04 192.34 L 639.52 189.45 L 641.99 188.03 L 644.47 188.03 L 646.95 180.86 L 649.43 148.96 L 651.90 144.25 L 654.38 176.00 L 656.86 176.17 L 659.34 175.77 L 661.81 175.72 L 664.29 197.26 L 666.77 197.26 L 669.24 197.06 L 671.72 196.44 L 674.20 194.49 L 676.68 194.50 L 679.15 194.49 L 681.63 194.49 L 684.11 194.49 L 686.59 194.48 L 689.06 194.48 L 691.54 194.62 L 694.02 206.08 L 696.50 206.08 L 698.97 206.05 L 701.45 206.04 L 703.93 205.22 L 706.40 204.28 L 708.88 204.28 L 711.36 204.28 L 713.84 200.22 L 716.31 204.28 L 718.79 204.28 L 721.27 204.28 L 723.75 198.60 L 726.22 198.60 L 728.70 198.60 L 731.18 198.60 L 733.66 193.00 L 736.13 193.00 L 738.61 188.39 L 741.09 188.39 L 743.56 179.75 L 746.04 174.84 L 748.52 173.23 L 751.00 170.37 L 753.47 169.87 L 755.95 153.88 L 758.43 149.24 L 760.91 152.04 L 763.38 141.93 L 765.86 141.88 L 768.34 141.69 L 770.82 141.69 L 773.29 141.76 L 775.77 141.75 L 778.25 140.68 L 780.73 141.38 L 783.20 141.36 L 785.68 141.83 L 788.16 141.39 L 790.63 141.39 L 793.11 141.52 L 795.59 141.52 L 798.07 141.53 L 800.54 142.33 L 803.02 141.73 L 805.50 141.68 L 807.98 141.68 L 810.45 141.66 L 812.93 141.67 L 815.41 141.65 L 817.89 139.51 L 820.36 136.07 L 822.84 136.04 L 825.32 133.43 L 827.79 131.89 L 830.27 131.13 L 832.75 131.51 L 835.23 131.50 L 837.70 131.57 L 840.18 131.56 L 842.66 131.49 L 845.14 131.49 L 847.61 131.49 L 850.09 131.49 L 852.57 131.49 L 855.05 131.49 L 857.52 131.49 L 860.00 131.49" fill="none" stroke="#111827" stroke-width="2"/>
    <circle cx="860.00" cy="131.49" r="3" fill="#111827"/>
    <text x="40.00" y="235.00" font-size="9" fill="#111827" text-anchor="middle" transform="rotate(-45 40.00 235.00)">27.09.2025</text><text x="121.75" y="235.00" font-size="9" fill="#111827" text-anchor="middle" transform="rotate(-45 121.75 235.00)">28.09.2025</text><text x="203.50" y="235.00" font-size="9" fill="#111827" text-anchor="middle" transform="rotate(-45 203.50 235.00)">28.09.2025</text><text x="285.26" y="235.00" font-size="9" fill="#111827" text-anchor="middle" transform="rotate(-45 285.26 235.00)">30.09.2025</text><text x="367.01" y="235.00" font-size="9" fill="#111827" text-anchor="middle" transform="rotate(-45 367.01 235.00)">04.10.2025</text><text x="448.76" y="235.00" font-size="9" fill="#111827" text-anchor="middle" transform="rotate(-45 448.76 235.00)">04.10.2025</text><text x="530.51" y="235.00" font-size="9" fill="#111827" text-anchor="middle" transform="rotate(-45 530.51 235.00)">04.10.2025</text><text x="612.27" y="235.00" font-size="9" fill="#111827" text-anchor="middle" transform="rotate(-45 612.27 235.00)">04.10.2025</text><text x="694.02" y="235.00" font-size="9" fill="#111827" text-anchor="middle" transform="rotate(-45 694.02 235.00)">05.10.2025</text><text x="775.77" y="235.00" font-size="9" fill="#111827" text-anchor="middle" transform="rotate(-45 775.77 235.00)">08.10.2025</text><text x="857.52" y="235.00" font-size="9" fill="#111827" text-anchor="middle" transform="rotate(-45 857.52 235.00)">15.10.2025</text>
  </g>
</svg>