<svg xmlns="http://www.w3.org/2000/svg" width="900" height="290" style="font-family: -apple-system, BlinkMacSystemFont, 'Segoe UI', Helvetica, Arial, sans-serif;">
  <rect width="100%" height="100%" fill="white"/>
  <g>
    <line x1="40" y1="220.00" x2="860" y2="220.00" stroke="#e5e7eb"/><text x="32" y="224.00" font-size="10" fill="#111827" text-anchor="end">0</text><line x1="40" y1="175.00" x2="860" y2="175.00" stroke="#e5e7eb"/><text x="32" y="179.00" font-size="10" fill="#111827" text-anchor="end">25k</text><line x1="40" y1="130.00" x2="860" y2="130.00" stroke="#e5e7eb"/><text x="32" y="134.00" font-size="10" fill="#111827" text-anchor="end">50k</text><line x1="40" y1="85.00" x2="860" y2="85.00" stroke="#e5e7eb"/><text x="32" y="89.00" font-size="10" fill="#111827" text-anchor="end">75k</text><line x1="40" y1="40.00" x2="860" y2="40.00" stroke="#e5e7eb"/><text x="32" y="44.00" font-size="10" fill="#111827" text-anchor="end">100k</text>
    <line x1="40.00" y1="40" x2="40.00" y2="220" stroke="#e5e7eb" opacity="0.5"/><line x1="122.17" y1="40" x2="122.17" y2="220" stroke="#e5e7eb" opacity="0.5"/><line x1="204.35" y1="40" x2="204.35" y2="220" stroke="#e5e7eb" opacity="0.5"/><line x1="286.52" y1="40" x2="286.52" y2="220" stroke="#e5e7eb" opacity="0.5"/><line x1="368.70" y1="40" x2="368.70" y2="220" stroke="#e5e7eb" opacity="0.5"/><line x1="450.87" y1="40" x2="450.87" y2="220" stroke="#e5e7eb" opacity="0.5"/><line x1="533.05" y1="40" x2="533.05" y2="220" stroke="#e5e7eb" opacity="0.5"/><line x1="615.22" y1="40" x2="615.22" y2="220" stroke="#e5e7eb" opacity="0.5"/><line x1="697.40" y1="40" x2="697.40" y2="220" stroke="#e5e7eb" opacity="0.5"/><line x1="779.57" y1="40" x2="779.57" y2="220" stroke="#e5e7eb" opacity="0.5"/>
    <line x1="40" y1="220" x2="860" y2="220" stroke="#9ca3af"/>
    <line x1="40" y1="40"   x2="40"   y2="220" stroke="#9ca3af"/>
    <path d="M 40.00 220.00 L 41.75 220.00 L 43.50 219.60 L 45.25 219.62 L 46.99 219.63 L 48.74 219.32 L 50.49 219.31 L 52.24 219.26 L 53.99 218.89 L 55.74 218.89 L 57.48 218.89 L 59.23 218.87 L 60.98 218.87 L 62.73 218.86 L 64.48 218.85 L 66.23 218.85 L 67.97 218.82 L 69.72 218.78 L 71.47 218.72 L 73.22 218.68 L 74.97 218.64 L 76.72 218.59 L 78.46 218.59 L 80.21 218.57 L 81.96 218.57 L 83.71 218.57 L 85.46 218.57 L 87.21 218.57 L 88.96 218.57 L 90.70 218.57 L 92.45 218.57 L 94.20 218.57 L 95.95 218.55 L 97.70 218.54 L 99.45 218.58 L 101.19 218.55 L 102.94 218.55 L 104.69 218.53 L 106.44 218.31 L 108.19 217.94 L 109.94 217.88 L 111.68 217.87 L 113.43 217.86 L 115.18 217.85 L 116.93 217.84 L 118.68 217.85 L 120.43 217.82 L 122.17 217.66 L 123.92 217.61 L 125.67 217.60 L 127.42 217.57 L 129.17 217.56 L 130.92 217.52 L 132.67 217.38 L 134.41 217.24 L 136.16 216.93 L 137.91 216.65 L 139.66 216.44 L 141.41 216.39 L 143.16 216.34 L 144.90 216.83 L 146.65 200.94 L 148.40 200.94 L 150.15 200.95 L 151.90 198.99 L 153.65 198.98 L 155.39 198.94 L 157.14 198.94 L 158.89 198.91 L 160.64 198.90 L 162.39 198.93 L 164.14 198.93 L 165.88 198.99 L 167.63 198.95 L 169.38 198.96 L 171.13 198.95 L 172.88 198.95 L 174.63 198.97 L 176.38 198.97 L 178.12 198.97 L 179.87 198.97 L 181.62 198.97 L 183.37 198.97 L 185.12 198.97 L 186.87 198.97 L 188.61 198.97 L 190.36 198.97 L 192.11 198.97 L 193.86 197.51 L 195.61 197.43 L 197.36 197.40 L 199.10 197.38 L 200.85 197.38 L 202.60 197.49 L 204.35 197.34 L 206.10 197.33 L 207.85 197.18 L 209.59 197.41 L 211.34 197.41 L 213.09 197.29 L 214.84 197.29 L 216.59 197.22 L 218.34 197.21 L 220.09 197.15 L 221.83 196.94 L 223.58 197.00 L 225.33 197.41 L 227.08 197.41 L 228.83 197.30 L 230.58 197.26 L 232.32 197.19 L 234.07 197.19 L 235.82 197.19 L 237.57 197.19 L 239.32 197.18 L 241.07 197.12 L 242.81 197.09 L 244.56 197.04 L 246.31 197.00 L 248.06 196.96 L 249.81 196.92 L 251.56 196.91 L 253.30 196.86 L 255.05 196.80 L 256.80 196.75 L 258.55 196.69 L 260.30 196.66 L 262.05 196.63 L 263.80 196.56 L 265.54 196.51 L 267.29 196.47 L 269.04 196.45 L 270.79 196.40 L 272.54 196.37 L 274.29 196.34 L 276.03 196.28 L 277.78 196.20 L 279.53 196.12 L 281.28 196.02 L 283.03 195.89 L 284.78 195.77 L 286.52 195.68 L 288.27 195.63 L 290.02 195.58 L 291.77 195.53 L 293.52 195.44 L 295.27 195.35 L 297.01 195.22 L 298.76 195.11 L 300.51 194.95 L 302.26 194.82 L 304.01 194.68 L 305.76 194.57 L 307.51 194.55 L 309.25 194.51 L 311.00 194.48 L 312.75 194.44 L 314.50 194.40 L 316.25 194.37 L 318.00 194.34 L 319.74 194.29 L 321.49 194.25 L 323.24 194.23 L 324.99 194.21 L 326.74 194.19 L 328.49 194.16 L 330.23 194.12 L 331.98 194.07 L 333.73 193.99 L 335.48 193.94 L 337.23 193.87 L 338.98 193.80 L 340.72 193.74 L 342.47 193.72 L 344.22 193.70 L 345.97 193.66 L 347.72 193.62 L 349.47 193.56 L 351.22 193.49 L 352.96 193.43 L 354.71 193.35 L 356.46 193.27 L 358.21 193.20 L 359.96 193.14 L 361.71 193.15 L 363.45 193.15 L 365.20 193.15 L 366.95 193.18 L 368.70 193.09 L 370.45 193.07 L 372.20 193.07 L 373.94 193.08 L 375.69 193.00 L 377.44 192.95 L 379.19 192.95 L 380.94 192.95 L 382.69 192.95 L 384.43 192.80 L 386.18 192.73 L 387.93 192.69 L 389.68 192.67 L 391.43 192.67 L 393.18 192.68 L 394.93 192.64 L 396.67 192.63 L 398.42 192.63 L 400.17 190.39 L 401.92 189.96 L 403.67 189.85 L 405.42 189.53 L 407.16 189.52 L 408.91 189.36 L 410.66 187.79 L 412.41 187.36 L 414.16 181.35 L 415.91 181.35 L 417.65 180.72 L 419.40 180.71 L 421.15 180.26 L 422.90 179.68 L 424.65 179.67 L 426.40 178.77 L 428.14 177.57 L 429.89 175.55 L 431.64 174.52 L 433.39 173.86 L 435.14 174.17 L 436.89 173.10 L 438.64 173.10 L 440.38 171.18 L 442.13 168.37 L 443.88 168.37 L 445.63 165.86 L 447.38 163.63 L 449.13 163.63 L 450.87 163.62 L 452.62 162.88 L 454.37 161.06 L 456.12 193.89 L 457.87 193.22 L 459.62 192.73 L 461.36 192.34 L 463.11 189.45 L 464.86 188.03 L 466.61 188.03 L 468.36 180.86 L 470.11 148.96 L 471.86 144.25 L 473.60 176.00 L 475.35 176.17 L 477.10 175.77 L 478.85 175.72 L 480.60 197.26 L 482.35 197.26 L 484.09 197.06 L 485.84 196.44 L 487.59 194.49 L 489.34 194.50 L 491.09 194.49 L 492.84 194.49 L 494.58 194.49 L 496.33 194.48 L 498.08 194.48 L 499.83 194.62 L 501.58 206.08 L 503.33 206.08 L 505.07 206.05 L 506.82 206.04 L 508.57 205.22 L 510.32 204.28 L 512.07 204.28 L 513.82 204.28 L 515.57 200.22 L 517.31 204.28 L 519.06 204.28 L 520.81 204.28 L 522.56 198.60 L 524.31 198.60 L 526.06 198.60 L 527.80 198.60 L 529.55 193.00 L 531.30 193.00 L 533.05 188.39 L 534.80 188.39 L 536.55 179.75 L 538.29 174.84 L 540.04 173.23 L 541.79 170.37 L 543.54 169.87 L 545.29 153.88 L 547.04 149.24 L 548.78 152.04 L 550.53 141.93 L 552.28 141.88 L 554.03 141.69 L 555.78 141.69 L 557.53 141.76 L 559.28 141.75 L 561.02 140.68 L 562.77 141.38 L 564.52 141.36 L 566.27 141.83 L 568.02 141.39 L 569.77 141.39 L 571.51 141.52 L 573.26 141.52 L 575.01 141.53 L 576.76 142.33 L 578.51 141.73 L 580.26 141.68 L 582.00 141.68 L 583.75 141.66 L 585.50 141.67 L 587.25 141.65 L 589.00 139.51 L 590.75 136.07 L 592.49 136.04 L 594.24 133.43 L 595.99 131.89 L 597.74 131.13 L 599.49 131.51 L 601.24 131.50 L 602.99 131.57 L 604.73 131.56 L 606.48 131.49 L 608.23 131.49 L 609.98 131.49 L 611.73 131.49 L 613.48 131.49 L 615.22 131.49 L 616.97 131.49 L 618.72 131.49 L 620.47 131.49 L 622.22 131.49 L 623.97 131.49 L 625.71 131.49 L 627.46 131.49 L 629.21 131.49 L 630.96 131.49 L 632.71 131.49 L 634.46 131.49 L 636.20 131.49 L 637.95 131.49 L 639.70 131.49 L 641.45 131.49 L 643.20 131.49 L 644.95 131.49 L 646.70 131.49 L 648.44 131.49 L 650.19 131.49 L 651.94 131.49 L 653.69 131.49 L 655.44 131.49 L 657.19 131.49 L 658.93 131.49 L 660.68 131.49 L 662.43 131.49 L 664.18 131.49 L 665.93 131.49 L 667.68 131.49 L 669.42 131.49 L 671.17 131.49 L 672.92 131.49 L 674.67 131.49 L 676.42 131.49 L 678.17 131.49 L 679.91 131.49 L 681.66 131.49 L 683.41 131.49 L 685.16 131.49 L 686.91 131.49 L 688.66 131.49 L 690.41 131.49 L 692.15 131.49 L 693.90 131.49 L 695.65 131.49 L 697.40 131.49 L 699.15 131.49 L 700.90 131.49 L 702.64 131.49 L 704.39 131.49 L 706.14 131.49 L 707.89 131.49 L 709.64 131.49 L 711.39 131.49 L 713.13 131.49 L 714.88 131.49 L 716.63 131.49 L 718.38 131.49 L 720.13 131.49 L 721.88 131.49 L 723.62 131.49 L 725.37 131.49 L 727.12 131.49 L 728.87 131.49 L 730.62 131.49 L 732.37 131.49 L 734.12 131.49 L 735.86 131.49 L 737.61 131.49 L 739.36 131.49 L 741.11 131.49 L 742.86 131.49 L 744.61 131.49 L 746.35 131.49 L 748.10 131.49 L 749.85 131.49 L 751.60 131.49 L 753.35 131.49 L 755.10 131.49 L 756.84 131.49 L 758.59 131.49 L 760.34 131.49 L 762.09 131.49 L 763.84 131.49 L 765.59 131.49 L 767.33 131.49 L 769.08 131.49 L 770.83 131.49 L 772.58 131.49 L 774.33 131.49 L 776.08 131.49 L 777.83 131.49 L 779.57 131.49 L 781.32 131.49 L 783.07 131.49 L 784.82 131.49 L 786.57 131.49 L 788.32 131.49 L 790.06 131.49 L 791.81 131.49 L 793.56 131.49 L 795.31 131.49 L 797.06 131.49 L 798.81 131.49 L 800.55 131.49 L 802.30 131.49 L 804.05 131.49 L 805.80 131.49 L 807.55 131.49 L 809.30 131.49 L 811.04 131.49 L 812.79 131.49 L 814.54 131.49 L 816.29 131.49 L 818.04 131.49 L 819.79 131.49 L 821.54 131.49 L 823.28 131.49 L 825.03 131.49 L 826.78 131.49 L 828.53 131.49 L 830.28 131.49 L 832.03 131.49 L 833.77 131.49 L 835.52 131.49 L 837.27 131.49 L 839.02 131.49 L 840.77 131.49 L 842.52 131.49 L 844.26 131.49 L 846.01 131.49 L 847.76 131.49 L 849.51 131.49 L 851.26 131.49 L 853.01 131.49 L 854.75 131.49 L 856.50 131.49 L 858.25 131.49 L 860.00 131.49" fill="none" stroke="#111827" stroke-width="2"/>
    <circle cx="860.00" cy="131.49" r="3" fill="#111827"/>
    <text x="40.00" y="235.00" font-size="9" fill="#111827" text-anchor="middle" transform="rotate(-45 40.00 235.00)">27.09.2025</text><text x="122.17" y="235.00" font-size="9" fill="#111827" text-anchor="middle" transform="rotate(-45 122.17 235.00)">28.09.2025</text><text x="204.35" y="235.00" font-size="9" fill="#111827" text-anchor="middle" transform="rotate(-45 204.35 235.00)">30.09.2025</text><text x="286.52" y="235.00" font-size="9" fill="#111827" text-anchor="middle" transform="rotate(-45 286.52 235.00)">04.10.2025</text><text x="368.70" y="235.00" font-size="9" fill="#111827" text-anchor="middle" transform="rotate(-45 368.70 235.00)">04.10.2025</text><text x="450.87" y="235.00" font-size="9" fill="#111827" text-anchor="middle" transform="rotate(-45 450.87 235.00)">04.10.2025</text><text x="533.05" y="235.00" font-size="9" fill="#111827" text-anchor="middle" transform="rotate(-45 533.05 235.00)">07.10.2025</text><text x="615.22" y="235.00" font-size="9" fill="#111827" text-anchor="middle" transform="rotate(-45 615.22 235.00)">14.10.2025</text><text x="697.40" y="235.00" font-size="9" fill="#111827" text-anchor="middle" transform="rotate(-45 697.40 235.00)">30.11.2025</text><text x="779.57" y="235.00" font-size="9" fill="#111827" text-anchor="middle" transform="rotate(-45 779.57 235.00)">15.01.2026</text>
  </g>
</svg>