<svg xmlns="http://www.w3.org/2000/svg" width="900" height="290" style="font-family: -apple-system, BlinkMacSystemFont, 'Segoe UI', Helvetica, Arial, sans-serif;">
  <rect width="100%" height="100%" fill="white"/>
  <g>
    <line x1="40" y1="220.00" x2="860" y2="220.00" stroke="#e5e7eb"/><text x="32" y="224.00" font-size="10" fill="#111827" text-anchor="end">0</text><line x1="40" y1="175.00" x2="860" y2="175.00" stroke="#e5e7eb"/><text x="32" y="179.00" font-size="10" fill="#111827" text-anchor="end">25k</text><line x1="40" y1="130.00" x2="860" y2="130.00" stroke="#e5e7eb"/><text x="32" y="134.00" font-size="10" fill="#111827" text-anchor="end">50k</text><line x1="40" y1="85.00" x2="860" y2="85.00" stroke="#e5e7eb"/><text x="32" y="89.00" font-size="10" fill="#111827" text-anchor="end">75k</text><line x1="40" y1="40.00" x2="860" y2="40.00" stroke="#e5e7eb"/><text x="32" y="44.00" font-size="10" fill="#111827" text-anchor="end">100k</text>
    <line x1="40.00" y1="40" x2="40.00" y2="220" stroke="#e5e7eb" opacity="0.5"/><line x1="121.43" y1="40" x2="121.43" y2="220" stroke="#e5e7eb" opacity="0.5"/><line x1="202.86" y1="40" x2="202.86" y2="220" stroke="#e5e7eb" opacity="0.5"/><line x1="284.30" y1="40" x2="284.30" y2="220" stroke="#e5e7eb" opacity="0.5"/><line x1="365.73" y1="40" x2="365.73" y2="220" stroke="#e5e7eb" opacity="0.5"/><line x1="447.16" y1="40" x2="447.16" y2="220" stroke="#e5e7eb" opacity="0.5"/><line x1="528.59" y1="40" x2="528.59" y2="220" stroke="#e5e7eb" opacity="0.5"/><line x1="610.02" y1="40" x2="610.02" y2="220" stroke="#e5e7eb" opacity="0.5"/><line x1="691.45" y1="40" x2="691.45" y2="220" stroke="#e5e7eb" opacity="0.5"/><line x1="772.89" y1="40" x2="772.89" y2="220" stroke="#e5e7eb" opacity="0.5"/><line x1="854.32" y1="40" x2="854.32" y2="220" stroke="#e5e7eb" opacity="0.5"/>
    <line x1="40" y1="220" x2="860" y2="220" stroke="#9ca3af"/>
    <line x1="40" y1="40"   x2="40"   y2="220" stroke="#9ca3af"/>
    <path d="M 40.00 220.00 L 41.89 220.00 L 43.79 219.60 L 45.68 219.62 L 47.58 219.63 L 49.47 219.32 L 51.36 219.31 L 53.26 219.26 L 55.15 218.89 L 57.04 218.89 L 58.94 218.89 L 60.83 218.87 L 62.73 218.87 L 64.62 218.86 L 66.51 218.85 L 68.41 218.85 L 70.30 218.82 L 72.19 218.78 L 74.09 218.72 L 75.98 218.68 L 77.88 218.64 L 79.77 218.59 L 81.66 218.59 L 83.56 218.57 L 85.45 218.57 L 87.34 218.57 L 89.24 218.57 L 91.13 218.57 L 93.03 218.57 L 94.92 218.57 L 96.81 218.57 L 98.71 218.57 L 100.60 218.55 L 102.49 218.54 L 104.39 218.58 L 106.28 218.55 L 108.18 218.55 L 110.07 218.53 L 111.96 218.31 L 113.86 217.94 L 115.75 217.88 L 117.64 217.87 L 119.54 217.86 L 121.43 217.85 L 123.33 217.84 L 125.22 217.85 L 127.11 217.82 L 129.01 217.66 L 130.90 217.61 L 132.79 217.60 L 134.69 217.57 L 136.58 217.56 L 138.48 217.52 L 140.37 217.38 L 142.26 217.24 L 144.16 216.93 L 146.05 216.65 L 147.94 216.44 L 149.84 216.39 L 151.73 216.34 L 153.63 216.83 L 155.52 200.94 L 157.41 200.94 L 159.31 200.95 L 161.20 198.99 L 163.09 198.98 L 164.99 198.94 L 166.88 198.94 L 168.78 198.91 L 170.67 198.90 L 172.56 198.93 L 174.46 198.93 L 176.35 198.99 L 178.24 198.95 L 180.14 198.96 L 182.03 198.95 L 183.93 198.95 L 185.82 198.97 L 187.71 198.97 L 189.61 198.97 L 191.50 198.97 L 193.39 198.97 L 195.29 198.97 L 197.18 198.97 L 199.08 198.97 L 200.97 198.97 L 202.86 198.97 L 204.76 198.97 L 206.65 197.51 L 208.55 197.43 L 210.44 197.40 L 212.33 197.38 L 214.23 197.38 L 216.12 197.49 L 218.01 197.34 L 219.91 197.33 L 221.80 197.18 L 223.70 197.41 L 225.59 197.41 L 227.48 197.29 L 229.38 197.29 L 231.27 197.22 L 233.16 197.21 L 235.06 197.15 L 236.95 196.94 L 238.85 197.00 L 240.74 197.41 L 242.63 197.41 L 244.53 197.30 L 246.42 197.26 L 248.31 197.19 L 250.21 197.19 L 252.10 197.19 L 254.00 197.19 L 255.89 197.18 L 257.78 197.12 L 259.68 197.09 L 261.57 197.04 L 263.46 197.00 L 265.36 196.96 L 267.25 196.92 L 269.15 196.91 L 271.04 196.86 L 272.93 196.80 L 274.83 196.75 L 276.72 196.69 L 278.61 196.66 L 280.51 196.63 L 282.40 196.56 L 284.30 196.51 L 286.19 196.47 L 288.08 196.45 L 289.98 196.40 L 291.87 196.37 L 293.76 196.34 L 295.66 196.28 L 297.55 196.20 L 299.45 196.12 L 301.34 196.02 L 303.23 195.89 L 305.13 195.77 L 307.02 195.68 L 308.91 195.63 L 310.81 195.58 L 312.70 195.53 L 314.60 195.44 L 316.49 195.35 L 318.38 195.22 L 320.28 195.11 L 322.17 194.95 L 324.06 194.82 L 325.96 194.68 L 327.85 194.57 L 329.75 194.55 L 331.64 194.51 L 333.53 194.48 L 335.43 194.44 L 337.32 194.40 L 339.21 194.37 L 341.11 194.34 L 343.00 194.29 L 344.90 194.25 L 346.79 194.23 L 348.68 194.21 L 350.58 194.19 L 352.47 194.16 L 354.36 194.12 L 356.26 194.07 L 358.15 193.99 L 360.05 193.94 L 361.94 193.87 L 363.83 193.80 L 365.73 193.74 L 367.62 193.72 L 369.52 193.70 L 371.41 193.66 L 373.30 193.62 L 375.20 193.56 L 377.09 193.49 L 378.98 193.43 L 380.88 193.35 L 382.77 193.27 L 384.67 193.20 L 386.56 193.14 L 388.45 193.15 L 390.35 193.15 L 392.24 193.15 L 394.13 193.18 L 396.03 193.09 L 397.92 193.07 L 399.82 193.07 L 401.71 193.08 L 403.60 193.00 L 405.50 192.95 L 407.39 192.95 L 409.28 192.95 L 411.18 192.95 L 413.07 192.80 L 414.97 192.73 L 416.86 192.69 L 418.75 192.67 L 420.65 192.67 L 422.54 192.68 L 424.43 192.64 L 426.33 192.63 L 428.22 192.63 L 430.12 190.39 L 432.01 189.96 L 433.90 189.85 L 435.80 189.53 L 437.69 189.52 L 439.58 189.36 L 441.48 187.79 L 443.37 187.36 L 445.27 181.35 L 447.16 181.35 L 449.05 180.72 L 450.95 180.71 L 452.84 180.26 L 454.73 179.68 L 456.63 179.67 L 458.52 178.77 L 460.42 177.57 L 462.31 175.55 L 464.20 174.52 L 466.10 173.86 L 467.99 174.17 L 469.88 173.10 L 471.78 173.10 L 473.67 171.18 L 475.57 168.37 L 477.46 168.37 L 479.35 165.86 L 481.25 163.63 L 483.14 163.63 L 485.03 163.62 L 486.93 162.88 L 488.82 161.06 L 490.72 193.89 L 492.61 193.22 L 494.50 192.73 L 496.40 192.34 L 498.29 189.45 L 500.18 188.03 L 502.08 188.03 L 503.97 180.86 L 505.87 148.96 L 507.76 144.25 L 509.65 176.00 L 511.55 176.17 L 513.44 175.77 L 515.33 175.72 L 517.23 197.26 L 519.12 197.26 L 521.02 197.06 L 522.91 196.44 L 524.80 194.49 L 526.70 194.50 L 528.59 194.49 L 530.48 194.49 L 532.38 194.49 L 534.27 194.48 L 536.17 194.48 L 538.06 194.62 L 539.95 206.08 L 541.85 206.08 L 543.74 206.05 L 545.64 206.04 L 547.53 205.22 L 549.42 204.28 L 551.32 204.28 L 553.21 204.28 L 555.10 200.22 L 557.00 204.28 L 558.89 204.28 L 560.79 204.28 L 562.68 198.60 L 564.57 198.60 L 566.47 198.60 L 568.36 198.60 L 570.25 193.00 L 572.15 193.00 L 574.04 188.39 L 575.94 188.39 L 577.83 179.75 L 579.72 174.84 L 581.62 173.23 L 583.51 170.37 L 585.40 169.87 L 587.30 153.88 L 589.19 149.24 L 591.09 152.04 L 592.98 141.93 L 594.87 141.88 L 596.77 141.69 L 598.66 141.69 L 600.55 141.76 L 602.45 141.75 L 604.34 140.68 L 606.24 141.38 L 608.13 141.36 L 610.02 141.83 L 611.92 141.39 L 613.81 141.39 L 615.70 141.52 L 617.60 141.52 L 619.49 141.53 L 621.39 142.33 L 623.28 141.73 L 625.17 141.68 L 627.07 141.68 L 628.96 141.66 L 630.85 141.67 L 632.75 141.65 L 634.64 139.51 L 636.54 136.07 L 638.43 136.04 L 640.32 133.43 L 642.22 131.89 L 644.11 131.13 L 646.00 131.51 L 647.90 131.50 L 649.79 131.57 L 651.69 131.56 L 653.58 131.49 L 655.47 131.49 L 657.37 131.49 L 659.26 131.49 L 661.15 131.49 L 663.05 131.49 L 664.94 131.49 L 666.84 131.49 L 668.73 131.49 L 670.62 131.49 L 672.52 131.49 L 674.41 131.49 L 676.30 131.49 L 678.20 131.49 L 680.09 131.49 L 681.99 131.49 L 683.88 131.49 L 685.77 131.49 L 687.67 131.49 L 689.56 131.49 L 691.45 131.49 L 693.35 131.49 L 695.24 131.49 L 697.14 131.49 L 699.03 131.49 L 700.92 131.49 L 702.82 131.49 L 704.71 131.49 L 706.61 131.49 L 708.50 131.49 L 710.39 131.49 L 712.29 131.49 L 714.18 131.49 L 716.07 131.49 L 717.97 131.49 L 719.86 131.49 L 721.76 131.49 L 723.65 131.49 L 725.54 131.49 L 727.44 131.49 L 729.33 131.49 L 731.22 131.49 L 733.12 131.49 L 735.01 131.49 L 736.91 131.49 L 738.80 131.49 L 740.69 131.49 L 742.59 131.49 L 744.48 131.49 L 746.37 131.49 L 748.27 131.49 L 750.16 131.49 L 752.06 131.49 L 753.95 131.49 L 755.84 131.49 L 757.74 131.49 L 759.63 131.49 L 761.52 131.49 L 763.42 131.49 L 765.31 131.49 L 767.21 131.49 L 769.10 131.49 L 770.99 131.49 L 772.89 131.49 L 774.78 131.49 L 776.67 131.49 L 778.57 131.49 L 780.46 131.49 L 782.36 131.49 L 784.25 131.49 L 786.14 131.49 L 788.04 131.49 L 789.93 131.49 L 791.82 131.49 L 793.72 131.49 L 795.61 131.49 L 797.51 131.49 L 799.40 131.49 L 801.29 131.49 L 803.19 131.49 L 805.08 131.49 L 806.97 131.49 L 808.87 131.49 L 810.76 131.49 L 812.66 131.49 L 814.55 131.49 L 816.44 131.49 L 818.34 131.49 L 820.23 131.49 L 822.12 131.49 L 824.02 131.49 L 825.91 131.49 L 827.81 131.49 L 829.70 131.49 L 831.59 131.49 L 833.49 131.49 L 835.38 131.49 L 837.27 131.49 L 839.17 131.49 L 841.06 131.49 L 842.96 131.49 L 844.85 131.49 L 846.74 131.49 L 848.64 131.49 L 850.53 131.49 L 852.42 131.49 L 854.32 131.49 L 856.21 131.49 L 858.11 131.49 L 860.00 131.49" fill="none" stroke="#111827" stroke-width="2"/>
    <circle cx="860.00" cy="131.49" r="3" fill="#111827"/>
    <text x="40.00" y="235.00" font-size="9" fill="#111827" text-anchor="middle" transform="rotate(-45 40.00 235.00)">27.09.2025</text><text x="121.43" y="235.00" font-size="9" fill="#111827" text-anchor="middle" transform="rotate(-45 121.43 235.00)">28.09.2025</text><text x="202.86" y="235.00" font-size="9" fill="#111827" text-anchor="middle" transform="rotate(-45 202.86 235.00)">29.09.2025</text><text x="284.30" y="235.00" font-size="9" fill="#111827" text-anchor="middle" transform="rotate(-45 284.30 235.00)">04.10.2025</text><text x="365.73" y="235.00" font-size="9" fill="#111827" text-anchor="middle" transform="rotate(-45 365.73 235.00)">04.10.2025</text><text x="447.16" y="235.00" font-size="9" fill="#111827" text-anchor="middle" transform="rotate(-45 447.16 235.00)">04.10.2025</text><text x="528.59" y="235.00" font-size="9" fill="#111827" text-anchor="middle" transform="rotate(-45 528.59 235.00)">05.10.2025</text><text x="610.02" y="235.00" font-size="9" fill="#111827" text-anchor="middle" transform="rotate(-45 610.02 235.00)">09.10.2025</text><text x="691.45" y="235.00" font-size="9" fill="#111827" text-anchor="middle" transform="rotate(-45 691.45 235.00)">29.10.2025</text><text x="772.89" y="235.00" font-size="9" fill="#111827" text-anchor="middle" transform="rotate(-45 772.89 235.00)">11.12.2025</text><text x="854.32" y="235.00" font-size="9" fill="#111827" text-anchor="middle" transform="rotate(-45 854.32 235.00)">22.01.2026</text>
  </g>
</svg>