<svg xmlns="http://www.w3.org/2000/svg" width="900" height="290" style="font-family: -apple-system, BlinkMacSystemFont, 'Segoe UI', Helvetica, Arial, sans-serif;">
  <rect width="100%" height="100%" fill="#0d1117"/>
  <g>
    <line x1="40" y1="220.00" x2="860" y2="220.00" stroke="#30363d"/><text x="32" y="224.00" font-size="10" fill="#c9d1d9" text-anchor="end">0</text><line x1="40" y1="175.00" x2="860" y2="175.00" stroke="#30363d"/><text x="32" y="179.00" font-size="10" fill="#c9d1d9" text-anchor="end">25k</text><line x1="40" y1="130.00" x2="860" y2="130.00" stroke="#30363d"/><text x="32" y="134.00" font-size="10" fill="#c9d1d9" text-anchor="end">50k</text><line x1="40" y1="85.00" x2="860" y2="85.00" stroke="#30363d"/><text x="32" y="89.00" font-size="10" fill="#c9d1d9" text-anchor="end">75k</text><line x1="40" y1="40.00" x2="860" y2="40.00" stroke="#30363d"/><text x="32" y="44.00" font-size="10" fill="#c9d1d9" text-anchor="end">100k</text>
    <line x1="40.00" y1="40" x2="40.00" y2="220" stroke="#30363d" opacity="0.5"/><line x1="121.52" y1="40" x2="121.52" y2="220" stroke="#30363d" opacity="0.5"/><line x1="203.04" y1="40" x2="203.04" y2="220" stroke="#30363d" opacity="0.5"/><line x1="284.56" y1="40" x2="284.56" y2="220" stroke="#30363d" opacity="0.5"/><line x1="366.08" y1="40" x2="366.08" y2="220" stroke="#30363d" opacity="0.5"/><line x1="447.60" y1="40" x2="447.60" y2="220" stroke="#30363d" opacity="0.5"/><line x1="529.12" y1="40" x2="529.12" y2="220" stroke="#30363d" opacity="0.5"/><line x1="610.64" y1="40" x2="610.64" y2="220" stroke="#30363d" opacity="0.5"/><line x1="692.16" y1="40" x2="692.16" y2="220" stroke="#30363d" opacity="0.5"/><line x1="773.68" y1="40" x2="773.68" y2="220" stroke="#30363d" opacity="0.5"/><line x1="855.20" y1="40" x2="855.20" y2="220" stroke="#30363d" opacity="0.5"/>
    <line x1="40" y1="220" x2="860" y2="220" stroke="#30363d"/>
    <line x1="40" y1="40"   x2="40"   y2="220" stroke="#30363d"/>
    <path d="M 40.00 220.00 L 42.40 220.00 L 44.80 219.60 L 47.19 219.62 L 49.59 219.63 L 51.99 219.32 L 54.39 219.31 L 56.78 219.26 L 59.18 218.89 L 61.58 218.89 L 63.98 218.89 L 66.37 218.87 L 68.77 218.87 L 71.17 218.86 L 73.57 218.85 L 75.96 218.85 L 78.36 218.82 L 80.76 218.78 L 83.16 218.72 L 85.56 218.68 L 87.95 218.64 L 90.35 218.59 L 92.75 218.59 L 95.15 218.57 L 97.54 218.57 L 99.94 218.57 L 102.34 218.57 L 104.74 218.57 L 107.13 218.57 L 109.53 218.57 L 111.93 218.57 L 114.33 218.57 L 116.73 218.55 L 119.12 218.54 L 121.52 218.58 L 123.92 218.55 L 126.32 218.55 L 128.71 218.53 L 131.11 218.31 L 133.51 217.94 L 135.91 217.88 L 138.30 217.87 L 140.70 217.86 L 143.10 217.85 L 145.50 217.84 L 147.89 217.85 L 150.29 217.82 L 152.69 217.66 L 155.09 217.61 L 157.49 217.60 L 159.88 217.57 L 162.28 217.56 L 164.68 217.52 L 167.08 217.38 L 169.47 217.24 L 171.87 216.93 L 174.27 216.65 L 176.67 216.44 L 179.06 216.39 L 181.46 216.34 L 183.86 216.83 L 186.26 200.94 L 188.65 200.94 L 191.05 200.95 L 193.45 198.99 L 195.85 198.98 L 198.25 198.94 L 200.64 198.94 L 203.04 198.91 L 205.44 198.90 L 207.84 198.93 L 210.23 198.93 L 212.63 198.99 L 215.03 198.95 L 217.43 198.96 L 219.82 198.95 L 222.22 198.95 L 224.62 198.97 L 227.02 198.97 L 229.42 198.97 L 231.81 198.97 L 234.21 198.97 L 236.61 198.97 L 239.01 198.97 L 241.40 198.97 L 243.80 198.97 L 246.20 198.97 L 248.60 198.97 L 250.99 197.51 L 253.39 197.43 L 255.79 197.40 L 258.19 197.38 L 260.58 197.38 L 262.98 197.49 L 265.38 197.34 L 267.78 197.33 L 270.18 197.18 L 272.57 197.41 L 274.97 197.41 L 277.37 197.29 L 279.77 197.29 L 282.16 197.22 L 284.56 197.21 L 286.96 197.15 L 289.36 196.94 L 291.75 197.00 L 294.15 197.41 L 296.55 197.41 L 298.95 197.30 L 301.35 197.26 L 303.74 197.19 L 306.14 197.19 L 308.54 197.19 L 310.94 197.19 L 313.33 197.18 L 315.73 197.12 L 318.13 197.09 L 320.53 197.04 L 322.92 197.00 L 325.32 196.96 L 327.72 196.92 L 330.12 196.91 L 332.51 196.86 L 334.91 196.80 L 337.31 196.75 L 339.71 196.69 L 342.11 196.66 L 344.50 196.63 L 346.90 196.56 L 349.30 196.51 L 351.70 196.47 L 354.09 196.45 L 356.49 196.40 L 358.89 196.37 L 361.29 196.34 L 363.68 196.28 L 366.08 196.20 L 368.48 196.12 L 370.88 196.02 L 373.27 195.89 L 375.67 195.77 L 378.07 195.68 L 380.47 195.63 L 382.87 195.58 L 385.26 195.53 L 387.66 195.44 L 390.06 195.35 L 392.46 195.22 L 394.85 195.11 L 397.25 194.95 L 399.65 194.82 L 402.05 194.68 L 404.44 194.57 L 406.84 194.55 L 409.24 194.51 L 411.64 194.48 L 414.04 194.44 L 416.43 194.40 L 418.83 194.37 L 421.23 194.34 L 423.63 194.29 L 426.02 194.25 L 428.42 194.23 L 430.82 194.21 L 433.22 194.19 L 435.61 194.16 L 438.01 194.12 L 440.41 194.07 L 442.81 193.99 L 445.20 193.94 L 447.60 193.87 L 450.00 193.80 L 452.40 193.74 L 454.80 193.72 L 457.19 193.70 L 459.59 193.66 L 461.99 193.62 L 464.39 193.56 L 466.78 193.49 L 469.18 193.43 L 471.58 193.35 L 473.98 193.27 L 476.37 193.20 L 478.77 193.14 L 481.17 193.15 L 483.57 193.15 L 485.96 193.15 L 488.36 193.18 L 490.76 193.09 L 493.16 193.07 L 495.56 193.07 L 497.95 193.08 L 500.35 193.00 L 502.75 192.95 L 505.15 192.95 L 507.54 192.95 L 509.94 192.95 L 512.34 192.80 L 514.74 192.73 L 517.13 192.69 L 519.53 192.67 L 521.93 192.67 L 524.33 192.68 L 526.73 192.64 L 529.12 192.63 L 531.52 192.63 L 533.92 190.39 L 536.32 189.96 L 538.71 189.85 L 541.11 189.53 L 543.51 189.52 L 545.91 189.36 L 548.30 187.79 L 550.70 187.36 L 553.10 181.35 L 555.50 181.35 L 557.89 180.72 L 560.29 180.71 L 562.69 180.26 L 565.09 179.68 L 567.49 179.67 L 569.88 178.77 L 572.28 177.57 L 574.68 175.55 L 577.08 174.52 L 579.47 173.86 L 581.87 174.17 L 584.27 173.10 L 586.67 173.10 L 589.06 171.18 L 591.46 168.37 L 593.86 168.37 L 596.26 165.86 L 598.65 163.63 L 601.05 163.63 L 603.45 163.62 L 605.85 162.88 L 608.25 161.06 L 610.64 193.89 L 613.04 193.22 L 615.44 192.73 L 617.84 192.34 L 620.23 189.45 L 622.63 188.03 L 625.03 188.03 L 627.43 180.86 L 629.82 148.96 L 632.22 144.25 L 634.62 176.00 L 637.02 176.17 L 639.42 175.77 L 641.81 175.72 L 644.21 197.26 L 646.61 197.26 L 649.01 197.06 L 651.40 196.44 L 653.80 194.49 L 656.20 194.50 L 658.60 194.49 L 660.99 194.49 L 663.39 194.49 L 665.79 194.48 L 668.19 194.48 L 670.58 194.62 L 672.98 206.08 L 675.38 206.08 L 677.78 206.05 L 680.18 206.04 L 682.57 205.22 L 684.97 204.28 L 687.37 204.28 L 689.77 204.28 L 692.16 200.22 L 694.56 204.28 L 696.96 204.28 L 699.36 204.28 L 701.75 198.60 L 704.15 198.60 L 706.55 198.60 L 708.95 198.60 L 711.35 193.00 L 713.74 193.00 L 716.14 188.39 L 718.54 188.39 L 720.94 179.75 L 723.33 174.84 L 725.73 173.23 L 728.13 170.37 L 730.53 169.87 L 732.92 153.88 L 735.32 149.24 L 737.72 152.04 L 740.12 141.93 L 742.51 141.88 L 744.91 141.69 L 747.31 141.69 L 749.71 141.76 L 752.11 141.75 L 754.50 140.68 L 756.90 141.38 L 759.30 141.36 L 761.70 141.83 L 764.09 141.39 L 766.49 141.39 L 768.89 141.52 L 771.29 141.52 L 773.68 141.53 L 776.08 142.33 L 778.48 141.73 L 780.88 141.68 L 783.27 141.68 L 785.67 141.66 L 788.07 141.67 L 790.47 141.65 L 792.87 139.51 L 795.26 136.07 L 797.66 136.04 L 800.06 133.43 L 802.46 131.89 L 804.85 131.13 L 807.25 131.51 L 809.65 131.50 L 812.05 131.57 L 814.44 131.56 L 816.84 131.49 L 819.24 131.49 L 821.64 131.49 L 824.04 131.49 L 826.43 131.49 L 828.83 131.49 L 831.23 131.49 L 833.63 131.49 L 836.02 131.49 L 838.42 131.49 L 840.82 131.49 L 843.22 131.49 L 845.61 131.49 L 848.01 131.49 L 850.41 131.49 L 852.81 131.49 L 855.20 131.49 L 857.60 131.49 L 860.00 131.49" fill="none" stroke="#3fb950" stroke-width="2"/>
    <circle cx="860.00" cy="131.49" r="3" fill="#3fb950"/>
    <text x="40.00" y="235.00" font-size="9" fill="#c9d1d9" text-anchor="middle" transform="rotate(-45 40.00 235.00)">27.09.2025</text><text x="121.52" y="235.00" font-size="9" fill="#c9d1d9" text-anchor="middle" transform="rotate(-45 121.52 235.00)">28.09.2025</text><text x="203.04" y="235.00" font-size="9" fill="#c9d1d9" text-anchor="middle" transform="rotate(-45 203.04 235.00)">28.09.2025</text><text x="284.56" y="235.00" font-size="9" fill="#c9d1d9" text-anchor="middle" transform="rotate(-45 284.56 235.00)">30.09.2025</text><text x="366.08" y="235.00" font-size="9" fill="#c9d1d9" text-anchor="middle" transform="rotate(-45 366.08 235.00)">04.10.2025</text><text x="447.60" y="235.00" font-size="9" fill="#c9d1d9" text-anchor="middle" transform="rotate(-45 447.60 235.00)">04.10.2025</text><text x="529.12" y="235.00" font-size="9" fill="#c9d1d9" text-anchor="middle" transform="rotate(-45 529.12 235.00)">04.10.2025</text><text x="610.64" y="235.00" font-size="9" fill="#c9d1d9" text-anchor="middle" transform="rotate(-45 610.64 235.00)">04.10.2025</text><text x="692.16" y="235.00" font-size="9" fill="#c9d1d9" text-anchor="middle" transform="rotate(-45 692.16 235.00)">07.10.2025</text><text x="773.68" y="235.00" font-size="9" fill="#c9d1d9" text-anchor="middle" transform="rotate(-45 773.68 235.00)">09.10.2025</text><text x="855.20" y="235.00" font-size="9" fill="#c9d1d9" text-anchor="middle" transform="rotate(-45 855.20 235.00)">25.10.2025</text>
  </g>
</svg>