<svg xmlns="http://www.w3.org/2000/svg" width="900" height="290" style="font-family: -apple-system, BlinkMacSystemFont, 'Segoe UI', Helvetica, Arial, sans-serif;">
  <rect width="100%" height="100%" fill="#0d1117"/>
  <g>
    <line x1="40" y1="220.00" x2="860" y2="220.00" stroke="#30363d"/><text x="32" y="224.00" font-size="10" fill="#c9d1d9" text-anchor="end">0</text><line x1="40" y1="175.00" x2="860" y2="175.00" stroke="#30363d"/><text x="32" y="179.00" font-size="10" fill="#c9d1d9" text-anchor="end">25k</text><line x1="40" y1="130.00" x2="860" y2="130.00" stroke="#30363d"/><text x="32" y="134.00" font-size="10" fill="#c9d1d9" text-anchor="end">50k</text><line x1="40" y1="85.00" x2="860" y2="85.00" stroke="#30363d"/><text x="32" y="89.00" font-size="10" fill="#c9d1d9" text-anchor="end">75k</text><line x1="40" y1="40.00" x2="860" y2="40.00" stroke="#30363d"/><text x="32" y="44.00" font-size="10" fill="#c9d1d9" text-anchor="end">100k</text>
    <line x1="40.00" y1="40" x2="40.00" y2="220" stroke="#30363d" opacity="0.5"/><line x1="120.60" y1="40" x2="120.60" y2="220" stroke="#30363d" opacity="0.5"/><line x1="201.20" y1="40" x2="201.20" y2="220" stroke="#30363d" opacity="0.5"/><line x1="281.79" y1="40" x2="281.79" y2="220" stroke="#30363d" opacity="0.5"/><line x1="362.39" y1="40" x2="362.39" y2="220" stroke="#30363d" opacity="0.5"/><line x1="442.99" y1="40" x2="442.99" y2="220" stroke="#30363d" opacity="0.5"/><line x1="523.59" y1="40" x2="523.59" y2="220" stroke="#30363d" opacity="0.5"/><line x1="604.19" y1="40" x2="604.19" y2="220" stroke="#30363d" opacity="0.5"/><line x1="684.79" y1="40" x2="684.79" y2="220" stroke="#30363d" opacity="0.5"/><line x1="765.38" y1="40" x2="765.38" y2="220" stroke="#30363d" opacity="0.5"/><line x1="845.98" y1="40" x2="845.98" y2="220" stroke="#30363d" opacity="0.5"/>
    <line x1="40" y1="220" x2="860" y2="220" stroke="#30363d"/>
    <line x1="40" y1="40"   x2="40"   y2="220" stroke="#30363d"/>
    <path d="M 40.00 220.00 L 41.75 220.00 L 43.50 219.60 L 45.26 219.62 L 47.01 219.63 L 48.76 219.32 L 50.51 219.31 L 52.26 219.26 L 54.02 218.89 L 55.77 218.89 L 57.52 218.89 L 59.27 218.87 L 61.03 218.87 L 62.78 218.86 L 64.53 218.85 L 66.28 218.85 L 68.03 218.82 L 69.79 218.78 L 71.54 218.72 L 73.29 218.68 L 75.04 218.64 L 76.79 218.59 L 78.55 218.59 L 80.30 218.57 L 82.05 218.57 L 83.80 218.57 L 85.56 218.57 L 87.31 218.57 L 89.06 218.57 L 90.81 218.57 L 92.56 218.57 L 94.32 218.57 L 96.07 218.55 L 97.82 218.54 L 99.57 218.58 L 101.32 218.55 L 103.08 218.55 L 104.83 218.53 L 106.58 218.31 L 108.33 217.94 L 110.09 217.88 L 111.84 217.87 L 113.59 217.86 L 115.34 217.85 L 117.09 217.84 L 118.85 217.85 L 120.60 217.82 L 122.35 217.66 L 124.10 217.61 L 125.85 217.60 L 127.61 217.57 L 129.36 217.56 L 131.11 217.52 L 132.86 217.38 L 134.62 217.24 L 136.37 216.93 L 138.12 216.65 L 139.87 216.44 L 141.62 216.39 L 143.38 216.34 L 145.13 216.83 L 146.88 200.94 L 148.63 200.94 L 150.38 200.95 L 152.14 198.99 L 153.89 198.98 L 155.64 198.94 L 157.39 198.94 L 159.15 198.91 L 160.90 198.90 L 162.65 198.93 L 164.40 198.93 L 166.15 198.99 L 167.91 198.95 L 169.66 198.96 L 171.41 198.95 L 173.16 198.95 L 174.91 198.97 L 176.67 198.97 L 178.42 198.97 L 180.17 198.97 L 181.92 198.97 L 183.68 198.97 L 185.43 198.97 L 187.18 198.97 L 188.93 198.97 L 190.68 198.97 L 192.44 198.97 L 194.19 197.51 L 195.94 197.43 L 197.69 197.40 L 199.44 197.38 L 201.20 197.38 L 202.95 197.49 L 204.70 197.34 L 206.45 197.33 L 208.21 197.18 L 209.96 197.41 L 211.71 197.41 L 213.46 197.29 L 215.21 197.29 L 216.97 197.22 L 218.72 197.21 L 220.47 197.15 L 222.22 196.94 L 223.97 197.00 L 225.73 197.41 L 227.48 197.41 L 229.23 197.30 L 230.98 197.26 L 232.74 197.19 L 234.49 197.19 L 236.24 197.19 L 237.99 197.19 L 239.74 197.18 L 241.50 197.12 L 243.25 197.09 L 245.00 197.04 L 246.75 197.00 L 248.50 196.96 L 250.26 196.92 L 252.01 196.91 L 253.76 196.86 L 255.51 196.80 L 257.26 196.75 L 259.02 196.69 L 260.77 196.66 L 262.52 196.63 L 264.27 196.56 L 266.03 196.51 L 267.78 196.47 L 269.53 196.45 L 271.28 196.40 L 273.03 196.37 L 274.79 196.34 L 276.54 196.28 L 278.29 196.20 L 280.04 196.12 L 281.79 196.02 L 283.55 195.89 L 285.30 195.77 L 287.05 195.68 L 288.80 195.63 L 290.56 195.58 L 292.31 195.53 L 294.06 195.44 L 295.81 195.35 L 297.56 195.22 L 299.32 195.11 L 301.07 194.95 L 302.82 194.82 L 304.57 194.68 L 306.32 194.57 L 308.08 194.55 L 309.83 194.51 L 311.58 194.48 L 313.33 194.44 L 315.09 194.40 L 316.84 194.37 L 318.59 194.34 L 320.34 194.29 L 322.09 194.25 L 323.85 194.23 L 325.60 194.21 L 327.35 194.19 L 329.10 194.16 L 330.85 194.12 L 332.61 194.07 L 334.36 193.99 L 336.11 193.94 L 337.86 193.87 L 339.62 193.80 L 341.37 193.74 L 343.12 193.72 L 344.87 193.70 L 346.62 193.66 L 348.38 193.62 L 350.13 193.56 L 351.88 193.49 L 353.63 193.43 L 355.38 193.35 L 357.14 193.27 L 358.89 193.20 L 360.64 193.14 L 362.39 193.15 L 364.15 193.15 L 365.90 193.15 L 367.65 193.18 L 369.40 193.09 L 371.15 193.07 L 372.91 193.07 L 374.66 193.08 L 376.41 193.00 L 378.16 192.95 L 379.91 192.95 L 381.67 192.95 L 383.42 192.95 L 385.17 192.80 L 386.92 192.73 L 388.68 192.69 L 390.43 192.67 L 392.18 192.67 L 393.93 192.68 L 395.68 192.64 L 397.44 192.63 L 399.19 192.63 L 400.94 190.39 L 402.69 189.96 L 404.44 189.85 L 406.20 189.53 L 407.95 189.52 L 409.70 189.36 L 411.45 187.79 L 413.21 187.36 L 414.96 181.35 L 416.71 181.35 L 418.46 180.72 L 420.21 180.71 L 421.97 180.26 L 423.72 179.68 L 425.47 179.67 L 427.22 178.77 L 428.97 177.57 L 430.73 175.55 L 432.48 174.52 L 434.23 173.86 L 435.98 174.17 L 437.74 173.10 L 439.49 173.10 L 441.24 171.18 L 442.99 168.37 L 444.74 168.37 L 446.50 165.86 L 448.25 163.63 L 450.00 163.63 L 451.75 163.62 L 453.50 162.88 L 455.26 161.06 L 457.01 193.89 L 458.76 193.22 L 460.51 192.73 L 462.26 192.34 L 464.02 189.45 L 465.77 188.03 L 467.52 188.03 L 469.27 180.86 L 471.03 148.96 L 472.78 144.25 L 474.53 176.00 L 476.28 176.17 L 478.03 175.77 L 479.79 175.72 L 481.54 197.26 L 483.29 197.26 L 485.04 197.06 L 486.79 196.44 L 488.55 194.49 L 490.30 194.50 L 492.05 194.49 L 493.80 194.49 L 495.56 194.49 L 497.31 194.48 L 499.06 194.48 L 500.81 194.62 L 502.56 206.08 L 504.32 206.08 L 506.07 206.05 L 507.82 206.04 L 509.57 205.22 L 511.32 204.28 L 513.08 204.28 L 514.83 204.28 L 516.58 200.22 L 518.33 204.28 L 520.09 204.28 L 521.84 204.28 L 523.59 198.60 L 525.34 198.60 L 527.09 198.60 L 528.85 198.60 L 530.60 193.00 L 532.35 193.00 L 534.10 188.39 L 535.85 188.39 L 537.61 179.75 L 539.36 174.84 L 541.11 173.23 L 542.86 170.37 L 544.62 169.87 L 546.37 153.88 L 548.12 149.24 L 549.87 152.04 L 551.62 141.93 L 553.38 141.88 L 555.13 141.69 L 556.88 141.69 L 558.63 141.76 L 560.38 141.75 L 562.14 140.68 L 563.89 141.38 L 565.64 141.36 L 567.39 141.83 L 569.15 141.39 L 570.90 141.39 L 572.65 141.52 L 574.40 141.52 L 576.15 141.53 L 577.91 142.33 L 579.66 141.73 L 581.41 141.68 L 583.16 141.68 L 584.91 141.66 L 586.67 141.67 L 588.42 141.65 L 590.17 139.51 L 591.92 136.07 L 593.68 136.04 L 595.43 133.43 L 597.18 131.89 L 598.93 131.13 L 600.68 131.51 L 602.44 131.50 L 604.19 131.57 L 605.94 131.56 L 607.69 131.49 L 609.44 131.49 L 611.20 131.49 L 612.95 131.49 L 614.70 131.49 L 616.45 131.49 L 618.21 131.49 L 619.96 131.49 L 621.71 131.49 L 623.46 131.49 L 625.21 131.49 L 626.97 131.49 L 628.72 131.49 L 630.47 131.49 L 632.22 131.49 L 633.97 131.49 L 635.73 131.49 L 637.48 131.49 L 639.23 131.49 L 640.98 131.49 L 642.74 131.49 L 644.49 131.49 L 646.24 131.49 L 647.99 131.49 L 649.74 131.49 L 651.50 131.49 L 653.25 131.49 L 655.00 131.49 L 656.75 131.49 L 658.50 131.49 L 660.26 131.49 L 662.01 131.49 L 663.76 131.49 L 665.51 131.49 L 667.26 131.49 L 669.02 131.49 L 670.77 131.49 L 672.52 131.49 L 674.27 131.49 L 676.03 131.49 L 677.78 131.49 L 679.53 131.49 L 681.28 131.49 L 683.03 131.49 L 684.79 131.49 L 686.54 131.49 L 688.29 131.49 L 690.04 131.49 L 691.79 131.49 L 693.55 131.49 L 695.30 131.49 L 697.05 131.49 L 698.80 131.49 L 700.56 131.49 L 702.31 131.49 L 704.06 131.49 L 705.81 131.49 L 707.56 131.49 L 709.32 131.49 L 711.07 131.49 L 712.82 131.49 L 714.57 131.49 L 716.32 131.49 L 718.08 131.49 L 719.83 131.49 L 721.58 131.49 L 723.33 131.49 L 725.09 131.49 L 726.84 131.49 L 728.59 131.49 L 730.34 131.49 L 732.09 131.49 L 733.85 131.49 L 735.60 131.49 L 737.35 131.49 L 739.10 131.49 L 740.85 131.49 L 742.61 131.49 L 744.36 131.49 L 746.11 131.49 L 747.86 131.49 L 749.62 131.49 L 751.37 131.49 L 753.12 131.49 L 754.87 131.49 L 756.62 131.49 L 758.38 131.49 L 760.13 131.49 L 761.88 131.49 L 763.63 131.49 L 765.38 131.49 L 767.14 131.49 L 768.89 131.49 L 770.64 131.49 L 772.39 131.49 L 774.15 131.49 L 775.90 131.49 L 777.65 131.49 L 779.40 131.49 L 781.15 131.49 L 782.91 131.49 L 784.66 131.49 L 786.41 131.49 L 788.16 131.49 L 789.91 131.49 L 791.67 131.49 L 793.42 131.49 L 795.17 131.49 L 796.92 131.49 L 798.68 131.49 L 800.43 131.49 L 802.18 131.49 L 803.93 131.49 L 805.68 131.49 L 807.44 131.49 L 809.19 131.49 L 810.94 131.49 L 812.69 131.49 L 814.44 131.49 L 816.20 131.49 L 817.95 131.49 L 819.70 131.49 L 821.45 131.49 L 823.21 131.49 L 824.96 131.49 L 826.71 131.49 L 828.46 131.49 L 830.21 131.49 L 831.97 131.49 L 833.72 131.49 L 835.47 131.49 L 837.22 131.49 L 838.97 131.49 L 840.73 131.49 L 842.48 131.49 L 844.23 131.49 L 845.98 131.49 L 847.74 131.49 L 849.49 131.49 L 851.24 131.49 L 852.99 131.49 L 854.74 131.49 L 856.50 131.49 L 858.25 131.49 L 860.00 131.49" fill="none" stroke="#3fb950" stroke-width="2"/>
    <circle cx="860.00" cy="131.49" r="3" fill="#3fb950"/>
    <text x="40.00" y="235.00" font-size="9" fill="#c9d1d9" text-anchor="middle" transform="rotate(-45 40.00 235.00)">27.09.2025</text><text x="120.60" y="235.00" font-size="9" fill="#c9d1d9" text-anchor="middle" transform="rotate(-45 120.60 235.00)">28.09.2025</text><text x="201.20" y="235.00" font-size="9" fill="#c9d1d9" text-anchor="middle" transform="rotate(-45 201.20 235.00)">29.09.2025</text><text x="281.79" y="235.00" font-size="9" fill="#c9d1d9" text-anchor="middle" transform="rotate(-45 281.79 235.00)">04.10.2025</text><text x="362.39" y="235.00" font-size="9" fill="#c9d1d9" text-anchor="middle" transform="rotate(-45 362.39 235.00)">04.10.2025</text><text x="442.99" y="235.00" font-size="9" fill="#c9d1d9" text-anchor="middle" transform="rotate(-45 442.99 235.00)">04.10.2025</text><text x="523.59" y="235.00" font-size="9" fill="#c9d1d9" text-anchor="middle" transform="rotate(-45 523.59 235.00)">07.10.2025</text><text x="604.19" y="235.00" font-size="9" fill="#c9d1d9" text-anchor="middle" transform="rotate(-45 604.19 235.00)">10.10.2025</text><text x="684.79" y="235.00" font-size="9" fill="#c9d1d9" text-anchor="middle" transform="rotate(-45 684.79 235.00)">22.11.2025</text><text x="765.38" y="235.00" font-size="9" fill="#c9d1d9" text-anchor="middle" transform="rotate(-45 765.38 235.00)">07.01.2026</text><text x="845.98" y="235.00" font-size="9" fill="#c9d1d9" text-anchor="middle" transform="rotate(-45 845.98 235.00)">19.02.2026</text>
  </g>
</svg>