<svg xmlns="http://www.w3.org/2000/svg" width="900" height="290" style="font-family: -apple-system, BlinkMacSystemFont, 'Segoe UI', Helvetica, Arial, sans-serif;">
  <rect width="100%" height="100%" fill="#0d1117"/>
  <g>
    <line x1="40" y1="220.00" x2="860" y2="220.00" stroke="#30363d"/><text x="32" y="224.00" font-size="10" fill="#c9d1d9" text-anchor="end">0</text><line x1="40" y1="175.00" x2="860" y2="175.00" stroke="#30363d"/><text x="32" y="179.00" font-size="10" fill="#c9d1d9" text-anchor="end">25k</text><line x1="40" y1="130.00" x2="860" y2="130.00" stroke="#30363d"/><text x="32" y="134.00" font-size="10" fill="#c9d1d9" text-anchor="end">50k</text><line x1="40" y1="85.00" x2="860" y2="85.00" stroke="#30363d"/><text x="32" y="89.00" font-size="10" fill="#c9d1d9" text-anchor="end">75k</text><line x1="40" y1="40.00" x2="860" y2="40.00" stroke="#30363d"/><text x="32" y="44.00" font-size="10" fill="#c9d1d9" text-anchor="end">100k</text>
    <line x1="40.00" y1="40" x2="40.00" y2="220" stroke="#30363d" opacity="0.5"/><line x1="120.62" y1="40" x2="120.62" y2="220" stroke="#30363d" opacity="0.5"/><line x1="201.25" y1="40" x2="201.25" y2="220" stroke="#30363d" opacity="0.5"/><line x1="281.87" y1="40" x2="281.87" y2="220" stroke="#30363d" opacity="0.5"/><line x1="362.49" y1="40" x2="362.49" y2="220" stroke="#30363d" opacity="0.5"/><line x1="443.12" y1="40" x2="443.12" y2="220" stroke="#30363d" opacity="0.5"/><line x1="523.74" y1="40" x2="523.74" y2="220" stroke="#30363d" opacity="0.5"/><line x1="604.36" y1="40" x2="604.36" y2="220" stroke="#30363d" opacity="0.5"/><line x1="684.99" y1="40" x2="684.99" y2="220" stroke="#30363d" opacity="0.5"/><line x1="765.61" y1="40" x2="765.61" y2="220" stroke="#30363d" opacity="0.5"/><line x1="846.24" y1="40" x2="846.24" y2="220" stroke="#30363d" opacity="0.5"/>
    <line x1="40" y1="220" x2="860" y2="220" stroke="#30363d"/>
    <line x1="40" y1="40"   x2="40"   y2="220" stroke="#30363d"/>
    <path d="M 40.00 220.00 L 41.97 220.00 L 43.93 219.60 L 45.90 219.62 L 47.87 219.63 L 49.83 219.32 L 51.80 219.31 L 53.76 219.26 L 55.73 218.89 L 57.70 218.89 L 59.66 218.89 L 61.63 218.87 L 63.60 218.87 L 65.56 218.86 L 67.53 218.85 L 69.50 218.85 L 71.46 218.82 L 73.43 218.78 L 75.40 218.72 L 77.36 218.68 L 79.33 218.64 L 81.29 218.59 L 83.26 218.59 L 85.23 218.57 L 87.19 218.57 L 89.16 218.57 L 91.13 218.57 L 93.09 218.57 L 95.06 218.57 L 97.03 218.57 L 98.99 218.57 L 100.96 218.57 L 102.93 218.55 L 104.89 218.54 L 106.86 218.58 L 108.82 218.55 L 110.79 218.55 L 112.76 218.53 L 114.72 218.31 L 116.69 217.94 L 118.66 217.88 L 120.62 217.87 L 122.59 217.86 L 124.56 217.85 L 126.52 217.84 L 128.49 217.85 L 130.46 217.82 L 132.42 217.66 L 134.39 217.61 L 136.35 217.60 L 138.32 217.57 L 140.29 217.56 L 142.25 217.52 L 144.22 217.38 L 146.19 217.24 L 148.15 216.93 L 150.12 216.65 L 152.09 216.44 L 154.05 216.39 L 156.02 216.34 L 157.99 216.83 L 159.95 200.94 L 161.92 200.94 L 163.88 200.95 L 165.85 198.99 L 167.82 198.98 L 169.78 198.94 L 171.75 198.94 L 173.72 198.91 L 175.68 198.90 L 177.65 198.93 L 179.62 198.93 L 181.58 198.99 L 183.55 198.95 L 185.52 198.96 L 187.48 198.95 L 189.45 198.95 L 191.41 198.97 L 193.38 198.97 L 195.35 198.97 L 197.31 198.97 L 199.28 198.97 L 201.25 198.97 L 203.21 198.97 L 205.18 198.97 L 207.15 198.97 L 209.11 198.97 L 211.08 198.97 L 213.05 197.51 L 215.01 197.43 L 216.98 197.40 L 218.94 197.38 L 220.91 197.38 L 222.88 197.49 L 224.84 197.34 L 226.81 197.33 L 228.78 197.18 L 230.74 197.41 L 232.71 197.41 L 234.68 197.29 L 236.64 197.29 L 238.61 197.22 L 240.58 197.21 L 242.54 197.15 L 244.51 196.94 L 246.47 197.00 L 248.44 197.41 L 250.41 197.41 L 252.37 197.30 L 254.34 197.26 L 256.31 197.19 L 258.27 197.19 L 260.24 197.19 L 262.21 197.19 L 264.17 197.18 L 266.14 197.12 L 268.11 197.09 L 270.07 197.04 L 272.04 197.00 L 274.00 196.96 L 275.97 196.92 L 277.94 196.91 L 279.90 196.86 L 281.87 196.80 L 283.84 196.75 L 285.80 196.69 L 287.77 196.66 L 289.74 196.63 L 291.70 196.56 L 293.67 196.51 L 295.64 196.47 L 297.60 196.45 L 299.57 196.40 L 301.53 196.37 L 303.50 196.34 L 305.47 196.28 L 307.43 196.20 L 309.40 196.12 L 311.37 196.02 L 313.33 195.89 L 315.30 195.77 L 317.27 195.68 L 319.23 195.63 L 321.20 195.58 L 323.17 195.53 L 325.13 195.44 L 327.10 195.35 L 329.06 195.22 L 331.03 195.11 L 333.00 194.95 L 334.96 194.82 L 336.93 194.68 L 338.90 194.57 L 340.86 194.55 L 342.83 194.51 L 344.80 194.48 L 346.76 194.44 L 348.73 194.40 L 350.70 194.37 L 352.66 194.34 L 354.63 194.29 L 356.59 194.25 L 358.56 194.23 L 360.53 194.21 L 362.49 194.19 L 364.46 194.16 L 366.43 194.12 L 368.39 194.07 L 370.36 193.99 L 372.33 193.94 L 374.29 193.87 L 376.26 193.80 L 378.23 193.74 L 380.19 193.72 L 382.16 193.70 L 384.12 193.66 L 386.09 193.62 L 388.06 193.56 L 390.02 193.49 L 391.99 193.43 L 393.96 193.35 L 395.92 193.27 L 397.89 193.20 L 399.86 193.14 L 401.82 193.15 L 403.79 193.15 L 405.76 193.15 L 407.72 193.18 L 409.69 193.09 L 411.65 193.07 L 413.62 193.07 L 415.59 193.08 L 417.55 193.00 L 419.52 192.95 L 421.49 192.95 L 423.45 192.95 L 425.42 192.95 L 427.39 192.80 L 429.35 192.73 L 431.32 192.69 L 433.29 192.67 L 435.25 192.67 L 437.22 192.68 L 439.18 192.64 L 441.15 192.63 L 443.12 192.63 L 445.08 190.39 L 447.05 189.96 L 449.02 189.85 L 450.98 189.53 L 452.95 189.52 L 454.92 189.36 L 456.88 187.79 L 458.85 187.36 L 460.82 181.35 L 462.78 181.35 L 464.75 180.72 L 466.71 180.71 L 468.68 180.26 L 470.65 179.68 L 472.61 179.67 L 474.58 178.77 L 476.55 177.57 L 478.51 175.55 L 480.48 174.52 L 482.45 173.86 L 484.41 174.17 L 486.38 173.10 L 488.35 173.10 L 490.31 171.18 L 492.28 168.37 L 494.24 168.37 L 496.21 165.86 L 498.18 163.63 L 500.14 163.63 L 502.11 163.62 L 504.08 162.88 L 506.04 161.06 L 508.01 193.89 L 509.98 193.22 L 511.94 192.73 L 513.91 192.34 L 515.88 189.45 L 517.84 188.03 L 519.81 188.03 L 521.77 180.86 L 523.74 148.96 L 525.71 144.25 L 527.67 176.00 L 529.64 176.17 L 531.61 175.77 L 533.57 175.72 L 535.54 197.26 L 537.51 197.26 L 539.47 197.06 L 541.44 196.44 L 543.41 194.49 L 545.37 194.50 L 547.34 194.49 L 549.30 194.49 L 551.27 194.49 L 553.24 194.48 L 555.20 194.48 L 557.17 194.62 L 559.14 206.08 L 561.10 206.08 L 563.07 206.05 L 565.04 206.04 L 567.00 205.22 L 568.97 204.28 L 570.94 204.28 L 572.90 204.28 L 574.87 200.22 L 576.83 204.28 L 578.80 204.28 L 580.77 204.28 L 582.73 198.60 L 584.70 198.60 L 586.67 198.60 L 588.63 198.60 L 590.60 193.00 L 592.57 193.00 L 594.53 188.39 L 596.50 188.39 L 598.47 179.75 L 600.43 174.84 L 602.40 173.23 L 604.36 170.37 L 606.33 169.87 L 608.30 153.88 L 610.26 149.24 L 612.23 152.04 L 614.20 141.93 L 616.16 141.88 L 618.13 141.69 L 620.10 141.69 L 622.06 141.76 L 624.03 141.75 L 626.00 140.68 L 627.96 141.38 L 629.93 141.36 L 631.89 141.83 L 633.86 141.39 L 635.83 141.39 L 637.79 141.52 L 639.76 141.52 L 641.73 141.53 L 643.69 142.33 L 645.66 141.73 L 647.63 141.68 L 649.59 141.68 L 651.56 141.66 L 653.53 141.67 L 655.49 141.65 L 657.46 139.51 L 659.42 136.07 L 661.39 136.04 L 663.36 133.43 L 665.32 131.89 L 667.29 131.13 L 669.26 131.51 L 671.22 131.50 L 673.19 131.57 L 675.16 131.56 L 677.12 131.49 L 679.09 131.49 L 681.06 131.49 L 683.02 131.49 L 684.99 131.49 L 686.95 131.49 L 688.92 131.49 L 690.89 131.49 L 692.85 131.49 L 694.82 131.49 L 696.79 131.49 L 698.75 131.49 L 700.72 131.49 L 702.69 131.49 L 704.65 131.49 L 706.62 131.49 L 708.59 131.49 L 710.55 131.49 L 712.52 131.49 L 714.48 131.49 L 716.45 131.49 L 718.42 131.49 L 720.38 131.49 L 722.35 131.49 L 724.32 131.49 L 726.28 131.49 L 728.25 131.49 L 730.22 131.49 L 732.18 131.49 L 734.15 131.49 L 736.12 131.49 L 738.08 131.49 L 740.05 131.49 L 742.01 131.49 L 743.98 131.49 L 745.95 131.49 L 747.91 131.49 L 749.88 131.49 L 751.85 131.49 L 753.81 131.49 L 755.78 131.49 L 757.75 131.49 L 759.71 131.49 L 761.68 131.49 L 763.65 131.49 L 765.61 131.49 L 767.58 131.49 L 769.54 131.49 L 771.51 131.49 L 773.48 131.49 L 775.44 131.49 L 777.41 131.49 L 779.38 131.49 L 781.34 131.49 L 783.31 131.49 L 785.28 131.49 L 787.24 131.49 L 789.21 131.49 L 791.18 131.49 L 793.14 131.49 L 795.11 131.49 L 797.07 131.49 L 799.04 131.49 L 801.01 131.49 L 802.97 131.49 L 804.94 131.49 L 806.91 131.49 L 808.87 131.49 L 810.84 131.49 L 812.81 131.49 L 814.77 131.49 L 816.74 131.49 L 818.71 131.49 L 820.67 131.49 L 822.64 131.49 L 824.60 131.49 L 826.57 131.49 L 828.54 131.49 L 830.50 131.49 L 832.47 131.49 L 834.44 131.49 L 836.40 131.49 L 838.37 131.49 L 840.34 131.49 L 842.30 131.49 L 844.27 131.49 L 846.24 131.49 L 848.20 131.49 L 850.17 131.49 L 852.13 131.49 L 854.10 131.49 L 856.07 131.49 L 858.03 131.49 L 860.00 131.49" fill="none" stroke="#3fb950" stroke-width="2"/>
    <circle cx="860.00" cy="131.49" r="3" fill="#3fb950"/>
    <text x="40.00" y="235.00" font-size="9" fill="#c9d1d9" text-anchor="middle" transform="rotate(-45 40.00 235.00)">27.09.2025</text><text x="120.62" y="235.00" font-size="9" fill="#c9d1d9" text-anchor="middle" transform="rotate(-45 120.62 235.00)">28.09.2025</text><text x="201.25" y="235.00" font-size="9" fill="#c9d1d9" text-anchor="middle" transform="rotate(-45 201.25 235.00)">29.09.2025</text><text x="281.87" y="235.00" font-size="9" fill="#c9d1d9" text-anchor="middle" transform="rotate(-45 281.87 235.00)">04.10.2025</text><text x="362.49" y="235.00" font-size="9" fill="#c9d1d9" text-anchor="middle" transform="rotate(-45 362.49 235.00)">04.10.2025</text><text x="443.12" y="235.00" font-size="9" fill="#c9d1d9" text-anchor="middle" transform="rotate(-45 443.12 235.00)">04.10.2025</text><text x="523.74" y="235.00" font-size="9" fill="#c9d1d9" text-anchor="middle" transform="rotate(-45 523.74 235.00)">05.10.2025</text><text x="604.36" y="235.00" font-size="9" fill="#c9d1d9" text-anchor="middle" transform="rotate(-45 604.36 235.00)">08.10.2025</text><text x="684.99" y="235.00" font-size="9" fill="#c9d1d9" text-anchor="middle" transform="rotate(-45 684.99 235.00)">13.10.2025</text><text x="765.61" y="235.00" font-size="9" fill="#c9d1d9" text-anchor="middle" transform="rotate(-45 765.61 235.00)">23.11.2025</text><text x="846.24" y="235.00" font-size="9" fill="#c9d1d9" text-anchor="middle" transform="rotate(-45 846.24 235.00)">03.01.2026</text>
  </g>
</svg>