<svg xmlns="http://www.w3.org/2000/svg" width="900" height="290" style="font-family: -apple-system, BlinkMacSystemFont, 'Segoe UI', Helvetica, Arial, sans-serif;">
  <rect width="100%" height="100%" fill="white"/>
  <g>
    <line x1="40" y1="220.00" x2="860" y2="220.00" stroke="#e5e7eb"/><text x="32" y="224.00" font-size="10" fill="#111827" text-anchor="end">0</text><line x1="40" y1="175.00" x2="860" y2="175.00" stroke="#e5e7eb"/><text x="32" y="179.00" font-size="10" fill="#111827" text-anchor="end">25k</text><line x1="40" y1="130.00" x2="860" y2="130.00" stroke="#e5e7eb"/><text x="32" y="134.00" font-size="10" fill="#111827" text-anchor="end">50k</text><line x1="40" y1="85.00" x2="860" y2="85.00" stroke="#e5e7eb"/><text x="32" y="89.00" font-size="10" fill="#111827" text-anchor="end">75k</text><line x1="40" y1="40.00" x2="860" y2="40.00" stroke="#e5e7eb"/><text x="32" y="44.00" font-size="10" fill="#111827" text-anchor="end">100k</text>
    <line x1="40.00" y1="40" x2="40.00" y2="220" stroke="#e5e7eb" opacity="0.5"/><line x1="120.39" y1="40" x2="120.39" y2="220" stroke="#e5e7eb" opacity="0.5"/><line x1="200.78" y1="40" x2="200.78" y2="220" stroke="#e5e7eb" opacity="0.5"/><line x1="281.18" y1="40" x2="281.18" y2="220" stroke="#e5e7eb" opacity="0.5"/><line x1="361.57" y1="40" x2="361.57" y2="220" stroke="#e5e7eb" opacity="0.5"/><line x1="441.96" y1="40" x2="441.96" y2="220" stroke="#e5e7eb" opacity="0.5"/><line x1="522.35" y1="40" x2="522.35" y2="220" stroke="#e5e7eb" opacity="0.5"/><line x1="602.75" y1="40" x2="602.75" y2="220" stroke="#e5e7eb" opacity="0.5"/><line x1="683.14" y1="40" x2="683.14" y2="220" stroke="#e5e7eb" opacity="0.5"/><line x1="763.53" y1="40" x2="763.53" y2="220" stroke="#e5e7eb" opacity="0.5"/><line x1="843.92" y1="40" x2="843.92" y2="220" stroke="#e5e7eb" opacity="0.5"/>
    <line x1="40" y1="220" x2="860" y2="220" stroke="#9ca3af"/>
    <line x1="40" y1="40"   x2="40"   y2="220" stroke="#9ca3af"/>
    <path d="M 40.00 220.00 L 42.01 220.00 L 44.02 219.60 L 46.03 219.62 L 48.04 219.63 L 50.05 219.32 L 52.06 219.31 L 54.07 219.26 L 56.08 218.89 L 58.09 218.89 L 60.10 218.89 L 62.11 218.87 L 64.12 218.87 L 66.13 218.86 L 68.14 218.85 L 70.15 218.85 L 72.16 218.82 L 74.17 218.78 L 76.18 218.72 L 78.19 218.68 L 80.20 218.64 L 82.21 218.59 L 84.22 218.59 L 86.23 218.57 L 88.24 218.57 L 90.25 218.57 L 92.25 218.57 L 94.26 218.57 L 96.27 218.57 L 98.28 218.57 L 100.29 218.57 L 102.30 218.57 L 104.31 218.55 L 106.32 218.54 L 108.33 218.58 L 110.34 218.55 L 112.35 218.55 L 114.36 218.53 L 116.37 218.31 L 118.38 217.94 L 120.39 217.88 L 122.40 217.87 L 124.41 217.86 L 126.42 217.85 L 128.43 217.84 L 130.44 217.85 L 132.45 217.82 L 134.46 217.66 L 136.47 217.61 L 138.48 217.60 L 140.49 217.57 L 142.50 217.56 L 144.51 217.52 L 146.52 217.38 L 148.53 217.24 L 150.54 216.93 L 152.55 216.65 L 154.56 216.44 L 156.57 216.39 L 158.58 216.34 L 160.59 216.83 L 162.60 200.94 L 164.61 200.94 L 166.62 200.95 L 168.63 198.99 L 170.64 198.98 L 172.65 198.94 L 174.66 198.94 L 176.67 198.91 L 178.68 198.90 L 180.69 198.93 L 182.70 198.93 L 184.71 198.99 L 186.72 198.95 L 188.73 198.96 L 190.74 198.95 L 192.75 198.95 L 194.75 198.97 L 196.76 198.97 L 198.77 198.97 L 200.78 198.97 L 202.79 198.97 L 204.80 198.97 L 206.81 198.97 L 208.82 198.97 L 210.83 198.97 L 212.84 198.97 L 214.85 198.97 L 216.86 197.51 L 218.87 197.43 L 220.88 197.40 L 222.89 197.38 L 224.90 197.38 L 226.91 197.49 L 228.92 197.34 L 230.93 197.33 L 232.94 197.18 L 234.95 197.41 L 236.96 197.41 L 238.97 197.29 L 240.98 197.29 L 242.99 197.22 L 245.00 197.21 L 247.01 197.15 L 249.02 196.94 L 251.03 197.00 L 253.04 197.41 L 255.05 197.41 L 257.06 197.30 L 259.07 197.26 L 261.08 197.19 L 263.09 197.19 L 265.10 197.19 L 267.11 197.19 L 269.12 197.18 L 271.13 197.12 L 273.14 197.09 L 275.15 197.04 L 277.16 197.00 L 279.17 196.96 L 281.18 196.92 L 283.19 196.91 L 285.20 196.86 L 287.21 196.80 L 289.22 196.75 L 291.23 196.69 L 293.24 196.66 L 295.25 196.63 L 297.25 196.56 L 299.26 196.51 L 301.27 196.47 L 303.28 196.45 L 305.29 196.40 L 307.30 196.37 L 309.31 196.34 L 311.32 196.28 L 313.33 196.20 L 315.34 196.12 L 317.35 196.02 L 319.36 195.89 L 321.37 195.77 L 323.38 195.68 L 325.39 195.63 L 327.40 195.58 L 329.41 195.53 L 331.42 195.44 L 333.43 195.35 L 335.44 195.22 L 337.45 195.11 L 339.46 194.95 L 341.47 194.82 L 343.48 194.68 L 345.49 194.57 L 347.50 194.55 L 349.51 194.51 L 351.52 194.48 L 353.53 194.44 L 355.54 194.40 L 357.55 194.37 L 359.56 194.34 L 361.57 194.29 L 363.58 194.25 L 365.59 194.23 L 367.60 194.21 L 369.61 194.19 L 371.62 194.16 L 373.63 194.12 L 375.64 194.07 L 377.65 193.99 L 379.66 193.94 L 381.67 193.87 L 383.68 193.80 L 385.69 193.74 L 387.70 193.72 L 389.71 193.70 L 391.72 193.66 L 393.73 193.62 L 395.74 193.56 L 397.75 193.49 L 399.75 193.43 L 401.76 193.35 L 403.77 193.27 L 405.78 193.20 L 407.79 193.14 L 409.80 193.15 L 411.81 193.15 L 413.82 193.15 L 415.83 193.18 L 417.84 193.09 L 419.85 193.07 L 421.86 193.07 L 423.87 193.08 L 425.88 193.00 L 427.89 192.95 L 429.90 192.95 L 431.91 192.95 L 433.92 192.95 L 435.93 192.80 L 437.94 192.73 L 439.95 192.69 L 441.96 192.67 L 443.97 192.67 L 445.98 192.68 L 447.99 192.64 L 450.00 192.63 L 452.01 192.63 L 454.02 190.39 L 456.03 189.96 L 458.04 189.85 L 460.05 189.53 L 462.06 189.52 L 464.07 189.36 L 466.08 187.79 L 468.09 187.36 L 470.10 181.35 L 472.11 181.35 L 474.12 180.72 L 476.13 180.71 L 478.14 180.26 L 480.15 179.68 L 482.16 179.67 L 484.17 178.77 L 486.18 177.57 L 488.19 175.55 L 490.20 174.52 L 492.21 173.86 L 494.22 174.17 L 496.23 173.10 L 498.24 173.10 L 500.25 171.18 L 502.25 168.37 L 504.26 168.37 L 506.27 165.86 L 508.28 163.63 L 510.29 163.63 L 512.30 163.62 L 514.31 162.88 L 516.32 161.06 L 518.33 193.89 L 520.34 193.22 L 522.35 192.73 L 524.36 192.34 L 526.37 189.45 L 528.38 188.03 L 530.39 188.03 L 532.40 180.86 L 534.41 148.96 L 536.42 144.25 L 538.43 176.00 L 540.44 176.17 L 542.45 175.77 L 544.46 175.72 L 546.47 197.26 L 548.48 197.26 L 550.49 197.06 L 552.50 196.44 L 554.51 194.49 L 556.52 194.50 L 558.53 194.49 L 560.54 194.49 L 562.55 194.49 L 564.56 194.48 L 566.57 194.48 L 568.58 194.62 L 570.59 206.08 L 572.60 206.08 L 574.61 206.05 L 576.62 206.04 L 578.63 205.22 L 580.64 204.28 L 582.65 204.28 L 584.66 204.28 L 586.67 200.22 L 588.68 204.28 L 590.69 204.28 L 592.70 204.28 L 594.71 198.60 L 596.72 198.60 L 598.73 198.60 L 600.74 198.60 L 602.75 193.00 L 604.75 193.00 L 606.76 188.39 L 608.77 188.39 L 610.78 179.75 L 612.79 174.84 L 614.80 173.23 L 616.81 170.37 L 618.82 169.87 L 620.83 153.88 L 622.84 149.24 L 624.85 152.04 L 626.86 141.93 L 628.87 141.88 L 630.88 141.69 L 632.89 141.69 L 634.90 141.76 L 636.91 141.75 L 638.92 140.68 L 640.93 141.38 L 642.94 141.36 L 644.95 141.83 L 646.96 141.39 L 648.97 141.39 L 650.98 141.52 L 652.99 141.52 L 655.00 141.53 L 657.01 142.33 L 659.02 141.73 L 661.03 141.68 L 663.04 141.68 L 665.05 141.66 L 667.06 141.67 L 669.07 141.65 L 671.08 139.51 L 673.09 136.07 L 675.10 136.04 L 677.11 133.43 L 679.12 131.89 L 681.13 131.13 L 683.14 131.51 L 685.15 131.50 L 687.16 131.57 L 689.17 131.56 L 691.18 131.49 L 693.19 131.49 L 695.20 131.49 L 697.21 131.49 L 699.22 131.49 L 701.23 131.49 L 703.24 131.49 L 705.25 131.49 L 707.25 131.49 L 709.26 131.49 L 711.27 131.49 L 713.28 131.49 L 715.29 131.49 L 717.30 131.49 L 719.31 131.49 L 721.32 131.49 L 723.33 131.49 L 725.34 131.49 L 727.35 131.49 L 729.36 131.49 L 731.37 131.49 L 733.38 131.49 L 735.39 131.49 L 737.40 131.49 L 739.41 131.49 L 741.42 131.49 L 743.43 131.49 L 745.44 131.49 L 747.45 131.49 L 749.46 131.49 L 751.47 131.49 L 753.48 131.49 L 755.49 131.49 L 757.50 131.49 L 759.51 131.49 L 761.52 131.49 L 763.53 131.49 L 765.54 131.49 L 767.55 131.49 L 769.56 131.49 L 771.57 131.49 L 773.58 131.49 L 775.59 131.49 L 777.60 131.49 L 779.61 131.49 L 781.62 131.49 L 783.63 131.49 L 785.64 131.49 L 787.65 131.49 L 789.66 131.49 L 791.67 131.49 L 793.68 131.49 L 795.69 131.49 L 797.70 131.49 L 799.71 131.49 L 801.72 131.49 L 803.73 131.49 L 805.74 131.49 L 807.75 131.49 L 809.75 131.49 L 811.76 131.49 L 813.77 131.49 L 815.78 131.49 L 817.79 131.49 L 819.80 131.49 L 821.81 131.49 L 823.82 131.49 L 825.83 131.49 L 827.84 131.49 L 829.85 131.49 L 831.86 131.49 L 833.87 131.49 L 835.88 131.49 L 837.89 131.49 L 839.90 131.49 L 841.91 131.49 L 843.92 131.49 L 845.93 131.49 L 847.94 131.49 L 849.95 131.49 L 851.96 131.49 L 853.97 131.49 L 855.98 131.49 L 857.99 131.49 L 860.00 131.49" fill="none" stroke="#111827" stroke-width="2"/>
    <circle cx="860.00" cy="131.49" r="3" fill="#111827"/>
    <text x="40.00" y="235.00" font-size="9" fill="#111827" text-anchor="middle" transform="rotate(-45 40.00 235.00)">27.09.2025</text><text x="120.39" y="235.00" font-size="9" fill="#111827" text-anchor="middle" transform="rotate(-45 120.39 235.00)">28.09.2025</text><text x="200.78" y="235.00" font-size="9" fill="#111827" text-anchor="middle" transform="rotate(-45 200.78 235.00)">29.09.2025</text><text x="281.18" y="235.00" font-size="9" fill="#111827" text-anchor="middle" transform="rotate(-45 281.18 235.00)">04.10.2025</text><text x="361.57" y="235.00" font-size="9" fill="#111827" text-anchor="middle" transform="rotate(-45 361.57 235.00)">04.10.2025</text><text x="441.96" y="235.00" font-size="9" fill="#111827" text-anchor="middle" transform="rotate(-45 441.96 235.00)">04.10.2025</text><text x="522.35" y="235.00" font-size="9" fill="#111827" text-anchor="middle" transform="rotate(-45 522.35 235.00)">04.10.2025</text><text x="602.75" y="235.00" font-size="9" fill="#111827" text-anchor="middle" transform="rotate(-45 602.75 235.00)">07.10.2025</text><text x="683.14" y="235.00" font-size="9" fill="#111827" text-anchor="middle" transform="rotate(-45 683.14 235.00)">09.10.2025</text><text x="763.53" y="235.00" font-size="9" fill="#111827" text-anchor="middle" transform="rotate(-45 763.53 235.00)">14.11.2025</text><text x="843.92" y="235.00" font-size="9" fill="#111827" text-anchor="middle" transform="rotate(-45 843.92 235.00)">24.12.2025</text>
  </g>
</svg>