<svg xmlns="http://www.w3.org/2000/svg" width="900" height="290" style="font-family: -apple-system, BlinkMacSystemFont, 'Segoe UI', Helvetica, Arial, sans-serif;">
  <rect width="100%" height="100%" fill="white"/>
  <g>
    <line x1="40" y1="220.00" x2="860" y2="220.00" stroke="#e5e7eb"/><text x="32" y="224.00" font-size="10" fill="#111827" text-anchor="end">0</text><line x1="40" y1="175.00" x2="860" y2="175.00" stroke="#e5e7eb"/><text x="32" y="179.00" font-size="10" fill="#111827" text-anchor="end">25k</text><line x1="40" y1="130.00" x2="860" y2="130.00" stroke="#e5e7eb"/><text x="32" y="134.00" font-size="10" fill="#111827" text-anchor="end">50k</text><line x1="40" y1="85.00" x2="860" y2="85.00" stroke="#e5e7eb"/><text x="32" y="89.00" font-size="10" fill="#111827" text-anchor="end">75k</text><line x1="40" y1="40.00" x2="860" y2="40.00" stroke="#e5e7eb"/><text x="32" y="44.00" font-size="10" fill="#111827" text-anchor="end">100k</text>
    <line x1="40.00" y1="40" x2="40.00" y2="220" stroke="#e5e7eb" opacity="0.5"/><line x1="120.66" y1="40" x2="120.66" y2="220" stroke="#e5e7eb" opacity="0.5"/><line x1="201.31" y1="40" x2="201.31" y2="220" stroke="#e5e7eb" opacity="0.5"/><line x1="281.97" y1="40" x2="281.97" y2="220" stroke="#e5e7eb" opacity="0.5"/><line x1="362.62" y1="40" x2="362.62" y2="220" stroke="#e5e7eb" opacity="0.5"/><line x1="443.28" y1="40" x2="443.28" y2="220" stroke="#e5e7eb" opacity="0.5"/><line x1="523.93" y1="40" x2="523.93" y2="220" stroke="#e5e7eb" opacity="0.5"/><line x1="604.59" y1="40" x2="604.59" y2="220" stroke="#e5e7eb" opacity="0.5"/><line x1="685.25" y1="40" x2="685.25" y2="220" stroke="#e5e7eb" opacity="0.5"/><line x1="765.90" y1="40" x2="765.90" y2="220" stroke="#e5e7eb" opacity="0.5"/><line x1="846.56" y1="40" x2="846.56" y2="220" stroke="#e5e7eb" opacity="0.5"/>
    <line x1="40" y1="220" x2="860" y2="220" stroke="#9ca3af"/>
    <line x1="40" y1="40"   x2="40"   y2="220" stroke="#9ca3af"/>
    <path d="M 40.00 220.00 L 41.92 220.00 L 43.84 219.60 L 45.76 219.62 L 47.68 219.63 L 49.60 219.32 L 51.52 219.31 L 53.44 219.26 L 55.36 218.89 L 57.28 218.89 L 59.20 218.89 L 61.12 218.87 L 63.04 218.87 L 64.96 218.86 L 66.89 218.85 L 68.81 218.85 L 70.73 218.82 L 72.65 218.78 L 74.57 218.72 L 76.49 218.68 L 78.41 218.64 L 80.33 218.59 L 82.25 218.59 L 84.17 218.57 L 86.09 218.57 L 88.01 218.57 L 89.93 218.57 L 91.85 218.57 L 93.77 218.57 L 95.69 218.57 L 97.61 218.57 L 99.53 218.57 L 101.45 218.55 L 103.37 218.54 L 105.29 218.58 L 107.21 218.55 L 109.13 218.55 L 111.05 218.53 L 112.97 218.31 L 114.89 217.94 L 116.81 217.88 L 118.74 217.87 L 120.66 217.86 L 122.58 217.85 L 124.50 217.84 L 126.42 217.85 L 128.34 217.82 L 130.26 217.66 L 132.18 217.61 L 134.10 217.60 L 136.02 217.57 L 137.94 217.56 L 139.86 217.52 L 141.78 217.38 L 143.70 217.24 L 145.62 216.93 L 147.54 216.65 L 149.46 216.44 L 151.38 216.39 L 153.30 216.34 L 155.22 216.83 L 157.14 200.94 L 159.06 200.94 L 160.98 200.95 L 162.90 198.99 L 164.82 198.98 L 166.74 198.94 L 168.67 198.94 L 170.59 198.91 L 172.51 198.90 L 174.43 198.93 L 176.35 198.93 L 178.27 198.99 L 180.19 198.95 L 182.11 198.96 L 184.03 198.95 L 185.95 198.95 L 187.87 198.97 L 189.79 198.97 L 191.71 198.97 L 193.63 198.97 L 195.55 198.97 L 197.47 198.97 L 199.39 198.97 L 201.31 198.97 L 203.23 198.97 L 205.15 198.97 L 207.07 198.97 L 208.99 197.51 L 210.91 197.43 L 212.83 197.40 L 214.75 197.38 L 216.67 197.38 L 218.59 197.49 L 220.52 197.34 L 222.44 197.33 L 224.36 197.18 L 226.28 197.41 L 228.20 197.41 L 230.12 197.29 L 232.04 197.29 L 233.96 197.22 L 235.88 197.21 L 237.80 197.15 L 239.72 196.94 L 241.64 197.00 L 243.56 197.41 L 245.48 197.41 L 247.40 197.30 L 249.32 197.26 L 251.24 197.19 L 253.16 197.19 L 255.08 197.19 L 257.00 197.19 L 258.92 197.18 L 260.84 197.12 L 262.76 197.09 L 264.68 197.04 L 266.60 197.00 L 268.52 196.96 L 270.44 196.92 L 272.37 196.91 L 274.29 196.86 L 276.21 196.80 L 278.13 196.75 L 280.05 196.69 L 281.97 196.66 L 283.89 196.63 L 285.81 196.56 L 287.73 196.51 L 289.65 196.47 L 291.57 196.45 L 293.49 196.40 L 295.41 196.37 L 297.33 196.34 L 299.25 196.28 L 301.17 196.20 L 303.09 196.12 L 305.01 196.02 L 306.93 195.89 L 308.85 195.77 L 310.77 195.68 L 312.69 195.63 L 314.61 195.58 L 316.53 195.53 L 318.45 195.44 L 320.37 195.35 L 322.30 195.22 L 324.22 195.11 L 326.14 194.95 L 328.06 194.82 L 329.98 194.68 L 331.90 194.57 L 333.82 194.55 L 335.74 194.51 L 337.66 194.48 L 339.58 194.44 L 341.50 194.40 L 343.42 194.37 L 345.34 194.34 L 347.26 194.29 L 349.18 194.25 L 351.10 194.23 L 353.02 194.21 L 354.94 194.19 L 356.86 194.16 L 358.78 194.12 L 360.70 194.07 L 362.62 193.99 L 364.54 193.94 L 366.46 193.87 L 368.38 193.80 L 370.30 193.74 L 372.22 193.72 L 374.15 193.70 L 376.07 193.66 L 377.99 193.62 L 379.91 193.56 L 381.83 193.49 L 383.75 193.43 L 385.67 193.35 L 387.59 193.27 L 389.51 193.20 L 391.43 193.14 L 393.35 193.15 L 395.27 193.15 L 397.19 193.15 L 399.11 193.18 L 401.03 193.09 L 402.95 193.07 L 404.87 193.07 L 406.79 193.08 L 408.71 193.00 L 410.63 192.95 L 412.55 192.95 L 414.47 192.95 L 416.39 192.95 L 418.31 192.80 L 420.23 192.73 L 422.15 192.69 L 424.07 192.67 L 426.00 192.67 L 427.92 192.68 L 429.84 192.64 L 431.76 192.63 L 433.68 192.63 L 435.60 190.39 L 437.52 189.96 L 439.44 189.85 L 441.36 189.53 L 443.28 189.52 L 445.20 189.36 L 447.12 187.79 L 449.04 187.36 L 450.96 181.35 L 452.88 181.35 L 454.80 180.72 L 456.72 180.71 L 458.64 180.26 L 460.56 179.68 L 462.48 179.67 L 464.40 178.77 L 466.32 177.57 L 468.24 175.55 L 470.16 174.52 L 472.08 173.86 L 474.00 174.17 L 475.93 173.10 L 477.85 173.10 L 479.77 171.18 L 481.69 168.37 L 483.61 168.37 L 485.53 165.86 L 487.45 163.63 L 489.37 163.63 L 491.29 163.62 L 493.21 162.88 L 495.13 161.06 L 497.05 193.89 L 498.97 193.22 L 500.89 192.73 L 502.81 192.34 L 504.73 189.45 L 506.65 188.03 L 508.57 188.03 L 510.49 180.86 L 512.41 148.96 L 514.33 144.25 L 516.25 176.00 L 518.17 176.17 L 520.09 175.77 L 522.01 175.72 L 523.93 197.26 L 525.85 197.26 L 527.78 197.06 L 529.70 196.44 L 531.62 194.49 L 533.54 194.50 L 535.46 194.49 L 537.38 194.49 L 539.30 194.49 L 541.22 194.48 L 543.14 194.48 L 545.06 194.62 L 546.98 206.08 L 548.90 206.08 L 550.82 206.05 L 552.74 206.04 L 554.66 205.22 L 556.58 204.28 L 558.50 204.28 L 560.42 204.28 L 562.34 200.22 L 564.26 204.28 L 566.18 204.28 L 568.10 204.28 L 570.02 198.60 L 571.94 198.60 L 573.86 198.60 L 575.78 198.60 L 577.70 193.00 L 579.63 193.00 L 581.55 188.39 L 583.47 188.39 L 585.39 179.75 L 587.31 174.84 L 589.23 173.23 L 591.15 170.37 L 593.07 169.87 L 594.99 153.88 L 596.91 149.24 L 598.83 152.04 L 600.75 141.93 L 602.67 141.88 L 604.59 141.69 L 606.51 141.69 L 608.43 141.76 L 610.35 141.75 L 612.27 140.68 L 614.19 141.38 L 616.11 141.36 L 618.03 141.83 L 619.95 141.39 L 621.87 141.39 L 623.79 141.52 L 625.71 141.52 L 627.63 141.53 L 629.56 142.33 L 631.48 141.73 L 633.40 141.68 L 635.32 141.68 L 637.24 141.66 L 639.16 141.67 L 641.08 141.65 L 643.00 139.51 L 644.92 136.07 L 646.84 136.04 L 648.76 133.43 L 650.68 131.89 L 652.60 131.13 L 654.52 131.51 L 656.44 131.50 L 658.36 131.57 L 660.28 131.56 L 662.20 131.49 L 664.12 131.49 L 666.04 131.49 L 667.96 131.49 L 669.88 131.49 L 671.80 131.49 L 673.72 131.49 L 675.64 131.49 L 677.56 131.49 L 679.48 131.49 L 681.41 131.49 L 683.33 131.49 L 685.25 131.49 L 687.17 131.49 L 689.09 131.49 L 691.01 131.49 L 692.93 131.49 L 694.85 131.49 L 696.77 131.49 L 698.69 131.49 L 700.61 131.49 L 702.53 131.49 L 704.45 131.49 L 706.37 131.49 L 708.29 131.49 L 710.21 131.49 L 712.13 131.49 L 714.05 131.49 L 715.97 131.49 L 717.89 131.49 L 719.81 131.49 L 721.73 131.49 L 723.65 131.49 L 725.57 131.49 L 727.49 131.49 L 729.41 131.49 L 731.33 131.49 L 733.26 131.49 L 735.18 131.49 L 737.10 131.49 L 739.02 131.49 L 740.94 131.49 L 742.86 131.49 L 744.78 131.49 L 746.70 131.49 L 748.62 131.49 L 750.54 131.49 L 752.46 131.49 L 754.38 131.49 L 756.30 131.49 L 758.22 131.49 L 760.14 131.49 L 762.06 131.49 L 763.98 131.49 L 765.90 131.49 L 767.82 131.49 L 769.74 131.49 L 771.66 131.49 L 773.58 131.49 L 775.50 131.49 L 777.42 131.49 L 779.34 131.49 L 781.26 131.49 L 783.19 131.49 L 785.11 131.49 L 787.03 131.49 L 788.95 131.49 L 790.87 131.49 L 792.79 131.49 L 794.71 131.49 L 796.63 131.49 L 798.55 131.49 L 800.47 131.49 L 802.39 131.49 L 804.31 131.49 L 806.23 131.49 L 808.15 131.49 L 810.07 131.49 L 811.99 131.49 L 813.91 131.49 L 815.83 131.49 L 817.75 131.49 L 819.67 131.49 L 821.59 131.49 L 823.51 131.49 L 825.43 131.49 L 827.35 131.49 L 829.27 131.49 L 831.19 131.49 L 833.11 131.49 L 835.04 131.49 L 836.96 131.49 L 838.88 131.49 L 840.80 131.49 L 842.72 131.49 L 844.64 131.49 L 846.56 131.49 L 848.48 131.49 L 850.40 131.49 L 852.32 131.49 L 854.24 131.49 L 856.16 131.49 L 858.08 131.49 L 860.00 131.49" fill="none" stroke="#111827" stroke-width="2"/>
    <circle cx="860.00" cy="131.49" r="3" fill="#111827"/>
    <text x="40.00" y="235.00" font-size="9" fill="#111827" text-anchor="middle" transform="rotate(-45 40.00 235.00)">27.09.2025</text><text x="120.66" y="235.00" font-size="9" fill="#111827" text-anchor="middle" transform="rotate(-45 120.66 235.00)">28.09.2025</text><text x="201.31" y="235.00" font-size="9" fill="#111827" text-anchor="middle" transform="rotate(-45 201.31 235.00)">29.09.2025</text><text x="281.97" y="235.00" font-size="9" fill="#111827" text-anchor="middle" transform="rotate(-45 281.97 235.00)">04.10.2025</text><text x="362.62" y="235.00" font-size="9" fill="#111827" text-anchor="middle" transform="rotate(-45 362.62 235.00)">04.10.2025</text><text x="443.28" y="235.00" font-size="9" fill="#111827" text-anchor="middle" transform="rotate(-45 443.28 235.00)">04.10.2025</text><text x="523.93" y="235.00" font-size="9" fill="#111827" text-anchor="middle" transform="rotate(-45 523.93 235.00)">05.10.2025</text><text x="604.59" y="235.00" font-size="9" fill="#111827" text-anchor="middle" transform="rotate(-45 604.59 235.00)">08.10.2025</text><text x="685.25" y="235.00" font-size="9" fill="#111827" text-anchor="middle" transform="rotate(-45 685.25 235.00)">21.10.2025</text><text x="765.90" y="235.00" font-size="9" fill="#111827" text-anchor="middle" transform="rotate(-45 765.90 235.00)">02.12.2025</text><text x="846.56" y="235.00" font-size="9" fill="#111827" text-anchor="middle" transform="rotate(-45 846.56 235.00)">13.01.2026</text>
  </g>
</svg>