<svg xmlns="http://www.w3.org/2000/svg" width="900" height="290" style="font-family: -apple-system, BlinkMacSystemFont, 'Segoe UI', Helvetica, Arial, sans-serif;">
  <rect width="100%" height="100%" fill="white"/>
  <g>
    <line x1="40" y1="220.00" x2="860" y2="220.00" stroke="#e5e7eb"/><text x="32" y="224.00" font-size="10" fill="#111827" text-anchor="end">0</text><line x1="40" y1="175.00" x2="860" y2="175.00" stroke="#e5e7eb"/><text x="32" y="179.00" font-size="10" fill="#111827" text-anchor="end">25k</text><line x1="40" y1="130.00" x2="860" y2="130.00" stroke="#e5e7eb"/><text x="32" y="134.00" font-size="10" fill="#111827" text-anchor="end">50k</text><line x1="40" y1="85.00" x2="860" y2="85.00" stroke="#e5e7eb"/><text x="32" y="89.00" font-size="10" fill="#111827" text-anchor="end">75k</text><line x1="40" y1="40.00" x2="860" y2="40.00" stroke="#e5e7eb"/><text x="32" y="44.00" font-size="10" fill="#111827" text-anchor="end">100k</text>
    <line x1="40.00" y1="40" x2="40.00" y2="220" stroke="#e5e7eb" opacity="0.5"/><line x1="121.44" y1="40" x2="121.44" y2="220" stroke="#e5e7eb" opacity="0.5"/><line x1="202.89" y1="40" x2="202.89" y2="220" stroke="#e5e7eb" opacity="0.5"/><line x1="284.33" y1="40" x2="284.33" y2="220" stroke="#e5e7eb" opacity="0.5"/><line x1="365.78" y1="40" x2="365.78" y2="220" stroke="#e5e7eb" opacity="0.5"/><line x1="447.22" y1="40" x2="447.22" y2="220" stroke="#e5e7eb" opacity="0.5"/><line x1="528.67" y1="40" x2="528.67" y2="220" stroke="#e5e7eb" opacity="0.5"/><line x1="610.11" y1="40" x2="610.11" y2="220" stroke="#e5e7eb" opacity="0.5"/><line x1="691.56" y1="40" x2="691.56" y2="220" stroke="#e5e7eb" opacity="0.5"/><line x1="773.00" y1="40" x2="773.00" y2="220" stroke="#e5e7eb" opacity="0.5"/><line x1="854.45" y1="40" x2="854.45" y2="220" stroke="#e5e7eb" opacity="0.5"/>
    <line x1="40" y1="220" x2="860" y2="220" stroke="#9ca3af"/>
    <line x1="40" y1="40"   x2="40"   y2="220" stroke="#9ca3af"/>
    <path d="M 40.00 220.00 L 41.85 220.00 L 43.70 219.60 L 45.55 219.62 L 47.40 219.63 L 49.26 219.32 L 51.11 219.31 L 52.96 219.26 L 54.81 218.89 L 56.66 218.89 L 58.51 218.89 L 60.36 218.87 L 62.21 218.87 L 64.06 218.86 L 65.91 218.85 L 67.77 218.85 L 69.62 218.82 L 71.47 218.78 L 73.32 218.72 L 75.17 218.68 L 77.02 218.64 L 78.87 218.59 L 80.72 218.59 L 82.57 218.57 L 84.42 218.57 L 86.28 218.57 L 88.13 218.57 L 89.98 218.57 L 91.83 218.57 L 93.68 218.57 L 95.53 218.57 L 97.38 218.57 L 99.23 218.55 L 101.08 218.54 L 102.93 218.58 L 104.79 218.55 L 106.64 218.55 L 108.49 218.53 L 110.34 218.31 L 112.19 217.94 L 114.04 217.88 L 115.89 217.87 L 117.74 217.86 L 119.59 217.85 L 121.44 217.84 L 123.30 217.85 L 125.15 217.82 L 127.00 217.66 L 128.85 217.61 L 130.70 217.60 L 132.55 217.57 L 134.40 217.56 L 136.25 217.52 L 138.10 217.38 L 139.95 217.24 L 141.81 216.93 L 143.66 216.65 L 145.51 216.44 L 147.36 216.39 L 149.21 216.34 L 151.06 216.83 L 152.91 200.94 L 154.76 200.94 L 156.61 200.95 L 158.47 198.99 L 160.32 198.98 L 162.17 198.94 L 164.02 198.94 L 165.87 198.91 L 167.72 198.90 L 169.57 198.93 L 171.42 198.93 L 173.27 198.99 L 175.12 198.95 L 176.98 198.96 L 178.83 198.95 L 180.68 198.95 L 182.53 198.97 L 184.38 198.97 L 186.23 198.97 L 188.08 198.97 L 189.93 198.97 L 191.78 198.97 L 193.63 198.97 L 195.49 198.97 L 197.34 198.97 L 199.19 198.97 L 201.04 198.97 L 202.89 197.51 L 204.74 197.43 L 206.59 197.40 L 208.44 197.38 L 210.29 197.38 L 212.14 197.49 L 214.00 197.34 L 215.85 197.33 L 217.70 197.18 L 219.55 197.41 L 221.40 197.41 L 223.25 197.29 L 225.10 197.29 L 226.95 197.22 L 228.80 197.21 L 230.65 197.15 L 232.51 196.94 L 234.36 197.00 L 236.21 197.41 L 238.06 197.41 L 239.91 197.30 L 241.76 197.26 L 243.61 197.19 L 245.46 197.19 L 247.31 197.19 L 249.16 197.19 L 251.02 197.18 L 252.87 197.12 L 254.72 197.09 L 256.57 197.04 L 258.42 197.00 L 260.27 196.96 L 262.12 196.92 L 263.97 196.91 L 265.82 196.86 L 267.67 196.80 L 269.53 196.75 L 271.38 196.69 L 273.23 196.66 L 275.08 196.63 L 276.93 196.56 L 278.78 196.51 L 280.63 196.47 L 282.48 196.45 L 284.33 196.40 L 286.19 196.37 L 288.04 196.34 L 289.89 196.28 L 291.74 196.20 L 293.59 196.12 L 295.44 196.02 L 297.29 195.89 L 299.14 195.77 L 300.99 195.68 L 302.84 195.63 L 304.70 195.58 L 306.55 195.53 L 308.40 195.44 L 310.25 195.35 L 312.10 195.22 L 313.95 195.11 L 315.80 194.95 L 317.65 194.82 L 319.50 194.68 L 321.35 194.57 L 323.21 194.55 L 325.06 194.51 L 326.91 194.48 L 328.76 194.44 L 330.61 194.40 L 332.46 194.37 L 334.31 194.34 L 336.16 194.29 L 338.01 194.25 L 339.86 194.23 L 341.72 194.21 L 343.57 194.19 L 345.42 194.16 L 347.27 194.12 L 349.12 194.07 L 350.97 193.99 L 352.82 193.94 L 354.67 193.87 L 356.52 193.80 L 358.37 193.74 L 360.23 193.72 L 362.08 193.70 L 363.93 193.66 L 365.78 193.62 L 367.63 193.56 L 369.48 193.49 L 371.33 193.43 L 373.18 193.35 L 375.03 193.27 L 376.88 193.20 L 378.74 193.14 L 380.59 193.15 L 382.44 193.15 L 384.29 193.15 L 386.14 193.18 L 387.99 193.09 L 389.84 193.07 L 391.69 193.07 L 393.54 193.08 L 395.40 193.00 L 397.25 192.95 L 399.10 192.95 L 400.95 192.95 L 402.80 192.95 L 404.65 192.80 L 406.50 192.73 L 408.35 192.69 L 410.20 192.67 L 412.05 192.67 L 413.91 192.68 L 415.76 192.64 L 417.61 192.63 L 419.46 192.63 L 421.31 190.39 L 423.16 189.96 L 425.01 189.85 L 426.86 189.53 L 428.71 189.52 L 430.56 189.36 L 432.42 187.79 L 434.27 187.36 L 436.12 181.35 L 437.97 181.35 L 439.82 180.72 L 441.67 180.71 L 443.52 180.26 L 445.37 179.68 L 447.22 179.67 L 449.07 178.77 L 450.93 177.57 L 452.78 175.55 L 454.63 174.52 L 456.48 173.86 L 458.33 174.17 L 460.18 173.10 L 462.03 173.10 L 463.88 171.18 L 465.73 168.37 L 467.58 168.37 L 469.44 165.86 L 471.29 163.63 L 473.14 163.63 L 474.99 163.62 L 476.84 162.88 L 478.69 161.06 L 480.54 193.89 L 482.39 193.22 L 484.24 192.73 L 486.09 192.34 L 487.95 189.45 L 489.80 188.03 L 491.65 188.03 L 493.50 180.86 L 495.35 148.96 L 497.20 144.25 L 499.05 176.00 L 500.90 176.17 L 502.75 175.77 L 504.60 175.72 L 506.46 197.26 L 508.31 197.26 L 510.16 197.06 L 512.01 196.44 L 513.86 194.49 L 515.71 194.50 L 517.56 194.49 L 519.41 194.49 L 521.26 194.49 L 523.12 194.48 L 524.97 194.48 L 526.82 194.62 L 528.67 206.08 L 530.52 206.08 L 532.37 206.05 L 534.22 206.04 L 536.07 205.22 L 537.92 204.28 L 539.77 204.28 L 541.63 204.28 L 543.48 200.22 L 545.33 204.28 L 547.18 204.28 L 549.03 204.28 L 550.88 198.60 L 552.73 198.60 L 554.58 198.60 L 556.43 198.60 L 558.28 193.00 L 560.14 193.00 L 561.99 188.39 L 563.84 188.39 L 565.69 179.75 L 567.54 174.84 L 569.39 173.23 L 571.24 170.37 L 573.09 169.87 L 574.94 153.88 L 576.79 149.24 L 578.65 152.04 L 580.50 141.93 L 582.35 141.88 L 584.20 141.69 L 586.05 141.69 L 587.90 141.76 L 589.75 141.75 L 591.60 140.68 L 593.45 141.38 L 595.30 141.36 L 597.16 141.83 L 599.01 141.39 L 600.86 141.39 L 602.71 141.52 L 604.56 141.52 L 606.41 141.53 L 608.26 142.33 L 610.11 141.73 L 611.96 141.68 L 613.81 141.68 L 615.67 141.66 L 617.52 141.67 L 619.37 141.65 L 621.22 139.51 L 623.07 136.07 L 624.92 136.04 L 626.77 133.43 L 628.62 131.89 L 630.47 131.13 L 632.33 131.51 L 634.18 131.50 L 636.03 131.57 L 637.88 131.56 L 639.73 131.49 L 641.58 131.49 L 643.43 131.49 L 645.28 131.49 L 647.13 131.49 L 648.98 131.49 L 650.84 131.49 L 652.69 131.49 L 654.54 131.49 L 656.39 131.49 L 658.24 131.49 L 660.09 131.49 L 661.94 131.49 L 663.79 131.49 L 665.64 131.49 L 667.49 131.49 L 669.35 131.49 L 671.20 131.49 L 673.05 131.49 L 674.90 131.49 L 676.75 131.49 L 678.60 131.49 L 680.45 131.49 L 682.30 131.49 L 684.15 131.49 L 686.00 131.49 L 687.86 131.49 L 689.71 131.49 L 691.56 131.49 L 693.41 131.49 L 695.26 131.49 L 697.11 131.49 L 698.96 131.49 L 700.81 131.49 L 702.66 131.49 L 704.51 131.49 L 706.37 131.49 L 708.22 131.49 L 710.07 131.49 L 711.92 131.49 L 713.77 131.49 L 715.62 131.49 L 717.47 131.49 L 719.32 131.49 L 721.17 131.49 L 723.02 131.49 L 724.88 131.49 L 726.73 131.49 L 728.58 131.49 L 730.43 131.49 L 732.28 131.49 L 734.13 131.49 L 735.98 131.49 L 737.83 131.49 L 739.68 131.49 L 741.53 131.49 L 743.39 131.49 L 745.24 131.49 L 747.09 131.49 L 748.94 131.49 L 750.79 131.49 L 752.64 131.49 L 754.49 131.49 L 756.34 131.49 L 758.19 131.49 L 760.05 131.49 L 761.90 131.49 L 763.75 131.49 L 765.60 131.49 L 767.45 131.49 L 769.30 131.49 L 771.15 131.49 L 773.00 131.49 L 774.85 131.49 L 776.70 131.49 L 778.56 131.49 L 780.41 131.49 L 782.26 131.49 L 784.11 131.49 L 785.96 131.49 L 787.81 131.49 L 789.66 131.49 L 791.51 131.49 L 793.36 131.49 L 795.21 131.49 L 797.07 131.49 L 798.92 131.49 L 800.77 131.49 L 802.62 131.49 L 804.47 131.49 L 806.32 131.49 L 808.17 131.49 L 810.02 131.49 L 811.87 131.49 L 813.72 131.49 L 815.58 131.49 L 817.43 131.49 L 819.28 131.49 L 821.13 131.49 L 822.98 131.49 L 824.83 131.49 L 826.68 131.49 L 828.53 131.49 L 830.38 131.49 L 832.23 131.49 L 834.09 131.49 L 835.94 131.49 L 837.79 131.49 L 839.64 131.49 L 841.49 131.49 L 843.34 131.49 L 845.19 131.49 L 847.04 131.49 L 848.89 131.49 L 850.74 131.49 L 852.60 131.49 L 854.45 131.49 L 856.30 131.49 L 858.15 131.49 L 860.00 131.49" fill="none" stroke="#111827" stroke-width="2"/>
    <circle cx="860.00" cy="131.49" r="3" fill="#111827"/>
    <text x="40.00" y="235.00" font-size="9" fill="#111827" text-anchor="middle" transform="rotate(-45 40.00 235.00)">27.09.2025</text><text x="121.44" y="235.00" font-size="9" fill="#111827" text-anchor="middle" transform="rotate(-45 121.44 235.00)">28.09.2025</text><text x="202.89" y="235.00" font-size="9" fill="#111827" text-anchor="middle" transform="rotate(-45 202.89 235.00)">29.09.2025</text><text x="284.33" y="235.00" font-size="9" fill="#111827" text-anchor="middle" transform="rotate(-45 284.33 235.00)">04.10.2025</text><text x="365.78" y="235.00" font-size="9" fill="#111827" text-anchor="middle" transform="rotate(-45 365.78 235.00)">04.10.2025</text><text x="447.22" y="235.00" font-size="9" fill="#111827" text-anchor="middle" transform="rotate(-45 447.22 235.00)">04.10.2025</text><text x="528.67" y="235.00" font-size="9" fill="#111827" text-anchor="middle" transform="rotate(-45 528.67 235.00)">05.10.2025</text><text x="610.11" y="235.00" font-size="9" fill="#111827" text-anchor="middle" transform="rotate(-45 610.11 235.00)">09.10.2025</text><text x="691.56" y="235.00" font-size="9" fill="#111827" text-anchor="middle" transform="rotate(-45 691.56 235.00)">06.11.2025</text><text x="773.00" y="235.00" font-size="9" fill="#111827" text-anchor="middle" transform="rotate(-45 773.00 235.00)">20.12.2025</text><text x="854.45" y="235.00" font-size="9" fill="#111827" text-anchor="middle" transform="rotate(-45 854.45 235.00)">01.02.2026</text>
  </g>
</svg>