<svg xmlns="http://www.w3.org/2000/svg" width="900" height="290" style="font-family: -apple-system, BlinkMacSystemFont, 'Segoe UI', Helvetica, Arial, sans-serif;">
  <rect width="100%" height="100%" fill="white"/>
  <g>
    <line x1="40" y1="220.00" x2="860" y2="220.00" stroke="#e5e7eb"/><text x="32" y="224.00" font-size="10" fill="#111827" text-anchor="end">0</text><line x1="40" y1="175.00" x2="860" y2="175.00" stroke="#e5e7eb"/><text x="32" y="179.00" font-size="10" fill="#111827" text-anchor="end">25k</text><line x1="40" y1="130.00" x2="860" y2="130.00" stroke="#e5e7eb"/><text x="32" y="134.00" font-size="10" fill="#111827" text-anchor="end">50k</text><line x1="40" y1="85.00" x2="860" y2="85.00" stroke="#e5e7eb"/><text x="32" y="89.00" font-size="10" fill="#111827" text-anchor="end">75k</text><line x1="40" y1="40.00" x2="860" y2="40.00" stroke="#e5e7eb"/><text x="32" y="44.00" font-size="10" fill="#111827" text-anchor="end">100k</text>
    <line x1="40.00" y1="40" x2="40.00" y2="220" stroke="#e5e7eb" opacity="0.5"/><line x1="121.28" y1="40" x2="121.28" y2="220" stroke="#e5e7eb" opacity="0.5"/><line x1="202.56" y1="40" x2="202.56" y2="220" stroke="#e5e7eb" opacity="0.5"/><line x1="283.83" y1="40" x2="283.83" y2="220" stroke="#e5e7eb" opacity="0.5"/><line x1="365.11" y1="40" x2="365.11" y2="220" stroke="#e5e7eb" opacity="0.5"/><line x1="446.39" y1="40" x2="446.39" y2="220" stroke="#e5e7eb" opacity="0.5"/><line x1="527.67" y1="40" x2="527.67" y2="220" stroke="#e5e7eb" opacity="0.5"/><line x1="608.94" y1="40" x2="608.94" y2="220" stroke="#e5e7eb" opacity="0.5"/><line x1="690.22" y1="40" x2="690.22" y2="220" stroke="#e5e7eb" opacity="0.5"/><line x1="771.50" y1="40" x2="771.50" y2="220" stroke="#e5e7eb" opacity="0.5"/><line x1="852.78" y1="40" x2="852.78" y2="220" stroke="#e5e7eb" opacity="0.5"/>
    <line x1="40" y1="220" x2="860" y2="220" stroke="#9ca3af"/>
    <line x1="40" y1="40"   x2="40"   y2="220" stroke="#9ca3af"/>
    <path d="M 40.00 220.00 L 41.81 220.00 L 43.61 219.60 L 45.42 219.62 L 47.22 219.63 L 49.03 219.32 L 50.84 219.31 L 52.64 219.26 L 54.45 218.89 L 56.26 218.89 L 58.06 218.89 L 59.87 218.87 L 61.67 218.87 L 63.48 218.86 L 65.29 218.85 L 67.09 218.85 L 68.90 218.82 L 70.70 218.78 L 72.51 218.72 L 74.32 218.68 L 76.12 218.64 L 77.93 218.59 L 79.74 218.59 L 81.54 218.57 L 83.35 218.57 L 85.15 218.57 L 86.96 218.57 L 88.77 218.57 L 90.57 218.57 L 92.38 218.57 L 94.19 218.57 L 95.99 218.57 L 97.80 218.55 L 99.60 218.54 L 101.41 218.58 L 103.22 218.55 L 105.02 218.55 L 106.83 218.53 L 108.63 218.31 L 110.44 217.94 L 112.25 217.88 L 114.05 217.87 L 115.86 217.86 L 117.67 217.85 L 119.47 217.84 L 121.28 217.85 L 123.08 217.82 L 124.89 217.66 L 126.70 217.61 L 128.50 217.60 L 130.31 217.57 L 132.11 217.56 L 133.92 217.52 L 135.73 217.38 L 137.53 217.24 L 139.34 216.93 L 141.15 216.65 L 142.95 216.44 L 144.76 216.39 L 146.56 216.34 L 148.37 216.83 L 150.18 200.94 L 151.98 200.94 L 153.79 200.95 L 155.59 198.99 L 157.40 198.98 L 159.21 198.94 L 161.01 198.94 L 162.82 198.91 L 164.63 198.90 L 166.43 198.93 L 168.24 198.93 L 170.04 198.99 L 171.85 198.95 L 173.66 198.96 L 175.46 198.95 L 177.27 198.95 L 179.07 198.97 L 180.88 198.97 L 182.69 198.97 L 184.49 198.97 L 186.30 198.97 L 188.11 198.97 L 189.91 198.97 L 191.72 198.97 L 193.52 198.97 L 195.33 198.97 L 197.14 198.97 L 198.94 197.51 L 200.75 197.43 L 202.56 197.40 L 204.36 197.38 L 206.17 197.38 L 207.97 197.49 L 209.78 197.34 L 211.59 197.33 L 213.39 197.18 L 215.20 197.41 L 217.00 197.41 L 218.81 197.29 L 220.62 197.29 L 222.42 197.22 L 224.23 197.21 L 226.04 197.15 L 227.84 196.94 L 229.65 197.00 L 231.45 197.41 L 233.26 197.41 L 235.07 197.30 L 236.87 197.26 L 238.68 197.19 L 240.48 197.19 L 242.29 197.19 L 244.10 197.19 L 245.90 197.18 L 247.71 197.12 L 249.52 197.09 L 251.32 197.04 L 253.13 197.00 L 254.93 196.96 L 256.74 196.92 L 258.55 196.91 L 260.35 196.86 L 262.16 196.80 L 263.96 196.75 L 265.77 196.69 L 267.58 196.66 L 269.38 196.63 L 271.19 196.56 L 273.00 196.51 L 274.80 196.47 L 276.61 196.45 L 278.41 196.40 L 280.22 196.37 L 282.03 196.34 L 283.83 196.28 L 285.64 196.20 L 287.44 196.12 L 289.25 196.02 L 291.06 195.89 L 292.86 195.77 L 294.67 195.68 L 296.48 195.63 L 298.28 195.58 L 300.09 195.53 L 301.89 195.44 L 303.70 195.35 L 305.51 195.22 L 307.31 195.11 L 309.12 194.95 L 310.93 194.82 L 312.73 194.68 L 314.54 194.57 L 316.34 194.55 L 318.15 194.51 L 319.96 194.48 L 321.76 194.44 L 323.57 194.40 L 325.37 194.37 L 327.18 194.34 L 328.99 194.29 L 330.79 194.25 L 332.60 194.23 L 334.41 194.21 L 336.21 194.19 L 338.02 194.16 L 339.82 194.12 L 341.63 194.07 L 343.44 193.99 L 345.24 193.94 L 347.05 193.87 L 348.85 193.80 L 350.66 193.74 L 352.47 193.72 L 354.27 193.70 L 356.08 193.66 L 357.89 193.62 L 359.69 193.56 L 361.50 193.49 L 363.30 193.43 L 365.11 193.35 L 366.92 193.27 L 368.72 193.20 L 370.53 193.14 L 372.33 193.15 L 374.14 193.15 L 375.95 193.15 L 377.75 193.18 L 379.56 193.09 L 381.37 193.07 L 383.17 193.07 L 384.98 193.08 L 386.78 193.00 L 388.59 192.95 L 390.40 192.95 L 392.20 192.95 L 394.01 192.95 L 395.81 192.80 L 397.62 192.73 L 399.43 192.69 L 401.23 192.67 L 403.04 192.67 L 404.85 192.68 L 406.65 192.64 L 408.46 192.63 L 410.26 192.63 L 412.07 190.39 L 413.88 189.96 L 415.68 189.85 L 417.49 189.53 L 419.30 189.52 L 421.10 189.36 L 422.91 187.79 L 424.71 187.36 L 426.52 181.35 L 428.33 181.35 L 430.13 180.72 L 431.94 180.71 L 433.74 180.26 L 435.55 179.68 L 437.36 179.67 L 439.16 178.77 L 440.97 177.57 L 442.78 175.55 L 444.58 174.52 L 446.39 173.86 L 448.19 174.17 L 450.00 173.10 L 451.81 173.10 L 453.61 171.18 L 455.42 168.37 L 457.22 168.37 L 459.03 165.86 L 460.84 163.63 L 462.64 163.63 L 464.45 163.62 L 466.26 162.88 L 468.06 161.06 L 469.87 193.89 L 471.67 193.22 L 473.48 192.73 L 475.29 192.34 L 477.09 189.45 L 478.90 188.03 L 480.70 188.03 L 482.51 180.86 L 484.32 148.96 L 486.12 144.25 L 487.93 176.00 L 489.74 176.17 L 491.54 175.77 L 493.35 175.72 L 495.15 197.26 L 496.96 197.26 L 498.77 197.06 L 500.57 196.44 L 502.38 194.49 L 504.19 194.50 L 505.99 194.49 L 507.80 194.49 L 509.60 194.49 L 511.41 194.48 L 513.22 194.48 L 515.02 194.62 L 516.83 206.08 L 518.63 206.08 L 520.44 206.05 L 522.25 206.04 L 524.05 205.22 L 525.86 204.28 L 527.67 204.28 L 529.47 204.28 L 531.28 200.22 L 533.08 204.28 L 534.89 204.28 L 536.70 204.28 L 538.50 198.60 L 540.31 198.60 L 542.11 198.60 L 543.92 198.60 L 545.73 193.00 L 547.53 193.00 L 549.34 188.39 L 551.15 188.39 L 552.95 179.75 L 554.76 174.84 L 556.56 173.23 L 558.37 170.37 L 560.18 169.87 L 561.98 153.88 L 563.79 149.24 L 565.59 152.04 L 567.40 141.93 L 569.21 141.88 L 571.01 141.69 L 572.82 141.69 L 574.63 141.76 L 576.43 141.75 L 578.24 140.68 L 580.04 141.38 L 581.85 141.36 L 583.66 141.83 L 585.46 141.39 L 587.27 141.39 L 589.07 141.52 L 590.88 141.52 L 592.69 141.53 L 594.49 142.33 L 596.30 141.73 L 598.11 141.68 L 599.91 141.68 L 601.72 141.66 L 603.52 141.67 L 605.33 141.65 L 607.14 139.51 L 608.94 136.07 L 610.75 136.04 L 612.56 133.43 L 614.36 131.89 L 616.17 131.13 L 617.97 131.51 L 619.78 131.50 L 621.59 131.57 L 623.39 131.56 L 625.20 131.49 L 627.00 131.49 L 628.81 131.49 L 630.62 131.49 L 632.42 131.49 L 634.23 131.49 L 636.04 131.49 L 637.84 131.49 L 639.65 131.49 L 641.45 131.49 L 643.26 131.49 L 645.07 131.49 L 646.87 131.49 L 648.68 131.49 L 650.48 131.49 L 652.29 131.49 L 654.10 131.49 L 655.90 131.49 L 657.71 131.49 L 659.52 131.49 L 661.32 131.49 L 663.13 131.49 L 664.93 131.49 L 666.74 131.49 L 668.55 131.49 L 670.35 131.49 L 672.16 131.49 L 673.96 131.49 L 675.77 131.49 L 677.58 131.49 L 679.38 131.49 L 681.19 131.49 L 683.00 131.49 L 684.80 131.49 L 686.61 131.49 L 688.41 131.49 L 690.22 131.49 L 692.03 131.49 L 693.83 131.49 L 695.64 131.49 L 697.44 131.49 L 699.25 131.49 L 701.06 131.49 L 702.86 131.49 L 704.67 131.49 L 706.48 131.49 L 708.28 131.49 L 710.09 131.49 L 711.89 131.49 L 713.70 131.49 L 715.51 131.49 L 717.31 131.49 L 719.12 131.49 L 720.93 131.49 L 722.73 131.49 L 724.54 131.49 L 726.34 131.49 L 728.15 131.49 L 729.96 131.49 L 731.76 131.49 L 733.57 131.49 L 735.37 131.49 L 737.18 131.49 L 738.99 131.49 L 740.79 131.49 L 742.60 131.49 L 744.41 131.49 L 746.21 131.49 L 748.02 131.49 L 749.82 131.49 L 751.63 131.49 L 753.44 131.49 L 755.24 131.49 L 757.05 131.49 L 758.85 131.49 L 760.66 131.49 L 762.47 131.49 L 764.27 131.49 L 766.08 131.49 L 767.89 131.49 L 769.69 131.49 L 771.50 131.49 L 773.30 131.49 L 775.11 131.49 L 776.92 131.49 L 778.72 131.49 L 780.53 131.49 L 782.33 131.49 L 784.14 131.49 L 785.95 131.49 L 787.75 131.49 L 789.56 131.49 L 791.37 131.49 L 793.17 131.49 L 794.98 131.49 L 796.78 131.49 L 798.59 131.49 L 800.40 131.49 L 802.20 131.49 L 804.01 131.49 L 805.81 131.49 L 807.62 131.49 L 809.43 131.49 L 811.23 131.49 L 813.04 131.49 L 814.85 131.49 L 816.65 131.49 L 818.46 131.49 L 820.26 131.49 L 822.07 131.49 L 823.88 131.49 L 825.68 131.49 L 827.49 131.49 L 829.30 131.49 L 831.10 131.49 L 832.91 131.49 L 834.71 131.49 L 836.52 131.49 L 838.33 131.49 L 840.13 131.49 L 841.94 131.49 L 843.74 131.49 L 845.55 131.49 L 847.36 131.49 L 849.16 131.49 L 850.97 131.49 L 852.78 131.49 L 854.58 131.49 L 856.39 131.49 L 858.19 131.49 L 860.00 131.49" fill="none" stroke="#111827" stroke-width="2"/>
    <circle cx="860.00" cy="131.49" r="3" fill="#111827"/>
    <text x="40.00" y="235.00" font-size="9" fill="#111827" text-anchor="middle" transform="rotate(-45 40.00 235.00)">27.09.2025</text><text x="121.28" y="235.00" font-size="9" fill="#111827" text-anchor="middle" transform="rotate(-45 121.28 235.00)">28.09.2025</text><text x="202.56" y="235.00" font-size="9" fill="#111827" text-anchor="middle" transform="rotate(-45 202.56 235.00)">29.09.2025</text><text x="283.83" y="235.00" font-size="9" fill="#111827" text-anchor="middle" transform="rotate(-45 283.83 235.00)">04.10.2025</text><text x="365.11" y="235.00" font-size="9" fill="#111827" text-anchor="middle" transform="rotate(-45 365.11 235.00)">04.10.2025</text><text x="446.39" y="235.00" font-size="9" fill="#111827" text-anchor="middle" transform="rotate(-45 446.39 235.00)">04.10.2025</text><text x="527.67" y="235.00" font-size="9" fill="#111827" text-anchor="middle" transform="rotate(-45 527.67 235.00)">06.10.2025</text><text x="608.94" y="235.00" font-size="9" fill="#111827" text-anchor="middle" transform="rotate(-45 608.94 235.00)">09.10.2025</text><text x="690.22" y="235.00" font-size="9" fill="#111827" text-anchor="middle" transform="rotate(-45 690.22 235.00)">14.11.2025</text><text x="771.50" y="235.00" font-size="9" fill="#111827" text-anchor="middle" transform="rotate(-45 771.50 235.00)">29.12.2025</text><text x="852.78" y="235.00" font-size="9" fill="#111827" text-anchor="middle" transform="rotate(-45 852.78 235.00)">09.02.2026</text>
  </g>
</svg>