<svg xmlns="http://www.w3.org/2000/svg" width="900" height="290" style="font-family: -apple-system, BlinkMacSystemFont, 'Segoe UI', Helvetica, Arial, sans-serif;">
  <rect width="100%" height="100%" fill="white"/>
  <g>
    <line x1="40" y1="220.00" x2="860" y2="220.00" stroke="#e5e7eb"/><text x="32" y="224.00" font-size="10" fill="#111827" text-anchor="end">0</text><line x1="40" y1="175.00" x2="860" y2="175.00" stroke="#e5e7eb"/><text x="32" y="179.00" font-size="10" fill="#111827" text-anchor="end">25k</text><line x1="40" y1="130.00" x2="860" y2="130.00" stroke="#e5e7eb"/><text x="32" y="134.00" font-size="10" fill="#111827" text-anchor="end">50k</text><line x1="40" y1="85.00" x2="860" y2="85.00" stroke="#e5e7eb"/><text x="32" y="89.00" font-size="10" fill="#111827" text-anchor="end">75k</text><line x1="40" y1="40.00" x2="860" y2="40.00" stroke="#e5e7eb"/><text x="32" y="44.00" font-size="10" fill="#111827" text-anchor="end">100k</text>
    <line x1="40.00" y1="40" x2="40.00" y2="220" stroke="#e5e7eb" opacity="0.5"/><line x1="122.22" y1="40" x2="122.22" y2="220" stroke="#e5e7eb" opacity="0.5"/><line x1="204.44" y1="40" x2="204.44" y2="220" stroke="#e5e7eb" opacity="0.5"/><line x1="286.67" y1="40" x2="286.67" y2="220" stroke="#e5e7eb" opacity="0.5"/><line x1="368.89" y1="40" x2="368.89" y2="220" stroke="#e5e7eb" opacity="0.5"/><line x1="451.11" y1="40" x2="451.11" y2="220" stroke="#e5e7eb" opacity="0.5"/><line x1="533.33" y1="40" x2="533.33" y2="220" stroke="#e5e7eb" opacity="0.5"/><line x1="615.56" y1="40" x2="615.56" y2="220" stroke="#e5e7eb" opacity="0.5"/><line x1="697.78" y1="40" x2="697.78" y2="220" stroke="#e5e7eb" opacity="0.5"/><line x1="780.00" y1="40" x2="780.00" y2="220" stroke="#e5e7eb" opacity="0.5"/>
    <line x1="40" y1="220" x2="860" y2="220" stroke="#9ca3af"/>
    <line x1="40" y1="40"   x2="40"   y2="220" stroke="#9ca3af"/>
    <path d="M 40.00 220.00 L 42.22 220.00 L 44.44 219.60 L 46.67 219.62 L 48.89 219.63 L 51.11 219.32 L 53.33 219.31 L 55.56 219.26 L 57.78 218.89 L 60.00 218.89 L 62.22 218.89 L 64.44 218.87 L 66.67 218.87 L 68.89 218.86 L 71.11 218.85 L 73.33 218.85 L 75.56 218.82 L 77.78 218.78 L 80.00 218.72 L 82.22 218.68 L 84.44 218.64 L 86.67 218.59 L 88.89 218.59 L 91.11 218.57 L 93.33 218.57 L 95.56 218.57 L 97.78 218.57 L 100.00 218.57 L 102.22 218.57 L 104.44 218.57 L 106.67 218.57 L 108.89 218.57 L 111.11 218.55 L 113.33 218.54 L 115.56 218.58 L 117.78 218.55 L 120.00 218.55 L 122.22 218.53 L 124.44 218.31 L 126.67 217.94 L 128.89 217.88 L 131.11 217.87 L 133.33 217.86 L 135.56 217.85 L 137.78 217.84 L 140.00 217.85 L 142.22 217.82 L 144.44 217.66 L 146.67 217.61 L 148.89 217.60 L 151.11 217.57 L 153.33 217.56 L 155.56 217.52 L 157.78 217.38 L 160.00 217.24 L 162.22 216.93 L 164.44 216.65 L 166.67 216.44 L 168.89 216.39 L 171.11 216.34 L 173.33 216.83 L 175.56 200.94 L 177.78 200.94 L 180.00 200.95 L 182.22 198.99 L 184.44 198.98 L 186.67 198.94 L 188.89 198.94 L 191.11 198.91 L 193.33 198.90 L 195.56 198.93 L 197.78 198.93 L 200.00 198.99 L 202.22 198.95 L 204.44 198.96 L 206.67 198.95 L 208.89 198.95 L 211.11 198.97 L 213.33 198.97 L 215.56 198.97 L 217.78 198.97 L 220.00 198.97 L 222.22 198.97 L 224.44 198.97 L 226.67 198.97 L 228.89 198.97 L 231.11 198.97 L 233.33 198.97 L 235.56 197.51 L 237.78 197.43 L 240.00 197.40 L 242.22 197.38 L 244.44 197.38 L 246.67 197.49 L 248.89 197.34 L 251.11 197.33 L 253.33 197.18 L 255.56 197.41 L 257.78 197.41 L 260.00 197.29 L 262.22 197.29 L 264.44 197.22 L 266.67 197.21 L 268.89 197.15 L 271.11 196.94 L 273.33 197.00 L 275.56 197.41 L 277.78 197.41 L 280.00 197.30 L 282.22 197.26 L 284.44 197.19 L 286.67 197.19 L 288.89 197.19 L 291.11 197.19 L 293.33 197.18 L 295.56 197.12 L 297.78 197.09 L 300.00 197.04 L 302.22 197.00 L 304.44 196.96 L 306.67 196.92 L 308.89 196.91 L 311.11 196.86 L 313.33 196.80 L 315.56 196.75 L 317.78 196.69 L 320.00 196.66 L 322.22 196.63 L 324.44 196.56 L 326.67 196.51 L 328.89 196.47 L 331.11 196.45 L 333.33 196.40 L 335.56 196.37 L 337.78 196.34 L 340.00 196.28 L 342.22 196.20 L 344.44 196.12 L 346.67 196.02 L 348.89 195.89 L 351.11 195.77 L 353.33 195.68 L 355.56 195.63 L 357.78 195.58 L 360.00 195.53 L 362.22 195.44 L 364.44 195.35 L 366.67 195.22 L 368.89 195.11 L 371.11 194.95 L 373.33 194.82 L 375.56 194.68 L 377.78 194.57 L 380.00 194.55 L 382.22 194.51 L 384.44 194.48 L 386.67 194.44 L 388.89 194.40 L 391.11 194.37 L 393.33 194.34 L 395.56 194.29 L 397.78 194.25 L 400.00 194.23 L 402.22 194.21 L 404.44 194.19 L 406.67 194.16 L 408.89 194.12 L 411.11 194.07 L 413.33 193.99 L 415.56 193.94 L 417.78 193.87 L 420.00 193.80 L 422.22 193.74 L 424.44 193.72 L 426.67 193.70 L 428.89 193.66 L 431.11 193.62 L 433.33 193.56 L 435.56 193.49 L 437.78 193.43 L 440.00 193.35 L 442.22 193.27 L 444.44 193.20 L 446.67 193.14 L 448.89 193.15 L 451.11 193.15 L 453.33 193.15 L 455.56 193.18 L 457.78 193.09 L 460.00 193.07 L 462.22 193.07 L 464.44 193.08 L 466.67 193.00 L 468.89 192.95 L 471.11 192.95 L 473.33 192.95 L 475.56 192.95 L 477.78 192.80 L 480.00 192.73 L 482.22 192.69 L 484.44 192.67 L 486.67 192.67 L 488.89 192.68 L 491.11 192.64 L 493.33 192.63 L 495.56 192.63 L 497.78 190.39 L 500.00 189.96 L 502.22 189.85 L 504.44 189.53 L 506.67 189.52 L 508.89 189.36 L 511.11 187.79 L 513.33 187.36 L 515.56 181.35 L 517.78 181.35 L 520.00 180.72 L 522.22 180.71 L 524.44 180.26 L 526.67 179.68 L 528.89 179.67 L 531.11 178.77 L 533.33 177.57 L 535.56 175.55 L 537.78 174.52 L 540.00 173.86 L 542.22 174.17 L 544.44 173.10 L 546.67 173.10 L 548.89 171.18 L 551.11 168.37 L 553.33 168.37 L 555.56 165.86 L 557.78 163.63 L 560.00 163.63 L 562.22 163.62 L 564.44 162.88 L 566.67 161.06 L 568.89 193.89 L 571.11 193.22 L 573.33 192.73 L 575.56 192.34 L 577.78 189.45 L 580.00 188.03 L 582.22 188.03 L 584.44 180.86 L 586.67 148.96 L 588.89 144.25 L 591.11 176.00 L 593.33 176.17 L 595.56 175.77 L 597.78 175.72 L 600.00 197.26 L 602.22 197.26 L 604.44 197.06 L 606.67 196.44 L 608.89 194.49 L 611.11 194.50 L 613.33 194.49 L 615.56 194.49 L 617.78 194.49 L 620.00 194.48 L 622.22 194.48 L 624.44 194.62 L 626.67 206.08 L 628.89 206.08 L 631.11 206.05 L 633.33 206.04 L 635.56 205.22 L 637.78 204.28 L 640.00 204.28 L 642.22 204.28 L 644.44 200.22 L 646.67 204.28 L 648.89 204.28 L 651.11 204.28 L 653.33 198.60 L 655.56 198.60 L 657.78 198.60 L 660.00 198.60 L 662.22 193.00 L 664.44 193.00 L 666.67 188.39 L 668.89 188.39 L 671.11 179.75 L 673.33 174.84 L 675.56 173.23 L 677.78 170.37 L 680.00 169.87 L 682.22 153.88 L 684.44 149.24 L 686.67 152.04 L 688.89 141.93 L 691.11 141.88 L 693.33 141.69 L 695.56 141.69 L 697.78 141.76 L 700.00 141.75 L 702.22 140.68 L 704.44 141.38 L 706.67 141.36 L 708.89 141.83 L 711.11 141.39 L 713.33 141.39 L 715.56 141.52 L 717.78 141.52 L 720.00 141.53 L 722.22 142.33 L 724.44 141.73 L 726.67 141.68 L 728.89 141.68 L 731.11 141.66 L 733.33 141.67 L 735.56 141.65 L 737.78 139.51 L 740.00 136.07 L 742.22 136.04 L 744.44 133.43 L 746.67 131.89 L 748.89 131.13 L 751.11 131.51 L 753.33 131.50 L 755.56 131.57 L 757.78 131.56 L 760.00 131.49 L 762.22 131.49 L 764.44 131.49 L 766.67 131.49 L 768.89 131.49 L 771.11 131.49 L 773.33 131.49 L 775.56 131.49 L 777.78 131.49 L 780.00 131.49 L 782.22 131.49 L 784.44 131.49 L 786.67 131.49 L 788.89 131.49 L 791.11 131.49 L 793.33 131.49 L 795.56 131.49 L 797.78 131.49 L 800.00 131.49 L 802.22 131.49 L 804.44 131.49 L 806.67 131.49 L 808.89 131.49 L 811.11 131.49 L 813.33 131.49 L 815.56 131.49 L 817.78 131.49 L 820.00 131.49 L 822.22 131.49 L 824.44 131.49 L 826.67 131.49 L 828.89 131.49 L 831.11 131.49 L 833.33 131.49 L 835.56 131.49 L 837.78 131.49 L 840.00 131.49 L 842.22 131.49 L 844.44 131.49 L 846.67 131.49 L 848.89 131.49 L 851.11 131.49 L 853.33 131.49 L 855.56 131.49 L 857.78 131.49 L 860.00 131.49" fill="none" stroke="#111827" stroke-width="2"/>
    <circle cx="860.00" cy="131.49" r="3" fill="#111827"/>
    <text x="40.00" y="235.00" font-size="9" fill="#111827" text-anchor="middle" transform="rotate(-45 40.00 235.00)">27.09.2025</text><text x="122.22" y="235.00" font-size="9" fill="#111827" text-anchor="middle" transform="rotate(-45 122.22 235.00)">28.09.2025</text><text x="204.44" y="235.00" font-size="9" fill="#111827" text-anchor="middle" transform="rotate(-45 204.44 235.00)">28.09.2025</text><text x="286.67" y="235.00" font-size="9" fill="#111827" text-anchor="middle" transform="rotate(-45 286.67 235.00)">04.10.2025</text><text x="368.89" y="235.00" font-size="9" fill="#111827" text-anchor="middle" transform="rotate(-45 368.89 235.00)">04.10.2025</text><text x="451.11" y="235.00" font-size="9" fill="#111827" text-anchor="middle" transform="rotate(-45 451.11 235.00)">04.10.2025</text><text x="533.33" y="235.00" font-size="9" fill="#111827" text-anchor="middle" transform="rotate(-45 533.33 235.00)">04.10.2025</text><text x="615.56" y="235.00" font-size="9" fill="#111827" text-anchor="middle" transform="rotate(-45 615.56 235.00)">05.10.2025</text><text x="697.78" y="235.00" font-size="9" fill="#111827" text-anchor="middle" transform="rotate(-45 697.78 235.00)">08.10.2025</text><text x="780.00" y="235.00" font-size="9" fill="#111827" text-anchor="middle" transform="rotate(-45 780.00 235.00)">18.10.2025</text>
  </g>
</svg>