<svg xmlns="http://www.w3.org/2000/svg" width="900" height="290" style="font-family: -apple-system, BlinkMacSystemFont, 'Segoe UI', Helvetica, Arial, sans-serif;">
  <rect width="100%" height="100%" fill="white"/>
  <g>
    <line x1="40" y1="220.00" x2="860" y2="220.00" stroke="#e5e7eb"/><text x="32" y="224.00" font-size="10" fill="#111827" text-anchor="end">0</text><line x1="40" y1="175.00" x2="860" y2="175.00" stroke="#e5e7eb"/><text x="32" y="179.00" font-size="10" fill="#111827" text-anchor="end">25k</text><line x1="40" y1="130.00" x2="860" y2="130.00" stroke="#e5e7eb"/><text x="32" y="134.00" font-size="10" fill="#111827" text-anchor="end">50k</text><line x1="40" y1="85.00" x2="860" y2="85.00" stroke="#e5e7eb"/><text x="32" y="89.00" font-size="10" fill="#111827" text-anchor="end">75k</text><line x1="40" y1="40.00" x2="860" y2="40.00" stroke="#e5e7eb"/><text x="32" y="44.00" font-size="10" fill="#111827" text-anchor="end">100k</text>
    <line x1="40.00" y1="40" x2="40.00" y2="220" stroke="#e5e7eb" opacity="0.5"/><line x1="121.04" y1="40" x2="121.04" y2="220" stroke="#e5e7eb" opacity="0.5"/><line x1="202.07" y1="40" x2="202.07" y2="220" stroke="#e5e7eb" opacity="0.5"/><line x1="283.11" y1="40" x2="283.11" y2="220" stroke="#e5e7eb" opacity="0.5"/><line x1="364.14" y1="40" x2="364.14" y2="220" stroke="#e5e7eb" opacity="0.5"/><line x1="445.18" y1="40" x2="445.18" y2="220" stroke="#e5e7eb" opacity="0.5"/><line x1="526.21" y1="40" x2="526.21" y2="220" stroke="#e5e7eb" opacity="0.5"/><line x1="607.25" y1="40" x2="607.25" y2="220" stroke="#e5e7eb" opacity="0.5"/><line x1="688.28" y1="40" x2="688.28" y2="220" stroke="#e5e7eb" opacity="0.5"/><line x1="769.32" y1="40" x2="769.32" y2="220" stroke="#e5e7eb" opacity="0.5"/><line x1="850.35" y1="40" x2="850.35" y2="220" stroke="#e5e7eb" opacity="0.5"/>
    <line x1="40" y1="220" x2="860" y2="220" stroke="#9ca3af"/>
    <line x1="40" y1="40"   x2="40"   y2="220" stroke="#9ca3af"/>
    <path d="M 40.00 220.00 L 41.93 220.00 L 43.86 219.60 L 45.79 219.62 L 47.72 219.63 L 49.65 219.32 L 51.58 219.31 L 53.51 219.26 L 55.44 218.89 L 57.36 218.89 L 59.29 218.89 L 61.22 218.87 L 63.15 218.87 L 65.08 218.86 L 67.01 218.85 L 68.94 218.85 L 70.87 218.82 L 72.80 218.78 L 74.73 218.72 L 76.66 218.68 L 78.59 218.64 L 80.52 218.59 L 82.45 218.59 L 84.38 218.57 L 86.31 218.57 L 88.24 218.57 L 90.16 218.57 L 92.09 218.57 L 94.02 218.57 L 95.95 218.57 L 97.88 218.57 L 99.81 218.57 L 101.74 218.55 L 103.67 218.54 L 105.60 218.58 L 107.53 218.55 L 109.46 218.55 L 111.39 218.53 L 113.32 218.31 L 115.25 217.94 L 117.18 217.88 L 119.11 217.87 L 121.04 217.86 L 122.96 217.85 L 124.89 217.84 L 126.82 217.85 L 128.75 217.82 L 130.68 217.66 L 132.61 217.61 L 134.54 217.60 L 136.47 217.57 L 138.40 217.56 L 140.33 217.52 L 142.26 217.38 L 144.19 217.24 L 146.12 216.93 L 148.05 216.65 L 149.98 216.44 L 151.91 216.39 L 153.84 216.34 L 155.76 216.83 L 157.69 200.94 L 159.62 200.94 L 161.55 200.95 L 163.48 198.99 L 165.41 198.98 L 167.34 198.94 L 169.27 198.94 L 171.20 198.91 L 173.13 198.90 L 175.06 198.93 L 176.99 198.93 L 178.92 198.99 L 180.85 198.95 L 182.78 198.96 L 184.71 198.95 L 186.64 198.95 L 188.56 198.97 L 190.49 198.97 L 192.42 198.97 L 194.35 198.97 L 196.28 198.97 L 198.21 198.97 L 200.14 198.97 L 202.07 198.97 L 204.00 198.97 L 205.93 198.97 L 207.86 198.97 L 209.79 197.51 L 211.72 197.43 L 213.65 197.40 L 215.58 197.38 L 217.51 197.38 L 219.44 197.49 L 221.36 197.34 L 223.29 197.33 L 225.22 197.18 L 227.15 197.41 L 229.08 197.41 L 231.01 197.29 L 232.94 197.29 L 234.87 197.22 L 236.80 197.21 L 238.73 197.15 L 240.66 196.94 L 242.59 197.00 L 244.52 197.41 L 246.45 197.41 L 248.38 197.30 L 250.31 197.26 L 252.24 197.19 L 254.16 197.19 L 256.09 197.19 L 258.02 197.19 L 259.95 197.18 L 261.88 197.12 L 263.81 197.09 L 265.74 197.04 L 267.67 197.00 L 269.60 196.96 L 271.53 196.92 L 273.46 196.91 L 275.39 196.86 L 277.32 196.80 L 279.25 196.75 L 281.18 196.69 L 283.11 196.66 L 285.04 196.63 L 286.96 196.56 L 288.89 196.51 L 290.82 196.47 L 292.75 196.45 L 294.68 196.40 L 296.61 196.37 L 298.54 196.34 L 300.47 196.28 L 302.40 196.20 L 304.33 196.12 L 306.26 196.02 L 308.19 195.89 L 310.12 195.77 L 312.05 195.68 L 313.98 195.63 L 315.91 195.58 L 317.84 195.53 L 319.76 195.44 L 321.69 195.35 L 323.62 195.22 L 325.55 195.11 L 327.48 194.95 L 329.41 194.82 L 331.34 194.68 L 333.27 194.57 L 335.20 194.55 L 337.13 194.51 L 339.06 194.48 L 340.99 194.44 L 342.92 194.40 L 344.85 194.37 L 346.78 194.34 L 348.71 194.29 L 350.64 194.25 L 352.56 194.23 L 354.49 194.21 L 356.42 194.19 L 358.35 194.16 L 360.28 194.12 L 362.21 194.07 L 364.14 193.99 L 366.07 193.94 L 368.00 193.87 L 369.93 193.80 L 371.86 193.74 L 373.79 193.72 L 375.72 193.70 L 377.65 193.66 L 379.58 193.62 L 381.51 193.56 L 383.44 193.49 L 385.36 193.43 L 387.29 193.35 L 389.22 193.27 L 391.15 193.20 L 393.08 193.14 L 395.01 193.15 L 396.94 193.15 L 398.87 193.15 L 400.80 193.18 L 402.73 193.09 L 404.66 193.07 L 406.59 193.07 L 408.52 193.08 L 410.45 193.00 L 412.38 192.95 L 414.31 192.95 L 416.24 192.95 L 418.16 192.95 L 420.09 192.80 L 422.02 192.73 L 423.95 192.69 L 425.88 192.67 L 427.81 192.67 L 429.74 192.68 L 431.67 192.64 L 433.60 192.63 L 435.53 192.63 L 437.46 190.39 L 439.39 189.96 L 441.32 189.85 L 443.25 189.53 L 445.18 189.52 L 447.11 189.36 L 449.04 187.79 L 450.96 187.36 L 452.89 181.35 L 454.82 181.35 L 456.75 180.72 L 458.68 180.71 L 460.61 180.26 L 462.54 179.68 L 464.47 179.67 L 466.40 178.77 L 468.33 177.57 L 470.26 175.55 L 472.19 174.52 L 474.12 173.86 L 476.05 174.17 L 477.98 173.10 L 479.91 173.10 L 481.84 171.18 L 483.76 168.37 L 485.69 168.37 L 487.62 165.86 L 489.55 163.63 L 491.48 163.63 L 493.41 163.62 L 495.34 162.88 L 497.27 161.06 L 499.20 193.89 L 501.13 193.22 L 503.06 192.73 L 504.99 192.34 L 506.92 189.45 L 508.85 188.03 L 510.78 188.03 L 512.71 180.86 L 514.64 148.96 L 516.56 144.25 L 518.49 176.00 L 520.42 176.17 L 522.35 175.77 L 524.28 175.72 L 526.21 197.26 L 528.14 197.26 L 530.07 197.06 L 532.00 196.44 L 533.93 194.49 L 535.86 194.50 L 537.79 194.49 L 539.72 194.49 L 541.65 194.49 L 543.58 194.48 L 545.51 194.48 L 547.44 194.62 L 549.36 206.08 L 551.29 206.08 L 553.22 206.05 L 555.15 206.04 L 557.08 205.22 L 559.01 204.28 L 560.94 204.28 L 562.87 204.28 L 564.80 200.22 L 566.73 204.28 L 568.66 204.28 L 570.59 204.28 L 572.52 198.60 L 574.45 198.60 L 576.38 198.60 L 578.31 198.60 L 580.24 193.00 L 582.16 193.00 L 584.09 188.39 L 586.02 188.39 L 587.95 179.75 L 589.88 174.84 L 591.81 173.23 L 593.74 170.37 L 595.67 169.87 L 597.60 153.88 L 599.53 149.24 L 601.46 152.04 L 603.39 141.93 L 605.32 141.88 L 607.25 141.69 L 609.18 141.69 L 611.11 141.76 L 613.04 141.75 L 614.96 140.68 L 616.89 141.38 L 618.82 141.36 L 620.75 141.83 L 622.68 141.39 L 624.61 141.39 L 626.54 141.52 L 628.47 141.52 L 630.40 141.53 L 632.33 142.33 L 634.26 141.73 L 636.19 141.68 L 638.12 141.68 L 640.05 141.66 L 641.98 141.67 L 643.91 141.65 L 645.84 139.51 L 647.76 136.07 L 649.69 136.04 L 651.62 133.43 L 653.55 131.89 L 655.48 131.13 L 657.41 131.51 L 659.34 131.50 L 661.27 131.57 L 663.20 131.56 L 665.13 131.49 L 667.06 131.49 L 668.99 131.49 L 670.92 131.49 L 672.85 131.49 L 674.78 131.49 L 676.71 131.49 L 678.64 131.49 L 680.56 131.49 L 682.49 131.49 L 684.42 131.49 L 686.35 131.49 L 688.28 131.49 L 690.21 131.49 L 692.14 131.49 L 694.07 131.49 L 696.00 131.49 L 697.93 131.49 L 699.86 131.49 L 701.79 131.49 L 703.72 131.49 L 705.65 131.49 L 707.58 131.49 L 709.51 131.49 L 711.44 131.49 L 713.36 131.49 L 715.29 131.49 L 717.22 131.49 L 719.15 131.49 L 721.08 131.49 L 723.01 131.49 L 724.94 131.49 L 726.87 131.49 L 728.80 131.49 L 730.73 131.49 L 732.66 131.49 L 734.59 131.49 L 736.52 131.49 L 738.45 131.49 L 740.38 131.49 L 742.31 131.49 L 744.24 131.49 L 746.16 131.49 L 748.09 131.49 L 750.02 131.49 L 751.95 131.49 L 753.88 131.49 L 755.81 131.49 L 757.74 131.49 L 759.67 131.49 L 761.60 131.49 L 763.53 131.49 L 765.46 131.49 L 767.39 131.49 L 769.32 131.49 L 771.25 131.49 L 773.18 131.49 L 775.11 131.49 L 777.04 131.49 L 778.96 131.49 L 780.89 131.49 L 782.82 131.49 L 784.75 131.49 L 786.68 131.49 L 788.61 131.49 L 790.54 131.49 L 792.47 131.49 L 794.40 131.49 L 796.33 131.49 L 798.26 131.49 L 800.19 131.49 L 802.12 131.49 L 804.05 131.49 L 805.98 131.49 L 807.91 131.49 L 809.84 131.49 L 811.76 131.49 L 813.69 131.49 L 815.62 131.49 L 817.55 131.49 L 819.48 131.49 L 821.41 131.49 L 823.34 131.49 L 825.27 131.49 L 827.20 131.49 L 829.13 131.49 L 831.06 131.49 L 832.99 131.49 L 834.92 131.49 L 836.85 131.49 L 838.78 131.49 L 840.71 131.49 L 842.64 131.49 L 844.56 131.49 L 846.49 131.49 L 848.42 131.49 L 850.35 131.49 L 852.28 131.49 L 854.21 131.49 L 856.14 131.49 L 858.07 131.49 L 860.00 131.49" fill="none" stroke="#111827" stroke-width="2"/>
    <circle cx="860.00" cy="131.49" r="3" fill="#111827"/>
    <text x="40.00" y="235.00" font-size="9" fill="#111827" text-anchor="middle" transform="rotate(-45 40.00 235.00)">27.09.2025</text><text x="121.04" y="235.00" font-size="9" fill="#111827" text-anchor="middle" transform="rotate(-45 121.04 235.00)">28.09.2025</text><text x="202.07" y="235.00" font-size="9" fill="#111827" text-anchor="middle" transform="rotate(-45 202.07 235.00)">29.09.2025</text><text x="283.11" y="235.00" font-size="9" fill="#111827" text-anchor="middle" transform="rotate(-45 283.11 235.00)">04.10.2025</text><text x="364.14" y="235.00" font-size="9" fill="#111827" text-anchor="middle" transform="rotate(-45 364.14 235.00)">04.10.2025</text><text x="445.18" y="235.00" font-size="9" fill="#111827" text-anchor="middle" transform="rotate(-45 445.18 235.00)">04.10.2025</text><text x="526.21" y="235.00" font-size="9" fill="#111827" text-anchor="middle" transform="rotate(-45 526.21 235.00)">05.10.2025</text><text x="607.25" y="235.00" font-size="9" fill="#111827" text-anchor="middle" transform="rotate(-45 607.25 235.00)">08.10.2025</text><text x="688.28" y="235.00" font-size="9" fill="#111827" text-anchor="middle" transform="rotate(-45 688.28 235.00)">21.10.2025</text><text x="769.32" y="235.00" font-size="9" fill="#111827" text-anchor="middle" transform="rotate(-45 769.32 235.00)">02.12.2025</text><text x="850.35" y="235.00" font-size="9" fill="#111827" text-anchor="middle" transform="rotate(-45 850.35 235.00)">13.01.2026</text>
  </g>
</svg>