<svg xmlns="http://www.w3.org/2000/svg" width="900" height="290" style="font-family: -apple-system, BlinkMacSystemFont, 'Segoe UI', Helvetica, Arial, sans-serif;">
  <rect width="100%" height="100%" fill="#0d1117"/>
  <g>
    <line x1="40" y1="220.00" x2="860" y2="220.00" stroke="#30363d"/><text x="32" y="224.00" font-size="10" fill="#c9d1d9" text-anchor="end">0</text><line x1="40" y1="175.00" x2="860" y2="175.00" stroke="#30363d"/><text x="32" y="179.00" font-size="10" fill="#c9d1d9" text-anchor="end">25k</text><line x1="40" y1="130.00" x2="860" y2="130.00" stroke="#30363d"/><text x="32" y="134.00" font-size="10" fill="#c9d1d9" text-anchor="end">50k</text><line x1="40" y1="85.00" x2="860" y2="85.00" stroke="#30363d"/><text x="32" y="89.00" font-size="10" fill="#c9d1d9" text-anchor="end">75k</text><line x1="40" y1="40.00" x2="860" y2="40.00" stroke="#30363d"/><text x="32" y="44.00" font-size="10" fill="#c9d1d9" text-anchor="end">100k</text>
    <line x1="40.00" y1="40" x2="40.00" y2="220" stroke="#30363d" opacity="0.5"/><line x1="121.42" y1="40" x2="121.42" y2="220" stroke="#30363d" opacity="0.5"/><line x1="202.84" y1="40" x2="202.84" y2="220" stroke="#30363d" opacity="0.5"/><line x1="284.26" y1="40" x2="284.26" y2="220" stroke="#30363d" opacity="0.5"/><line x1="365.67" y1="40" x2="365.67" y2="220" stroke="#30363d" opacity="0.5"/><line x1="447.09" y1="40" x2="447.09" y2="220" stroke="#30363d" opacity="0.5"/><line x1="528.51" y1="40" x2="528.51" y2="220" stroke="#30363d" opacity="0.5"/><line x1="609.93" y1="40" x2="609.93" y2="220" stroke="#30363d" opacity="0.5"/><line x1="691.35" y1="40" x2="691.35" y2="220" stroke="#30363d" opacity="0.5"/><line x1="772.77" y1="40" x2="772.77" y2="220" stroke="#30363d" opacity="0.5"/><line x1="854.18" y1="40" x2="854.18" y2="220" stroke="#30363d" opacity="0.5"/>
    <line x1="40" y1="220" x2="860" y2="220" stroke="#30363d"/>
    <line x1="40" y1="40"   x2="40"   y2="220" stroke="#30363d"/>
    <path d="M 40.00 220.00 L 41.94 220.00 L 43.88 219.60 L 45.82 219.62 L 47.75 219.63 L 49.69 219.32 L 51.63 219.31 L 53.57 219.26 L 55.51 218.89 L 57.45 218.89 L 59.39 218.89 L 61.32 218.87 L 63.26 218.87 L 65.20 218.86 L 67.14 218.85 L 69.08 218.85 L 71.02 218.82 L 72.96 218.78 L 74.89 218.72 L 76.83 218.68 L 78.77 218.64 L 80.71 218.59 L 82.65 218.59 L 84.59 218.57 L 86.52 218.57 L 88.46 218.57 L 90.40 218.57 L 92.34 218.57 L 94.28 218.57 L 96.22 218.57 L 98.16 218.57 L 100.09 218.57 L 102.03 218.55 L 103.97 218.54 L 105.91 218.58 L 107.85 218.55 L 109.79 218.55 L 111.73 218.53 L 113.66 218.31 L 115.60 217.94 L 117.54 217.88 L 119.48 217.87 L 121.42 217.86 L 123.36 217.85 L 125.30 217.84 L 127.23 217.85 L 129.17 217.82 L 131.11 217.66 L 133.05 217.61 L 134.99 217.60 L 136.93 217.57 L 138.87 217.56 L 140.80 217.52 L 142.74 217.38 L 144.68 217.24 L 146.62 216.93 L 148.56 216.65 L 150.50 216.44 L 152.43 216.39 L 154.37 216.34 L 156.31 216.83 L 158.25 200.94 L 160.19 200.94 L 162.13 200.95 L 164.07 198.99 L 166.00 198.98 L 167.94 198.94 L 169.88 198.94 L 171.82 198.91 L 173.76 198.90 L 175.70 198.93 L 177.64 198.93 L 179.57 198.99 L 181.51 198.95 L 183.45 198.96 L 185.39 198.95 L 187.33 198.95 L 189.27 198.97 L 191.21 198.97 L 193.14 198.97 L 195.08 198.97 L 197.02 198.97 L 198.96 198.97 L 200.90 198.97 L 202.84 198.97 L 204.78 198.97 L 206.71 198.97 L 208.65 198.97 L 210.59 197.51 L 212.53 197.43 L 214.47 197.40 L 216.41 197.38 L 218.35 197.38 L 220.28 197.49 L 222.22 197.34 L 224.16 197.33 L 226.10 197.18 L 228.04 197.41 L 229.98 197.41 L 231.91 197.29 L 233.85 197.29 L 235.79 197.22 L 237.73 197.21 L 239.67 197.15 L 241.61 196.94 L 243.55 197.00 L 245.48 197.41 L 247.42 197.41 L 249.36 197.30 L 251.30 197.26 L 253.24 197.19 L 255.18 197.19 L 257.12 197.19 L 259.05 197.19 L 260.99 197.18 L 262.93 197.12 L 264.87 197.09 L 266.81 197.04 L 268.75 197.00 L 270.69 196.96 L 272.62 196.92 L 274.56 196.91 L 276.50 196.86 L 278.44 196.80 L 280.38 196.75 L 282.32 196.69 L 284.26 196.66 L 286.19 196.63 L 288.13 196.56 L 290.07 196.51 L 292.01 196.47 L 293.95 196.45 L 295.89 196.40 L 297.83 196.37 L 299.76 196.34 L 301.70 196.28 L 303.64 196.20 L 305.58 196.12 L 307.52 196.02 L 309.46 195.89 L 311.39 195.77 L 313.33 195.68 L 315.27 195.63 L 317.21 195.58 L 319.15 195.53 L 321.09 195.44 L 323.03 195.35 L 324.96 195.22 L 326.90 195.11 L 328.84 194.95 L 330.78 194.82 L 332.72 194.68 L 334.66 194.57 L 336.60 194.55 L 338.53 194.51 L 340.47 194.48 L 342.41 194.44 L 344.35 194.40 L 346.29 194.37 L 348.23 194.34 L 350.17 194.29 L 352.10 194.25 L 354.04 194.23 L 355.98 194.21 L 357.92 194.19 L 359.86 194.16 L 361.80 194.12 L 363.74 194.07 L 365.67 193.99 L 367.61 193.94 L 369.55 193.87 L 371.49 193.80 L 373.43 193.74 L 375.37 193.72 L 377.30 193.70 L 379.24 193.66 L 381.18 193.62 L 383.12 193.56 L 385.06 193.49 L 387.00 193.43 L 388.94 193.35 L 390.87 193.27 L 392.81 193.20 L 394.75 193.14 L 396.69 193.15 L 398.63 193.15 L 400.57 193.15 L 402.51 193.18 L 404.44 193.09 L 406.38 193.07 L 408.32 193.07 L 410.26 193.08 L 412.20 193.00 L 414.14 192.95 L 416.08 192.95 L 418.01 192.95 L 419.95 192.95 L 421.89 192.80 L 423.83 192.73 L 425.77 192.69 L 427.71 192.67 L 429.65 192.67 L 431.58 192.68 L 433.52 192.64 L 435.46 192.63 L 437.40 192.63 L 439.34 190.39 L 441.28 189.96 L 443.22 189.85 L 445.15 189.53 L 447.09 189.52 L 449.03 189.36 L 450.97 187.79 L 452.91 187.36 L 454.85 181.35 L 456.78 181.35 L 458.72 180.72 L 460.66 180.71 L 462.60 180.26 L 464.54 179.68 L 466.48 179.67 L 468.42 178.77 L 470.35 177.57 L 472.29 175.55 L 474.23 174.52 L 476.17 173.86 L 478.11 174.17 L 480.05 173.10 L 481.99 173.10 L 483.92 171.18 L 485.86 168.37 L 487.80 168.37 L 489.74 165.86 L 491.68 163.63 L 493.62 163.63 L 495.56 163.62 L 497.49 162.88 L 499.43 161.06 L 501.37 193.89 L 503.31 193.22 L 505.25 192.73 L 507.19 192.34 L 509.13 189.45 L 511.06 188.03 L 513.00 188.03 L 514.94 180.86 L 516.88 148.96 L 518.82 144.25 L 520.76 176.00 L 522.70 176.17 L 524.63 175.77 L 526.57 175.72 L 528.51 197.26 L 530.45 197.26 L 532.39 197.06 L 534.33 196.44 L 536.26 194.49 L 538.20 194.50 L 540.14 194.49 L 542.08 194.49 L 544.02 194.49 L 545.96 194.48 L 547.90 194.48 L 549.83 194.62 L 551.77 206.08 L 553.71 206.08 L 555.65 206.05 L 557.59 206.04 L 559.53 205.22 L 561.47 204.28 L 563.40 204.28 L 565.34 204.28 L 567.28 200.22 L 569.22 204.28 L 571.16 204.28 L 573.10 204.28 L 575.04 198.60 L 576.97 198.60 L 578.91 198.60 L 580.85 198.60 L 582.79 193.00 L 584.73 193.00 L 586.67 188.39 L 588.61 188.39 L 590.54 179.75 L 592.48 174.84 L 594.42 173.23 L 596.36 170.37 L 598.30 169.87 L 600.24 153.88 L 602.17 149.24 L 604.11 152.04 L 606.05 141.93 L 607.99 141.88 L 609.93 141.69 L 611.87 141.69 L 613.81 141.76 L 615.74 141.75 L 617.68 140.68 L 619.62 141.38 L 621.56 141.36 L 623.50 141.83 L 625.44 141.39 L 627.38 141.39 L 629.31 141.52 L 631.25 141.52 L 633.19 141.53 L 635.13 142.33 L 637.07 141.73 L 639.01 141.68 L 640.95 141.68 L 642.88 141.66 L 644.82 141.67 L 646.76 141.65 L 648.70 139.51 L 650.64 136.07 L 652.58 136.04 L 654.52 133.43 L 656.45 131.89 L 658.39 131.13 L 660.33 131.51 L 662.27 131.50 L 664.21 131.57 L 666.15 131.56 L 668.09 131.49 L 670.02 131.49 L 671.96 131.49 L 673.90 131.49 L 675.84 131.49 L 677.78 131.49 L 679.72 131.49 L 681.65 131.49 L 683.59 131.49 L 685.53 131.49 L 687.47 131.49 L 689.41 131.49 L 691.35 131.49 L 693.29 131.49 L 695.22 131.49 L 697.16 131.49 L 699.10 131.49 L 701.04 131.49 L 702.98 131.49 L 704.92 131.49 L 706.86 131.49 L 708.79 131.49 L 710.73 131.49 L 712.67 131.49 L 714.61 131.49 L 716.55 131.49 L 718.49 131.49 L 720.43 131.49 L 722.36 131.49 L 724.30 131.49 L 726.24 131.49 L 728.18 131.49 L 730.12 131.49 L 732.06 131.49 L 734.00 131.49 L 735.93 131.49 L 737.87 131.49 L 739.81 131.49 L 741.75 131.49 L 743.69 131.49 L 745.63 131.49 L 747.57 131.49 L 749.50 131.49 L 751.44 131.49 L 753.38 131.49 L 755.32 131.49 L 757.26 131.49 L 759.20 131.49 L 761.13 131.49 L 763.07 131.49 L 765.01 131.49 L 766.95 131.49 L 768.89 131.49 L 770.83 131.49 L 772.77 131.49 L 774.70 131.49 L 776.64 131.49 L 778.58 131.49 L 780.52 131.49 L 782.46 131.49 L 784.40 131.49 L 786.34 131.49 L 788.27 131.49 L 790.21 131.49 L 792.15 131.49 L 794.09 131.49 L 796.03 131.49 L 797.97 131.49 L 799.91 131.49 L 801.84 131.49 L 803.78 131.49 L 805.72 131.49 L 807.66 131.49 L 809.60 131.49 L 811.54 131.49 L 813.48 131.49 L 815.41 131.49 L 817.35 131.49 L 819.29 131.49 L 821.23 131.49 L 823.17 131.49 L 825.11 131.49 L 827.04 131.49 L 828.98 131.49 L 830.92 131.49 L 832.86 131.49 L 834.80 131.49 L 836.74 131.49 L 838.68 131.49 L 840.61 131.49 L 842.55 131.49 L 844.49 131.49 L 846.43 131.49 L 848.37 131.49 L 850.31 131.49 L 852.25 131.49 L 854.18 131.49 L 856.12 131.49 L 858.06 131.49 L 860.00 131.49" fill="none" stroke="#3fb950" stroke-width="2"/>
    <circle cx="860.00" cy="131.49" r="3" fill="#3fb950"/>
    <text x="40.00" y="235.00" font-size="9" fill="#c9d1d9" text-anchor="middle" transform="rotate(-45 40.00 235.00)">27.09.2025</text><text x="121.42" y="235.00" font-size="9" fill="#c9d1d9" text-anchor="middle" transform="rotate(-45 121.42 235.00)">28.09.2025</text><text x="202.84" y="235.00" font-size="9" fill="#c9d1d9" text-anchor="middle" transform="rotate(-45 202.84 235.00)">29.09.2025</text><text x="284.26" y="235.00" font-size="9" fill="#c9d1d9" text-anchor="middle" transform="rotate(-45 284.26 235.00)">04.10.2025</text><text x="365.67" y="235.00" font-size="9" fill="#c9d1d9" text-anchor="middle" transform="rotate(-45 365.67 235.00)">04.10.2025</text><text x="447.09" y="235.00" font-size="9" fill="#c9d1d9" text-anchor="middle" transform="rotate(-45 447.09 235.00)">04.10.2025</text><text x="528.51" y="235.00" font-size="9" fill="#c9d1d9" text-anchor="middle" transform="rotate(-45 528.51 235.00)">05.10.2025</text><text x="609.93" y="235.00" font-size="9" fill="#c9d1d9" text-anchor="middle" transform="rotate(-45 609.93 235.00)">08.10.2025</text><text x="691.35" y="235.00" font-size="9" fill="#c9d1d9" text-anchor="middle" transform="rotate(-45 691.35 235.00)">21.10.2025</text><text x="772.77" y="235.00" font-size="9" fill="#c9d1d9" text-anchor="middle" transform="rotate(-45 772.77 235.00)">02.12.2025</text><text x="854.18" y="235.00" font-size="9" fill="#c9d1d9" text-anchor="middle" transform="rotate(-45 854.18 235.00)">13.01.2026</text>
  </g>
</svg>