<svg xmlns="http://www.w3.org/2000/svg" width="900" height="290" style="font-family: -apple-system, BlinkMacSystemFont, 'Segoe UI', Helvetica, Arial, sans-serif;">
  <rect width="100%" height="100%" fill="#0d1117"/>
  <g>
    <line x1="40" y1="220.00" x2="860" y2="220.00" stroke="#30363d"/><text x="32" y="224.00" font-size="10" fill="#c9d1d9" text-anchor="end">0</text><line x1="40" y1="175.00" x2="860" y2="175.00" stroke="#30363d"/><text x="32" y="179.00" font-size="10" fill="#c9d1d9" text-anchor="end">25k</text><line x1="40" y1="130.00" x2="860" y2="130.00" stroke="#30363d"/><text x="32" y="134.00" font-size="10" fill="#c9d1d9" text-anchor="end">50k</text><line x1="40" y1="85.00" x2="860" y2="85.00" stroke="#30363d"/><text x="32" y="89.00" font-size="10" fill="#c9d1d9" text-anchor="end">75k</text><line x1="40" y1="40.00" x2="860" y2="40.00" stroke="#30363d"/><text x="32" y="44.00" font-size="10" fill="#c9d1d9" text-anchor="end">100k</text>
    <line x1="40.00" y1="40" x2="40.00" y2="220" stroke="#30363d" opacity="0.5"/><line x1="122.20" y1="40" x2="122.20" y2="220" stroke="#30363d" opacity="0.5"/><line x1="204.39" y1="40" x2="204.39" y2="220" stroke="#30363d" opacity="0.5"/><line x1="286.59" y1="40" x2="286.59" y2="220" stroke="#30363d" opacity="0.5"/><line x1="368.78" y1="40" x2="368.78" y2="220" stroke="#30363d" opacity="0.5"/><line x1="450.98" y1="40" x2="450.98" y2="220" stroke="#30363d" opacity="0.5"/><line x1="533.17" y1="40" x2="533.17" y2="220" stroke="#30363d" opacity="0.5"/><line x1="615.37" y1="40" x2="615.37" y2="220" stroke="#30363d" opacity="0.5"/><line x1="697.57" y1="40" x2="697.57" y2="220" stroke="#30363d" opacity="0.5"/><line x1="779.76" y1="40" x2="779.76" y2="220" stroke="#30363d" opacity="0.5"/>
    <line x1="40" y1="220" x2="860" y2="220" stroke="#30363d"/>
    <line x1="40" y1="40"   x2="40"   y2="220" stroke="#30363d"/>
    <path d="M 40.00 220.00 L 41.96 220.00 L 43.91 219.60 L 45.87 219.62 L 47.83 219.63 L 49.79 219.32 L 51.74 219.31 L 53.70 219.26 L 55.66 218.89 L 57.61 218.89 L 59.57 218.89 L 61.53 218.87 L 63.48 218.87 L 65.44 218.86 L 67.40 218.85 L 69.36 218.85 L 71.31 218.82 L 73.27 218.78 L 75.23 218.72 L 77.18 218.68 L 79.14 218.64 L 81.10 218.59 L 83.05 218.59 L 85.01 218.57 L 86.97 218.57 L 88.93 218.57 L 90.88 218.57 L 92.84 218.57 L 94.80 218.57 L 96.75 218.57 L 98.71 218.57 L 100.67 218.57 L 102.63 218.55 L 104.58 218.54 L 106.54 218.58 L 108.50 218.55 L 110.45 218.55 L 112.41 218.53 L 114.37 218.31 L 116.32 217.94 L 118.28 217.88 L 120.24 217.87 L 122.20 217.86 L 124.15 217.85 L 126.11 217.84 L 128.07 217.85 L 130.02 217.82 L 131.98 217.66 L 133.94 217.61 L 135.89 217.60 L 137.85 217.57 L 139.81 217.56 L 141.77 217.52 L 143.72 217.38 L 145.68 217.24 L 147.64 216.93 L 149.59 216.65 L 151.55 216.44 L 153.51 216.39 L 155.47 216.34 L 157.42 216.83 L 159.38 200.94 L 161.34 200.94 L 163.29 200.95 L 165.25 198.99 L 167.21 198.98 L 169.16 198.94 L 171.12 198.94 L 173.08 198.91 L 175.04 198.90 L 176.99 198.93 L 178.95 198.93 L 180.91 198.99 L 182.86 198.95 L 184.82 198.96 L 186.78 198.95 L 188.74 198.95 L 190.69 198.97 L 192.65 198.97 L 194.61 198.97 L 196.56 198.97 L 198.52 198.97 L 200.48 198.97 L 202.43 198.97 L 204.39 198.97 L 206.35 198.97 L 208.31 198.97 L 210.26 198.97 L 212.22 197.51 L 214.18 197.43 L 216.13 197.40 L 218.09 197.38 L 220.05 197.38 L 222.00 197.49 L 223.96 197.34 L 225.92 197.33 L 227.88 197.18 L 229.83 197.41 L 231.79 197.41 L 233.75 197.29 L 235.70 197.29 L 237.66 197.22 L 239.62 197.21 L 241.58 197.15 L 243.53 196.94 L 245.49 197.00 L 247.45 197.41 L 249.40 197.41 L 251.36 197.30 L 253.32 197.26 L 255.27 197.19 L 257.23 197.19 L 259.19 197.19 L 261.15 197.19 L 263.10 197.18 L 265.06 197.12 L 267.02 197.09 L 268.97 197.04 L 270.93 197.00 L 272.89 196.96 L 274.84 196.92 L 276.80 196.91 L 278.76 196.86 L 280.72 196.80 L 282.67 196.75 L 284.63 196.69 L 286.59 196.66 L 288.54 196.63 L 290.50 196.56 L 292.46 196.51 L 294.42 196.47 L 296.37 196.45 L 298.33 196.40 L 300.29 196.37 L 302.24 196.34 L 304.20 196.28 L 306.16 196.20 L 308.11 196.12 L 310.07 196.02 L 312.03 195.89 L 313.99 195.77 L 315.94 195.68 L 317.90 195.63 L 319.86 195.58 L 321.81 195.53 L 323.77 195.44 L 325.73 195.35 L 327.68 195.22 L 329.64 195.11 L 331.60 194.95 L 333.56 194.82 L 335.51 194.68 L 337.47 194.57 L 339.43 194.55 L 341.38 194.51 L 343.34 194.48 L 345.30 194.44 L 347.26 194.40 L 349.21 194.37 L 351.17 194.34 L 353.13 194.29 L 355.08 194.25 L 357.04 194.23 L 359.00 194.21 L 360.95 194.19 L 362.91 194.16 L 364.87 194.12 L 366.83 194.07 L 368.78 193.99 L 370.74 193.94 L 372.70 193.87 L 374.65 193.80 L 376.61 193.74 L 378.57 193.72 L 380.53 193.70 L 382.48 193.66 L 384.44 193.62 L 386.40 193.56 L 388.35 193.49 L 390.31 193.43 L 392.27 193.35 L 394.22 193.27 L 396.18 193.20 L 398.14 193.14 L 400.10 193.15 L 402.05 193.15 L 404.01 193.15 L 405.97 193.18 L 407.92 193.09 L 409.88 193.07 L 411.84 193.07 L 413.79 193.08 L 415.75 193.00 L 417.71 192.95 L 419.67 192.95 L 421.62 192.95 L 423.58 192.95 L 425.54 192.80 L 427.49 192.73 L 429.45 192.69 L 431.41 192.67 L 433.37 192.67 L 435.32 192.68 L 437.28 192.64 L 439.24 192.63 L 441.19 192.63 L 443.15 190.39 L 445.11 189.96 L 447.06 189.85 L 449.02 189.53 L 450.98 189.52 L 452.94 189.36 L 454.89 187.79 L 456.85 187.36 L 458.81 181.35 L 460.76 181.35 L 462.72 180.72 L 464.68 180.71 L 466.63 180.26 L 468.59 179.68 L 470.55 179.67 L 472.51 178.77 L 474.46 177.57 L 476.42 175.55 L 478.38 174.52 L 480.33 173.86 L 482.29 174.17 L 484.25 173.10 L 486.21 173.10 L 488.16 171.18 L 490.12 168.37 L 492.08 168.37 L 494.03 165.86 L 495.99 163.63 L 497.95 163.63 L 499.90 163.62 L 501.86 162.88 L 503.82 161.06 L 505.78 193.89 L 507.73 193.22 L 509.69 192.73 L 511.65 192.34 L 513.60 189.45 L 515.56 188.03 L 517.52 188.03 L 519.47 180.86 L 521.43 148.96 L 523.39 144.25 L 525.35 176.00 L 527.30 176.17 L 529.26 175.77 L 531.22 175.72 L 533.17 197.26 L 535.13 197.26 L 537.09 197.06 L 539.05 196.44 L 541.00 194.49 L 542.96 194.50 L 544.92 194.49 L 546.87 194.49 L 548.83 194.49 L 550.79 194.48 L 552.74 194.48 L 554.70 194.62 L 556.66 206.08 L 558.62 206.08 L 560.57 206.05 L 562.53 206.04 L 564.49 205.22 L 566.44 204.28 L 568.40 204.28 L 570.36 204.28 L 572.32 200.22 L 574.27 204.28 L 576.23 204.28 L 578.19 204.28 L 580.14 198.60 L 582.10 198.60 L 584.06 198.60 L 586.01 198.60 L 587.97 193.00 L 589.93 193.00 L 591.89 188.39 L 593.84 188.39 L 595.80 179.75 L 597.76 174.84 L 599.71 173.23 L 601.67 170.37 L 603.63 169.87 L 605.58 153.88 L 607.54 149.24 L 609.50 152.04 L 611.46 141.93 L 613.41 141.88 L 615.37 141.69 L 617.33 141.69 L 619.28 141.76 L 621.24 141.75 L 623.20 140.68 L 625.16 141.38 L 627.11 141.36 L 629.07 141.83 L 631.03 141.39 L 632.98 141.39 L 634.94 141.52 L 636.90 141.52 L 638.85 141.53 L 640.81 142.33 L 642.77 141.73 L 644.73 141.68 L 646.68 141.68 L 648.64 141.66 L 650.60 141.67 L 652.55 141.65 L 654.51 139.51 L 656.47 136.07 L 658.42 136.04 L 660.38 133.43 L 662.34 131.89 L 664.30 131.13 L 666.25 131.51 L 668.21 131.50 L 670.17 131.57 L 672.12 131.56 L 674.08 131.49 L 676.04 131.49 L 678.00 131.49 L 679.95 131.49 L 681.91 131.49 L 683.87 131.49 L 685.82 131.49 L 687.78 131.49 L 689.74 131.49 L 691.69 131.49 L 693.65 131.49 L 695.61 131.49 L 697.57 131.49 L 699.52 131.49 L 701.48 131.49 L 703.44 131.49 L 705.39 131.49 L 707.35 131.49 L 709.31 131.49 L 711.26 131.49 L 713.22 131.49 L 715.18 131.49 L 717.14 131.49 L 719.09 131.49 L 721.05 131.49 L 723.01 131.49 L 724.96 131.49 L 726.92 131.49 L 728.88 131.49 L 730.84 131.49 L 732.79 131.49 L 734.75 131.49 L 736.71 131.49 L 738.66 131.49 L 740.62 131.49 L 742.58 131.49 L 744.53 131.49 L 746.49 131.49 L 748.45 131.49 L 750.41 131.49 L 752.36 131.49 L 754.32 131.49 L 756.28 131.49 L 758.23 131.49 L 760.19 131.49 L 762.15 131.49 L 764.11 131.49 L 766.06 131.49 L 768.02 131.49 L 769.98 131.49 L 771.93 131.49 L 773.89 131.49 L 775.85 131.49 L 777.80 131.49 L 779.76 131.49 L 781.72 131.49 L 783.68 131.49 L 785.63 131.49 L 787.59 131.49 L 789.55 131.49 L 791.50 131.49 L 793.46 131.49 L 795.42 131.49 L 797.37 131.49 L 799.33 131.49 L 801.29 131.49 L 803.25 131.49 L 805.20 131.49 L 807.16 131.49 L 809.12 131.49 L 811.07 131.49 L 813.03 131.49 L 814.99 131.49 L 816.95 131.49 L 818.90 131.49 L 820.86 131.49 L 822.82 131.49 L 824.77 131.49 L 826.73 131.49 L 828.69 131.49 L 830.64 131.49 L 832.60 131.49 L 834.56 131.49 L 836.52 131.49 L 838.47 131.49 L 840.43 131.49 L 842.39 131.49 L 844.34 131.49 L 846.30 131.49 L 848.26 131.49 L 850.21 131.49 L 852.17 131.49 L 854.13 131.49 L 856.09 131.49 L 858.04 131.49 L 860.00 131.49" fill="none" stroke="#3fb950" stroke-width="2"/>
    <circle cx="860.00" cy="131.49" r="3" fill="#3fb950"/>
    <text x="40.00" y="235.00" font-size="9" fill="#c9d1d9" text-anchor="middle" transform="rotate(-45 40.00 235.00)">27.09.2025</text><text x="122.20" y="235.00" font-size="9" fill="#c9d1d9" text-anchor="middle" transform="rotate(-45 122.20 235.00)">28.09.2025</text><text x="204.39" y="235.00" font-size="9" fill="#c9d1d9" text-anchor="middle" transform="rotate(-45 204.39 235.00)">29.09.2025</text><text x="286.59" y="235.00" font-size="9" fill="#c9d1d9" text-anchor="middle" transform="rotate(-45 286.59 235.00)">04.10.2025</text><text x="368.78" y="235.00" font-size="9" fill="#c9d1d9" text-anchor="middle" transform="rotate(-45 368.78 235.00)">04.10.2025</text><text x="450.98" y="235.00" font-size="9" fill="#c9d1d9" text-anchor="middle" transform="rotate(-45 450.98 235.00)">04.10.2025</text><text x="533.17" y="235.00" font-size="9" fill="#c9d1d9" text-anchor="middle" transform="rotate(-45 533.17 235.00)">05.10.2025</text><text x="615.37" y="235.00" font-size="9" fill="#c9d1d9" text-anchor="middle" transform="rotate(-45 615.37 235.00)">08.10.2025</text><text x="697.57" y="235.00" font-size="9" fill="#c9d1d9" text-anchor="middle" transform="rotate(-45 697.57 235.00)">21.10.2025</text><text x="779.76" y="235.00" font-size="9" fill="#c9d1d9" text-anchor="middle" transform="rotate(-45 779.76 235.00)">02.12.2025</text>
  </g>
</svg>