<svg xmlns="http://www.w3.org/2000/svg" width="900" height="290" style="font-family: -apple-system, BlinkMacSystemFont, 'Segoe UI', Helvetica, Arial, sans-serif;">
  <rect width="100%" height="100%" fill="white"/>
  <g>
    <line x1="40" y1="220.00" x2="860" y2="220.00" stroke="#e5e7eb"/><text x="32" y="224.00" font-size="10" fill="#111827" text-anchor="end">0</text><line x1="40" y1="175.00" x2="860" y2="175.00" stroke="#e5e7eb"/><text x="32" y="179.00" font-size="10" fill="#111827" text-anchor="end">25k</text><line x1="40" y1="130.00" x2="860" y2="130.00" stroke="#e5e7eb"/><text x="32" y="134.00" font-size="10" fill="#111827" text-anchor="end">50k</text><line x1="40" y1="85.00" x2="860" y2="85.00" stroke="#e5e7eb"/><text x="32" y="89.00" font-size="10" fill="#111827" text-anchor="end">75k</text><line x1="40" y1="40.00" x2="860" y2="40.00" stroke="#e5e7eb"/><text x="32" y="44.00" font-size="10" fill="#111827" text-anchor="end">100k</text>
    <line x1="40.00" y1="40" x2="40.00" y2="220" stroke="#e5e7eb" opacity="0.5"/><line x1="120.76" y1="40" x2="120.76" y2="220" stroke="#e5e7eb" opacity="0.5"/><line x1="201.52" y1="40" x2="201.52" y2="220" stroke="#e5e7eb" opacity="0.5"/><line x1="282.27" y1="40" x2="282.27" y2="220" stroke="#e5e7eb" opacity="0.5"/><line x1="363.03" y1="40" x2="363.03" y2="220" stroke="#e5e7eb" opacity="0.5"/><line x1="443.79" y1="40" x2="443.79" y2="220" stroke="#e5e7eb" opacity="0.5"/><line x1="524.55" y1="40" x2="524.55" y2="220" stroke="#e5e7eb" opacity="0.5"/><line x1="605.30" y1="40" x2="605.30" y2="220" stroke="#e5e7eb" opacity="0.5"/><line x1="686.06" y1="40" x2="686.06" y2="220" stroke="#e5e7eb" opacity="0.5"/><line x1="766.82" y1="40" x2="766.82" y2="220" stroke="#e5e7eb" opacity="0.5"/><line x1="847.58" y1="40" x2="847.58" y2="220" stroke="#e5e7eb" opacity="0.5"/>
    <line x1="40" y1="220" x2="860" y2="220" stroke="#9ca3af"/>
    <line x1="40" y1="40"   x2="40"   y2="220" stroke="#9ca3af"/>
    <path d="M 40.00 220.00 L 42.07 220.00 L 44.14 219.60 L 46.21 219.62 L 48.28 219.63 L 50.35 219.32 L 52.42 219.31 L 54.49 219.26 L 56.57 218.89 L 58.64 218.89 L 60.71 218.89 L 62.78 218.87 L 64.85 218.87 L 66.92 218.86 L 68.99 218.85 L 71.06 218.85 L 73.13 218.82 L 75.20 218.78 L 77.27 218.72 L 79.34 218.68 L 81.41 218.64 L 83.48 218.59 L 85.56 218.59 L 87.63 218.57 L 89.70 218.57 L 91.77 218.57 L 93.84 218.57 L 95.91 218.57 L 97.98 218.57 L 100.05 218.57 L 102.12 218.57 L 104.19 218.57 L 106.26 218.55 L 108.33 218.54 L 110.40 218.58 L 112.47 218.55 L 114.55 218.55 L 116.62 218.53 L 118.69 218.31 L 120.76 217.94 L 122.83 217.88 L 124.90 217.87 L 126.97 217.86 L 129.04 217.85 L 131.11 217.84 L 133.18 217.85 L 135.25 217.82 L 137.32 217.66 L 139.39 217.61 L 141.46 217.60 L 143.54 217.57 L 145.61 217.56 L 147.68 217.52 L 149.75 217.38 L 151.82 217.24 L 153.89 216.93 L 155.96 216.65 L 158.03 216.44 L 160.10 216.39 L 162.17 216.34 L 164.24 216.83 L 166.31 200.94 L 168.38 200.94 L 170.45 200.95 L 172.53 198.99 L 174.60 198.98 L 176.67 198.94 L 178.74 198.94 L 180.81 198.91 L 182.88 198.90 L 184.95 198.93 L 187.02 198.93 L 189.09 198.99 L 191.16 198.95 L 193.23 198.96 L 195.30 198.95 L 197.37 198.95 L 199.44 198.97 L 201.52 198.97 L 203.59 198.97 L 205.66 198.97 L 207.73 198.97 L 209.80 198.97 L 211.87 198.97 L 213.94 198.97 L 216.01 198.97 L 218.08 198.97 L 220.15 198.97 L 222.22 197.51 L 224.29 197.43 L 226.36 197.40 L 228.43 197.38 L 230.51 197.38 L 232.58 197.49 L 234.65 197.34 L 236.72 197.33 L 238.79 197.18 L 240.86 197.41 L 242.93 197.41 L 245.00 197.29 L 247.07 197.29 L 249.14 197.22 L 251.21 197.21 L 253.28 197.15 L 255.35 196.94 L 257.42 197.00 L 259.49 197.41 L 261.57 197.41 L 263.64 197.30 L 265.71 197.26 L 267.78 197.19 L 269.85 197.19 L 271.92 197.19 L 273.99 197.19 L 276.06 197.18 L 278.13 197.12 L 280.20 197.09 L 282.27 197.04 L 284.34 197.00 L 286.41 196.96 L 288.48 196.92 L 290.56 196.91 L 292.63 196.86 L 294.70 196.80 L 296.77 196.75 L 298.84 196.69 L 300.91 196.66 L 302.98 196.63 L 305.05 196.56 L 307.12 196.51 L 309.19 196.47 L 311.26 196.45 L 313.33 196.40 L 315.40 196.37 L 317.47 196.34 L 319.55 196.28 L 321.62 196.20 L 323.69 196.12 L 325.76 196.02 L 327.83 195.89 L 329.90 195.77 L 331.97 195.68 L 334.04 195.63 L 336.11 195.58 L 338.18 195.53 L 340.25 195.44 L 342.32 195.35 L 344.39 195.22 L 346.46 195.11 L 348.54 194.95 L 350.61 194.82 L 352.68 194.68 L 354.75 194.57 L 356.82 194.55 L 358.89 194.51 L 360.96 194.48 L 363.03 194.44 L 365.10 194.40 L 367.17 194.37 L 369.24 194.34 L 371.31 194.29 L 373.38 194.25 L 375.45 194.23 L 377.53 194.21 L 379.60 194.19 L 381.67 194.16 L 383.74 194.12 L 385.81 194.07 L 387.88 193.99 L 389.95 193.94 L 392.02 193.87 L 394.09 193.80 L 396.16 193.74 L 398.23 193.72 L 400.30 193.70 L 402.37 193.66 L 404.44 193.62 L 406.52 193.56 L 408.59 193.49 L 410.66 193.43 L 412.73 193.35 L 414.80 193.27 L 416.87 193.20 L 418.94 193.14 L 421.01 193.15 L 423.08 193.15 L 425.15 193.15 L 427.22 193.18 L 429.29 193.09 L 431.36 193.07 L 433.43 193.07 L 435.51 193.08 L 437.58 193.00 L 439.65 192.95 L 441.72 192.95 L 443.79 192.95 L 445.86 192.95 L 447.93 192.80 L 450.00 192.73 L 452.07 192.69 L 454.14 192.67 L 456.21 192.67 L 458.28 192.68 L 460.35 192.64 L 462.42 192.63 L 464.49 192.63 L 466.57 190.39 L 468.64 189.96 L 470.71 189.85 L 472.78 189.53 L 474.85 189.52 L 476.92 189.36 L 478.99 187.79 L 481.06 187.36 L 483.13 181.35 L 485.20 181.35 L 487.27 180.72 L 489.34 180.71 L 491.41 180.26 L 493.48 179.68 L 495.56 179.67 L 497.63 178.77 L 499.70 177.57 L 501.77 175.55 L 503.84 174.52 L 505.91 173.86 L 507.98 174.17 L 510.05 173.10 L 512.12 173.10 L 514.19 171.18 L 516.26 168.37 L 518.33 168.37 L 520.40 165.86 L 522.47 163.63 L 524.55 163.63 L 526.62 163.62 L 528.69 162.88 L 530.76 161.06 L 532.83 193.89 L 534.90 193.22 L 536.97 192.73 L 539.04 192.34 L 541.11 189.45 L 543.18 188.03 L 545.25 188.03 L 547.32 180.86 L 549.39 148.96 L 551.46 144.25 L 553.54 176.00 L 555.61 176.17 L 557.68 175.77 L 559.75 175.72 L 561.82 197.26 L 563.89 197.26 L 565.96 197.06 L 568.03 196.44 L 570.10 194.49 L 572.17 194.50 L 574.24 194.49 L 576.31 194.49 L 578.38 194.49 L 580.45 194.48 L 582.53 194.48 L 584.60 194.62 L 586.67 206.08 L 588.74 206.08 L 590.81 206.05 L 592.88 206.04 L 594.95 205.22 L 597.02 204.28 L 599.09 204.28 L 601.16 204.28 L 603.23 200.22 L 605.30 204.28 L 607.37 204.28 L 609.44 204.28 L 611.52 198.60 L 613.59 198.60 L 615.66 198.60 L 617.73 198.60 L 619.80 193.00 L 621.87 193.00 L 623.94 188.39 L 626.01 188.39 L 628.08 179.75 L 630.15 174.84 L 632.22 173.23 L 634.29 170.37 L 636.36 169.87 L 638.43 153.88 L 640.51 149.24 L 642.58 152.04 L 644.65 141.93 L 646.72 141.88 L 648.79 141.69 L 650.86 141.69 L 652.93 141.76 L 655.00 141.75 L 657.07 140.68 L 659.14 141.38 L 661.21 141.36 L 663.28 141.83 L 665.35 141.39 L 667.42 141.39 L 669.49 141.52 L 671.57 141.52 L 673.64 141.53 L 675.71 142.33 L 677.78 141.73 L 679.85 141.68 L 681.92 141.68 L 683.99 141.66 L 686.06 141.67 L 688.13 141.65 L 690.20 139.51 L 692.27 136.07 L 694.34 136.04 L 696.41 133.43 L 698.48 131.89 L 700.56 131.13 L 702.63 131.51 L 704.70 131.50 L 706.77 131.57 L 708.84 131.56 L 710.91 131.49 L 712.98 131.49 L 715.05 131.49 L 717.12 131.49 L 719.19 131.49 L 721.26 131.49 L 723.33 131.49 L 725.40 131.49 L 727.47 131.49 L 729.55 131.49 L 731.62 131.49 L 733.69 131.49 L 735.76 131.49 L 737.83 131.49 L 739.90 131.49 L 741.97 131.49 L 744.04 131.49 L 746.11 131.49 L 748.18 131.49 L 750.25 131.49 L 752.32 131.49 L 754.39 131.49 L 756.46 131.49 L 758.54 131.49 L 760.61 131.49 L 762.68 131.49 L 764.75 131.49 L 766.82 131.49 L 768.89 131.49 L 770.96 131.49 L 773.03 131.49 L 775.10 131.49 L 777.17 131.49 L 779.24 131.49 L 781.31 131.49 L 783.38 131.49 L 785.45 131.49 L 787.53 131.49 L 789.60 131.49 L 791.67 131.49 L 793.74 131.49 L 795.81 131.49 L 797.88 131.49 L 799.95 131.49 L 802.02 131.49 L 804.09 131.49 L 806.16 131.49 L 808.23 131.49 L 810.30 131.49 L 812.37 131.49 L 814.44 131.49 L 816.52 131.49 L 818.59 131.49 L 820.66 131.49 L 822.73 131.49 L 824.80 131.49 L 826.87 131.49 L 828.94 131.49 L 831.01 131.49 L 833.08 131.49 L 835.15 131.49 L 837.22 131.49 L 839.29 131.49 L 841.36 131.49 L 843.43 131.49 L 845.51 131.49 L 847.58 131.49 L 849.65 131.49 L 851.72 131.49 L 853.79 131.49 L 855.86 131.49 L 857.93 131.49 L 860.00 131.49" fill="none" stroke="#111827" stroke-width="2"/>
    <circle cx="860.00" cy="131.49" r="3" fill="#111827"/>
    <text x="40.00" y="235.00" font-size="9" fill="#111827" text-anchor="middle" transform="rotate(-45 40.00 235.00)">27.09.2025</text><text x="120.76" y="235.00" font-size="9" fill="#111827" text-anchor="middle" transform="rotate(-45 120.76 235.00)">28.09.2025</text><text x="201.52" y="235.00" font-size="9" fill="#111827" text-anchor="middle" transform="rotate(-45 201.52 235.00)">29.09.2025</text><text x="282.27" y="235.00" font-size="9" fill="#111827" text-anchor="middle" transform="rotate(-45 282.27 235.00)">04.10.2025</text><text x="363.03" y="235.00" font-size="9" fill="#111827" text-anchor="middle" transform="rotate(-45 363.03 235.00)">04.10.2025</text><text x="443.79" y="235.00" font-size="9" fill="#111827" text-anchor="middle" transform="rotate(-45 443.79 235.00)">04.10.2025</text><text x="524.55" y="235.00" font-size="9" fill="#111827" text-anchor="middle" transform="rotate(-45 524.55 235.00)">04.10.2025</text><text x="605.30" y="235.00" font-size="9" fill="#111827" text-anchor="middle" transform="rotate(-45 605.30 235.00)">07.10.2025</text><text x="686.06" y="235.00" font-size="9" fill="#111827" text-anchor="middle" transform="rotate(-45 686.06 235.00)">09.10.2025</text><text x="766.82" y="235.00" font-size="9" fill="#111827" text-anchor="middle" transform="rotate(-45 766.82 235.00)">05.11.2025</text><text x="847.58" y="235.00" font-size="9" fill="#111827" text-anchor="middle" transform="rotate(-45 847.58 235.00)">14.12.2025</text>
  </g>
</svg>