<svg xmlns="http://www.w3.org/2000/svg" width="900" height="290" style="font-family: -apple-system, BlinkMacSystemFont, 'Segoe UI', Helvetica, Arial, sans-serif;">
  <rect width="100%" height="100%" fill="#0d1117"/>
  <g>
    <line x1="40" y1="220.00" x2="860" y2="220.00" stroke="#30363d"/><text x="32" y="224.00" font-size="10" fill="#c9d1d9" text-anchor="end">0</text><line x1="40" y1="175.00" x2="860" y2="175.00" stroke="#30363d"/><text x="32" y="179.00" font-size="10" fill="#c9d1d9" text-anchor="end">25k</text><line x1="40" y1="130.00" x2="860" y2="130.00" stroke="#30363d"/><text x="32" y="134.00" font-size="10" fill="#c9d1d9" text-anchor="end">50k</text><line x1="40" y1="85.00" x2="860" y2="85.00" stroke="#30363d"/><text x="32" y="89.00" font-size="10" fill="#c9d1d9" text-anchor="end">75k</text><line x1="40" y1="40.00" x2="860" y2="40.00" stroke="#30363d"/><text x="32" y="44.00" font-size="10" fill="#c9d1d9" text-anchor="end">100k</text>
    <line x1="40.00" y1="40" x2="40.00" y2="220" stroke="#30363d" opacity="0.5"/><line x1="122.19" y1="40" x2="122.19" y2="220" stroke="#30363d" opacity="0.5"/><line x1="204.38" y1="40" x2="204.38" y2="220" stroke="#30363d" opacity="0.5"/><line x1="286.57" y1="40" x2="286.57" y2="220" stroke="#30363d" opacity="0.5"/><line x1="368.76" y1="40" x2="368.76" y2="220" stroke="#30363d" opacity="0.5"/><line x1="450.96" y1="40" x2="450.96" y2="220" stroke="#30363d" opacity="0.5"/><line x1="533.15" y1="40" x2="533.15" y2="220" stroke="#30363d" opacity="0.5"/><line x1="615.34" y1="40" x2="615.34" y2="220" stroke="#30363d" opacity="0.5"/><line x1="697.53" y1="40" x2="697.53" y2="220" stroke="#30363d" opacity="0.5"/><line x1="779.72" y1="40" x2="779.72" y2="220" stroke="#30363d" opacity="0.5"/>
    <line x1="40" y1="220" x2="860" y2="220" stroke="#30363d"/>
    <line x1="40" y1="40"   x2="40"   y2="220" stroke="#30363d"/>
    <path d="M 40.00 220.00 L 41.91 220.00 L 43.82 219.60 L 45.73 219.62 L 47.65 219.63 L 49.56 219.32 L 51.47 219.31 L 53.38 219.26 L 55.29 218.89 L 57.20 218.89 L 59.11 218.89 L 61.03 218.87 L 62.94 218.87 L 64.85 218.86 L 66.76 218.85 L 68.67 218.85 L 70.58 218.82 L 72.49 218.78 L 74.41 218.72 L 76.32 218.68 L 78.23 218.64 L 80.14 218.59 L 82.05 218.59 L 83.96 218.57 L 85.87 218.57 L 87.79 218.57 L 89.70 218.57 L 91.61 218.57 L 93.52 218.57 L 95.43 218.57 L 97.34 218.57 L 99.25 218.57 L 101.17 218.55 L 103.08 218.54 L 104.99 218.58 L 106.90 218.55 L 108.81 218.55 L 110.72 218.53 L 112.63 218.31 L 114.55 217.94 L 116.46 217.88 L 118.37 217.87 L 120.28 217.86 L 122.19 217.85 L 124.10 217.84 L 126.01 217.85 L 127.93 217.82 L 129.84 217.66 L 131.75 217.61 L 133.66 217.60 L 135.57 217.57 L 137.48 217.56 L 139.39 217.52 L 141.31 217.38 L 143.22 217.24 L 145.13 216.93 L 147.04 216.65 L 148.95 216.44 L 150.86 216.39 L 152.77 216.34 L 154.69 216.83 L 156.60 200.94 L 158.51 200.94 L 160.42 200.95 L 162.33 198.99 L 164.24 198.98 L 166.15 198.94 L 168.07 198.94 L 169.98 198.91 L 171.89 198.90 L 173.80 198.93 L 175.71 198.93 L 177.62 198.99 L 179.53 198.95 L 181.45 198.96 L 183.36 198.95 L 185.27 198.95 L 187.18 198.97 L 189.09 198.97 L 191.00 198.97 L 192.91 198.97 L 194.83 198.97 L 196.74 198.97 L 198.65 198.97 L 200.56 198.97 L 202.47 198.97 L 204.38 198.97 L 206.29 198.97 L 208.21 197.51 L 210.12 197.43 L 212.03 197.40 L 213.94 197.38 L 215.85 197.38 L 217.76 197.49 L 219.67 197.34 L 221.59 197.33 L 223.50 197.18 L 225.41 197.41 L 227.32 197.41 L 229.23 197.29 L 231.14 197.29 L 233.05 197.22 L 234.97 197.21 L 236.88 197.15 L 238.79 196.94 L 240.70 197.00 L 242.61 197.41 L 244.52 197.41 L 246.43 197.30 L 248.34 197.26 L 250.26 197.19 L 252.17 197.19 L 254.08 197.19 L 255.99 197.19 L 257.90 197.18 L 259.81 197.12 L 261.72 197.09 L 263.64 197.04 L 265.55 197.00 L 267.46 196.96 L 269.37 196.92 L 271.28 196.91 L 273.19 196.86 L 275.10 196.80 L 277.02 196.75 L 278.93 196.69 L 280.84 196.66 L 282.75 196.63 L 284.66 196.56 L 286.57 196.51 L 288.48 196.47 L 290.40 196.45 L 292.31 196.40 L 294.22 196.37 L 296.13 196.34 L 298.04 196.28 L 299.95 196.20 L 301.86 196.12 L 303.78 196.02 L 305.69 195.89 L 307.60 195.77 L 309.51 195.68 L 311.42 195.63 L 313.33 195.58 L 315.24 195.53 L 317.16 195.44 L 319.07 195.35 L 320.98 195.22 L 322.89 195.11 L 324.80 194.95 L 326.71 194.82 L 328.62 194.68 L 330.54 194.57 L 332.45 194.55 L 334.36 194.51 L 336.27 194.48 L 338.18 194.44 L 340.09 194.40 L 342.00 194.37 L 343.92 194.34 L 345.83 194.29 L 347.74 194.25 L 349.65 194.23 L 351.56 194.21 L 353.47 194.19 L 355.38 194.16 L 357.30 194.12 L 359.21 194.07 L 361.12 193.99 L 363.03 193.94 L 364.94 193.87 L 366.85 193.80 L 368.76 193.74 L 370.68 193.72 L 372.59 193.70 L 374.50 193.66 L 376.41 193.62 L 378.32 193.56 L 380.23 193.49 L 382.14 193.43 L 384.06 193.35 L 385.97 193.27 L 387.88 193.20 L 389.79 193.14 L 391.70 193.15 L 393.61 193.15 L 395.52 193.15 L 397.44 193.18 L 399.35 193.09 L 401.26 193.07 L 403.17 193.07 L 405.08 193.08 L 406.99 193.00 L 408.90 192.95 L 410.82 192.95 L 412.73 192.95 L 414.64 192.95 L 416.55 192.80 L 418.46 192.73 L 420.37 192.69 L 422.28 192.67 L 424.20 192.67 L 426.11 192.68 L 428.02 192.64 L 429.93 192.63 L 431.84 192.63 L 433.75 190.39 L 435.66 189.96 L 437.58 189.85 L 439.49 189.53 L 441.40 189.52 L 443.31 189.36 L 445.22 187.79 L 447.13 187.36 L 449.04 181.35 L 450.96 181.35 L 452.87 180.72 L 454.78 180.71 L 456.69 180.26 L 458.60 179.68 L 460.51 179.67 L 462.42 178.77 L 464.34 177.57 L 466.25 175.55 L 468.16 174.52 L 470.07 173.86 L 471.98 174.17 L 473.89 173.10 L 475.80 173.10 L 477.72 171.18 L 479.63 168.37 L 481.54 168.37 L 483.45 165.86 L 485.36 163.63 L 487.27 163.63 L 489.18 163.62 L 491.10 162.88 L 493.01 161.06 L 494.92 193.89 L 496.83 193.22 L 498.74 192.73 L 500.65 192.34 L 502.56 189.45 L 504.48 188.03 L 506.39 188.03 L 508.30 180.86 L 510.21 148.96 L 512.12 144.25 L 514.03 176.00 L 515.94 176.17 L 517.86 175.77 L 519.77 175.72 L 521.68 197.26 L 523.59 197.26 L 525.50 197.06 L 527.41 196.44 L 529.32 194.49 L 531.24 194.50 L 533.15 194.49 L 535.06 194.49 L 536.97 194.49 L 538.88 194.48 L 540.79 194.48 L 542.70 194.62 L 544.62 206.08 L 546.53 206.08 L 548.44 206.05 L 550.35 206.04 L 552.26 205.22 L 554.17 204.28 L 556.08 204.28 L 558.00 204.28 L 559.91 200.22 L 561.82 204.28 L 563.73 204.28 L 565.64 204.28 L 567.55 198.60 L 569.46 198.60 L 571.38 198.60 L 573.29 198.60 L 575.20 193.00 L 577.11 193.00 L 579.02 188.39 L 580.93 188.39 L 582.84 179.75 L 584.76 174.84 L 586.67 173.23 L 588.58 170.37 L 590.49 169.87 L 592.40 153.88 L 594.31 149.24 L 596.22 152.04 L 598.14 141.93 L 600.05 141.88 L 601.96 141.69 L 603.87 141.69 L 605.78 141.76 L 607.69 141.75 L 609.60 140.68 L 611.52 141.38 L 613.43 141.36 L 615.34 141.83 L 617.25 141.39 L 619.16 141.39 L 621.07 141.52 L 622.98 141.52 L 624.90 141.53 L 626.81 142.33 L 628.72 141.73 L 630.63 141.68 L 632.54 141.68 L 634.45 141.66 L 636.36 141.67 L 638.28 141.65 L 640.19 139.51 L 642.10 136.07 L 644.01 136.04 L 645.92 133.43 L 647.83 131.89 L 649.74 131.13 L 651.66 131.51 L 653.57 131.50 L 655.48 131.57 L 657.39 131.56 L 659.30 131.49 L 661.21 131.49 L 663.12 131.49 L 665.03 131.49 L 666.95 131.49 L 668.86 131.49 L 670.77 131.49 L 672.68 131.49 L 674.59 131.49 L 676.50 131.49 L 678.41 131.49 L 680.33 131.49 L 682.24 131.49 L 684.15 131.49 L 686.06 131.49 L 687.97 131.49 L 689.88 131.49 L 691.79 131.49 L 693.71 131.49 L 695.62 131.49 L 697.53 131.49 L 699.44 131.49 L 701.35 131.49 L 703.26 131.49 L 705.17 131.49 L 707.09 131.49 L 709.00 131.49 L 710.91 131.49 L 712.82 131.49 L 714.73 131.49 L 716.64 131.49 L 718.55 131.49 L 720.47 131.49 L 722.38 131.49 L 724.29 131.49 L 726.20 131.49 L 728.11 131.49 L 730.02 131.49 L 731.93 131.49 L 733.85 131.49 L 735.76 131.49 L 737.67 131.49 L 739.58 131.49 L 741.49 131.49 L 743.40 131.49 L 745.31 131.49 L 747.23 131.49 L 749.14 131.49 L 751.05 131.49 L 752.96 131.49 L 754.87 131.49 L 756.78 131.49 L 758.69 131.49 L 760.61 131.49 L 762.52 131.49 L 764.43 131.49 L 766.34 131.49 L 768.25 131.49 L 770.16 131.49 L 772.07 131.49 L 773.99 131.49 L 775.90 131.49 L 777.81 131.49 L 779.72 131.49 L 781.63 131.49 L 783.54 131.49 L 785.45 131.49 L 787.37 131.49 L 789.28 131.49 L 791.19 131.49 L 793.10 131.49 L 795.01 131.49 L 796.92 131.49 L 798.83 131.49 L 800.75 131.49 L 802.66 131.49 L 804.57 131.49 L 806.48 131.49 L 808.39 131.49 L 810.30 131.49 L 812.21 131.49 L 814.13 131.49 L 816.04 131.49 L 817.95 131.49 L 819.86 131.49 L 821.77 131.49 L 823.68 131.49 L 825.59 131.49 L 827.51 131.49 L 829.42 131.49 L 831.33 131.49 L 833.24 131.49 L 835.15 131.49 L 837.06 131.49 L 838.97 131.49 L 840.89 131.49 L 842.80 131.49 L 844.71 131.49 L 846.62 131.49 L 848.53 131.49 L 850.44 131.49 L 852.35 131.49 L 854.27 131.49 L 856.18 131.49 L 858.09 131.49 L 860.00 131.49" fill="none" stroke="#3fb950" stroke-width="2"/>
    <circle cx="860.00" cy="131.49" r="3" fill="#3fb950"/>
    <text x="40.00" y="235.00" font-size="9" fill="#c9d1d9" text-anchor="middle" transform="rotate(-45 40.00 235.00)">27.09.2025</text><text x="122.19" y="235.00" font-size="9" fill="#c9d1d9" text-anchor="middle" transform="rotate(-45 122.19 235.00)">28.09.2025</text><text x="204.38" y="235.00" font-size="9" fill="#c9d1d9" text-anchor="middle" transform="rotate(-45 204.38 235.00)">29.09.2025</text><text x="286.57" y="235.00" font-size="9" fill="#c9d1d9" text-anchor="middle" transform="rotate(-45 286.57 235.00)">04.10.2025</text><text x="368.76" y="235.00" font-size="9" fill="#c9d1d9" text-anchor="middle" transform="rotate(-45 368.76 235.00)">04.10.2025</text><text x="450.96" y="235.00" font-size="9" fill="#c9d1d9" text-anchor="middle" transform="rotate(-45 450.96 235.00)">04.10.2025</text><text x="533.15" y="235.00" font-size="9" fill="#c9d1d9" text-anchor="middle" transform="rotate(-45 533.15 235.00)">05.10.2025</text><text x="615.34" y="235.00" font-size="9" fill="#c9d1d9" text-anchor="middle" transform="rotate(-45 615.34 235.00)">09.10.2025</text><text x="697.53" y="235.00" font-size="9" fill="#c9d1d9" text-anchor="middle" transform="rotate(-45 697.53 235.00)">29.10.2025</text><text x="779.72" y="235.00" font-size="9" fill="#c9d1d9" text-anchor="middle" transform="rotate(-45 779.72 235.00)">11.12.2025</text>
  </g>
</svg>