<svg xmlns="http://www.w3.org/2000/svg" width="900" height="290" style="font-family: -apple-system, BlinkMacSystemFont, 'Segoe UI', Helvetica, Arial, sans-serif;">
  <rect width="100%" height="100%" fill="white"/>
  <g>
    <line x1="40" y1="220.00" x2="860" y2="220.00" stroke="#e5e7eb"/><text x="32" y="224.00" font-size="10" fill="#111827" text-anchor="end">0</text><line x1="40" y1="175.00" x2="860" y2="175.00" stroke="#e5e7eb"/><text x="32" y="179.00" font-size="10" fill="#111827" text-anchor="end">25k</text><line x1="40" y1="130.00" x2="860" y2="130.00" stroke="#e5e7eb"/><text x="32" y="134.00" font-size="10" fill="#111827" text-anchor="end">50k</text><line x1="40" y1="85.00" x2="860" y2="85.00" stroke="#e5e7eb"/><text x="32" y="89.00" font-size="10" fill="#111827" text-anchor="end">75k</text><line x1="40" y1="40.00" x2="860" y2="40.00" stroke="#e5e7eb"/><text x="32" y="44.00" font-size="10" fill="#111827" text-anchor="end">100k</text>
    <line x1="40.00" y1="40" x2="40.00" y2="220" stroke="#e5e7eb" opacity="0.5"/><line x1="121.58" y1="40" x2="121.58" y2="220" stroke="#e5e7eb" opacity="0.5"/><line x1="203.16" y1="40" x2="203.16" y2="220" stroke="#e5e7eb" opacity="0.5"/><line x1="284.74" y1="40" x2="284.74" y2="220" stroke="#e5e7eb" opacity="0.5"/><line x1="366.33" y1="40" x2="366.33" y2="220" stroke="#e5e7eb" opacity="0.5"/><line x1="447.91" y1="40" x2="447.91" y2="220" stroke="#e5e7eb" opacity="0.5"/><line x1="529.49" y1="40" x2="529.49" y2="220" stroke="#e5e7eb" opacity="0.5"/><line x1="611.07" y1="40" x2="611.07" y2="220" stroke="#e5e7eb" opacity="0.5"/><line x1="692.65" y1="40" x2="692.65" y2="220" stroke="#e5e7eb" opacity="0.5"/><line x1="774.23" y1="40" x2="774.23" y2="220" stroke="#e5e7eb" opacity="0.5"/><line x1="855.82" y1="40" x2="855.82" y2="220" stroke="#e5e7eb" opacity="0.5"/>
    <line x1="40" y1="220" x2="860" y2="220" stroke="#9ca3af"/>
    <line x1="40" y1="40"   x2="40"   y2="220" stroke="#9ca3af"/>
    <path d="M 40.00 220.00 L 42.09 220.00 L 44.18 219.60 L 46.28 219.62 L 48.37 219.63 L 50.46 219.32 L 52.55 219.31 L 54.64 219.26 L 56.73 218.89 L 58.83 218.89 L 60.92 218.89 L 63.01 218.87 L 65.10 218.87 L 67.19 218.86 L 69.29 218.85 L 71.38 218.85 L 73.47 218.82 L 75.56 218.78 L 77.65 218.72 L 79.74 218.68 L 81.84 218.64 L 83.93 218.59 L 86.02 218.59 L 88.11 218.57 L 90.20 218.57 L 92.30 218.57 L 94.39 218.57 L 96.48 218.57 L 98.57 218.57 L 100.66 218.57 L 102.76 218.57 L 104.85 218.57 L 106.94 218.55 L 109.03 218.54 L 111.12 218.58 L 113.21 218.55 L 115.31 218.55 L 117.40 218.53 L 119.49 218.31 L 121.58 217.94 L 123.67 217.88 L 125.77 217.87 L 127.86 217.86 L 129.95 217.85 L 132.04 217.84 L 134.13 217.85 L 136.22 217.82 L 138.32 217.66 L 140.41 217.61 L 142.50 217.60 L 144.59 217.57 L 146.68 217.56 L 148.78 217.52 L 150.87 217.38 L 152.96 217.24 L 155.05 216.93 L 157.14 216.65 L 159.23 216.44 L 161.33 216.39 L 163.42 216.34 L 165.51 216.83 L 167.60 200.94 L 169.69 200.94 L 171.79 200.95 L 173.88 198.99 L 175.97 198.98 L 178.06 198.94 L 180.15 198.94 L 182.24 198.91 L 184.34 198.90 L 186.43 198.93 L 188.52 198.93 L 190.61 198.99 L 192.70 198.95 L 194.80 198.96 L 196.89 198.95 L 198.98 198.95 L 201.07 198.97 L 203.16 198.97 L 205.26 198.97 L 207.35 198.97 L 209.44 198.97 L 211.53 198.97 L 213.62 198.97 L 215.71 198.97 L 217.81 198.97 L 219.90 198.97 L 221.99 198.97 L 224.08 197.51 L 226.17 197.43 L 228.27 197.40 L 230.36 197.38 L 232.45 197.38 L 234.54 197.49 L 236.63 197.34 L 238.72 197.33 L 240.82 197.18 L 242.91 197.41 L 245.00 197.41 L 247.09 197.29 L 249.18 197.29 L 251.28 197.22 L 253.37 197.21 L 255.46 197.15 L 257.55 196.94 L 259.64 197.00 L 261.73 197.41 L 263.83 197.41 L 265.92 197.30 L 268.01 197.26 L 270.10 197.19 L 272.19 197.19 L 274.29 197.19 L 276.38 197.19 L 278.47 197.18 L 280.56 197.12 L 282.65 197.09 L 284.74 197.04 L 286.84 197.00 L 288.93 196.96 L 291.02 196.92 L 293.11 196.91 L 295.20 196.86 L 297.30 196.80 L 299.39 196.75 L 301.48 196.69 L 303.57 196.66 L 305.66 196.63 L 307.76 196.56 L 309.85 196.51 L 311.94 196.47 L 314.03 196.45 L 316.12 196.40 L 318.21 196.37 L 320.31 196.34 L 322.40 196.28 L 324.49 196.20 L 326.58 196.12 L 328.67 196.02 L 330.77 195.89 L 332.86 195.77 L 334.95 195.68 L 337.04 195.63 L 339.13 195.58 L 341.22 195.53 L 343.32 195.44 L 345.41 195.35 L 347.50 195.22 L 349.59 195.11 L 351.68 194.95 L 353.78 194.82 L 355.87 194.68 L 357.96 194.57 L 360.05 194.55 L 362.14 194.51 L 364.23 194.48 L 366.33 194.44 L 368.42 194.40 L 370.51 194.37 L 372.60 194.34 L 374.69 194.29 L 376.79 194.25 L 378.88 194.23 L 380.97 194.21 L 383.06 194.19 L 385.15 194.16 L 387.24 194.12 L 389.34 194.07 L 391.43 193.99 L 393.52 193.94 L 395.61 193.87 L 397.70 193.80 L 399.80 193.74 L 401.89 193.72 L 403.98 193.70 L 406.07 193.66 L 408.16 193.62 L 410.26 193.56 L 412.35 193.49 L 414.44 193.43 L 416.53 193.35 L 418.62 193.27 L 420.71 193.20 L 422.81 193.14 L 424.90 193.15 L 426.99 193.15 L 429.08 193.15 L 431.17 193.18 L 433.27 193.09 L 435.36 193.07 L 437.45 193.07 L 439.54 193.08 L 441.63 193.00 L 443.72 192.95 L 445.82 192.95 L 447.91 192.95 L 450.00 192.95 L 452.09 192.80 L 454.18 192.73 L 456.28 192.69 L 458.37 192.67 L 460.46 192.67 L 462.55 192.68 L 464.64 192.64 L 466.73 192.63 L 468.83 192.63 L 470.92 190.39 L 473.01 189.96 L 475.10 189.85 L 477.19 189.53 L 479.29 189.52 L 481.38 189.36 L 483.47 187.79 L 485.56 187.36 L 487.65 181.35 L 489.74 181.35 L 491.84 180.72 L 493.93 180.71 L 496.02 180.26 L 498.11 179.68 L 500.20 179.67 L 502.30 178.77 L 504.39 177.57 L 506.48 175.55 L 508.57 174.52 L 510.66 173.86 L 512.76 174.17 L 514.85 173.10 L 516.94 173.10 L 519.03 171.18 L 521.12 168.37 L 523.21 168.37 L 525.31 165.86 L 527.40 163.63 L 529.49 163.63 L 531.58 163.62 L 533.67 162.88 L 535.77 161.06 L 537.86 193.89 L 539.95 193.22 L 542.04 192.73 L 544.13 192.34 L 546.22 189.45 L 548.32 188.03 L 550.41 188.03 L 552.50 180.86 L 554.59 148.96 L 556.68 144.25 L 558.78 176.00 L 560.87 176.17 L 562.96 175.77 L 565.05 175.72 L 567.14 197.26 L 569.23 197.26 L 571.33 197.06 L 573.42 196.44 L 575.51 194.49 L 577.60 194.50 L 579.69 194.49 L 581.79 194.49 L 583.88 194.49 L 585.97 194.48 L 588.06 194.48 L 590.15 194.62 L 592.24 206.08 L 594.34 206.08 L 596.43 206.05 L 598.52 206.04 L 600.61 205.22 L 602.70 204.28 L 604.80 204.28 L 606.89 204.28 L 608.98 200.22 L 611.07 204.28 L 613.16 204.28 L 615.26 204.28 L 617.35 198.60 L 619.44 198.60 L 621.53 198.60 L 623.62 198.60 L 625.71 193.00 L 627.81 193.00 L 629.90 188.39 L 631.99 188.39 L 634.08 179.75 L 636.17 174.84 L 638.27 173.23 L 640.36 170.37 L 642.45 169.87 L 644.54 153.88 L 646.63 149.24 L 648.72 152.04 L 650.82 141.93 L 652.91 141.88 L 655.00 141.69 L 657.09 141.69 L 659.18 141.76 L 661.28 141.75 L 663.37 140.68 L 665.46 141.38 L 667.55 141.36 L 669.64 141.83 L 671.73 141.39 L 673.83 141.39 L 675.92 141.52 L 678.01 141.52 L 680.10 141.53 L 682.19 142.33 L 684.29 141.73 L 686.38 141.68 L 688.47 141.68 L 690.56 141.66 L 692.65 141.67 L 694.74 141.65 L 696.84 139.51 L 698.93 136.07 L 701.02 136.04 L 703.11 133.43 L 705.20 131.89 L 707.30 131.13 L 709.39 131.51 L 711.48 131.50 L 713.57 131.57 L 715.66 131.56 L 717.76 131.49 L 719.85 131.49 L 721.94 131.49 L 724.03 131.49 L 726.12 131.49 L 728.21 131.49 L 730.31 131.49 L 732.40 131.49 L 734.49 131.49 L 736.58 131.49 L 738.67 131.49 L 740.77 131.49 L 742.86 131.49 L 744.95 131.49 L 747.04 131.49 L 749.13 131.49 L 751.22 131.49 L 753.32 131.49 L 755.41 131.49 L 757.50 131.49 L 759.59 131.49 L 761.68 131.49 L 763.78 131.49 L 765.87 131.49 L 767.96 131.49 L 770.05 131.49 L 772.14 131.49 L 774.23 131.49 L 776.33 131.49 L 778.42 131.49 L 780.51 131.49 L 782.60 131.49 L 784.69 131.49 L 786.79 131.49 L 788.88 131.49 L 790.97 131.49 L 793.06 131.49 L 795.15 131.49 L 797.24 131.49 L 799.34 131.49 L 801.43 131.49 L 803.52 131.49 L 805.61 131.49 L 807.70 131.49 L 809.80 131.49 L 811.89 131.49 L 813.98 131.49 L 816.07 131.49 L 818.16 131.49 L 820.26 131.49 L 822.35 131.49 L 824.44 131.49 L 826.53 131.49 L 828.62 131.49 L 830.71 131.49 L 832.81 131.49 L 834.90 131.49 L 836.99 131.49 L 839.08 131.49 L 841.17 131.49 L 843.27 131.49 L 845.36 131.49 L 847.45 131.49 L 849.54 131.49 L 851.63 131.49 L 853.72 131.49 L 855.82 131.49 L 857.91 131.49 L 860.00 131.49" fill="none" stroke="#111827" stroke-width="2"/>
    <circle cx="860.00" cy="131.49" r="3" fill="#111827"/>
    <text x="40.00" y="235.00" font-size="9" fill="#111827" text-anchor="middle" transform="rotate(-45 40.00 235.00)">27.09.2025</text><text x="121.58" y="235.00" font-size="9" fill="#111827" text-anchor="middle" transform="rotate(-45 121.58 235.00)">28.09.2025</text><text x="203.16" y="235.00" font-size="9" fill="#111827" text-anchor="middle" transform="rotate(-45 203.16 235.00)">29.09.2025</text><text x="284.74" y="235.00" font-size="9" fill="#111827" text-anchor="middle" transform="rotate(-45 284.74 235.00)">04.10.2025</text><text x="366.33" y="235.00" font-size="9" fill="#111827" text-anchor="middle" transform="rotate(-45 366.33 235.00)">04.10.2025</text><text x="447.91" y="235.00" font-size="9" fill="#111827" text-anchor="middle" transform="rotate(-45 447.91 235.00)">04.10.2025</text><text x="529.49" y="235.00" font-size="9" fill="#111827" text-anchor="middle" transform="rotate(-45 529.49 235.00)">04.10.2025</text><text x="611.07" y="235.00" font-size="9" fill="#111827" text-anchor="middle" transform="rotate(-45 611.07 235.00)">07.10.2025</text><text x="692.65" y="235.00" font-size="9" fill="#111827" text-anchor="middle" transform="rotate(-45 692.65 235.00)">09.10.2025</text><text x="774.23" y="235.00" font-size="9" fill="#111827" text-anchor="middle" transform="rotate(-45 774.23 235.00)">05.11.2025</text><text x="855.82" y="235.00" font-size="9" fill="#111827" text-anchor="middle" transform="rotate(-45 855.82 235.00)">14.12.2025</text>
  </g>
</svg>