<svg xmlns="http://www.w3.org/2000/svg" width="900" height="290" style="font-family: -apple-system, BlinkMacSystemFont, 'Segoe UI', Helvetica, Arial, sans-serif;">
  <rect width="100%" height="100%" fill="#0d1117"/>
  <g>
    <line x1="40" y1="220.00" x2="860" y2="220.00" stroke="#30363d"/><text x="32" y="224.00" font-size="10" fill="#c9d1d9" text-anchor="end">0</text><line x1="40" y1="175.00" x2="860" y2="175.00" stroke="#30363d"/><text x="32" y="179.00" font-size="10" fill="#c9d1d9" text-anchor="end">25k</text><line x1="40" y1="130.00" x2="860" y2="130.00" stroke="#30363d"/><text x="32" y="134.00" font-size="10" fill="#c9d1d9" text-anchor="end">50k</text><line x1="40" y1="85.00" x2="860" y2="85.00" stroke="#30363d"/><text x="32" y="89.00" font-size="10" fill="#c9d1d9" text-anchor="end">75k</text><line x1="40" y1="40.00" x2="860" y2="40.00" stroke="#30363d"/><text x="32" y="44.00" font-size="10" fill="#c9d1d9" text-anchor="end">100k</text>
    <line x1="40.00" y1="40" x2="40.00" y2="220" stroke="#30363d" opacity="0.5"/><line x1="121.02" y1="40" x2="121.02" y2="220" stroke="#30363d" opacity="0.5"/><line x1="202.04" y1="40" x2="202.04" y2="220" stroke="#30363d" opacity="0.5"/><line x1="283.05" y1="40" x2="283.05" y2="220" stroke="#30363d" opacity="0.5"/><line x1="364.07" y1="40" x2="364.07" y2="220" stroke="#30363d" opacity="0.5"/><line x1="445.09" y1="40" x2="445.09" y2="220" stroke="#30363d" opacity="0.5"/><line x1="526.11" y1="40" x2="526.11" y2="220" stroke="#30363d" opacity="0.5"/><line x1="607.13" y1="40" x2="607.13" y2="220" stroke="#30363d" opacity="0.5"/><line x1="688.14" y1="40" x2="688.14" y2="220" stroke="#30363d" opacity="0.5"/><line x1="769.16" y1="40" x2="769.16" y2="220" stroke="#30363d" opacity="0.5"/><line x1="850.18" y1="40" x2="850.18" y2="220" stroke="#30363d" opacity="0.5"/>
    <line x1="40" y1="220" x2="860" y2="220" stroke="#30363d"/>
    <line x1="40" y1="40"   x2="40"   y2="220" stroke="#30363d"/>
    <path d="M 40.00 220.00 L 42.46 220.00 L 44.91 219.60 L 47.37 219.62 L 49.82 219.63 L 52.28 219.32 L 54.73 219.31 L 57.19 219.26 L 59.64 218.89 L 62.10 218.89 L 64.55 218.89 L 67.01 218.87 L 69.46 218.87 L 71.92 218.86 L 74.37 218.85 L 76.83 218.85 L 79.28 218.82 L 81.74 218.78 L 84.19 218.72 L 86.65 218.68 L 89.10 218.64 L 91.56 218.59 L 94.01 218.59 L 96.47 218.57 L 98.92 218.57 L 101.38 218.57 L 103.83 218.57 L 106.29 218.57 L 108.74 218.57 L 111.20 218.57 L 113.65 218.57 L 116.11 218.57 L 118.56 218.55 L 121.02 218.54 L 123.47 218.58 L 125.93 218.55 L 128.38 218.55 L 130.84 218.53 L 133.29 218.31 L 135.75 217.94 L 138.20 217.88 L 140.66 217.87 L 143.11 217.86 L 145.57 217.85 L 148.02 217.84 L 150.48 217.85 L 152.93 217.82 L 155.39 217.66 L 157.84 217.61 L 160.30 217.60 L 162.75 217.57 L 165.21 217.56 L 167.66 217.52 L 170.12 217.38 L 172.57 217.24 L 175.03 216.93 L 177.49 216.65 L 179.94 216.44 L 182.40 216.39 L 184.85 216.34 L 187.31 216.83 L 189.76 200.94 L 192.22 200.94 L 194.67 200.95 L 197.13 198.99 L 199.58 198.98 L 202.04 198.94 L 204.49 198.94 L 206.95 198.91 L 209.40 198.90 L 211.86 198.93 L 214.31 198.93 L 216.77 198.99 L 219.22 198.95 L 221.68 198.96 L 224.13 198.95 L 226.59 198.95 L 229.04 198.97 L 231.50 198.97 L 233.95 198.97 L 236.41 198.97 L 238.86 198.97 L 241.32 198.97 L 243.77 198.97 L 246.23 198.97 L 248.68 198.97 L 251.14 198.97 L 253.59 198.97 L 256.05 197.51 L 258.50 197.43 L 260.96 197.40 L 263.41 197.38 L 265.87 197.38 L 268.32 197.49 L 270.78 197.34 L 273.23 197.33 L 275.69 197.18 L 278.14 197.41 L 280.60 197.41 L 283.05 197.29 L 285.51 197.29 L 287.96 197.22 L 290.42 197.21 L 292.87 197.15 L 295.33 196.94 L 297.78 197.00 L 300.24 197.41 L 302.69 197.41 L 305.15 197.30 L 307.60 197.26 L 310.06 197.19 L 312.51 197.19 L 314.97 197.19 L 317.43 197.19 L 319.88 197.18 L 322.34 197.12 L 324.79 197.09 L 327.25 197.04 L 329.70 197.00 L 332.16 196.96 L 334.61 196.92 L 337.07 196.91 L 339.52 196.86 L 341.98 196.80 L 344.43 196.75 L 346.89 196.69 L 349.34 196.66 L 351.80 196.63 L 354.25 196.56 L 356.71 196.51 L 359.16 196.47 L 361.62 196.45 L 364.07 196.40 L 366.53 196.37 L 368.98 196.34 L 371.44 196.28 L 373.89 196.20 L 376.35 196.12 L 378.80 196.02 L 381.26 195.89 L 383.71 195.77 L 386.17 195.68 L 388.62 195.63 L 391.08 195.58 L 393.53 195.53 L 395.99 195.44 L 398.44 195.35 L 400.90 195.22 L 403.35 195.11 L 405.81 194.95 L 408.26 194.82 L 410.72 194.68 L 413.17 194.57 L 415.63 194.55 L 418.08 194.51 L 420.54 194.48 L 422.99 194.44 L 425.45 194.40 L 427.90 194.37 L 430.36 194.34 L 432.81 194.29 L 435.27 194.25 L 437.72 194.23 L 440.18 194.21 L 442.63 194.19 L 445.09 194.16 L 447.54 194.12 L 450.00 194.07 L 452.46 193.99 L 454.91 193.94 L 457.37 193.87 L 459.82 193.80 L 462.28 193.74 L 464.73 193.72 L 467.19 193.70 L 469.64 193.66 L 472.10 193.62 L 474.55 193.56 L 477.01 193.49 L 479.46 193.43 L 481.92 193.35 L 484.37 193.27 L 486.83 193.20 L 489.28 193.14 L 491.74 193.15 L 494.19 193.15 L 496.65 193.15 L 499.10 193.18 L 501.56 193.09 L 504.01 193.07 L 506.47 193.07 L 508.92 193.08 L 511.38 193.00 L 513.83 192.95 L 516.29 192.95 L 518.74 192.95 L 521.20 192.95 L 523.65 192.80 L 526.11 192.73 L 528.56 192.69 L 531.02 192.67 L 533.47 192.67 L 535.93 192.68 L 538.38 192.64 L 540.84 192.63 L 543.29 192.63 L 545.75 190.39 L 548.20 189.96 L 550.66 189.85 L 553.11 189.53 L 555.57 189.52 L 558.02 189.36 L 560.48 187.79 L 562.93 187.36 L 565.39 181.35 L 567.84 181.35 L 570.30 180.72 L 572.75 180.71 L 575.21 180.26 L 577.66 179.68 L 580.12 179.67 L 582.57 178.77 L 585.03 177.57 L 587.49 175.55 L 589.94 174.52 L 592.40 173.86 L 594.85 174.17 L 597.31 173.10 L 599.76 173.10 L 602.22 171.18 L 604.67 168.37 L 607.13 168.37 L 609.58 165.86 L 612.04 163.63 L 614.49 163.63 L 616.95 163.62 L 619.40 162.88 L 621.86 161.06 L 624.31 193.89 L 626.77 193.22 L 629.22 192.73 L 631.68 192.34 L 634.13 189.45 L 636.59 188.03 L 639.04 188.03 L 641.50 180.86 L 643.95 148.96 L 646.41 144.25 L 648.86 176.00 L 651.32 176.17 L 653.77 175.77 L 656.23 175.72 L 658.68 197.26 L 661.14 197.26 L 663.59 197.06 L 666.05 196.44 L 668.50 194.49 L 670.96 194.50 L 673.41 194.49 L 675.87 194.49 L 678.32 194.49 L 680.78 194.48 L 683.23 194.48 L 685.69 194.62 L 688.14 206.08 L 690.60 206.08 L 693.05 206.05 L 695.51 206.04 L 697.96 205.22 L 700.42 204.28 L 702.87 204.28 L 705.33 204.28 L 707.78 200.22 L 710.24 204.28 L 712.69 204.28 L 715.15 204.28 L 717.60 198.60 L 720.06 198.60 L 722.51 198.60 L 724.97 198.60 L 727.43 193.00 L 729.88 193.00 L 732.34 188.39 L 734.79 188.39 L 737.25 179.75 L 739.70 174.84 L 742.16 173.23 L 744.61 170.37 L 747.07 169.87 L 749.52 153.88 L 751.98 149.24 L 754.43 152.04 L 756.89 141.93 L 759.34 141.88 L 761.80 141.69 L 764.25 141.69 L 766.71 141.76 L 769.16 141.75 L 771.62 140.68 L 774.07 141.38 L 776.53 141.36 L 778.98 141.83 L 781.44 141.39 L 783.89 141.39 L 786.35 141.52 L 788.80 141.52 L 791.26 141.53 L 793.71 142.33 L 796.17 141.73 L 798.62 141.68 L 801.08 141.68 L 803.53 141.66 L 805.99 141.67 L 808.44 141.65 L 810.90 139.51 L 813.35 136.07 L 815.81 136.04 L 818.26 133.43 L 820.72 131.89 L 823.17 131.13 L 825.63 131.51 L 828.08 131.50 L 830.54 131.57 L 832.99 131.56 L 835.45 131.49 L 837.90 131.49 L 840.36 131.49 L 842.81 131.49 L 845.27 131.49 L 847.72 131.49 L 850.18 131.49 L 852.63 131.49 L 855.09 131.49 L 857.54 131.49 L 860.00 131.49" fill="none" stroke="#3fb950" stroke-width="2"/>
    <circle cx="860.00" cy="131.49" r="3" fill="#3fb950"/>
    <text x="40.00" y="235.00" font-size="9" fill="#c9d1d9" text-anchor="middle" transform="rotate(-45 40.00 235.00)">27.09.2025</text><text x="121.02" y="235.00" font-size="9" fill="#c9d1d9" text-anchor="middle" transform="rotate(-45 121.02 235.00)">28.09.2025</text><text x="202.04" y="235.00" font-size="9" fill="#c9d1d9" text-anchor="middle" transform="rotate(-45 202.04 235.00)">28.09.2025</text><text x="283.05" y="235.00" font-size="9" fill="#c9d1d9" text-anchor="middle" transform="rotate(-45 283.05 235.00)">30.09.2025</text><text x="364.07" y="235.00" font-size="9" fill="#c9d1d9" text-anchor="middle" transform="rotate(-45 364.07 235.00)">04.10.2025</text><text x="445.09" y="235.00" font-size="9" fill="#c9d1d9" text-anchor="middle" transform="rotate(-45 445.09 235.00)">04.10.2025</text><text x="526.11" y="235.00" font-size="9" fill="#c9d1d9" text-anchor="middle" transform="rotate(-45 526.11 235.00)">04.10.2025</text><text x="607.13" y="235.00" font-size="9" fill="#c9d1d9" text-anchor="middle" transform="rotate(-45 607.13 235.00)">04.10.2025</text><text x="688.14" y="235.00" font-size="9" fill="#c9d1d9" text-anchor="middle" transform="rotate(-45 688.14 235.00)">05.10.2025</text><text x="769.16" y="235.00" font-size="9" fill="#c9d1d9" text-anchor="middle" transform="rotate(-45 769.16 235.00)">08.10.2025</text><text x="850.18" y="235.00" font-size="9" fill="#c9d1d9" text-anchor="middle" transform="rotate(-45 850.18 235.00)">15.10.2025</text>
  </g>
</svg>