<svg xmlns="http://www.w3.org/2000/svg" width="900" height="290" style="font-family: -apple-system, BlinkMacSystemFont, 'Segoe UI', Helvetica, Arial, sans-serif;">
  <rect width="100%" height="100%" fill="white"/>
  <g>
    <line x1="40" y1="220.00" x2="860" y2="220.00" stroke="#e5e7eb"/><text x="32" y="224.00" font-size="10" fill="#111827" text-anchor="end">0</text><line x1="40" y1="175.00" x2="860" y2="175.00" stroke="#e5e7eb"/><text x="32" y="179.00" font-size="10" fill="#111827" text-anchor="end">25k</text><line x1="40" y1="130.00" x2="860" y2="130.00" stroke="#e5e7eb"/><text x="32" y="134.00" font-size="10" fill="#111827" text-anchor="end">50k</text><line x1="40" y1="85.00" x2="860" y2="85.00" stroke="#e5e7eb"/><text x="32" y="89.00" font-size="10" fill="#111827" text-anchor="end">75k</text><line x1="40" y1="40.00" x2="860" y2="40.00" stroke="#e5e7eb"/><text x="32" y="44.00" font-size="10" fill="#111827" text-anchor="end">100k</text>
    <line x1="40.00" y1="40" x2="40.00" y2="220" stroke="#e5e7eb" opacity="0.5"/><line x1="120.69" y1="40" x2="120.69" y2="220" stroke="#e5e7eb" opacity="0.5"/><line x1="201.38" y1="40" x2="201.38" y2="220" stroke="#e5e7eb" opacity="0.5"/><line x1="282.07" y1="40" x2="282.07" y2="220" stroke="#e5e7eb" opacity="0.5"/><line x1="362.77" y1="40" x2="362.77" y2="220" stroke="#e5e7eb" opacity="0.5"/><line x1="443.46" y1="40" x2="443.46" y2="220" stroke="#e5e7eb" opacity="0.5"/><line x1="524.15" y1="40" x2="524.15" y2="220" stroke="#e5e7eb" opacity="0.5"/><line x1="604.84" y1="40" x2="604.84" y2="220" stroke="#e5e7eb" opacity="0.5"/><line x1="685.53" y1="40" x2="685.53" y2="220" stroke="#e5e7eb" opacity="0.5"/><line x1="766.22" y1="40" x2="766.22" y2="220" stroke="#e5e7eb" opacity="0.5"/><line x1="846.91" y1="40" x2="846.91" y2="220" stroke="#e5e7eb" opacity="0.5"/>
    <line x1="40" y1="220" x2="860" y2="220" stroke="#9ca3af"/>
    <line x1="40" y1="40"   x2="40"   y2="220" stroke="#9ca3af"/>
    <path d="M 40.00 220.00 L 42.18 220.00 L 44.36 219.60 L 46.54 219.62 L 48.72 219.63 L 50.90 219.32 L 53.09 219.31 L 55.27 219.26 L 57.45 218.89 L 59.63 218.89 L 61.81 218.89 L 63.99 218.87 L 66.17 218.87 L 68.35 218.86 L 70.53 218.85 L 72.71 218.85 L 74.89 218.82 L 77.07 218.78 L 79.26 218.72 L 81.44 218.68 L 83.62 218.64 L 85.80 218.59 L 87.98 218.59 L 90.16 218.57 L 92.34 218.57 L 94.52 218.57 L 96.70 218.57 L 98.88 218.57 L 101.06 218.57 L 103.24 218.57 L 105.43 218.57 L 107.61 218.57 L 109.79 218.55 L 111.97 218.54 L 114.15 218.58 L 116.33 218.55 L 118.51 218.55 L 120.69 218.53 L 122.87 218.31 L 125.05 217.94 L 127.23 217.88 L 129.41 217.87 L 131.60 217.86 L 133.78 217.85 L 135.96 217.84 L 138.14 217.85 L 140.32 217.82 L 142.50 217.66 L 144.68 217.61 L 146.86 217.60 L 149.04 217.57 L 151.22 217.56 L 153.40 217.52 L 155.59 217.38 L 157.77 217.24 L 159.95 216.93 L 162.13 216.65 L 164.31 216.44 L 166.49 216.39 L 168.67 216.34 L 170.85 216.83 L 173.03 200.94 L 175.21 200.94 L 177.39 200.95 L 179.57 198.99 L 181.76 198.98 L 183.94 198.94 L 186.12 198.94 L 188.30 198.91 L 190.48 198.90 L 192.66 198.93 L 194.84 198.93 L 197.02 198.99 L 199.20 198.95 L 201.38 198.96 L 203.56 198.95 L 205.74 198.95 L 207.93 198.97 L 210.11 198.97 L 212.29 198.97 L 214.47 198.97 L 216.65 198.97 L 218.83 198.97 L 221.01 198.97 L 223.19 198.97 L 225.37 198.97 L 227.55 198.97 L 229.73 198.97 L 231.91 197.51 L 234.10 197.43 L 236.28 197.40 L 238.46 197.38 L 240.64 197.38 L 242.82 197.49 L 245.00 197.34 L 247.18 197.33 L 249.36 197.18 L 251.54 197.41 L 253.72 197.41 L 255.90 197.29 L 258.09 197.29 L 260.27 197.22 L 262.45 197.21 L 264.63 197.15 L 266.81 196.94 L 268.99 197.00 L 271.17 197.41 L 273.35 197.41 L 275.53 197.30 L 277.71 197.26 L 279.89 197.19 L 282.07 197.19 L 284.26 197.19 L 286.44 197.19 L 288.62 197.18 L 290.80 197.12 L 292.98 197.09 L 295.16 197.04 L 297.34 197.00 L 299.52 196.96 L 301.70 196.92 L 303.88 196.91 L 306.06 196.86 L 308.24 196.80 L 310.43 196.75 L 312.61 196.69 L 314.79 196.66 L 316.97 196.63 L 319.15 196.56 L 321.33 196.51 L 323.51 196.47 L 325.69 196.45 L 327.87 196.40 L 330.05 196.37 L 332.23 196.34 L 334.41 196.28 L 336.60 196.20 L 338.78 196.12 L 340.96 196.02 L 343.14 195.89 L 345.32 195.77 L 347.50 195.68 L 349.68 195.63 L 351.86 195.58 L 354.04 195.53 L 356.22 195.44 L 358.40 195.35 L 360.59 195.22 L 362.77 195.11 L 364.95 194.95 L 367.13 194.82 L 369.31 194.68 L 371.49 194.57 L 373.67 194.55 L 375.85 194.51 L 378.03 194.48 L 380.21 194.44 L 382.39 194.40 L 384.57 194.37 L 386.76 194.34 L 388.94 194.29 L 391.12 194.25 L 393.30 194.23 L 395.48 194.21 L 397.66 194.19 L 399.84 194.16 L 402.02 194.12 L 404.20 194.07 L 406.38 193.99 L 408.56 193.94 L 410.74 193.87 L 412.93 193.80 L 415.11 193.74 L 417.29 193.72 L 419.47 193.70 L 421.65 193.66 L 423.83 193.62 L 426.01 193.56 L 428.19 193.49 L 430.37 193.43 L 432.55 193.35 L 434.73 193.27 L 436.91 193.20 L 439.10 193.14 L 441.28 193.15 L 443.46 193.15 L 445.64 193.15 L 447.82 193.18 L 450.00 193.09 L 452.18 193.07 L 454.36 193.07 L 456.54 193.08 L 458.72 193.00 L 460.90 192.95 L 463.09 192.95 L 465.27 192.95 L 467.45 192.95 L 469.63 192.80 L 471.81 192.73 L 473.99 192.69 L 476.17 192.67 L 478.35 192.67 L 480.53 192.68 L 482.71 192.64 L 484.89 192.63 L 487.07 192.63 L 489.26 190.39 L 491.44 189.96 L 493.62 189.85 L 495.80 189.53 L 497.98 189.52 L 500.16 189.36 L 502.34 187.79 L 504.52 187.36 L 506.70 181.35 L 508.88 181.35 L 511.06 180.72 L 513.24 180.71 L 515.43 180.26 L 517.61 179.68 L 519.79 179.67 L 521.97 178.77 L 524.15 177.57 L 526.33 175.55 L 528.51 174.52 L 530.69 173.86 L 532.87 174.17 L 535.05 173.10 L 537.23 173.10 L 539.41 171.18 L 541.60 168.37 L 543.78 168.37 L 545.96 165.86 L 548.14 163.63 L 550.32 163.63 L 552.50 163.62 L 554.68 162.88 L 556.86 161.06 L 559.04 193.89 L 561.22 193.22 L 563.40 192.73 L 565.59 192.34 L 567.77 189.45 L 569.95 188.03 L 572.13 188.03 L 574.31 180.86 L 576.49 148.96 L 578.67 144.25 L 580.85 176.00 L 583.03 176.17 L 585.21 175.77 L 587.39 175.72 L 589.57 197.26 L 591.76 197.26 L 593.94 197.06 L 596.12 196.44 L 598.30 194.49 L 600.48 194.50 L 602.66 194.49 L 604.84 194.49 L 607.02 194.49 L 609.20 194.48 L 611.38 194.48 L 613.56 194.62 L 615.74 206.08 L 617.93 206.08 L 620.11 206.05 L 622.29 206.04 L 624.47 205.22 L 626.65 204.28 L 628.83 204.28 L 631.01 204.28 L 633.19 200.22 L 635.37 204.28 L 637.55 204.28 L 639.73 204.28 L 641.91 198.60 L 644.10 198.60 L 646.28 198.60 L 648.46 198.60 L 650.64 193.00 L 652.82 193.00 L 655.00 188.39 L 657.18 188.39 L 659.36 179.75 L 661.54 174.84 L 663.72 173.23 L 665.90 170.37 L 668.09 169.87 L 670.27 153.88 L 672.45 149.24 L 674.63 152.04 L 676.81 141.93 L 678.99 141.88 L 681.17 141.69 L 683.35 141.69 L 685.53 141.76 L 687.71 141.75 L 689.89 140.68 L 692.07 141.38 L 694.26 141.36 L 696.44 141.83 L 698.62 141.39 L 700.80 141.39 L 702.98 141.52 L 705.16 141.52 L 707.34 141.53 L 709.52 142.33 L 711.70 141.73 L 713.88 141.68 L 716.06 141.68 L 718.24 141.66 L 720.43 141.67 L 722.61 141.65 L 724.79 139.51 L 726.97 136.07 L 729.15 136.04 L 731.33 133.43 L 733.51 131.89 L 735.69 131.13 L 737.87 131.51 L 740.05 131.50 L 742.23 131.57 L 744.41 131.56 L 746.60 131.49 L 748.78 131.49 L 750.96 131.49 L 753.14 131.49 L 755.32 131.49 L 757.50 131.49 L 759.68 131.49 L 761.86 131.49 L 764.04 131.49 L 766.22 131.49 L 768.40 131.49 L 770.59 131.49 L 772.77 131.49 L 774.95 131.49 L 777.13 131.49 L 779.31 131.49 L 781.49 131.49 L 783.67 131.49 L 785.85 131.49 L 788.03 131.49 L 790.21 131.49 L 792.39 131.49 L 794.57 131.49 L 796.76 131.49 L 798.94 131.49 L 801.12 131.49 L 803.30 131.49 L 805.48 131.49 L 807.66 131.49 L 809.84 131.49 L 812.02 131.49 L 814.20 131.49 L 816.38 131.49 L 818.56 131.49 L 820.74 131.49 L 822.93 131.49 L 825.11 131.49 L 827.29 131.49 L 829.47 131.49 L 831.65 131.49 L 833.83 131.49 L 836.01 131.49 L 838.19 131.49 L 840.37 131.49 L 842.55 131.49 L 844.73 131.49 L 846.91 131.49 L 849.10 131.49 L 851.28 131.49 L 853.46 131.49 L 855.64 131.49 L 857.82 131.49 L 860.00 131.49" fill="none" stroke="#111827" stroke-width="2"/>
    <circle cx="860.00" cy="131.49" r="3" fill="#111827"/>
    <text x="40.00" y="235.00" font-size="9" fill="#111827" text-anchor="middle" transform="rotate(-45 40.00 235.00)">27.09.2025</text><text x="120.69" y="235.00" font-size="9" fill="#111827" text-anchor="middle" transform="rotate(-45 120.69 235.00)">28.09.2025</text><text x="201.38" y="235.00" font-size="9" fill="#111827" text-anchor="middle" transform="rotate(-45 201.38 235.00)">28.09.2025</text><text x="282.07" y="235.00" font-size="9" fill="#111827" text-anchor="middle" transform="rotate(-45 282.07 235.00)">04.10.2025</text><text x="362.77" y="235.00" font-size="9" fill="#111827" text-anchor="middle" transform="rotate(-45 362.77 235.00)">04.10.2025</text><text x="443.46" y="235.00" font-size="9" fill="#111827" text-anchor="middle" transform="rotate(-45 443.46 235.00)">04.10.2025</text><text x="524.15" y="235.00" font-size="9" fill="#111827" text-anchor="middle" transform="rotate(-45 524.15 235.00)">04.10.2025</text><text x="604.84" y="235.00" font-size="9" fill="#111827" text-anchor="middle" transform="rotate(-45 604.84 235.00)">05.10.2025</text><text x="685.53" y="235.00" font-size="9" fill="#111827" text-anchor="middle" transform="rotate(-45 685.53 235.00)">08.10.2025</text><text x="766.22" y="235.00" font-size="9" fill="#111827" text-anchor="middle" transform="rotate(-45 766.22 235.00)">18.10.2025</text><text x="846.91" y="235.00" font-size="9" fill="#111827" text-anchor="middle" transform="rotate(-45 846.91 235.00)">24.11.2025</text>
  </g>
</svg>