<svg xmlns="http://www.w3.org/2000/svg" width="900" height="290" style="font-family: -apple-system, BlinkMacSystemFont, 'Segoe UI', Helvetica, Arial, sans-serif;">
  <rect width="100%" height="100%" fill="white"/>
  <g>
    <line x1="40" y1="220.00" x2="860" y2="220.00" stroke="#e5e7eb"/><text x="32" y="224.00" font-size="10" fill="#111827" text-anchor="end">0</text><line x1="40" y1="175.00" x2="860" y2="175.00" stroke="#e5e7eb"/><text x="32" y="179.00" font-size="10" fill="#111827" text-anchor="end">25k</text><line x1="40" y1="130.00" x2="860" y2="130.00" stroke="#e5e7eb"/><text x="32" y="134.00" font-size="10" fill="#111827" text-anchor="end">50k</text><line x1="40" y1="85.00" x2="860" y2="85.00" stroke="#e5e7eb"/><text x="32" y="89.00" font-size="10" fill="#111827" text-anchor="end">75k</text><line x1="40" y1="40.00" x2="860" y2="40.00" stroke="#e5e7eb"/><text x="32" y="44.00" font-size="10" fill="#111827" text-anchor="end">100k</text>
    <line x1="40.00" y1="40" x2="40.00" y2="220" stroke="#e5e7eb" opacity="0.5"/><line x1="120.44" y1="40" x2="120.44" y2="220" stroke="#e5e7eb" opacity="0.5"/><line x1="200.87" y1="40" x2="200.87" y2="220" stroke="#e5e7eb" opacity="0.5"/><line x1="281.31" y1="40" x2="281.31" y2="220" stroke="#e5e7eb" opacity="0.5"/><line x1="361.74" y1="40" x2="361.74" y2="220" stroke="#e5e7eb" opacity="0.5"/><line x1="442.18" y1="40" x2="442.18" y2="220" stroke="#e5e7eb" opacity="0.5"/><line x1="522.62" y1="40" x2="522.62" y2="220" stroke="#e5e7eb" opacity="0.5"/><line x1="603.05" y1="40" x2="603.05" y2="220" stroke="#e5e7eb" opacity="0.5"/><line x1="683.49" y1="40" x2="683.49" y2="220" stroke="#e5e7eb" opacity="0.5"/><line x1="763.92" y1="40" x2="763.92" y2="220" stroke="#e5e7eb" opacity="0.5"/><line x1="844.36" y1="40" x2="844.36" y2="220" stroke="#e5e7eb" opacity="0.5"/>
    <line x1="40" y1="220" x2="860" y2="220" stroke="#9ca3af"/>
    <line x1="40" y1="40"   x2="40"   y2="220" stroke="#9ca3af"/>
    <path d="M 40.00 220.00 L 42.23 220.00 L 44.47 219.60 L 46.70 219.62 L 48.94 219.63 L 51.17 219.32 L 53.41 219.31 L 55.64 219.26 L 57.87 218.89 L 60.11 218.89 L 62.34 218.89 L 64.58 218.87 L 66.81 218.87 L 69.05 218.86 L 71.28 218.85 L 73.51 218.85 L 75.75 218.82 L 77.98 218.78 L 80.22 218.72 L 82.45 218.68 L 84.69 218.64 L 86.92 218.59 L 89.16 218.59 L 91.39 218.57 L 93.62 218.57 L 95.86 218.57 L 98.09 218.57 L 100.33 218.57 L 102.56 218.57 L 104.80 218.57 L 107.03 218.57 L 109.26 218.57 L 111.50 218.55 L 113.73 218.54 L 115.97 218.58 L 118.20 218.55 L 120.44 218.55 L 122.67 218.53 L 124.90 218.31 L 127.14 217.94 L 129.37 217.88 L 131.61 217.87 L 133.84 217.86 L 136.08 217.85 L 138.31 217.84 L 140.54 217.85 L 142.78 217.82 L 145.01 217.66 L 147.25 217.61 L 149.48 217.60 L 151.72 217.57 L 153.95 217.56 L 156.19 217.52 L 158.42 217.38 L 160.65 217.24 L 162.89 216.93 L 165.12 216.65 L 167.36 216.44 L 169.59 216.39 L 171.83 216.34 L 174.06 216.83 L 176.29 200.94 L 178.53 200.94 L 180.76 200.95 L 183.00 198.99 L 185.23 198.98 L 187.47 198.94 L 189.70 198.94 L 191.93 198.91 L 194.17 198.90 L 196.40 198.93 L 198.64 198.93 L 200.87 198.99 L 203.11 198.95 L 205.34 198.96 L 207.57 198.95 L 209.81 198.95 L 212.04 198.97 L 214.28 198.97 L 216.51 198.97 L 218.75 198.97 L 220.98 198.97 L 223.22 198.97 L 225.45 198.97 L 227.68 198.97 L 229.92 198.97 L 232.15 198.97 L 234.39 198.97 L 236.62 197.51 L 238.86 197.43 L 241.09 197.40 L 243.32 197.38 L 245.56 197.38 L 247.79 197.49 L 250.03 197.34 L 252.26 197.33 L 254.50 197.18 L 256.73 197.41 L 258.96 197.41 L 261.20 197.29 L 263.43 197.29 L 265.67 197.22 L 267.90 197.21 L 270.14 197.15 L 272.37 196.94 L 274.60 197.00 L 276.84 197.41 L 279.07 197.41 L 281.31 197.30 L 283.54 197.26 L 285.78 197.19 L 288.01 197.19 L 290.25 197.19 L 292.48 197.19 L 294.71 197.18 L 296.95 197.12 L 299.18 197.09 L 301.42 197.04 L 303.65 197.00 L 305.89 196.96 L 308.12 196.92 L 310.35 196.91 L 312.59 196.86 L 314.82 196.80 L 317.06 196.75 L 319.29 196.69 L 321.53 196.66 L 323.76 196.63 L 325.99 196.56 L 328.23 196.51 L 330.46 196.47 L 332.70 196.45 L 334.93 196.40 L 337.17 196.37 L 339.40 196.34 L 341.63 196.28 L 343.87 196.20 L 346.10 196.12 L 348.34 196.02 L 350.57 195.89 L 352.81 195.77 L 355.04 195.68 L 357.28 195.63 L 359.51 195.58 L 361.74 195.53 L 363.98 195.44 L 366.21 195.35 L 368.45 195.22 L 370.68 195.11 L 372.92 194.95 L 375.15 194.82 L 377.38 194.68 L 379.62 194.57 L 381.85 194.55 L 384.09 194.51 L 386.32 194.48 L 388.56 194.44 L 390.79 194.40 L 393.02 194.37 L 395.26 194.34 L 397.49 194.29 L 399.73 194.25 L 401.96 194.23 L 404.20 194.21 L 406.43 194.19 L 408.66 194.16 L 410.90 194.12 L 413.13 194.07 L 415.37 193.99 L 417.60 193.94 L 419.84 193.87 L 422.07 193.80 L 424.31 193.74 L 426.54 193.72 L 428.77 193.70 L 431.01 193.66 L 433.24 193.62 L 435.48 193.56 L 437.71 193.49 L 439.95 193.43 L 442.18 193.35 L 444.41 193.27 L 446.65 193.20 L 448.88 193.14 L 451.12 193.15 L 453.35 193.15 L 455.59 193.15 L 457.82 193.18 L 460.05 193.09 L 462.29 193.07 L 464.52 193.07 L 466.76 193.08 L 468.99 193.00 L 471.23 192.95 L 473.46 192.95 L 475.69 192.95 L 477.93 192.95 L 480.16 192.80 L 482.40 192.73 L 484.63 192.69 L 486.87 192.67 L 489.10 192.67 L 491.34 192.68 L 493.57 192.64 L 495.80 192.63 L 498.04 192.63 L 500.27 190.39 L 502.51 189.96 L 504.74 189.85 L 506.98 189.53 L 509.21 189.52 L 511.44 189.36 L 513.68 187.79 L 515.91 187.36 L 518.15 181.35 L 520.38 181.35 L 522.62 180.72 L 524.85 180.71 L 527.08 180.26 L 529.32 179.68 L 531.55 179.67 L 533.79 178.77 L 536.02 177.57 L 538.26 175.55 L 540.49 174.52 L 542.72 173.86 L 544.96 174.17 L 547.19 173.10 L 549.43 173.10 L 551.66 171.18 L 553.90 168.37 L 556.13 168.37 L 558.37 165.86 L 560.60 163.63 L 562.83 163.63 L 565.07 163.62 L 567.30 162.88 L 569.54 161.06 L 571.77 193.89 L 574.01 193.22 L 576.24 192.73 L 578.47 192.34 L 580.71 189.45 L 582.94 188.03 L 585.18 188.03 L 587.41 180.86 L 589.65 148.96 L 591.88 144.25 L 594.11 176.00 L 596.35 176.17 L 598.58 175.77 L 600.82 175.72 L 603.05 197.26 L 605.29 197.26 L 607.52 197.06 L 609.75 196.44 L 611.99 194.49 L 614.22 194.50 L 616.46 194.49 L 618.69 194.49 L 620.93 194.49 L 623.16 194.48 L 625.40 194.48 L 627.63 194.62 L 629.86 206.08 L 632.10 206.08 L 634.33 206.05 L 636.57 206.04 L 638.80 205.22 L 641.04 204.28 L 643.27 204.28 L 645.50 204.28 L 647.74 200.22 L 649.97 204.28 L 652.21 204.28 L 654.44 204.28 L 656.68 198.60 L 658.91 198.60 L 661.14 198.60 L 663.38 198.60 L 665.61 193.00 L 667.85 193.00 L 670.08 188.39 L 672.32 188.39 L 674.55 179.75 L 676.78 174.84 L 679.02 173.23 L 681.25 170.37 L 683.49 169.87 L 685.72 153.88 L 687.96 149.24 L 690.19 152.04 L 692.43 141.93 L 694.66 141.88 L 696.89 141.69 L 699.13 141.69 L 701.36 141.76 L 703.60 141.75 L 705.83 140.68 L 708.07 141.38 L 710.30 141.36 L 712.53 141.83 L 714.77 141.39 L 717.00 141.39 L 719.24 141.52 L 721.47 141.52 L 723.71 141.53 L 725.94 142.33 L 728.17 141.73 L 730.41 141.68 L 732.64 141.68 L 734.88 141.66 L 737.11 141.67 L 739.35 141.65 L 741.58 139.51 L 743.81 136.07 L 746.05 136.04 L 748.28 133.43 L 750.52 131.89 L 752.75 131.13 L 754.99 131.51 L 757.22 131.50 L 759.46 131.57 L 761.69 131.56 L 763.92 131.49 L 766.16 131.49 L 768.39 131.49 L 770.63 131.49 L 772.86 131.49 L 775.10 131.49 L 777.33 131.49 L 779.56 131.49 L 781.80 131.49 L 784.03 131.49 L 786.27 131.49 L 788.50 131.49 L 790.74 131.49 L 792.97 131.49 L 795.20 131.49 L 797.44 131.49 L 799.67 131.49 L 801.91 131.49 L 804.14 131.49 L 806.38 131.49 L 808.61 131.49 L 810.84 131.49 L 813.08 131.49 L 815.31 131.49 L 817.55 131.49 L 819.78 131.49 L 822.02 131.49 L 824.25 131.49 L 826.49 131.49 L 828.72 131.49 L 830.95 131.49 L 833.19 131.49 L 835.42 131.49 L 837.66 131.49 L 839.89 131.49 L 842.13 131.49 L 844.36 131.49 L 846.59 131.49 L 848.83 131.49 L 851.06 131.49 L 853.30 131.49 L 855.53 131.49 L 857.77 131.49 L 860.00 131.49" fill="none" stroke="#111827" stroke-width="2"/>
    <circle cx="860.00" cy="131.49" r="3" fill="#111827"/>
    <text x="40.00" y="235.00" font-size="9" fill="#111827" text-anchor="middle" transform="rotate(-45 40.00 235.00)">27.09.2025</text><text x="120.44" y="235.00" font-size="9" fill="#111827" text-anchor="middle" transform="rotate(-45 120.44 235.00)">28.09.2025</text><text x="200.87" y="235.00" font-size="9" fill="#111827" text-anchor="middle" transform="rotate(-45 200.87 235.00)">28.09.2025</text><text x="281.31" y="235.00" font-size="9" fill="#111827" text-anchor="middle" transform="rotate(-45 281.31 235.00)">30.09.2025</text><text x="361.74" y="235.00" font-size="9" fill="#111827" text-anchor="middle" transform="rotate(-45 361.74 235.00)">04.10.2025</text><text x="442.18" y="235.00" font-size="9" fill="#111827" text-anchor="middle" transform="rotate(-45 442.18 235.00)">04.10.2025</text><text x="522.62" y="235.00" font-size="9" fill="#111827" text-anchor="middle" transform="rotate(-45 522.62 235.00)">04.10.2025</text><text x="603.05" y="235.00" font-size="9" fill="#111827" text-anchor="middle" transform="rotate(-45 603.05 235.00)">05.10.2025</text><text x="683.49" y="235.00" font-size="9" fill="#111827" text-anchor="middle" transform="rotate(-45 683.49 235.00)">08.10.2025</text><text x="763.92" y="235.00" font-size="9" fill="#111827" text-anchor="middle" transform="rotate(-45 763.92 235.00)">10.10.2025</text><text x="844.36" y="235.00" font-size="9" fill="#111827" text-anchor="middle" transform="rotate(-45 844.36 235.00)">14.11.2025</text>
  </g>
</svg>