<svg xmlns="http://www.w3.org/2000/svg" width="900" height="290" style="font-family: -apple-system, BlinkMacSystemFont, 'Segoe UI', Helvetica, Arial, sans-serif;">
  <rect width="100%" height="100%" fill="white"/>
  <g>
    <line x1="40" y1="220.00" x2="860" y2="220.00" stroke="#e5e7eb"/><text x="32" y="224.00" font-size="10" fill="#111827" text-anchor="end">0</text><line x1="40" y1="175.00" x2="860" y2="175.00" stroke="#e5e7eb"/><text x="32" y="179.00" font-size="10" fill="#111827" text-anchor="end">25k</text><line x1="40" y1="130.00" x2="860" y2="130.00" stroke="#e5e7eb"/><text x="32" y="134.00" font-size="10" fill="#111827" text-anchor="end">50k</text><line x1="40" y1="85.00" x2="860" y2="85.00" stroke="#e5e7eb"/><text x="32" y="89.00" font-size="10" fill="#111827" text-anchor="end">75k</text><line x1="40" y1="40.00" x2="860" y2="40.00" stroke="#e5e7eb"/><text x="32" y="44.00" font-size="10" fill="#111827" text-anchor="end">100k</text>
    <line x1="40.00" y1="40" x2="40.00" y2="220" stroke="#e5e7eb" opacity="0.5"/><line x1="120.66" y1="40" x2="120.66" y2="220" stroke="#e5e7eb" opacity="0.5"/><line x1="201.31" y1="40" x2="201.31" y2="220" stroke="#e5e7eb" opacity="0.5"/><line x1="281.97" y1="40" x2="281.97" y2="220" stroke="#e5e7eb" opacity="0.5"/><line x1="362.62" y1="40" x2="362.62" y2="220" stroke="#e5e7eb" opacity="0.5"/><line x1="443.28" y1="40" x2="443.28" y2="220" stroke="#e5e7eb" opacity="0.5"/><line x1="523.93" y1="40" x2="523.93" y2="220" stroke="#e5e7eb" opacity="0.5"/><line x1="604.59" y1="40" x2="604.59" y2="220" stroke="#e5e7eb" opacity="0.5"/><line x1="685.25" y1="40" x2="685.25" y2="220" stroke="#e5e7eb" opacity="0.5"/><line x1="765.90" y1="40" x2="765.90" y2="220" stroke="#e5e7eb" opacity="0.5"/><line x1="846.56" y1="40" x2="846.56" y2="220" stroke="#e5e7eb" opacity="0.5"/>
    <line x1="40" y1="220" x2="860" y2="220" stroke="#9ca3af"/>
    <line x1="40" y1="40"   x2="40"   y2="220" stroke="#9ca3af"/>
    <path d="M 40.00 220.00 L 42.24 220.00 L 44.48 219.60 L 46.72 219.62 L 48.96 219.63 L 51.20 219.32 L 53.44 219.31 L 55.68 219.26 L 57.92 218.89 L 60.16 218.89 L 62.40 218.89 L 64.64 218.87 L 66.89 218.87 L 69.13 218.86 L 71.37 218.85 L 73.61 218.85 L 75.85 218.82 L 78.09 218.78 L 80.33 218.72 L 82.57 218.68 L 84.81 218.64 L 87.05 218.59 L 89.29 218.59 L 91.53 218.57 L 93.77 218.57 L 96.01 218.57 L 98.25 218.57 L 100.49 218.57 L 102.73 218.57 L 104.97 218.57 L 107.21 218.57 L 109.45 218.57 L 111.69 218.55 L 113.93 218.54 L 116.17 218.58 L 118.42 218.55 L 120.66 218.55 L 122.90 218.53 L 125.14 218.31 L 127.38 217.94 L 129.62 217.88 L 131.86 217.87 L 134.10 217.86 L 136.34 217.85 L 138.58 217.84 L 140.82 217.85 L 143.06 217.82 L 145.30 217.66 L 147.54 217.61 L 149.78 217.60 L 152.02 217.57 L 154.26 217.56 L 156.50 217.52 L 158.74 217.38 L 160.98 217.24 L 163.22 216.93 L 165.46 216.65 L 167.70 216.44 L 169.95 216.39 L 172.19 216.34 L 174.43 216.83 L 176.67 200.94 L 178.91 200.94 L 181.15 200.95 L 183.39 198.99 L 185.63 198.98 L 187.87 198.94 L 190.11 198.94 L 192.35 198.91 L 194.59 198.90 L 196.83 198.93 L 199.07 198.93 L 201.31 198.99 L 203.55 198.95 L 205.79 198.96 L 208.03 198.95 L 210.27 198.95 L 212.51 198.97 L 214.75 198.97 L 216.99 198.97 L 219.23 198.97 L 221.48 198.97 L 223.72 198.97 L 225.96 198.97 L 228.20 198.97 L 230.44 198.97 L 232.68 198.97 L 234.92 198.97 L 237.16 197.51 L 239.40 197.43 L 241.64 197.40 L 243.88 197.38 L 246.12 197.38 L 248.36 197.49 L 250.60 197.34 L 252.84 197.33 L 255.08 197.18 L 257.32 197.41 L 259.56 197.41 L 261.80 197.29 L 264.04 197.29 L 266.28 197.22 L 268.52 197.21 L 270.77 197.15 L 273.01 196.94 L 275.25 197.00 L 277.49 197.41 L 279.73 197.41 L 281.97 197.30 L 284.21 197.26 L 286.45 197.19 L 288.69 197.19 L 290.93 197.19 L 293.17 197.19 L 295.41 197.18 L 297.65 197.12 L 299.89 197.09 L 302.13 197.04 L 304.37 197.00 L 306.61 196.96 L 308.85 196.92 L 311.09 196.91 L 313.33 196.86 L 315.57 196.80 L 317.81 196.75 L 320.05 196.69 L 322.30 196.66 L 324.54 196.63 L 326.78 196.56 L 329.02 196.51 L 331.26 196.47 L 333.50 196.45 L 335.74 196.40 L 337.98 196.37 L 340.22 196.34 L 342.46 196.28 L 344.70 196.20 L 346.94 196.12 L 349.18 196.02 L 351.42 195.89 L 353.66 195.77 L 355.90 195.68 L 358.14 195.63 L 360.38 195.58 L 362.62 195.53 L 364.86 195.44 L 367.10 195.35 L 369.34 195.22 L 371.58 195.11 L 373.83 194.95 L 376.07 194.82 L 378.31 194.68 L 380.55 194.57 L 382.79 194.55 L 385.03 194.51 L 387.27 194.48 L 389.51 194.44 L 391.75 194.40 L 393.99 194.37 L 396.23 194.34 L 398.47 194.29 L 400.71 194.25 L 402.95 194.23 L 405.19 194.21 L 407.43 194.19 L 409.67 194.16 L 411.91 194.12 L 414.15 194.07 L 416.39 193.99 L 418.63 193.94 L 420.87 193.87 L 423.11 193.80 L 425.36 193.74 L 427.60 193.72 L 429.84 193.70 L 432.08 193.66 L 434.32 193.62 L 436.56 193.56 L 438.80 193.49 L 441.04 193.43 L 443.28 193.35 L 445.52 193.27 L 447.76 193.20 L 450.00 193.14 L 452.24 193.15 L 454.48 193.15 L 456.72 193.15 L 458.96 193.18 L 461.20 193.09 L 463.44 193.07 L 465.68 193.07 L 467.92 193.08 L 470.16 193.00 L 472.40 192.95 L 474.64 192.95 L 476.89 192.95 L 479.13 192.95 L 481.37 192.80 L 483.61 192.73 L 485.85 192.69 L 488.09 192.67 L 490.33 192.67 L 492.57 192.68 L 494.81 192.64 L 497.05 192.63 L 499.29 192.63 L 501.53 190.39 L 503.77 189.96 L 506.01 189.85 L 508.25 189.53 L 510.49 189.52 L 512.73 189.36 L 514.97 187.79 L 517.21 187.36 L 519.45 181.35 L 521.69 181.35 L 523.93 180.72 L 526.17 180.71 L 528.42 180.26 L 530.66 179.68 L 532.90 179.67 L 535.14 178.77 L 537.38 177.57 L 539.62 175.55 L 541.86 174.52 L 544.10 173.86 L 546.34 174.17 L 548.58 173.10 L 550.82 173.10 L 553.06 171.18 L 555.30 168.37 L 557.54 168.37 L 559.78 165.86 L 562.02 163.63 L 564.26 163.63 L 566.50 163.62 L 568.74 162.88 L 570.98 161.06 L 573.22 193.89 L 575.46 193.22 L 577.70 192.73 L 579.95 192.34 L 582.19 189.45 L 584.43 188.03 L 586.67 188.03 L 588.91 180.86 L 591.15 148.96 L 593.39 144.25 L 595.63 176.00 L 597.87 176.17 L 600.11 175.77 L 602.35 175.72 L 604.59 197.26 L 606.83 197.26 L 609.07 197.06 L 611.31 196.44 L 613.55 194.49 L 615.79 194.50 L 618.03 194.49 L 620.27 194.49 L 622.51 194.49 L 624.75 194.48 L 626.99 194.48 L 629.23 194.62 L 631.48 206.08 L 633.72 206.08 L 635.96 206.05 L 638.20 206.04 L 640.44 205.22 L 642.68 204.28 L 644.92 204.28 L 647.16 204.28 L 649.40 200.22 L 651.64 204.28 L 653.88 204.28 L 656.12 204.28 L 658.36 198.60 L 660.60 198.60 L 662.84 198.60 L 665.08 198.60 L 667.32 193.00 L 669.56 193.00 L 671.80 188.39 L 674.04 188.39 L 676.28 179.75 L 678.52 174.84 L 680.77 173.23 L 683.01 170.37 L 685.25 169.87 L 687.49 153.88 L 689.73 149.24 L 691.97 152.04 L 694.21 141.93 L 696.45 141.88 L 698.69 141.69 L 700.93 141.69 L 703.17 141.76 L 705.41 141.75 L 707.65 140.68 L 709.89 141.38 L 712.13 141.36 L 714.37 141.83 L 716.61 141.39 L 718.85 141.39 L 721.09 141.52 L 723.33 141.52 L 725.57 141.53 L 727.81 142.33 L 730.05 141.73 L 732.30 141.68 L 734.54 141.68 L 736.78 141.66 L 739.02 141.67 L 741.26 141.65 L 743.50 139.51 L 745.74 136.07 L 747.98 136.04 L 750.22 133.43 L 752.46 131.89 L 754.70 131.13 L 756.94 131.51 L 759.18 131.50 L 761.42 131.57 L 763.66 131.56 L 765.90 131.49 L 768.14 131.49 L 770.38 131.49 L 772.62 131.49 L 774.86 131.49 L 777.10 131.49 L 779.34 131.49 L 781.58 131.49 L 783.83 131.49 L 786.07 131.49 L 788.31 131.49 L 790.55 131.49 L 792.79 131.49 L 795.03 131.49 L 797.27 131.49 L 799.51 131.49 L 801.75 131.49 L 803.99 131.49 L 806.23 131.49 L 808.47 131.49 L 810.71 131.49 L 812.95 131.49 L 815.19 131.49 L 817.43 131.49 L 819.67 131.49 L 821.91 131.49 L 824.15 131.49 L 826.39 131.49 L 828.63 131.49 L 830.87 131.49 L 833.11 131.49 L 835.36 131.49 L 837.60 131.49 L 839.84 131.49 L 842.08 131.49 L 844.32 131.49 L 846.56 131.49 L 848.80 131.49 L 851.04 131.49 L 853.28 131.49 L 855.52 131.49 L 857.76 131.49 L 860.00 131.49" fill="none" stroke="#111827" stroke-width="2"/>
    <circle cx="860.00" cy="131.49" r="3" fill="#111827"/>
    <text x="40.00" y="235.00" font-size="9" fill="#111827" text-anchor="middle" transform="rotate(-45 40.00 235.00)">27.09.2025</text><text x="120.66" y="235.00" font-size="9" fill="#111827" text-anchor="middle" transform="rotate(-45 120.66 235.00)">28.09.2025</text><text x="201.31" y="235.00" font-size="9" fill="#111827" text-anchor="middle" transform="rotate(-45 201.31 235.00)">28.09.2025</text><text x="281.97" y="235.00" font-size="9" fill="#111827" text-anchor="middle" transform="rotate(-45 281.97 235.00)">30.09.2025</text><text x="362.62" y="235.00" font-size="9" fill="#111827" text-anchor="middle" transform="rotate(-45 362.62 235.00)">04.10.2025</text><text x="443.28" y="235.00" font-size="9" fill="#111827" text-anchor="middle" transform="rotate(-45 443.28 235.00)">04.10.2025</text><text x="523.93" y="235.00" font-size="9" fill="#111827" text-anchor="middle" transform="rotate(-45 523.93 235.00)">04.10.2025</text><text x="604.59" y="235.00" font-size="9" fill="#111827" text-anchor="middle" transform="rotate(-45 604.59 235.00)">05.10.2025</text><text x="685.25" y="235.00" font-size="9" fill="#111827" text-anchor="middle" transform="rotate(-45 685.25 235.00)">08.10.2025</text><text x="765.90" y="235.00" font-size="9" fill="#111827" text-anchor="middle" transform="rotate(-45 765.90 235.00)">10.10.2025</text><text x="846.56" y="235.00" font-size="9" fill="#111827" text-anchor="middle" transform="rotate(-45 846.56 235.00)">14.11.2025</text>
  </g>
</svg>