<svg xmlns="http://www.w3.org/2000/svg" width="900" height="290" style="font-family: -apple-system, BlinkMacSystemFont, 'Segoe UI', Helvetica, Arial, sans-serif;">
  <rect width="100%" height="100%" fill="#0d1117"/>
  <g>
    <line x1="40" y1="220.00" x2="860" y2="220.00" stroke="#30363d"/><text x="32" y="224.00" font-size="10" fill="#c9d1d9" text-anchor="end">0</text><line x1="40" y1="175.00" x2="860" y2="175.00" stroke="#30363d"/><text x="32" y="179.00" font-size="10" fill="#c9d1d9" text-anchor="end">25k</text><line x1="40" y1="130.00" x2="860" y2="130.00" stroke="#30363d"/><text x="32" y="134.00" font-size="10" fill="#c9d1d9" text-anchor="end">50k</text><line x1="40" y1="85.00" x2="860" y2="85.00" stroke="#30363d"/><text x="32" y="89.00" font-size="10" fill="#c9d1d9" text-anchor="end">75k</text><line x1="40" y1="40.00" x2="860" y2="40.00" stroke="#30363d"/><text x="32" y="44.00" font-size="10" fill="#c9d1d9" text-anchor="end">100k</text>
    <line x1="40.00" y1="40" x2="40.00" y2="220" stroke="#30363d" opacity="0.5"/><line x1="121.15" y1="40" x2="121.15" y2="220" stroke="#30363d" opacity="0.5"/><line x1="202.29" y1="40" x2="202.29" y2="220" stroke="#30363d" opacity="0.5"/><line x1="283.44" y1="40" x2="283.44" y2="220" stroke="#30363d" opacity="0.5"/><line x1="364.58" y1="40" x2="364.58" y2="220" stroke="#30363d" opacity="0.5"/><line x1="445.73" y1="40" x2="445.73" y2="220" stroke="#30363d" opacity="0.5"/><line x1="526.88" y1="40" x2="526.88" y2="220" stroke="#30363d" opacity="0.5"/><line x1="608.02" y1="40" x2="608.02" y2="220" stroke="#30363d" opacity="0.5"/><line x1="689.17" y1="40" x2="689.17" y2="220" stroke="#30363d" opacity="0.5"/><line x1="770.31" y1="40" x2="770.31" y2="220" stroke="#30363d" opacity="0.5"/><line x1="851.46" y1="40" x2="851.46" y2="220" stroke="#30363d" opacity="0.5"/>
    <line x1="40" y1="220" x2="860" y2="220" stroke="#30363d"/>
    <line x1="40" y1="40"   x2="40"   y2="220" stroke="#30363d"/>
    <path d="M 40.00 220.00 L 42.14 220.00 L 44.27 219.60 L 46.41 219.62 L 48.54 219.63 L 50.68 219.32 L 52.81 219.31 L 54.95 219.26 L 57.08 218.89 L 59.22 218.89 L 61.35 218.89 L 63.49 218.87 L 65.62 218.87 L 67.76 218.86 L 69.90 218.85 L 72.03 218.85 L 74.17 218.82 L 76.30 218.78 L 78.44 218.72 L 80.57 218.68 L 82.71 218.64 L 84.84 218.59 L 86.98 218.59 L 89.11 218.57 L 91.25 218.57 L 93.39 218.57 L 95.52 218.57 L 97.66 218.57 L 99.79 218.57 L 101.93 218.57 L 104.06 218.57 L 106.20 218.57 L 108.33 218.55 L 110.47 218.54 L 112.60 218.58 L 114.74 218.55 L 116.88 218.55 L 119.01 218.53 L 121.15 218.31 L 123.28 217.94 L 125.42 217.88 L 127.55 217.87 L 129.69 217.86 L 131.82 217.85 L 133.96 217.84 L 136.09 217.85 L 138.23 217.82 L 140.36 217.66 L 142.50 217.61 L 144.64 217.60 L 146.77 217.57 L 148.91 217.56 L 151.04 217.52 L 153.18 217.38 L 155.31 217.24 L 157.45 216.93 L 159.58 216.65 L 161.72 216.44 L 163.85 216.39 L 165.99 216.34 L 168.12 216.83 L 170.26 200.94 L 172.40 200.94 L 174.53 200.95 L 176.67 198.99 L 178.80 198.98 L 180.94 198.94 L 183.07 198.94 L 185.21 198.91 L 187.34 198.90 L 189.48 198.93 L 191.61 198.93 L 193.75 198.99 L 195.89 198.95 L 198.02 198.96 L 200.16 198.95 L 202.29 198.95 L 204.43 198.97 L 206.56 198.97 L 208.70 198.97 L 210.83 198.97 L 212.97 198.97 L 215.10 198.97 L 217.24 198.97 L 219.38 198.97 L 221.51 198.97 L 223.65 198.97 L 225.78 198.97 L 227.92 197.51 L 230.05 197.43 L 232.19 197.40 L 234.32 197.38 L 236.46 197.38 L 238.59 197.49 L 240.73 197.34 L 242.86 197.33 L 245.00 197.18 L 247.14 197.41 L 249.27 197.41 L 251.41 197.29 L 253.54 197.29 L 255.68 197.22 L 257.81 197.21 L 259.95 197.15 L 262.08 196.94 L 264.22 197.00 L 266.35 197.41 L 268.49 197.41 L 270.62 197.30 L 272.76 197.26 L 274.90 197.19 L 277.03 197.19 L 279.17 197.19 L 281.30 197.19 L 283.44 197.18 L 285.57 197.12 L 287.71 197.09 L 289.84 197.04 L 291.98 197.00 L 294.11 196.96 L 296.25 196.92 L 298.39 196.91 L 300.52 196.86 L 302.66 196.80 L 304.79 196.75 L 306.93 196.69 L 309.06 196.66 L 311.20 196.63 L 313.33 196.56 L 315.47 196.51 L 317.60 196.47 L 319.74 196.45 L 321.88 196.40 L 324.01 196.37 L 326.15 196.34 L 328.28 196.28 L 330.42 196.20 L 332.55 196.12 L 334.69 196.02 L 336.82 195.89 L 338.96 195.77 L 341.09 195.68 L 343.23 195.63 L 345.36 195.58 L 347.50 195.53 L 349.64 195.44 L 351.77 195.35 L 353.91 195.22 L 356.04 195.11 L 358.18 194.95 L 360.31 194.82 L 362.45 194.68 L 364.58 194.57 L 366.72 194.55 L 368.85 194.51 L 370.99 194.48 L 373.12 194.44 L 375.26 194.40 L 377.40 194.37 L 379.53 194.34 L 381.67 194.29 L 383.80 194.25 L 385.94 194.23 L 388.07 194.21 L 390.21 194.19 L 392.34 194.16 L 394.48 194.12 L 396.61 194.07 L 398.75 193.99 L 400.89 193.94 L 403.02 193.87 L 405.16 193.80 L 407.29 193.74 L 409.43 193.72 L 411.56 193.70 L 413.70 193.66 L 415.83 193.62 L 417.97 193.56 L 420.10 193.49 L 422.24 193.43 L 424.38 193.35 L 426.51 193.27 L 428.65 193.20 L 430.78 193.14 L 432.92 193.15 L 435.05 193.15 L 437.19 193.15 L 439.32 193.18 L 441.46 193.09 L 443.59 193.07 L 445.73 193.07 L 447.86 193.08 L 450.00 193.00 L 452.14 192.95 L 454.27 192.95 L 456.41 192.95 L 458.54 192.95 L 460.68 192.80 L 462.81 192.73 L 464.95 192.69 L 467.08 192.67 L 469.22 192.67 L 471.35 192.68 L 473.49 192.64 L 475.62 192.63 L 477.76 192.63 L 479.90 190.39 L 482.03 189.96 L 484.17 189.85 L 486.30 189.53 L 488.44 189.52 L 490.57 189.36 L 492.71 187.79 L 494.84 187.36 L 496.98 181.35 L 499.11 181.35 L 501.25 180.72 L 503.39 180.71 L 505.52 180.26 L 507.66 179.68 L 509.79 179.67 L 511.93 178.77 L 514.06 177.57 L 516.20 175.55 L 518.33 174.52 L 520.47 173.86 L 522.60 174.17 L 524.74 173.10 L 526.88 173.10 L 529.01 171.18 L 531.15 168.37 L 533.28 168.37 L 535.42 165.86 L 537.55 163.63 L 539.69 163.63 L 541.82 163.62 L 543.96 162.88 L 546.09 161.06 L 548.23 193.89 L 550.36 193.22 L 552.50 192.73 L 554.64 192.34 L 556.77 189.45 L 558.91 188.03 L 561.04 188.03 L 563.18 180.86 L 565.31 148.96 L 567.45 144.25 L 569.58 176.00 L 571.72 176.17 L 573.85 175.77 L 575.99 175.72 L 578.12 197.26 L 580.26 197.26 L 582.40 197.06 L 584.53 196.44 L 586.67 194.49 L 588.80 194.50 L 590.94 194.49 L 593.07 194.49 L 595.21 194.49 L 597.34 194.48 L 599.48 194.48 L 601.61 194.62 L 603.75 206.08 L 605.89 206.08 L 608.02 206.05 L 610.16 206.04 L 612.29 205.22 L 614.43 204.28 L 616.56 204.28 L 618.70 204.28 L 620.83 200.22 L 622.97 204.28 L 625.10 204.28 L 627.24 204.28 L 629.38 198.60 L 631.51 198.60 L 633.65 198.60 L 635.78 198.60 L 637.92 193.00 L 640.05 193.00 L 642.19 188.39 L 644.32 188.39 L 646.46 179.75 L 648.59 174.84 L 650.73 173.23 L 652.86 170.37 L 655.00 169.87 L 657.14 153.88 L 659.27 149.24 L 661.41 152.04 L 663.54 141.93 L 665.68 141.88 L 667.81 141.69 L 669.95 141.69 L 672.08 141.76 L 674.22 141.75 L 676.35 140.68 L 678.49 141.38 L 680.62 141.36 L 682.76 141.83 L 684.90 141.39 L 687.03 141.39 L 689.17 141.52 L 691.30 141.52 L 693.44 141.53 L 695.57 142.33 L 697.71 141.73 L 699.84 141.68 L 701.98 141.68 L 704.11 141.66 L 706.25 141.67 L 708.39 141.65 L 710.52 139.51 L 712.66 136.07 L 714.79 136.04 L 716.93 133.43 L 719.06 131.89 L 721.20 131.13 L 723.33 131.51 L 725.47 131.50 L 727.60 131.57 L 729.74 131.56 L 731.88 131.49 L 734.01 131.49 L 736.15 131.49 L 738.28 131.49 L 740.42 131.49 L 742.55 131.49 L 744.69 131.49 L 746.82 131.49 L 748.96 131.49 L 751.09 131.49 L 753.23 131.49 L 755.36 131.49 L 757.50 131.49 L 759.64 131.49 L 761.77 131.49 L 763.91 131.49 L 766.04 131.49 L 768.18 131.49 L 770.31 131.49 L 772.45 131.49 L 774.58 131.49 L 776.72 131.49 L 778.85 131.49 L 780.99 131.49 L 783.12 131.49 L 785.26 131.49 L 787.40 131.49 L 789.53 131.49 L 791.67 131.49 L 793.80 131.49 L 795.94 131.49 L 798.07 131.49 L 800.21 131.49 L 802.34 131.49 L 804.48 131.49 L 806.61 131.49 L 808.75 131.49 L 810.89 131.49 L 813.02 131.49 L 815.16 131.49 L 817.29 131.49 L 819.43 131.49 L 821.56 131.49 L 823.70 131.49 L 825.83 131.49 L 827.97 131.49 L 830.10 131.49 L 832.24 131.49 L 834.38 131.49 L 836.51 131.49 L 838.65 131.49 L 840.78 131.49 L 842.92 131.49 L 845.05 131.49 L 847.19 131.49 L 849.32 131.49 L 851.46 131.49 L 853.59 131.49 L 855.73 131.49 L 857.86 131.49 L 860.00 131.49" fill="none" stroke="#3fb950" stroke-width="2"/>
    <circle cx="860.00" cy="131.49" r="3" fill="#3fb950"/>
    <text x="40.00" y="235.00" font-size="9" fill="#c9d1d9" text-anchor="middle" transform="rotate(-45 40.00 235.00)">27.09.2025</text><text x="121.15" y="235.00" font-size="9" fill="#c9d1d9" text-anchor="middle" transform="rotate(-45 121.15 235.00)">28.09.2025</text><text x="202.29" y="235.00" font-size="9" fill="#c9d1d9" text-anchor="middle" transform="rotate(-45 202.29 235.00)">29.09.2025</text><text x="283.44" y="235.00" font-size="9" fill="#c9d1d9" text-anchor="middle" transform="rotate(-45 283.44 235.00)">04.10.2025</text><text x="364.58" y="235.00" font-size="9" fill="#c9d1d9" text-anchor="middle" transform="rotate(-45 364.58 235.00)">04.10.2025</text><text x="445.73" y="235.00" font-size="9" fill="#c9d1d9" text-anchor="middle" transform="rotate(-45 445.73 235.00)">04.10.2025</text><text x="526.88" y="235.00" font-size="9" fill="#c9d1d9" text-anchor="middle" transform="rotate(-45 526.88 235.00)">04.10.2025</text><text x="608.02" y="235.00" font-size="9" fill="#c9d1d9" text-anchor="middle" transform="rotate(-45 608.02 235.00)">05.10.2025</text><text x="689.17" y="235.00" font-size="9" fill="#c9d1d9" text-anchor="middle" transform="rotate(-45 689.17 235.00)">09.10.2025</text><text x="770.31" y="235.00" font-size="9" fill="#c9d1d9" text-anchor="middle" transform="rotate(-45 770.31 235.00)">27.10.2025</text><text x="851.46" y="235.00" font-size="9" fill="#c9d1d9" text-anchor="middle" transform="rotate(-45 851.46 235.00)">04.12.2025</text>
  </g>
</svg>