<svg xmlns="http://www.w3.org/2000/svg" width="900" height="290" style="font-family: -apple-system, BlinkMacSystemFont, 'Segoe UI', Helvetica, Arial, sans-serif;">
  <rect width="100%" height="100%" fill="#0d1117"/>
  <g>
    <line x1="40" y1="220.00" x2="860" y2="220.00" stroke="#30363d"/><text x="32" y="224.00" font-size="10" fill="#c9d1d9" text-anchor="end">0</text><line x1="40" y1="175.00" x2="860" y2="175.00" stroke="#30363d"/><text x="32" y="179.00" font-size="10" fill="#c9d1d9" text-anchor="end">25k</text><line x1="40" y1="130.00" x2="860" y2="130.00" stroke="#30363d"/><text x="32" y="134.00" font-size="10" fill="#c9d1d9" text-anchor="end">50k</text><line x1="40" y1="85.00" x2="860" y2="85.00" stroke="#30363d"/><text x="32" y="89.00" font-size="10" fill="#c9d1d9" text-anchor="end">75k</text><line x1="40" y1="40.00" x2="860" y2="40.00" stroke="#30363d"/><text x="32" y="44.00" font-size="10" fill="#c9d1d9" text-anchor="end">100k</text>
    <line x1="40.00" y1="40" x2="40.00" y2="220" stroke="#30363d" opacity="0.5"/><line x1="120.22" y1="40" x2="120.22" y2="220" stroke="#30363d" opacity="0.5"/><line x1="200.43" y1="40" x2="200.43" y2="220" stroke="#30363d" opacity="0.5"/><line x1="280.65" y1="40" x2="280.65" y2="220" stroke="#30363d" opacity="0.5"/><line x1="360.87" y1="40" x2="360.87" y2="220" stroke="#30363d" opacity="0.5"/><line x1="441.09" y1="40" x2="441.09" y2="220" stroke="#30363d" opacity="0.5"/><line x1="521.30" y1="40" x2="521.30" y2="220" stroke="#30363d" opacity="0.5"/><line x1="601.52" y1="40" x2="601.52" y2="220" stroke="#30363d" opacity="0.5"/><line x1="681.74" y1="40" x2="681.74" y2="220" stroke="#30363d" opacity="0.5"/><line x1="761.96" y1="40" x2="761.96" y2="220" stroke="#30363d" opacity="0.5"/><line x1="842.17" y1="40" x2="842.17" y2="220" stroke="#30363d" opacity="0.5"/>
    <line x1="40" y1="220" x2="860" y2="220" stroke="#30363d"/>
    <line x1="40" y1="40"   x2="40"   y2="220" stroke="#30363d"/>
    <path d="M 40.00 220.00 L 42.23 220.00 L 44.46 219.60 L 46.68 219.62 L 48.91 219.63 L 51.14 219.32 L 53.37 219.31 L 55.60 219.26 L 57.83 218.89 L 60.05 218.89 L 62.28 218.89 L 64.51 218.87 L 66.74 218.87 L 68.97 218.86 L 71.20 218.85 L 73.42 218.85 L 75.65 218.82 L 77.88 218.78 L 80.11 218.72 L 82.34 218.68 L 84.57 218.64 L 86.79 218.59 L 89.02 218.59 L 91.25 218.57 L 93.48 218.57 L 95.71 218.57 L 97.93 218.57 L 100.16 218.57 L 102.39 218.57 L 104.62 218.57 L 106.85 218.57 L 109.08 218.57 L 111.30 218.55 L 113.53 218.54 L 115.76 218.58 L 117.99 218.55 L 120.22 218.55 L 122.45 218.53 L 124.67 218.31 L 126.90 217.94 L 129.13 217.88 L 131.36 217.87 L 133.59 217.86 L 135.82 217.85 L 138.04 217.84 L 140.27 217.85 L 142.50 217.82 L 144.73 217.66 L 146.96 217.61 L 149.18 217.60 L 151.41 217.57 L 153.64 217.56 L 155.87 217.52 L 158.10 217.38 L 160.33 217.24 L 162.55 216.93 L 164.78 216.65 L 167.01 216.44 L 169.24 216.39 L 171.47 216.34 L 173.70 216.83 L 175.92 200.94 L 178.15 200.94 L 180.38 200.95 L 182.61 198.99 L 184.84 198.98 L 187.07 198.94 L 189.29 198.94 L 191.52 198.91 L 193.75 198.90 L 195.98 198.93 L 198.21 198.93 L 200.43 198.99 L 202.66 198.95 L 204.89 198.96 L 207.12 198.95 L 209.35 198.95 L 211.58 198.97 L 213.80 198.97 L 216.03 198.97 L 218.26 198.97 L 220.49 198.97 L 222.72 198.97 L 224.95 198.97 L 227.17 198.97 L 229.40 198.97 L 231.63 198.97 L 233.86 198.97 L 236.09 197.51 L 238.32 197.43 L 240.54 197.40 L 242.77 197.38 L 245.00 197.38 L 247.23 197.49 L 249.46 197.34 L 251.68 197.33 L 253.91 197.18 L 256.14 197.41 L 258.37 197.41 L 260.60 197.29 L 262.83 197.29 L 265.05 197.22 L 267.28 197.21 L 269.51 197.15 L 271.74 196.94 L 273.97 197.00 L 276.20 197.41 L 278.42 197.41 L 280.65 197.30 L 282.88 197.26 L 285.11 197.19 L 287.34 197.19 L 289.57 197.19 L 291.79 197.19 L 294.02 197.18 L 296.25 197.12 L 298.48 197.09 L 300.71 197.04 L 302.93 197.00 L 305.16 196.96 L 307.39 196.92 L 309.62 196.91 L 311.85 196.86 L 314.08 196.80 L 316.30 196.75 L 318.53 196.69 L 320.76 196.66 L 322.99 196.63 L 325.22 196.56 L 327.45 196.51 L 329.67 196.47 L 331.90 196.45 L 334.13 196.40 L 336.36 196.37 L 338.59 196.34 L 340.82 196.28 L 343.04 196.20 L 345.27 196.12 L 347.50 196.02 L 349.73 195.89 L 351.96 195.77 L 354.18 195.68 L 356.41 195.63 L 358.64 195.58 L 360.87 195.53 L 363.10 195.44 L 365.33 195.35 L 367.55 195.22 L 369.78 195.11 L 372.01 194.95 L 374.24 194.82 L 376.47 194.68 L 378.70 194.57 L 380.92 194.55 L 383.15 194.51 L 385.38 194.48 L 387.61 194.44 L 389.84 194.40 L 392.07 194.37 L 394.29 194.34 L 396.52 194.29 L 398.75 194.25 L 400.98 194.23 L 403.21 194.21 L 405.43 194.19 L 407.66 194.16 L 409.89 194.12 L 412.12 194.07 L 414.35 193.99 L 416.58 193.94 L 418.80 193.87 L 421.03 193.80 L 423.26 193.74 L 425.49 193.72 L 427.72 193.70 L 429.95 193.66 L 432.17 193.62 L 434.40 193.56 L 436.63 193.49 L 438.86 193.43 L 441.09 193.35 L 443.32 193.27 L 445.54 193.20 L 447.77 193.14 L 450.00 193.15 L 452.23 193.15 L 454.46 193.15 L 456.68 193.18 L 458.91 193.09 L 461.14 193.07 L 463.37 193.07 L 465.60 193.08 L 467.83 193.00 L 470.05 192.95 L 472.28 192.95 L 474.51 192.95 L 476.74 192.95 L 478.97 192.80 L 481.20 192.73 L 483.42 192.69 L 485.65 192.67 L 487.88 192.67 L 490.11 192.68 L 492.34 192.64 L 494.57 192.63 L 496.79 192.63 L 499.02 190.39 L 501.25 189.96 L 503.48 189.85 L 505.71 189.53 L 507.93 189.52 L 510.16 189.36 L 512.39 187.79 L 514.62 187.36 L 516.85 181.35 L 519.08 181.35 L 521.30 180.72 L 523.53 180.71 L 525.76 180.26 L 527.99 179.68 L 530.22 179.67 L 532.45 178.77 L 534.67 177.57 L 536.90 175.55 L 539.13 174.52 L 541.36 173.86 L 543.59 174.17 L 545.82 173.10 L 548.04 173.10 L 550.27 171.18 L 552.50 168.37 L 554.73 168.37 L 556.96 165.86 L 559.18 163.63 L 561.41 163.63 L 563.64 163.62 L 565.87 162.88 L 568.10 161.06 L 570.33 193.89 L 572.55 193.22 L 574.78 192.73 L 577.01 192.34 L 579.24 189.45 L 581.47 188.03 L 583.70 188.03 L 585.92 180.86 L 588.15 148.96 L 590.38 144.25 L 592.61 176.00 L 594.84 176.17 L 597.07 175.77 L 599.29 175.72 L 601.52 197.26 L 603.75 197.26 L 605.98 197.06 L 608.21 196.44 L 610.43 194.49 L 612.66 194.50 L 614.89 194.49 L 617.12 194.49 L 619.35 194.49 L 621.58 194.48 L 623.80 194.48 L 626.03 194.62 L 628.26 206.08 L 630.49 206.08 L 632.72 206.05 L 634.95 206.04 L 637.17 205.22 L 639.40 204.28 L 641.63 204.28 L 643.86 204.28 L 646.09 200.22 L 648.32 204.28 L 650.54 204.28 L 652.77 204.28 L 655.00 198.60 L 657.23 198.60 L 659.46 198.60 L 661.68 198.60 L 663.91 193.00 L 666.14 193.00 L 668.37 188.39 L 670.60 188.39 L 672.83 179.75 L 675.05 174.84 L 677.28 173.23 L 679.51 170.37 L 681.74 169.87 L 683.97 153.88 L 686.20 149.24 L 688.42 152.04 L 690.65 141.93 L 692.88 141.88 L 695.11 141.69 L 697.34 141.69 L 699.57 141.76 L 701.79 141.75 L 704.02 140.68 L 706.25 141.38 L 708.48 141.36 L 710.71 141.83 L 712.93 141.39 L 715.16 141.39 L 717.39 141.52 L 719.62 141.52 L 721.85 141.53 L 724.08 142.33 L 726.30 141.73 L 728.53 141.68 L 730.76 141.68 L 732.99 141.66 L 735.22 141.67 L 737.45 141.65 L 739.67 139.51 L 741.90 136.07 L 744.13 136.04 L 746.36 133.43 L 748.59 131.89 L 750.82 131.13 L 753.04 131.51 L 755.27 131.50 L 757.50 131.57 L 759.73 131.56 L 761.96 131.49 L 764.18 131.49 L 766.41 131.49 L 768.64 131.49 L 770.87 131.49 L 773.10 131.49 L 775.33 131.49 L 777.55 131.49 L 779.78 131.49 L 782.01 131.49 L 784.24 131.49 L 786.47 131.49 L 788.70 131.49 L 790.92 131.49 L 793.15 131.49 L 795.38 131.49 L 797.61 131.49 L 799.84 131.49 L 802.07 131.49 L 804.29 131.49 L 806.52 131.49 L 808.75 131.49 L 810.98 131.49 L 813.21 131.49 L 815.43 131.49 L 817.66 131.49 L 819.89 131.49 L 822.12 131.49 L 824.35 131.49 L 826.58 131.49 L 828.80 131.49 L 831.03 131.49 L 833.26 131.49 L 835.49 131.49 L 837.72 131.49 L 839.95 131.49 L 842.17 131.49 L 844.40 131.49 L 846.63 131.49 L 848.86 131.49 L 851.09 131.49 L 853.32 131.49 L 855.54 131.49 L 857.77 131.49 L 860.00 131.49" fill="none" stroke="#3fb950" stroke-width="2"/>
    <circle cx="860.00" cy="131.49" r="3" fill="#3fb950"/>
    <text x="40.00" y="235.00" font-size="9" fill="#c9d1d9" text-anchor="middle" transform="rotate(-45 40.00 235.00)">27.09.2025</text><text x="120.22" y="235.00" font-size="9" fill="#c9d1d9" text-anchor="middle" transform="rotate(-45 120.22 235.00)">28.09.2025</text><text x="200.43" y="235.00" font-size="9" fill="#c9d1d9" text-anchor="middle" transform="rotate(-45 200.43 235.00)">28.09.2025</text><text x="280.65" y="235.00" font-size="9" fill="#c9d1d9" text-anchor="middle" transform="rotate(-45 280.65 235.00)">30.09.2025</text><text x="360.87" y="235.00" font-size="9" fill="#c9d1d9" text-anchor="middle" transform="rotate(-45 360.87 235.00)">04.10.2025</text><text x="441.09" y="235.00" font-size="9" fill="#c9d1d9" text-anchor="middle" transform="rotate(-45 441.09 235.00)">04.10.2025</text><text x="521.30" y="235.00" font-size="9" fill="#c9d1d9" text-anchor="middle" transform="rotate(-45 521.30 235.00)">04.10.2025</text><text x="601.52" y="235.00" font-size="9" fill="#c9d1d9" text-anchor="middle" transform="rotate(-45 601.52 235.00)">05.10.2025</text><text x="681.74" y="235.00" font-size="9" fill="#c9d1d9" text-anchor="middle" transform="rotate(-45 681.74 235.00)">08.10.2025</text><text x="761.96" y="235.00" font-size="9" fill="#c9d1d9" text-anchor="middle" transform="rotate(-45 761.96 235.00)">10.10.2025</text><text x="842.17" y="235.00" font-size="9" fill="#c9d1d9" text-anchor="middle" transform="rotate(-45 842.17 235.00)">14.11.2025</text>
  </g>
</svg>