<svg xmlns="http://www.w3.org/2000/svg" width="900" height="290" style="font-family: -apple-system, BlinkMacSystemFont, 'Segoe UI', Helvetica, Arial, sans-serif;">
  <rect width="100%" height="100%" fill="white"/>
  <g>
    <line x1="40" y1="220.00" x2="860" y2="220.00" stroke="#e5e7eb"/><text x="32" y="224.00" font-size="10" fill="#111827" text-anchor="end">0</text><line x1="40" y1="175.00" x2="860" y2="175.00" stroke="#e5e7eb"/><text x="32" y="179.00" font-size="10" fill="#111827" text-anchor="end">25k</text><line x1="40" y1="130.00" x2="860" y2="130.00" stroke="#e5e7eb"/><text x="32" y="134.00" font-size="10" fill="#111827" text-anchor="end">50k</text><line x1="40" y1="85.00" x2="860" y2="85.00" stroke="#e5e7eb"/><text x="32" y="89.00" font-size="10" fill="#111827" text-anchor="end">75k</text><line x1="40" y1="40.00" x2="860" y2="40.00" stroke="#e5e7eb"/><text x="32" y="44.00" font-size="10" fill="#111827" text-anchor="end">100k</text>
    <line x1="40.00" y1="40" x2="40.00" y2="220" stroke="#e5e7eb" opacity="0.5"/><line x1="122.00" y1="40" x2="122.00" y2="220" stroke="#e5e7eb" opacity="0.5"/><line x1="204.00" y1="40" x2="204.00" y2="220" stroke="#e5e7eb" opacity="0.5"/><line x1="286.00" y1="40" x2="286.00" y2="220" stroke="#e5e7eb" opacity="0.5"/><line x1="368.00" y1="40" x2="368.00" y2="220" stroke="#e5e7eb" opacity="0.5"/><line x1="450.00" y1="40" x2="450.00" y2="220" stroke="#e5e7eb" opacity="0.5"/><line x1="532.00" y1="40" x2="532.00" y2="220" stroke="#e5e7eb" opacity="0.5"/><line x1="614.00" y1="40" x2="614.00" y2="220" stroke="#e5e7eb" opacity="0.5"/><line x1="696.00" y1="40" x2="696.00" y2="220" stroke="#e5e7eb" opacity="0.5"/><line x1="778.00" y1="40" x2="778.00" y2="220" stroke="#e5e7eb" opacity="0.5"/><line x1="860.00" y1="40" x2="860.00" y2="220" stroke="#e5e7eb" opacity="0.5"/>
    <line x1="40" y1="220" x2="860" y2="220" stroke="#9ca3af"/>
    <line x1="40" y1="40"   x2="40"   y2="220" stroke="#9ca3af"/>
    <path d="M 40.00 220.00 L 42.05 220.00 L 44.10 219.60 L 46.15 219.62 L 48.20 219.63 L 50.25 219.32 L 52.30 219.31 L 54.35 219.26 L 56.40 218.89 L 58.45 218.89 L 60.50 218.89 L 62.55 218.87 L 64.60 218.87 L 66.65 218.86 L 68.70 218.85 L 70.75 218.85 L 72.80 218.82 L 74.85 218.78 L 76.90 218.72 L 78.95 218.68 L 81.00 218.64 L 83.05 218.59 L 85.10 218.59 L 87.15 218.57 L 89.20 218.57 L 91.25 218.57 L 93.30 218.57 L 95.35 218.57 L 97.40 218.57 L 99.45 218.57 L 101.50 218.57 L 103.55 218.57 L 105.60 218.55 L 107.65 218.54 L 109.70 218.58 L 111.75 218.55 L 113.80 218.55 L 115.85 218.53 L 117.90 218.31 L 119.95 217.94 L 122.00 217.88 L 124.05 217.87 L 126.10 217.86 L 128.15 217.85 L 130.20 217.84 L 132.25 217.85 L 134.30 217.82 L 136.35 217.66 L 138.40 217.61 L 140.45 217.60 L 142.50 217.57 L 144.55 217.56 L 146.60 217.52 L 148.65 217.38 L 150.70 217.24 L 152.75 216.93 L 154.80 216.65 L 156.85 216.44 L 158.90 216.39 L 160.95 216.34 L 163.00 216.83 L 165.05 200.94 L 167.10 200.94 L 169.15 200.95 L 171.20 198.99 L 173.25 198.98 L 175.30 198.94 L 177.35 198.94 L 179.40 198.91 L 181.45 198.90 L 183.50 198.93 L 185.55 198.93 L 187.60 198.99 L 189.65 198.95 L 191.70 198.96 L 193.75 198.95 L 195.80 198.95 L 197.85 198.97 L 199.90 198.97 L 201.95 198.97 L 204.00 198.97 L 206.05 198.97 L 208.10 198.97 L 210.15 198.97 L 212.20 198.97 L 214.25 198.97 L 216.30 198.97 L 218.35 198.97 L 220.40 197.51 L 222.45 197.43 L 224.50 197.40 L 226.55 197.38 L 228.60 197.38 L 230.65 197.49 L 232.70 197.34 L 234.75 197.33 L 236.80 197.18 L 238.85 197.41 L 240.90 197.41 L 242.95 197.29 L 245.00 197.29 L 247.05 197.22 L 249.10 197.21 L 251.15 197.15 L 253.20 196.94 L 255.25 197.00 L 257.30 197.41 L 259.35 197.41 L 261.40 197.30 L 263.45 197.26 L 265.50 197.19 L 267.55 197.19 L 269.60 197.19 L 271.65 197.19 L 273.70 197.18 L 275.75 197.12 L 277.80 197.09 L 279.85 197.04 L 281.90 197.00 L 283.95 196.96 L 286.00 196.92 L 288.05 196.91 L 290.10 196.86 L 292.15 196.80 L 294.20 196.75 L 296.25 196.69 L 298.30 196.66 L 300.35 196.63 L 302.40 196.56 L 304.45 196.51 L 306.50 196.47 L 308.55 196.45 L 310.60 196.40 L 312.65 196.37 L 314.70 196.34 L 316.75 196.28 L 318.80 196.20 L 320.85 196.12 L 322.90 196.02 L 324.95 195.89 L 327.00 195.77 L 329.05 195.68 L 331.10 195.63 L 333.15 195.58 L 335.20 195.53 L 337.25 195.44 L 339.30 195.35 L 341.35 195.22 L 343.40 195.11 L 345.45 194.95 L 347.50 194.82 L 349.55 194.68 L 351.60 194.57 L 353.65 194.55 L 355.70 194.51 L 357.75 194.48 L 359.80 194.44 L 361.85 194.40 L 363.90 194.37 L 365.95 194.34 L 368.00 194.29 L 370.05 194.25 L 372.10 194.23 L 374.15 194.21 L 376.20 194.19 L 378.25 194.16 L 380.30 194.12 L 382.35 194.07 L 384.40 193.99 L 386.45 193.94 L 388.50 193.87 L 390.55 193.80 L 392.60 193.74 L 394.65 193.72 L 396.70 193.70 L 398.75 193.66 L 400.80 193.62 L 402.85 193.56 L 404.90 193.49 L 406.95 193.43 L 409.00 193.35 L 411.05 193.27 L 413.10 193.20 L 415.15 193.14 L 417.20 193.15 L 419.25 193.15 L 421.30 193.15 L 423.35 193.18 L 425.40 193.09 L 427.45 193.07 L 429.50 193.07 L 431.55 193.08 L 433.60 193.00 L 435.65 192.95 L 437.70 192.95 L 439.75 192.95 L 441.80 192.95 L 443.85 192.80 L 445.90 192.73 L 447.95 192.69 L 450.00 192.67 L 452.05 192.67 L 454.10 192.68 L 456.15 192.64 L 458.20 192.63 L 460.25 192.63 L 462.30 190.39 L 464.35 189.96 L 466.40 189.85 L 468.45 189.53 L 470.50 189.52 L 472.55 189.36 L 474.60 187.79 L 476.65 187.36 L 478.70 181.35 L 480.75 181.35 L 482.80 180.72 L 484.85 180.71 L 486.90 180.26 L 488.95 179.68 L 491.00 179.67 L 493.05 178.77 L 495.10 177.57 L 497.15 175.55 L 499.20 174.52 L 501.25 173.86 L 503.30 174.17 L 505.35 173.10 L 507.40 173.10 L 509.45 171.18 L 511.50 168.37 L 513.55 168.37 L 515.60 165.86 L 517.65 163.63 L 519.70 163.63 L 521.75 163.62 L 523.80 162.88 L 525.85 161.06 L 527.90 193.89 L 529.95 193.22 L 532.00 192.73 L 534.05 192.34 L 536.10 189.45 L 538.15 188.03 L 540.20 188.03 L 542.25 180.86 L 544.30 148.96 L 546.35 144.25 L 548.40 176.00 L 550.45 176.17 L 552.50 175.77 L 554.55 175.72 L 556.60 197.26 L 558.65 197.26 L 560.70 197.06 L 562.75 196.44 L 564.80 194.49 L 566.85 194.50 L 568.90 194.49 L 570.95 194.49 L 573.00 194.49 L 575.05 194.48 L 577.10 194.48 L 579.15 194.62 L 581.20 206.08 L 583.25 206.08 L 585.30 206.05 L 587.35 206.04 L 589.40 205.22 L 591.45 204.28 L 593.50 204.28 L 595.55 204.28 L 597.60 200.22 L 599.65 204.28 L 601.70 204.28 L 603.75 204.28 L 605.80 198.60 L 607.85 198.60 L 609.90 198.60 L 611.95 198.60 L 614.00 193.00 L 616.05 193.00 L 618.10 188.39 L 620.15 188.39 L 622.20 179.75 L 624.25 174.84 L 626.30 173.23 L 628.35 170.37 L 630.40 169.87 L 632.45 153.88 L 634.50 149.24 L 636.55 152.04 L 638.60 141.93 L 640.65 141.88 L 642.70 141.69 L 644.75 141.69 L 646.80 141.76 L 648.85 141.75 L 650.90 140.68 L 652.95 141.38 L 655.00 141.36 L 657.05 141.83 L 659.10 141.39 L 661.15 141.39 L 663.20 141.52 L 665.25 141.52 L 667.30 141.53 L 669.35 142.33 L 671.40 141.73 L 673.45 141.68 L 675.50 141.68 L 677.55 141.66 L 679.60 141.67 L 681.65 141.65 L 683.70 139.51 L 685.75 136.07 L 687.80 136.04 L 689.85 133.43 L 691.90 131.89 L 693.95 131.13 L 696.00 131.51 L 698.05 131.50 L 700.10 131.57 L 702.15 131.56 L 704.20 131.49 L 706.25 131.49 L 708.30 131.49 L 710.35 131.49 L 712.40 131.49 L 714.45 131.49 L 716.50 131.49 L 718.55 131.49 L 720.60 131.49 L 722.65 131.49 L 724.70 131.49 L 726.75 131.49 L 728.80 131.49 L 730.85 131.49 L 732.90 131.49 L 734.95 131.49 L 737.00 131.49 L 739.05 131.49 L 741.10 131.49 L 743.15 131.49 L 745.20 131.49 L 747.25 131.49 L 749.30 131.49 L 751.35 131.49 L 753.40 131.49 L 755.45 131.49 L 757.50 131.49 L 759.55 131.49 L 761.60 131.49 L 763.65 131.49 L 765.70 131.49 L 767.75 131.49 L 769.80 131.49 L 771.85 131.49 L 773.90 131.49 L 775.95 131.49 L 778.00 131.49 L 780.05 131.49 L 782.10 131.49 L 784.15 131.49 L 786.20 131.49 L 788.25 131.49 L 790.30 131.49 L 792.35 131.49 L 794.40 131.49 L 796.45 131.49 L 798.50 131.49 L 800.55 131.49 L 802.60 131.49 L 804.65 131.49 L 806.70 131.49 L 808.75 131.49 L 810.80 131.49 L 812.85 131.49 L 814.90 131.49 L 816.95 131.49 L 819.00 131.49 L 821.05 131.49 L 823.10 131.49 L 825.15 131.49 L 827.20 131.49 L 829.25 131.49 L 831.30 131.49 L 833.35 131.49 L 835.40 131.49 L 837.45 131.49 L 839.50 131.49 L 841.55 131.49 L 843.60 131.49 L 845.65 131.49 L 847.70 131.49 L 849.75 131.49 L 851.80 131.49 L 853.85 131.49 L 855.90 131.49 L 857.95 131.49 L 860.00 131.49" fill="none" stroke="#111827" stroke-width="2"/>
    <circle cx="860.00" cy="131.49" r="3" fill="#111827"/>
    <text x="40.00" y="235.00" font-size="9" fill="#111827" text-anchor="middle" transform="rotate(-45 40.00 235.00)">27.09.2025</text><text x="122.00" y="235.00" font-size="9" fill="#111827" text-anchor="middle" transform="rotate(-45 122.00 235.00)">28.09.2025</text><text x="204.00" y="235.00" font-size="9" fill="#111827" text-anchor="middle" transform="rotate(-45 204.00 235.00)">29.09.2025</text><text x="286.00" y="235.00" font-size="9" fill="#111827" text-anchor="middle" transform="rotate(-45 286.00 235.00)">04.10.2025</text><text x="368.00" y="235.00" font-size="9" fill="#111827" text-anchor="middle" transform="rotate(-45 368.00 235.00)">04.10.2025</text><text x="450.00" y="235.00" font-size="9" fill="#111827" text-anchor="middle" transform="rotate(-45 450.00 235.00)">04.10.2025</text><text x="532.00" y="235.00" font-size="9" fill="#111827" text-anchor="middle" transform="rotate(-45 532.00 235.00)">04.10.2025</text><text x="614.00" y="235.00" font-size="9" fill="#111827" text-anchor="middle" transform="rotate(-45 614.00 235.00)">07.10.2025</text><text x="696.00" y="235.00" font-size="9" fill="#111827" text-anchor="middle" transform="rotate(-45 696.00 235.00)">09.10.2025</text><text x="778.00" y="235.00" font-size="9" fill="#111827" text-anchor="middle" transform="rotate(-45 778.00 235.00)">14.11.2025</text><text x="860.00" y="235.00" font-size="9" fill="#111827" text-anchor="middle" transform="rotate(-45 860.00 235.00)">24.12.2025</text>
  </g>
</svg>