<svg xmlns="http://www.w3.org/2000/svg" width="900" height="290" style="font-family: -apple-system, BlinkMacSystemFont, 'Segoe UI', Helvetica, Arial, sans-serif;">
  <rect width="100%" height="100%" fill="#0d1117"/>
  <g>
    <line x1="40" y1="220.00" x2="860" y2="220.00" stroke="#30363d"/><text x="32" y="224.00" font-size="10" fill="#c9d1d9" text-anchor="end">0</text><line x1="40" y1="175.00" x2="860" y2="175.00" stroke="#30363d"/><text x="32" y="179.00" font-size="10" fill="#c9d1d9" text-anchor="end">25k</text><line x1="40" y1="130.00" x2="860" y2="130.00" stroke="#30363d"/><text x="32" y="134.00" font-size="10" fill="#c9d1d9" text-anchor="end">50k</text><line x1="40" y1="85.00" x2="860" y2="85.00" stroke="#30363d"/><text x="32" y="89.00" font-size="10" fill="#c9d1d9" text-anchor="end">75k</text><line x1="40" y1="40.00" x2="860" y2="40.00" stroke="#30363d"/><text x="32" y="44.00" font-size="10" fill="#c9d1d9" text-anchor="end">100k</text>
    <line x1="40.00" y1="40" x2="40.00" y2="220" stroke="#30363d" opacity="0.5"/><line x1="121.76" y1="40" x2="121.76" y2="220" stroke="#30363d" opacity="0.5"/><line x1="203.52" y1="40" x2="203.52" y2="220" stroke="#30363d" opacity="0.5"/><line x1="285.28" y1="40" x2="285.28" y2="220" stroke="#30363d" opacity="0.5"/><line x1="367.04" y1="40" x2="367.04" y2="220" stroke="#30363d" opacity="0.5"/><line x1="448.80" y1="40" x2="448.80" y2="220" stroke="#30363d" opacity="0.5"/><line x1="530.56" y1="40" x2="530.56" y2="220" stroke="#30363d" opacity="0.5"/><line x1="612.32" y1="40" x2="612.32" y2="220" stroke="#30363d" opacity="0.5"/><line x1="694.08" y1="40" x2="694.08" y2="220" stroke="#30363d" opacity="0.5"/><line x1="775.84" y1="40" x2="775.84" y2="220" stroke="#30363d" opacity="0.5"/><line x1="857.60" y1="40" x2="857.60" y2="220" stroke="#30363d" opacity="0.5"/>
    <line x1="40" y1="220" x2="860" y2="220" stroke="#30363d"/>
    <line x1="40" y1="40"   x2="40"   y2="220" stroke="#30363d"/>
    <path d="M 40.00 220.00 L 42.40 220.00 L 44.81 219.60 L 47.21 219.62 L 49.62 219.63 L 52.02 219.32 L 54.43 219.31 L 56.83 219.26 L 59.24 218.89 L 61.64 218.89 L 64.05 218.89 L 66.45 218.87 L 68.86 218.87 L 71.26 218.86 L 73.67 218.85 L 76.07 218.85 L 78.48 218.82 L 80.88 218.78 L 83.28 218.72 L 85.69 218.68 L 88.09 218.64 L 90.50 218.59 L 92.90 218.59 L 95.31 218.57 L 97.71 218.57 L 100.12 218.57 L 102.52 218.57 L 104.93 218.57 L 107.33 218.57 L 109.74 218.57 L 112.14 218.57 L 114.55 218.57 L 116.95 218.55 L 119.35 218.54 L 121.76 218.58 L 124.16 218.55 L 126.57 218.55 L 128.97 218.53 L 131.38 218.31 L 133.78 217.94 L 136.19 217.88 L 138.59 217.87 L 141.00 217.86 L 143.40 217.85 L 145.81 217.84 L 148.21 217.85 L 150.62 217.82 L 153.02 217.66 L 155.43 217.61 L 157.83 217.60 L 160.23 217.57 L 162.64 217.56 L 165.04 217.52 L 167.45 217.38 L 169.85 217.24 L 172.26 216.93 L 174.66 216.65 L 177.07 216.44 L 179.47 216.39 L 181.88 216.34 L 184.28 216.83 L 186.69 200.94 L 189.09 200.94 L 191.50 200.95 L 193.90 198.99 L 196.30 198.98 L 198.71 198.94 L 201.11 198.94 L 203.52 198.91 L 205.92 198.90 L 208.33 198.93 L 210.73 198.93 L 213.14 198.99 L 215.54 198.95 L 217.95 198.96 L 220.35 198.95 L 222.76 198.95 L 225.16 198.97 L 227.57 198.97 L 229.97 198.97 L 232.38 198.97 L 234.78 198.97 L 237.18 198.97 L 239.59 198.97 L 241.99 198.97 L 244.40 198.97 L 246.80 198.97 L 249.21 198.97 L 251.61 197.51 L 254.02 197.43 L 256.42 197.40 L 258.83 197.38 L 261.23 197.38 L 263.64 197.49 L 266.04 197.34 L 268.45 197.33 L 270.85 197.18 L 273.26 197.41 L 275.66 197.41 L 278.06 197.29 L 280.47 197.29 L 282.87 197.22 L 285.28 197.21 L 287.68 197.15 L 290.09 196.94 L 292.49 197.00 L 294.90 197.41 L 297.30 197.41 L 299.71 197.30 L 302.11 197.26 L 304.52 197.19 L 306.92 197.19 L 309.33 197.19 L 311.73 197.19 L 314.13 197.18 L 316.54 197.12 L 318.94 197.09 L 321.35 197.04 L 323.75 197.00 L 326.16 196.96 L 328.56 196.92 L 330.97 196.91 L 333.37 196.86 L 335.78 196.80 L 338.18 196.75 L 340.59 196.69 L 342.99 196.66 L 345.40 196.63 L 347.80 196.56 L 350.21 196.51 L 352.61 196.47 L 355.01 196.45 L 357.42 196.40 L 359.82 196.37 L 362.23 196.34 L 364.63 196.28 L 367.04 196.20 L 369.44 196.12 L 371.85 196.02 L 374.25 195.89 L 376.66 195.77 L 379.06 195.68 L 381.47 195.63 L 383.87 195.58 L 386.28 195.53 L 388.68 195.44 L 391.09 195.35 L 393.49 195.22 L 395.89 195.11 L 398.30 194.95 L 400.70 194.82 L 403.11 194.68 L 405.51 194.57 L 407.92 194.55 L 410.32 194.51 L 412.73 194.48 L 415.13 194.44 L 417.54 194.40 L 419.94 194.37 L 422.35 194.34 L 424.75 194.29 L 427.16 194.25 L 429.56 194.23 L 431.96 194.21 L 434.37 194.19 L 436.77 194.16 L 439.18 194.12 L 441.58 194.07 L 443.99 193.99 L 446.39 193.94 L 448.80 193.87 L 451.20 193.80 L 453.61 193.74 L 456.01 193.72 L 458.42 193.70 L 460.82 193.66 L 463.23 193.62 L 465.63 193.56 L 468.04 193.49 L 470.44 193.43 L 472.84 193.35 L 475.25 193.27 L 477.65 193.20 L 480.06 193.14 L 482.46 193.15 L 484.87 193.15 L 487.27 193.15 L 489.68 193.18 L 492.08 193.09 L 494.49 193.07 L 496.89 193.07 L 499.30 193.08 L 501.70 193.00 L 504.11 192.95 L 506.51 192.95 L 508.91 192.95 L 511.32 192.95 L 513.72 192.80 L 516.13 192.73 L 518.53 192.69 L 520.94 192.67 L 523.34 192.67 L 525.75 192.68 L 528.15 192.64 L 530.56 192.63 L 532.96 192.63 L 535.37 190.39 L 537.77 189.96 L 540.18 189.85 L 542.58 189.53 L 544.99 189.52 L 547.39 189.36 L 549.79 187.79 L 552.20 187.36 L 554.60 181.35 L 557.01 181.35 L 559.41 180.72 L 561.82 180.71 L 564.22 180.26 L 566.63 179.68 L 569.03 179.67 L 571.44 178.77 L 573.84 177.57 L 576.25 175.55 L 578.65 174.52 L 581.06 173.86 L 583.46 174.17 L 585.87 173.10 L 588.27 173.10 L 590.67 171.18 L 593.08 168.37 L 595.48 168.37 L 597.89 165.86 L 600.29 163.63 L 602.70 163.63 L 605.10 163.62 L 607.51 162.88 L 609.91 161.06 L 612.32 193.89 L 614.72 193.22 L 617.13 192.73 L 619.53 192.34 L 621.94 189.45 L 624.34 188.03 L 626.74 188.03 L 629.15 180.86 L 631.55 148.96 L 633.96 144.25 L 636.36 176.00 L 638.77 176.17 L 641.17 175.77 L 643.58 175.72 L 645.98 197.26 L 648.39 197.26 L 650.79 197.06 L 653.20 196.44 L 655.60 194.49 L 658.01 194.50 L 660.41 194.49 L 662.82 194.49 L 665.22 194.49 L 667.62 194.48 L 670.03 194.48 L 672.43 194.62 L 674.84 206.08 L 677.24 206.08 L 679.65 206.05 L 682.05 206.04 L 684.46 205.22 L 686.86 204.28 L 689.27 204.28 L 691.67 204.28 L 694.08 200.22 L 696.48 204.28 L 698.89 204.28 L 701.29 204.28 L 703.70 198.60 L 706.10 198.60 L 708.50 198.60 L 710.91 198.60 L 713.31 193.00 L 715.72 193.00 L 718.12 188.39 L 720.53 188.39 L 722.93 179.75 L 725.34 174.84 L 727.74 173.23 L 730.15 170.37 L 732.55 169.87 L 734.96 153.88 L 737.36 149.24 L 739.77 152.04 L 742.17 141.93 L 744.57 141.88 L 746.98 141.69 L 749.38 141.69 L 751.79 141.76 L 754.19 141.75 L 756.60 140.68 L 759.00 141.38 L 761.41 141.36 L 763.81 141.83 L 766.22 141.39 L 768.62 141.39 L 771.03 141.52 L 773.43 141.52 L 775.84 141.53 L 778.24 142.33 L 780.65 141.73 L 783.05 141.68 L 785.45 141.68 L 787.86 141.66 L 790.26 141.67 L 792.67 141.65 L 795.07 139.51 L 797.48 136.07 L 799.88 136.04 L 802.29 133.43 L 804.69 131.89 L 807.10 131.13 L 809.50 131.51 L 811.91 131.50 L 814.31 131.57 L 816.72 131.56 L 819.12 131.49 L 821.52 131.49 L 823.93 131.49 L 826.33 131.49 L 828.74 131.49 L 831.14 131.49 L 833.55 131.49 L 835.95 131.49 L 838.36 131.49 L 840.76 131.49 L 843.17 131.49 L 845.57 131.49 L 847.98 131.49 L 850.38 131.49 L 852.79 131.49 L 855.19 131.49 L 857.60 131.49 L 860.00 131.49" fill="none" stroke="#3fb950" stroke-width="2"/>
    <circle cx="860.00" cy="131.49" r="3" fill="#3fb950"/>
    <text x="40.00" y="235.00" font-size="9" fill="#c9d1d9" text-anchor="middle" transform="rotate(-45 40.00 235.00)">27.09.2025</text><text x="121.76" y="235.00" font-size="9" fill="#c9d1d9" text-anchor="middle" transform="rotate(-45 121.76 235.00)">28.09.2025</text><text x="203.52" y="235.00" font-size="9" fill="#c9d1d9" text-anchor="middle" transform="rotate(-45 203.52 235.00)">28.09.2025</text><text x="285.28" y="235.00" font-size="9" fill="#c9d1d9" text-anchor="middle" transform="rotate(-45 285.28 235.00)">30.09.2025</text><text x="367.04" y="235.00" font-size="9" fill="#c9d1d9" text-anchor="middle" transform="rotate(-45 367.04 235.00)">04.10.2025</text><text x="448.80" y="235.00" font-size="9" fill="#c9d1d9" text-anchor="middle" transform="rotate(-45 448.80 235.00)">04.10.2025</text><text x="530.56" y="235.00" font-size="9" fill="#c9d1d9" text-anchor="middle" transform="rotate(-45 530.56 235.00)">04.10.2025</text><text x="612.32" y="235.00" font-size="9" fill="#c9d1d9" text-anchor="middle" transform="rotate(-45 612.32 235.00)">04.10.2025</text><text x="694.08" y="235.00" font-size="9" fill="#c9d1d9" text-anchor="middle" transform="rotate(-45 694.08 235.00)">07.10.2025</text><text x="775.84" y="235.00" font-size="9" fill="#c9d1d9" text-anchor="middle" transform="rotate(-45 775.84 235.00)">09.10.2025</text><text x="857.60" y="235.00" font-size="9" fill="#c9d1d9" text-anchor="middle" transform="rotate(-45 857.60 235.00)">25.10.2025</text>
  </g>
</svg>