<svg xmlns="http://www.w3.org/2000/svg" width="900" height="290" style="font-family: -apple-system, BlinkMacSystemFont, 'Segoe UI', Helvetica, Arial, sans-serif;">
  <rect width="100%" height="100%" fill="#0d1117"/>
  <g>
    <line x1="40" y1="220.00" x2="860" y2="220.00" stroke="#30363d"/><text x="32" y="224.00" font-size="10" fill="#c9d1d9" text-anchor="end">0</text><line x1="40" y1="175.00" x2="860" y2="175.00" stroke="#30363d"/><text x="32" y="179.00" font-size="10" fill="#c9d1d9" text-anchor="end">25k</text><line x1="40" y1="130.00" x2="860" y2="130.00" stroke="#30363d"/><text x="32" y="134.00" font-size="10" fill="#c9d1d9" text-anchor="end">50k</text><line x1="40" y1="85.00" x2="860" y2="85.00" stroke="#30363d"/><text x="32" y="89.00" font-size="10" fill="#c9d1d9" text-anchor="end">75k</text><line x1="40" y1="40.00" x2="860" y2="40.00" stroke="#30363d"/><text x="32" y="44.00" font-size="10" fill="#c9d1d9" text-anchor="end">100k</text>
    <line x1="40.00" y1="40" x2="40.00" y2="220" stroke="#30363d" opacity="0.5"/><line x1="121.24" y1="40" x2="121.24" y2="220" stroke="#30363d" opacity="0.5"/><line x1="202.49" y1="40" x2="202.49" y2="220" stroke="#30363d" opacity="0.5"/><line x1="283.73" y1="40" x2="283.73" y2="220" stroke="#30363d" opacity="0.5"/><line x1="364.98" y1="40" x2="364.98" y2="220" stroke="#30363d" opacity="0.5"/><line x1="446.22" y1="40" x2="446.22" y2="220" stroke="#30363d" opacity="0.5"/><line x1="527.47" y1="40" x2="527.47" y2="220" stroke="#30363d" opacity="0.5"/><line x1="608.71" y1="40" x2="608.71" y2="220" stroke="#30363d" opacity="0.5"/><line x1="689.95" y1="40" x2="689.95" y2="220" stroke="#30363d" opacity="0.5"/><line x1="771.20" y1="40" x2="771.20" y2="220" stroke="#30363d" opacity="0.5"/><line x1="852.44" y1="40" x2="852.44" y2="220" stroke="#30363d" opacity="0.5"/>
    <line x1="40" y1="220" x2="860" y2="220" stroke="#30363d"/>
    <line x1="40" y1="40"   x2="40"   y2="220" stroke="#30363d"/>
    <path d="M 40.00 220.00 L 41.89 220.00 L 43.78 219.60 L 45.67 219.62 L 47.56 219.63 L 49.45 219.32 L 51.34 219.31 L 53.23 219.26 L 55.12 218.89 L 57.00 218.89 L 58.89 218.89 L 60.78 218.87 L 62.67 218.87 L 64.56 218.86 L 66.45 218.85 L 68.34 218.85 L 70.23 218.82 L 72.12 218.78 L 74.01 218.72 L 75.90 218.68 L 77.79 218.64 L 79.68 218.59 L 81.57 218.59 L 83.46 218.57 L 85.35 218.57 L 87.24 218.57 L 89.12 218.57 L 91.01 218.57 L 92.90 218.57 L 94.79 218.57 L 96.68 218.57 L 98.57 218.57 L 100.46 218.55 L 102.35 218.54 L 104.24 218.58 L 106.13 218.55 L 108.02 218.55 L 109.91 218.53 L 111.80 218.31 L 113.69 217.94 L 115.58 217.88 L 117.47 217.87 L 119.35 217.86 L 121.24 217.85 L 123.13 217.84 L 125.02 217.85 L 126.91 217.82 L 128.80 217.66 L 130.69 217.61 L 132.58 217.60 L 134.47 217.57 L 136.36 217.56 L 138.25 217.52 L 140.14 217.38 L 142.03 217.24 L 143.92 216.93 L 145.81 216.65 L 147.70 216.44 L 149.59 216.39 L 151.47 216.34 L 153.36 216.83 L 155.25 200.94 L 157.14 200.94 L 159.03 200.95 L 160.92 198.99 L 162.81 198.98 L 164.70 198.94 L 166.59 198.94 L 168.48 198.91 L 170.37 198.90 L 172.26 198.93 L 174.15 198.93 L 176.04 198.99 L 177.93 198.95 L 179.82 198.96 L 181.71 198.95 L 183.59 198.95 L 185.48 198.97 L 187.37 198.97 L 189.26 198.97 L 191.15 198.97 L 193.04 198.97 L 194.93 198.97 L 196.82 198.97 L 198.71 198.97 L 200.60 198.97 L 202.49 198.97 L 204.38 198.97 L 206.27 197.51 L 208.16 197.43 L 210.05 197.40 L 211.94 197.38 L 213.82 197.38 L 215.71 197.49 L 217.60 197.34 L 219.49 197.33 L 221.38 197.18 L 223.27 197.41 L 225.16 197.41 L 227.05 197.29 L 228.94 197.29 L 230.83 197.22 L 232.72 197.21 L 234.61 197.15 L 236.50 196.94 L 238.39 197.00 L 240.28 197.41 L 242.17 197.41 L 244.06 197.30 L 245.94 197.26 L 247.83 197.19 L 249.72 197.19 L 251.61 197.19 L 253.50 197.19 L 255.39 197.18 L 257.28 197.12 L 259.17 197.09 L 261.06 197.04 L 262.95 197.00 L 264.84 196.96 L 266.73 196.92 L 268.62 196.91 L 270.51 196.86 L 272.40 196.80 L 274.29 196.75 L 276.18 196.69 L 278.06 196.66 L 279.95 196.63 L 281.84 196.56 L 283.73 196.51 L 285.62 196.47 L 287.51 196.45 L 289.40 196.40 L 291.29 196.37 L 293.18 196.34 L 295.07 196.28 L 296.96 196.20 L 298.85 196.12 L 300.74 196.02 L 302.63 195.89 L 304.52 195.77 L 306.41 195.68 L 308.29 195.63 L 310.18 195.58 L 312.07 195.53 L 313.96 195.44 L 315.85 195.35 L 317.74 195.22 L 319.63 195.11 L 321.52 194.95 L 323.41 194.82 L 325.30 194.68 L 327.19 194.57 L 329.08 194.55 L 330.97 194.51 L 332.86 194.48 L 334.75 194.44 L 336.64 194.40 L 338.53 194.37 L 340.41 194.34 L 342.30 194.29 L 344.19 194.25 L 346.08 194.23 L 347.97 194.21 L 349.86 194.19 L 351.75 194.16 L 353.64 194.12 L 355.53 194.07 L 357.42 193.99 L 359.31 193.94 L 361.20 193.87 L 363.09 193.80 L 364.98 193.74 L 366.87 193.72 L 368.76 193.70 L 370.65 193.66 L 372.53 193.62 L 374.42 193.56 L 376.31 193.49 L 378.20 193.43 L 380.09 193.35 L 381.98 193.27 L 383.87 193.20 L 385.76 193.14 L 387.65 193.15 L 389.54 193.15 L 391.43 193.15 L 393.32 193.18 L 395.21 193.09 L 397.10 193.07 L 398.99 193.07 L 400.88 193.08 L 402.76 193.00 L 404.65 192.95 L 406.54 192.95 L 408.43 192.95 L 410.32 192.95 L 412.21 192.80 L 414.10 192.73 L 415.99 192.69 L 417.88 192.67 L 419.77 192.67 L 421.66 192.68 L 423.55 192.64 L 425.44 192.63 L 427.33 192.63 L 429.22 190.39 L 431.11 189.96 L 433.00 189.85 L 434.88 189.53 L 436.77 189.52 L 438.66 189.36 L 440.55 187.79 L 442.44 187.36 L 444.33 181.35 L 446.22 181.35 L 448.11 180.72 L 450.00 180.71 L 451.89 180.26 L 453.78 179.68 L 455.67 179.67 L 457.56 178.77 L 459.45 177.57 L 461.34 175.55 L 463.23 174.52 L 465.12 173.86 L 467.00 174.17 L 468.89 173.10 L 470.78 173.10 L 472.67 171.18 L 474.56 168.37 L 476.45 168.37 L 478.34 165.86 L 480.23 163.63 L 482.12 163.63 L 484.01 163.62 L 485.90 162.88 L 487.79 161.06 L 489.68 193.89 L 491.57 193.22 L 493.46 192.73 L 495.35 192.34 L 497.24 189.45 L 499.12 188.03 L 501.01 188.03 L 502.90 180.86 L 504.79 148.96 L 506.68 144.25 L 508.57 176.00 L 510.46 176.17 L 512.35 175.77 L 514.24 175.72 L 516.13 197.26 L 518.02 197.26 L 519.91 197.06 L 521.80 196.44 L 523.69 194.49 L 525.58 194.50 L 527.47 194.49 L 529.35 194.49 L 531.24 194.49 L 533.13 194.48 L 535.02 194.48 L 536.91 194.62 L 538.80 206.08 L 540.69 206.08 L 542.58 206.05 L 544.47 206.04 L 546.36 205.22 L 548.25 204.28 L 550.14 204.28 L 552.03 204.28 L 553.92 200.22 L 555.81 204.28 L 557.70 204.28 L 559.59 204.28 L 561.47 198.60 L 563.36 198.60 L 565.25 198.60 L 567.14 198.60 L 569.03 193.00 L 570.92 193.00 L 572.81 188.39 L 574.70 188.39 L 576.59 179.75 L 578.48 174.84 L 580.37 173.23 L 582.26 170.37 L 584.15 169.87 L 586.04 153.88 L 587.93 149.24 L 589.82 152.04 L 591.71 141.93 L 593.59 141.88 L 595.48 141.69 L 597.37 141.69 L 599.26 141.76 L 601.15 141.75 L 603.04 140.68 L 604.93 141.38 L 606.82 141.36 L 608.71 141.83 L 610.60 141.39 L 612.49 141.39 L 614.38 141.52 L 616.27 141.52 L 618.16 141.53 L 620.05 142.33 L 621.94 141.73 L 623.82 141.68 L 625.71 141.68 L 627.60 141.66 L 629.49 141.67 L 631.38 141.65 L 633.27 139.51 L 635.16 136.07 L 637.05 136.04 L 638.94 133.43 L 640.83 131.89 L 642.72 131.13 L 644.61 131.51 L 646.50 131.50 L 648.39 131.57 L 650.28 131.56 L 652.17 131.49 L 654.06 131.49 L 655.94 131.49 L 657.83 131.49 L 659.72 131.49 L 661.61 131.49 L 663.50 131.49 L 665.39 131.49 L 667.28 131.49 L 669.17 131.49 L 671.06 131.49 L 672.95 131.49 L 674.84 131.49 L 676.73 131.49 L 678.62 131.49 L 680.51 131.49 L 682.40 131.49 L 684.29 131.49 L 686.18 131.49 L 688.06 131.49 L 689.95 131.49 L 691.84 131.49 L 693.73 131.49 L 695.62 131.49 L 697.51 131.49 L 699.40 131.49 L 701.29 131.49 L 703.18 131.49 L 705.07 131.49 L 706.96 131.49 L 708.85 131.49 L 710.74 131.49 L 712.63 131.49 L 714.52 131.49 L 716.41 131.49 L 718.29 131.49 L 720.18 131.49 L 722.07 131.49 L 723.96 131.49 L 725.85 131.49 L 727.74 131.49 L 729.63 131.49 L 731.52 131.49 L 733.41 131.49 L 735.30 131.49 L 737.19 131.49 L 739.08 131.49 L 740.97 131.49 L 742.86 131.49 L 744.75 131.49 L 746.64 131.49 L 748.53 131.49 L 750.41 131.49 L 752.30 131.49 L 754.19 131.49 L 756.08 131.49 L 757.97 131.49 L 759.86 131.49 L 761.75 131.49 L 763.64 131.49 L 765.53 131.49 L 767.42 131.49 L 769.31 131.49 L 771.20 131.49 L 773.09 131.49 L 774.98 131.49 L 776.87 131.49 L 778.76 131.49 L 780.65 131.49 L 782.53 131.49 L 784.42 131.49 L 786.31 131.49 L 788.20 131.49 L 790.09 131.49 L 791.98 131.49 L 793.87 131.49 L 795.76 131.49 L 797.65 131.49 L 799.54 131.49 L 801.43 131.49 L 803.32 131.49 L 805.21 131.49 L 807.10 131.49 L 808.99 131.49 L 810.88 131.49 L 812.76 131.49 L 814.65 131.49 L 816.54 131.49 L 818.43 131.49 L 820.32 131.49 L 822.21 131.49 L 824.10 131.49 L 825.99 131.49 L 827.88 131.49 L 829.77 131.49 L 831.66 131.49 L 833.55 131.49 L 835.44 131.49 L 837.33 131.49 L 839.22 131.49 L 841.11 131.49 L 843.00 131.49 L 844.88 131.49 L 846.77 131.49 L 848.66 131.49 L 850.55 131.49 L 852.44 131.49 L 854.33 131.49 L 856.22 131.49 L 858.11 131.49 L 860.00 131.49" fill="none" stroke="#3fb950" stroke-width="2"/>
    <circle cx="860.00" cy="131.49" r="3" fill="#3fb950"/>
    <text x="40.00" y="235.00" font-size="9" fill="#c9d1d9" text-anchor="middle" transform="rotate(-45 40.00 235.00)">27.09.2025</text><text x="121.24" y="235.00" font-size="9" fill="#c9d1d9" text-anchor="middle" transform="rotate(-45 121.24 235.00)">28.09.2025</text><text x="202.49" y="235.00" font-size="9" fill="#c9d1d9" text-anchor="middle" transform="rotate(-45 202.49 235.00)">29.09.2025</text><text x="283.73" y="235.00" font-size="9" fill="#c9d1d9" text-anchor="middle" transform="rotate(-45 283.73 235.00)">04.10.2025</text><text x="364.98" y="235.00" font-size="9" fill="#c9d1d9" text-anchor="middle" transform="rotate(-45 364.98 235.00)">04.10.2025</text><text x="446.22" y="235.00" font-size="9" fill="#c9d1d9" text-anchor="middle" transform="rotate(-45 446.22 235.00)">04.10.2025</text><text x="527.47" y="235.00" font-size="9" fill="#c9d1d9" text-anchor="middle" transform="rotate(-45 527.47 235.00)">05.10.2025</text><text x="608.71" y="235.00" font-size="9" fill="#c9d1d9" text-anchor="middle" transform="rotate(-45 608.71 235.00)">09.10.2025</text><text x="689.95" y="235.00" font-size="9" fill="#c9d1d9" text-anchor="middle" transform="rotate(-45 689.95 235.00)">29.10.2025</text><text x="771.20" y="235.00" font-size="9" fill="#c9d1d9" text-anchor="middle" transform="rotate(-45 771.20 235.00)">11.12.2025</text><text x="852.44" y="235.00" font-size="9" fill="#c9d1d9" text-anchor="middle" transform="rotate(-45 852.44 235.00)">22.01.2026</text>
  </g>
</svg>