<svg xmlns="http://www.w3.org/2000/svg" width="900" height="290" style="font-family: -apple-system, BlinkMacSystemFont, 'Segoe UI', Helvetica, Arial, sans-serif;">
  <rect width="100%" height="100%" fill="white"/>
  <g>
    <line x1="40" y1="220.00" x2="860" y2="220.00" stroke="#e5e7eb"/><text x="32" y="224.00" font-size="10" fill="#111827" text-anchor="end">0</text><line x1="40" y1="175.00" x2="860" y2="175.00" stroke="#e5e7eb"/><text x="32" y="179.00" font-size="10" fill="#111827" text-anchor="end">25k</text><line x1="40" y1="130.00" x2="860" y2="130.00" stroke="#e5e7eb"/><text x="32" y="134.00" font-size="10" fill="#111827" text-anchor="end">50k</text><line x1="40" y1="85.00" x2="860" y2="85.00" stroke="#e5e7eb"/><text x="32" y="89.00" font-size="10" fill="#111827" text-anchor="end">75k</text><line x1="40" y1="40.00" x2="860" y2="40.00" stroke="#e5e7eb"/><text x="32" y="44.00" font-size="10" fill="#111827" text-anchor="end">100k</text>
    <line x1="40.00" y1="40" x2="40.00" y2="220" stroke="#e5e7eb" opacity="0.5"/><line x1="121.12" y1="40" x2="121.12" y2="220" stroke="#e5e7eb" opacity="0.5"/><line x1="202.24" y1="40" x2="202.24" y2="220" stroke="#e5e7eb" opacity="0.5"/><line x1="283.35" y1="40" x2="283.35" y2="220" stroke="#e5e7eb" opacity="0.5"/><line x1="364.47" y1="40" x2="364.47" y2="220" stroke="#e5e7eb" opacity="0.5"/><line x1="445.59" y1="40" x2="445.59" y2="220" stroke="#e5e7eb" opacity="0.5"/><line x1="526.71" y1="40" x2="526.71" y2="220" stroke="#e5e7eb" opacity="0.5"/><line x1="607.83" y1="40" x2="607.83" y2="220" stroke="#e5e7eb" opacity="0.5"/><line x1="688.95" y1="40" x2="688.95" y2="220" stroke="#e5e7eb" opacity="0.5"/><line x1="770.06" y1="40" x2="770.06" y2="220" stroke="#e5e7eb" opacity="0.5"/><line x1="851.18" y1="40" x2="851.18" y2="220" stroke="#e5e7eb" opacity="0.5"/>
    <line x1="40" y1="220" x2="860" y2="220" stroke="#9ca3af"/>
    <line x1="40" y1="40"   x2="40"   y2="220" stroke="#9ca3af"/>
    <path d="M 40.00 220.00 L 41.76 220.00 L 43.53 219.60 L 45.29 219.62 L 47.05 219.63 L 48.82 219.32 L 50.58 219.31 L 52.34 219.26 L 54.11 218.89 L 55.87 218.89 L 57.63 218.89 L 59.40 218.87 L 61.16 218.87 L 62.92 218.86 L 64.69 218.85 L 66.45 218.85 L 68.22 218.82 L 69.98 218.78 L 71.74 218.72 L 73.51 218.68 L 75.27 218.64 L 77.03 218.59 L 78.80 218.59 L 80.56 218.57 L 82.32 218.57 L 84.09 218.57 L 85.85 218.57 L 87.61 218.57 L 89.38 218.57 L 91.14 218.57 L 92.90 218.57 L 94.67 218.57 L 96.43 218.55 L 98.19 218.54 L 99.96 218.58 L 101.72 218.55 L 103.48 218.55 L 105.25 218.53 L 107.01 218.31 L 108.77 217.94 L 110.54 217.88 L 112.30 217.87 L 114.06 217.86 L 115.83 217.85 L 117.59 217.84 L 119.35 217.85 L 121.12 217.82 L 122.88 217.66 L 124.65 217.61 L 126.41 217.60 L 128.17 217.57 L 129.94 217.56 L 131.70 217.52 L 133.46 217.38 L 135.23 217.24 L 136.99 216.93 L 138.75 216.65 L 140.52 216.44 L 142.28 216.39 L 144.04 216.34 L 145.81 216.83 L 147.57 200.94 L 149.33 200.94 L 151.10 200.95 L 152.86 198.99 L 154.62 198.98 L 156.39 198.94 L 158.15 198.94 L 159.91 198.91 L 161.68 198.90 L 163.44 198.93 L 165.20 198.93 L 166.97 198.99 L 168.73 198.95 L 170.49 198.96 L 172.26 198.95 L 174.02 198.95 L 175.78 198.97 L 177.55 198.97 L 179.31 198.97 L 181.08 198.97 L 182.84 198.97 L 184.60 198.97 L 186.37 198.97 L 188.13 198.97 L 189.89 198.97 L 191.66 198.97 L 193.42 198.97 L 195.18 197.51 L 196.95 197.43 L 198.71 197.40 L 200.47 197.38 L 202.24 197.38 L 204.00 197.49 L 205.76 197.34 L 207.53 197.33 L 209.29 197.18 L 211.05 197.41 L 212.82 197.41 L 214.58 197.29 L 216.34 197.29 L 218.11 197.22 L 219.87 197.21 L 221.63 197.15 L 223.40 196.94 L 225.16 197.00 L 226.92 197.41 L 228.69 197.41 L 230.45 197.30 L 232.22 197.26 L 233.98 197.19 L 235.74 197.19 L 237.51 197.19 L 239.27 197.19 L 241.03 197.18 L 242.80 197.12 L 244.56 197.09 L 246.32 197.04 L 248.09 197.00 L 249.85 196.96 L 251.61 196.92 L 253.38 196.91 L 255.14 196.86 L 256.90 196.80 L 258.67 196.75 L 260.43 196.69 L 262.19 196.66 L 263.96 196.63 L 265.72 196.56 L 267.48 196.51 L 269.25 196.47 L 271.01 196.45 L 272.77 196.40 L 274.54 196.37 L 276.30 196.34 L 278.06 196.28 L 279.83 196.20 L 281.59 196.12 L 283.35 196.02 L 285.12 195.89 L 286.88 195.77 L 288.65 195.68 L 290.41 195.63 L 292.17 195.58 L 293.94 195.53 L 295.70 195.44 L 297.46 195.35 L 299.23 195.22 L 300.99 195.11 L 302.75 194.95 L 304.52 194.82 L 306.28 194.68 L 308.04 194.57 L 309.81 194.55 L 311.57 194.51 L 313.33 194.48 L 315.10 194.44 L 316.86 194.40 L 318.62 194.37 L 320.39 194.34 L 322.15 194.29 L 323.91 194.25 L 325.68 194.23 L 327.44 194.21 L 329.20 194.19 L 330.97 194.16 L 332.73 194.12 L 334.49 194.07 L 336.26 193.99 L 338.02 193.94 L 339.78 193.87 L 341.55 193.80 L 343.31 193.74 L 345.08 193.72 L 346.84 193.70 L 348.60 193.66 L 350.37 193.62 L 352.13 193.56 L 353.89 193.49 L 355.66 193.43 L 357.42 193.35 L 359.18 193.27 L 360.95 193.20 L 362.71 193.14 L 364.47 193.15 L 366.24 193.15 L 368.00 193.15 L 369.76 193.18 L 371.53 193.09 L 373.29 193.07 L 375.05 193.07 L 376.82 193.08 L 378.58 193.00 L 380.34 192.95 L 382.11 192.95 L 383.87 192.95 L 385.63 192.95 L 387.40 192.80 L 389.16 192.73 L 390.92 192.69 L 392.69 192.67 L 394.45 192.67 L 396.22 192.68 L 397.98 192.64 L 399.74 192.63 L 401.51 192.63 L 403.27 190.39 L 405.03 189.96 L 406.80 189.85 L 408.56 189.53 L 410.32 189.52 L 412.09 189.36 L 413.85 187.79 L 415.61 187.36 L 417.38 181.35 L 419.14 181.35 L 420.90 180.72 L 422.67 180.71 L 424.43 180.26 L 426.19 179.68 L 427.96 179.67 L 429.72 178.77 L 431.48 177.57 L 433.25 175.55 L 435.01 174.52 L 436.77 173.86 L 438.54 174.17 L 440.30 173.10 L 442.06 173.10 L 443.83 171.18 L 445.59 168.37 L 447.35 168.37 L 449.12 165.86 L 450.88 163.63 L 452.65 163.63 L 454.41 163.62 L 456.17 162.88 L 457.94 161.06 L 459.70 193.89 L 461.46 193.22 L 463.23 192.73 L 464.99 192.34 L 466.75 189.45 L 468.52 188.03 L 470.28 188.03 L 472.04 180.86 L 473.81 148.96 L 475.57 144.25 L 477.33 176.00 L 479.10 176.17 L 480.86 175.77 L 482.62 175.72 L 484.39 197.26 L 486.15 197.26 L 487.91 197.06 L 489.68 196.44 L 491.44 194.49 L 493.20 194.50 L 494.97 194.49 L 496.73 194.49 L 498.49 194.49 L 500.26 194.48 L 502.02 194.48 L 503.78 194.62 L 505.55 206.08 L 507.31 206.08 L 509.08 206.05 L 510.84 206.04 L 512.60 205.22 L 514.37 204.28 L 516.13 204.28 L 517.89 204.28 L 519.66 200.22 L 521.42 204.28 L 523.18 204.28 L 524.95 204.28 L 526.71 198.60 L 528.47 198.60 L 530.24 198.60 L 532.00 198.60 L 533.76 193.00 L 535.53 193.00 L 537.29 188.39 L 539.05 188.39 L 540.82 179.75 L 542.58 174.84 L 544.34 173.23 L 546.11 170.37 L 547.87 169.87 L 549.63 153.88 L 551.40 149.24 L 553.16 152.04 L 554.92 141.93 L 556.69 141.88 L 558.45 141.69 L 560.22 141.69 L 561.98 141.76 L 563.74 141.75 L 565.51 140.68 L 567.27 141.38 L 569.03 141.36 L 570.80 141.83 L 572.56 141.39 L 574.32 141.39 L 576.09 141.52 L 577.85 141.52 L 579.61 141.53 L 581.38 142.33 L 583.14 141.73 L 584.90 141.68 L 586.67 141.68 L 588.43 141.66 L 590.19 141.67 L 591.96 141.65 L 593.72 139.51 L 595.48 136.07 L 597.25 136.04 L 599.01 133.43 L 600.77 131.89 L 602.54 131.13 L 604.30 131.51 L 606.06 131.50 L 607.83 131.57 L 609.59 131.56 L 611.35 131.49 L 613.12 131.49 L 614.88 131.49 L 616.65 131.49 L 618.41 131.49 L 620.17 131.49 L 621.94 131.49 L 623.70 131.49 L 625.46 131.49 L 627.23 131.49 L 628.99 131.49 L 630.75 131.49 L 632.52 131.49 L 634.28 131.49 L 636.04 131.49 L 637.81 131.49 L 639.57 131.49 L 641.33 131.49 L 643.10 131.49 L 644.86 131.49 L 646.62 131.49 L 648.39 131.49 L 650.15 131.49 L 651.91 131.49 L 653.68 131.49 L 655.44 131.49 L 657.20 131.49 L 658.97 131.49 L 660.73 131.49 L 662.49 131.49 L 664.26 131.49 L 666.02 131.49 L 667.78 131.49 L 669.55 131.49 L 671.31 131.49 L 673.08 131.49 L 674.84 131.49 L 676.60 131.49 L 678.37 131.49 L 680.13 131.49 L 681.89 131.49 L 683.66 131.49 L 685.42 131.49 L 687.18 131.49 L 688.95 131.49 L 690.71 131.49 L 692.47 131.49 L 694.24 131.49 L 696.00 131.49 L 697.76 131.49 L 699.53 131.49 L 701.29 131.49 L 703.05 131.49 L 704.82 131.49 L 706.58 131.49 L 708.34 131.49 L 710.11 131.49 L 711.87 131.49 L 713.63 131.49 L 715.40 131.49 L 717.16 131.49 L 718.92 131.49 L 720.69 131.49 L 722.45 131.49 L 724.22 131.49 L 725.98 131.49 L 727.74 131.49 L 729.51 131.49 L 731.27 131.49 L 733.03 131.49 L 734.80 131.49 L 736.56 131.49 L 738.32 131.49 L 740.09 131.49 L 741.85 131.49 L 743.61 131.49 L 745.38 131.49 L 747.14 131.49 L 748.90 131.49 L 750.67 131.49 L 752.43 131.49 L 754.19 131.49 L 755.96 131.49 L 757.72 131.49 L 759.48 131.49 L 761.25 131.49 L 763.01 131.49 L 764.77 131.49 L 766.54 131.49 L 768.30 131.49 L 770.06 131.49 L 771.83 131.49 L 773.59 131.49 L 775.35 131.49 L 777.12 131.49 L 778.88 131.49 L 780.65 131.49 L 782.41 131.49 L 784.17 131.49 L 785.94 131.49 L 787.70 131.49 L 789.46 131.49 L 791.23 131.49 L 792.99 131.49 L 794.75 131.49 L 796.52 131.49 L 798.28 131.49 L 800.04 131.49 L 801.81 131.49 L 803.57 131.49 L 805.33 131.49 L 807.10 131.49 L 808.86 131.49 L 810.62 131.49 L 812.39 131.49 L 814.15 131.49 L 815.91 131.49 L 817.68 131.49 L 819.44 131.49 L 821.20 131.49 L 822.97 131.49 L 824.73 131.49 L 826.49 131.49 L 828.26 131.49 L 830.02 131.49 L 831.78 131.49 L 833.55 131.49 L 835.31 131.49 L 837.08 131.49 L 838.84 131.49 L 840.60 131.49 L 842.37 131.49 L 844.13 131.49 L 845.89 131.49 L 847.66 131.49 L 849.42 131.49 L 851.18 131.49 L 852.95 131.49 L 854.71 131.49 L 856.47 131.49 L 858.24 131.49 L 860.00 131.49" fill="none" stroke="#111827" stroke-width="2"/>
    <circle cx="860.00" cy="131.49" r="3" fill="#111827"/>
    <text x="40.00" y="235.00" font-size="9" fill="#111827" text-anchor="middle" transform="rotate(-45 40.00 235.00)">27.09.2025</text><text x="121.12" y="235.00" font-size="9" fill="#111827" text-anchor="middle" transform="rotate(-45 121.12 235.00)">28.09.2025</text><text x="202.24" y="235.00" font-size="9" fill="#111827" text-anchor="middle" transform="rotate(-45 202.24 235.00)">29.09.2025</text><text x="283.35" y="235.00" font-size="9" fill="#111827" text-anchor="middle" transform="rotate(-45 283.35 235.00)">04.10.2025</text><text x="364.47" y="235.00" font-size="9" fill="#111827" text-anchor="middle" transform="rotate(-45 364.47 235.00)">04.10.2025</text><text x="445.59" y="235.00" font-size="9" fill="#111827" text-anchor="middle" transform="rotate(-45 445.59 235.00)">04.10.2025</text><text x="526.71" y="235.00" font-size="9" fill="#111827" text-anchor="middle" transform="rotate(-45 526.71 235.00)">07.10.2025</text><text x="607.83" y="235.00" font-size="9" fill="#111827" text-anchor="middle" transform="rotate(-45 607.83 235.00)">10.10.2025</text><text x="688.95" y="235.00" font-size="9" fill="#111827" text-anchor="middle" transform="rotate(-45 688.95 235.00)">22.11.2025</text><text x="770.06" y="235.00" font-size="9" fill="#111827" text-anchor="middle" transform="rotate(-45 770.06 235.00)">07.01.2026</text><text x="851.18" y="235.00" font-size="9" fill="#111827" text-anchor="middle" transform="rotate(-45 851.18 235.00)">19.02.2026</text>
  </g>
</svg>