<svg xmlns="http://www.w3.org/2000/svg" width="900" height="290" style="font-family: -apple-system, BlinkMacSystemFont, 'Segoe UI', Helvetica, Arial, sans-serif;">
  <rect width="100%" height="100%" fill="#0d1117"/>
  <g>
    <line x1="40" y1="220.00" x2="860" y2="220.00" stroke="#30363d"/><text x="32" y="224.00" font-size="10" fill="#c9d1d9" text-anchor="end">0</text><line x1="40" y1="175.00" x2="860" y2="175.00" stroke="#30363d"/><text x="32" y="179.00" font-size="10" fill="#c9d1d9" text-anchor="end">25k</text><line x1="40" y1="130.00" x2="860" y2="130.00" stroke="#30363d"/><text x="32" y="134.00" font-size="10" fill="#c9d1d9" text-anchor="end">50k</text><line x1="40" y1="85.00" x2="860" y2="85.00" stroke="#30363d"/><text x="32" y="89.00" font-size="10" fill="#c9d1d9" text-anchor="end">75k</text><line x1="40" y1="40.00" x2="860" y2="40.00" stroke="#30363d"/><text x="32" y="44.00" font-size="10" fill="#c9d1d9" text-anchor="end">100k</text>
    <line x1="40.00" y1="40" x2="40.00" y2="220" stroke="#30363d" opacity="0.5"/><line x1="122.23" y1="40" x2="122.23" y2="220" stroke="#30363d" opacity="0.5"/><line x1="204.46" y1="40" x2="204.46" y2="220" stroke="#30363d" opacity="0.5"/><line x1="286.69" y1="40" x2="286.69" y2="220" stroke="#30363d" opacity="0.5"/><line x1="368.91" y1="40" x2="368.91" y2="220" stroke="#30363d" opacity="0.5"/><line x1="451.14" y1="40" x2="451.14" y2="220" stroke="#30363d" opacity="0.5"/><line x1="533.37" y1="40" x2="533.37" y2="220" stroke="#30363d" opacity="0.5"/><line x1="615.60" y1="40" x2="615.60" y2="220" stroke="#30363d" opacity="0.5"/><line x1="697.83" y1="40" x2="697.83" y2="220" stroke="#30363d" opacity="0.5"/><line x1="780.06" y1="40" x2="780.06" y2="220" stroke="#30363d" opacity="0.5"/>
    <line x1="40" y1="220" x2="860" y2="220" stroke="#30363d"/>
    <line x1="40" y1="40"   x2="40"   y2="220" stroke="#30363d"/>
    <path d="M 40.00 220.00 L 42.28 220.00 L 44.57 219.60 L 46.85 219.62 L 49.14 219.63 L 51.42 219.32 L 53.70 219.31 L 55.99 219.26 L 58.27 218.89 L 60.56 218.89 L 62.84 218.89 L 65.13 218.87 L 67.41 218.87 L 69.69 218.86 L 71.98 218.85 L 74.26 218.85 L 76.55 218.82 L 78.83 218.78 L 81.11 218.72 L 83.40 218.68 L 85.68 218.64 L 87.97 218.59 L 90.25 218.59 L 92.53 218.57 L 94.82 218.57 L 97.10 218.57 L 99.39 218.57 L 101.67 218.57 L 103.96 218.57 L 106.24 218.57 L 108.52 218.57 L 110.81 218.57 L 113.09 218.55 L 115.38 218.54 L 117.66 218.58 L 119.94 218.55 L 122.23 218.55 L 124.51 218.53 L 126.80 218.31 L 129.08 217.94 L 131.36 217.88 L 133.65 217.87 L 135.93 217.86 L 138.22 217.85 L 140.50 217.84 L 142.79 217.85 L 145.07 217.82 L 147.35 217.66 L 149.64 217.61 L 151.92 217.60 L 154.21 217.57 L 156.49 217.56 L 158.77 217.52 L 161.06 217.38 L 163.34 217.24 L 165.63 216.93 L 167.91 216.65 L 170.19 216.44 L 172.48 216.39 L 174.76 216.34 L 177.05 216.83 L 179.33 200.94 L 181.62 200.94 L 183.90 200.95 L 186.18 198.99 L 188.47 198.98 L 190.75 198.94 L 193.04 198.94 L 195.32 198.91 L 197.60 198.90 L 199.89 198.93 L 202.17 198.93 L 204.46 198.99 L 206.74 198.95 L 209.03 198.96 L 211.31 198.95 L 213.59 198.95 L 215.88 198.97 L 218.16 198.97 L 220.45 198.97 L 222.73 198.97 L 225.01 198.97 L 227.30 198.97 L 229.58 198.97 L 231.87 198.97 L 234.15 198.97 L 236.43 198.97 L 238.72 198.97 L 241.00 197.51 L 243.29 197.43 L 245.57 197.40 L 247.86 197.38 L 250.14 197.38 L 252.42 197.49 L 254.71 197.34 L 256.99 197.33 L 259.28 197.18 L 261.56 197.41 L 263.84 197.41 L 266.13 197.29 L 268.41 197.29 L 270.70 197.22 L 272.98 197.21 L 275.26 197.15 L 277.55 196.94 L 279.83 197.00 L 282.12 197.41 L 284.40 197.41 L 286.69 197.30 L 288.97 197.26 L 291.25 197.19 L 293.54 197.19 L 295.82 197.19 L 298.11 197.19 L 300.39 197.18 L 302.67 197.12 L 304.96 197.09 L 307.24 197.04 L 309.53 197.00 L 311.81 196.96 L 314.09 196.92 L 316.38 196.91 L 318.66 196.86 L 320.95 196.80 L 323.23 196.75 L 325.52 196.69 L 327.80 196.66 L 330.08 196.63 L 332.37 196.56 L 334.65 196.51 L 336.94 196.47 L 339.22 196.45 L 341.50 196.40 L 343.79 196.37 L 346.07 196.34 L 348.36 196.28 L 350.64 196.20 L 352.92 196.12 L 355.21 196.02 L 357.49 195.89 L 359.78 195.77 L 362.06 195.68 L 364.35 195.63 L 366.63 195.58 L 368.91 195.53 L 371.20 195.44 L 373.48 195.35 L 375.77 195.22 L 378.05 195.11 L 380.33 194.95 L 382.62 194.82 L 384.90 194.68 L 387.19 194.57 L 389.47 194.55 L 391.75 194.51 L 394.04 194.48 L 396.32 194.44 L 398.61 194.40 L 400.89 194.37 L 403.18 194.34 L 405.46 194.29 L 407.74 194.25 L 410.03 194.23 L 412.31 194.21 L 414.60 194.19 L 416.88 194.16 L 419.16 194.12 L 421.45 194.07 L 423.73 193.99 L 426.02 193.94 L 428.30 193.87 L 430.58 193.80 L 432.87 193.74 L 435.15 193.72 L 437.44 193.70 L 439.72 193.66 L 442.01 193.62 L 444.29 193.56 L 446.57 193.49 L 448.86 193.43 L 451.14 193.35 L 453.43 193.27 L 455.71 193.20 L 457.99 193.14 L 460.28 193.15 L 462.56 193.15 L 464.85 193.15 L 467.13 193.18 L 469.42 193.09 L 471.70 193.07 L 473.98 193.07 L 476.27 193.08 L 478.55 193.00 L 480.84 192.95 L 483.12 192.95 L 485.40 192.95 L 487.69 192.95 L 489.97 192.80 L 492.26 192.73 L 494.54 192.69 L 496.82 192.67 L 499.11 192.67 L 501.39 192.68 L 503.68 192.64 L 505.96 192.63 L 508.25 192.63 L 510.53 190.39 L 512.81 189.96 L 515.10 189.85 L 517.38 189.53 L 519.67 189.52 L 521.95 189.36 L 524.23 187.79 L 526.52 187.36 L 528.80 181.35 L 531.09 181.35 L 533.37 180.72 L 535.65 180.71 L 537.94 180.26 L 540.22 179.68 L 542.51 179.67 L 544.79 178.77 L 547.08 177.57 L 549.36 175.55 L 551.64 174.52 L 553.93 173.86 L 556.21 174.17 L 558.50 173.10 L 560.78 173.10 L 563.06 171.18 L 565.35 168.37 L 567.63 168.37 L 569.92 165.86 L 572.20 163.63 L 574.48 163.63 L 576.77 163.62 L 579.05 162.88 L 581.34 161.06 L 583.62 193.89 L 585.91 193.22 L 588.19 192.73 L 590.47 192.34 L 592.76 189.45 L 595.04 188.03 L 597.33 188.03 L 599.61 180.86 L 601.89 148.96 L 604.18 144.25 L 606.46 176.00 L 608.75 176.17 L 611.03 175.77 L 613.31 175.72 L 615.60 197.26 L 617.88 197.26 L 620.17 197.06 L 622.45 196.44 L 624.74 194.49 L 627.02 194.50 L 629.30 194.49 L 631.59 194.49 L 633.87 194.49 L 636.16 194.48 L 638.44 194.48 L 640.72 194.62 L 643.01 206.08 L 645.29 206.08 L 647.58 206.05 L 649.86 206.04 L 652.14 205.22 L 654.43 204.28 L 656.71 204.28 L 659.00 204.28 L 661.28 200.22 L 663.57 204.28 L 665.85 204.28 L 668.13 204.28 L 670.42 198.60 L 672.70 198.60 L 674.99 198.60 L 677.27 198.60 L 679.55 193.00 L 681.84 193.00 L 684.12 188.39 L 686.41 188.39 L 688.69 179.75 L 690.97 174.84 L 693.26 173.23 L 695.54 170.37 L 697.83 169.87 L 700.11 153.88 L 702.40 149.24 L 704.68 152.04 L 706.96 141.93 L 709.25 141.88 L 711.53 141.69 L 713.82 141.69 L 716.10 141.76 L 718.38 141.75 L 720.67 140.68 L 722.95 141.38 L 725.24 141.36 L 727.52 141.83 L 729.81 141.39 L 732.09 141.39 L 734.37 141.52 L 736.66 141.52 L 738.94 141.53 L 741.23 142.33 L 743.51 141.73 L 745.79 141.68 L 748.08 141.68 L 750.36 141.66 L 752.65 141.67 L 754.93 141.65 L 757.21 139.51 L 759.50 136.07 L 761.78 136.04 L 764.07 133.43 L 766.35 131.89 L 768.64 131.13 L 770.92 131.51 L 773.20 131.50 L 775.49 131.57 L 777.77 131.56 L 780.06 131.49 L 782.34 131.49 L 784.62 131.49 L 786.91 131.49 L 789.19 131.49 L 791.48 131.49 L 793.76 131.49 L 796.04 131.49 L 798.33 131.49 L 800.61 131.49 L 802.90 131.49 L 805.18 131.49 L 807.47 131.49 L 809.75 131.49 L 812.03 131.49 L 814.32 131.49 L 816.60 131.49 L 818.89 131.49 L 821.17 131.49 L 823.45 131.49 L 825.74 131.49 L 828.02 131.49 L 830.31 131.49 L 832.59 131.49 L 834.87 131.49 L 837.16 131.49 L 839.44 131.49 L 841.73 131.49 L 844.01 131.49 L 846.30 131.49 L 848.58 131.49 L 850.86 131.49 L 853.15 131.49 L 855.43 131.49 L 857.72 131.49 L 860.00 131.49" fill="none" stroke="#3fb950" stroke-width="2"/>
    <circle cx="860.00" cy="131.49" r="3" fill="#3fb950"/>
    <text x="40.00" y="235.00" font-size="9" fill="#c9d1d9" text-anchor="middle" transform="rotate(-45 40.00 235.00)">27.09.2025</text><text x="122.23" y="235.00" font-size="9" fill="#c9d1d9" text-anchor="middle" transform="rotate(-45 122.23 235.00)">28.09.2025</text><text x="204.46" y="235.00" font-size="9" fill="#c9d1d9" text-anchor="middle" transform="rotate(-45 204.46 235.00)">28.09.2025</text><text x="286.69" y="235.00" font-size="9" fill="#c9d1d9" text-anchor="middle" transform="rotate(-45 286.69 235.00)">30.09.2025</text><text x="368.91" y="235.00" font-size="9" fill="#c9d1d9" text-anchor="middle" transform="rotate(-45 368.91 235.00)">04.10.2025</text><text x="451.14" y="235.00" font-size="9" fill="#c9d1d9" text-anchor="middle" transform="rotate(-45 451.14 235.00)">04.10.2025</text><text x="533.37" y="235.00" font-size="9" fill="#c9d1d9" text-anchor="middle" transform="rotate(-45 533.37 235.00)">04.10.2025</text><text x="615.60" y="235.00" font-size="9" fill="#c9d1d9" text-anchor="middle" transform="rotate(-45 615.60 235.00)">05.10.2025</text><text x="697.83" y="235.00" font-size="9" fill="#c9d1d9" text-anchor="middle" transform="rotate(-45 697.83 235.00)">08.10.2025</text><text x="780.06" y="235.00" font-size="9" fill="#c9d1d9" text-anchor="middle" transform="rotate(-45 780.06 235.00)">10.10.2025</text>
  </g>
</svg>