<svg xmlns="http://www.w3.org/2000/svg" width="900" height="290" style="font-family: -apple-system, BlinkMacSystemFont, 'Segoe UI', Helvetica, Arial, sans-serif;">
  <rect width="100%" height="100%" fill="white"/>
  <g>
    <line x1="40" y1="220.00" x2="860" y2="220.00" stroke="#e5e7eb"/><text x="32" y="224.00" font-size="10" fill="#111827" text-anchor="end">0</text><line x1="40" y1="175.00" x2="860" y2="175.00" stroke="#e5e7eb"/><text x="32" y="179.00" font-size="10" fill="#111827" text-anchor="end">25k</text><line x1="40" y1="130.00" x2="860" y2="130.00" stroke="#e5e7eb"/><text x="32" y="134.00" font-size="10" fill="#111827" text-anchor="end">50k</text><line x1="40" y1="85.00" x2="860" y2="85.00" stroke="#e5e7eb"/><text x="32" y="89.00" font-size="10" fill="#111827" text-anchor="end">75k</text><line x1="40" y1="40.00" x2="860" y2="40.00" stroke="#e5e7eb"/><text x="32" y="44.00" font-size="10" fill="#111827" text-anchor="end">100k</text>
    <line x1="40.00" y1="40" x2="40.00" y2="220" stroke="#e5e7eb" opacity="0.5"/><line x1="120.78" y1="40" x2="120.78" y2="220" stroke="#e5e7eb" opacity="0.5"/><line x1="201.55" y1="40" x2="201.55" y2="220" stroke="#e5e7eb" opacity="0.5"/><line x1="282.33" y1="40" x2="282.33" y2="220" stroke="#e5e7eb" opacity="0.5"/><line x1="363.10" y1="40" x2="363.10" y2="220" stroke="#e5e7eb" opacity="0.5"/><line x1="443.88" y1="40" x2="443.88" y2="220" stroke="#e5e7eb" opacity="0.5"/><line x1="524.66" y1="40" x2="524.66" y2="220" stroke="#e5e7eb" opacity="0.5"/><line x1="605.43" y1="40" x2="605.43" y2="220" stroke="#e5e7eb" opacity="0.5"/><line x1="686.21" y1="40" x2="686.21" y2="220" stroke="#e5e7eb" opacity="0.5"/><line x1="766.99" y1="40" x2="766.99" y2="220" stroke="#e5e7eb" opacity="0.5"/><line x1="847.76" y1="40" x2="847.76" y2="220" stroke="#e5e7eb" opacity="0.5"/>
    <line x1="40" y1="220" x2="860" y2="220" stroke="#9ca3af"/>
    <line x1="40" y1="40"   x2="40"   y2="220" stroke="#9ca3af"/>
    <path d="M 40.00 220.00 L 42.45 220.00 L 44.90 219.60 L 47.34 219.62 L 49.79 219.63 L 52.24 219.32 L 54.69 219.31 L 57.13 219.26 L 59.58 218.89 L 62.03 218.89 L 64.48 218.89 L 66.93 218.87 L 69.37 218.87 L 71.82 218.86 L 74.27 218.85 L 76.72 218.85 L 79.16 218.82 L 81.61 218.78 L 84.06 218.72 L 86.51 218.68 L 88.96 218.64 L 91.40 218.59 L 93.85 218.59 L 96.30 218.57 L 98.75 218.57 L 101.19 218.57 L 103.64 218.57 L 106.09 218.57 L 108.54 218.57 L 110.99 218.57 L 113.43 218.57 L 115.88 218.57 L 118.33 218.55 L 120.78 218.54 L 123.22 218.58 L 125.67 218.55 L 128.12 218.55 L 130.57 218.53 L 133.01 218.31 L 135.46 217.94 L 137.91 217.88 L 140.36 217.87 L 142.81 217.86 L 145.25 217.85 L 147.70 217.84 L 150.15 217.85 L 152.60 217.82 L 155.04 217.66 L 157.49 217.61 L 159.94 217.60 L 162.39 217.57 L 164.84 217.56 L 167.28 217.52 L 169.73 217.38 L 172.18 217.24 L 174.63 216.93 L 177.07 216.65 L 179.52 216.44 L 181.97 216.39 L 184.42 216.34 L 186.87 216.83 L 189.31 200.94 L 191.76 200.94 L 194.21 200.95 L 196.66 198.99 L 199.10 198.98 L 201.55 198.94 L 204.00 198.94 L 206.45 198.91 L 208.90 198.90 L 211.34 198.93 L 213.79 198.93 L 216.24 198.99 L 218.69 198.95 L 221.13 198.96 L 223.58 198.95 L 226.03 198.95 L 228.48 198.97 L 230.93 198.97 L 233.37 198.97 L 235.82 198.97 L 238.27 198.97 L 240.72 198.97 L 243.16 198.97 L 245.61 198.97 L 248.06 198.97 L 250.51 198.97 L 252.96 198.97 L 255.40 197.51 L 257.85 197.43 L 260.30 197.40 L 262.75 197.38 L 265.19 197.38 L 267.64 197.49 L 270.09 197.34 L 272.54 197.33 L 274.99 197.18 L 277.43 197.41 L 279.88 197.41 L 282.33 197.29 L 284.78 197.29 L 287.22 197.22 L 289.67 197.21 L 292.12 197.15 L 294.57 196.94 L 297.01 197.00 L 299.46 197.41 L 301.91 197.41 L 304.36 197.30 L 306.81 197.26 L 309.25 197.19 L 311.70 197.19 L 314.15 197.19 L 316.60 197.19 L 319.04 197.18 L 321.49 197.12 L 323.94 197.09 L 326.39 197.04 L 328.84 197.00 L 331.28 196.96 L 333.73 196.92 L 336.18 196.91 L 338.63 196.86 L 341.07 196.80 L 343.52 196.75 L 345.97 196.69 L 348.42 196.66 L 350.87 196.63 L 353.31 196.56 L 355.76 196.51 L 358.21 196.47 L 360.66 196.45 L 363.10 196.40 L 365.55 196.37 L 368.00 196.34 L 370.45 196.28 L 372.90 196.20 L 375.34 196.12 L 377.79 196.02 L 380.24 195.89 L 382.69 195.77 L 385.13 195.68 L 387.58 195.63 L 390.03 195.58 L 392.48 195.53 L 394.93 195.44 L 397.37 195.35 L 399.82 195.22 L 402.27 195.11 L 404.72 194.95 L 407.16 194.82 L 409.61 194.68 L 412.06 194.57 L 414.51 194.55 L 416.96 194.51 L 419.40 194.48 L 421.85 194.44 L 424.30 194.40 L 426.75 194.37 L 429.19 194.34 L 431.64 194.29 L 434.09 194.25 L 436.54 194.23 L 438.99 194.21 L 441.43 194.19 L 443.88 194.16 L 446.33 194.12 L 448.78 194.07 L 451.22 193.99 L 453.67 193.94 L 456.12 193.87 L 458.57 193.80 L 461.01 193.74 L 463.46 193.72 L 465.91 193.70 L 468.36 193.66 L 470.81 193.62 L 473.25 193.56 L 475.70 193.49 L 478.15 193.43 L 480.60 193.35 L 483.04 193.27 L 485.49 193.20 L 487.94 193.14 L 490.39 193.15 L 492.84 193.15 L 495.28 193.15 L 497.73 193.18 L 500.18 193.09 L 502.63 193.07 L 505.07 193.07 L 507.52 193.08 L 509.97 193.00 L 512.42 192.95 L 514.87 192.95 L 517.31 192.95 L 519.76 192.95 L 522.21 192.80 L 524.66 192.73 L 527.10 192.69 L 529.55 192.67 L 532.00 192.67 L 534.45 192.68 L 536.90 192.64 L 539.34 192.63 L 541.79 192.63 L 544.24 190.39 L 546.69 189.96 L 549.13 189.85 L 551.58 189.53 L 554.03 189.52 L 556.48 189.36 L 558.93 187.79 L 561.37 187.36 L 563.82 181.35 L 566.27 181.35 L 568.72 180.72 L 571.16 180.71 L 573.61 180.26 L 576.06 179.68 L 578.51 179.67 L 580.96 178.77 L 583.40 177.57 L 585.85 175.55 L 588.30 174.52 L 590.75 173.86 L 593.19 174.17 L 595.64 173.10 L 598.09 173.10 L 600.54 171.18 L 602.99 168.37 L 605.43 168.37 L 607.88 165.86 L 610.33 163.63 L 612.78 163.63 L 615.22 163.62 L 617.67 162.88 L 620.12 161.06 L 622.57 193.89 L 625.01 193.22 L 627.46 192.73 L 629.91 192.34 L 632.36 189.45 L 634.81 188.03 L 637.25 188.03 L 639.70 180.86 L 642.15 148.96 L 644.60 144.25 L 647.04 176.00 L 649.49 176.17 L 651.94 175.77 L 654.39 175.72 L 656.84 197.26 L 659.28 197.26 L 661.73 197.06 L 664.18 196.44 L 666.63 194.49 L 669.07 194.50 L 671.52 194.49 L 673.97 194.49 L 676.42 194.49 L 678.87 194.48 L 681.31 194.48 L 683.76 194.62 L 686.21 206.08 L 688.66 206.08 L 691.10 206.05 L 693.55 206.04 L 696.00 205.22 L 698.45 204.28 L 700.90 204.28 L 703.34 204.28 L 705.79 200.22 L 708.24 204.28 L 710.69 204.28 L 713.13 204.28 L 715.58 198.60 L 718.03 198.60 L 720.48 198.60 L 722.93 198.60 L 725.37 193.00 L 727.82 193.00 L 730.27 188.39 L 732.72 188.39 L 735.16 179.75 L 737.61 174.84 L 740.06 173.23 L 742.51 170.37 L 744.96 169.87 L 747.40 153.88 L 749.85 149.24 L 752.30 152.04 L 754.75 141.93 L 757.19 141.88 L 759.64 141.69 L 762.09 141.69 L 764.54 141.76 L 766.99 141.75 L 769.43 140.68 L 771.88 141.38 L 774.33 141.36 L 776.78 141.83 L 779.22 141.39 L 781.67 141.39 L 784.12 141.52 L 786.57 141.52 L 789.01 141.53 L 791.46 142.33 L 793.91 141.73 L 796.36 141.68 L 798.81 141.68 L 801.25 141.66 L 803.70 141.67 L 806.15 141.65 L 808.60 139.51 L 811.04 136.07 L 813.49 136.04 L 815.94 133.43 L 818.39 131.89 L 820.84 131.13 L 823.28 131.51 L 825.73 131.50 L 828.18 131.57 L 830.63 131.56 L 833.07 131.49 L 835.52 131.49 L 837.97 131.49 L 840.42 131.49 L 842.87 131.49 L 845.31 131.49 L 847.76 131.49 L 850.21 131.49 L 852.66 131.49 L 855.10 131.49 L 857.55 131.49 L 860.00 131.49" fill="none" stroke="#111827" stroke-width="2"/>
    <circle cx="860.00" cy="131.49" r="3" fill="#111827"/>
    <text x="40.00" y="235.00" font-size="9" fill="#111827" text-anchor="middle" transform="rotate(-45 40.00 235.00)">27.09.2025</text><text x="120.78" y="235.00" font-size="9" fill="#111827" text-anchor="middle" transform="rotate(-45 120.78 235.00)">28.09.2025</text><text x="201.55" y="235.00" font-size="9" fill="#111827" text-anchor="middle" transform="rotate(-45 201.55 235.00)">28.09.2025</text><text x="282.33" y="235.00" font-size="9" fill="#111827" text-anchor="middle" transform="rotate(-45 282.33 235.00)">30.09.2025</text><text x="363.10" y="235.00" font-size="9" fill="#111827" text-anchor="middle" transform="rotate(-45 363.10 235.00)">04.10.2025</text><text x="443.88" y="235.00" font-size="9" fill="#111827" text-anchor="middle" transform="rotate(-45 443.88 235.00)">04.10.2025</text><text x="524.66" y="235.00" font-size="9" fill="#111827" text-anchor="middle" transform="rotate(-45 524.66 235.00)">04.10.2025</text><text x="605.43" y="235.00" font-size="9" fill="#111827" text-anchor="middle" transform="rotate(-45 605.43 235.00)">04.10.2025</text><text x="686.21" y="235.00" font-size="9" fill="#111827" text-anchor="middle" transform="rotate(-45 686.21 235.00)">05.10.2025</text><text x="766.99" y="235.00" font-size="9" fill="#111827" text-anchor="middle" transform="rotate(-45 766.99 235.00)">08.10.2025</text><text x="847.76" y="235.00" font-size="9" fill="#111827" text-anchor="middle" transform="rotate(-45 847.76 235.00)">15.10.2025</text>
  </g>
</svg>