<svg xmlns="http://www.w3.org/2000/svg" width="900" height="290" style="font-family: -apple-system, BlinkMacSystemFont, 'Segoe UI', Helvetica, Arial, sans-serif;">
  <rect width="100%" height="100%" fill="#0d1117"/>
  <g>
    <line x1="40" y1="220.00" x2="860" y2="220.00" stroke="#30363d"/><text x="32" y="224.00" font-size="10" fill="#c9d1d9" text-anchor="end">0</text><line x1="40" y1="175.00" x2="860" y2="175.00" stroke="#30363d"/><text x="32" y="179.00" font-size="10" fill="#c9d1d9" text-anchor="end">25k</text><line x1="40" y1="130.00" x2="860" y2="130.00" stroke="#30363d"/><text x="32" y="134.00" font-size="10" fill="#c9d1d9" text-anchor="end">50k</text><line x1="40" y1="85.00" x2="860" y2="85.00" stroke="#30363d"/><text x="32" y="89.00" font-size="10" fill="#c9d1d9" text-anchor="end">75k</text><line x1="40" y1="40.00" x2="860" y2="40.00" stroke="#30363d"/><text x="32" y="44.00" font-size="10" fill="#c9d1d9" text-anchor="end">100k</text>
    <line x1="40.00" y1="40" x2="40.00" y2="220" stroke="#30363d" opacity="0.5"/><line x1="121.64" y1="40" x2="121.64" y2="220" stroke="#30363d" opacity="0.5"/><line x1="203.27" y1="40" x2="203.27" y2="220" stroke="#30363d" opacity="0.5"/><line x1="284.91" y1="40" x2="284.91" y2="220" stroke="#30363d" opacity="0.5"/><line x1="366.55" y1="40" x2="366.55" y2="220" stroke="#30363d" opacity="0.5"/><line x1="448.19" y1="40" x2="448.19" y2="220" stroke="#30363d" opacity="0.5"/><line x1="529.82" y1="40" x2="529.82" y2="220" stroke="#30363d" opacity="0.5"/><line x1="611.46" y1="40" x2="611.46" y2="220" stroke="#30363d" opacity="0.5"/><line x1="693.10" y1="40" x2="693.10" y2="220" stroke="#30363d" opacity="0.5"/><line x1="774.73" y1="40" x2="774.73" y2="220" stroke="#30363d" opacity="0.5"/><line x1="856.37" y1="40" x2="856.37" y2="220" stroke="#30363d" opacity="0.5"/>
    <line x1="40" y1="220" x2="860" y2="220" stroke="#30363d"/>
    <line x1="40" y1="40"   x2="40"   y2="220" stroke="#30363d"/>
    <path d="M 40.00 220.00 L 41.81 220.00 L 43.63 219.60 L 45.44 219.62 L 47.26 219.63 L 49.07 219.32 L 50.88 219.31 L 52.70 219.26 L 54.51 218.89 L 56.33 218.89 L 58.14 218.89 L 59.96 218.87 L 61.77 218.87 L 63.58 218.86 L 65.40 218.85 L 67.21 218.85 L 69.03 218.82 L 70.84 218.78 L 72.65 218.72 L 74.47 218.68 L 76.28 218.64 L 78.10 218.59 L 79.91 218.59 L 81.73 218.57 L 83.54 218.57 L 85.35 218.57 L 87.17 218.57 L 88.98 218.57 L 90.80 218.57 L 92.61 218.57 L 94.42 218.57 L 96.24 218.57 L 98.05 218.55 L 99.87 218.54 L 101.68 218.58 L 103.50 218.55 L 105.31 218.55 L 107.12 218.53 L 108.94 218.31 L 110.75 217.94 L 112.57 217.88 L 114.38 217.87 L 116.19 217.86 L 118.01 217.85 L 119.82 217.84 L 121.64 217.85 L 123.45 217.82 L 125.27 217.66 L 127.08 217.61 L 128.89 217.60 L 130.71 217.57 L 132.52 217.56 L 134.34 217.52 L 136.15 217.38 L 137.96 217.24 L 139.78 216.93 L 141.59 216.65 L 143.41 216.44 L 145.22 216.39 L 147.04 216.34 L 148.85 216.83 L 150.66 200.94 L 152.48 200.94 L 154.29 200.95 L 156.11 198.99 L 157.92 198.98 L 159.73 198.94 L 161.55 198.94 L 163.36 198.91 L 165.18 198.90 L 166.99 198.93 L 168.81 198.93 L 170.62 198.99 L 172.43 198.95 L 174.25 198.96 L 176.06 198.95 L 177.88 198.95 L 179.69 198.97 L 181.50 198.97 L 183.32 198.97 L 185.13 198.97 L 186.95 198.97 L 188.76 198.97 L 190.58 198.97 L 192.39 198.97 L 194.20 198.97 L 196.02 198.97 L 197.83 198.97 L 199.65 197.51 L 201.46 197.43 L 203.27 197.40 L 205.09 197.38 L 206.90 197.38 L 208.72 197.49 L 210.53 197.34 L 212.35 197.33 L 214.16 197.18 L 215.97 197.41 L 217.79 197.41 L 219.60 197.29 L 221.42 197.29 L 223.23 197.22 L 225.04 197.21 L 226.86 197.15 L 228.67 196.94 L 230.49 197.00 L 232.30 197.41 L 234.12 197.41 L 235.93 197.30 L 237.74 197.26 L 239.56 197.19 L 241.37 197.19 L 243.19 197.19 L 245.00 197.19 L 246.81 197.18 L 248.63 197.12 L 250.44 197.09 L 252.26 197.04 L 254.07 197.00 L 255.88 196.96 L 257.70 196.92 L 259.51 196.91 L 261.33 196.86 L 263.14 196.80 L 264.96 196.75 L 266.77 196.69 L 268.58 196.66 L 270.40 196.63 L 272.21 196.56 L 274.03 196.51 L 275.84 196.47 L 277.65 196.45 L 279.47 196.40 L 281.28 196.37 L 283.10 196.34 L 284.91 196.28 L 286.73 196.20 L 288.54 196.12 L 290.35 196.02 L 292.17 195.89 L 293.98 195.77 L 295.80 195.68 L 297.61 195.63 L 299.42 195.58 L 301.24 195.53 L 303.05 195.44 L 304.87 195.35 L 306.68 195.22 L 308.50 195.11 L 310.31 194.95 L 312.12 194.82 L 313.94 194.68 L 315.75 194.57 L 317.57 194.55 L 319.38 194.51 L 321.19 194.48 L 323.01 194.44 L 324.82 194.40 L 326.64 194.37 L 328.45 194.34 L 330.27 194.29 L 332.08 194.25 L 333.89 194.23 L 335.71 194.21 L 337.52 194.19 L 339.34 194.16 L 341.15 194.12 L 342.96 194.07 L 344.78 193.99 L 346.59 193.94 L 348.41 193.87 L 350.22 193.80 L 352.04 193.74 L 353.85 193.72 L 355.66 193.70 L 357.48 193.66 L 359.29 193.62 L 361.11 193.56 L 362.92 193.49 L 364.73 193.43 L 366.55 193.35 L 368.36 193.27 L 370.18 193.20 L 371.99 193.14 L 373.81 193.15 L 375.62 193.15 L 377.43 193.15 L 379.25 193.18 L 381.06 193.09 L 382.88 193.07 L 384.69 193.07 L 386.50 193.08 L 388.32 193.00 L 390.13 192.95 L 391.95 192.95 L 393.76 192.95 L 395.58 192.95 L 397.39 192.80 L 399.20 192.73 L 401.02 192.69 L 402.83 192.67 L 404.65 192.67 L 406.46 192.68 L 408.27 192.64 L 410.09 192.63 L 411.90 192.63 L 413.72 190.39 L 415.53 189.96 L 417.35 189.85 L 419.16 189.53 L 420.97 189.52 L 422.79 189.36 L 424.60 187.79 L 426.42 187.36 L 428.23 181.35 L 430.04 181.35 L 431.86 180.72 L 433.67 180.71 L 435.49 180.26 L 437.30 179.68 L 439.12 179.67 L 440.93 178.77 L 442.74 177.57 L 444.56 175.55 L 446.37 174.52 L 448.19 173.86 L 450.00 174.17 L 451.81 173.10 L 453.63 173.10 L 455.44 171.18 L 457.26 168.37 L 459.07 168.37 L 460.88 165.86 L 462.70 163.63 L 464.51 163.63 L 466.33 163.62 L 468.14 162.88 L 469.96 161.06 L 471.77 193.89 L 473.58 193.22 L 475.40 192.73 L 477.21 192.34 L 479.03 189.45 L 480.84 188.03 L 482.65 188.03 L 484.47 180.86 L 486.28 148.96 L 488.10 144.25 L 489.91 176.00 L 491.73 176.17 L 493.54 175.77 L 495.35 175.72 L 497.17 197.26 L 498.98 197.26 L 500.80 197.06 L 502.61 196.44 L 504.42 194.49 L 506.24 194.50 L 508.05 194.49 L 509.87 194.49 L 511.68 194.49 L 513.50 194.48 L 515.31 194.48 L 517.12 194.62 L 518.94 206.08 L 520.75 206.08 L 522.57 206.05 L 524.38 206.04 L 526.19 205.22 L 528.01 204.28 L 529.82 204.28 L 531.64 204.28 L 533.45 200.22 L 535.27 204.28 L 537.08 204.28 L 538.89 204.28 L 540.71 198.60 L 542.52 198.60 L 544.34 198.60 L 546.15 198.60 L 547.96 193.00 L 549.78 193.00 L 551.59 188.39 L 553.41 188.39 L 555.22 179.75 L 557.04 174.84 L 558.85 173.23 L 560.66 170.37 L 562.48 169.87 L 564.29 153.88 L 566.11 149.24 L 567.92 152.04 L 569.73 141.93 L 571.55 141.88 L 573.36 141.69 L 575.18 141.69 L 576.99 141.76 L 578.81 141.75 L 580.62 140.68 L 582.43 141.38 L 584.25 141.36 L 586.06 141.83 L 587.88 141.39 L 589.69 141.39 L 591.50 141.52 L 593.32 141.52 L 595.13 141.53 L 596.95 142.33 L 598.76 141.73 L 600.58 141.68 L 602.39 141.68 L 604.20 141.66 L 606.02 141.67 L 607.83 141.65 L 609.65 139.51 L 611.46 136.07 L 613.27 136.04 L 615.09 133.43 L 616.90 131.89 L 618.72 131.13 L 620.53 131.51 L 622.35 131.50 L 624.16 131.57 L 625.97 131.56 L 627.79 131.49 L 629.60 131.49 L 631.42 131.49 L 633.23 131.49 L 635.04 131.49 L 636.86 131.49 L 638.67 131.49 L 640.49 131.49 L 642.30 131.49 L 644.12 131.49 L 645.93 131.49 L 647.74 131.49 L 649.56 131.49 L 651.37 131.49 L 653.19 131.49 L 655.00 131.49 L 656.81 131.49 L 658.63 131.49 L 660.44 131.49 L 662.26 131.49 L 664.07 131.49 L 665.88 131.49 L 667.70 131.49 L 669.51 131.49 L 671.33 131.49 L 673.14 131.49 L 674.96 131.49 L 676.77 131.49 L 678.58 131.49 L 680.40 131.49 L 682.21 131.49 L 684.03 131.49 L 685.84 131.49 L 687.65 131.49 L 689.47 131.49 L 691.28 131.49 L 693.10 131.49 L 694.91 131.49 L 696.73 131.49 L 698.54 131.49 L 700.35 131.49 L 702.17 131.49 L 703.98 131.49 L 705.80 131.49 L 707.61 131.49 L 709.42 131.49 L 711.24 131.49 L 713.05 131.49 L 714.87 131.49 L 716.68 131.49 L 718.50 131.49 L 720.31 131.49 L 722.12 131.49 L 723.94 131.49 L 725.75 131.49 L 727.57 131.49 L 729.38 131.49 L 731.19 131.49 L 733.01 131.49 L 734.82 131.49 L 736.64 131.49 L 738.45 131.49 L 740.27 131.49 L 742.08 131.49 L 743.89 131.49 L 745.71 131.49 L 747.52 131.49 L 749.34 131.49 L 751.15 131.49 L 752.96 131.49 L 754.78 131.49 L 756.59 131.49 L 758.41 131.49 L 760.22 131.49 L 762.04 131.49 L 763.85 131.49 L 765.66 131.49 L 767.48 131.49 L 769.29 131.49 L 771.11 131.49 L 772.92 131.49 L 774.73 131.49 L 776.55 131.49 L 778.36 131.49 L 780.18 131.49 L 781.99 131.49 L 783.81 131.49 L 785.62 131.49 L 787.43 131.49 L 789.25 131.49 L 791.06 131.49 L 792.88 131.49 L 794.69 131.49 L 796.50 131.49 L 798.32 131.49 L 800.13 131.49 L 801.95 131.49 L 803.76 131.49 L 805.58 131.49 L 807.39 131.49 L 809.20 131.49 L 811.02 131.49 L 812.83 131.49 L 814.65 131.49 L 816.46 131.49 L 818.27 131.49 L 820.09 131.49 L 821.90 131.49 L 823.72 131.49 L 825.53 131.49 L 827.35 131.49 L 829.16 131.49 L 830.97 131.49 L 832.79 131.49 L 834.60 131.49 L 836.42 131.49 L 838.23 131.49 L 840.04 131.49 L 841.86 131.49 L 843.67 131.49 L 845.49 131.49 L 847.30 131.49 L 849.12 131.49 L 850.93 131.49 L 852.74 131.49 L 854.56 131.49 L 856.37 131.49 L 858.19 131.49 L 860.00 131.49" fill="none" stroke="#3fb950" stroke-width="2"/>
    <circle cx="860.00" cy="131.49" r="3" fill="#3fb950"/>
    <text x="40.00" y="235.00" font-size="9" fill="#c9d1d9" text-anchor="middle" transform="rotate(-45 40.00 235.00)">27.09.2025</text><text x="121.64" y="235.00" font-size="9" fill="#c9d1d9" text-anchor="middle" transform="rotate(-45 121.64 235.00)">28.09.2025</text><text x="203.27" y="235.00" font-size="9" fill="#c9d1d9" text-anchor="middle" transform="rotate(-45 203.27 235.00)">29.09.2025</text><text x="284.91" y="235.00" font-size="9" fill="#c9d1d9" text-anchor="middle" transform="rotate(-45 284.91 235.00)">04.10.2025</text><text x="366.55" y="235.00" font-size="9" fill="#c9d1d9" text-anchor="middle" transform="rotate(-45 366.55 235.00)">04.10.2025</text><text x="448.19" y="235.00" font-size="9" fill="#c9d1d9" text-anchor="middle" transform="rotate(-45 448.19 235.00)">04.10.2025</text><text x="529.82" y="235.00" font-size="9" fill="#c9d1d9" text-anchor="middle" transform="rotate(-45 529.82 235.00)">06.10.2025</text><text x="611.46" y="235.00" font-size="9" fill="#c9d1d9" text-anchor="middle" transform="rotate(-45 611.46 235.00)">09.10.2025</text><text x="693.10" y="235.00" font-size="9" fill="#c9d1d9" text-anchor="middle" transform="rotate(-45 693.10 235.00)">14.11.2025</text><text x="774.73" y="235.00" font-size="9" fill="#c9d1d9" text-anchor="middle" transform="rotate(-45 774.73 235.00)">29.12.2025</text><text x="856.37" y="235.00" font-size="9" fill="#c9d1d9" text-anchor="middle" transform="rotate(-45 856.37 235.00)">09.02.2026</text>
  </g>
</svg>