<svg xmlns="http://www.w3.org/2000/svg" width="900" height="290" style="font-family: -apple-system, BlinkMacSystemFont, 'Segoe UI', Helvetica, Arial, sans-serif;">
  <rect width="100%" height="100%" fill="white"/>
  <g>
    <line x1="40" y1="220.00" x2="860" y2="220.00" stroke="#e5e7eb"/><text x="32" y="224.00" font-size="10" fill="#111827" text-anchor="end">0</text><line x1="40" y1="175.00" x2="860" y2="175.00" stroke="#e5e7eb"/><text x="32" y="179.00" font-size="10" fill="#111827" text-anchor="end">25k</text><line x1="40" y1="130.00" x2="860" y2="130.00" stroke="#e5e7eb"/><text x="32" y="134.00" font-size="10" fill="#111827" text-anchor="end">50k</text><line x1="40" y1="85.00" x2="860" y2="85.00" stroke="#e5e7eb"/><text x="32" y="89.00" font-size="10" fill="#111827" text-anchor="end">75k</text><line x1="40" y1="40.00" x2="860" y2="40.00" stroke="#e5e7eb"/><text x="32" y="44.00" font-size="10" fill="#111827" text-anchor="end">100k</text>
    <line x1="40.00" y1="40" x2="40.00" y2="220" stroke="#e5e7eb" opacity="0.5"/><line x1="120.49" y1="40" x2="120.49" y2="220" stroke="#e5e7eb" opacity="0.5"/><line x1="200.98" y1="40" x2="200.98" y2="220" stroke="#e5e7eb" opacity="0.5"/><line x1="281.47" y1="40" x2="281.47" y2="220" stroke="#e5e7eb" opacity="0.5"/><line x1="361.96" y1="40" x2="361.96" y2="220" stroke="#e5e7eb" opacity="0.5"/><line x1="442.45" y1="40" x2="442.45" y2="220" stroke="#e5e7eb" opacity="0.5"/><line x1="522.94" y1="40" x2="522.94" y2="220" stroke="#e5e7eb" opacity="0.5"/><line x1="603.44" y1="40" x2="603.44" y2="220" stroke="#e5e7eb" opacity="0.5"/><line x1="683.93" y1="40" x2="683.93" y2="220" stroke="#e5e7eb" opacity="0.5"/><line x1="764.42" y1="40" x2="764.42" y2="220" stroke="#e5e7eb" opacity="0.5"/><line x1="844.91" y1="40" x2="844.91" y2="220" stroke="#e5e7eb" opacity="0.5"/>
    <line x1="40" y1="220" x2="860" y2="220" stroke="#9ca3af"/>
    <line x1="40" y1="40"   x2="40"   y2="220" stroke="#9ca3af"/>
    <path d="M 40.00 220.00 L 42.52 220.00 L 45.03 219.60 L 47.55 219.62 L 50.06 219.63 L 52.58 219.32 L 55.09 219.31 L 57.61 219.26 L 60.12 218.89 L 62.64 218.89 L 65.15 218.89 L 67.67 218.87 L 70.18 218.87 L 72.70 218.86 L 75.21 218.85 L 77.73 218.85 L 80.25 218.82 L 82.76 218.78 L 85.28 218.72 L 87.79 218.68 L 90.31 218.64 L 92.82 218.59 L 95.34 218.59 L 97.85 218.57 L 100.37 218.57 L 102.88 218.57 L 105.40 218.57 L 107.91 218.57 L 110.43 218.57 L 112.94 218.57 L 115.46 218.57 L 117.98 218.57 L 120.49 218.55 L 123.01 218.54 L 125.52 218.58 L 128.04 218.55 L 130.55 218.55 L 133.07 218.53 L 135.58 218.31 L 138.10 217.94 L 140.61 217.88 L 143.13 217.87 L 145.64 217.86 L 148.16 217.85 L 150.67 217.84 L 153.19 217.85 L 155.71 217.82 L 158.22 217.66 L 160.74 217.61 L 163.25 217.60 L 165.77 217.57 L 168.28 217.56 L 170.80 217.52 L 173.31 217.38 L 175.83 217.24 L 178.34 216.93 L 180.86 216.65 L 183.37 216.44 L 185.89 216.39 L 188.40 216.34 L 190.92 216.83 L 193.44 200.94 L 195.95 200.94 L 198.47 200.95 L 200.98 198.99 L 203.50 198.98 L 206.01 198.94 L 208.53 198.94 L 211.04 198.91 L 213.56 198.90 L 216.07 198.93 L 218.59 198.93 L 221.10 198.99 L 223.62 198.95 L 226.13 198.96 L 228.65 198.95 L 231.17 198.95 L 233.68 198.97 L 236.20 198.97 L 238.71 198.97 L 241.23 198.97 L 243.74 198.97 L 246.26 198.97 L 248.77 198.97 L 251.29 198.97 L 253.80 198.97 L 256.32 198.97 L 258.83 198.97 L 261.35 197.51 L 263.87 197.43 L 266.38 197.40 L 268.90 197.38 L 271.41 197.38 L 273.93 197.49 L 276.44 197.34 L 278.96 197.33 L 281.47 197.18 L 283.99 197.41 L 286.50 197.41 L 289.02 197.29 L 291.53 197.29 L 294.05 197.22 L 296.56 197.21 L 299.08 197.15 L 301.60 196.94 L 304.11 197.00 L 306.63 197.41 L 309.14 197.41 L 311.66 197.30 L 314.17 197.26 L 316.69 197.19 L 319.20 197.19 L 321.72 197.19 L 324.23 197.19 L 326.75 197.18 L 329.26 197.12 L 331.78 197.09 L 334.29 197.04 L 336.81 197.00 L 339.33 196.96 L 341.84 196.92 L 344.36 196.91 L 346.87 196.86 L 349.39 196.80 L 351.90 196.75 L 354.42 196.69 L 356.93 196.66 L 359.45 196.63 L 361.96 196.56 L 364.48 196.51 L 366.99 196.47 L 369.51 196.45 L 372.02 196.40 L 374.54 196.37 L 377.06 196.34 L 379.57 196.28 L 382.09 196.20 L 384.60 196.12 L 387.12 196.02 L 389.63 195.89 L 392.15 195.77 L 394.66 195.68 L 397.18 195.63 L 399.69 195.58 L 402.21 195.53 L 404.72 195.44 L 407.24 195.35 L 409.75 195.22 L 412.27 195.11 L 414.79 194.95 L 417.30 194.82 L 419.82 194.68 L 422.33 194.57 L 424.85 194.55 L 427.36 194.51 L 429.88 194.48 L 432.39 194.44 L 434.91 194.40 L 437.42 194.37 L 439.94 194.34 L 442.45 194.29 L 444.97 194.25 L 447.48 194.23 L 450.00 194.21 L 452.52 194.19 L 455.03 194.16 L 457.55 194.12 L 460.06 194.07 L 462.58 193.99 L 465.09 193.94 L 467.61 193.87 L 470.12 193.80 L 472.64 193.74 L 475.15 193.72 L 477.67 193.70 L 480.18 193.66 L 482.70 193.62 L 485.21 193.56 L 487.73 193.49 L 490.25 193.43 L 492.76 193.35 L 495.28 193.27 L 497.79 193.20 L 500.31 193.14 L 502.82 193.15 L 505.34 193.15 L 507.85 193.15 L 510.37 193.18 L 512.88 193.09 L 515.40 193.07 L 517.91 193.07 L 520.43 193.08 L 522.94 193.00 L 525.46 192.95 L 527.98 192.95 L 530.49 192.95 L 533.01 192.95 L 535.52 192.80 L 538.04 192.73 L 540.55 192.69 L 543.07 192.67 L 545.58 192.67 L 548.10 192.68 L 550.61 192.64 L 553.13 192.63 L 555.64 192.63 L 558.16 190.39 L 560.67 189.96 L 563.19 189.85 L 565.71 189.53 L 568.22 189.52 L 570.74 189.36 L 573.25 187.79 L 575.77 187.36 L 578.28 181.35 L 580.80 181.35 L 583.31 180.72 L 585.83 180.71 L 588.34 180.26 L 590.86 179.68 L 593.37 179.67 L 595.89 178.77 L 598.40 177.57 L 600.92 175.55 L 603.44 174.52 L 605.95 173.86 L 608.47 174.17 L 610.98 173.10 L 613.50 173.10 L 616.01 171.18 L 618.53 168.37 L 621.04 168.37 L 623.56 165.86 L 626.07 163.63 L 628.59 163.63 L 631.10 163.62 L 633.62 162.88 L 636.13 161.06 L 638.65 193.89 L 641.17 193.22 L 643.68 192.73 L 646.20 192.34 L 648.71 189.45 L 651.23 188.03 L 653.74 188.03 L 656.26 180.86 L 658.77 148.96 L 661.29 144.25 L 663.80 176.00 L 666.32 176.17 L 668.83 175.77 L 671.35 175.72 L 673.87 197.26 L 676.38 197.26 L 678.90 197.06 L 681.41 196.44 L 683.93 194.49 L 686.44 194.50 L 688.96 194.49 L 691.47 194.49 L 693.99 194.49 L 696.50 194.48 L 699.02 194.48 L 701.53 194.62 L 704.05 206.08 L 706.56 206.08 L 709.08 206.05 L 711.60 206.04 L 714.11 205.22 L 716.63 204.28 L 719.14 204.28 L 721.66 204.28 L 724.17 200.22 L 726.69 204.28 L 729.20 204.28 L 731.72 204.28 L 734.23 198.60 L 736.75 198.60 L 739.26 198.60 L 741.78 198.60 L 744.29 193.00 L 746.81 193.00 L 749.33 188.39 L 751.84 188.39 L 754.36 179.75 L 756.87 174.84 L 759.39 173.23 L 761.90 170.37 L 764.42 169.87 L 766.93 153.88 L 769.45 149.24 L 771.96 152.04 L 774.48 141.93 L 776.99 141.88 L 779.51 141.69 L 782.02 141.69 L 784.54 141.76 L 787.06 141.75 L 789.57 140.68 L 792.09 141.38 L 794.60 141.36 L 797.12 141.83 L 799.63 141.39 L 802.15 141.39 L 804.66 141.52 L 807.18 141.52 L 809.69 141.53 L 812.21 142.33 L 814.72 141.73 L 817.24 141.68 L 819.75 141.68 L 822.27 141.66 L 824.79 141.67 L 827.30 141.65 L 829.82 139.51 L 832.33 136.07 L 834.85 136.04 L 837.36 133.43 L 839.88 131.89 L 842.39 131.13 L 844.91 131.51 L 847.42 131.50 L 849.94 131.57 L 852.45 131.56 L 854.97 131.49 L 857.48 131.49 L 860.00 131.49" fill="none" stroke="#111827" stroke-width="2"/>
    <circle cx="860.00" cy="131.49" r="3" fill="#111827"/>
    <text x="40.00" y="235.00" font-size="9" fill="#111827" text-anchor="middle" transform="rotate(-45 40.00 235.00)">27.09.2025</text><text x="120.49" y="235.00" font-size="9" fill="#111827" text-anchor="middle" transform="rotate(-45 120.49 235.00)">28.09.2025</text><text x="200.98" y="235.00" font-size="9" fill="#111827" text-anchor="middle" transform="rotate(-45 200.98 235.00)">28.09.2025</text><text x="281.47" y="235.00" font-size="9" fill="#111827" text-anchor="middle" transform="rotate(-45 281.47 235.00)">30.09.2025</text><text x="361.96" y="235.00" font-size="9" fill="#111827" text-anchor="middle" transform="rotate(-45 361.96 235.00)">04.10.2025</text><text x="442.45" y="235.00" font-size="9" fill="#111827" text-anchor="middle" transform="rotate(-45 442.45 235.00)">04.10.2025</text><text x="522.94" y="235.00" font-size="9" fill="#111827" text-anchor="middle" transform="rotate(-45 522.94 235.00)">04.10.2025</text><text x="603.44" y="235.00" font-size="9" fill="#111827" text-anchor="middle" transform="rotate(-45 603.44 235.00)">04.10.2025</text><text x="683.93" y="235.00" font-size="9" fill="#111827" text-anchor="middle" transform="rotate(-45 683.93 235.00)">05.10.2025</text><text x="764.42" y="235.00" font-size="9" fill="#111827" text-anchor="middle" transform="rotate(-45 764.42 235.00)">08.10.2025</text><text x="844.91" y="235.00" font-size="9" fill="#111827" text-anchor="middle" transform="rotate(-45 844.91 235.00)">09.10.2025</text>
  </g>
</svg>