<svg xmlns="http://www.w3.org/2000/svg" width="900" height="290" style="font-family: -apple-system, BlinkMacSystemFont, 'Segoe UI', Helvetica, Arial, sans-serif;">
  <rect width="100%" height="100%" fill="white"/>
  <g>
    <line x1="40" y1="220.00" x2="860" y2="220.00" stroke="#e5e7eb"/><text x="32" y="224.00" font-size="10" fill="#111827" text-anchor="end">0</text><line x1="40" y1="175.00" x2="860" y2="175.00" stroke="#e5e7eb"/><text x="32" y="179.00" font-size="10" fill="#111827" text-anchor="end">25k</text><line x1="40" y1="130.00" x2="860" y2="130.00" stroke="#e5e7eb"/><text x="32" y="134.00" font-size="10" fill="#111827" text-anchor="end">50k</text><line x1="40" y1="85.00" x2="860" y2="85.00" stroke="#e5e7eb"/><text x="32" y="89.00" font-size="10" fill="#111827" text-anchor="end">75k</text><line x1="40" y1="40.00" x2="860" y2="40.00" stroke="#e5e7eb"/><text x="32" y="44.00" font-size="10" fill="#111827" text-anchor="end">100k</text>
    <line x1="40.00" y1="40" x2="40.00" y2="220" stroke="#e5e7eb" opacity="0.5"/><line x1="120.85" y1="40" x2="120.85" y2="220" stroke="#e5e7eb" opacity="0.5"/><line x1="201.69" y1="40" x2="201.69" y2="220" stroke="#e5e7eb" opacity="0.5"/><line x1="282.54" y1="40" x2="282.54" y2="220" stroke="#e5e7eb" opacity="0.5"/><line x1="363.38" y1="40" x2="363.38" y2="220" stroke="#e5e7eb" opacity="0.5"/><line x1="444.23" y1="40" x2="444.23" y2="220" stroke="#e5e7eb" opacity="0.5"/><line x1="525.07" y1="40" x2="525.07" y2="220" stroke="#e5e7eb" opacity="0.5"/><line x1="605.92" y1="40" x2="605.92" y2="220" stroke="#e5e7eb" opacity="0.5"/><line x1="686.76" y1="40" x2="686.76" y2="220" stroke="#e5e7eb" opacity="0.5"/><line x1="767.61" y1="40" x2="767.61" y2="220" stroke="#e5e7eb" opacity="0.5"/><line x1="848.45" y1="40" x2="848.45" y2="220" stroke="#e5e7eb" opacity="0.5"/>
    <line x1="40" y1="220" x2="860" y2="220" stroke="#9ca3af"/>
    <line x1="40" y1="40"   x2="40"   y2="220" stroke="#9ca3af"/>
    <path d="M 40.00 220.00 L 42.31 220.00 L 44.62 219.60 L 46.93 219.62 L 49.24 219.63 L 51.55 219.32 L 53.86 219.31 L 56.17 219.26 L 58.48 218.89 L 60.79 218.89 L 63.10 218.89 L 65.41 218.87 L 67.72 218.87 L 70.03 218.86 L 72.34 218.85 L 74.65 218.85 L 76.96 218.82 L 79.27 218.78 L 81.58 218.72 L 83.89 218.68 L 86.20 218.64 L 88.51 218.59 L 90.82 218.59 L 93.13 218.57 L 95.44 218.57 L 97.75 218.57 L 100.06 218.57 L 102.37 218.57 L 104.68 218.57 L 106.99 218.57 L 109.30 218.57 L 111.61 218.57 L 113.92 218.55 L 116.23 218.54 L 118.54 218.58 L 120.85 218.55 L 123.15 218.55 L 125.46 218.53 L 127.77 218.31 L 130.08 217.94 L 132.39 217.88 L 134.70 217.87 L 137.01 217.86 L 139.32 217.85 L 141.63 217.84 L 143.94 217.85 L 146.25 217.82 L 148.56 217.66 L 150.87 217.61 L 153.18 217.60 L 155.49 217.57 L 157.80 217.56 L 160.11 217.52 L 162.42 217.38 L 164.73 217.24 L 167.04 216.93 L 169.35 216.65 L 171.66 216.44 L 173.97 216.39 L 176.28 216.34 L 178.59 216.83 L 180.90 200.94 L 183.21 200.94 L 185.52 200.95 L 187.83 198.99 L 190.14 198.98 L 192.45 198.94 L 194.76 198.94 L 197.07 198.91 L 199.38 198.90 L 201.69 198.93 L 204.00 198.93 L 206.31 198.99 L 208.62 198.95 L 210.93 198.96 L 213.24 198.95 L 215.55 198.95 L 217.86 198.97 L 220.17 198.97 L 222.48 198.97 L 224.79 198.97 L 227.10 198.97 L 229.41 198.97 L 231.72 198.97 L 234.03 198.97 L 236.34 198.97 L 238.65 198.97 L 240.96 198.97 L 243.27 197.51 L 245.58 197.43 L 247.89 197.40 L 250.20 197.38 L 252.51 197.38 L 254.82 197.49 L 257.13 197.34 L 259.44 197.33 L 261.75 197.18 L 264.06 197.41 L 266.37 197.41 L 268.68 197.29 L 270.99 197.29 L 273.30 197.22 L 275.61 197.21 L 277.92 197.15 L 280.23 196.94 L 282.54 197.00 L 284.85 197.41 L 287.15 197.41 L 289.46 197.30 L 291.77 197.26 L 294.08 197.19 L 296.39 197.19 L 298.70 197.19 L 301.01 197.19 L 303.32 197.18 L 305.63 197.12 L 307.94 197.09 L 310.25 197.04 L 312.56 197.00 L 314.87 196.96 L 317.18 196.92 L 319.49 196.91 L 321.80 196.86 L 324.11 196.80 L 326.42 196.75 L 328.73 196.69 L 331.04 196.66 L 333.35 196.63 L 335.66 196.56 L 337.97 196.51 L 340.28 196.47 L 342.59 196.45 L 344.90 196.40 L 347.21 196.37 L 349.52 196.34 L 351.83 196.28 L 354.14 196.20 L 356.45 196.12 L 358.76 196.02 L 361.07 195.89 L 363.38 195.77 L 365.69 195.68 L 368.00 195.63 L 370.31 195.58 L 372.62 195.53 L 374.93 195.44 L 377.24 195.35 L 379.55 195.22 L 381.86 195.11 L 384.17 194.95 L 386.48 194.82 L 388.79 194.68 L 391.10 194.57 L 393.41 194.55 L 395.72 194.51 L 398.03 194.48 L 400.34 194.44 L 402.65 194.40 L 404.96 194.37 L 407.27 194.34 L 409.58 194.29 L 411.89 194.25 L 414.20 194.23 L 416.51 194.21 L 418.82 194.19 L 421.13 194.16 L 423.44 194.12 L 425.75 194.07 L 428.06 193.99 L 430.37 193.94 L 432.68 193.87 L 434.99 193.80 L 437.30 193.74 L 439.61 193.72 L 441.92 193.70 L 444.23 193.66 L 446.54 193.62 L 448.85 193.56 L 451.15 193.49 L 453.46 193.43 L 455.77 193.35 L 458.08 193.27 L 460.39 193.20 L 462.70 193.14 L 465.01 193.15 L 467.32 193.15 L 469.63 193.15 L 471.94 193.18 L 474.25 193.09 L 476.56 193.07 L 478.87 193.07 L 481.18 193.08 L 483.49 193.00 L 485.80 192.95 L 488.11 192.95 L 490.42 192.95 L 492.73 192.95 L 495.04 192.80 L 497.35 192.73 L 499.66 192.69 L 501.97 192.67 L 504.28 192.67 L 506.59 192.68 L 508.90 192.64 L 511.21 192.63 L 513.52 192.63 L 515.83 190.39 L 518.14 189.96 L 520.45 189.85 L 522.76 189.53 L 525.07 189.52 L 527.38 189.36 L 529.69 187.79 L 532.00 187.36 L 534.31 181.35 L 536.62 181.35 L 538.93 180.72 L 541.24 180.71 L 543.55 180.26 L 545.86 179.68 L 548.17 179.67 L 550.48 178.77 L 552.79 177.57 L 555.10 175.55 L 557.41 174.52 L 559.72 173.86 L 562.03 174.17 L 564.34 173.10 L 566.65 173.10 L 568.96 171.18 L 571.27 168.37 L 573.58 168.37 L 575.89 165.86 L 578.20 163.63 L 580.51 163.63 L 582.82 163.62 L 585.13 162.88 L 587.44 161.06 L 589.75 193.89 L 592.06 193.22 L 594.37 192.73 L 596.68 192.34 L 598.99 189.45 L 601.30 188.03 L 603.61 188.03 L 605.92 180.86 L 608.23 148.96 L 610.54 144.25 L 612.85 176.00 L 615.15 176.17 L 617.46 175.77 L 619.77 175.72 L 622.08 197.26 L 624.39 197.26 L 626.70 197.06 L 629.01 196.44 L 631.32 194.49 L 633.63 194.50 L 635.94 194.49 L 638.25 194.49 L 640.56 194.49 L 642.87 194.48 L 645.18 194.48 L 647.49 194.62 L 649.80 206.08 L 652.11 206.08 L 654.42 206.05 L 656.73 206.04 L 659.04 205.22 L 661.35 204.28 L 663.66 204.28 L 665.97 204.28 L 668.28 200.22 L 670.59 204.28 L 672.90 204.28 L 675.21 204.28 L 677.52 198.60 L 679.83 198.60 L 682.14 198.60 L 684.45 198.60 L 686.76 193.00 L 689.07 193.00 L 691.38 188.39 L 693.69 188.39 L 696.00 179.75 L 698.31 174.84 L 700.62 173.23 L 702.93 170.37 L 705.24 169.87 L 707.55 153.88 L 709.86 149.24 L 712.17 152.04 L 714.48 141.93 L 716.79 141.88 L 719.10 141.69 L 721.41 141.69 L 723.72 141.76 L 726.03 141.75 L 728.34 140.68 L 730.65 141.38 L 732.96 141.36 L 735.27 141.83 L 737.58 141.39 L 739.89 141.39 L 742.20 141.52 L 744.51 141.52 L 746.82 141.53 L 749.13 142.33 L 751.44 141.73 L 753.75 141.68 L 756.06 141.68 L 758.37 141.66 L 760.68 141.67 L 762.99 141.65 L 765.30 139.51 L 767.61 136.07 L 769.92 136.04 L 772.23 133.43 L 774.54 131.89 L 776.85 131.13 L 779.15 131.51 L 781.46 131.50 L 783.77 131.57 L 786.08 131.56 L 788.39 131.49 L 790.70 131.49 L 793.01 131.49 L 795.32 131.49 L 797.63 131.49 L 799.94 131.49 L 802.25 131.49 L 804.56 131.49 L 806.87 131.49 L 809.18 131.49 L 811.49 131.49 L 813.80 131.49 L 816.11 131.49 L 818.42 131.49 L 820.73 131.49 L 823.04 131.49 L 825.35 131.49 L 827.66 131.49 L 829.97 131.49 L 832.28 131.49 L 834.59 131.49 L 836.90 131.49 L 839.21 131.49 L 841.52 131.49 L 843.83 131.49 L 846.14 131.49 L 848.45 131.49 L 850.76 131.49 L 853.07 131.49 L 855.38 131.49 L 857.69 131.49 L 860.00 131.49" fill="none" stroke="#111827" stroke-width="2"/>
    <circle cx="860.00" cy="131.49" r="3" fill="#111827"/>
    <text x="40.00" y="235.00" font-size="9" fill="#111827" text-anchor="middle" transform="rotate(-45 40.00 235.00)">27.09.2025</text><text x="120.85" y="235.00" font-size="9" fill="#111827" text-anchor="middle" transform="rotate(-45 120.85 235.00)">28.09.2025</text><text x="201.69" y="235.00" font-size="9" fill="#111827" text-anchor="middle" transform="rotate(-45 201.69 235.00)">28.09.2025</text><text x="282.54" y="235.00" font-size="9" fill="#111827" text-anchor="middle" transform="rotate(-45 282.54 235.00)">30.09.2025</text><text x="363.38" y="235.00" font-size="9" fill="#111827" text-anchor="middle" transform="rotate(-45 363.38 235.00)">04.10.2025</text><text x="444.23" y="235.00" font-size="9" fill="#111827" text-anchor="middle" transform="rotate(-45 444.23 235.00)">04.10.2025</text><text x="525.07" y="235.00" font-size="9" fill="#111827" text-anchor="middle" transform="rotate(-45 525.07 235.00)">04.10.2025</text><text x="605.92" y="235.00" font-size="9" fill="#111827" text-anchor="middle" transform="rotate(-45 605.92 235.00)">05.10.2025</text><text x="686.76" y="235.00" font-size="9" fill="#111827" text-anchor="middle" transform="rotate(-45 686.76 235.00)">07.10.2025</text><text x="767.61" y="235.00" font-size="9" fill="#111827" text-anchor="middle" transform="rotate(-45 767.61 235.00)">09.10.2025</text><text x="848.45" y="235.00" font-size="9" fill="#111827" text-anchor="middle" transform="rotate(-45 848.45 235.00)">04.11.2025</text>
  </g>
</svg>