<svg xmlns="http://www.w3.org/2000/svg" width="900" height="290" style="font-family: -apple-system, BlinkMacSystemFont, 'Segoe UI', Helvetica, Arial, sans-serif;">
  <rect width="100%" height="100%" fill="#0d1117"/>
  <g>
    <line x1="40" y1="220.00" x2="860" y2="220.00" stroke="#30363d"/><text x="32" y="224.00" font-size="10" fill="#c9d1d9" text-anchor="end">0</text><line x1="40" y1="175.00" x2="860" y2="175.00" stroke="#30363d"/><text x="32" y="179.00" font-size="10" fill="#c9d1d9" text-anchor="end">25k</text><line x1="40" y1="130.00" x2="860" y2="130.00" stroke="#30363d"/><text x="32" y="134.00" font-size="10" fill="#c9d1d9" text-anchor="end">50k</text><line x1="40" y1="85.00" x2="860" y2="85.00" stroke="#30363d"/><text x="32" y="89.00" font-size="10" fill="#c9d1d9" text-anchor="end">75k</text><line x1="40" y1="40.00" x2="860" y2="40.00" stroke="#30363d"/><text x="32" y="44.00" font-size="10" fill="#c9d1d9" text-anchor="end">100k</text>
    <line x1="40.00" y1="40" x2="40.00" y2="220" stroke="#30363d" opacity="0.5"/><line x1="120.39" y1="40" x2="120.39" y2="220" stroke="#30363d" opacity="0.5"/><line x1="200.78" y1="40" x2="200.78" y2="220" stroke="#30363d" opacity="0.5"/><line x1="281.18" y1="40" x2="281.18" y2="220" stroke="#30363d" opacity="0.5"/><line x1="361.57" y1="40" x2="361.57" y2="220" stroke="#30363d" opacity="0.5"/><line x1="441.96" y1="40" x2="441.96" y2="220" stroke="#30363d" opacity="0.5"/><line x1="522.35" y1="40" x2="522.35" y2="220" stroke="#30363d" opacity="0.5"/><line x1="602.75" y1="40" x2="602.75" y2="220" stroke="#30363d" opacity="0.5"/><line x1="683.14" y1="40" x2="683.14" y2="220" stroke="#30363d" opacity="0.5"/><line x1="763.53" y1="40" x2="763.53" y2="220" stroke="#30363d" opacity="0.5"/><line x1="843.92" y1="40" x2="843.92" y2="220" stroke="#30363d" opacity="0.5"/>
    <line x1="40" y1="220" x2="860" y2="220" stroke="#30363d"/>
    <line x1="40" y1="40"   x2="40"   y2="220" stroke="#30363d"/>
    <path d="M 40.00 220.00 L 42.30 220.00 L 44.59 219.60 L 46.89 219.62 L 49.19 219.63 L 51.48 219.32 L 53.78 219.31 L 56.08 219.26 L 58.38 218.89 L 60.67 218.89 L 62.97 218.89 L 65.27 218.87 L 67.56 218.87 L 69.86 218.86 L 72.16 218.85 L 74.45 218.85 L 76.75 218.82 L 79.05 218.78 L 81.34 218.72 L 83.64 218.68 L 85.94 218.64 L 88.24 218.59 L 90.53 218.59 L 92.83 218.57 L 95.13 218.57 L 97.42 218.57 L 99.72 218.57 L 102.02 218.57 L 104.31 218.57 L 106.61 218.57 L 108.91 218.57 L 111.20 218.57 L 113.50 218.55 L 115.80 218.54 L 118.10 218.58 L 120.39 218.55 L 122.69 218.55 L 124.99 218.53 L 127.28 218.31 L 129.58 217.94 L 131.88 217.88 L 134.17 217.87 L 136.47 217.86 L 138.77 217.85 L 141.06 217.84 L 143.36 217.85 L 145.66 217.82 L 147.96 217.66 L 150.25 217.61 L 152.55 217.60 L 154.85 217.57 L 157.14 217.56 L 159.44 217.52 L 161.74 217.38 L 164.03 217.24 L 166.33 216.93 L 168.63 216.65 L 170.92 216.44 L 173.22 216.39 L 175.52 216.34 L 177.82 216.83 L 180.11 200.94 L 182.41 200.94 L 184.71 200.95 L 187.00 198.99 L 189.30 198.98 L 191.60 198.94 L 193.89 198.94 L 196.19 198.91 L 198.49 198.90 L 200.78 198.93 L 203.08 198.93 L 205.38 198.99 L 207.68 198.95 L 209.97 198.96 L 212.27 198.95 L 214.57 198.95 L 216.86 198.97 L 219.16 198.97 L 221.46 198.97 L 223.75 198.97 L 226.05 198.97 L 228.35 198.97 L 230.64 198.97 L 232.94 198.97 L 235.24 198.97 L 237.54 198.97 L 239.83 198.97 L 242.13 197.51 L 244.43 197.43 L 246.72 197.40 L 249.02 197.38 L 251.32 197.38 L 253.61 197.49 L 255.91 197.34 L 258.21 197.33 L 260.50 197.18 L 262.80 197.41 L 265.10 197.41 L 267.39 197.29 L 269.69 197.29 L 271.99 197.22 L 274.29 197.21 L 276.58 197.15 L 278.88 196.94 L 281.18 197.00 L 283.47 197.41 L 285.77 197.41 L 288.07 197.30 L 290.36 197.26 L 292.66 197.19 L 294.96 197.19 L 297.25 197.19 L 299.55 197.19 L 301.85 197.18 L 304.15 197.12 L 306.44 197.09 L 308.74 197.04 L 311.04 197.00 L 313.33 196.96 L 315.63 196.92 L 317.93 196.91 L 320.22 196.86 L 322.52 196.80 L 324.82 196.75 L 327.11 196.69 L 329.41 196.66 L 331.71 196.63 L 334.01 196.56 L 336.30 196.51 L 338.60 196.47 L 340.90 196.45 L 343.19 196.40 L 345.49 196.37 L 347.79 196.34 L 350.08 196.28 L 352.38 196.20 L 354.68 196.12 L 356.97 196.02 L 359.27 195.89 L 361.57 195.77 L 363.87 195.68 L 366.16 195.63 L 368.46 195.58 L 370.76 195.53 L 373.05 195.44 L 375.35 195.35 L 377.65 195.22 L 379.94 195.11 L 382.24 194.95 L 384.54 194.82 L 386.83 194.68 L 389.13 194.57 L 391.43 194.55 L 393.73 194.51 L 396.02 194.48 L 398.32 194.44 L 400.62 194.40 L 402.91 194.37 L 405.21 194.34 L 407.51 194.29 L 409.80 194.25 L 412.10 194.23 L 414.40 194.21 L 416.69 194.19 L 418.99 194.16 L 421.29 194.12 L 423.59 194.07 L 425.88 193.99 L 428.18 193.94 L 430.48 193.87 L 432.77 193.80 L 435.07 193.74 L 437.37 193.72 L 439.66 193.70 L 441.96 193.66 L 444.26 193.62 L 446.55 193.56 L 448.85 193.49 L 451.15 193.43 L 453.45 193.35 L 455.74 193.27 L 458.04 193.20 L 460.34 193.14 L 462.63 193.15 L 464.93 193.15 L 467.23 193.15 L 469.52 193.18 L 471.82 193.09 L 474.12 193.07 L 476.41 193.07 L 478.71 193.08 L 481.01 193.00 L 483.31 192.95 L 485.60 192.95 L 487.90 192.95 L 490.20 192.95 L 492.49 192.80 L 494.79 192.73 L 497.09 192.69 L 499.38 192.67 L 501.68 192.67 L 503.98 192.68 L 506.27 192.64 L 508.57 192.63 L 510.87 192.63 L 513.17 190.39 L 515.46 189.96 L 517.76 189.85 L 520.06 189.53 L 522.35 189.52 L 524.65 189.36 L 526.95 187.79 L 529.24 187.36 L 531.54 181.35 L 533.84 181.35 L 536.13 180.72 L 538.43 180.71 L 540.73 180.26 L 543.03 179.68 L 545.32 179.67 L 547.62 178.77 L 549.92 177.57 L 552.21 175.55 L 554.51 174.52 L 556.81 173.86 L 559.10 174.17 L 561.40 173.10 L 563.70 173.10 L 565.99 171.18 L 568.29 168.37 L 570.59 168.37 L 572.89 165.86 L 575.18 163.63 L 577.48 163.63 L 579.78 163.62 L 582.07 162.88 L 584.37 161.06 L 586.67 193.89 L 588.96 193.22 L 591.26 192.73 L 593.56 192.34 L 595.85 189.45 L 598.15 188.03 L 600.45 188.03 L 602.75 180.86 L 605.04 148.96 L 607.34 144.25 L 609.64 176.00 L 611.93 176.17 L 614.23 175.77 L 616.53 175.72 L 618.82 197.26 L 621.12 197.26 L 623.42 197.06 L 625.71 196.44 L 628.01 194.49 L 630.31 194.50 L 632.61 194.49 L 634.90 194.49 L 637.20 194.49 L 639.50 194.48 L 641.79 194.48 L 644.09 194.62 L 646.39 206.08 L 648.68 206.08 L 650.98 206.05 L 653.28 206.04 L 655.57 205.22 L 657.87 204.28 L 660.17 204.28 L 662.46 204.28 L 664.76 200.22 L 667.06 204.28 L 669.36 204.28 L 671.65 204.28 L 673.95 198.60 L 676.25 198.60 L 678.54 198.60 L 680.84 198.60 L 683.14 193.00 L 685.43 193.00 L 687.73 188.39 L 690.03 188.39 L 692.32 179.75 L 694.62 174.84 L 696.92 173.23 L 699.22 170.37 L 701.51 169.87 L 703.81 153.88 L 706.11 149.24 L 708.40 152.04 L 710.70 141.93 L 713.00 141.88 L 715.29 141.69 L 717.59 141.69 L 719.89 141.76 L 722.18 141.75 L 724.48 140.68 L 726.78 141.38 L 729.08 141.36 L 731.37 141.83 L 733.67 141.39 L 735.97 141.39 L 738.26 141.52 L 740.56 141.52 L 742.86 141.53 L 745.15 142.33 L 747.45 141.73 L 749.75 141.68 L 752.04 141.68 L 754.34 141.66 L 756.64 141.67 L 758.94 141.65 L 761.23 139.51 L 763.53 136.07 L 765.83 136.04 L 768.12 133.43 L 770.42 131.89 L 772.72 131.13 L 775.01 131.51 L 777.31 131.50 L 779.61 131.57 L 781.90 131.56 L 784.20 131.49 L 786.50 131.49 L 788.80 131.49 L 791.09 131.49 L 793.39 131.49 L 795.69 131.49 L 797.98 131.49 L 800.28 131.49 L 802.58 131.49 L 804.87 131.49 L 807.17 131.49 L 809.47 131.49 L 811.76 131.49 L 814.06 131.49 L 816.36 131.49 L 818.66 131.49 L 820.95 131.49 L 823.25 131.49 L 825.55 131.49 L 827.84 131.49 L 830.14 131.49 L 832.44 131.49 L 834.73 131.49 L 837.03 131.49 L 839.33 131.49 L 841.62 131.49 L 843.92 131.49 L 846.22 131.49 L 848.52 131.49 L 850.81 131.49 L 853.11 131.49 L 855.41 131.49 L 857.70 131.49 L 860.00 131.49" fill="none" stroke="#3fb950" stroke-width="2"/>
    <circle cx="860.00" cy="131.49" r="3" fill="#3fb950"/>
    <text x="40.00" y="235.00" font-size="9" fill="#c9d1d9" text-anchor="middle" transform="rotate(-45 40.00 235.00)">27.09.2025</text><text x="120.39" y="235.00" font-size="9" fill="#c9d1d9" text-anchor="middle" transform="rotate(-45 120.39 235.00)">28.09.2025</text><text x="200.78" y="235.00" font-size="9" fill="#c9d1d9" text-anchor="middle" transform="rotate(-45 200.78 235.00)">28.09.2025</text><text x="281.18" y="235.00" font-size="9" fill="#c9d1d9" text-anchor="middle" transform="rotate(-45 281.18 235.00)">30.09.2025</text><text x="361.57" y="235.00" font-size="9" fill="#c9d1d9" text-anchor="middle" transform="rotate(-45 361.57 235.00)">04.10.2025</text><text x="441.96" y="235.00" font-size="9" fill="#c9d1d9" text-anchor="middle" transform="rotate(-45 441.96 235.00)">04.10.2025</text><text x="522.35" y="235.00" font-size="9" fill="#c9d1d9" text-anchor="middle" transform="rotate(-45 522.35 235.00)">04.10.2025</text><text x="602.75" y="235.00" font-size="9" fill="#c9d1d9" text-anchor="middle" transform="rotate(-45 602.75 235.00)">05.10.2025</text><text x="683.14" y="235.00" font-size="9" fill="#c9d1d9" text-anchor="middle" transform="rotate(-45 683.14 235.00)">07.10.2025</text><text x="763.53" y="235.00" font-size="9" fill="#c9d1d9" text-anchor="middle" transform="rotate(-45 763.53 235.00)">09.10.2025</text><text x="843.92" y="235.00" font-size="9" fill="#c9d1d9" text-anchor="middle" transform="rotate(-45 843.92 235.00)">04.11.2025</text>
  </g>
</svg>