<svg xmlns="http://www.w3.org/2000/svg" width="900" height="290" style="font-family: -apple-system, BlinkMacSystemFont, 'Segoe UI', Helvetica, Arial, sans-serif;">
  <rect width="100%" height="100%" fill="white"/>
  <g>
    <line x1="40" y1="220.00" x2="860" y2="220.00" stroke="#e5e7eb"/><text x="32" y="224.00" font-size="10" fill="#111827" text-anchor="end">0</text><line x1="40" y1="175.00" x2="860" y2="175.00" stroke="#e5e7eb"/><text x="32" y="179.00" font-size="10" fill="#111827" text-anchor="end">25k</text><line x1="40" y1="130.00" x2="860" y2="130.00" stroke="#e5e7eb"/><text x="32" y="134.00" font-size="10" fill="#111827" text-anchor="end">50k</text><line x1="40" y1="85.00" x2="860" y2="85.00" stroke="#e5e7eb"/><text x="32" y="89.00" font-size="10" fill="#111827" text-anchor="end">75k</text><line x1="40" y1="40.00" x2="860" y2="40.00" stroke="#e5e7eb"/><text x="32" y="44.00" font-size="10" fill="#111827" text-anchor="end">100k</text>
    <line x1="40.00" y1="40" x2="40.00" y2="220" stroke="#e5e7eb" opacity="0.5"/><line x1="121.80" y1="40" x2="121.80" y2="220" stroke="#e5e7eb" opacity="0.5"/><line x1="203.59" y1="40" x2="203.59" y2="220" stroke="#e5e7eb" opacity="0.5"/><line x1="285.39" y1="40" x2="285.39" y2="220" stroke="#e5e7eb" opacity="0.5"/><line x1="367.18" y1="40" x2="367.18" y2="220" stroke="#e5e7eb" opacity="0.5"/><line x1="448.98" y1="40" x2="448.98" y2="220" stroke="#e5e7eb" opacity="0.5"/><line x1="530.77" y1="40" x2="530.77" y2="220" stroke="#e5e7eb" opacity="0.5"/><line x1="612.57" y1="40" x2="612.57" y2="220" stroke="#e5e7eb" opacity="0.5"/><line x1="694.36" y1="40" x2="694.36" y2="220" stroke="#e5e7eb" opacity="0.5"/><line x1="776.16" y1="40" x2="776.16" y2="220" stroke="#e5e7eb" opacity="0.5"/><line x1="857.96" y1="40" x2="857.96" y2="220" stroke="#e5e7eb" opacity="0.5"/>
    <line x1="40" y1="220" x2="860" y2="220" stroke="#9ca3af"/>
    <line x1="40" y1="40"   x2="40"   y2="220" stroke="#9ca3af"/>
    <path d="M 40.00 220.00 L 42.04 220.00 L 44.09 219.60 L 46.13 219.62 L 48.18 219.63 L 50.22 219.32 L 52.27 219.31 L 54.31 219.26 L 56.36 218.89 L 58.40 218.89 L 60.45 218.89 L 62.49 218.87 L 64.54 218.87 L 66.58 218.86 L 68.63 218.85 L 70.67 218.85 L 72.72 218.82 L 74.76 218.78 L 76.81 218.72 L 78.85 218.68 L 80.90 218.64 L 82.94 218.59 L 84.99 218.59 L 87.03 218.57 L 89.08 218.57 L 91.12 218.57 L 93.17 218.57 L 95.21 218.57 L 97.26 218.57 L 99.30 218.57 L 101.35 218.57 L 103.39 218.57 L 105.44 218.55 L 107.48 218.54 L 109.53 218.58 L 111.57 218.55 L 113.62 218.55 L 115.66 218.53 L 117.71 218.31 L 119.75 217.94 L 121.80 217.88 L 123.84 217.87 L 125.89 217.86 L 127.93 217.85 L 129.98 217.84 L 132.02 217.85 L 134.06 217.82 L 136.11 217.66 L 138.15 217.61 L 140.20 217.60 L 142.24 217.57 L 144.29 217.56 L 146.33 217.52 L 148.38 217.38 L 150.42 217.24 L 152.47 216.93 L 154.51 216.65 L 156.56 216.44 L 158.60 216.39 L 160.65 216.34 L 162.69 216.83 L 164.74 200.94 L 166.78 200.94 L 168.83 200.95 L 170.87 198.99 L 172.92 198.98 L 174.96 198.94 L 177.01 198.94 L 179.05 198.91 L 181.10 198.90 L 183.14 198.93 L 185.19 198.93 L 187.23 198.99 L 189.28 198.95 L 191.32 198.96 L 193.37 198.95 L 195.41 198.95 L 197.46 198.97 L 199.50 198.97 L 201.55 198.97 L 203.59 198.97 L 205.64 198.97 L 207.68 198.97 L 209.73 198.97 L 211.77 198.97 L 213.82 198.97 L 215.86 198.97 L 217.91 198.97 L 219.95 197.51 L 222.00 197.43 L 224.04 197.40 L 226.08 197.38 L 228.13 197.38 L 230.17 197.49 L 232.22 197.34 L 234.26 197.33 L 236.31 197.18 L 238.35 197.41 L 240.40 197.41 L 242.44 197.29 L 244.49 197.29 L 246.53 197.22 L 248.58 197.21 L 250.62 197.15 L 252.67 196.94 L 254.71 197.00 L 256.76 197.41 L 258.80 197.41 L 260.85 197.30 L 262.89 197.26 L 264.94 197.19 L 266.98 197.19 L 269.03 197.19 L 271.07 197.19 L 273.12 197.18 L 275.16 197.12 L 277.21 197.09 L 279.25 197.04 L 281.30 197.00 L 283.34 196.96 L 285.39 196.92 L 287.43 196.91 L 289.48 196.86 L 291.52 196.80 L 293.57 196.75 L 295.61 196.69 L 297.66 196.66 L 299.70 196.63 L 301.75 196.56 L 303.79 196.51 L 305.84 196.47 L 307.88 196.45 L 309.93 196.40 L 311.97 196.37 L 314.01 196.34 L 316.06 196.28 L 318.10 196.20 L 320.15 196.12 L 322.19 196.02 L 324.24 195.89 L 326.28 195.77 L 328.33 195.68 L 330.37 195.63 L 332.42 195.58 L 334.46 195.53 L 336.51 195.44 L 338.55 195.35 L 340.60 195.22 L 342.64 195.11 L 344.69 194.95 L 346.73 194.82 L 348.78 194.68 L 350.82 194.57 L 352.87 194.55 L 354.91 194.51 L 356.96 194.48 L 359.00 194.44 L 361.05 194.40 L 363.09 194.37 L 365.14 194.34 L 367.18 194.29 L 369.23 194.25 L 371.27 194.23 L 373.32 194.21 L 375.36 194.19 L 377.41 194.16 L 379.45 194.12 L 381.50 194.07 L 383.54 193.99 L 385.59 193.94 L 387.63 193.87 L 389.68 193.80 L 391.72 193.74 L 393.77 193.72 L 395.81 193.70 L 397.86 193.66 L 399.90 193.62 L 401.95 193.56 L 403.99 193.49 L 406.03 193.43 L 408.08 193.35 L 410.12 193.27 L 412.17 193.20 L 414.21 193.14 L 416.26 193.15 L 418.30 193.15 L 420.35 193.15 L 422.39 193.18 L 424.44 193.09 L 426.48 193.07 L 428.53 193.07 L 430.57 193.08 L 432.62 193.00 L 434.66 192.95 L 436.71 192.95 L 438.75 192.95 L 440.80 192.95 L 442.84 192.80 L 444.89 192.73 L 446.93 192.69 L 448.98 192.67 L 451.02 192.67 L 453.07 192.68 L 455.11 192.64 L 457.16 192.63 L 459.20 192.63 L 461.25 190.39 L 463.29 189.96 L 465.34 189.85 L 467.38 189.53 L 469.43 189.52 L 471.47 189.36 L 473.52 187.79 L 475.56 187.36 L 477.61 181.35 L 479.65 181.35 L 481.70 180.72 L 483.74 180.71 L 485.79 180.26 L 487.83 179.68 L 489.88 179.67 L 491.92 178.77 L 493.97 177.57 L 496.01 175.55 L 498.05 174.52 L 500.10 173.86 L 502.14 174.17 L 504.19 173.10 L 506.23 173.10 L 508.28 171.18 L 510.32 168.37 L 512.37 168.37 L 514.41 165.86 L 516.46 163.63 L 518.50 163.63 L 520.55 163.62 L 522.59 162.88 L 524.64 161.06 L 526.68 193.89 L 528.73 193.22 L 530.77 192.73 L 532.82 192.34 L 534.86 189.45 L 536.91 188.03 L 538.95 188.03 L 541.00 180.86 L 543.04 148.96 L 545.09 144.25 L 547.13 176.00 L 549.18 176.17 L 551.22 175.77 L 553.27 175.72 L 555.31 197.26 L 557.36 197.26 L 559.40 197.06 L 561.45 196.44 L 563.49 194.49 L 565.54 194.50 L 567.58 194.49 L 569.63 194.49 L 571.67 194.49 L 573.72 194.48 L 575.76 194.48 L 577.81 194.62 L 579.85 206.08 L 581.90 206.08 L 583.94 206.05 L 585.99 206.04 L 588.03 205.22 L 590.07 204.28 L 592.12 204.28 L 594.16 204.28 L 596.21 200.22 L 598.25 204.28 L 600.30 204.28 L 602.34 204.28 L 604.39 198.60 L 606.43 198.60 L 608.48 198.60 L 610.52 198.60 L 612.57 193.00 L 614.61 193.00 L 616.66 188.39 L 618.70 188.39 L 620.75 179.75 L 622.79 174.84 L 624.84 173.23 L 626.88 170.37 L 628.93 169.87 L 630.97 153.88 L 633.02 149.24 L 635.06 152.04 L 637.11 141.93 L 639.15 141.88 L 641.20 141.69 L 643.24 141.69 L 645.29 141.76 L 647.33 141.75 L 649.38 140.68 L 651.42 141.38 L 653.47 141.36 L 655.51 141.83 L 657.56 141.39 L 659.60 141.39 L 661.65 141.52 L 663.69 141.52 L 665.74 141.53 L 667.78 142.33 L 669.83 141.73 L 671.87 141.68 L 673.92 141.68 L 675.96 141.66 L 678.00 141.67 L 680.05 141.65 L 682.09 139.51 L 684.14 136.07 L 686.18 136.04 L 688.23 133.43 L 690.27 131.89 L 692.32 131.13 L 694.36 131.51 L 696.41 131.50 L 698.45 131.57 L 700.50 131.56 L 702.54 131.49 L 704.59 131.49 L 706.63 131.49 L 708.68 131.49 L 710.72 131.49 L 712.77 131.49 L 714.81 131.49 L 716.86 131.49 L 718.90 131.49 L 720.95 131.49 L 722.99 131.49 L 725.04 131.49 L 727.08 131.49 L 729.13 131.49 L 731.17 131.49 L 733.22 131.49 L 735.26 131.49 L 737.31 131.49 L 739.35 131.49 L 741.40 131.49 L 743.44 131.49 L 745.49 131.49 L 747.53 131.49 L 749.58 131.49 L 751.62 131.49 L 753.67 131.49 L 755.71 131.49 L 757.76 131.49 L 759.80 131.49 L 761.85 131.49 L 763.89 131.49 L 765.94 131.49 L 767.98 131.49 L 770.02 131.49 L 772.07 131.49 L 774.11 131.49 L 776.16 131.49 L 778.20 131.49 L 780.25 131.49 L 782.29 131.49 L 784.34 131.49 L 786.38 131.49 L 788.43 131.49 L 790.47 131.49 L 792.52 131.49 L 794.56 131.49 L 796.61 131.49 L 798.65 131.49 L 800.70 131.49 L 802.74 131.49 L 804.79 131.49 L 806.83 131.49 L 808.88 131.49 L 810.92 131.49 L 812.97 131.49 L 815.01 131.49 L 817.06 131.49 L 819.10 131.49 L 821.15 131.49 L 823.19 131.49 L 825.24 131.49 L 827.28 131.49 L 829.33 131.49 L 831.37 131.49 L 833.42 131.49 L 835.46 131.49 L 837.51 131.49 L 839.55 131.49 L 841.60 131.49 L 843.64 131.49 L 845.69 131.49 L 847.73 131.49 L 849.78 131.49 L 851.82 131.49 L 853.87 131.49 L 855.91 131.49 L 857.96 131.49 L 860.00 131.49" fill="none" stroke="#111827" stroke-width="2"/>
    <circle cx="860.00" cy="131.49" r="3" fill="#111827"/>
    <text x="40.00" y="235.00" font-size="9" fill="#111827" text-anchor="middle" transform="rotate(-45 40.00 235.00)">27.09.2025</text><text x="121.80" y="235.00" font-size="9" fill="#111827" text-anchor="middle" transform="rotate(-45 121.80 235.00)">28.09.2025</text><text x="203.59" y="235.00" font-size="9" fill="#111827" text-anchor="middle" transform="rotate(-45 203.59 235.00)">29.09.2025</text><text x="285.39" y="235.00" font-size="9" fill="#111827" text-anchor="middle" transform="rotate(-45 285.39 235.00)">04.10.2025</text><text x="367.18" y="235.00" font-size="9" fill="#111827" text-anchor="middle" transform="rotate(-45 367.18 235.00)">04.10.2025</text><text x="448.98" y="235.00" font-size="9" fill="#111827" text-anchor="middle" transform="rotate(-45 448.98 235.00)">04.10.2025</text><text x="530.77" y="235.00" font-size="9" fill="#111827" text-anchor="middle" transform="rotate(-45 530.77 235.00)">04.10.2025</text><text x="612.57" y="235.00" font-size="9" fill="#111827" text-anchor="middle" transform="rotate(-45 612.57 235.00)">07.10.2025</text><text x="694.36" y="235.00" font-size="9" fill="#111827" text-anchor="middle" transform="rotate(-45 694.36 235.00)">09.10.2025</text><text x="776.16" y="235.00" font-size="9" fill="#111827" text-anchor="middle" transform="rotate(-45 776.16 235.00)">14.11.2025</text><text x="857.96" y="235.00" font-size="9" fill="#111827" text-anchor="middle" transform="rotate(-45 857.96 235.00)">24.12.2025</text>
  </g>
</svg>