<svg xmlns="http://www.w3.org/2000/svg" width="900" height="290" style="font-family: -apple-system, BlinkMacSystemFont, 'Segoe UI', Helvetica, Arial, sans-serif;">
  <rect width="100%" height="100%" fill="#0d1117"/>
  <g>
    <line x1="40" y1="220.00" x2="860" y2="220.00" stroke="#30363d"/><text x="32" y="224.00" font-size="10" fill="#c9d1d9" text-anchor="end">0</text><line x1="40" y1="175.00" x2="860" y2="175.00" stroke="#30363d"/><text x="32" y="179.00" font-size="10" fill="#c9d1d9" text-anchor="end">25k</text><line x1="40" y1="130.00" x2="860" y2="130.00" stroke="#30363d"/><text x="32" y="134.00" font-size="10" fill="#c9d1d9" text-anchor="end">50k</text><line x1="40" y1="85.00" x2="860" y2="85.00" stroke="#30363d"/><text x="32" y="89.00" font-size="10" fill="#c9d1d9" text-anchor="end">75k</text><line x1="40" y1="40.00" x2="860" y2="40.00" stroke="#30363d"/><text x="32" y="44.00" font-size="10" fill="#c9d1d9" text-anchor="end">100k</text>
    <line x1="40.00" y1="40" x2="40.00" y2="220" stroke="#30363d" opacity="0.5"/><line x1="120.47" y1="40" x2="120.47" y2="220" stroke="#30363d" opacity="0.5"/><line x1="200.93" y1="40" x2="200.93" y2="220" stroke="#30363d" opacity="0.5"/><line x1="281.40" y1="40" x2="281.40" y2="220" stroke="#30363d" opacity="0.5"/><line x1="361.87" y1="40" x2="361.87" y2="220" stroke="#30363d" opacity="0.5"/><line x1="442.34" y1="40" x2="442.34" y2="220" stroke="#30363d" opacity="0.5"/><line x1="522.80" y1="40" x2="522.80" y2="220" stroke="#30363d" opacity="0.5"/><line x1="603.27" y1="40" x2="603.27" y2="220" stroke="#30363d" opacity="0.5"/><line x1="683.74" y1="40" x2="683.74" y2="220" stroke="#30363d" opacity="0.5"/><line x1="764.21" y1="40" x2="764.21" y2="220" stroke="#30363d" opacity="0.5"/><line x1="844.67" y1="40" x2="844.67" y2="220" stroke="#30363d" opacity="0.5"/>
    <line x1="40" y1="220" x2="860" y2="220" stroke="#30363d"/>
    <line x1="40" y1="40"   x2="40"   y2="220" stroke="#30363d"/>
    <path d="M 40.00 220.00 L 41.92 220.00 L 43.83 219.60 L 45.75 219.62 L 47.66 219.63 L 49.58 219.32 L 51.50 219.31 L 53.41 219.26 L 55.33 218.89 L 57.24 218.89 L 59.16 218.89 L 61.07 218.87 L 62.99 218.87 L 64.91 218.86 L 66.82 218.85 L 68.74 218.85 L 70.65 218.82 L 72.57 218.78 L 74.49 218.72 L 76.40 218.68 L 78.32 218.64 L 80.23 218.59 L 82.15 218.59 L 84.07 218.57 L 85.98 218.57 L 87.90 218.57 L 89.81 218.57 L 91.73 218.57 L 93.64 218.57 L 95.56 218.57 L 97.48 218.57 L 99.39 218.57 L 101.31 218.55 L 103.22 218.54 L 105.14 218.58 L 107.06 218.55 L 108.97 218.55 L 110.89 218.53 L 112.80 218.31 L 114.72 217.94 L 116.64 217.88 L 118.55 217.87 L 120.47 217.86 L 122.38 217.85 L 124.30 217.84 L 126.21 217.85 L 128.13 217.82 L 130.05 217.66 L 131.96 217.61 L 133.88 217.60 L 135.79 217.57 L 137.71 217.56 L 139.63 217.52 L 141.54 217.38 L 143.46 217.24 L 145.37 216.93 L 147.29 216.65 L 149.21 216.44 L 151.12 216.39 L 153.04 216.34 L 154.95 216.83 L 156.87 200.94 L 158.79 200.94 L 160.70 200.95 L 162.62 198.99 L 164.53 198.98 L 166.45 198.94 L 168.36 198.94 L 170.28 198.91 L 172.20 198.90 L 174.11 198.93 L 176.03 198.93 L 177.94 198.99 L 179.86 198.95 L 181.78 198.96 L 183.69 198.95 L 185.61 198.95 L 187.52 198.97 L 189.44 198.97 L 191.36 198.97 L 193.27 198.97 L 195.19 198.97 L 197.10 198.97 L 199.02 198.97 L 200.93 198.97 L 202.85 198.97 L 204.77 198.97 L 206.68 198.97 L 208.60 197.51 L 210.51 197.43 L 212.43 197.40 L 214.35 197.38 L 216.26 197.38 L 218.18 197.49 L 220.09 197.34 L 222.01 197.33 L 223.93 197.18 L 225.84 197.41 L 227.76 197.41 L 229.67 197.29 L 231.59 197.29 L 233.50 197.22 L 235.42 197.21 L 237.34 197.15 L 239.25 196.94 L 241.17 197.00 L 243.08 197.41 L 245.00 197.41 L 246.92 197.30 L 248.83 197.26 L 250.75 197.19 L 252.66 197.19 L 254.58 197.19 L 256.50 197.19 L 258.41 197.18 L 260.33 197.12 L 262.24 197.09 L 264.16 197.04 L 266.07 197.00 L 267.99 196.96 L 269.91 196.92 L 271.82 196.91 L 273.74 196.86 L 275.65 196.80 L 277.57 196.75 L 279.49 196.69 L 281.40 196.66 L 283.32 196.63 L 285.23 196.56 L 287.15 196.51 L 289.07 196.47 L 290.98 196.45 L 292.90 196.40 L 294.81 196.37 L 296.73 196.34 L 298.64 196.28 L 300.56 196.20 L 302.48 196.12 L 304.39 196.02 L 306.31 195.89 L 308.22 195.77 L 310.14 195.68 L 312.06 195.63 L 313.97 195.58 L 315.89 195.53 L 317.80 195.44 L 319.72 195.35 L 321.64 195.22 L 323.55 195.11 L 325.47 194.95 L 327.38 194.82 L 329.30 194.68 L 331.21 194.57 L 333.13 194.55 L 335.05 194.51 L 336.96 194.48 L 338.88 194.44 L 340.79 194.40 L 342.71 194.37 L 344.63 194.34 L 346.54 194.29 L 348.46 194.25 L 350.37 194.23 L 352.29 194.21 L 354.21 194.19 L 356.12 194.16 L 358.04 194.12 L 359.95 194.07 L 361.87 193.99 L 363.79 193.94 L 365.70 193.87 L 367.62 193.80 L 369.53 193.74 L 371.45 193.72 L 373.36 193.70 L 375.28 193.66 L 377.20 193.62 L 379.11 193.56 L 381.03 193.49 L 382.94 193.43 L 384.86 193.35 L 386.78 193.27 L 388.69 193.20 L 390.61 193.14 L 392.52 193.15 L 394.44 193.15 L 396.36 193.15 L 398.27 193.18 L 400.19 193.09 L 402.10 193.07 L 404.02 193.07 L 405.93 193.08 L 407.85 193.00 L 409.77 192.95 L 411.68 192.95 L 413.60 192.95 L 415.51 192.95 L 417.43 192.80 L 419.35 192.73 L 421.26 192.69 L 423.18 192.67 L 425.09 192.67 L 427.01 192.68 L 428.93 192.64 L 430.84 192.63 L 432.76 192.63 L 434.67 190.39 L 436.59 189.96 L 438.50 189.85 L 440.42 189.53 L 442.34 189.52 L 444.25 189.36 L 446.17 187.79 L 448.08 187.36 L 450.00 181.35 L 451.92 181.35 L 453.83 180.72 L 455.75 180.71 L 457.66 180.26 L 459.58 179.68 L 461.50 179.67 L 463.41 178.77 L 465.33 177.57 L 467.24 175.55 L 469.16 174.52 L 471.07 173.86 L 472.99 174.17 L 474.91 173.10 L 476.82 173.10 L 478.74 171.18 L 480.65 168.37 L 482.57 168.37 L 484.49 165.86 L 486.40 163.63 L 488.32 163.63 L 490.23 163.62 L 492.15 162.88 L 494.07 161.06 L 495.98 193.89 L 497.90 193.22 L 499.81 192.73 L 501.73 192.34 L 503.64 189.45 L 505.56 188.03 L 507.48 188.03 L 509.39 180.86 L 511.31 148.96 L 513.22 144.25 L 515.14 176.00 L 517.06 176.17 L 518.97 175.77 L 520.89 175.72 L 522.80 197.26 L 524.72 197.26 L 526.64 197.06 L 528.55 196.44 L 530.47 194.49 L 532.38 194.50 L 534.30 194.49 L 536.21 194.49 L 538.13 194.49 L 540.05 194.48 L 541.96 194.48 L 543.88 194.62 L 545.79 206.08 L 547.71 206.08 L 549.63 206.05 L 551.54 206.04 L 553.46 205.22 L 555.37 204.28 L 557.29 204.28 L 559.21 204.28 L 561.12 200.22 L 563.04 204.28 L 564.95 204.28 L 566.87 204.28 L 568.79 198.60 L 570.70 198.60 L 572.62 198.60 L 574.53 198.60 L 576.45 193.00 L 578.36 193.00 L 580.28 188.39 L 582.20 188.39 L 584.11 179.75 L 586.03 174.84 L 587.94 173.23 L 589.86 170.37 L 591.78 169.87 L 593.69 153.88 L 595.61 149.24 L 597.52 152.04 L 599.44 141.93 L 601.36 141.88 L 603.27 141.69 L 605.19 141.69 L 607.10 141.76 L 609.02 141.75 L 610.93 140.68 L 612.85 141.38 L 614.77 141.36 L 616.68 141.83 L 618.60 141.39 L 620.51 141.39 L 622.43 141.52 L 624.35 141.52 L 626.26 141.53 L 628.18 142.33 L 630.09 141.73 L 632.01 141.68 L 633.93 141.68 L 635.84 141.66 L 637.76 141.67 L 639.67 141.65 L 641.59 139.51 L 643.50 136.07 L 645.42 136.04 L 647.34 133.43 L 649.25 131.89 L 651.17 131.13 L 653.08 131.51 L 655.00 131.50 L 656.92 131.57 L 658.83 131.56 L 660.75 131.49 L 662.66 131.49 L 664.58 131.49 L 666.50 131.49 L 668.41 131.49 L 670.33 131.49 L 672.24 131.49 L 674.16 131.49 L 676.07 131.49 L 677.99 131.49 L 679.91 131.49 L 681.82 131.49 L 683.74 131.49 L 685.65 131.49 L 687.57 131.49 L 689.49 131.49 L 691.40 131.49 L 693.32 131.49 L 695.23 131.49 L 697.15 131.49 L 699.07 131.49 L 700.98 131.49 L 702.90 131.49 L 704.81 131.49 L 706.73 131.49 L 708.64 131.49 L 710.56 131.49 L 712.48 131.49 L 714.39 131.49 L 716.31 131.49 L 718.22 131.49 L 720.14 131.49 L 722.06 131.49 L 723.97 131.49 L 725.89 131.49 L 727.80 131.49 L 729.72 131.49 L 731.64 131.49 L 733.55 131.49 L 735.47 131.49 L 737.38 131.49 L 739.30 131.49 L 741.21 131.49 L 743.13 131.49 L 745.05 131.49 L 746.96 131.49 L 748.88 131.49 L 750.79 131.49 L 752.71 131.49 L 754.63 131.49 L 756.54 131.49 L 758.46 131.49 L 760.37 131.49 L 762.29 131.49 L 764.21 131.49 L 766.12 131.49 L 768.04 131.49 L 769.95 131.49 L 771.87 131.49 L 773.79 131.49 L 775.70 131.49 L 777.62 131.49 L 779.53 131.49 L 781.45 131.49 L 783.36 131.49 L 785.28 131.49 L 787.20 131.49 L 789.11 131.49 L 791.03 131.49 L 792.94 131.49 L 794.86 131.49 L 796.78 131.49 L 798.69 131.49 L 800.61 131.49 L 802.52 131.49 L 804.44 131.49 L 806.36 131.49 L 808.27 131.49 L 810.19 131.49 L 812.10 131.49 L 814.02 131.49 L 815.93 131.49 L 817.85 131.49 L 819.77 131.49 L 821.68 131.49 L 823.60 131.49 L 825.51 131.49 L 827.43 131.49 L 829.35 131.49 L 831.26 131.49 L 833.18 131.49 L 835.09 131.49 L 837.01 131.49 L 838.93 131.49 L 840.84 131.49 L 842.76 131.49 L 844.67 131.49 L 846.59 131.49 L 848.50 131.49 L 850.42 131.49 L 852.34 131.49 L 854.25 131.49 L 856.17 131.49 L 858.08 131.49 L 860.00 131.49" fill="none" stroke="#3fb950" stroke-width="2"/>
    <circle cx="860.00" cy="131.49" r="3" fill="#3fb950"/>
    <text x="40.00" y="235.00" font-size="9" fill="#c9d1d9" text-anchor="middle" transform="rotate(-45 40.00 235.00)">27.09.2025</text><text x="120.47" y="235.00" font-size="9" fill="#c9d1d9" text-anchor="middle" transform="rotate(-45 120.47 235.00)">28.09.2025</text><text x="200.93" y="235.00" font-size="9" fill="#c9d1d9" text-anchor="middle" transform="rotate(-45 200.93 235.00)">29.09.2025</text><text x="281.40" y="235.00" font-size="9" fill="#c9d1d9" text-anchor="middle" transform="rotate(-45 281.40 235.00)">04.10.2025</text><text x="361.87" y="235.00" font-size="9" fill="#c9d1d9" text-anchor="middle" transform="rotate(-45 361.87 235.00)">04.10.2025</text><text x="442.34" y="235.00" font-size="9" fill="#c9d1d9" text-anchor="middle" transform="rotate(-45 442.34 235.00)">04.10.2025</text><text x="522.80" y="235.00" font-size="9" fill="#c9d1d9" text-anchor="middle" transform="rotate(-45 522.80 235.00)">05.10.2025</text><text x="603.27" y="235.00" font-size="9" fill="#c9d1d9" text-anchor="middle" transform="rotate(-45 603.27 235.00)">08.10.2025</text><text x="683.74" y="235.00" font-size="9" fill="#c9d1d9" text-anchor="middle" transform="rotate(-45 683.74 235.00)">21.10.2025</text><text x="764.21" y="235.00" font-size="9" fill="#c9d1d9" text-anchor="middle" transform="rotate(-45 764.21 235.00)">02.12.2025</text><text x="844.67" y="235.00" font-size="9" fill="#c9d1d9" text-anchor="middle" transform="rotate(-45 844.67 235.00)">13.01.2026</text>
  </g>
</svg>