<svg xmlns="http://www.w3.org/2000/svg" width="900" height="290" style="font-family: -apple-system, BlinkMacSystemFont, 'Segoe UI', Helvetica, Arial, sans-serif;">
  <rect width="100%" height="100%" fill="#0d1117"/>
  <g>
    <line x1="40" y1="220.00" x2="860" y2="220.00" stroke="#30363d"/><text x="32" y="224.00" font-size="10" fill="#c9d1d9" text-anchor="end">0</text><line x1="40" y1="175.00" x2="860" y2="175.00" stroke="#30363d"/><text x="32" y="179.00" font-size="10" fill="#c9d1d9" text-anchor="end">25k</text><line x1="40" y1="130.00" x2="860" y2="130.00" stroke="#30363d"/><text x="32" y="134.00" font-size="10" fill="#c9d1d9" text-anchor="end">50k</text><line x1="40" y1="85.00" x2="860" y2="85.00" stroke="#30363d"/><text x="32" y="89.00" font-size="10" fill="#c9d1d9" text-anchor="end">75k</text><line x1="40" y1="40.00" x2="860" y2="40.00" stroke="#30363d"/><text x="32" y="44.00" font-size="10" fill="#c9d1d9" text-anchor="end">100k</text>
    <line x1="40.00" y1="40" x2="40.00" y2="220" stroke="#30363d" opacity="0.5"/><line x1="121.60" y1="40" x2="121.60" y2="220" stroke="#30363d" opacity="0.5"/><line x1="203.20" y1="40" x2="203.20" y2="220" stroke="#30363d" opacity="0.5"/><line x1="284.81" y1="40" x2="284.81" y2="220" stroke="#30363d" opacity="0.5"/><line x1="366.41" y1="40" x2="366.41" y2="220" stroke="#30363d" opacity="0.5"/><line x1="448.01" y1="40" x2="448.01" y2="220" stroke="#30363d" opacity="0.5"/><line x1="529.61" y1="40" x2="529.61" y2="220" stroke="#30363d" opacity="0.5"/><line x1="611.21" y1="40" x2="611.21" y2="220" stroke="#30363d" opacity="0.5"/><line x1="692.82" y1="40" x2="692.82" y2="220" stroke="#30363d" opacity="0.5"/><line x1="774.42" y1="40" x2="774.42" y2="220" stroke="#30363d" opacity="0.5"/><line x1="856.02" y1="40" x2="856.02" y2="220" stroke="#30363d" opacity="0.5"/>
    <line x1="40" y1="220" x2="860" y2="220" stroke="#30363d"/>
    <line x1="40" y1="40"   x2="40"   y2="220" stroke="#30363d"/>
    <path d="M 40.00 220.00 L 41.99 220.00 L 43.98 219.60 L 45.97 219.62 L 47.96 219.63 L 49.95 219.32 L 51.94 219.31 L 53.93 219.26 L 55.92 218.89 L 57.91 218.89 L 59.90 218.89 L 61.89 218.87 L 63.88 218.87 L 65.87 218.86 L 67.86 218.85 L 69.85 218.85 L 71.84 218.82 L 73.83 218.78 L 75.83 218.72 L 77.82 218.68 L 79.81 218.64 L 81.80 218.59 L 83.79 218.59 L 85.78 218.57 L 87.77 218.57 L 89.76 218.57 L 91.75 218.57 L 93.74 218.57 L 95.73 218.57 L 97.72 218.57 L 99.71 218.57 L 101.70 218.57 L 103.69 218.55 L 105.68 218.54 L 107.67 218.58 L 109.66 218.55 L 111.65 218.55 L 113.64 218.53 L 115.63 218.31 L 117.62 217.94 L 119.61 217.88 L 121.60 217.87 L 123.59 217.86 L 125.58 217.85 L 127.57 217.84 L 129.56 217.85 L 131.55 217.82 L 133.54 217.66 L 135.53 217.61 L 137.52 217.60 L 139.51 217.57 L 141.50 217.56 L 143.50 217.52 L 145.49 217.38 L 147.48 217.24 L 149.47 216.93 L 151.46 216.65 L 153.45 216.44 L 155.44 216.39 L 157.43 216.34 L 159.42 216.83 L 161.41 200.94 L 163.40 200.94 L 165.39 200.95 L 167.38 198.99 L 169.37 198.98 L 171.36 198.94 L 173.35 198.94 L 175.34 198.91 L 177.33 198.90 L 179.32 198.93 L 181.31 198.93 L 183.30 198.99 L 185.29 198.95 L 187.28 198.96 L 189.27 198.95 L 191.26 198.95 L 193.25 198.97 L 195.24 198.97 L 197.23 198.97 L 199.22 198.97 L 201.21 198.97 L 203.20 198.97 L 205.19 198.97 L 207.18 198.97 L 209.17 198.97 L 211.17 198.97 L 213.16 198.97 L 215.15 197.51 L 217.14 197.43 L 219.13 197.40 L 221.12 197.38 L 223.11 197.38 L 225.10 197.49 L 227.09 197.34 L 229.08 197.33 L 231.07 197.18 L 233.06 197.41 L 235.05 197.41 L 237.04 197.29 L 239.03 197.29 L 241.02 197.22 L 243.01 197.21 L 245.00 197.15 L 246.99 196.94 L 248.98 197.00 L 250.97 197.41 L 252.96 197.41 L 254.95 197.30 L 256.94 197.26 L 258.93 197.19 L 260.92 197.19 L 262.91 197.19 L 264.90 197.19 L 266.89 197.18 L 268.88 197.12 L 270.87 197.09 L 272.86 197.04 L 274.85 197.00 L 276.84 196.96 L 278.83 196.92 L 280.83 196.91 L 282.82 196.86 L 284.81 196.80 L 286.80 196.75 L 288.79 196.69 L 290.78 196.66 L 292.77 196.63 L 294.76 196.56 L 296.75 196.51 L 298.74 196.47 L 300.73 196.45 L 302.72 196.40 L 304.71 196.37 L 306.70 196.34 L 308.69 196.28 L 310.68 196.20 L 312.67 196.12 L 314.66 196.02 L 316.65 195.89 L 318.64 195.77 L 320.63 195.68 L 322.62 195.63 L 324.61 195.58 L 326.60 195.53 L 328.59 195.44 L 330.58 195.35 L 332.57 195.22 L 334.56 195.11 L 336.55 194.95 L 338.54 194.82 L 340.53 194.68 L 342.52 194.57 L 344.51 194.55 L 346.50 194.51 L 348.50 194.48 L 350.49 194.44 L 352.48 194.40 L 354.47 194.37 L 356.46 194.34 L 358.45 194.29 L 360.44 194.25 L 362.43 194.23 L 364.42 194.21 L 366.41 194.19 L 368.40 194.16 L 370.39 194.12 L 372.38 194.07 L 374.37 193.99 L 376.36 193.94 L 378.35 193.87 L 380.34 193.80 L 382.33 193.74 L 384.32 193.72 L 386.31 193.70 L 388.30 193.66 L 390.29 193.62 L 392.28 193.56 L 394.27 193.49 L 396.26 193.43 L 398.25 193.35 L 400.24 193.27 L 402.23 193.20 L 404.22 193.14 L 406.21 193.15 L 408.20 193.15 L 410.19 193.15 L 412.18 193.18 L 414.17 193.09 L 416.17 193.07 L 418.16 193.07 L 420.15 193.08 L 422.14 193.00 L 424.13 192.95 L 426.12 192.95 L 428.11 192.95 L 430.10 192.95 L 432.09 192.80 L 434.08 192.73 L 436.07 192.69 L 438.06 192.67 L 440.05 192.67 L 442.04 192.68 L 444.03 192.64 L 446.02 192.63 L 448.01 192.63 L 450.00 190.39 L 451.99 189.96 L 453.98 189.85 L 455.97 189.53 L 457.96 189.52 L 459.95 189.36 L 461.94 187.79 L 463.93 187.36 L 465.92 181.35 L 467.91 181.35 L 469.90 180.72 L 471.89 180.71 L 473.88 180.26 L 475.87 179.68 L 477.86 179.67 L 479.85 178.77 L 481.84 177.57 L 483.83 175.55 L 485.83 174.52 L 487.82 173.86 L 489.81 174.17 L 491.80 173.10 L 493.79 173.10 L 495.78 171.18 L 497.77 168.37 L 499.76 168.37 L 501.75 165.86 L 503.74 163.63 L 505.73 163.63 L 507.72 163.62 L 509.71 162.88 L 511.70 161.06 L 513.69 193.89 L 515.68 193.22 L 517.67 192.73 L 519.66 192.34 L 521.65 189.45 L 523.64 188.03 L 525.63 188.03 L 527.62 180.86 L 529.61 148.96 L 531.60 144.25 L 533.59 176.00 L 535.58 176.17 L 537.57 175.77 L 539.56 175.72 L 541.55 197.26 L 543.54 197.26 L 545.53 197.06 L 547.52 196.44 L 549.51 194.49 L 551.50 194.50 L 553.50 194.49 L 555.49 194.49 L 557.48 194.49 L 559.47 194.48 L 561.46 194.48 L 563.45 194.62 L 565.44 206.08 L 567.43 206.08 L 569.42 206.05 L 571.41 206.04 L 573.40 205.22 L 575.39 204.28 L 577.38 204.28 L 579.37 204.28 L 581.36 200.22 L 583.35 204.28 L 585.34 204.28 L 587.33 204.28 L 589.32 198.60 L 591.31 198.60 L 593.30 198.60 L 595.29 198.60 L 597.28 193.00 L 599.27 193.00 L 601.26 188.39 L 603.25 188.39 L 605.24 179.75 L 607.23 174.84 L 609.22 173.23 L 611.21 170.37 L 613.20 169.87 L 615.19 153.88 L 617.18 149.24 L 619.17 152.04 L 621.17 141.93 L 623.16 141.88 L 625.15 141.69 L 627.14 141.69 L 629.13 141.76 L 631.12 141.75 L 633.11 140.68 L 635.10 141.38 L 637.09 141.36 L 639.08 141.83 L 641.07 141.39 L 643.06 141.39 L 645.05 141.52 L 647.04 141.52 L 649.03 141.53 L 651.02 142.33 L 653.01 141.73 L 655.00 141.68 L 656.99 141.68 L 658.98 141.66 L 660.97 141.67 L 662.96 141.65 L 664.95 139.51 L 666.94 136.07 L 668.93 136.04 L 670.92 133.43 L 672.91 131.89 L 674.90 131.13 L 676.89 131.51 L 678.88 131.50 L 680.87 131.57 L 682.86 131.56 L 684.85 131.49 L 686.84 131.49 L 688.83 131.49 L 690.83 131.49 L 692.82 131.49 L 694.81 131.49 L 696.80 131.49 L 698.79 131.49 L 700.78 131.49 L 702.77 131.49 L 704.76 131.49 L 706.75 131.49 L 708.74 131.49 L 710.73 131.49 L 712.72 131.49 L 714.71 131.49 L 716.70 131.49 L 718.69 131.49 L 720.68 131.49 L 722.67 131.49 L 724.66 131.49 L 726.65 131.49 L 728.64 131.49 L 730.63 131.49 L 732.62 131.49 L 734.61 131.49 L 736.60 131.49 L 738.59 131.49 L 740.58 131.49 L 742.57 131.49 L 744.56 131.49 L 746.55 131.49 L 748.54 131.49 L 750.53 131.49 L 752.52 131.49 L 754.51 131.49 L 756.50 131.49 L 758.50 131.49 L 760.49 131.49 L 762.48 131.49 L 764.47 131.49 L 766.46 131.49 L 768.45 131.49 L 770.44 131.49 L 772.43 131.49 L 774.42 131.49 L 776.41 131.49 L 778.40 131.49 L 780.39 131.49 L 782.38 131.49 L 784.37 131.49 L 786.36 131.49 L 788.35 131.49 L 790.34 131.49 L 792.33 131.49 L 794.32 131.49 L 796.31 131.49 L 798.30 131.49 L 800.29 131.49 L 802.28 131.49 L 804.27 131.49 L 806.26 131.49 L 808.25 131.49 L 810.24 131.49 L 812.23 131.49 L 814.22 131.49 L 816.21 131.49 L 818.20 131.49 L 820.19 131.49 L 822.18 131.49 L 824.17 131.49 L 826.17 131.49 L 828.16 131.49 L 830.15 131.49 L 832.14 131.49 L 834.13 131.49 L 836.12 131.49 L 838.11 131.49 L 840.10 131.49 L 842.09 131.49 L 844.08 131.49 L 846.07 131.49 L 848.06 131.49 L 850.05 131.49 L 852.04 131.49 L 854.03 131.49 L 856.02 131.49 L 858.01 131.49 L 860.00 131.49" fill="none" stroke="#3fb950" stroke-width="2"/>
    <circle cx="860.00" cy="131.49" r="3" fill="#3fb950"/>
    <text x="40.00" y="235.00" font-size="9" fill="#c9d1d9" text-anchor="middle" transform="rotate(-45 40.00 235.00)">27.09.2025</text><text x="121.60" y="235.00" font-size="9" fill="#c9d1d9" text-anchor="middle" transform="rotate(-45 121.60 235.00)">28.09.2025</text><text x="203.20" y="235.00" font-size="9" fill="#c9d1d9" text-anchor="middle" transform="rotate(-45 203.20 235.00)">29.09.2025</text><text x="284.81" y="235.00" font-size="9" fill="#c9d1d9" text-anchor="middle" transform="rotate(-45 284.81 235.00)">04.10.2025</text><text x="366.41" y="235.00" font-size="9" fill="#c9d1d9" text-anchor="middle" transform="rotate(-45 366.41 235.00)">04.10.2025</text><text x="448.01" y="235.00" font-size="9" fill="#c9d1d9" text-anchor="middle" transform="rotate(-45 448.01 235.00)">04.10.2025</text><text x="529.61" y="235.00" font-size="9" fill="#c9d1d9" text-anchor="middle" transform="rotate(-45 529.61 235.00)">05.10.2025</text><text x="611.21" y="235.00" font-size="9" fill="#c9d1d9" text-anchor="middle" transform="rotate(-45 611.21 235.00)">08.10.2025</text><text x="692.82" y="235.00" font-size="9" fill="#c9d1d9" text-anchor="middle" transform="rotate(-45 692.82 235.00)">13.10.2025</text><text x="774.42" y="235.00" font-size="9" fill="#c9d1d9" text-anchor="middle" transform="rotate(-45 774.42 235.00)">23.11.2025</text><text x="856.02" y="235.00" font-size="9" fill="#c9d1d9" text-anchor="middle" transform="rotate(-45 856.02 235.00)">03.01.2026</text>
  </g>
</svg>