<svg xmlns="http://www.w3.org/2000/svg" width="900" height="290" style="font-family: -apple-system, BlinkMacSystemFont, 'Segoe UI', Helvetica, Arial, sans-serif;">
  <rect width="100%" height="100%" fill="white"/>
  <g>
    <line x1="40" y1="220.00" x2="860" y2="220.00" stroke="#e5e7eb"/><text x="32" y="224.00" font-size="10" fill="#111827" text-anchor="end">0</text><line x1="40" y1="175.00" x2="860" y2="175.00" stroke="#e5e7eb"/><text x="32" y="179.00" font-size="10" fill="#111827" text-anchor="end">25k</text><line x1="40" y1="130.00" x2="860" y2="130.00" stroke="#e5e7eb"/><text x="32" y="134.00" font-size="10" fill="#111827" text-anchor="end">50k</text><line x1="40" y1="85.00" x2="860" y2="85.00" stroke="#e5e7eb"/><text x="32" y="89.00" font-size="10" fill="#111827" text-anchor="end">75k</text><line x1="40" y1="40.00" x2="860" y2="40.00" stroke="#e5e7eb"/><text x="32" y="44.00" font-size="10" fill="#111827" text-anchor="end">100k</text>
    <line x1="40.00" y1="40" x2="40.00" y2="220" stroke="#e5e7eb" opacity="0.5"/><line x1="121.82" y1="40" x2="121.82" y2="220" stroke="#e5e7eb" opacity="0.5"/><line x1="203.64" y1="40" x2="203.64" y2="220" stroke="#e5e7eb" opacity="0.5"/><line x1="285.45" y1="40" x2="285.45" y2="220" stroke="#e5e7eb" opacity="0.5"/><line x1="367.27" y1="40" x2="367.27" y2="220" stroke="#e5e7eb" opacity="0.5"/><line x1="449.09" y1="40" x2="449.09" y2="220" stroke="#e5e7eb" opacity="0.5"/><line x1="530.91" y1="40" x2="530.91" y2="220" stroke="#e5e7eb" opacity="0.5"/><line x1="612.73" y1="40" x2="612.73" y2="220" stroke="#e5e7eb" opacity="0.5"/><line x1="694.55" y1="40" x2="694.55" y2="220" stroke="#e5e7eb" opacity="0.5"/><line x1="776.36" y1="40" x2="776.36" y2="220" stroke="#e5e7eb" opacity="0.5"/><line x1="858.18" y1="40" x2="858.18" y2="220" stroke="#e5e7eb" opacity="0.5"/>
    <line x1="40" y1="220" x2="860" y2="220" stroke="#9ca3af"/>
    <line x1="40" y1="40"   x2="40"   y2="220" stroke="#9ca3af"/>
    <path d="M 40.00 220.00 L 41.82 220.00 L 43.64 219.60 L 45.45 219.62 L 47.27 219.63 L 49.09 219.32 L 50.91 219.31 L 52.73 219.26 L 54.55 218.89 L 56.36 218.89 L 58.18 218.89 L 60.00 218.87 L 61.82 218.87 L 63.64 218.86 L 65.45 218.85 L 67.27 218.85 L 69.09 218.82 L 70.91 218.78 L 72.73 218.72 L 74.55 218.68 L 76.36 218.64 L 78.18 218.59 L 80.00 218.59 L 81.82 218.57 L 83.64 218.57 L 85.45 218.57 L 87.27 218.57 L 89.09 218.57 L 90.91 218.57 L 92.73 218.57 L 94.55 218.57 L 96.36 218.57 L 98.18 218.55 L 100.00 218.54 L 101.82 218.58 L 103.64 218.55 L 105.45 218.55 L 107.27 218.53 L 109.09 218.31 L 110.91 217.94 L 112.73 217.88 L 114.55 217.87 L 116.36 217.86 L 118.18 217.85 L 120.00 217.84 L 121.82 217.85 L 123.64 217.82 L 125.45 217.66 L 127.27 217.61 L 129.09 217.60 L 130.91 217.57 L 132.73 217.56 L 134.55 217.52 L 136.36 217.38 L 138.18 217.24 L 140.00 216.93 L 141.82 216.65 L 143.64 216.44 L 145.45 216.39 L 147.27 216.34 L 149.09 216.83 L 150.91 200.94 L 152.73 200.94 L 154.55 200.95 L 156.36 198.99 L 158.18 198.98 L 160.00 198.94 L 161.82 198.94 L 163.64 198.91 L 165.45 198.90 L 167.27 198.93 L 169.09 198.93 L 170.91 198.99 L 172.73 198.95 L 174.55 198.96 L 176.36 198.95 L 178.18 198.95 L 180.00 198.97 L 181.82 198.97 L 183.64 198.97 L 185.45 198.97 L 187.27 198.97 L 189.09 198.97 L 190.91 198.97 L 192.73 198.97 L 194.55 198.97 L 196.36 198.97 L 198.18 198.97 L 200.00 197.51 L 201.82 197.43 L 203.64 197.40 L 205.45 197.38 L 207.27 197.38 L 209.09 197.49 L 210.91 197.34 L 212.73 197.33 L 214.55 197.18 L 216.36 197.41 L 218.18 197.41 L 220.00 197.29 L 221.82 197.29 L 223.64 197.22 L 225.45 197.21 L 227.27 197.15 L 229.09 196.94 L 230.91 197.00 L 232.73 197.41 L 234.55 197.41 L 236.36 197.30 L 238.18 197.26 L 240.00 197.19 L 241.82 197.19 L 243.64 197.19 L 245.45 197.19 L 247.27 197.18 L 249.09 197.12 L 250.91 197.09 L 252.73 197.04 L 254.55 197.00 L 256.36 196.96 L 258.18 196.92 L 260.00 196.91 L 261.82 196.86 L 263.64 196.80 L 265.45 196.75 L 267.27 196.69 L 269.09 196.66 L 270.91 196.63 L 272.73 196.56 L 274.55 196.51 L 276.36 196.47 L 278.18 196.45 L 280.00 196.40 L 281.82 196.37 L 283.64 196.34 L 285.45 196.28 L 287.27 196.20 L 289.09 196.12 L 290.91 196.02 L 292.73 195.89 L 294.55 195.77 L 296.36 195.68 L 298.18 195.63 L 300.00 195.58 L 301.82 195.53 L 303.64 195.44 L 305.45 195.35 L 307.27 195.22 L 309.09 195.11 L 310.91 194.95 L 312.73 194.82 L 314.55 194.68 L 316.36 194.57 L 318.18 194.55 L 320.00 194.51 L 321.82 194.48 L 323.64 194.44 L 325.45 194.40 L 327.27 194.37 L 329.09 194.34 L 330.91 194.29 L 332.73 194.25 L 334.55 194.23 L 336.36 194.21 L 338.18 194.19 L 340.00 194.16 L 341.82 194.12 L 343.64 194.07 L 345.45 193.99 L 347.27 193.94 L 349.09 193.87 L 350.91 193.80 L 352.73 193.74 L 354.55 193.72 L 356.36 193.70 L 358.18 193.66 L 360.00 193.62 L 361.82 193.56 L 363.64 193.49 L 365.45 193.43 L 367.27 193.35 L 369.09 193.27 L 370.91 193.20 L 372.73 193.14 L 374.55 193.15 L 376.36 193.15 L 378.18 193.15 L 380.00 193.18 L 381.82 193.09 L 383.64 193.07 L 385.45 193.07 L 387.27 193.08 L 389.09 193.00 L 390.91 192.95 L 392.73 192.95 L 394.55 192.95 L 396.36 192.95 L 398.18 192.80 L 400.00 192.73 L 401.82 192.69 L 403.64 192.67 L 405.45 192.67 L 407.27 192.68 L 409.09 192.64 L 410.91 192.63 L 412.73 192.63 L 414.55 190.39 L 416.36 189.96 L 418.18 189.85 L 420.00 189.53 L 421.82 189.52 L 423.64 189.36 L 425.45 187.79 L 427.27 187.36 L 429.09 181.35 L 430.91 181.35 L 432.73 180.72 L 434.55 180.71 L 436.36 180.26 L 438.18 179.68 L 440.00 179.67 L 441.82 178.77 L 443.64 177.57 L 445.45 175.55 L 447.27 174.52 L 449.09 173.86 L 450.91 174.17 L 452.73 173.10 L 454.55 173.10 L 456.36 171.18 L 458.18 168.37 L 460.00 168.37 L 461.82 165.86 L 463.64 163.63 L 465.45 163.63 L 467.27 163.62 L 469.09 162.88 L 470.91 161.06 L 472.73 193.89 L 474.55 193.22 L 476.36 192.73 L 478.18 192.34 L 480.00 189.45 L 481.82 188.03 L 483.64 188.03 L 485.45 180.86 L 487.27 148.96 L 489.09 144.25 L 490.91 176.00 L 492.73 176.17 L 494.55 175.77 L 496.36 175.72 L 498.18 197.26 L 500.00 197.26 L 501.82 197.06 L 503.64 196.44 L 505.45 194.49 L 507.27 194.50 L 509.09 194.49 L 510.91 194.49 L 512.73 194.49 L 514.55 194.48 L 516.36 194.48 L 518.18 194.62 L 520.00 206.08 L 521.82 206.08 L 523.64 206.05 L 525.45 206.04 L 527.27 205.22 L 529.09 204.28 L 530.91 204.28 L 532.73 204.28 L 534.55 200.22 L 536.36 204.28 L 538.18 204.28 L 540.00 204.28 L 541.82 198.60 L 543.64 198.60 L 545.45 198.60 L 547.27 198.60 L 549.09 193.00 L 550.91 193.00 L 552.73 188.39 L 554.55 188.39 L 556.36 179.75 L 558.18 174.84 L 560.00 173.23 L 561.82 170.37 L 563.64 169.87 L 565.45 153.88 L 567.27 149.24 L 569.09 152.04 L 570.91 141.93 L 572.73 141.88 L 574.55 141.69 L 576.36 141.69 L 578.18 141.76 L 580.00 141.75 L 581.82 140.68 L 583.64 141.38 L 585.45 141.36 L 587.27 141.83 L 589.09 141.39 L 590.91 141.39 L 592.73 141.52 L 594.55 141.52 L 596.36 141.53 L 598.18 142.33 L 600.00 141.73 L 601.82 141.68 L 603.64 141.68 L 605.45 141.66 L 607.27 141.67 L 609.09 141.65 L 610.91 139.51 L 612.73 136.07 L 614.55 136.04 L 616.36 133.43 L 618.18 131.89 L 620.00 131.13 L 621.82 131.51 L 623.64 131.50 L 625.45 131.57 L 627.27 131.56 L 629.09 131.49 L 630.91 131.49 L 632.73 131.49 L 634.55 131.49 L 636.36 131.49 L 638.18 131.49 L 640.00 131.49 L 641.82 131.49 L 643.64 131.49 L 645.45 131.49 L 647.27 131.49 L 649.09 131.49 L 650.91 131.49 L 652.73 131.49 L 654.55 131.49 L 656.36 131.49 L 658.18 131.49 L 660.00 131.49 L 661.82 131.49 L 663.64 131.49 L 665.45 131.49 L 667.27 131.49 L 669.09 131.49 L 670.91 131.49 L 672.73 131.49 L 674.55 131.49 L 676.36 131.49 L 678.18 131.49 L 680.00 131.49 L 681.82 131.49 L 683.64 131.49 L 685.45 131.49 L 687.27 131.49 L 689.09 131.49 L 690.91 131.49 L 692.73 131.49 L 694.55 131.49 L 696.36 131.49 L 698.18 131.49 L 700.00 131.49 L 701.82 131.49 L 703.64 131.49 L 705.45 131.49 L 707.27 131.49 L 709.09 131.49 L 710.91 131.49 L 712.73 131.49 L 714.55 131.49 L 716.36 131.49 L 718.18 131.49 L 720.00 131.49 L 721.82 131.49 L 723.64 131.49 L 725.45 131.49 L 727.27 131.49 L 729.09 131.49 L 730.91 131.49 L 732.73 131.49 L 734.55 131.49 L 736.36 131.49 L 738.18 131.49 L 740.00 131.49 L 741.82 131.49 L 743.64 131.49 L 745.45 131.49 L 747.27 131.49 L 749.09 131.49 L 750.91 131.49 L 752.73 131.49 L 754.55 131.49 L 756.36 131.49 L 758.18 131.49 L 760.00 131.49 L 761.82 131.49 L 763.64 131.49 L 765.45 131.49 L 767.27 131.49 L 769.09 131.49 L 770.91 131.49 L 772.73 131.49 L 774.55 131.49 L 776.36 131.49 L 778.18 131.49 L 780.00 131.49 L 781.82 131.49 L 783.64 131.49 L 785.45 131.49 L 787.27 131.49 L 789.09 131.49 L 790.91 131.49 L 792.73 131.49 L 794.55 131.49 L 796.36 131.49 L 798.18 131.49 L 800.00 131.49 L 801.82 131.49 L 803.64 131.49 L 805.45 131.49 L 807.27 131.49 L 809.09 131.49 L 810.91 131.49 L 812.73 131.49 L 814.55 131.49 L 816.36 131.49 L 818.18 131.49 L 820.00 131.49 L 821.82 131.49 L 823.64 131.49 L 825.45 131.49 L 827.27 131.49 L 829.09 131.49 L 830.91 131.49 L 832.73 131.49 L 834.55 131.49 L 836.36 131.49 L 838.18 131.49 L 840.00 131.49 L 841.82 131.49 L 843.64 131.49 L 845.45 131.49 L 847.27 131.49 L 849.09 131.49 L 850.91 131.49 L 852.73 131.49 L 854.55 131.49 L 856.36 131.49 L 858.18 131.49 L 860.00 131.49" fill="none" stroke="#111827" stroke-width="2"/>
    <circle cx="860.00" cy="131.49" r="3" fill="#111827"/>
    <text x="40.00" y="235.00" font-size="9" fill="#111827" text-anchor="middle" transform="rotate(-45 40.00 235.00)">27.09.2025</text><text x="121.82" y="235.00" font-size="9" fill="#111827" text-anchor="middle" transform="rotate(-45 121.82 235.00)">28.09.2025</text><text x="203.64" y="235.00" font-size="9" fill="#111827" text-anchor="middle" transform="rotate(-45 203.64 235.00)">29.09.2025</text><text x="285.45" y="235.00" font-size="9" fill="#111827" text-anchor="middle" transform="rotate(-45 285.45 235.00)">04.10.2025</text><text x="367.27" y="235.00" font-size="9" fill="#111827" text-anchor="middle" transform="rotate(-45 367.27 235.00)">04.10.2025</text><text x="449.09" y="235.00" font-size="9" fill="#111827" text-anchor="middle" transform="rotate(-45 449.09 235.00)">04.10.2025</text><text x="530.91" y="235.00" font-size="9" fill="#111827" text-anchor="middle" transform="rotate(-45 530.91 235.00)">06.10.2025</text><text x="612.73" y="235.00" font-size="9" fill="#111827" text-anchor="middle" transform="rotate(-45 612.73 235.00)">09.10.2025</text><text x="694.55" y="235.00" font-size="9" fill="#111827" text-anchor="middle" transform="rotate(-45 694.55 235.00)">14.11.2025</text><text x="776.36" y="235.00" font-size="9" fill="#111827" text-anchor="middle" transform="rotate(-45 776.36 235.00)">29.12.2025</text><text x="858.18" y="235.00" font-size="9" fill="#111827" text-anchor="middle" transform="rotate(-45 858.18 235.00)">09.02.2026</text>
  </g>
</svg>