<svg xmlns="http://www.w3.org/2000/svg" width="900" height="290" style="font-family: -apple-system, BlinkMacSystemFont, 'Segoe UI', Helvetica, Arial, sans-serif;">
  <rect width="100%" height="100%" fill="#0d1117"/>
  <g>
    <line x1="40" y1="220.00" x2="860" y2="220.00" stroke="#30363d"/><text x="32" y="224.00" font-size="10" fill="#c9d1d9" text-anchor="end">0</text><line x1="40" y1="175.00" x2="860" y2="175.00" stroke="#30363d"/><text x="32" y="179.00" font-size="10" fill="#c9d1d9" text-anchor="end">25k</text><line x1="40" y1="130.00" x2="860" y2="130.00" stroke="#30363d"/><text x="32" y="134.00" font-size="10" fill="#c9d1d9" text-anchor="end">50k</text><line x1="40" y1="85.00" x2="860" y2="85.00" stroke="#30363d"/><text x="32" y="89.00" font-size="10" fill="#c9d1d9" text-anchor="end">75k</text><line x1="40" y1="40.00" x2="860" y2="40.00" stroke="#30363d"/><text x="32" y="44.00" font-size="10" fill="#c9d1d9" text-anchor="end">100k</text>
    <line x1="40.00" y1="40" x2="40.00" y2="220" stroke="#30363d" opacity="0.5"/><line x1="120.17" y1="40" x2="120.17" y2="220" stroke="#30363d" opacity="0.5"/><line x1="200.34" y1="40" x2="200.34" y2="220" stroke="#30363d" opacity="0.5"/><line x1="280.50" y1="40" x2="280.50" y2="220" stroke="#30363d" opacity="0.5"/><line x1="360.67" y1="40" x2="360.67" y2="220" stroke="#30363d" opacity="0.5"/><line x1="440.84" y1="40" x2="440.84" y2="220" stroke="#30363d" opacity="0.5"/><line x1="521.01" y1="40" x2="521.01" y2="220" stroke="#30363d" opacity="0.5"/><line x1="601.17" y1="40" x2="601.17" y2="220" stroke="#30363d" opacity="0.5"/><line x1="681.34" y1="40" x2="681.34" y2="220" stroke="#30363d" opacity="0.5"/><line x1="761.51" y1="40" x2="761.51" y2="220" stroke="#30363d" opacity="0.5"/><line x1="841.68" y1="40" x2="841.68" y2="220" stroke="#30363d" opacity="0.5"/>
    <line x1="40" y1="220" x2="860" y2="220" stroke="#30363d"/>
    <line x1="40" y1="40"   x2="40"   y2="220" stroke="#30363d"/>
    <path d="M 40.00 220.00 L 42.29 220.00 L 44.58 219.60 L 46.87 219.62 L 49.16 219.63 L 51.45 219.32 L 53.74 219.31 L 56.03 219.26 L 58.32 218.89 L 60.61 218.89 L 62.91 218.89 L 65.20 218.87 L 67.49 218.87 L 69.78 218.86 L 72.07 218.85 L 74.36 218.85 L 76.65 218.82 L 78.94 218.78 L 81.23 218.72 L 83.52 218.68 L 85.81 218.64 L 88.10 218.59 L 90.39 218.59 L 92.68 218.57 L 94.97 218.57 L 97.26 218.57 L 99.55 218.57 L 101.84 218.57 L 104.13 218.57 L 106.42 218.57 L 108.72 218.57 L 111.01 218.57 L 113.30 218.55 L 115.59 218.54 L 117.88 218.58 L 120.17 218.55 L 122.46 218.55 L 124.75 218.53 L 127.04 218.31 L 129.33 217.94 L 131.62 217.88 L 133.91 217.87 L 136.20 217.86 L 138.49 217.85 L 140.78 217.84 L 143.07 217.85 L 145.36 217.82 L 147.65 217.66 L 149.94 217.61 L 152.23 217.60 L 154.53 217.57 L 156.82 217.56 L 159.11 217.52 L 161.40 217.38 L 163.69 217.24 L 165.98 216.93 L 168.27 216.65 L 170.56 216.44 L 172.85 216.39 L 175.14 216.34 L 177.43 216.83 L 179.72 200.94 L 182.01 200.94 L 184.30 200.95 L 186.59 198.99 L 188.88 198.98 L 191.17 198.94 L 193.46 198.94 L 195.75 198.91 L 198.04 198.90 L 200.34 198.93 L 202.63 198.93 L 204.92 198.99 L 207.21 198.95 L 209.50 198.96 L 211.79 198.95 L 214.08 198.95 L 216.37 198.97 L 218.66 198.97 L 220.95 198.97 L 223.24 198.97 L 225.53 198.97 L 227.82 198.97 L 230.11 198.97 L 232.40 198.97 L 234.69 198.97 L 236.98 198.97 L 239.27 198.97 L 241.56 197.51 L 243.85 197.43 L 246.15 197.40 L 248.44 197.38 L 250.73 197.38 L 253.02 197.49 L 255.31 197.34 L 257.60 197.33 L 259.89 197.18 L 262.18 197.41 L 264.47 197.41 L 266.76 197.29 L 269.05 197.29 L 271.34 197.22 L 273.63 197.21 L 275.92 197.15 L 278.21 196.94 L 280.50 197.00 L 282.79 197.41 L 285.08 197.41 L 287.37 197.30 L 289.66 197.26 L 291.96 197.19 L 294.25 197.19 L 296.54 197.19 L 298.83 197.19 L 301.12 197.18 L 303.41 197.12 L 305.70 197.09 L 307.99 197.04 L 310.28 197.00 L 312.57 196.96 L 314.86 196.92 L 317.15 196.91 L 319.44 196.86 L 321.73 196.80 L 324.02 196.75 L 326.31 196.69 L 328.60 196.66 L 330.89 196.63 L 333.18 196.56 L 335.47 196.51 L 337.77 196.47 L 340.06 196.45 L 342.35 196.40 L 344.64 196.37 L 346.93 196.34 L 349.22 196.28 L 351.51 196.20 L 353.80 196.12 L 356.09 196.02 L 358.38 195.89 L 360.67 195.77 L 362.96 195.68 L 365.25 195.63 L 367.54 195.58 L 369.83 195.53 L 372.12 195.44 L 374.41 195.35 L 376.70 195.22 L 378.99 195.11 L 381.28 194.95 L 383.58 194.82 L 385.87 194.68 L 388.16 194.57 L 390.45 194.55 L 392.74 194.51 L 395.03 194.48 L 397.32 194.44 L 399.61 194.40 L 401.90 194.37 L 404.19 194.34 L 406.48 194.29 L 408.77 194.25 L 411.06 194.23 L 413.35 194.21 L 415.64 194.19 L 417.93 194.16 L 420.22 194.12 L 422.51 194.07 L 424.80 193.99 L 427.09 193.94 L 429.39 193.87 L 431.68 193.80 L 433.97 193.74 L 436.26 193.72 L 438.55 193.70 L 440.84 193.66 L 443.13 193.62 L 445.42 193.56 L 447.71 193.49 L 450.00 193.43 L 452.29 193.35 L 454.58 193.27 L 456.87 193.20 L 459.16 193.14 L 461.45 193.15 L 463.74 193.15 L 466.03 193.15 L 468.32 193.18 L 470.61 193.09 L 472.91 193.07 L 475.20 193.07 L 477.49 193.08 L 479.78 193.00 L 482.07 192.95 L 484.36 192.95 L 486.65 192.95 L 488.94 192.95 L 491.23 192.80 L 493.52 192.73 L 495.81 192.69 L 498.10 192.67 L 500.39 192.67 L 502.68 192.68 L 504.97 192.64 L 507.26 192.63 L 509.55 192.63 L 511.84 190.39 L 514.13 189.96 L 516.42 189.85 L 518.72 189.53 L 521.01 189.52 L 523.30 189.36 L 525.59 187.79 L 527.88 187.36 L 530.17 181.35 L 532.46 181.35 L 534.75 180.72 L 537.04 180.71 L 539.33 180.26 L 541.62 179.68 L 543.91 179.67 L 546.20 178.77 L 548.49 177.57 L 550.78 175.55 L 553.07 174.52 L 555.36 173.86 L 557.65 174.17 L 559.94 173.10 L 562.23 173.10 L 564.53 171.18 L 566.82 168.37 L 569.11 168.37 L 571.40 165.86 L 573.69 163.63 L 575.98 163.63 L 578.27 163.62 L 580.56 162.88 L 582.85 161.06 L 585.14 193.89 L 587.43 193.22 L 589.72 192.73 L 592.01 192.34 L 594.30 189.45 L 596.59 188.03 L 598.88 188.03 L 601.17 180.86 L 603.46 148.96 L 605.75 144.25 L 608.04 176.00 L 610.34 176.17 L 612.63 175.77 L 614.92 175.72 L 617.21 197.26 L 619.50 197.26 L 621.79 197.06 L 624.08 196.44 L 626.37 194.49 L 628.66 194.50 L 630.95 194.49 L 633.24 194.49 L 635.53 194.49 L 637.82 194.48 L 640.11 194.48 L 642.40 194.62 L 644.69 206.08 L 646.98 206.08 L 649.27 206.05 L 651.56 206.04 L 653.85 205.22 L 656.15 204.28 L 658.44 204.28 L 660.73 204.28 L 663.02 200.22 L 665.31 204.28 L 667.60 204.28 L 669.89 204.28 L 672.18 198.60 L 674.47 198.60 L 676.76 198.60 L 679.05 198.60 L 681.34 193.00 L 683.63 193.00 L 685.92 188.39 L 688.21 188.39 L 690.50 179.75 L 692.79 174.84 L 695.08 173.23 L 697.37 170.37 L 699.66 169.87 L 701.96 153.88 L 704.25 149.24 L 706.54 152.04 L 708.83 141.93 L 711.12 141.88 L 713.41 141.69 L 715.70 141.69 L 717.99 141.76 L 720.28 141.75 L 722.57 140.68 L 724.86 141.38 L 727.15 141.36 L 729.44 141.83 L 731.73 141.39 L 734.02 141.39 L 736.31 141.52 L 738.60 141.52 L 740.89 141.53 L 743.18 142.33 L 745.47 141.73 L 747.77 141.68 L 750.06 141.68 L 752.35 141.66 L 754.64 141.67 L 756.93 141.65 L 759.22 139.51 L 761.51 136.07 L 763.80 136.04 L 766.09 133.43 L 768.38 131.89 L 770.67 131.13 L 772.96 131.51 L 775.25 131.50 L 777.54 131.57 L 779.83 131.56 L 782.12 131.49 L 784.41 131.49 L 786.70 131.49 L 788.99 131.49 L 791.28 131.49 L 793.58 131.49 L 795.87 131.49 L 798.16 131.49 L 800.45 131.49 L 802.74 131.49 L 805.03 131.49 L 807.32 131.49 L 809.61 131.49 L 811.90 131.49 L 814.19 131.49 L 816.48 131.49 L 818.77 131.49 L 821.06 131.49 L 823.35 131.49 L 825.64 131.49 L 827.93 131.49 L 830.22 131.49 L 832.51 131.49 L 834.80 131.49 L 837.09 131.49 L 839.39 131.49 L 841.68 131.49 L 843.97 131.49 L 846.26 131.49 L 848.55 131.49 L 850.84 131.49 L 853.13 131.49 L 855.42 131.49 L 857.71 131.49 L 860.00 131.49" fill="none" stroke="#3fb950" stroke-width="2"/>
    <circle cx="860.00" cy="131.49" r="3" fill="#3fb950"/>
    <text x="40.00" y="235.00" font-size="9" fill="#c9d1d9" text-anchor="middle" transform="rotate(-45 40.00 235.00)">27.09.2025</text><text x="120.17" y="235.00" font-size="9" fill="#c9d1d9" text-anchor="middle" transform="rotate(-45 120.17 235.00)">28.09.2025</text><text x="200.34" y="235.00" font-size="9" fill="#c9d1d9" text-anchor="middle" transform="rotate(-45 200.34 235.00)">28.09.2025</text><text x="280.50" y="235.00" font-size="9" fill="#c9d1d9" text-anchor="middle" transform="rotate(-45 280.50 235.00)">30.09.2025</text><text x="360.67" y="235.00" font-size="9" fill="#c9d1d9" text-anchor="middle" transform="rotate(-45 360.67 235.00)">04.10.2025</text><text x="440.84" y="235.00" font-size="9" fill="#c9d1d9" text-anchor="middle" transform="rotate(-45 440.84 235.00)">04.10.2025</text><text x="521.01" y="235.00" font-size="9" fill="#c9d1d9" text-anchor="middle" transform="rotate(-45 521.01 235.00)">04.10.2025</text><text x="601.17" y="235.00" font-size="9" fill="#c9d1d9" text-anchor="middle" transform="rotate(-45 601.17 235.00)">05.10.2025</text><text x="681.34" y="235.00" font-size="9" fill="#c9d1d9" text-anchor="middle" transform="rotate(-45 681.34 235.00)">07.10.2025</text><text x="761.51" y="235.00" font-size="9" fill="#c9d1d9" text-anchor="middle" transform="rotate(-45 761.51 235.00)">09.10.2025</text><text x="841.68" y="235.00" font-size="9" fill="#c9d1d9" text-anchor="middle" transform="rotate(-45 841.68 235.00)">04.11.2025</text>
  </g>
</svg>