<svg xmlns="http://www.w3.org/2000/svg" width="900" height="290" style="font-family: -apple-system, BlinkMacSystemFont, 'Segoe UI', Helvetica, Arial, sans-serif;">
  <rect width="100%" height="100%" fill="#0d1117"/>
  <g>
    <line x1="40" y1="220.00" x2="860" y2="220.00" stroke="#30363d"/><text x="32" y="224.00" font-size="10" fill="#c9d1d9" text-anchor="end">0</text><line x1="40" y1="175.00" x2="860" y2="175.00" stroke="#30363d"/><text x="32" y="179.00" font-size="10" fill="#c9d1d9" text-anchor="end">25k</text><line x1="40" y1="130.00" x2="860" y2="130.00" stroke="#30363d"/><text x="32" y="134.00" font-size="10" fill="#c9d1d9" text-anchor="end">50k</text><line x1="40" y1="85.00" x2="860" y2="85.00" stroke="#30363d"/><text x="32" y="89.00" font-size="10" fill="#c9d1d9" text-anchor="end">75k</text><line x1="40" y1="40.00" x2="860" y2="40.00" stroke="#30363d"/><text x="32" y="44.00" font-size="10" fill="#c9d1d9" text-anchor="end">100k</text>
    <line x1="40.00" y1="40" x2="40.00" y2="220" stroke="#30363d" opacity="0.5"/><line x1="121.08" y1="40" x2="121.08" y2="220" stroke="#30363d" opacity="0.5"/><line x1="202.16" y1="40" x2="202.16" y2="220" stroke="#30363d" opacity="0.5"/><line x1="283.24" y1="40" x2="283.24" y2="220" stroke="#30363d" opacity="0.5"/><line x1="364.31" y1="40" x2="364.31" y2="220" stroke="#30363d" opacity="0.5"/><line x1="445.39" y1="40" x2="445.39" y2="220" stroke="#30363d" opacity="0.5"/><line x1="526.47" y1="40" x2="526.47" y2="220" stroke="#30363d" opacity="0.5"/><line x1="607.55" y1="40" x2="607.55" y2="220" stroke="#30363d" opacity="0.5"/><line x1="688.63" y1="40" x2="688.63" y2="220" stroke="#30363d" opacity="0.5"/><line x1="769.71" y1="40" x2="769.71" y2="220" stroke="#30363d" opacity="0.5"/><line x1="850.79" y1="40" x2="850.79" y2="220" stroke="#30363d" opacity="0.5"/>
    <line x1="40" y1="220" x2="860" y2="220" stroke="#30363d"/>
    <line x1="40" y1="40"   x2="40"   y2="220" stroke="#30363d"/>
    <path d="M 40.00 220.00 L 41.84 220.00 L 43.69 219.60 L 45.53 219.62 L 47.37 219.63 L 49.21 219.32 L 51.06 219.31 L 52.90 219.26 L 54.74 218.89 L 56.58 218.89 L 58.43 218.89 L 60.27 218.87 L 62.11 218.87 L 63.96 218.86 L 65.80 218.85 L 67.64 218.85 L 69.48 218.82 L 71.33 218.78 L 73.17 218.72 L 75.01 218.68 L 76.85 218.64 L 78.70 218.59 L 80.54 218.59 L 82.38 218.57 L 84.22 218.57 L 86.07 218.57 L 87.91 218.57 L 89.75 218.57 L 91.60 218.57 L 93.44 218.57 L 95.28 218.57 L 97.12 218.57 L 98.97 218.55 L 100.81 218.54 L 102.65 218.58 L 104.49 218.55 L 106.34 218.55 L 108.18 218.53 L 110.02 218.31 L 111.87 217.94 L 113.71 217.88 L 115.55 217.87 L 117.39 217.86 L 119.24 217.85 L 121.08 217.84 L 122.92 217.85 L 124.76 217.82 L 126.61 217.66 L 128.45 217.61 L 130.29 217.60 L 132.13 217.57 L 133.98 217.56 L 135.82 217.52 L 137.66 217.38 L 139.51 217.24 L 141.35 216.93 L 143.19 216.65 L 145.03 216.44 L 146.88 216.39 L 148.72 216.34 L 150.56 216.83 L 152.40 200.94 L 154.25 200.94 L 156.09 200.95 L 157.93 198.99 L 159.78 198.98 L 161.62 198.94 L 163.46 198.94 L 165.30 198.91 L 167.15 198.90 L 168.99 198.93 L 170.83 198.93 L 172.67 198.99 L 174.52 198.95 L 176.36 198.96 L 178.20 198.95 L 180.04 198.95 L 181.89 198.97 L 183.73 198.97 L 185.57 198.97 L 187.42 198.97 L 189.26 198.97 L 191.10 198.97 L 192.94 198.97 L 194.79 198.97 L 196.63 198.97 L 198.47 198.97 L 200.31 198.97 L 202.16 197.51 L 204.00 197.43 L 205.84 197.40 L 207.69 197.38 L 209.53 197.38 L 211.37 197.49 L 213.21 197.34 L 215.06 197.33 L 216.90 197.18 L 218.74 197.41 L 220.58 197.41 L 222.43 197.29 L 224.27 197.29 L 226.11 197.22 L 227.96 197.21 L 229.80 197.15 L 231.64 196.94 L 233.48 197.00 L 235.33 197.41 L 237.17 197.41 L 239.01 197.30 L 240.85 197.26 L 242.70 197.19 L 244.54 197.19 L 246.38 197.19 L 248.22 197.19 L 250.07 197.18 L 251.91 197.12 L 253.75 197.09 L 255.60 197.04 L 257.44 197.00 L 259.28 196.96 L 261.12 196.92 L 262.97 196.91 L 264.81 196.86 L 266.65 196.80 L 268.49 196.75 L 270.34 196.69 L 272.18 196.66 L 274.02 196.63 L 275.87 196.56 L 277.71 196.51 L 279.55 196.47 L 281.39 196.45 L 283.24 196.40 L 285.08 196.37 L 286.92 196.34 L 288.76 196.28 L 290.61 196.20 L 292.45 196.12 L 294.29 196.02 L 296.13 195.89 L 297.98 195.77 L 299.82 195.68 L 301.66 195.63 L 303.51 195.58 L 305.35 195.53 L 307.19 195.44 L 309.03 195.35 L 310.88 195.22 L 312.72 195.11 L 314.56 194.95 L 316.40 194.82 L 318.25 194.68 L 320.09 194.57 L 321.93 194.55 L 323.78 194.51 L 325.62 194.48 L 327.46 194.44 L 329.30 194.40 L 331.15 194.37 L 332.99 194.34 L 334.83 194.29 L 336.67 194.25 L 338.52 194.23 L 340.36 194.21 L 342.20 194.19 L 344.04 194.16 L 345.89 194.12 L 347.73 194.07 L 349.57 193.99 L 351.42 193.94 L 353.26 193.87 L 355.10 193.80 L 356.94 193.74 L 358.79 193.72 L 360.63 193.70 L 362.47 193.66 L 364.31 193.62 L 366.16 193.56 L 368.00 193.49 L 369.84 193.43 L 371.69 193.35 L 373.53 193.27 L 375.37 193.20 L 377.21 193.14 L 379.06 193.15 L 380.90 193.15 L 382.74 193.15 L 384.58 193.18 L 386.43 193.09 L 388.27 193.07 L 390.11 193.07 L 391.96 193.08 L 393.80 193.00 L 395.64 192.95 L 397.48 192.95 L 399.33 192.95 L 401.17 192.95 L 403.01 192.80 L 404.85 192.73 L 406.70 192.69 L 408.54 192.67 L 410.38 192.67 L 412.22 192.68 L 414.07 192.64 L 415.91 192.63 L 417.75 192.63 L 419.60 190.39 L 421.44 189.96 L 423.28 189.85 L 425.12 189.53 L 426.97 189.52 L 428.81 189.36 L 430.65 187.79 L 432.49 187.36 L 434.34 181.35 L 436.18 181.35 L 438.02 180.72 L 439.87 180.71 L 441.71 180.26 L 443.55 179.68 L 445.39 179.67 L 447.24 178.77 L 449.08 177.57 L 450.92 175.55 L 452.76 174.52 L 454.61 173.86 L 456.45 174.17 L 458.29 173.10 L 460.13 173.10 L 461.98 171.18 L 463.82 168.37 L 465.66 168.37 L 467.51 165.86 L 469.35 163.63 L 471.19 163.63 L 473.03 163.62 L 474.88 162.88 L 476.72 161.06 L 478.56 193.89 L 480.40 193.22 L 482.25 192.73 L 484.09 192.34 L 485.93 189.45 L 487.78 188.03 L 489.62 188.03 L 491.46 180.86 L 493.30 148.96 L 495.15 144.25 L 496.99 176.00 L 498.83 176.17 L 500.67 175.77 L 502.52 175.72 L 504.36 197.26 L 506.20 197.26 L 508.04 197.06 L 509.89 196.44 L 511.73 194.49 L 513.57 194.50 L 515.42 194.49 L 517.26 194.49 L 519.10 194.49 L 520.94 194.48 L 522.79 194.48 L 524.63 194.62 L 526.47 206.08 L 528.31 206.08 L 530.16 206.05 L 532.00 206.04 L 533.84 205.22 L 535.69 204.28 L 537.53 204.28 L 539.37 204.28 L 541.21 200.22 L 543.06 204.28 L 544.90 204.28 L 546.74 204.28 L 548.58 198.60 L 550.43 198.60 L 552.27 198.60 L 554.11 198.60 L 555.96 193.00 L 557.80 193.00 L 559.64 188.39 L 561.48 188.39 L 563.33 179.75 L 565.17 174.84 L 567.01 173.23 L 568.85 170.37 L 570.70 169.87 L 572.54 153.88 L 574.38 149.24 L 576.22 152.04 L 578.07 141.93 L 579.91 141.88 L 581.75 141.69 L 583.60 141.69 L 585.44 141.76 L 587.28 141.75 L 589.12 140.68 L 590.97 141.38 L 592.81 141.36 L 594.65 141.83 L 596.49 141.39 L 598.34 141.39 L 600.18 141.52 L 602.02 141.52 L 603.87 141.53 L 605.71 142.33 L 607.55 141.73 L 609.39 141.68 L 611.24 141.68 L 613.08 141.66 L 614.92 141.67 L 616.76 141.65 L 618.61 139.51 L 620.45 136.07 L 622.29 136.04 L 624.13 133.43 L 625.98 131.89 L 627.82 131.13 L 629.66 131.51 L 631.51 131.50 L 633.35 131.57 L 635.19 131.56 L 637.03 131.49 L 638.88 131.49 L 640.72 131.49 L 642.56 131.49 L 644.40 131.49 L 646.25 131.49 L 648.09 131.49 L 649.93 131.49 L 651.78 131.49 L 653.62 131.49 L 655.46 131.49 L 657.30 131.49 L 659.15 131.49 L 660.99 131.49 L 662.83 131.49 L 664.67 131.49 L 666.52 131.49 L 668.36 131.49 L 670.20 131.49 L 672.04 131.49 L 673.89 131.49 L 675.73 131.49 L 677.57 131.49 L 679.42 131.49 L 681.26 131.49 L 683.10 131.49 L 684.94 131.49 L 686.79 131.49 L 688.63 131.49 L 690.47 131.49 L 692.31 131.49 L 694.16 131.49 L 696.00 131.49 L 697.84 131.49 L 699.69 131.49 L 701.53 131.49 L 703.37 131.49 L 705.21 131.49 L 707.06 131.49 L 708.90 131.49 L 710.74 131.49 L 712.58 131.49 L 714.43 131.49 L 716.27 131.49 L 718.11 131.49 L 719.96 131.49 L 721.80 131.49 L 723.64 131.49 L 725.48 131.49 L 727.33 131.49 L 729.17 131.49 L 731.01 131.49 L 732.85 131.49 L 734.70 131.49 L 736.54 131.49 L 738.38 131.49 L 740.22 131.49 L 742.07 131.49 L 743.91 131.49 L 745.75 131.49 L 747.60 131.49 L 749.44 131.49 L 751.28 131.49 L 753.12 131.49 L 754.97 131.49 L 756.81 131.49 L 758.65 131.49 L 760.49 131.49 L 762.34 131.49 L 764.18 131.49 L 766.02 131.49 L 767.87 131.49 L 769.71 131.49 L 771.55 131.49 L 773.39 131.49 L 775.24 131.49 L 777.08 131.49 L 778.92 131.49 L 780.76 131.49 L 782.61 131.49 L 784.45 131.49 L 786.29 131.49 L 788.13 131.49 L 789.98 131.49 L 791.82 131.49 L 793.66 131.49 L 795.51 131.49 L 797.35 131.49 L 799.19 131.49 L 801.03 131.49 L 802.88 131.49 L 804.72 131.49 L 806.56 131.49 L 808.40 131.49 L 810.25 131.49 L 812.09 131.49 L 813.93 131.49 L 815.78 131.49 L 817.62 131.49 L 819.46 131.49 L 821.30 131.49 L 823.15 131.49 L 824.99 131.49 L 826.83 131.49 L 828.67 131.49 L 830.52 131.49 L 832.36 131.49 L 834.20 131.49 L 836.04 131.49 L 837.89 131.49 L 839.73 131.49 L 841.57 131.49 L 843.42 131.49 L 845.26 131.49 L 847.10 131.49 L 848.94 131.49 L 850.79 131.49 L 852.63 131.49 L 854.47 131.49 L 856.31 131.49 L 858.16 131.49 L 860.00 131.49" fill="none" stroke="#3fb950" stroke-width="2"/>
    <circle cx="860.00" cy="131.49" r="3" fill="#3fb950"/>
    <text x="40.00" y="235.00" font-size="9" fill="#c9d1d9" text-anchor="middle" transform="rotate(-45 40.00 235.00)">27.09.2025</text><text x="121.08" y="235.00" font-size="9" fill="#c9d1d9" text-anchor="middle" transform="rotate(-45 121.08 235.00)">28.09.2025</text><text x="202.16" y="235.00" font-size="9" fill="#c9d1d9" text-anchor="middle" transform="rotate(-45 202.16 235.00)">29.09.2025</text><text x="283.24" y="235.00" font-size="9" fill="#c9d1d9" text-anchor="middle" transform="rotate(-45 283.24 235.00)">04.10.2025</text><text x="364.31" y="235.00" font-size="9" fill="#c9d1d9" text-anchor="middle" transform="rotate(-45 364.31 235.00)">04.10.2025</text><text x="445.39" y="235.00" font-size="9" fill="#c9d1d9" text-anchor="middle" transform="rotate(-45 445.39 235.00)">04.10.2025</text><text x="526.47" y="235.00" font-size="9" fill="#c9d1d9" text-anchor="middle" transform="rotate(-45 526.47 235.00)">05.10.2025</text><text x="607.55" y="235.00" font-size="9" fill="#c9d1d9" text-anchor="middle" transform="rotate(-45 607.55 235.00)">09.10.2025</text><text x="688.63" y="235.00" font-size="9" fill="#c9d1d9" text-anchor="middle" transform="rotate(-45 688.63 235.00)">06.11.2025</text><text x="769.71" y="235.00" font-size="9" fill="#c9d1d9" text-anchor="middle" transform="rotate(-45 769.71 235.00)">20.12.2025</text><text x="850.79" y="235.00" font-size="9" fill="#c9d1d9" text-anchor="middle" transform="rotate(-45 850.79 235.00)">01.02.2026</text>
  </g>
</svg>