<svg xmlns="http://www.w3.org/2000/svg" width="900" height="290" style="font-family: -apple-system, BlinkMacSystemFont, 'Segoe UI', Helvetica, Arial, sans-serif;">
  <rect width="100%" height="100%" fill="#0d1117"/>
  <g>
    <line x1="40" y1="220.00" x2="860" y2="220.00" stroke="#30363d"/><text x="32" y="224.00" font-size="10" fill="#c9d1d9" text-anchor="end">0</text><line x1="40" y1="175.00" x2="860" y2="175.00" stroke="#30363d"/><text x="32" y="179.00" font-size="10" fill="#c9d1d9" text-anchor="end">25k</text><line x1="40" y1="130.00" x2="860" y2="130.00" stroke="#30363d"/><text x="32" y="134.00" font-size="10" fill="#c9d1d9" text-anchor="end">50k</text><line x1="40" y1="85.00" x2="860" y2="85.00" stroke="#30363d"/><text x="32" y="89.00" font-size="10" fill="#c9d1d9" text-anchor="end">75k</text><line x1="40" y1="40.00" x2="860" y2="40.00" stroke="#30363d"/><text x="32" y="44.00" font-size="10" fill="#c9d1d9" text-anchor="end">100k</text>
    <line x1="40.00" y1="40" x2="40.00" y2="220" stroke="#30363d" opacity="0.5"/><line x1="122.00" y1="40" x2="122.00" y2="220" stroke="#30363d" opacity="0.5"/><line x1="204.00" y1="40" x2="204.00" y2="220" stroke="#30363d" opacity="0.5"/><line x1="286.00" y1="40" x2="286.00" y2="220" stroke="#30363d" opacity="0.5"/><line x1="368.00" y1="40" x2="368.00" y2="220" stroke="#30363d" opacity="0.5"/><line x1="450.00" y1="40" x2="450.00" y2="220" stroke="#30363d" opacity="0.5"/><line x1="532.00" y1="40" x2="532.00" y2="220" stroke="#30363d" opacity="0.5"/><line x1="614.00" y1="40" x2="614.00" y2="220" stroke="#30363d" opacity="0.5"/><line x1="696.00" y1="40" x2="696.00" y2="220" stroke="#30363d" opacity="0.5"/><line x1="778.00" y1="40" x2="778.00" y2="220" stroke="#30363d" opacity="0.5"/><line x1="860.00" y1="40" x2="860.00" y2="220" stroke="#30363d" opacity="0.5"/>
    <line x1="40" y1="220" x2="860" y2="220" stroke="#30363d"/>
    <line x1="40" y1="40"   x2="40"   y2="220" stroke="#30363d"/>
    <path d="M 40.00 220.00 L 41.82 220.00 L 43.64 219.60 L 45.47 219.62 L 47.29 219.63 L 49.11 219.32 L 50.93 219.31 L 52.76 219.26 L 54.58 218.89 L 56.40 218.89 L 58.22 218.89 L 60.04 218.87 L 61.87 218.87 L 63.69 218.86 L 65.51 218.85 L 67.33 218.85 L 69.16 218.82 L 70.98 218.78 L 72.80 218.72 L 74.62 218.68 L 76.44 218.64 L 78.27 218.59 L 80.09 218.59 L 81.91 218.57 L 83.73 218.57 L 85.56 218.57 L 87.38 218.57 L 89.20 218.57 L 91.02 218.57 L 92.84 218.57 L 94.67 218.57 L 96.49 218.57 L 98.31 218.55 L 100.13 218.54 L 101.96 218.58 L 103.78 218.55 L 105.60 218.55 L 107.42 218.53 L 109.24 218.31 L 111.07 217.94 L 112.89 217.88 L 114.71 217.87 L 116.53 217.86 L 118.36 217.85 L 120.18 217.84 L 122.00 217.85 L 123.82 217.82 L 125.64 217.66 L 127.47 217.61 L 129.29 217.60 L 131.11 217.57 L 132.93 217.56 L 134.76 217.52 L 136.58 217.38 L 138.40 217.24 L 140.22 216.93 L 142.04 216.65 L 143.87 216.44 L 145.69 216.39 L 147.51 216.34 L 149.33 216.83 L 151.16 200.94 L 152.98 200.94 L 154.80 200.95 L 156.62 198.99 L 158.44 198.98 L 160.27 198.94 L 162.09 198.94 L 163.91 198.91 L 165.73 198.90 L 167.56 198.93 L 169.38 198.93 L 171.20 198.99 L 173.02 198.95 L 174.84 198.96 L 176.67 198.95 L 178.49 198.95 L 180.31 198.97 L 182.13 198.97 L 183.96 198.97 L 185.78 198.97 L 187.60 198.97 L 189.42 198.97 L 191.24 198.97 L 193.07 198.97 L 194.89 198.97 L 196.71 198.97 L 198.53 198.97 L 200.36 197.51 L 202.18 197.43 L 204.00 197.40 L 205.82 197.38 L 207.64 197.38 L 209.47 197.49 L 211.29 197.34 L 213.11 197.33 L 214.93 197.18 L 216.76 197.41 L 218.58 197.41 L 220.40 197.29 L 222.22 197.29 L 224.04 197.22 L 225.87 197.21 L 227.69 197.15 L 229.51 196.94 L 231.33 197.00 L 233.16 197.41 L 234.98 197.41 L 236.80 197.30 L 238.62 197.26 L 240.44 197.19 L 242.27 197.19 L 244.09 197.19 L 245.91 197.19 L 247.73 197.18 L 249.56 197.12 L 251.38 197.09 L 253.20 197.04 L 255.02 197.00 L 256.84 196.96 L 258.67 196.92 L 260.49 196.91 L 262.31 196.86 L 264.13 196.80 L 265.96 196.75 L 267.78 196.69 L 269.60 196.66 L 271.42 196.63 L 273.24 196.56 L 275.07 196.51 L 276.89 196.47 L 278.71 196.45 L 280.53 196.40 L 282.36 196.37 L 284.18 196.34 L 286.00 196.28 L 287.82 196.20 L 289.64 196.12 L 291.47 196.02 L 293.29 195.89 L 295.11 195.77 L 296.93 195.68 L 298.76 195.63 L 300.58 195.58 L 302.40 195.53 L 304.22 195.44 L 306.04 195.35 L 307.87 195.22 L 309.69 195.11 L 311.51 194.95 L 313.33 194.82 L 315.16 194.68 L 316.98 194.57 L 318.80 194.55 L 320.62 194.51 L 322.44 194.48 L 324.27 194.44 L 326.09 194.40 L 327.91 194.37 L 329.73 194.34 L 331.56 194.29 L 333.38 194.25 L 335.20 194.23 L 337.02 194.21 L 338.84 194.19 L 340.67 194.16 L 342.49 194.12 L 344.31 194.07 L 346.13 193.99 L 347.96 193.94 L 349.78 193.87 L 351.60 193.80 L 353.42 193.74 L 355.24 193.72 L 357.07 193.70 L 358.89 193.66 L 360.71 193.62 L 362.53 193.56 L 364.36 193.49 L 366.18 193.43 L 368.00 193.35 L 369.82 193.27 L 371.64 193.20 L 373.47 193.14 L 375.29 193.15 L 377.11 193.15 L 378.93 193.15 L 380.76 193.18 L 382.58 193.09 L 384.40 193.07 L 386.22 193.07 L 388.04 193.08 L 389.87 193.00 L 391.69 192.95 L 393.51 192.95 L 395.33 192.95 L 397.16 192.95 L 398.98 192.80 L 400.80 192.73 L 402.62 192.69 L 404.44 192.67 L 406.27 192.67 L 408.09 192.68 L 409.91 192.64 L 411.73 192.63 L 413.56 192.63 L 415.38 190.39 L 417.20 189.96 L 419.02 189.85 L 420.84 189.53 L 422.67 189.52 L 424.49 189.36 L 426.31 187.79 L 428.13 187.36 L 429.96 181.35 L 431.78 181.35 L 433.60 180.72 L 435.42 180.71 L 437.24 180.26 L 439.07 179.68 L 440.89 179.67 L 442.71 178.77 L 444.53 177.57 L 446.36 175.55 L 448.18 174.52 L 450.00 173.86 L 451.82 174.17 L 453.64 173.10 L 455.47 173.10 L 457.29 171.18 L 459.11 168.37 L 460.93 168.37 L 462.76 165.86 L 464.58 163.63 L 466.40 163.63 L 468.22 163.62 L 470.04 162.88 L 471.87 161.06 L 473.69 193.89 L 475.51 193.22 L 477.33 192.73 L 479.16 192.34 L 480.98 189.45 L 482.80 188.03 L 484.62 188.03 L 486.44 180.86 L 488.27 148.96 L 490.09 144.25 L 491.91 176.00 L 493.73 176.17 L 495.56 175.77 L 497.38 175.72 L 499.20 197.26 L 501.02 197.26 L 502.84 197.06 L 504.67 196.44 L 506.49 194.49 L 508.31 194.50 L 510.13 194.49 L 511.96 194.49 L 513.78 194.49 L 515.60 194.48 L 517.42 194.48 L 519.24 194.62 L 521.07 206.08 L 522.89 206.08 L 524.71 206.05 L 526.53 206.04 L 528.36 205.22 L 530.18 204.28 L 532.00 204.28 L 533.82 204.28 L 535.64 200.22 L 537.47 204.28 L 539.29 204.28 L 541.11 204.28 L 542.93 198.60 L 544.76 198.60 L 546.58 198.60 L 548.40 198.60 L 550.22 193.00 L 552.04 193.00 L 553.87 188.39 L 555.69 188.39 L 557.51 179.75 L 559.33 174.84 L 561.16 173.23 L 562.98 170.37 L 564.80 169.87 L 566.62 153.88 L 568.44 149.24 L 570.27 152.04 L 572.09 141.93 L 573.91 141.88 L 575.73 141.69 L 577.56 141.69 L 579.38 141.76 L 581.20 141.75 L 583.02 140.68 L 584.84 141.38 L 586.67 141.36 L 588.49 141.83 L 590.31 141.39 L 592.13 141.39 L 593.96 141.52 L 595.78 141.52 L 597.60 141.53 L 599.42 142.33 L 601.24 141.73 L 603.07 141.68 L 604.89 141.68 L 606.71 141.66 L 608.53 141.67 L 610.36 141.65 L 612.18 139.51 L 614.00 136.07 L 615.82 136.04 L 617.64 133.43 L 619.47 131.89 L 621.29 131.13 L 623.11 131.51 L 624.93 131.50 L 626.76 131.57 L 628.58 131.56 L 630.40 131.49 L 632.22 131.49 L 634.04 131.49 L 635.87 131.49 L 637.69 131.49 L 639.51 131.49 L 641.33 131.49 L 643.16 131.49 L 644.98 131.49 L 646.80 131.49 L 648.62 131.49 L 650.44 131.49 L 652.27 131.49 L 654.09 131.49 L 655.91 131.49 L 657.73 131.49 L 659.56 131.49 L 661.38 131.49 L 663.20 131.49 L 665.02 131.49 L 666.84 131.49 L 668.67 131.49 L 670.49 131.49 L 672.31 131.49 L 674.13 131.49 L 675.96 131.49 L 677.78 131.49 L 679.60 131.49 L 681.42 131.49 L 683.24 131.49 L 685.07 131.49 L 686.89 131.49 L 688.71 131.49 L 690.53 131.49 L 692.36 131.49 L 694.18 131.49 L 696.00 131.49 L 697.82 131.49 L 699.64 131.49 L 701.47 131.49 L 703.29 131.49 L 705.11 131.49 L 706.93 131.49 L 708.76 131.49 L 710.58 131.49 L 712.40 131.49 L 714.22 131.49 L 716.04 131.49 L 717.87 131.49 L 719.69 131.49 L 721.51 131.49 L 723.33 131.49 L 725.16 131.49 L 726.98 131.49 L 728.80 131.49 L 730.62 131.49 L 732.44 131.49 L 734.27 131.49 L 736.09 131.49 L 737.91 131.49 L 739.73 131.49 L 741.56 131.49 L 743.38 131.49 L 745.20 131.49 L 747.02 131.49 L 748.84 131.49 L 750.67 131.49 L 752.49 131.49 L 754.31 131.49 L 756.13 131.49 L 757.96 131.49 L 759.78 131.49 L 761.60 131.49 L 763.42 131.49 L 765.24 131.49 L 767.07 131.49 L 768.89 131.49 L 770.71 131.49 L 772.53 131.49 L 774.36 131.49 L 776.18 131.49 L 778.00 131.49 L 779.82 131.49 L 781.64 131.49 L 783.47 131.49 L 785.29 131.49 L 787.11 131.49 L 788.93 131.49 L 790.76 131.49 L 792.58 131.49 L 794.40 131.49 L 796.22 131.49 L 798.04 131.49 L 799.87 131.49 L 801.69 131.49 L 803.51 131.49 L 805.33 131.49 L 807.16 131.49 L 808.98 131.49 L 810.80 131.49 L 812.62 131.49 L 814.44 131.49 L 816.27 131.49 L 818.09 131.49 L 819.91 131.49 L 821.73 131.49 L 823.56 131.49 L 825.38 131.49 L 827.20 131.49 L 829.02 131.49 L 830.84 131.49 L 832.67 131.49 L 834.49 131.49 L 836.31 131.49 L 838.13 131.49 L 839.96 131.49 L 841.78 131.49 L 843.60 131.49 L 845.42 131.49 L 847.24 131.49 L 849.07 131.49 L 850.89 131.49 L 852.71 131.49 L 854.53 131.49 L 856.36 131.49 L 858.18 131.49 L 860.00 131.49" fill="none" stroke="#3fb950" stroke-width="2"/>
    <circle cx="860.00" cy="131.49" r="3" fill="#3fb950"/>
    <text x="40.00" y="235.00" font-size="9" fill="#c9d1d9" text-anchor="middle" transform="rotate(-45 40.00 235.00)">27.09.2025</text><text x="122.00" y="235.00" font-size="9" fill="#c9d1d9" text-anchor="middle" transform="rotate(-45 122.00 235.00)">28.09.2025</text><text x="204.00" y="235.00" font-size="9" fill="#c9d1d9" text-anchor="middle" transform="rotate(-45 204.00 235.00)">29.09.2025</text><text x="286.00" y="235.00" font-size="9" fill="#c9d1d9" text-anchor="middle" transform="rotate(-45 286.00 235.00)">04.10.2025</text><text x="368.00" y="235.00" font-size="9" fill="#c9d1d9" text-anchor="middle" transform="rotate(-45 368.00 235.00)">04.10.2025</text><text x="450.00" y="235.00" font-size="9" fill="#c9d1d9" text-anchor="middle" transform="rotate(-45 450.00 235.00)">04.10.2025</text><text x="532.00" y="235.00" font-size="9" fill="#c9d1d9" text-anchor="middle" transform="rotate(-45 532.00 235.00)">06.10.2025</text><text x="614.00" y="235.00" font-size="9" fill="#c9d1d9" text-anchor="middle" transform="rotate(-45 614.00 235.00)">09.10.2025</text><text x="696.00" y="235.00" font-size="9" fill="#c9d1d9" text-anchor="middle" transform="rotate(-45 696.00 235.00)">14.11.2025</text><text x="778.00" y="235.00" font-size="9" fill="#c9d1d9" text-anchor="middle" transform="rotate(-45 778.00 235.00)">29.12.2025</text><text x="860.00" y="235.00" font-size="9" fill="#c9d1d9" text-anchor="middle" transform="rotate(-45 860.00 235.00)">09.02.2026</text>
  </g>
</svg>