<svg xmlns="http://www.w3.org/2000/svg" width="900" height="290" style="font-family: -apple-system, BlinkMacSystemFont, 'Segoe UI', Helvetica, Arial, sans-serif;">
  <rect width="100%" height="100%" fill="white"/>
  <g>
    <line x1="40" y1="220.00" x2="860" y2="220.00" stroke="#e5e7eb"/><text x="32" y="224.00" font-size="10" fill="#111827" text-anchor="end">0</text><line x1="40" y1="175.00" x2="860" y2="175.00" stroke="#e5e7eb"/><text x="32" y="179.00" font-size="10" fill="#111827" text-anchor="end">25k</text><line x1="40" y1="130.00" x2="860" y2="130.00" stroke="#e5e7eb"/><text x="32" y="134.00" font-size="10" fill="#111827" text-anchor="end">50k</text><line x1="40" y1="85.00" x2="860" y2="85.00" stroke="#e5e7eb"/><text x="32" y="89.00" font-size="10" fill="#111827" text-anchor="end">75k</text><line x1="40" y1="40.00" x2="860" y2="40.00" stroke="#e5e7eb"/><text x="32" y="44.00" font-size="10" fill="#111827" text-anchor="end">100k</text>
    <line x1="40.00" y1="40" x2="40.00" y2="220" stroke="#e5e7eb" opacity="0.5"/><line x1="122.00" y1="40" x2="122.00" y2="220" stroke="#e5e7eb" opacity="0.5"/><line x1="204.00" y1="40" x2="204.00" y2="220" stroke="#e5e7eb" opacity="0.5"/><line x1="286.00" y1="40" x2="286.00" y2="220" stroke="#e5e7eb" opacity="0.5"/><line x1="368.00" y1="40" x2="368.00" y2="220" stroke="#e5e7eb" opacity="0.5"/><line x1="450.00" y1="40" x2="450.00" y2="220" stroke="#e5e7eb" opacity="0.5"/><line x1="532.00" y1="40" x2="532.00" y2="220" stroke="#e5e7eb" opacity="0.5"/><line x1="614.00" y1="40" x2="614.00" y2="220" stroke="#e5e7eb" opacity="0.5"/><line x1="696.00" y1="40" x2="696.00" y2="220" stroke="#e5e7eb" opacity="0.5"/><line x1="778.00" y1="40" x2="778.00" y2="220" stroke="#e5e7eb" opacity="0.5"/><line x1="860.00" y1="40" x2="860.00" y2="220" stroke="#e5e7eb" opacity="0.5"/>
    <line x1="40" y1="220" x2="860" y2="220" stroke="#9ca3af"/>
    <line x1="40" y1="40"   x2="40"   y2="220" stroke="#9ca3af"/>
    <path d="M 40.00 220.00 L 42.16 220.00 L 44.32 219.60 L 46.47 219.62 L 48.63 219.63 L 50.79 219.32 L 52.95 219.31 L 55.11 219.26 L 57.26 218.89 L 59.42 218.89 L 61.58 218.89 L 63.74 218.87 L 65.89 218.87 L 68.05 218.86 L 70.21 218.85 L 72.37 218.85 L 74.53 218.82 L 76.68 218.78 L 78.84 218.72 L 81.00 218.68 L 83.16 218.64 L 85.32 218.59 L 87.47 218.59 L 89.63 218.57 L 91.79 218.57 L 93.95 218.57 L 96.11 218.57 L 98.26 218.57 L 100.42 218.57 L 102.58 218.57 L 104.74 218.57 L 106.89 218.57 L 109.05 218.55 L 111.21 218.54 L 113.37 218.58 L 115.53 218.55 L 117.68 218.55 L 119.84 218.53 L 122.00 218.31 L 124.16 217.94 L 126.32 217.88 L 128.47 217.87 L 130.63 217.86 L 132.79 217.85 L 134.95 217.84 L 137.11 217.85 L 139.26 217.82 L 141.42 217.66 L 143.58 217.61 L 145.74 217.60 L 147.89 217.57 L 150.05 217.56 L 152.21 217.52 L 154.37 217.38 L 156.53 217.24 L 158.68 216.93 L 160.84 216.65 L 163.00 216.44 L 165.16 216.39 L 167.32 216.34 L 169.47 216.83 L 171.63 200.94 L 173.79 200.94 L 175.95 200.95 L 178.11 198.99 L 180.26 198.98 L 182.42 198.94 L 184.58 198.94 L 186.74 198.91 L 188.89 198.90 L 191.05 198.93 L 193.21 198.93 L 195.37 198.99 L 197.53 198.95 L 199.68 198.96 L 201.84 198.95 L 204.00 198.95 L 206.16 198.97 L 208.32 198.97 L 210.47 198.97 L 212.63 198.97 L 214.79 198.97 L 216.95 198.97 L 219.11 198.97 L 221.26 198.97 L 223.42 198.97 L 225.58 198.97 L 227.74 198.97 L 229.89 197.51 L 232.05 197.43 L 234.21 197.40 L 236.37 197.38 L 238.53 197.38 L 240.68 197.49 L 242.84 197.34 L 245.00 197.33 L 247.16 197.18 L 249.32 197.41 L 251.47 197.41 L 253.63 197.29 L 255.79 197.29 L 257.95 197.22 L 260.11 197.21 L 262.26 197.15 L 264.42 196.94 L 266.58 197.00 L 268.74 197.41 L 270.89 197.41 L 273.05 197.30 L 275.21 197.26 L 277.37 197.19 L 279.53 197.19 L 281.68 197.19 L 283.84 197.19 L 286.00 197.18 L 288.16 197.12 L 290.32 197.09 L 292.47 197.04 L 294.63 197.00 L 296.79 196.96 L 298.95 196.92 L 301.11 196.91 L 303.26 196.86 L 305.42 196.80 L 307.58 196.75 L 309.74 196.69 L 311.89 196.66 L 314.05 196.63 L 316.21 196.56 L 318.37 196.51 L 320.53 196.47 L 322.68 196.45 L 324.84 196.40 L 327.00 196.37 L 329.16 196.34 L 331.32 196.28 L 333.47 196.20 L 335.63 196.12 L 337.79 196.02 L 339.95 195.89 L 342.11 195.77 L 344.26 195.68 L 346.42 195.63 L 348.58 195.58 L 350.74 195.53 L 352.89 195.44 L 355.05 195.35 L 357.21 195.22 L 359.37 195.11 L 361.53 194.95 L 363.68 194.82 L 365.84 194.68 L 368.00 194.57 L 370.16 194.55 L 372.32 194.51 L 374.47 194.48 L 376.63 194.44 L 378.79 194.40 L 380.95 194.37 L 383.11 194.34 L 385.26 194.29 L 387.42 194.25 L 389.58 194.23 L 391.74 194.21 L 393.89 194.19 L 396.05 194.16 L 398.21 194.12 L 400.37 194.07 L 402.53 193.99 L 404.68 193.94 L 406.84 193.87 L 409.00 193.80 L 411.16 193.74 L 413.32 193.72 L 415.47 193.70 L 417.63 193.66 L 419.79 193.62 L 421.95 193.56 L 424.11 193.49 L 426.26 193.43 L 428.42 193.35 L 430.58 193.27 L 432.74 193.20 L 434.89 193.14 L 437.05 193.15 L 439.21 193.15 L 441.37 193.15 L 443.53 193.18 L 445.68 193.09 L 447.84 193.07 L 450.00 193.07 L 452.16 193.08 L 454.32 193.00 L 456.47 192.95 L 458.63 192.95 L 460.79 192.95 L 462.95 192.95 L 465.11 192.80 L 467.26 192.73 L 469.42 192.69 L 471.58 192.67 L 473.74 192.67 L 475.89 192.68 L 478.05 192.64 L 480.21 192.63 L 482.37 192.63 L 484.53 190.39 L 486.68 189.96 L 488.84 189.85 L 491.00 189.53 L 493.16 189.52 L 495.32 189.36 L 497.47 187.79 L 499.63 187.36 L 501.79 181.35 L 503.95 181.35 L 506.11 180.72 L 508.26 180.71 L 510.42 180.26 L 512.58 179.68 L 514.74 179.67 L 516.89 178.77 L 519.05 177.57 L 521.21 175.55 L 523.37 174.52 L 525.53 173.86 L 527.68 174.17 L 529.84 173.10 L 532.00 173.10 L 534.16 171.18 L 536.32 168.37 L 538.47 168.37 L 540.63 165.86 L 542.79 163.63 L 544.95 163.63 L 547.11 163.62 L 549.26 162.88 L 551.42 161.06 L 553.58 193.89 L 555.74 193.22 L 557.89 192.73 L 560.05 192.34 L 562.21 189.45 L 564.37 188.03 L 566.53 188.03 L 568.68 180.86 L 570.84 148.96 L 573.00 144.25 L 575.16 176.00 L 577.32 176.17 L 579.47 175.77 L 581.63 175.72 L 583.79 197.26 L 585.95 197.26 L 588.11 197.06 L 590.26 196.44 L 592.42 194.49 L 594.58 194.50 L 596.74 194.49 L 598.89 194.49 L 601.05 194.49 L 603.21 194.48 L 605.37 194.48 L 607.53 194.62 L 609.68 206.08 L 611.84 206.08 L 614.00 206.05 L 616.16 206.04 L 618.32 205.22 L 620.47 204.28 L 622.63 204.28 L 624.79 204.28 L 626.95 200.22 L 629.11 204.28 L 631.26 204.28 L 633.42 204.28 L 635.58 198.60 L 637.74 198.60 L 639.89 198.60 L 642.05 198.60 L 644.21 193.00 L 646.37 193.00 L 648.53 188.39 L 650.68 188.39 L 652.84 179.75 L 655.00 174.84 L 657.16 173.23 L 659.32 170.37 L 661.47 169.87 L 663.63 153.88 L 665.79 149.24 L 667.95 152.04 L 670.11 141.93 L 672.26 141.88 L 674.42 141.69 L 676.58 141.69 L 678.74 141.76 L 680.89 141.75 L 683.05 140.68 L 685.21 141.38 L 687.37 141.36 L 689.53 141.83 L 691.68 141.39 L 693.84 141.39 L 696.00 141.52 L 698.16 141.52 L 700.32 141.53 L 702.47 142.33 L 704.63 141.73 L 706.79 141.68 L 708.95 141.68 L 711.11 141.66 L 713.26 141.67 L 715.42 141.65 L 717.58 139.51 L 719.74 136.07 L 721.89 136.04 L 724.05 133.43 L 726.21 131.89 L 728.37 131.13 L 730.53 131.51 L 732.68 131.50 L 734.84 131.57 L 737.00 131.56 L 739.16 131.49 L 741.32 131.49 L 743.47 131.49 L 745.63 131.49 L 747.79 131.49 L 749.95 131.49 L 752.11 131.49 L 754.26 131.49 L 756.42 131.49 L 758.58 131.49 L 760.74 131.49 L 762.89 131.49 L 765.05 131.49 L 767.21 131.49 L 769.37 131.49 L 771.53 131.49 L 773.68 131.49 L 775.84 131.49 L 778.00 131.49 L 780.16 131.49 L 782.32 131.49 L 784.47 131.49 L 786.63 131.49 L 788.79 131.49 L 790.95 131.49 L 793.11 131.49 L 795.26 131.49 L 797.42 131.49 L 799.58 131.49 L 801.74 131.49 L 803.89 131.49 L 806.05 131.49 L 808.21 131.49 L 810.37 131.49 L 812.53 131.49 L 814.68 131.49 L 816.84 131.49 L 819.00 131.49 L 821.16 131.49 L 823.32 131.49 L 825.47 131.49 L 827.63 131.49 L 829.79 131.49 L 831.95 131.49 L 834.11 131.49 L 836.26 131.49 L 838.42 131.49 L 840.58 131.49 L 842.74 131.49 L 844.89 131.49 L 847.05 131.49 L 849.21 131.49 L 851.37 131.49 L 853.53 131.49 L 855.68 131.49 L 857.84 131.49 L 860.00 131.49" fill="none" stroke="#111827" stroke-width="2"/>
    <circle cx="860.00" cy="131.49" r="3" fill="#111827"/>
    <text x="40.00" y="235.00" font-size="9" fill="#111827" text-anchor="middle" transform="rotate(-45 40.00 235.00)">27.09.2025</text><text x="122.00" y="235.00" font-size="9" fill="#111827" text-anchor="middle" transform="rotate(-45 122.00 235.00)">28.09.2025</text><text x="204.00" y="235.00" font-size="9" fill="#111827" text-anchor="middle" transform="rotate(-45 204.00 235.00)">29.09.2025</text><text x="286.00" y="235.00" font-size="9" fill="#111827" text-anchor="middle" transform="rotate(-45 286.00 235.00)">04.10.2025</text><text x="368.00" y="235.00" font-size="9" fill="#111827" text-anchor="middle" transform="rotate(-45 368.00 235.00)">04.10.2025</text><text x="450.00" y="235.00" font-size="9" fill="#111827" text-anchor="middle" transform="rotate(-45 450.00 235.00)">04.10.2025</text><text x="532.00" y="235.00" font-size="9" fill="#111827" text-anchor="middle" transform="rotate(-45 532.00 235.00)">04.10.2025</text><text x="614.00" y="235.00" font-size="9" fill="#111827" text-anchor="middle" transform="rotate(-45 614.00 235.00)">05.10.2025</text><text x="696.00" y="235.00" font-size="9" fill="#111827" text-anchor="middle" transform="rotate(-45 696.00 235.00)">09.10.2025</text><text x="778.00" y="235.00" font-size="9" fill="#111827" text-anchor="middle" transform="rotate(-45 778.00 235.00)">27.10.2025</text><text x="860.00" y="235.00" font-size="9" fill="#111827" text-anchor="middle" transform="rotate(-45 860.00 235.00)">04.12.2025</text>
  </g>
</svg>