<svg xmlns="http://www.w3.org/2000/svg" width="900" height="290" style="font-family: -apple-system, BlinkMacSystemFont, 'Segoe UI', Helvetica, Arial, sans-serif;">
  <rect width="100%" height="100%" fill="#0d1117"/>
  <g>
    <line x1="40" y1="220.00" x2="860" y2="220.00" stroke="#30363d"/><text x="32" y="224.00" font-size="10" fill="#c9d1d9" text-anchor="end">0</text><line x1="40" y1="175.00" x2="860" y2="175.00" stroke="#30363d"/><text x="32" y="179.00" font-size="10" fill="#c9d1d9" text-anchor="end">25k</text><line x1="40" y1="130.00" x2="860" y2="130.00" stroke="#30363d"/><text x="32" y="134.00" font-size="10" fill="#c9d1d9" text-anchor="end">50k</text><line x1="40" y1="85.00" x2="860" y2="85.00" stroke="#30363d"/><text x="32" y="89.00" font-size="10" fill="#c9d1d9" text-anchor="end">75k</text><line x1="40" y1="40.00" x2="860" y2="40.00" stroke="#30363d"/><text x="32" y="44.00" font-size="10" fill="#c9d1d9" text-anchor="end">100k</text>
    <line x1="40.00" y1="40" x2="40.00" y2="220" stroke="#30363d" opacity="0.5"/><line x1="120.54" y1="40" x2="120.54" y2="220" stroke="#30363d" opacity="0.5"/><line x1="201.07" y1="40" x2="201.07" y2="220" stroke="#30363d" opacity="0.5"/><line x1="281.61" y1="40" x2="281.61" y2="220" stroke="#30363d" opacity="0.5"/><line x1="362.14" y1="40" x2="362.14" y2="220" stroke="#30363d" opacity="0.5"/><line x1="442.68" y1="40" x2="442.68" y2="220" stroke="#30363d" opacity="0.5"/><line x1="523.21" y1="40" x2="523.21" y2="220" stroke="#30363d" opacity="0.5"/><line x1="603.75" y1="40" x2="603.75" y2="220" stroke="#30363d" opacity="0.5"/><line x1="684.29" y1="40" x2="684.29" y2="220" stroke="#30363d" opacity="0.5"/><line x1="764.82" y1="40" x2="764.82" y2="220" stroke="#30363d" opacity="0.5"/><line x1="845.36" y1="40" x2="845.36" y2="220" stroke="#30363d" opacity="0.5"/>
    <line x1="40" y1="220" x2="860" y2="220" stroke="#30363d"/>
    <line x1="40" y1="40"   x2="40"   y2="220" stroke="#30363d"/>
    <path d="M 40.00 220.00 L 41.83 220.00 L 43.66 219.60 L 45.49 219.62 L 47.32 219.63 L 49.15 219.32 L 50.98 219.31 L 52.81 219.26 L 54.64 218.89 L 56.47 218.89 L 58.30 218.89 L 60.13 218.87 L 61.96 218.87 L 63.79 218.86 L 65.62 218.85 L 67.46 218.85 L 69.29 218.82 L 71.12 218.78 L 72.95 218.72 L 74.78 218.68 L 76.61 218.64 L 78.44 218.59 L 80.27 218.59 L 82.10 218.57 L 83.93 218.57 L 85.76 218.57 L 87.59 218.57 L 89.42 218.57 L 91.25 218.57 L 93.08 218.57 L 94.91 218.57 L 96.74 218.57 L 98.57 218.55 L 100.40 218.54 L 102.23 218.58 L 104.06 218.55 L 105.89 218.55 L 107.72 218.53 L 109.55 218.31 L 111.38 217.94 L 113.21 217.88 L 115.04 217.87 L 116.88 217.86 L 118.71 217.85 L 120.54 217.84 L 122.37 217.85 L 124.20 217.82 L 126.03 217.66 L 127.86 217.61 L 129.69 217.60 L 131.52 217.57 L 133.35 217.56 L 135.18 217.52 L 137.01 217.38 L 138.84 217.24 L 140.67 216.93 L 142.50 216.65 L 144.33 216.44 L 146.16 216.39 L 147.99 216.34 L 149.82 216.83 L 151.65 200.94 L 153.48 200.94 L 155.31 200.95 L 157.14 198.99 L 158.97 198.98 L 160.80 198.94 L 162.63 198.94 L 164.46 198.91 L 166.29 198.90 L 168.12 198.93 L 169.96 198.93 L 171.79 198.99 L 173.62 198.95 L 175.45 198.96 L 177.28 198.95 L 179.11 198.95 L 180.94 198.97 L 182.77 198.97 L 184.60 198.97 L 186.43 198.97 L 188.26 198.97 L 190.09 198.97 L 191.92 198.97 L 193.75 198.97 L 195.58 198.97 L 197.41 198.97 L 199.24 198.97 L 201.07 197.51 L 202.90 197.43 L 204.73 197.40 L 206.56 197.38 L 208.39 197.38 L 210.22 197.49 L 212.05 197.34 L 213.88 197.33 L 215.71 197.18 L 217.54 197.41 L 219.38 197.41 L 221.21 197.29 L 223.04 197.29 L 224.87 197.22 L 226.70 197.21 L 228.53 197.15 L 230.36 196.94 L 232.19 197.00 L 234.02 197.41 L 235.85 197.41 L 237.68 197.30 L 239.51 197.26 L 241.34 197.19 L 243.17 197.19 L 245.00 197.19 L 246.83 197.19 L 248.66 197.18 L 250.49 197.12 L 252.32 197.09 L 254.15 197.04 L 255.98 197.00 L 257.81 196.96 L 259.64 196.92 L 261.47 196.91 L 263.30 196.86 L 265.13 196.80 L 266.96 196.75 L 268.79 196.69 L 270.62 196.66 L 272.46 196.63 L 274.29 196.56 L 276.12 196.51 L 277.95 196.47 L 279.78 196.45 L 281.61 196.40 L 283.44 196.37 L 285.27 196.34 L 287.10 196.28 L 288.93 196.20 L 290.76 196.12 L 292.59 196.02 L 294.42 195.89 L 296.25 195.77 L 298.08 195.68 L 299.91 195.63 L 301.74 195.58 L 303.57 195.53 L 305.40 195.44 L 307.23 195.35 L 309.06 195.22 L 310.89 195.11 L 312.72 194.95 L 314.55 194.82 L 316.38 194.68 L 318.21 194.57 L 320.04 194.55 L 321.88 194.51 L 323.71 194.48 L 325.54 194.44 L 327.37 194.40 L 329.20 194.37 L 331.03 194.34 L 332.86 194.29 L 334.69 194.25 L 336.52 194.23 L 338.35 194.21 L 340.18 194.19 L 342.01 194.16 L 343.84 194.12 L 345.67 194.07 L 347.50 193.99 L 349.33 193.94 L 351.16 193.87 L 352.99 193.80 L 354.82 193.74 L 356.65 193.72 L 358.48 193.70 L 360.31 193.66 L 362.14 193.62 L 363.97 193.56 L 365.80 193.49 L 367.63 193.43 L 369.46 193.35 L 371.29 193.27 L 373.12 193.20 L 374.96 193.14 L 376.79 193.15 L 378.62 193.15 L 380.45 193.15 L 382.28 193.18 L 384.11 193.09 L 385.94 193.07 L 387.77 193.07 L 389.60 193.08 L 391.43 193.00 L 393.26 192.95 L 395.09 192.95 L 396.92 192.95 L 398.75 192.95 L 400.58 192.80 L 402.41 192.73 L 404.24 192.69 L 406.07 192.67 L 407.90 192.67 L 409.73 192.68 L 411.56 192.64 L 413.39 192.63 L 415.22 192.63 L 417.05 190.39 L 418.88 189.96 L 420.71 189.85 L 422.54 189.53 L 424.38 189.52 L 426.21 189.36 L 428.04 187.79 L 429.87 187.36 L 431.70 181.35 L 433.53 181.35 L 435.36 180.72 L 437.19 180.71 L 439.02 180.26 L 440.85 179.68 L 442.68 179.67 L 444.51 178.77 L 446.34 177.57 L 448.17 175.55 L 450.00 174.52 L 451.83 173.86 L 453.66 174.17 L 455.49 173.10 L 457.32 173.10 L 459.15 171.18 L 460.98 168.37 L 462.81 168.37 L 464.64 165.86 L 466.47 163.63 L 468.30 163.63 L 470.13 163.62 L 471.96 162.88 L 473.79 161.06 L 475.62 193.89 L 477.46 193.22 L 479.29 192.73 L 481.12 192.34 L 482.95 189.45 L 484.78 188.03 L 486.61 188.03 L 488.44 180.86 L 490.27 148.96 L 492.10 144.25 L 493.93 176.00 L 495.76 176.17 L 497.59 175.77 L 499.42 175.72 L 501.25 197.26 L 503.08 197.26 L 504.91 197.06 L 506.74 196.44 L 508.57 194.49 L 510.40 194.50 L 512.23 194.49 L 514.06 194.49 L 515.89 194.49 L 517.72 194.48 L 519.55 194.48 L 521.38 194.62 L 523.21 206.08 L 525.04 206.08 L 526.88 206.05 L 528.71 206.04 L 530.54 205.22 L 532.37 204.28 L 534.20 204.28 L 536.03 204.28 L 537.86 200.22 L 539.69 204.28 L 541.52 204.28 L 543.35 204.28 L 545.18 198.60 L 547.01 198.60 L 548.84 198.60 L 550.67 198.60 L 552.50 193.00 L 554.33 193.00 L 556.16 188.39 L 557.99 188.39 L 559.82 179.75 L 561.65 174.84 L 563.48 173.23 L 565.31 170.37 L 567.14 169.87 L 568.97 153.88 L 570.80 149.24 L 572.63 152.04 L 574.46 141.93 L 576.29 141.88 L 578.12 141.69 L 579.96 141.69 L 581.79 141.76 L 583.62 141.75 L 585.45 140.68 L 587.28 141.38 L 589.11 141.36 L 590.94 141.83 L 592.77 141.39 L 594.60 141.39 L 596.43 141.52 L 598.26 141.52 L 600.09 141.53 L 601.92 142.33 L 603.75 141.73 L 605.58 141.68 L 607.41 141.68 L 609.24 141.66 L 611.07 141.67 L 612.90 141.65 L 614.73 139.51 L 616.56 136.07 L 618.39 136.04 L 620.22 133.43 L 622.05 131.89 L 623.88 131.13 L 625.71 131.51 L 627.54 131.50 L 629.38 131.57 L 631.21 131.56 L 633.04 131.49 L 634.87 131.49 L 636.70 131.49 L 638.53 131.49 L 640.36 131.49 L 642.19 131.49 L 644.02 131.49 L 645.85 131.49 L 647.68 131.49 L 649.51 131.49 L 651.34 131.49 L 653.17 131.49 L 655.00 131.49 L 656.83 131.49 L 658.66 131.49 L 660.49 131.49 L 662.32 131.49 L 664.15 131.49 L 665.98 131.49 L 667.81 131.49 L 669.64 131.49 L 671.47 131.49 L 673.30 131.49 L 675.13 131.49 L 676.96 131.49 L 678.79 131.49 L 680.62 131.49 L 682.46 131.49 L 684.29 131.49 L 686.12 131.49 L 687.95 131.49 L 689.78 131.49 L 691.61 131.49 L 693.44 131.49 L 695.27 131.49 L 697.10 131.49 L 698.93 131.49 L 700.76 131.49 L 702.59 131.49 L 704.42 131.49 L 706.25 131.49 L 708.08 131.49 L 709.91 131.49 L 711.74 131.49 L 713.57 131.49 L 715.40 131.49 L 717.23 131.49 L 719.06 131.49 L 720.89 131.49 L 722.72 131.49 L 724.55 131.49 L 726.38 131.49 L 728.21 131.49 L 730.04 131.49 L 731.88 131.49 L 733.71 131.49 L 735.54 131.49 L 737.37 131.49 L 739.20 131.49 L 741.03 131.49 L 742.86 131.49 L 744.69 131.49 L 746.52 131.49 L 748.35 131.49 L 750.18 131.49 L 752.01 131.49 L 753.84 131.49 L 755.67 131.49 L 757.50 131.49 L 759.33 131.49 L 761.16 131.49 L 762.99 131.49 L 764.82 131.49 L 766.65 131.49 L 768.48 131.49 L 770.31 131.49 L 772.14 131.49 L 773.97 131.49 L 775.80 131.49 L 777.63 131.49 L 779.46 131.49 L 781.29 131.49 L 783.12 131.49 L 784.96 131.49 L 786.79 131.49 L 788.62 131.49 L 790.45 131.49 L 792.28 131.49 L 794.11 131.49 L 795.94 131.49 L 797.77 131.49 L 799.60 131.49 L 801.43 131.49 L 803.26 131.49 L 805.09 131.49 L 806.92 131.49 L 808.75 131.49 L 810.58 131.49 L 812.41 131.49 L 814.24 131.49 L 816.07 131.49 L 817.90 131.49 L 819.73 131.49 L 821.56 131.49 L 823.39 131.49 L 825.22 131.49 L 827.05 131.49 L 828.88 131.49 L 830.71 131.49 L 832.54 131.49 L 834.38 131.49 L 836.21 131.49 L 838.04 131.49 L 839.87 131.49 L 841.70 131.49 L 843.53 131.49 L 845.36 131.49 L 847.19 131.49 L 849.02 131.49 L 850.85 131.49 L 852.68 131.49 L 854.51 131.49 L 856.34 131.49 L 858.17 131.49 L 860.00 131.49" fill="none" stroke="#3fb950" stroke-width="2"/>
    <circle cx="860.00" cy="131.49" r="3" fill="#3fb950"/>
    <text x="40.00" y="235.00" font-size="9" fill="#c9d1d9" text-anchor="middle" transform="rotate(-45 40.00 235.00)">27.09.2025</text><text x="120.54" y="235.00" font-size="9" fill="#c9d1d9" text-anchor="middle" transform="rotate(-45 120.54 235.00)">28.09.2025</text><text x="201.07" y="235.00" font-size="9" fill="#c9d1d9" text-anchor="middle" transform="rotate(-45 201.07 235.00)">29.09.2025</text><text x="281.61" y="235.00" font-size="9" fill="#c9d1d9" text-anchor="middle" transform="rotate(-45 281.61 235.00)">04.10.2025</text><text x="362.14" y="235.00" font-size="9" fill="#c9d1d9" text-anchor="middle" transform="rotate(-45 362.14 235.00)">04.10.2025</text><text x="442.68" y="235.00" font-size="9" fill="#c9d1d9" text-anchor="middle" transform="rotate(-45 442.68 235.00)">04.10.2025</text><text x="523.21" y="235.00" font-size="9" fill="#c9d1d9" text-anchor="middle" transform="rotate(-45 523.21 235.00)">05.10.2025</text><text x="603.75" y="235.00" font-size="9" fill="#c9d1d9" text-anchor="middle" transform="rotate(-45 603.75 235.00)">09.10.2025</text><text x="684.29" y="235.00" font-size="9" fill="#c9d1d9" text-anchor="middle" transform="rotate(-45 684.29 235.00)">06.11.2025</text><text x="764.82" y="235.00" font-size="9" fill="#c9d1d9" text-anchor="middle" transform="rotate(-45 764.82 235.00)">20.12.2025</text><text x="845.36" y="235.00" font-size="9" fill="#c9d1d9" text-anchor="middle" transform="rotate(-45 845.36 235.00)">01.02.2026</text>
  </g>
</svg>