<svg xmlns="http://www.w3.org/2000/svg" width="900" height="290" style="font-family: -apple-system, BlinkMacSystemFont, 'Segoe UI', Helvetica, Arial, sans-serif;">
  <rect width="100%" height="100%" fill="#0d1117"/>
  <g>
    <line x1="40" y1="220.00" x2="860" y2="220.00" stroke="#30363d"/><text x="32" y="224.00" font-size="10" fill="#c9d1d9" text-anchor="end">0</text><line x1="40" y1="175.00" x2="860" y2="175.00" stroke="#30363d"/><text x="32" y="179.00" font-size="10" fill="#c9d1d9" text-anchor="end">25k</text><line x1="40" y1="130.00" x2="860" y2="130.00" stroke="#30363d"/><text x="32" y="134.00" font-size="10" fill="#c9d1d9" text-anchor="end">50k</text><line x1="40" y1="85.00" x2="860" y2="85.00" stroke="#30363d"/><text x="32" y="89.00" font-size="10" fill="#c9d1d9" text-anchor="end">75k</text><line x1="40" y1="40.00" x2="860" y2="40.00" stroke="#30363d"/><text x="32" y="44.00" font-size="10" fill="#c9d1d9" text-anchor="end">100k</text>
    <line x1="40.00" y1="40" x2="40.00" y2="220" stroke="#30363d" opacity="0.5"/><line x1="122.23" y1="40" x2="122.23" y2="220" stroke="#30363d" opacity="0.5"/><line x1="204.47" y1="40" x2="204.47" y2="220" stroke="#30363d" opacity="0.5"/><line x1="286.70" y1="40" x2="286.70" y2="220" stroke="#30363d" opacity="0.5"/><line x1="368.94" y1="40" x2="368.94" y2="220" stroke="#30363d" opacity="0.5"/><line x1="451.17" y1="40" x2="451.17" y2="220" stroke="#30363d" opacity="0.5"/><line x1="533.41" y1="40" x2="533.41" y2="220" stroke="#30363d" opacity="0.5"/><line x1="615.64" y1="40" x2="615.64" y2="220" stroke="#30363d" opacity="0.5"/><line x1="697.88" y1="40" x2="697.88" y2="220" stroke="#30363d" opacity="0.5"/><line x1="780.11" y1="40" x2="780.11" y2="220" stroke="#30363d" opacity="0.5"/>
    <line x1="40" y1="220" x2="860" y2="220" stroke="#30363d"/>
    <line x1="40" y1="40"   x2="40"   y2="220" stroke="#30363d"/>
    <path d="M 40.00 220.00 L 42.35 220.00 L 44.70 219.60 L 47.05 219.62 L 49.40 219.63 L 51.75 219.32 L 54.10 219.31 L 56.45 219.26 L 58.80 218.89 L 61.15 218.89 L 63.50 218.89 L 65.85 218.87 L 68.19 218.87 L 70.54 218.86 L 72.89 218.85 L 75.24 218.85 L 77.59 218.82 L 79.94 218.78 L 82.29 218.72 L 84.64 218.68 L 86.99 218.64 L 89.34 218.59 L 91.69 218.59 L 94.04 218.57 L 96.39 218.57 L 98.74 218.57 L 101.09 218.57 L 103.44 218.57 L 105.79 218.57 L 108.14 218.57 L 110.49 218.57 L 112.84 218.57 L 115.19 218.55 L 117.54 218.54 L 119.89 218.58 L 122.23 218.55 L 124.58 218.55 L 126.93 218.53 L 129.28 218.31 L 131.63 217.94 L 133.98 217.88 L 136.33 217.87 L 138.68 217.86 L 141.03 217.85 L 143.38 217.84 L 145.73 217.85 L 148.08 217.82 L 150.43 217.66 L 152.78 217.61 L 155.13 217.60 L 157.48 217.57 L 159.83 217.56 L 162.18 217.52 L 164.53 217.38 L 166.88 217.24 L 169.23 216.93 L 171.58 216.65 L 173.93 216.44 L 176.28 216.39 L 178.62 216.34 L 180.97 216.83 L 183.32 200.94 L 185.67 200.94 L 188.02 200.95 L 190.37 198.99 L 192.72 198.98 L 195.07 198.94 L 197.42 198.94 L 199.77 198.91 L 202.12 198.90 L 204.47 198.93 L 206.82 198.93 L 209.17 198.99 L 211.52 198.95 L 213.87 198.96 L 216.22 198.95 L 218.57 198.95 L 220.92 198.97 L 223.27 198.97 L 225.62 198.97 L 227.97 198.97 L 230.32 198.97 L 232.66 198.97 L 235.01 198.97 L 237.36 198.97 L 239.71 198.97 L 242.06 198.97 L 244.41 198.97 L 246.76 197.51 L 249.11 197.43 L 251.46 197.40 L 253.81 197.38 L 256.16 197.38 L 258.51 197.49 L 260.86 197.34 L 263.21 197.33 L 265.56 197.18 L 267.91 197.41 L 270.26 197.41 L 272.61 197.29 L 274.96 197.29 L 277.31 197.22 L 279.66 197.21 L 282.01 197.15 L 284.36 196.94 L 286.70 197.00 L 289.05 197.41 L 291.40 197.41 L 293.75 197.30 L 296.10 197.26 L 298.45 197.19 L 300.80 197.19 L 303.15 197.19 L 305.50 197.19 L 307.85 197.18 L 310.20 197.12 L 312.55 197.09 L 314.90 197.04 L 317.25 197.00 L 319.60 196.96 L 321.95 196.92 L 324.30 196.91 L 326.65 196.86 L 329.00 196.80 L 331.35 196.75 L 333.70 196.69 L 336.05 196.66 L 338.40 196.63 L 340.74 196.56 L 343.09 196.51 L 345.44 196.47 L 347.79 196.45 L 350.14 196.40 L 352.49 196.37 L 354.84 196.34 L 357.19 196.28 L 359.54 196.20 L 361.89 196.12 L 364.24 196.02 L 366.59 195.89 L 368.94 195.77 L 371.29 195.68 L 373.64 195.63 L 375.99 195.58 L 378.34 195.53 L 380.69 195.44 L 383.04 195.35 L 385.39 195.22 L 387.74 195.11 L 390.09 194.95 L 392.44 194.82 L 394.79 194.68 L 397.13 194.57 L 399.48 194.55 L 401.83 194.51 L 404.18 194.48 L 406.53 194.44 L 408.88 194.40 L 411.23 194.37 L 413.58 194.34 L 415.93 194.29 L 418.28 194.25 L 420.63 194.23 L 422.98 194.21 L 425.33 194.19 L 427.68 194.16 L 430.03 194.12 L 432.38 194.07 L 434.73 193.99 L 437.08 193.94 L 439.43 193.87 L 441.78 193.80 L 444.13 193.74 L 446.48 193.72 L 448.83 193.70 L 451.17 193.66 L 453.52 193.62 L 455.87 193.56 L 458.22 193.49 L 460.57 193.43 L 462.92 193.35 L 465.27 193.27 L 467.62 193.20 L 469.97 193.14 L 472.32 193.15 L 474.67 193.15 L 477.02 193.15 L 479.37 193.18 L 481.72 193.09 L 484.07 193.07 L 486.42 193.07 L 488.77 193.08 L 491.12 193.00 L 493.47 192.95 L 495.82 192.95 L 498.17 192.95 L 500.52 192.95 L 502.87 192.80 L 505.21 192.73 L 507.56 192.69 L 509.91 192.67 L 512.26 192.67 L 514.61 192.68 L 516.96 192.64 L 519.31 192.63 L 521.66 192.63 L 524.01 190.39 L 526.36 189.96 L 528.71 189.85 L 531.06 189.53 L 533.41 189.52 L 535.76 189.36 L 538.11 187.79 L 540.46 187.36 L 542.81 181.35 L 545.16 181.35 L 547.51 180.72 L 549.86 180.71 L 552.21 180.26 L 554.56 179.68 L 556.91 179.67 L 559.26 178.77 L 561.60 177.57 L 563.95 175.55 L 566.30 174.52 L 568.65 173.86 L 571.00 174.17 L 573.35 173.10 L 575.70 173.10 L 578.05 171.18 L 580.40 168.37 L 582.75 168.37 L 585.10 165.86 L 587.45 163.63 L 589.80 163.63 L 592.15 163.62 L 594.50 162.88 L 596.85 161.06 L 599.20 193.89 L 601.55 193.22 L 603.90 192.73 L 606.25 192.34 L 608.60 189.45 L 610.95 188.03 L 613.30 188.03 L 615.64 180.86 L 617.99 148.96 L 620.34 144.25 L 622.69 176.00 L 625.04 176.17 L 627.39 175.77 L 629.74 175.72 L 632.09 197.26 L 634.44 197.26 L 636.79 197.06 L 639.14 196.44 L 641.49 194.49 L 643.84 194.50 L 646.19 194.49 L 648.54 194.49 L 650.89 194.49 L 653.24 194.48 L 655.59 194.48 L 657.94 194.62 L 660.29 206.08 L 662.64 206.08 L 664.99 206.05 L 667.34 206.04 L 669.68 205.22 L 672.03 204.28 L 674.38 204.28 L 676.73 204.28 L 679.08 200.22 L 681.43 204.28 L 683.78 204.28 L 686.13 204.28 L 688.48 198.60 L 690.83 198.60 L 693.18 198.60 L 695.53 198.60 L 697.88 193.00 L 700.23 193.00 L 702.58 188.39 L 704.93 188.39 L 707.28 179.75 L 709.63 174.84 L 711.98 173.23 L 714.33 170.37 L 716.68 169.87 L 719.03 153.88 L 721.38 149.24 L 723.72 152.04 L 726.07 141.93 L 728.42 141.88 L 730.77 141.69 L 733.12 141.69 L 735.47 141.76 L 737.82 141.75 L 740.17 140.68 L 742.52 141.38 L 744.87 141.36 L 747.22 141.83 L 749.57 141.39 L 751.92 141.39 L 754.27 141.52 L 756.62 141.52 L 758.97 141.53 L 761.32 142.33 L 763.67 141.73 L 766.02 141.68 L 768.37 141.68 L 770.72 141.66 L 773.07 141.67 L 775.42 141.65 L 777.77 139.51 L 780.11 136.07 L 782.46 136.04 L 784.81 133.43 L 787.16 131.89 L 789.51 131.13 L 791.86 131.51 L 794.21 131.50 L 796.56 131.57 L 798.91 131.56 L 801.26 131.49 L 803.61 131.49 L 805.96 131.49 L 808.31 131.49 L 810.66 131.49 L 813.01 131.49 L 815.36 131.49 L 817.71 131.49 L 820.06 131.49 L 822.41 131.49 L 824.76 131.49 L 827.11 131.49 L 829.46 131.49 L 831.81 131.49 L 834.15 131.49 L 836.50 131.49 L 838.85 131.49 L 841.20 131.49 L 843.55 131.49 L 845.90 131.49 L 848.25 131.49 L 850.60 131.49 L 852.95 131.49 L 855.30 131.49 L 857.65 131.49 L 860.00 131.49" fill="none" stroke="#3fb950" stroke-width="2"/>
    <circle cx="860.00" cy="131.49" r="3" fill="#3fb950"/>
    <text x="40.00" y="235.00" font-size="9" fill="#c9d1d9" text-anchor="middle" transform="rotate(-45 40.00 235.00)">27.09.2025</text><text x="122.23" y="235.00" font-size="9" fill="#c9d1d9" text-anchor="middle" transform="rotate(-45 122.23 235.00)">28.09.2025</text><text x="204.47" y="235.00" font-size="9" fill="#c9d1d9" text-anchor="middle" transform="rotate(-45 204.47 235.00)">28.09.2025</text><text x="286.70" y="235.00" font-size="9" fill="#c9d1d9" text-anchor="middle" transform="rotate(-45 286.70 235.00)">30.09.2025</text><text x="368.94" y="235.00" font-size="9" fill="#c9d1d9" text-anchor="middle" transform="rotate(-45 368.94 235.00)">04.10.2025</text><text x="451.17" y="235.00" font-size="9" fill="#c9d1d9" text-anchor="middle" transform="rotate(-45 451.17 235.00)">04.10.2025</text><text x="533.41" y="235.00" font-size="9" fill="#c9d1d9" text-anchor="middle" transform="rotate(-45 533.41 235.00)">04.10.2025</text><text x="615.64" y="235.00" font-size="9" fill="#c9d1d9" text-anchor="middle" transform="rotate(-45 615.64 235.00)">05.10.2025</text><text x="697.88" y="235.00" font-size="9" fill="#c9d1d9" text-anchor="middle" transform="rotate(-45 697.88 235.00)">07.10.2025</text><text x="780.11" y="235.00" font-size="9" fill="#c9d1d9" text-anchor="middle" transform="rotate(-45 780.11 235.00)">09.10.2025</text>
  </g>
</svg>