<svg xmlns="http://www.w3.org/2000/svg" width="900" height="290" style="font-family: -apple-system, BlinkMacSystemFont, 'Segoe UI', Helvetica, Arial, sans-serif;">
  <rect width="100%" height="100%" fill="#0d1117"/>
  <g>
    <line x1="40" y1="220.00" x2="860" y2="220.00" stroke="#30363d"/><text x="32" y="224.00" font-size="10" fill="#c9d1d9" text-anchor="end">0</text><line x1="40" y1="175.00" x2="860" y2="175.00" stroke="#30363d"/><text x="32" y="179.00" font-size="10" fill="#c9d1d9" text-anchor="end">25k</text><line x1="40" y1="130.00" x2="860" y2="130.00" stroke="#30363d"/><text x="32" y="134.00" font-size="10" fill="#c9d1d9" text-anchor="end">50k</text><line x1="40" y1="85.00" x2="860" y2="85.00" stroke="#30363d"/><text x="32" y="89.00" font-size="10" fill="#c9d1d9" text-anchor="end">75k</text><line x1="40" y1="40.00" x2="860" y2="40.00" stroke="#30363d"/><text x="32" y="44.00" font-size="10" fill="#c9d1d9" text-anchor="end">100k</text>
    <line x1="40.00" y1="40" x2="40.00" y2="220" stroke="#30363d" opacity="0.5"/><line x1="121.46" y1="40" x2="121.46" y2="220" stroke="#30363d" opacity="0.5"/><line x1="202.91" y1="40" x2="202.91" y2="220" stroke="#30363d" opacity="0.5"/><line x1="284.37" y1="40" x2="284.37" y2="220" stroke="#30363d" opacity="0.5"/><line x1="365.83" y1="40" x2="365.83" y2="220" stroke="#30363d" opacity="0.5"/><line x1="447.28" y1="40" x2="447.28" y2="220" stroke="#30363d" opacity="0.5"/><line x1="528.74" y1="40" x2="528.74" y2="220" stroke="#30363d" opacity="0.5"/><line x1="610.20" y1="40" x2="610.20" y2="220" stroke="#30363d" opacity="0.5"/><line x1="691.66" y1="40" x2="691.66" y2="220" stroke="#30363d" opacity="0.5"/><line x1="773.11" y1="40" x2="773.11" y2="220" stroke="#30363d" opacity="0.5"/><line x1="854.57" y1="40" x2="854.57" y2="220" stroke="#30363d" opacity="0.5"/>
    <line x1="40" y1="220" x2="860" y2="220" stroke="#30363d"/>
    <line x1="40" y1="40"   x2="40"   y2="220" stroke="#30363d"/>
    <path d="M 40.00 220.00 L 41.81 220.00 L 43.62 219.60 L 45.43 219.62 L 47.24 219.63 L 49.05 219.32 L 50.86 219.31 L 52.67 219.26 L 54.48 218.89 L 56.29 218.89 L 58.10 218.89 L 59.91 218.87 L 61.72 218.87 L 63.53 218.86 L 65.34 218.85 L 67.15 218.85 L 68.96 218.82 L 70.77 218.78 L 72.58 218.72 L 74.39 218.68 L 76.20 218.64 L 78.01 218.59 L 79.82 218.59 L 81.63 218.57 L 83.44 218.57 L 85.25 218.57 L 87.06 218.57 L 88.87 218.57 L 90.68 218.57 L 92.49 218.57 L 94.30 218.57 L 96.11 218.57 L 97.92 218.55 L 99.74 218.54 L 101.55 218.58 L 103.36 218.55 L 105.17 218.55 L 106.98 218.53 L 108.79 218.31 L 110.60 217.94 L 112.41 217.88 L 114.22 217.87 L 116.03 217.86 L 117.84 217.85 L 119.65 217.84 L 121.46 217.85 L 123.27 217.82 L 125.08 217.66 L 126.89 217.61 L 128.70 217.60 L 130.51 217.57 L 132.32 217.56 L 134.13 217.52 L 135.94 217.38 L 137.75 217.24 L 139.56 216.93 L 141.37 216.65 L 143.18 216.44 L 144.99 216.39 L 146.80 216.34 L 148.61 216.83 L 150.42 200.94 L 152.23 200.94 L 154.04 200.95 L 155.85 198.99 L 157.66 198.98 L 159.47 198.94 L 161.28 198.94 L 163.09 198.91 L 164.90 198.90 L 166.71 198.93 L 168.52 198.93 L 170.33 198.99 L 172.14 198.95 L 173.95 198.96 L 175.76 198.95 L 177.57 198.95 L 179.38 198.97 L 181.19 198.97 L 183.00 198.97 L 184.81 198.97 L 186.62 198.97 L 188.43 198.97 L 190.24 198.97 L 192.05 198.97 L 193.86 198.97 L 195.67 198.97 L 197.48 198.97 L 199.29 197.51 L 201.10 197.43 L 202.91 197.40 L 204.72 197.38 L 206.53 197.38 L 208.34 197.49 L 210.15 197.34 L 211.96 197.33 L 213.77 197.18 L 215.58 197.41 L 217.40 197.41 L 219.21 197.29 L 221.02 197.29 L 222.83 197.22 L 224.64 197.21 L 226.45 197.15 L 228.26 196.94 L 230.07 197.00 L 231.88 197.41 L 233.69 197.41 L 235.50 197.30 L 237.31 197.26 L 239.12 197.19 L 240.93 197.19 L 242.74 197.19 L 244.55 197.19 L 246.36 197.18 L 248.17 197.12 L 249.98 197.09 L 251.79 197.04 L 253.60 197.00 L 255.41 196.96 L 257.22 196.92 L 259.03 196.91 L 260.84 196.86 L 262.65 196.80 L 264.46 196.75 L 266.27 196.69 L 268.08 196.66 L 269.89 196.63 L 271.70 196.56 L 273.51 196.51 L 275.32 196.47 L 277.13 196.45 L 278.94 196.40 L 280.75 196.37 L 282.56 196.34 L 284.37 196.28 L 286.18 196.20 L 287.99 196.12 L 289.80 196.02 L 291.61 195.89 L 293.42 195.77 L 295.23 195.68 L 297.04 195.63 L 298.85 195.58 L 300.66 195.53 L 302.47 195.44 L 304.28 195.35 L 306.09 195.22 L 307.90 195.11 L 309.71 194.95 L 311.52 194.82 L 313.33 194.68 L 315.14 194.57 L 316.95 194.55 L 318.76 194.51 L 320.57 194.48 L 322.38 194.44 L 324.19 194.40 L 326.00 194.37 L 327.81 194.34 L 329.62 194.29 L 331.43 194.25 L 333.25 194.23 L 335.06 194.21 L 336.87 194.19 L 338.68 194.16 L 340.49 194.12 L 342.30 194.07 L 344.11 193.99 L 345.92 193.94 L 347.73 193.87 L 349.54 193.80 L 351.35 193.74 L 353.16 193.72 L 354.97 193.70 L 356.78 193.66 L 358.59 193.62 L 360.40 193.56 L 362.21 193.49 L 364.02 193.43 L 365.83 193.35 L 367.64 193.27 L 369.45 193.20 L 371.26 193.14 L 373.07 193.15 L 374.88 193.15 L 376.69 193.15 L 378.50 193.18 L 380.31 193.09 L 382.12 193.07 L 383.93 193.07 L 385.74 193.08 L 387.55 193.00 L 389.36 192.95 L 391.17 192.95 L 392.98 192.95 L 394.79 192.95 L 396.60 192.80 L 398.41 192.73 L 400.22 192.69 L 402.03 192.67 L 403.84 192.67 L 405.65 192.68 L 407.46 192.64 L 409.27 192.63 L 411.08 192.63 L 412.89 190.39 L 414.70 189.96 L 416.51 189.85 L 418.32 189.53 L 420.13 189.52 L 421.94 189.36 L 423.75 187.79 L 425.56 187.36 L 427.37 181.35 L 429.18 181.35 L 430.99 180.72 L 432.80 180.71 L 434.61 180.26 L 436.42 179.68 L 438.23 179.67 L 440.04 178.77 L 441.85 177.57 L 443.66 175.55 L 445.47 174.52 L 447.28 173.86 L 449.09 174.17 L 450.91 173.10 L 452.72 173.10 L 454.53 171.18 L 456.34 168.37 L 458.15 168.37 L 459.96 165.86 L 461.77 163.63 L 463.58 163.63 L 465.39 163.62 L 467.20 162.88 L 469.01 161.06 L 470.82 193.89 L 472.63 193.22 L 474.44 192.73 L 476.25 192.34 L 478.06 189.45 L 479.87 188.03 L 481.68 188.03 L 483.49 180.86 L 485.30 148.96 L 487.11 144.25 L 488.92 176.00 L 490.73 176.17 L 492.54 175.77 L 494.35 175.72 L 496.16 197.26 L 497.97 197.26 L 499.78 197.06 L 501.59 196.44 L 503.40 194.49 L 505.21 194.50 L 507.02 194.49 L 508.83 194.49 L 510.64 194.49 L 512.45 194.48 L 514.26 194.48 L 516.07 194.62 L 517.88 206.08 L 519.69 206.08 L 521.50 206.05 L 523.31 206.04 L 525.12 205.22 L 526.93 204.28 L 528.74 204.28 L 530.55 204.28 L 532.36 200.22 L 534.17 204.28 L 535.98 204.28 L 537.79 204.28 L 539.60 198.60 L 541.41 198.60 L 543.22 198.60 L 545.03 198.60 L 546.84 193.00 L 548.65 193.00 L 550.46 188.39 L 552.27 188.39 L 554.08 179.75 L 555.89 174.84 L 557.70 173.23 L 559.51 170.37 L 561.32 169.87 L 563.13 153.88 L 564.94 149.24 L 566.75 152.04 L 568.57 141.93 L 570.38 141.88 L 572.19 141.69 L 574.00 141.69 L 575.81 141.76 L 577.62 141.75 L 579.43 140.68 L 581.24 141.38 L 583.05 141.36 L 584.86 141.83 L 586.67 141.39 L 588.48 141.39 L 590.29 141.52 L 592.10 141.52 L 593.91 141.53 L 595.72 142.33 L 597.53 141.73 L 599.34 141.68 L 601.15 141.68 L 602.96 141.66 L 604.77 141.67 L 606.58 141.65 L 608.39 139.51 L 610.20 136.07 L 612.01 136.04 L 613.82 133.43 L 615.63 131.89 L 617.44 131.13 L 619.25 131.51 L 621.06 131.50 L 622.87 131.57 L 624.68 131.56 L 626.49 131.49 L 628.30 131.49 L 630.11 131.49 L 631.92 131.49 L 633.73 131.49 L 635.54 131.49 L 637.35 131.49 L 639.16 131.49 L 640.97 131.49 L 642.78 131.49 L 644.59 131.49 L 646.40 131.49 L 648.21 131.49 L 650.02 131.49 L 651.83 131.49 L 653.64 131.49 L 655.45 131.49 L 657.26 131.49 L 659.07 131.49 L 660.88 131.49 L 662.69 131.49 L 664.50 131.49 L 666.31 131.49 L 668.12 131.49 L 669.93 131.49 L 671.74 131.49 L 673.55 131.49 L 675.36 131.49 L 677.17 131.49 L 678.98 131.49 L 680.79 131.49 L 682.60 131.49 L 684.42 131.49 L 686.23 131.49 L 688.04 131.49 L 689.85 131.49 L 691.66 131.49 L 693.47 131.49 L 695.28 131.49 L 697.09 131.49 L 698.90 131.49 L 700.71 131.49 L 702.52 131.49 L 704.33 131.49 L 706.14 131.49 L 707.95 131.49 L 709.76 131.49 L 711.57 131.49 L 713.38 131.49 L 715.19 131.49 L 717.00 131.49 L 718.81 131.49 L 720.62 131.49 L 722.43 131.49 L 724.24 131.49 L 726.05 131.49 L 727.86 131.49 L 729.67 131.49 L 731.48 131.49 L 733.29 131.49 L 735.10 131.49 L 736.91 131.49 L 738.72 131.49 L 740.53 131.49 L 742.34 131.49 L 744.15 131.49 L 745.96 131.49 L 747.77 131.49 L 749.58 131.49 L 751.39 131.49 L 753.20 131.49 L 755.01 131.49 L 756.82 131.49 L 758.63 131.49 L 760.44 131.49 L 762.25 131.49 L 764.06 131.49 L 765.87 131.49 L 767.68 131.49 L 769.49 131.49 L 771.30 131.49 L 773.11 131.49 L 774.92 131.49 L 776.73 131.49 L 778.54 131.49 L 780.35 131.49 L 782.16 131.49 L 783.97 131.49 L 785.78 131.49 L 787.59 131.49 L 789.40 131.49 L 791.21 131.49 L 793.02 131.49 L 794.83 131.49 L 796.64 131.49 L 798.45 131.49 L 800.26 131.49 L 802.08 131.49 L 803.89 131.49 L 805.70 131.49 L 807.51 131.49 L 809.32 131.49 L 811.13 131.49 L 812.94 131.49 L 814.75 131.49 L 816.56 131.49 L 818.37 131.49 L 820.18 131.49 L 821.99 131.49 L 823.80 131.49 L 825.61 131.49 L 827.42 131.49 L 829.23 131.49 L 831.04 131.49 L 832.85 131.49 L 834.66 131.49 L 836.47 131.49 L 838.28 131.49 L 840.09 131.49 L 841.90 131.49 L 843.71 131.49 L 845.52 131.49 L 847.33 131.49 L 849.14 131.49 L 850.95 131.49 L 852.76 131.49 L 854.57 131.49 L 856.38 131.49 L 858.19 131.49 L 860.00 131.49" fill="none" stroke="#3fb950" stroke-width="2"/>
    <circle cx="860.00" cy="131.49" r="3" fill="#3fb950"/>
    <text x="40.00" y="235.00" font-size="9" fill="#c9d1d9" text-anchor="middle" transform="rotate(-45 40.00 235.00)">27.09.2025</text><text x="121.46" y="235.00" font-size="9" fill="#c9d1d9" text-anchor="middle" transform="rotate(-45 121.46 235.00)">28.09.2025</text><text x="202.91" y="235.00" font-size="9" fill="#c9d1d9" text-anchor="middle" transform="rotate(-45 202.91 235.00)">29.09.2025</text><text x="284.37" y="235.00" font-size="9" fill="#c9d1d9" text-anchor="middle" transform="rotate(-45 284.37 235.00)">04.10.2025</text><text x="365.83" y="235.00" font-size="9" fill="#c9d1d9" text-anchor="middle" transform="rotate(-45 365.83 235.00)">04.10.2025</text><text x="447.28" y="235.00" font-size="9" fill="#c9d1d9" text-anchor="middle" transform="rotate(-45 447.28 235.00)">04.10.2025</text><text x="528.74" y="235.00" font-size="9" fill="#c9d1d9" text-anchor="middle" transform="rotate(-45 528.74 235.00)">06.10.2025</text><text x="610.20" y="235.00" font-size="9" fill="#c9d1d9" text-anchor="middle" transform="rotate(-45 610.20 235.00)">09.10.2025</text><text x="691.66" y="235.00" font-size="9" fill="#c9d1d9" text-anchor="middle" transform="rotate(-45 691.66 235.00)">14.11.2025</text><text x="773.11" y="235.00" font-size="9" fill="#c9d1d9" text-anchor="middle" transform="rotate(-45 773.11 235.00)">29.12.2025</text><text x="854.57" y="235.00" font-size="9" fill="#c9d1d9" text-anchor="middle" transform="rotate(-45 854.57 235.00)">09.02.2026</text>
  </g>
</svg>