<svg xmlns="http://www.w3.org/2000/svg" width="900" height="290" style="font-family: -apple-system, BlinkMacSystemFont, 'Segoe UI', Helvetica, Arial, sans-serif;">
  <rect width="100%" height="100%" fill="#0d1117"/>
  <g>
    <line x1="40" y1="220.00" x2="860" y2="220.00" stroke="#30363d"/><text x="32" y="224.00" font-size="10" fill="#c9d1d9" text-anchor="end">0</text><line x1="40" y1="175.00" x2="860" y2="175.00" stroke="#30363d"/><text x="32" y="179.00" font-size="10" fill="#c9d1d9" text-anchor="end">25k</text><line x1="40" y1="130.00" x2="860" y2="130.00" stroke="#30363d"/><text x="32" y="134.00" font-size="10" fill="#c9d1d9" text-anchor="end">50k</text><line x1="40" y1="85.00" x2="860" y2="85.00" stroke="#30363d"/><text x="32" y="89.00" font-size="10" fill="#c9d1d9" text-anchor="end">75k</text><line x1="40" y1="40.00" x2="860" y2="40.00" stroke="#30363d"/><text x="32" y="44.00" font-size="10" fill="#c9d1d9" text-anchor="end">100k</text>
    <line x1="40.00" y1="40" x2="40.00" y2="220" stroke="#30363d" opacity="0.5"/><line x1="121.32" y1="40" x2="121.32" y2="220" stroke="#30363d" opacity="0.5"/><line x1="202.64" y1="40" x2="202.64" y2="220" stroke="#30363d" opacity="0.5"/><line x1="283.97" y1="40" x2="283.97" y2="220" stroke="#30363d" opacity="0.5"/><line x1="365.29" y1="40" x2="365.29" y2="220" stroke="#30363d" opacity="0.5"/><line x1="446.61" y1="40" x2="446.61" y2="220" stroke="#30363d" opacity="0.5"/><line x1="527.93" y1="40" x2="527.93" y2="220" stroke="#30363d" opacity="0.5"/><line x1="609.26" y1="40" x2="609.26" y2="220" stroke="#30363d" opacity="0.5"/><line x1="690.58" y1="40" x2="690.58" y2="220" stroke="#30363d" opacity="0.5"/><line x1="771.90" y1="40" x2="771.90" y2="220" stroke="#30363d" opacity="0.5"/><line x1="853.22" y1="40" x2="853.22" y2="220" stroke="#30363d" opacity="0.5"/>
    <line x1="40" y1="220" x2="860" y2="220" stroke="#30363d"/>
    <line x1="40" y1="40"   x2="40"   y2="220" stroke="#30363d"/>
    <path d="M 40.00 220.00 L 42.26 220.00 L 44.52 219.60 L 46.78 219.62 L 49.04 219.63 L 51.29 219.32 L 53.55 219.31 L 55.81 219.26 L 58.07 218.89 L 60.33 218.89 L 62.59 218.89 L 64.85 218.87 L 67.11 218.87 L 69.37 218.86 L 71.63 218.85 L 73.88 218.85 L 76.14 218.82 L 78.40 218.78 L 80.66 218.72 L 82.92 218.68 L 85.18 218.64 L 87.44 218.59 L 89.70 218.59 L 91.96 218.57 L 94.21 218.57 L 96.47 218.57 L 98.73 218.57 L 100.99 218.57 L 103.25 218.57 L 105.51 218.57 L 107.77 218.57 L 110.03 218.57 L 112.29 218.55 L 114.55 218.54 L 116.80 218.58 L 119.06 218.55 L 121.32 218.55 L 123.58 218.53 L 125.84 218.31 L 128.10 217.94 L 130.36 217.88 L 132.62 217.87 L 134.88 217.86 L 137.13 217.85 L 139.39 217.84 L 141.65 217.85 L 143.91 217.82 L 146.17 217.66 L 148.43 217.61 L 150.69 217.60 L 152.95 217.57 L 155.21 217.56 L 157.47 217.52 L 159.72 217.38 L 161.98 217.24 L 164.24 216.93 L 166.50 216.65 L 168.76 216.44 L 171.02 216.39 L 173.28 216.34 L 175.54 216.83 L 177.80 200.94 L 180.06 200.94 L 182.31 200.95 L 184.57 198.99 L 186.83 198.98 L 189.09 198.94 L 191.35 198.94 L 193.61 198.91 L 195.87 198.90 L 198.13 198.93 L 200.39 198.93 L 202.64 198.99 L 204.90 198.95 L 207.16 198.96 L 209.42 198.95 L 211.68 198.95 L 213.94 198.97 L 216.20 198.97 L 218.46 198.97 L 220.72 198.97 L 222.98 198.97 L 225.23 198.97 L 227.49 198.97 L 229.75 198.97 L 232.01 198.97 L 234.27 198.97 L 236.53 198.97 L 238.79 197.51 L 241.05 197.43 L 243.31 197.40 L 245.56 197.38 L 247.82 197.38 L 250.08 197.49 L 252.34 197.34 L 254.60 197.33 L 256.86 197.18 L 259.12 197.41 L 261.38 197.41 L 263.64 197.29 L 265.90 197.29 L 268.15 197.22 L 270.41 197.21 L 272.67 197.15 L 274.93 196.94 L 277.19 197.00 L 279.45 197.41 L 281.71 197.41 L 283.97 197.30 L 286.23 197.26 L 288.48 197.19 L 290.74 197.19 L 293.00 197.19 L 295.26 197.19 L 297.52 197.18 L 299.78 197.12 L 302.04 197.09 L 304.30 197.04 L 306.56 197.00 L 308.82 196.96 L 311.07 196.92 L 313.33 196.91 L 315.59 196.86 L 317.85 196.80 L 320.11 196.75 L 322.37 196.69 L 324.63 196.66 L 326.89 196.63 L 329.15 196.56 L 331.40 196.51 L 333.66 196.47 L 335.92 196.45 L 338.18 196.40 L 340.44 196.37 L 342.70 196.34 L 344.96 196.28 L 347.22 196.20 L 349.48 196.12 L 351.74 196.02 L 353.99 195.89 L 356.25 195.77 L 358.51 195.68 L 360.77 195.63 L 363.03 195.58 L 365.29 195.53 L 367.55 195.44 L 369.81 195.35 L 372.07 195.22 L 374.33 195.11 L 376.58 194.95 L 378.84 194.82 L 381.10 194.68 L 383.36 194.57 L 385.62 194.55 L 387.88 194.51 L 390.14 194.48 L 392.40 194.44 L 394.66 194.40 L 396.91 194.37 L 399.17 194.34 L 401.43 194.29 L 403.69 194.25 L 405.95 194.23 L 408.21 194.21 L 410.47 194.19 L 412.73 194.16 L 414.99 194.12 L 417.25 194.07 L 419.50 193.99 L 421.76 193.94 L 424.02 193.87 L 426.28 193.80 L 428.54 193.74 L 430.80 193.72 L 433.06 193.70 L 435.32 193.66 L 437.58 193.62 L 439.83 193.56 L 442.09 193.49 L 444.35 193.43 L 446.61 193.35 L 448.87 193.27 L 451.13 193.20 L 453.39 193.14 L 455.65 193.15 L 457.91 193.15 L 460.17 193.15 L 462.42 193.18 L 464.68 193.09 L 466.94 193.07 L 469.20 193.07 L 471.46 193.08 L 473.72 193.00 L 475.98 192.95 L 478.24 192.95 L 480.50 192.95 L 482.75 192.95 L 485.01 192.80 L 487.27 192.73 L 489.53 192.69 L 491.79 192.67 L 494.05 192.67 L 496.31 192.68 L 498.57 192.64 L 500.83 192.63 L 503.09 192.63 L 505.34 190.39 L 507.60 189.96 L 509.86 189.85 L 512.12 189.53 L 514.38 189.52 L 516.64 189.36 L 518.90 187.79 L 521.16 187.36 L 523.42 181.35 L 525.67 181.35 L 527.93 180.72 L 530.19 180.71 L 532.45 180.26 L 534.71 179.68 L 536.97 179.67 L 539.23 178.77 L 541.49 177.57 L 543.75 175.55 L 546.01 174.52 L 548.26 173.86 L 550.52 174.17 L 552.78 173.10 L 555.04 173.10 L 557.30 171.18 L 559.56 168.37 L 561.82 168.37 L 564.08 165.86 L 566.34 163.63 L 568.60 163.63 L 570.85 163.62 L 573.11 162.88 L 575.37 161.06 L 577.63 193.89 L 579.89 193.22 L 582.15 192.73 L 584.41 192.34 L 586.67 189.45 L 588.93 188.03 L 591.18 188.03 L 593.44 180.86 L 595.70 148.96 L 597.96 144.25 L 600.22 176.00 L 602.48 176.17 L 604.74 175.77 L 607.00 175.72 L 609.26 197.26 L 611.52 197.26 L 613.77 197.06 L 616.03 196.44 L 618.29 194.49 L 620.55 194.50 L 622.81 194.49 L 625.07 194.49 L 627.33 194.49 L 629.59 194.48 L 631.85 194.48 L 634.10 194.62 L 636.36 206.08 L 638.62 206.08 L 640.88 206.05 L 643.14 206.04 L 645.40 205.22 L 647.66 204.28 L 649.92 204.28 L 652.18 204.28 L 654.44 200.22 L 656.69 204.28 L 658.95 204.28 L 661.21 204.28 L 663.47 198.60 L 665.73 198.60 L 667.99 198.60 L 670.25 198.60 L 672.51 193.00 L 674.77 193.00 L 677.02 188.39 L 679.28 188.39 L 681.54 179.75 L 683.80 174.84 L 686.06 173.23 L 688.32 170.37 L 690.58 169.87 L 692.84 153.88 L 695.10 149.24 L 697.36 152.04 L 699.61 141.93 L 701.87 141.88 L 704.13 141.69 L 706.39 141.69 L 708.65 141.76 L 710.91 141.75 L 713.17 140.68 L 715.43 141.38 L 717.69 141.36 L 719.94 141.83 L 722.20 141.39 L 724.46 141.39 L 726.72 141.52 L 728.98 141.52 L 731.24 141.53 L 733.50 142.33 L 735.76 141.73 L 738.02 141.68 L 740.28 141.68 L 742.53 141.66 L 744.79 141.67 L 747.05 141.65 L 749.31 139.51 L 751.57 136.07 L 753.83 136.04 L 756.09 133.43 L 758.35 131.89 L 760.61 131.13 L 762.87 131.51 L 765.12 131.50 L 767.38 131.57 L 769.64 131.56 L 771.90 131.49 L 774.16 131.49 L 776.42 131.49 L 778.68 131.49 L 780.94 131.49 L 783.20 131.49 L 785.45 131.49 L 787.71 131.49 L 789.97 131.49 L 792.23 131.49 L 794.49 131.49 L 796.75 131.49 L 799.01 131.49 L 801.27 131.49 L 803.53 131.49 L 805.79 131.49 L 808.04 131.49 L 810.30 131.49 L 812.56 131.49 L 814.82 131.49 L 817.08 131.49 L 819.34 131.49 L 821.60 131.49 L 823.86 131.49 L 826.12 131.49 L 828.37 131.49 L 830.63 131.49 L 832.89 131.49 L 835.15 131.49 L 837.41 131.49 L 839.67 131.49 L 841.93 131.49 L 844.19 131.49 L 846.45 131.49 L 848.71 131.49 L 850.96 131.49 L 853.22 131.49 L 855.48 131.49 L 857.74 131.49 L 860.00 131.49" fill="none" stroke="#3fb950" stroke-width="2"/>
    <circle cx="860.00" cy="131.49" r="3" fill="#3fb950"/>
    <text x="40.00" y="235.00" font-size="9" fill="#c9d1d9" text-anchor="middle" transform="rotate(-45 40.00 235.00)">27.09.2025</text><text x="121.32" y="235.00" font-size="9" fill="#c9d1d9" text-anchor="middle" transform="rotate(-45 121.32 235.00)">28.09.2025</text><text x="202.64" y="235.00" font-size="9" fill="#c9d1d9" text-anchor="middle" transform="rotate(-45 202.64 235.00)">28.09.2025</text><text x="283.97" y="235.00" font-size="9" fill="#c9d1d9" text-anchor="middle" transform="rotate(-45 283.97 235.00)">30.09.2025</text><text x="365.29" y="235.00" font-size="9" fill="#c9d1d9" text-anchor="middle" transform="rotate(-45 365.29 235.00)">04.10.2025</text><text x="446.61" y="235.00" font-size="9" fill="#c9d1d9" text-anchor="middle" transform="rotate(-45 446.61 235.00)">04.10.2025</text><text x="527.93" y="235.00" font-size="9" fill="#c9d1d9" text-anchor="middle" transform="rotate(-45 527.93 235.00)">04.10.2025</text><text x="609.26" y="235.00" font-size="9" fill="#c9d1d9" text-anchor="middle" transform="rotate(-45 609.26 235.00)">05.10.2025</text><text x="690.58" y="235.00" font-size="9" fill="#c9d1d9" text-anchor="middle" transform="rotate(-45 690.58 235.00)">08.10.2025</text><text x="771.90" y="235.00" font-size="9" fill="#c9d1d9" text-anchor="middle" transform="rotate(-45 771.90 235.00)">10.10.2025</text><text x="853.22" y="235.00" font-size="9" fill="#c9d1d9" text-anchor="middle" transform="rotate(-45 853.22 235.00)">14.11.2025</text>
  </g>
</svg>