<svg xmlns="http://www.w3.org/2000/svg" width="900" height="290" style="font-family: -apple-system, BlinkMacSystemFont, 'Segoe UI', Helvetica, Arial, sans-serif;">
  <rect width="100%" height="100%" fill="white"/>
  <g>
    <line x1="40" y1="220.00" x2="860" y2="220.00" stroke="#e5e7eb"/><text x="32" y="224.00" font-size="10" fill="#111827" text-anchor="end">0</text><line x1="40" y1="175.00" x2="860" y2="175.00" stroke="#e5e7eb"/><text x="32" y="179.00" font-size="10" fill="#111827" text-anchor="end">12.5k</text><line x1="40" y1="130.00" x2="860" y2="130.00" stroke="#e5e7eb"/><text x="32" y="134.00" font-size="10" fill="#111827" text-anchor="end">25k</text><line x1="40" y1="85.00" x2="860" y2="85.00" stroke="#e5e7eb"/><text x="32" y="89.00" font-size="10" fill="#111827" text-anchor="end">37.5k</text><line x1="40" y1="40.00" x2="860" y2="40.00" stroke="#e5e7eb"/><text x="32" y="44.00" font-size="10" fill="#111827" text-anchor="end">50k</text>
    <line x1="40.00" y1="40" x2="40.00" y2="220" stroke="#e5e7eb" opacity="0.5"/><line x1="122.32" y1="40" x2="122.32" y2="220" stroke="#e5e7eb" opacity="0.5"/><line x1="204.63" y1="40" x2="204.63" y2="220" stroke="#e5e7eb" opacity="0.5"/><line x1="286.95" y1="40" x2="286.95" y2="220" stroke="#e5e7eb" opacity="0.5"/><line x1="369.27" y1="40" x2="369.27" y2="220" stroke="#e5e7eb" opacity="0.5"/><line x1="451.58" y1="40" x2="451.58" y2="220" stroke="#e5e7eb" opacity="0.5"/><line x1="533.90" y1="40" x2="533.90" y2="220" stroke="#e5e7eb" opacity="0.5"/><line x1="616.22" y1="40" x2="616.22" y2="220" stroke="#e5e7eb" opacity="0.5"/><line x1="698.53" y1="40" x2="698.53" y2="220" stroke="#e5e7eb" opacity="0.5"/><line x1="780.85" y1="40" x2="780.85" y2="220" stroke="#e5e7eb" opacity="0.5"/>
    <line x1="40" y1="220" x2="860" y2="220" stroke="#9ca3af"/>
    <line x1="40" y1="40"   x2="40"   y2="220" stroke="#9ca3af"/>
    <path d="M 40.00 220.00 L 43.17 220.00 L 46.33 219.20 L 49.50 219.25 L 52.66 219.25 L 55.83 218.64 L 59.00 218.62 L 62.16 218.52 L 65.33 217.78 L 68.49 217.78 L 71.66 217.78 L 74.83 217.73 L 77.99 217.74 L 81.16 217.72 L 84.32 217.70 L 87.49 217.70 L 90.66 217.63 L 93.82 217.56 L 96.99 217.45 L 100.15 217.36 L 103.32 217.27 L 106.49 217.18 L 109.65 217.18 L 112.82 217.14 L 115.98 217.14 L 119.15 217.14 L 122.32 217.14 L 125.48 217.14 L 128.65 217.14 L 131.81 217.14 L 134.98 217.14 L 138.15 217.14 L 141.31 217.10 L 144.48 217.08 L 147.64 217.15 L 150.81 217.11 L 153.98 217.11 L 157.14 217.06 L 160.31 216.62 L 163.47 215.89 L 166.64 215.76 L 169.81 215.73 L 172.97 215.72 L 176.14 215.70 L 179.31 215.68 L 182.47 215.70 L 185.64 215.64 L 188.80 215.31 L 191.97 215.22 L 195.14 215.20 L 198.30 215.14 L 201.47 215.13 L 204.63 215.03 L 207.80 214.77 L 210.97 214.47 L 214.13 213.85 L 217.30 213.29 L 220.46 212.88 L 223.63 212.79 L 226.80 212.68 L 229.96 213.67 L 233.13 181.87 L 236.29 181.89 L 239.46 181.89 L 242.63 177.97 L 245.79 177.96 L 248.96 177.88 L 252.12 177.88 L 255.29 177.81 L 258.46 177.80 L 261.62 177.87 L 264.79 177.87 L 267.95 177.98 L 271.12 177.91 L 274.29 177.92 L 277.45 177.91 L 280.62 177.91 L 283.78 177.94 L 286.95 177.94 L 290.12 177.94 L 293.28 177.94 L 296.45 177.94 L 299.61 177.94 L 302.78 177.94 L 305.95 177.95 L 309.11 177.94 L 312.28 177.94 L 315.44 177.94 L 318.61 175.03 L 321.78 174.85 L 324.94 174.80 L 328.11 174.77 L 331.27 174.76 L 334.44 174.99 L 337.61 174.69 L 340.77 174.66 L 343.94 174.35 L 347.10 174.82 L 350.27 174.82 L 353.44 174.59 L 356.60 174.58 L 359.77 174.43 L 362.93 174.42 L 366.10 174.30 L 369.27 173.88 L 372.43 174.00 L 375.60 174.83 L 378.76 174.82 L 381.93 174.60 L 385.10 174.51 L 388.26 174.37 L 391.43 174.37 L 394.59 174.37 L 397.76 174.37 L 400.93 174.36 L 404.09 174.24 L 407.26 174.18 L 410.42 174.09 L 413.59 174.00 L 416.76 173.92 L 419.92 173.84 L 423.09 173.81 L 426.25 173.73 L 429.42 173.60 L 432.59 173.50 L 435.75 173.39 L 438.92 173.32 L 442.08 173.25 L 445.25 173.11 L 448.42 173.01 L 451.58 172.93 L 454.75 172.89 L 457.92 172.80 L 461.08 172.74 L 464.25 172.68 L 467.41 172.57 L 470.58 172.40 L 473.75 172.25 L 476.91 172.05 L 480.08 171.78 L 483.24 171.54 L 486.41 171.36 L 489.58 171.26 L 492.74 171.17 L 495.91 171.06 L 499.07 170.89 L 502.24 170.70 L 505.41 170.44 L 508.57 170.21 L 511.74 169.90 L 514.90 169.64 L 518.07 169.37 L 521.24 169.13 L 524.40 169.10 L 527.57 169.03 L 530.73 168.96 L 533.90 168.88 L 537.07 168.79 L 540.23 168.73 L 543.40 168.68 L 546.56 168.58 L 549.73 168.51 L 552.90 168.46 L 556.06 168.42 L 559.23 168.38 L 562.39 168.33 L 565.56 168.25 L 568.73 168.13 L 571.89 167.98 L 575.06 167.88 L 578.22 167.74 L 581.39 167.60 L 584.56 167.49 L 587.72 167.44 L 590.89 167.40 L 594.05 167.31 L 597.22 167.23 L 600.39 167.12 L 603.55 166.98 L 606.72 166.86 L 609.88 166.69 L 613.05 166.54 L 616.22 166.40 L 619.38 166.28 L 622.55 166.29 L 625.71 166.30 L 628.88 166.30 L 632.05 166.37 L 635.21 166.18 L 638.38 166.14 L 641.54 166.15 L 644.71 166.15 L 647.88 166.01 L 651.04 165.89 L 654.21 165.89 L 657.37 165.89 L 660.54 165.89 L 663.71 165.60 L 666.87 165.46 L 670.04 165.38 L 673.20 165.34 L 676.37 165.34 L 679.54 165.35 L 682.70 165.27 L 685.87 165.27 L 689.03 165.27 L 692.20 160.77 L 695.37 159.91 L 698.53 159.69 L 701.70 159.05 L 704.86 159.05 L 708.03 158.73 L 711.20 155.57 L 714.36 154.71 L 717.53 142.69 L 720.69 142.69 L 723.86 141.44 L 727.03 141.41 L 730.19 140.51 L 733.36 139.36 L 736.53 139.35 L 739.69 137.55 L 742.86 135.14 L 746.02 131.10 L 749.19 129.04 L 752.36 127.72 L 755.52 128.34 L 758.69 126.21 L 761.85 126.21 L 765.02 122.35 L 768.19 116.74 L 771.35 116.74 L 774.52 111.72 L 777.68 107.25 L 780.85 107.25 L 784.02 107.24 L 787.18 105.75 L 790.35 102.13 L 793.51 167.79 L 796.68 166.43 L 799.85 165.47 L 803.01 164.67 L 806.18 158.90 L 809.34 156.05 L 812.51 156.05 L 815.68 141.73 L 818.84 77.92 L 822.01 68.51 L 825.17 132.01 L 828.34 132.34 L 831.51 131.53 L 834.67 131.45 L 837.84 174.52 L 841.00 174.52 L 844.17 174.13 L 847.34 172.88 L 850.50 168.98 L 853.67 168.99 L 856.83 168.97 L 860.00 168.97" fill="none" stroke="#111827" stroke-width="2"/>
    <circle cx="860.00" cy="168.97" r="3" fill="#111827"/>
    <text x="40.00" y="235.00" font-size="9" fill="#111827" text-anchor="middle" transform="rotate(-45 40.00 235.00)">27.09.2025</text><text x="122.32" y="235.00" font-size="9" fill="#111827" text-anchor="middle" transform="rotate(-45 122.32 235.00)">28.09.2025</text><text x="204.63" y="235.00" font-size="9" fill="#111827" text-anchor="middle" transform="rotate(-45 204.63 235.00)">28.09.2025</text><text x="286.95" y="235.00" font-size="9" fill="#111827" text-anchor="middle" transform="rotate(-45 286.95 235.00)">29.09.2025</text><text x="369.27" y="235.00" font-size="9" fill="#111827" text-anchor="middle" transform="rotate(-45 369.27 235.00)">30.09.2025</text><text x="451.58" y="235.00" font-size="9" fill="#111827" text-anchor="middle" transform="rotate(-45 451.58 235.00)">04.10.2025</text><text x="533.90" y="235.00" font-size="9" fill="#111827" text-anchor="middle" transform="rotate(-45 533.90 235.00)">04.10.2025</text><text x="616.22" y="235.00" font-size="9" fill="#111827" text-anchor="middle" transform="rotate(-45 616.22 235.00)">04.10.2025</text><text x="698.53" y="235.00" font-size="9" fill="#111827" text-anchor="middle" transform="rotate(-45 698.53 235.00)">04.10.2025</text><text x="780.85" y="235.00" font-size="9" fill="#111827" text-anchor="middle" transform="rotate(-45 780.85 235.00)">04.10.2025</text>
  </g>
</svg>