<svg xmlns="http://www.w3.org/2000/svg" width="900" height="290" style="font-family: -apple-system, BlinkMacSystemFont, 'Segoe UI', Helvetica, Arial, sans-serif;">
  <rect width="100%" height="100%" fill="#0d1117"/>
  <g>
    <line x1="40" y1="220.00" x2="860" y2="220.00" stroke="#30363d"/><text x="32" y="224.00" font-size="10" fill="#c9d1d9" text-anchor="end">0</text><line x1="40" y1="175.00" x2="860" y2="175.00" stroke="#30363d"/><text x="32" y="179.00" font-size="10" fill="#c9d1d9" text-anchor="end">25k</text><line x1="40" y1="130.00" x2="860" y2="130.00" stroke="#30363d"/><text x="32" y="134.00" font-size="10" fill="#c9d1d9" text-anchor="end">50k</text><line x1="40" y1="85.00" x2="860" y2="85.00" stroke="#30363d"/><text x="32" y="89.00" font-size="10" fill="#c9d1d9" text-anchor="end">75k</text><line x1="40" y1="40.00" x2="860" y2="40.00" stroke="#30363d"/><text x="32" y="44.00" font-size="10" fill="#c9d1d9" text-anchor="end">100k</text>
    <line x1="40.00" y1="40" x2="40.00" y2="220" stroke="#30363d" opacity="0.5"/><line x1="121.78" y1="40" x2="121.78" y2="220" stroke="#30363d" opacity="0.5"/><line x1="203.57" y1="40" x2="203.57" y2="220" stroke="#30363d" opacity="0.5"/><line x1="285.35" y1="40" x2="285.35" y2="220" stroke="#30363d" opacity="0.5"/><line x1="367.14" y1="40" x2="367.14" y2="220" stroke="#30363d" opacity="0.5"/><line x1="448.92" y1="40" x2="448.92" y2="220" stroke="#30363d" opacity="0.5"/><line x1="530.71" y1="40" x2="530.71" y2="220" stroke="#30363d" opacity="0.5"/><line x1="612.49" y1="40" x2="612.49" y2="220" stroke="#30363d" opacity="0.5"/><line x1="694.28" y1="40" x2="694.28" y2="220" stroke="#30363d" opacity="0.5"/><line x1="776.06" y1="40" x2="776.06" y2="220" stroke="#30363d" opacity="0.5"/><line x1="857.85" y1="40" x2="857.85" y2="220" stroke="#30363d" opacity="0.5"/>
    <line x1="40" y1="220" x2="860" y2="220" stroke="#30363d"/>
    <line x1="40" y1="40"   x2="40"   y2="220" stroke="#30363d"/>
    <path d="M 40.00 220.00 L 42.15 220.00 L 44.30 219.60 L 46.46 219.62 L 48.61 219.63 L 50.76 219.32 L 52.91 219.31 L 55.07 219.26 L 57.22 218.89 L 59.37 218.89 L 61.52 218.89 L 63.67 218.87 L 65.83 218.87 L 67.98 218.86 L 70.13 218.85 L 72.28 218.85 L 74.44 218.82 L 76.59 218.78 L 78.74 218.72 L 80.89 218.68 L 83.04 218.64 L 85.20 218.59 L 87.35 218.59 L 89.50 218.57 L 91.65 218.57 L 93.81 218.57 L 95.96 218.57 L 98.11 218.57 L 100.26 218.57 L 102.41 218.57 L 104.57 218.57 L 106.72 218.57 L 108.87 218.55 L 111.02 218.54 L 113.18 218.58 L 115.33 218.55 L 117.48 218.55 L 119.63 218.53 L 121.78 218.31 L 123.94 217.94 L 126.09 217.88 L 128.24 217.87 L 130.39 217.86 L 132.55 217.85 L 134.70 217.84 L 136.85 217.85 L 139.00 217.82 L 141.15 217.66 L 143.31 217.61 L 145.46 217.60 L 147.61 217.57 L 149.76 217.56 L 151.92 217.52 L 154.07 217.38 L 156.22 217.24 L 158.37 216.93 L 160.52 216.65 L 162.68 216.44 L 164.83 216.39 L 166.98 216.34 L 169.13 216.83 L 171.29 200.94 L 173.44 200.94 L 175.59 200.95 L 177.74 198.99 L 179.90 198.98 L 182.05 198.94 L 184.20 198.94 L 186.35 198.91 L 188.50 198.90 L 190.66 198.93 L 192.81 198.93 L 194.96 198.99 L 197.11 198.95 L 199.27 198.96 L 201.42 198.95 L 203.57 198.95 L 205.72 198.97 L 207.87 198.97 L 210.03 198.97 L 212.18 198.97 L 214.33 198.97 L 216.48 198.97 L 218.64 198.97 L 220.79 198.97 L 222.94 198.97 L 225.09 198.97 L 227.24 198.97 L 229.40 197.51 L 231.55 197.43 L 233.70 197.40 L 235.85 197.38 L 238.01 197.38 L 240.16 197.49 L 242.31 197.34 L 244.46 197.33 L 246.61 197.18 L 248.77 197.41 L 250.92 197.41 L 253.07 197.29 L 255.22 197.29 L 257.38 197.22 L 259.53 197.21 L 261.68 197.15 L 263.83 196.94 L 265.98 197.00 L 268.14 197.41 L 270.29 197.41 L 272.44 197.30 L 274.59 197.26 L 276.75 197.19 L 278.90 197.19 L 281.05 197.19 L 283.20 197.19 L 285.35 197.18 L 287.51 197.12 L 289.66 197.09 L 291.81 197.04 L 293.96 197.00 L 296.12 196.96 L 298.27 196.92 L 300.42 196.91 L 302.57 196.86 L 304.72 196.80 L 306.88 196.75 L 309.03 196.69 L 311.18 196.66 L 313.33 196.63 L 315.49 196.56 L 317.64 196.51 L 319.79 196.47 L 321.94 196.45 L 324.09 196.40 L 326.25 196.37 L 328.40 196.34 L 330.55 196.28 L 332.70 196.20 L 334.86 196.12 L 337.01 196.02 L 339.16 195.89 L 341.31 195.77 L 343.46 195.68 L 345.62 195.63 L 347.77 195.58 L 349.92 195.53 L 352.07 195.44 L 354.23 195.35 L 356.38 195.22 L 358.53 195.11 L 360.68 194.95 L 362.83 194.82 L 364.99 194.68 L 367.14 194.57 L 369.29 194.55 L 371.44 194.51 L 373.60 194.48 L 375.75 194.44 L 377.90 194.40 L 380.05 194.37 L 382.20 194.34 L 384.36 194.29 L 386.51 194.25 L 388.66 194.23 L 390.81 194.21 L 392.97 194.19 L 395.12 194.16 L 397.27 194.12 L 399.42 194.07 L 401.57 193.99 L 403.73 193.94 L 405.88 193.87 L 408.03 193.80 L 410.18 193.74 L 412.34 193.72 L 414.49 193.70 L 416.64 193.66 L 418.79 193.62 L 420.94 193.56 L 423.10 193.49 L 425.25 193.43 L 427.40 193.35 L 429.55 193.27 L 431.71 193.20 L 433.86 193.14 L 436.01 193.15 L 438.16 193.15 L 440.31 193.15 L 442.47 193.18 L 444.62 193.09 L 446.77 193.07 L 448.92 193.07 L 451.08 193.08 L 453.23 193.00 L 455.38 192.95 L 457.53 192.95 L 459.69 192.95 L 461.84 192.95 L 463.99 192.80 L 466.14 192.73 L 468.29 192.69 L 470.45 192.67 L 472.60 192.67 L 474.75 192.68 L 476.90 192.64 L 479.06 192.63 L 481.21 192.63 L 483.36 190.39 L 485.51 189.96 L 487.66 189.85 L 489.82 189.53 L 491.97 189.52 L 494.12 189.36 L 496.27 187.79 L 498.43 187.36 L 500.58 181.35 L 502.73 181.35 L 504.88 180.72 L 507.03 180.71 L 509.19 180.26 L 511.34 179.68 L 513.49 179.67 L 515.64 178.77 L 517.80 177.57 L 519.95 175.55 L 522.10 174.52 L 524.25 173.86 L 526.40 174.17 L 528.56 173.10 L 530.71 173.10 L 532.86 171.18 L 535.01 168.37 L 537.17 168.37 L 539.32 165.86 L 541.47 163.63 L 543.62 163.63 L 545.77 163.62 L 547.93 162.88 L 550.08 161.06 L 552.23 193.89 L 554.38 193.22 L 556.54 192.73 L 558.69 192.34 L 560.84 189.45 L 562.99 188.03 L 565.14 188.03 L 567.30 180.86 L 569.45 148.96 L 571.60 144.25 L 573.75 176.00 L 575.91 176.17 L 578.06 175.77 L 580.21 175.72 L 582.36 197.26 L 584.51 197.26 L 586.67 197.06 L 588.82 196.44 L 590.97 194.49 L 593.12 194.50 L 595.28 194.49 L 597.43 194.49 L 599.58 194.49 L 601.73 194.48 L 603.88 194.48 L 606.04 194.62 L 608.19 206.08 L 610.34 206.08 L 612.49 206.05 L 614.65 206.04 L 616.80 205.22 L 618.95 204.28 L 621.10 204.28 L 623.25 204.28 L 625.41 200.22 L 627.56 204.28 L 629.71 204.28 L 631.86 204.28 L 634.02 198.60 L 636.17 198.60 L 638.32 198.60 L 640.47 198.60 L 642.62 193.00 L 644.78 193.00 L 646.93 188.39 L 649.08 188.39 L 651.23 179.75 L 653.39 174.84 L 655.54 173.23 L 657.69 170.37 L 659.84 169.87 L 661.99 153.88 L 664.15 149.24 L 666.30 152.04 L 668.45 141.93 L 670.60 141.88 L 672.76 141.69 L 674.91 141.69 L 677.06 141.76 L 679.21 141.75 L 681.36 140.68 L 683.52 141.38 L 685.67 141.36 L 687.82 141.83 L 689.97 141.39 L 692.13 141.39 L 694.28 141.52 L 696.43 141.52 L 698.58 141.53 L 700.73 142.33 L 702.89 141.73 L 705.04 141.68 L 707.19 141.68 L 709.34 141.66 L 711.50 141.67 L 713.65 141.65 L 715.80 139.51 L 717.95 136.07 L 720.10 136.04 L 722.26 133.43 L 724.41 131.89 L 726.56 131.13 L 728.71 131.51 L 730.87 131.50 L 733.02 131.57 L 735.17 131.56 L 737.32 131.49 L 739.48 131.49 L 741.63 131.49 L 743.78 131.49 L 745.93 131.49 L 748.08 131.49 L 750.24 131.49 L 752.39 131.49 L 754.54 131.49 L 756.69 131.49 L 758.85 131.49 L 761.00 131.49 L 763.15 131.49 L 765.30 131.49 L 767.45 131.49 L 769.61 131.49 L 771.76 131.49 L 773.91 131.49 L 776.06 131.49 L 778.22 131.49 L 780.37 131.49 L 782.52 131.49 L 784.67 131.49 L 786.82 131.49 L 788.98 131.49 L 791.13 131.49 L 793.28 131.49 L 795.43 131.49 L 797.59 131.49 L 799.74 131.49 L 801.89 131.49 L 804.04 131.49 L 806.19 131.49 L 808.35 131.49 L 810.50 131.49 L 812.65 131.49 L 814.80 131.49 L 816.96 131.49 L 819.11 131.49 L 821.26 131.49 L 823.41 131.49 L 825.56 131.49 L 827.72 131.49 L 829.87 131.49 L 832.02 131.49 L 834.17 131.49 L 836.33 131.49 L 838.48 131.49 L 840.63 131.49 L 842.78 131.49 L 844.93 131.49 L 847.09 131.49 L 849.24 131.49 L 851.39 131.49 L 853.54 131.49 L 855.70 131.49 L 857.85 131.49 L 860.00 131.49" fill="none" stroke="#3fb950" stroke-width="2"/>
    <circle cx="860.00" cy="131.49" r="3" fill="#3fb950"/>
    <text x="40.00" y="235.00" font-size="9" fill="#c9d1d9" text-anchor="middle" transform="rotate(-45 40.00 235.00)">27.09.2025</text><text x="121.78" y="235.00" font-size="9" fill="#c9d1d9" text-anchor="middle" transform="rotate(-45 121.78 235.00)">28.09.2025</text><text x="203.57" y="235.00" font-size="9" fill="#c9d1d9" text-anchor="middle" transform="rotate(-45 203.57 235.00)">29.09.2025</text><text x="285.35" y="235.00" font-size="9" fill="#c9d1d9" text-anchor="middle" transform="rotate(-45 285.35 235.00)">04.10.2025</text><text x="367.14" y="235.00" font-size="9" fill="#c9d1d9" text-anchor="middle" transform="rotate(-45 367.14 235.00)">04.10.2025</text><text x="448.92" y="235.00" font-size="9" fill="#c9d1d9" text-anchor="middle" transform="rotate(-45 448.92 235.00)">04.10.2025</text><text x="530.71" y="235.00" font-size="9" fill="#c9d1d9" text-anchor="middle" transform="rotate(-45 530.71 235.00)">04.10.2025</text><text x="612.49" y="235.00" font-size="9" fill="#c9d1d9" text-anchor="middle" transform="rotate(-45 612.49 235.00)">05.10.2025</text><text x="694.28" y="235.00" font-size="9" fill="#c9d1d9" text-anchor="middle" transform="rotate(-45 694.28 235.00)">09.10.2025</text><text x="776.06" y="235.00" font-size="9" fill="#c9d1d9" text-anchor="middle" transform="rotate(-45 776.06 235.00)">27.10.2025</text><text x="857.85" y="235.00" font-size="9" fill="#c9d1d9" text-anchor="middle" transform="rotate(-45 857.85 235.00)">04.12.2025</text>
  </g>
</svg>