<svg xmlns="http://www.w3.org/2000/svg" width="900" height="290" style="font-family: -apple-system, BlinkMacSystemFont, 'Segoe UI', Helvetica, Arial, sans-serif;">
  <rect width="100%" height="100%" fill="#0d1117"/>
  <g>
    <line x1="40" y1="220.00" x2="860" y2="220.00" stroke="#30363d"/><text x="32" y="224.00" font-size="10" fill="#c9d1d9" text-anchor="end">0</text><line x1="40" y1="175.00" x2="860" y2="175.00" stroke="#30363d"/><text x="32" y="179.00" font-size="10" fill="#c9d1d9" text-anchor="end">25k</text><line x1="40" y1="130.00" x2="860" y2="130.00" stroke="#30363d"/><text x="32" y="134.00" font-size="10" fill="#c9d1d9" text-anchor="end">50k</text><line x1="40" y1="85.00" x2="860" y2="85.00" stroke="#30363d"/><text x="32" y="89.00" font-size="10" fill="#c9d1d9" text-anchor="end">75k</text><line x1="40" y1="40.00" x2="860" y2="40.00" stroke="#30363d"/><text x="32" y="44.00" font-size="10" fill="#c9d1d9" text-anchor="end">100k</text>
    <line x1="40.00" y1="40" x2="40.00" y2="220" stroke="#30363d" opacity="0.5"/><line x1="120.88" y1="40" x2="120.88" y2="220" stroke="#30363d" opacity="0.5"/><line x1="201.75" y1="40" x2="201.75" y2="220" stroke="#30363d" opacity="0.5"/><line x1="282.63" y1="40" x2="282.63" y2="220" stroke="#30363d" opacity="0.5"/><line x1="363.51" y1="40" x2="363.51" y2="220" stroke="#30363d" opacity="0.5"/><line x1="444.38" y1="40" x2="444.38" y2="220" stroke="#30363d" opacity="0.5"/><line x1="525.26" y1="40" x2="525.26" y2="220" stroke="#30363d" opacity="0.5"/><line x1="606.14" y1="40" x2="606.14" y2="220" stroke="#30363d" opacity="0.5"/><line x1="687.01" y1="40" x2="687.01" y2="220" stroke="#30363d" opacity="0.5"/><line x1="767.89" y1="40" x2="767.89" y2="220" stroke="#30363d" opacity="0.5"/><line x1="848.77" y1="40" x2="848.77" y2="220" stroke="#30363d" opacity="0.5"/>
    <line x1="40" y1="220" x2="860" y2="220" stroke="#30363d"/>
    <line x1="40" y1="40"   x2="40"   y2="220" stroke="#30363d"/>
    <path d="M 40.00 220.00 L 42.25 220.00 L 44.49 219.60 L 46.74 219.62 L 48.99 219.63 L 51.23 219.32 L 53.48 219.31 L 55.73 219.26 L 57.97 218.89 L 60.22 218.89 L 62.47 218.89 L 64.71 218.87 L 66.96 218.87 L 69.21 218.86 L 71.45 218.85 L 73.70 218.85 L 75.95 218.82 L 78.19 218.78 L 80.44 218.72 L 82.68 218.68 L 84.93 218.64 L 87.18 218.59 L 89.42 218.59 L 91.67 218.57 L 93.92 218.57 L 96.16 218.57 L 98.41 218.57 L 100.66 218.57 L 102.90 218.57 L 105.15 218.57 L 107.40 218.57 L 109.64 218.57 L 111.89 218.55 L 114.14 218.54 L 116.38 218.58 L 118.63 218.55 L 120.88 218.55 L 123.12 218.53 L 125.37 218.31 L 127.62 217.94 L 129.86 217.88 L 132.11 217.87 L 134.36 217.86 L 136.60 217.85 L 138.85 217.84 L 141.10 217.85 L 143.34 217.82 L 145.59 217.66 L 147.84 217.61 L 150.08 217.60 L 152.33 217.57 L 154.58 217.56 L 156.82 217.52 L 159.07 217.38 L 161.32 217.24 L 163.56 216.93 L 165.81 216.65 L 168.05 216.44 L 170.30 216.39 L 172.55 216.34 L 174.79 216.83 L 177.04 200.94 L 179.29 200.94 L 181.53 200.95 L 183.78 198.99 L 186.03 198.98 L 188.27 198.94 L 190.52 198.94 L 192.77 198.91 L 195.01 198.90 L 197.26 198.93 L 199.51 198.93 L 201.75 198.99 L 204.00 198.95 L 206.25 198.96 L 208.49 198.95 L 210.74 198.95 L 212.99 198.97 L 215.23 198.97 L 217.48 198.97 L 219.73 198.97 L 221.97 198.97 L 224.22 198.97 L 226.47 198.97 L 228.71 198.97 L 230.96 198.97 L 233.21 198.97 L 235.45 198.97 L 237.70 197.51 L 239.95 197.43 L 242.19 197.40 L 244.44 197.38 L 246.68 197.38 L 248.93 197.49 L 251.18 197.34 L 253.42 197.33 L 255.67 197.18 L 257.92 197.41 L 260.16 197.41 L 262.41 197.29 L 264.66 197.29 L 266.90 197.22 L 269.15 197.21 L 271.40 197.15 L 273.64 196.94 L 275.89 197.00 L 278.14 197.41 L 280.38 197.41 L 282.63 197.30 L 284.88 197.26 L 287.12 197.19 L 289.37 197.19 L 291.62 197.19 L 293.86 197.19 L 296.11 197.18 L 298.36 197.12 L 300.60 197.09 L 302.85 197.04 L 305.10 197.00 L 307.34 196.96 L 309.59 196.92 L 311.84 196.91 L 314.08 196.86 L 316.33 196.80 L 318.58 196.75 L 320.82 196.69 L 323.07 196.66 L 325.32 196.63 L 327.56 196.56 L 329.81 196.51 L 332.05 196.47 L 334.30 196.45 L 336.55 196.40 L 338.79 196.37 L 341.04 196.34 L 343.29 196.28 L 345.53 196.20 L 347.78 196.12 L 350.03 196.02 L 352.27 195.89 L 354.52 195.77 L 356.77 195.68 L 359.01 195.63 L 361.26 195.58 L 363.51 195.53 L 365.75 195.44 L 368.00 195.35 L 370.25 195.22 L 372.49 195.11 L 374.74 194.95 L 376.99 194.82 L 379.23 194.68 L 381.48 194.57 L 383.73 194.55 L 385.97 194.51 L 388.22 194.48 L 390.47 194.44 L 392.71 194.40 L 394.96 194.37 L 397.21 194.34 L 399.45 194.29 L 401.70 194.25 L 403.95 194.23 L 406.19 194.21 L 408.44 194.19 L 410.68 194.16 L 412.93 194.12 L 415.18 194.07 L 417.42 193.99 L 419.67 193.94 L 421.92 193.87 L 424.16 193.80 L 426.41 193.74 L 428.66 193.72 L 430.90 193.70 L 433.15 193.66 L 435.40 193.62 L 437.64 193.56 L 439.89 193.49 L 442.14 193.43 L 444.38 193.35 L 446.63 193.27 L 448.88 193.20 L 451.12 193.14 L 453.37 193.15 L 455.62 193.15 L 457.86 193.15 L 460.11 193.18 L 462.36 193.09 L 464.60 193.07 L 466.85 193.07 L 469.10 193.08 L 471.34 193.00 L 473.59 192.95 L 475.84 192.95 L 478.08 192.95 L 480.33 192.95 L 482.58 192.80 L 484.82 192.73 L 487.07 192.69 L 489.32 192.67 L 491.56 192.67 L 493.81 192.68 L 496.05 192.64 L 498.30 192.63 L 500.55 192.63 L 502.79 190.39 L 505.04 189.96 L 507.29 189.85 L 509.53 189.53 L 511.78 189.52 L 514.03 189.36 L 516.27 187.79 L 518.52 187.36 L 520.77 181.35 L 523.01 181.35 L 525.26 180.72 L 527.51 180.71 L 529.75 180.26 L 532.00 179.68 L 534.25 179.67 L 536.49 178.77 L 538.74 177.57 L 540.99 175.55 L 543.23 174.52 L 545.48 173.86 L 547.73 174.17 L 549.97 173.10 L 552.22 173.10 L 554.47 171.18 L 556.71 168.37 L 558.96 168.37 L 561.21 165.86 L 563.45 163.63 L 565.70 163.63 L 567.95 163.62 L 570.19 162.88 L 572.44 161.06 L 574.68 193.89 L 576.93 193.22 L 579.18 192.73 L 581.42 192.34 L 583.67 189.45 L 585.92 188.03 L 588.16 188.03 L 590.41 180.86 L 592.66 148.96 L 594.90 144.25 L 597.15 176.00 L 599.40 176.17 L 601.64 175.77 L 603.89 175.72 L 606.14 197.26 L 608.38 197.26 L 610.63 197.06 L 612.88 196.44 L 615.12 194.49 L 617.37 194.50 L 619.62 194.49 L 621.86 194.49 L 624.11 194.49 L 626.36 194.48 L 628.60 194.48 L 630.85 194.62 L 633.10 206.08 L 635.34 206.08 L 637.59 206.05 L 639.84 206.04 L 642.08 205.22 L 644.33 204.28 L 646.58 204.28 L 648.82 204.28 L 651.07 200.22 L 653.32 204.28 L 655.56 204.28 L 657.81 204.28 L 660.05 198.60 L 662.30 198.60 L 664.55 198.60 L 666.79 198.60 L 669.04 193.00 L 671.29 193.00 L 673.53 188.39 L 675.78 188.39 L 678.03 179.75 L 680.27 174.84 L 682.52 173.23 L 684.77 170.37 L 687.01 169.87 L 689.26 153.88 L 691.51 149.24 L 693.75 152.04 L 696.00 141.93 L 698.25 141.88 L 700.49 141.69 L 702.74 141.69 L 704.99 141.76 L 707.23 141.75 L 709.48 140.68 L 711.73 141.38 L 713.97 141.36 L 716.22 141.83 L 718.47 141.39 L 720.71 141.39 L 722.96 141.52 L 725.21 141.52 L 727.45 141.53 L 729.70 142.33 L 731.95 141.73 L 734.19 141.68 L 736.44 141.68 L 738.68 141.66 L 740.93 141.67 L 743.18 141.65 L 745.42 139.51 L 747.67 136.07 L 749.92 136.04 L 752.16 133.43 L 754.41 131.89 L 756.66 131.13 L 758.90 131.51 L 761.15 131.50 L 763.40 131.57 L 765.64 131.56 L 767.89 131.49 L 770.14 131.49 L 772.38 131.49 L 774.63 131.49 L 776.88 131.49 L 779.12 131.49 L 781.37 131.49 L 783.62 131.49 L 785.86 131.49 L 788.11 131.49 L 790.36 131.49 L 792.60 131.49 L 794.85 131.49 L 797.10 131.49 L 799.34 131.49 L 801.59 131.49 L 803.84 131.49 L 806.08 131.49 L 808.33 131.49 L 810.58 131.49 L 812.82 131.49 L 815.07 131.49 L 817.32 131.49 L 819.56 131.49 L 821.81 131.49 L 824.05 131.49 L 826.30 131.49 L 828.55 131.49 L 830.79 131.49 L 833.04 131.49 L 835.29 131.49 L 837.53 131.49 L 839.78 131.49 L 842.03 131.49 L 844.27 131.49 L 846.52 131.49 L 848.77 131.49 L 851.01 131.49 L 853.26 131.49 L 855.51 131.49 L 857.75 131.49 L 860.00 131.49" fill="none" stroke="#3fb950" stroke-width="2"/>
    <circle cx="860.00" cy="131.49" r="3" fill="#3fb950"/>
    <text x="40.00" y="235.00" font-size="9" fill="#c9d1d9" text-anchor="middle" transform="rotate(-45 40.00 235.00)">27.09.2025</text><text x="120.88" y="235.00" font-size="9" fill="#c9d1d9" text-anchor="middle" transform="rotate(-45 120.88 235.00)">28.09.2025</text><text x="201.75" y="235.00" font-size="9" fill="#c9d1d9" text-anchor="middle" transform="rotate(-45 201.75 235.00)">28.09.2025</text><text x="282.63" y="235.00" font-size="9" fill="#c9d1d9" text-anchor="middle" transform="rotate(-45 282.63 235.00)">30.09.2025</text><text x="363.51" y="235.00" font-size="9" fill="#c9d1d9" text-anchor="middle" transform="rotate(-45 363.51 235.00)">04.10.2025</text><text x="444.38" y="235.00" font-size="9" fill="#c9d1d9" text-anchor="middle" transform="rotate(-45 444.38 235.00)">04.10.2025</text><text x="525.26" y="235.00" font-size="9" fill="#c9d1d9" text-anchor="middle" transform="rotate(-45 525.26 235.00)">04.10.2025</text><text x="606.14" y="235.00" font-size="9" fill="#c9d1d9" text-anchor="middle" transform="rotate(-45 606.14 235.00)">05.10.2025</text><text x="687.01" y="235.00" font-size="9" fill="#c9d1d9" text-anchor="middle" transform="rotate(-45 687.01 235.00)">08.10.2025</text><text x="767.89" y="235.00" font-size="9" fill="#c9d1d9" text-anchor="middle" transform="rotate(-45 767.89 235.00)">10.10.2025</text><text x="848.77" y="235.00" font-size="9" fill="#c9d1d9" text-anchor="middle" transform="rotate(-45 848.77 235.00)">14.11.2025</text>
  </g>
</svg>