<svg xmlns="http://www.w3.org/2000/svg" width="900" height="290" style="font-family: -apple-system, BlinkMacSystemFont, 'Segoe UI', Helvetica, Arial, sans-serif;">
  <rect width="100%" height="100%" fill="white"/>
  <g>
    <line x1="40" y1="220.00" x2="860" y2="220.00" stroke="#e5e7eb"/><text x="32" y="224.00" font-size="10" fill="#111827" text-anchor="end">0</text><line x1="40" y1="175.00" x2="860" y2="175.00" stroke="#e5e7eb"/><text x="32" y="179.00" font-size="10" fill="#111827" text-anchor="end">25k</text><line x1="40" y1="130.00" x2="860" y2="130.00" stroke="#e5e7eb"/><text x="32" y="134.00" font-size="10" fill="#111827" text-anchor="end">50k</text><line x1="40" y1="85.00" x2="860" y2="85.00" stroke="#e5e7eb"/><text x="32" y="89.00" font-size="10" fill="#111827" text-anchor="end">75k</text><line x1="40" y1="40.00" x2="860" y2="40.00" stroke="#e5e7eb"/><text x="32" y="44.00" font-size="10" fill="#111827" text-anchor="end">100k</text>
    <line x1="40.00" y1="40" x2="40.00" y2="220" stroke="#e5e7eb" opacity="0.5"/><line x1="122.00" y1="40" x2="122.00" y2="220" stroke="#e5e7eb" opacity="0.5"/><line x1="204.00" y1="40" x2="204.00" y2="220" stroke="#e5e7eb" opacity="0.5"/><line x1="286.00" y1="40" x2="286.00" y2="220" stroke="#e5e7eb" opacity="0.5"/><line x1="368.00" y1="40" x2="368.00" y2="220" stroke="#e5e7eb" opacity="0.5"/><line x1="450.00" y1="40" x2="450.00" y2="220" stroke="#e5e7eb" opacity="0.5"/><line x1="532.00" y1="40" x2="532.00" y2="220" stroke="#e5e7eb" opacity="0.5"/><line x1="614.00" y1="40" x2="614.00" y2="220" stroke="#e5e7eb" opacity="0.5"/><line x1="696.00" y1="40" x2="696.00" y2="220" stroke="#e5e7eb" opacity="0.5"/><line x1="778.00" y1="40" x2="778.00" y2="220" stroke="#e5e7eb" opacity="0.5"/><line x1="860.00" y1="40" x2="860.00" y2="220" stroke="#e5e7eb" opacity="0.5"/>
    <line x1="40" y1="220" x2="860" y2="220" stroke="#9ca3af"/>
    <line x1="40" y1="40"   x2="40"   y2="220" stroke="#9ca3af"/>
    <path d="M 40.00 220.00 L 42.22 220.00 L 44.43 219.60 L 46.65 219.62 L 48.86 219.63 L 51.08 219.32 L 53.30 219.31 L 55.51 219.26 L 57.73 218.89 L 59.95 218.89 L 62.16 218.89 L 64.38 218.87 L 66.59 218.87 L 68.81 218.86 L 71.03 218.85 L 73.24 218.85 L 75.46 218.82 L 77.68 218.78 L 79.89 218.72 L 82.11 218.68 L 84.32 218.64 L 86.54 218.59 L 88.76 218.59 L 90.97 218.57 L 93.19 218.57 L 95.41 218.57 L 97.62 218.57 L 99.84 218.57 L 102.05 218.57 L 104.27 218.57 L 106.49 218.57 L 108.70 218.57 L 110.92 218.55 L 113.14 218.54 L 115.35 218.58 L 117.57 218.55 L 119.78 218.55 L 122.00 218.53 L 124.22 218.31 L 126.43 217.94 L 128.65 217.88 L 130.86 217.87 L 133.08 217.86 L 135.30 217.85 L 137.51 217.84 L 139.73 217.85 L 141.95 217.82 L 144.16 217.66 L 146.38 217.61 L 148.59 217.60 L 150.81 217.57 L 153.03 217.56 L 155.24 217.52 L 157.46 217.38 L 159.68 217.24 L 161.89 216.93 L 164.11 216.65 L 166.32 216.44 L 168.54 216.39 L 170.76 216.34 L 172.97 216.83 L 175.19 200.94 L 177.41 200.94 L 179.62 200.95 L 181.84 198.99 L 184.05 198.98 L 186.27 198.94 L 188.49 198.94 L 190.70 198.91 L 192.92 198.90 L 195.14 198.93 L 197.35 198.93 L 199.57 198.99 L 201.78 198.95 L 204.00 198.96 L 206.22 198.95 L 208.43 198.95 L 210.65 198.97 L 212.86 198.97 L 215.08 198.97 L 217.30 198.97 L 219.51 198.97 L 221.73 198.97 L 223.95 198.97 L 226.16 198.97 L 228.38 198.97 L 230.59 198.97 L 232.81 198.97 L 235.03 197.51 L 237.24 197.43 L 239.46 197.40 L 241.68 197.38 L 243.89 197.38 L 246.11 197.49 L 248.32 197.34 L 250.54 197.33 L 252.76 197.18 L 254.97 197.41 L 257.19 197.41 L 259.41 197.29 L 261.62 197.29 L 263.84 197.22 L 266.05 197.21 L 268.27 197.15 L 270.49 196.94 L 272.70 197.00 L 274.92 197.41 L 277.14 197.41 L 279.35 197.30 L 281.57 197.26 L 283.78 197.19 L 286.00 197.19 L 288.22 197.19 L 290.43 197.19 L 292.65 197.18 L 294.86 197.12 L 297.08 197.09 L 299.30 197.04 L 301.51 197.00 L 303.73 196.96 L 305.95 196.92 L 308.16 196.91 L 310.38 196.86 L 312.59 196.80 L 314.81 196.75 L 317.03 196.69 L 319.24 196.66 L 321.46 196.63 L 323.68 196.56 L 325.89 196.51 L 328.11 196.47 L 330.32 196.45 L 332.54 196.40 L 334.76 196.37 L 336.97 196.34 L 339.19 196.28 L 341.41 196.20 L 343.62 196.12 L 345.84 196.02 L 348.05 195.89 L 350.27 195.77 L 352.49 195.68 L 354.70 195.63 L 356.92 195.58 L 359.14 195.53 L 361.35 195.44 L 363.57 195.35 L 365.78 195.22 L 368.00 195.11 L 370.22 194.95 L 372.43 194.82 L 374.65 194.68 L 376.86 194.57 L 379.08 194.55 L 381.30 194.51 L 383.51 194.48 L 385.73 194.44 L 387.95 194.40 L 390.16 194.37 L 392.38 194.34 L 394.59 194.29 L 396.81 194.25 L 399.03 194.23 L 401.24 194.21 L 403.46 194.19 L 405.68 194.16 L 407.89 194.12 L 410.11 194.07 L 412.32 193.99 L 414.54 193.94 L 416.76 193.87 L 418.97 193.80 L 421.19 193.74 L 423.41 193.72 L 425.62 193.70 L 427.84 193.66 L 430.05 193.62 L 432.27 193.56 L 434.49 193.49 L 436.70 193.43 L 438.92 193.35 L 441.14 193.27 L 443.35 193.20 L 445.57 193.14 L 447.78 193.15 L 450.00 193.15 L 452.22 193.15 L 454.43 193.18 L 456.65 193.09 L 458.86 193.07 L 461.08 193.07 L 463.30 193.08 L 465.51 193.00 L 467.73 192.95 L 469.95 192.95 L 472.16 192.95 L 474.38 192.95 L 476.59 192.80 L 478.81 192.73 L 481.03 192.69 L 483.24 192.67 L 485.46 192.67 L 487.68 192.68 L 489.89 192.64 L 492.11 192.63 L 494.32 192.63 L 496.54 190.39 L 498.76 189.96 L 500.97 189.85 L 503.19 189.53 L 505.41 189.52 L 507.62 189.36 L 509.84 187.79 L 512.05 187.36 L 514.27 181.35 L 516.49 181.35 L 518.70 180.72 L 520.92 180.71 L 523.14 180.26 L 525.35 179.68 L 527.57 179.67 L 529.78 178.77 L 532.00 177.57 L 534.22 175.55 L 536.43 174.52 L 538.65 173.86 L 540.86 174.17 L 543.08 173.10 L 545.30 173.10 L 547.51 171.18 L 549.73 168.37 L 551.95 168.37 L 554.16 165.86 L 556.38 163.63 L 558.59 163.63 L 560.81 163.62 L 563.03 162.88 L 565.24 161.06 L 567.46 193.89 L 569.68 193.22 L 571.89 192.73 L 574.11 192.34 L 576.32 189.45 L 578.54 188.03 L 580.76 188.03 L 582.97 180.86 L 585.19 148.96 L 587.41 144.25 L 589.62 176.00 L 591.84 176.17 L 594.05 175.77 L 596.27 175.72 L 598.49 197.26 L 600.70 197.26 L 602.92 197.06 L 605.14 196.44 L 607.35 194.49 L 609.57 194.50 L 611.78 194.49 L 614.00 194.49 L 616.22 194.49 L 618.43 194.48 L 620.65 194.48 L 622.86 194.62 L 625.08 206.08 L 627.30 206.08 L 629.51 206.05 L 631.73 206.04 L 633.95 205.22 L 636.16 204.28 L 638.38 204.28 L 640.59 204.28 L 642.81 200.22 L 645.03 204.28 L 647.24 204.28 L 649.46 204.28 L 651.68 198.60 L 653.89 198.60 L 656.11 198.60 L 658.32 198.60 L 660.54 193.00 L 662.76 193.00 L 664.97 188.39 L 667.19 188.39 L 669.41 179.75 L 671.62 174.84 L 673.84 173.23 L 676.05 170.37 L 678.27 169.87 L 680.49 153.88 L 682.70 149.24 L 684.92 152.04 L 687.14 141.93 L 689.35 141.88 L 691.57 141.69 L 693.78 141.69 L 696.00 141.76 L 698.22 141.75 L 700.43 140.68 L 702.65 141.38 L 704.86 141.36 L 707.08 141.83 L 709.30 141.39 L 711.51 141.39 L 713.73 141.52 L 715.95 141.52 L 718.16 141.53 L 720.38 142.33 L 722.59 141.73 L 724.81 141.68 L 727.03 141.68 L 729.24 141.66 L 731.46 141.67 L 733.68 141.65 L 735.89 139.51 L 738.11 136.07 L 740.32 136.04 L 742.54 133.43 L 744.76 131.89 L 746.97 131.13 L 749.19 131.51 L 751.41 131.50 L 753.62 131.57 L 755.84 131.56 L 758.05 131.49 L 760.27 131.49 L 762.49 131.49 L 764.70 131.49 L 766.92 131.49 L 769.14 131.49 L 771.35 131.49 L 773.57 131.49 L 775.78 131.49 L 778.00 131.49 L 780.22 131.49 L 782.43 131.49 L 784.65 131.49 L 786.86 131.49 L 789.08 131.49 L 791.30 131.49 L 793.51 131.49 L 795.73 131.49 L 797.95 131.49 L 800.16 131.49 L 802.38 131.49 L 804.59 131.49 L 806.81 131.49 L 809.03 131.49 L 811.24 131.49 L 813.46 131.49 L 815.68 131.49 L 817.89 131.49 L 820.11 131.49 L 822.32 131.49 L 824.54 131.49 L 826.76 131.49 L 828.97 131.49 L 831.19 131.49 L 833.41 131.49 L 835.62 131.49 L 837.84 131.49 L 840.05 131.49 L 842.27 131.49 L 844.49 131.49 L 846.70 131.49 L 848.92 131.49 L 851.14 131.49 L 853.35 131.49 L 855.57 131.49 L 857.78 131.49 L 860.00 131.49" fill="none" stroke="#111827" stroke-width="2"/>
    <circle cx="860.00" cy="131.49" r="3" fill="#111827"/>
    <text x="40.00" y="235.00" font-size="9" fill="#111827" text-anchor="middle" transform="rotate(-45 40.00 235.00)">27.09.2025</text><text x="122.00" y="235.00" font-size="9" fill="#111827" text-anchor="middle" transform="rotate(-45 122.00 235.00)">28.09.2025</text><text x="204.00" y="235.00" font-size="9" fill="#111827" text-anchor="middle" transform="rotate(-45 204.00 235.00)">28.09.2025</text><text x="286.00" y="235.00" font-size="9" fill="#111827" text-anchor="middle" transform="rotate(-45 286.00 235.00)">04.10.2025</text><text x="368.00" y="235.00" font-size="9" fill="#111827" text-anchor="middle" transform="rotate(-45 368.00 235.00)">04.10.2025</text><text x="450.00" y="235.00" font-size="9" fill="#111827" text-anchor="middle" transform="rotate(-45 450.00 235.00)">04.10.2025</text><text x="532.00" y="235.00" font-size="9" fill="#111827" text-anchor="middle" transform="rotate(-45 532.00 235.00)">04.10.2025</text><text x="614.00" y="235.00" font-size="9" fill="#111827" text-anchor="middle" transform="rotate(-45 614.00 235.00)">05.10.2025</text><text x="696.00" y="235.00" font-size="9" fill="#111827" text-anchor="middle" transform="rotate(-45 696.00 235.00)">08.10.2025</text><text x="778.00" y="235.00" font-size="9" fill="#111827" text-anchor="middle" transform="rotate(-45 778.00 235.00)">18.10.2025</text><text x="860.00" y="235.00" font-size="9" fill="#111827" text-anchor="middle" transform="rotate(-45 860.00 235.00)">24.11.2025</text>
  </g>
</svg>