<svg xmlns="http://www.w3.org/2000/svg" width="900" height="290" style="font-family: -apple-system, BlinkMacSystemFont, 'Segoe UI', Helvetica, Arial, sans-serif;">
  <rect width="100%" height="100%" fill="#0d1117"/>
  <g>
    <line x1="40" y1="220.00" x2="860" y2="220.00" stroke="#30363d"/><text x="32" y="224.00" font-size="10" fill="#c9d1d9" text-anchor="end">0</text><line x1="40" y1="175.00" x2="860" y2="175.00" stroke="#30363d"/><text x="32" y="179.00" font-size="10" fill="#c9d1d9" text-anchor="end">25k</text><line x1="40" y1="130.00" x2="860" y2="130.00" stroke="#30363d"/><text x="32" y="134.00" font-size="10" fill="#c9d1d9" text-anchor="end">50k</text><line x1="40" y1="85.00" x2="860" y2="85.00" stroke="#30363d"/><text x="32" y="89.00" font-size="10" fill="#c9d1d9" text-anchor="end">75k</text><line x1="40" y1="40.00" x2="860" y2="40.00" stroke="#30363d"/><text x="32" y="44.00" font-size="10" fill="#c9d1d9" text-anchor="end">100k</text>
    <line x1="40.00" y1="40" x2="40.00" y2="220" stroke="#30363d" opacity="0.5"/><line x1="121.19" y1="40" x2="121.19" y2="220" stroke="#30363d" opacity="0.5"/><line x1="202.38" y1="40" x2="202.38" y2="220" stroke="#30363d" opacity="0.5"/><line x1="283.56" y1="40" x2="283.56" y2="220" stroke="#30363d" opacity="0.5"/><line x1="364.75" y1="40" x2="364.75" y2="220" stroke="#30363d" opacity="0.5"/><line x1="445.94" y1="40" x2="445.94" y2="220" stroke="#30363d" opacity="0.5"/><line x1="527.13" y1="40" x2="527.13" y2="220" stroke="#30363d" opacity="0.5"/><line x1="608.32" y1="40" x2="608.32" y2="220" stroke="#30363d" opacity="0.5"/><line x1="689.50" y1="40" x2="689.50" y2="220" stroke="#30363d" opacity="0.5"/><line x1="770.69" y1="40" x2="770.69" y2="220" stroke="#30363d" opacity="0.5"/><line x1="851.88" y1="40" x2="851.88" y2="220" stroke="#30363d" opacity="0.5"/>
    <line x1="40" y1="220" x2="860" y2="220" stroke="#30363d"/>
    <line x1="40" y1="40"   x2="40"   y2="220" stroke="#30363d"/>
    <path d="M 40.00 220.00 L 42.03 220.00 L 44.06 219.60 L 46.09 219.62 L 48.12 219.63 L 50.15 219.32 L 52.18 219.31 L 54.21 219.26 L 56.24 218.89 L 58.27 218.89 L 60.30 218.89 L 62.33 218.87 L 64.36 218.87 L 66.39 218.86 L 68.42 218.85 L 70.45 218.85 L 72.48 218.82 L 74.50 218.78 L 76.53 218.72 L 78.56 218.68 L 80.59 218.64 L 82.62 218.59 L 84.65 218.59 L 86.68 218.57 L 88.71 218.57 L 90.74 218.57 L 92.77 218.57 L 94.80 218.57 L 96.83 218.57 L 98.86 218.57 L 100.89 218.57 L 102.92 218.57 L 104.95 218.55 L 106.98 218.54 L 109.01 218.58 L 111.04 218.55 L 113.07 218.55 L 115.10 218.53 L 117.13 218.31 L 119.16 217.94 L 121.19 217.88 L 123.22 217.87 L 125.25 217.86 L 127.28 217.85 L 129.31 217.84 L 131.34 217.85 L 133.37 217.82 L 135.40 217.66 L 137.43 217.61 L 139.46 217.60 L 141.49 217.57 L 143.51 217.56 L 145.54 217.52 L 147.57 217.38 L 149.60 217.24 L 151.63 216.93 L 153.66 216.65 L 155.69 216.44 L 157.72 216.39 L 159.75 216.34 L 161.78 216.83 L 163.81 200.94 L 165.84 200.94 L 167.87 200.95 L 169.90 198.99 L 171.93 198.98 L 173.96 198.94 L 175.99 198.94 L 178.02 198.91 L 180.05 198.90 L 182.08 198.93 L 184.11 198.93 L 186.14 198.99 L 188.17 198.95 L 190.20 198.96 L 192.23 198.95 L 194.26 198.95 L 196.29 198.97 L 198.32 198.97 L 200.35 198.97 L 202.38 198.97 L 204.41 198.97 L 206.44 198.97 L 208.47 198.97 L 210.50 198.97 L 212.52 198.97 L 214.55 198.97 L 216.58 198.97 L 218.61 197.51 L 220.64 197.43 L 222.67 197.40 L 224.70 197.38 L 226.73 197.38 L 228.76 197.49 L 230.79 197.34 L 232.82 197.33 L 234.85 197.18 L 236.88 197.41 L 238.91 197.41 L 240.94 197.29 L 242.97 197.29 L 245.00 197.22 L 247.03 197.21 L 249.06 197.15 L 251.09 196.94 L 253.12 197.00 L 255.15 197.41 L 257.18 197.41 L 259.21 197.30 L 261.24 197.26 L 263.27 197.19 L 265.30 197.19 L 267.33 197.19 L 269.36 197.19 L 271.39 197.18 L 273.42 197.12 L 275.45 197.09 L 277.48 197.04 L 279.50 197.00 L 281.53 196.96 L 283.56 196.92 L 285.59 196.91 L 287.62 196.86 L 289.65 196.80 L 291.68 196.75 L 293.71 196.69 L 295.74 196.66 L 297.77 196.63 L 299.80 196.56 L 301.83 196.51 L 303.86 196.47 L 305.89 196.45 L 307.92 196.40 L 309.95 196.37 L 311.98 196.34 L 314.01 196.28 L 316.04 196.20 L 318.07 196.12 L 320.10 196.02 L 322.13 195.89 L 324.16 195.77 L 326.19 195.68 L 328.22 195.63 L 330.25 195.58 L 332.28 195.53 L 334.31 195.44 L 336.34 195.35 L 338.37 195.22 L 340.40 195.11 L 342.43 194.95 L 344.46 194.82 L 346.49 194.68 L 348.51 194.57 L 350.54 194.55 L 352.57 194.51 L 354.60 194.48 L 356.63 194.44 L 358.66 194.40 L 360.69 194.37 L 362.72 194.34 L 364.75 194.29 L 366.78 194.25 L 368.81 194.23 L 370.84 194.21 L 372.87 194.19 L 374.90 194.16 L 376.93 194.12 L 378.96 194.07 L 380.99 193.99 L 383.02 193.94 L 385.05 193.87 L 387.08 193.80 L 389.11 193.74 L 391.14 193.72 L 393.17 193.70 L 395.20 193.66 L 397.23 193.62 L 399.26 193.56 L 401.29 193.49 L 403.32 193.43 L 405.35 193.35 L 407.38 193.27 L 409.41 193.20 L 411.44 193.14 L 413.47 193.15 L 415.50 193.15 L 417.52 193.15 L 419.55 193.18 L 421.58 193.09 L 423.61 193.07 L 425.64 193.07 L 427.67 193.08 L 429.70 193.00 L 431.73 192.95 L 433.76 192.95 L 435.79 192.95 L 437.82 192.95 L 439.85 192.80 L 441.88 192.73 L 443.91 192.69 L 445.94 192.67 L 447.97 192.67 L 450.00 192.68 L 452.03 192.64 L 454.06 192.63 L 456.09 192.63 L 458.12 190.39 L 460.15 189.96 L 462.18 189.85 L 464.21 189.53 L 466.24 189.52 L 468.27 189.36 L 470.30 187.79 L 472.33 187.36 L 474.36 181.35 L 476.39 181.35 L 478.42 180.72 L 480.45 180.71 L 482.48 180.26 L 484.50 179.68 L 486.53 179.67 L 488.56 178.77 L 490.59 177.57 L 492.62 175.55 L 494.65 174.52 L 496.68 173.86 L 498.71 174.17 L 500.74 173.10 L 502.77 173.10 L 504.80 171.18 L 506.83 168.37 L 508.86 168.37 L 510.89 165.86 L 512.92 163.63 L 514.95 163.63 L 516.98 163.62 L 519.01 162.88 L 521.04 161.06 L 523.07 193.89 L 525.10 193.22 L 527.13 192.73 L 529.16 192.34 L 531.19 189.45 L 533.22 188.03 L 535.25 188.03 L 537.28 180.86 L 539.31 148.96 L 541.34 144.25 L 543.37 176.00 L 545.40 176.17 L 547.43 175.77 L 549.46 175.72 L 551.49 197.26 L 553.51 197.26 L 555.54 197.06 L 557.57 196.44 L 559.60 194.49 L 561.63 194.50 L 563.66 194.49 L 565.69 194.49 L 567.72 194.49 L 569.75 194.48 L 571.78 194.48 L 573.81 194.62 L 575.84 206.08 L 577.87 206.08 L 579.90 206.05 L 581.93 206.04 L 583.96 205.22 L 585.99 204.28 L 588.02 204.28 L 590.05 204.28 L 592.08 200.22 L 594.11 204.28 L 596.14 204.28 L 598.17 204.28 L 600.20 198.60 L 602.23 198.60 L 604.26 198.60 L 606.29 198.60 L 608.32 193.00 L 610.35 193.00 L 612.38 188.39 L 614.41 188.39 L 616.44 179.75 L 618.47 174.84 L 620.50 173.23 L 622.52 170.37 L 624.55 169.87 L 626.58 153.88 L 628.61 149.24 L 630.64 152.04 L 632.67 141.93 L 634.70 141.88 L 636.73 141.69 L 638.76 141.69 L 640.79 141.76 L 642.82 141.75 L 644.85 140.68 L 646.88 141.38 L 648.91 141.36 L 650.94 141.83 L 652.97 141.39 L 655.00 141.39 L 657.03 141.52 L 659.06 141.52 L 661.09 141.53 L 663.12 142.33 L 665.15 141.73 L 667.18 141.68 L 669.21 141.68 L 671.24 141.66 L 673.27 141.67 L 675.30 141.65 L 677.33 139.51 L 679.36 136.07 L 681.39 136.04 L 683.42 133.43 L 685.45 131.89 L 687.48 131.13 L 689.50 131.51 L 691.53 131.50 L 693.56 131.57 L 695.59 131.56 L 697.62 131.49 L 699.65 131.49 L 701.68 131.49 L 703.71 131.49 L 705.74 131.49 L 707.77 131.49 L 709.80 131.49 L 711.83 131.49 L 713.86 131.49 L 715.89 131.49 L 717.92 131.49 L 719.95 131.49 L 721.98 131.49 L 724.01 131.49 L 726.04 131.49 L 728.07 131.49 L 730.10 131.49 L 732.13 131.49 L 734.16 131.49 L 736.19 131.49 L 738.22 131.49 L 740.25 131.49 L 742.28 131.49 L 744.31 131.49 L 746.34 131.49 L 748.37 131.49 L 750.40 131.49 L 752.43 131.49 L 754.46 131.49 L 756.49 131.49 L 758.51 131.49 L 760.54 131.49 L 762.57 131.49 L 764.60 131.49 L 766.63 131.49 L 768.66 131.49 L 770.69 131.49 L 772.72 131.49 L 774.75 131.49 L 776.78 131.49 L 778.81 131.49 L 780.84 131.49 L 782.87 131.49 L 784.90 131.49 L 786.93 131.49 L 788.96 131.49 L 790.99 131.49 L 793.02 131.49 L 795.05 131.49 L 797.08 131.49 L 799.11 131.49 L 801.14 131.49 L 803.17 131.49 L 805.20 131.49 L 807.23 131.49 L 809.26 131.49 L 811.29 131.49 L 813.32 131.49 L 815.35 131.49 L 817.38 131.49 L 819.41 131.49 L 821.44 131.49 L 823.47 131.49 L 825.50 131.49 L 827.52 131.49 L 829.55 131.49 L 831.58 131.49 L 833.61 131.49 L 835.64 131.49 L 837.67 131.49 L 839.70 131.49 L 841.73 131.49 L 843.76 131.49 L 845.79 131.49 L 847.82 131.49 L 849.85 131.49 L 851.88 131.49 L 853.91 131.49 L 855.94 131.49 L 857.97 131.49 L 860.00 131.49" fill="none" stroke="#3fb950" stroke-width="2"/>
    <circle cx="860.00" cy="131.49" r="3" fill="#3fb950"/>
    <text x="40.00" y="235.00" font-size="9" fill="#c9d1d9" text-anchor="middle" transform="rotate(-45 40.00 235.00)">27.09.2025</text><text x="121.19" y="235.00" font-size="9" fill="#c9d1d9" text-anchor="middle" transform="rotate(-45 121.19 235.00)">28.09.2025</text><text x="202.38" y="235.00" font-size="9" fill="#c9d1d9" text-anchor="middle" transform="rotate(-45 202.38 235.00)">29.09.2025</text><text x="283.56" y="235.00" font-size="9" fill="#c9d1d9" text-anchor="middle" transform="rotate(-45 283.56 235.00)">04.10.2025</text><text x="364.75" y="235.00" font-size="9" fill="#c9d1d9" text-anchor="middle" transform="rotate(-45 364.75 235.00)">04.10.2025</text><text x="445.94" y="235.00" font-size="9" fill="#c9d1d9" text-anchor="middle" transform="rotate(-45 445.94 235.00)">04.10.2025</text><text x="527.13" y="235.00" font-size="9" fill="#c9d1d9" text-anchor="middle" transform="rotate(-45 527.13 235.00)">04.10.2025</text><text x="608.32" y="235.00" font-size="9" fill="#c9d1d9" text-anchor="middle" transform="rotate(-45 608.32 235.00)">07.10.2025</text><text x="689.50" y="235.00" font-size="9" fill="#c9d1d9" text-anchor="middle" transform="rotate(-45 689.50 235.00)">09.10.2025</text><text x="770.69" y="235.00" font-size="9" fill="#c9d1d9" text-anchor="middle" transform="rotate(-45 770.69 235.00)">14.11.2025</text><text x="851.88" y="235.00" font-size="9" fill="#c9d1d9" text-anchor="middle" transform="rotate(-45 851.88 235.00)">24.12.2025</text>
  </g>
</svg>