<svg xmlns="http://www.w3.org/2000/svg" width="900" height="290" style="font-family: -apple-system, BlinkMacSystemFont, 'Segoe UI', Helvetica, Arial, sans-serif;">
  <rect width="100%" height="100%" fill="white"/>
  <g>
    <line x1="40" y1="220.00" x2="860" y2="220.00" stroke="#e5e7eb"/><text x="32" y="224.00" font-size="10" fill="#111827" text-anchor="end">0</text><line x1="40" y1="175.00" x2="860" y2="175.00" stroke="#e5e7eb"/><text x="32" y="179.00" font-size="10" fill="#111827" text-anchor="end">25k</text><line x1="40" y1="130.00" x2="860" y2="130.00" stroke="#e5e7eb"/><text x="32" y="134.00" font-size="10" fill="#111827" text-anchor="end">50k</text><line x1="40" y1="85.00" x2="860" y2="85.00" stroke="#e5e7eb"/><text x="32" y="89.00" font-size="10" fill="#111827" text-anchor="end">75k</text><line x1="40" y1="40.00" x2="860" y2="40.00" stroke="#e5e7eb"/><text x="32" y="44.00" font-size="10" fill="#111827" text-anchor="end">100k</text>
    <line x1="40.00" y1="40" x2="40.00" y2="220" stroke="#e5e7eb" opacity="0.5"/><line x1="120.30" y1="40" x2="120.30" y2="220" stroke="#e5e7eb" opacity="0.5"/><line x1="200.59" y1="40" x2="200.59" y2="220" stroke="#e5e7eb" opacity="0.5"/><line x1="280.89" y1="40" x2="280.89" y2="220" stroke="#e5e7eb" opacity="0.5"/><line x1="361.19" y1="40" x2="361.19" y2="220" stroke="#e5e7eb" opacity="0.5"/><line x1="441.48" y1="40" x2="441.48" y2="220" stroke="#e5e7eb" opacity="0.5"/><line x1="521.78" y1="40" x2="521.78" y2="220" stroke="#e5e7eb" opacity="0.5"/><line x1="602.08" y1="40" x2="602.08" y2="220" stroke="#e5e7eb" opacity="0.5"/><line x1="682.37" y1="40" x2="682.37" y2="220" stroke="#e5e7eb" opacity="0.5"/><line x1="762.67" y1="40" x2="762.67" y2="220" stroke="#e5e7eb" opacity="0.5"/><line x1="842.97" y1="40" x2="842.97" y2="220" stroke="#e5e7eb" opacity="0.5"/>
    <line x1="40" y1="220" x2="860" y2="220" stroke="#9ca3af"/>
    <line x1="40" y1="40"   x2="40"   y2="220" stroke="#9ca3af"/>
    <path d="M 40.00 220.00 L 42.43 220.00 L 44.87 219.60 L 47.30 219.62 L 49.73 219.63 L 52.17 219.32 L 54.60 219.31 L 57.03 219.26 L 59.47 218.89 L 61.90 218.89 L 64.33 218.89 L 66.77 218.87 L 69.20 218.87 L 71.63 218.86 L 74.07 218.85 L 76.50 218.85 L 78.93 218.82 L 81.36 218.78 L 83.80 218.72 L 86.23 218.68 L 88.66 218.64 L 91.10 218.59 L 93.53 218.59 L 95.96 218.57 L 98.40 218.57 L 100.83 218.57 L 103.26 218.57 L 105.70 218.57 L 108.13 218.57 L 110.56 218.57 L 113.00 218.57 L 115.43 218.57 L 117.86 218.55 L 120.30 218.54 L 122.73 218.58 L 125.16 218.55 L 127.60 218.55 L 130.03 218.53 L 132.46 218.31 L 134.90 217.94 L 137.33 217.88 L 139.76 217.87 L 142.20 217.86 L 144.63 217.85 L 147.06 217.84 L 149.50 217.85 L 151.93 217.82 L 154.36 217.66 L 156.80 217.61 L 159.23 217.60 L 161.66 217.57 L 164.09 217.56 L 166.53 217.52 L 168.96 217.38 L 171.39 217.24 L 173.83 216.93 L 176.26 216.65 L 178.69 216.44 L 181.13 216.39 L 183.56 216.34 L 185.99 216.83 L 188.43 200.94 L 190.86 200.94 L 193.29 200.95 L 195.73 198.99 L 198.16 198.98 L 200.59 198.94 L 203.03 198.94 L 205.46 198.91 L 207.89 198.90 L 210.33 198.93 L 212.76 198.93 L 215.19 198.99 L 217.63 198.95 L 220.06 198.96 L 222.49 198.95 L 224.93 198.95 L 227.36 198.97 L 229.79 198.97 L 232.23 198.97 L 234.66 198.97 L 237.09 198.97 L 239.53 198.97 L 241.96 198.97 L 244.39 198.97 L 246.82 198.97 L 249.26 198.97 L 251.69 198.97 L 254.12 197.51 L 256.56 197.43 L 258.99 197.40 L 261.42 197.38 L 263.86 197.38 L 266.29 197.49 L 268.72 197.34 L 271.16 197.33 L 273.59 197.18 L 276.02 197.41 L 278.46 197.41 L 280.89 197.29 L 283.32 197.29 L 285.76 197.22 L 288.19 197.21 L 290.62 197.15 L 293.06 196.94 L 295.49 197.00 L 297.92 197.41 L 300.36 197.41 L 302.79 197.30 L 305.22 197.26 L 307.66 197.19 L 310.09 197.19 L 312.52 197.19 L 314.96 197.19 L 317.39 197.18 L 319.82 197.12 L 322.26 197.09 L 324.69 197.04 L 327.12 197.00 L 329.55 196.96 L 331.99 196.92 L 334.42 196.91 L 336.85 196.86 L 339.29 196.80 L 341.72 196.75 L 344.15 196.69 L 346.59 196.66 L 349.02 196.63 L 351.45 196.56 L 353.89 196.51 L 356.32 196.47 L 358.75 196.45 L 361.19 196.40 L 363.62 196.37 L 366.05 196.34 L 368.49 196.28 L 370.92 196.20 L 373.35 196.12 L 375.79 196.02 L 378.22 195.89 L 380.65 195.77 L 383.09 195.68 L 385.52 195.63 L 387.95 195.58 L 390.39 195.53 L 392.82 195.44 L 395.25 195.35 L 397.69 195.22 L 400.12 195.11 L 402.55 194.95 L 404.99 194.82 L 407.42 194.68 L 409.85 194.57 L 412.28 194.55 L 414.72 194.51 L 417.15 194.48 L 419.58 194.44 L 422.02 194.40 L 424.45 194.37 L 426.88 194.34 L 429.32 194.29 L 431.75 194.25 L 434.18 194.23 L 436.62 194.21 L 439.05 194.19 L 441.48 194.16 L 443.92 194.12 L 446.35 194.07 L 448.78 193.99 L 451.22 193.94 L 453.65 193.87 L 456.08 193.80 L 458.52 193.74 L 460.95 193.72 L 463.38 193.70 L 465.82 193.66 L 468.25 193.62 L 470.68 193.56 L 473.12 193.49 L 475.55 193.43 L 477.98 193.35 L 480.42 193.27 L 482.85 193.20 L 485.28 193.14 L 487.72 193.15 L 490.15 193.15 L 492.58 193.15 L 495.01 193.18 L 497.45 193.09 L 499.88 193.07 L 502.31 193.07 L 504.75 193.08 L 507.18 193.00 L 509.61 192.95 L 512.05 192.95 L 514.48 192.95 L 516.91 192.95 L 519.35 192.80 L 521.78 192.73 L 524.21 192.69 L 526.65 192.67 L 529.08 192.67 L 531.51 192.68 L 533.95 192.64 L 536.38 192.63 L 538.81 192.63 L 541.25 190.39 L 543.68 189.96 L 546.11 189.85 L 548.55 189.53 L 550.98 189.52 L 553.41 189.36 L 555.85 187.79 L 558.28 187.36 L 560.71 181.35 L 563.15 181.35 L 565.58 180.72 L 568.01 180.71 L 570.45 180.26 L 572.88 179.68 L 575.31 179.67 L 577.74 178.77 L 580.18 177.57 L 582.61 175.55 L 585.04 174.52 L 587.48 173.86 L 589.91 174.17 L 592.34 173.10 L 594.78 173.10 L 597.21 171.18 L 599.64 168.37 L 602.08 168.37 L 604.51 165.86 L 606.94 163.63 L 609.38 163.63 L 611.81 163.62 L 614.24 162.88 L 616.68 161.06 L 619.11 193.89 L 621.54 193.22 L 623.98 192.73 L 626.41 192.34 L 628.84 189.45 L 631.28 188.03 L 633.71 188.03 L 636.14 180.86 L 638.58 148.96 L 641.01 144.25 L 643.44 176.00 L 645.88 176.17 L 648.31 175.77 L 650.74 175.72 L 653.18 197.26 L 655.61 197.26 L 658.04 197.06 L 660.47 196.44 L 662.91 194.49 L 665.34 194.50 L 667.77 194.49 L 670.21 194.49 L 672.64 194.49 L 675.07 194.48 L 677.51 194.48 L 679.94 194.62 L 682.37 206.08 L 684.81 206.08 L 687.24 206.05 L 689.67 206.04 L 692.11 205.22 L 694.54 204.28 L 696.97 204.28 L 699.41 204.28 L 701.84 200.22 L 704.27 204.28 L 706.71 204.28 L 709.14 204.28 L 711.57 198.60 L 714.01 198.60 L 716.44 198.60 L 718.87 198.60 L 721.31 193.00 L 723.74 193.00 L 726.17 188.39 L 728.61 188.39 L 731.04 179.75 L 733.47 174.84 L 735.91 173.23 L 738.34 170.37 L 740.77 169.87 L 743.20 153.88 L 745.64 149.24 L 748.07 152.04 L 750.50 141.93 L 752.94 141.88 L 755.37 141.69 L 757.80 141.69 L 760.24 141.76 L 762.67 141.75 L 765.10 140.68 L 767.54 141.38 L 769.97 141.36 L 772.40 141.83 L 774.84 141.39 L 777.27 141.39 L 779.70 141.52 L 782.14 141.52 L 784.57 141.53 L 787.00 142.33 L 789.44 141.73 L 791.87 141.68 L 794.30 141.68 L 796.74 141.66 L 799.17 141.67 L 801.60 141.65 L 804.04 139.51 L 806.47 136.07 L 808.90 136.04 L 811.34 133.43 L 813.77 131.89 L 816.20 131.13 L 818.64 131.51 L 821.07 131.50 L 823.50 131.57 L 825.93 131.56 L 828.37 131.49 L 830.80 131.49 L 833.23 131.49 L 835.67 131.49 L 838.10 131.49 L 840.53 131.49 L 842.97 131.49 L 845.40 131.49 L 847.83 131.49 L 850.27 131.49 L 852.70 131.49 L 855.13 131.49 L 857.57 131.49 L 860.00 131.49" fill="none" stroke="#111827" stroke-width="2"/>
    <circle cx="860.00" cy="131.49" r="3" fill="#111827"/>
    <text x="40.00" y="235.00" font-size="9" fill="#111827" text-anchor="middle" transform="rotate(-45 40.00 235.00)">27.09.2025</text><text x="120.30" y="235.00" font-size="9" fill="#111827" text-anchor="middle" transform="rotate(-45 120.30 235.00)">28.09.2025</text><text x="200.59" y="235.00" font-size="9" fill="#111827" text-anchor="middle" transform="rotate(-45 200.59 235.00)">28.09.2025</text><text x="280.89" y="235.00" font-size="9" fill="#111827" text-anchor="middle" transform="rotate(-45 280.89 235.00)">30.09.2025</text><text x="361.19" y="235.00" font-size="9" fill="#111827" text-anchor="middle" transform="rotate(-45 361.19 235.00)">04.10.2025</text><text x="441.48" y="235.00" font-size="9" fill="#111827" text-anchor="middle" transform="rotate(-45 441.48 235.00)">04.10.2025</text><text x="521.78" y="235.00" font-size="9" fill="#111827" text-anchor="middle" transform="rotate(-45 521.78 235.00)">04.10.2025</text><text x="602.08" y="235.00" font-size="9" fill="#111827" text-anchor="middle" transform="rotate(-45 602.08 235.00)">04.10.2025</text><text x="682.37" y="235.00" font-size="9" fill="#111827" text-anchor="middle" transform="rotate(-45 682.37 235.00)">05.10.2025</text><text x="762.67" y="235.00" font-size="9" fill="#111827" text-anchor="middle" transform="rotate(-45 762.67 235.00)">08.10.2025</text><text x="842.97" y="235.00" font-size="9" fill="#111827" text-anchor="middle" transform="rotate(-45 842.97 235.00)">15.10.2025</text>
  </g>
</svg>