<svg xmlns="http://www.w3.org/2000/svg" width="900" height="290" style="font-family: -apple-system, BlinkMacSystemFont, 'Segoe UI', Helvetica, Arial, sans-serif;">
  <rect width="100%" height="100%" fill="#0d1117"/>
  <g>
    <line x1="40" y1="220.00" x2="860" y2="220.00" stroke="#30363d"/><text x="32" y="224.00" font-size="10" fill="#c9d1d9" text-anchor="end">0</text><line x1="40" y1="175.00" x2="860" y2="175.00" stroke="#30363d"/><text x="32" y="179.00" font-size="10" fill="#c9d1d9" text-anchor="end">25k</text><line x1="40" y1="130.00" x2="860" y2="130.00" stroke="#30363d"/><text x="32" y="134.00" font-size="10" fill="#c9d1d9" text-anchor="end">50k</text><line x1="40" y1="85.00" x2="860" y2="85.00" stroke="#30363d"/><text x="32" y="89.00" font-size="10" fill="#c9d1d9" text-anchor="end">75k</text><line x1="40" y1="40.00" x2="860" y2="40.00" stroke="#30363d"/><text x="32" y="44.00" font-size="10" fill="#c9d1d9" text-anchor="end">100k</text>
    <line x1="40.00" y1="40" x2="40.00" y2="220" stroke="#30363d" opacity="0.5"/><line x1="121.53" y1="40" x2="121.53" y2="220" stroke="#30363d" opacity="0.5"/><line x1="203.07" y1="40" x2="203.07" y2="220" stroke="#30363d" opacity="0.5"/><line x1="284.60" y1="40" x2="284.60" y2="220" stroke="#30363d" opacity="0.5"/><line x1="366.14" y1="40" x2="366.14" y2="220" stroke="#30363d" opacity="0.5"/><line x1="447.67" y1="40" x2="447.67" y2="220" stroke="#30363d" opacity="0.5"/><line x1="529.20" y1="40" x2="529.20" y2="220" stroke="#30363d" opacity="0.5"/><line x1="610.74" y1="40" x2="610.74" y2="220" stroke="#30363d" opacity="0.5"/><line x1="692.27" y1="40" x2="692.27" y2="220" stroke="#30363d" opacity="0.5"/><line x1="773.81" y1="40" x2="773.81" y2="220" stroke="#30363d" opacity="0.5"/><line x1="855.34" y1="40" x2="855.34" y2="220" stroke="#30363d" opacity="0.5"/>
    <line x1="40" y1="220" x2="860" y2="220" stroke="#30363d"/>
    <line x1="40" y1="40"   x2="40"   y2="220" stroke="#30363d"/>
    <path d="M 40.00 220.00 L 42.33 220.00 L 44.66 219.60 L 46.99 219.62 L 49.32 219.63 L 51.65 219.32 L 53.98 219.31 L 56.31 219.26 L 58.64 218.89 L 60.97 218.89 L 63.30 218.89 L 65.62 218.87 L 67.95 218.87 L 70.28 218.86 L 72.61 218.85 L 74.94 218.85 L 77.27 218.82 L 79.60 218.78 L 81.93 218.72 L 84.26 218.68 L 86.59 218.64 L 88.92 218.59 L 91.25 218.59 L 93.58 218.57 L 95.91 218.57 L 98.24 218.57 L 100.57 218.57 L 102.90 218.57 L 105.23 218.57 L 107.56 218.57 L 109.89 218.57 L 112.22 218.57 L 114.55 218.55 L 116.88 218.54 L 119.20 218.58 L 121.53 218.55 L 123.86 218.55 L 126.19 218.53 L 128.52 218.31 L 130.85 217.94 L 133.18 217.88 L 135.51 217.87 L 137.84 217.86 L 140.17 217.85 L 142.50 217.84 L 144.83 217.85 L 147.16 217.82 L 149.49 217.66 L 151.82 217.61 L 154.15 217.60 L 156.48 217.57 L 158.81 217.56 L 161.14 217.52 L 163.47 217.38 L 165.80 217.24 L 168.12 216.93 L 170.45 216.65 L 172.78 216.44 L 175.11 216.39 L 177.44 216.34 L 179.77 216.83 L 182.10 200.94 L 184.43 200.94 L 186.76 200.95 L 189.09 198.99 L 191.42 198.98 L 193.75 198.94 L 196.08 198.94 L 198.41 198.91 L 200.74 198.90 L 203.07 198.93 L 205.40 198.93 L 207.73 198.99 L 210.06 198.95 L 212.39 198.96 L 214.72 198.95 L 217.05 198.95 L 219.38 198.97 L 221.70 198.97 L 224.03 198.97 L 226.36 198.97 L 228.69 198.97 L 231.02 198.97 L 233.35 198.97 L 235.68 198.97 L 238.01 198.97 L 240.34 198.97 L 242.67 198.97 L 245.00 197.51 L 247.33 197.43 L 249.66 197.40 L 251.99 197.38 L 254.32 197.38 L 256.65 197.49 L 258.98 197.34 L 261.31 197.33 L 263.64 197.18 L 265.97 197.41 L 268.30 197.41 L 270.62 197.29 L 272.95 197.29 L 275.28 197.22 L 277.61 197.21 L 279.94 197.15 L 282.27 196.94 L 284.60 197.00 L 286.93 197.41 L 289.26 197.41 L 291.59 197.30 L 293.92 197.26 L 296.25 197.19 L 298.58 197.19 L 300.91 197.19 L 303.24 197.19 L 305.57 197.18 L 307.90 197.12 L 310.23 197.09 L 312.56 197.04 L 314.89 197.00 L 317.22 196.96 L 319.55 196.92 L 321.88 196.91 L 324.20 196.86 L 326.53 196.80 L 328.86 196.75 L 331.19 196.69 L 333.52 196.66 L 335.85 196.63 L 338.18 196.56 L 340.51 196.51 L 342.84 196.47 L 345.17 196.45 L 347.50 196.40 L 349.83 196.37 L 352.16 196.34 L 354.49 196.28 L 356.82 196.20 L 359.15 196.12 L 361.48 196.02 L 363.81 195.89 L 366.14 195.77 L 368.47 195.68 L 370.80 195.63 L 373.12 195.58 L 375.45 195.53 L 377.78 195.44 L 380.11 195.35 L 382.44 195.22 L 384.77 195.11 L 387.10 194.95 L 389.43 194.82 L 391.76 194.68 L 394.09 194.57 L 396.42 194.55 L 398.75 194.51 L 401.08 194.48 L 403.41 194.44 L 405.74 194.40 L 408.07 194.37 L 410.40 194.34 L 412.73 194.29 L 415.06 194.25 L 417.39 194.23 L 419.72 194.21 L 422.05 194.19 L 424.38 194.16 L 426.70 194.12 L 429.03 194.07 L 431.36 193.99 L 433.69 193.94 L 436.02 193.87 L 438.35 193.80 L 440.68 193.74 L 443.01 193.72 L 445.34 193.70 L 447.67 193.66 L 450.00 193.62 L 452.33 193.56 L 454.66 193.49 L 456.99 193.43 L 459.32 193.35 L 461.65 193.27 L 463.98 193.20 L 466.31 193.14 L 468.64 193.15 L 470.97 193.15 L 473.30 193.15 L 475.62 193.18 L 477.95 193.09 L 480.28 193.07 L 482.61 193.07 L 484.94 193.08 L 487.27 193.00 L 489.60 192.95 L 491.93 192.95 L 494.26 192.95 L 496.59 192.95 L 498.92 192.80 L 501.25 192.73 L 503.58 192.69 L 505.91 192.67 L 508.24 192.67 L 510.57 192.68 L 512.90 192.64 L 515.23 192.63 L 517.56 192.63 L 519.89 190.39 L 522.22 189.96 L 524.55 189.85 L 526.88 189.53 L 529.20 189.52 L 531.53 189.36 L 533.86 187.79 L 536.19 187.36 L 538.52 181.35 L 540.85 181.35 L 543.18 180.72 L 545.51 180.71 L 547.84 180.26 L 550.17 179.68 L 552.50 179.67 L 554.83 178.77 L 557.16 177.57 L 559.49 175.55 L 561.82 174.52 L 564.15 173.86 L 566.48 174.17 L 568.81 173.10 L 571.14 173.10 L 573.47 171.18 L 575.80 168.37 L 578.12 168.37 L 580.45 165.86 L 582.78 163.63 L 585.11 163.63 L 587.44 163.62 L 589.77 162.88 L 592.10 161.06 L 594.43 193.89 L 596.76 193.22 L 599.09 192.73 L 601.42 192.34 L 603.75 189.45 L 606.08 188.03 L 608.41 188.03 L 610.74 180.86 L 613.07 148.96 L 615.40 144.25 L 617.73 176.00 L 620.06 176.17 L 622.39 175.77 L 624.72 175.72 L 627.05 197.26 L 629.38 197.26 L 631.70 197.06 L 634.03 196.44 L 636.36 194.49 L 638.69 194.50 L 641.02 194.49 L 643.35 194.49 L 645.68 194.49 L 648.01 194.48 L 650.34 194.48 L 652.67 194.62 L 655.00 206.08 L 657.33 206.08 L 659.66 206.05 L 661.99 206.04 L 664.32 205.22 L 666.65 204.28 L 668.98 204.28 L 671.31 204.28 L 673.64 200.22 L 675.97 204.28 L 678.30 204.28 L 680.62 204.28 L 682.95 198.60 L 685.28 198.60 L 687.61 198.60 L 689.94 198.60 L 692.27 193.00 L 694.60 193.00 L 696.93 188.39 L 699.26 188.39 L 701.59 179.75 L 703.92 174.84 L 706.25 173.23 L 708.58 170.37 L 710.91 169.87 L 713.24 153.88 L 715.57 149.24 L 717.90 152.04 L 720.23 141.93 L 722.56 141.88 L 724.89 141.69 L 727.22 141.69 L 729.55 141.76 L 731.88 141.75 L 734.20 140.68 L 736.53 141.38 L 738.86 141.36 L 741.19 141.83 L 743.52 141.39 L 745.85 141.39 L 748.18 141.52 L 750.51 141.52 L 752.84 141.53 L 755.17 142.33 L 757.50 141.73 L 759.83 141.68 L 762.16 141.68 L 764.49 141.66 L 766.82 141.67 L 769.15 141.65 L 771.48 139.51 L 773.81 136.07 L 776.14 136.04 L 778.47 133.43 L 780.80 131.89 L 783.12 131.13 L 785.45 131.51 L 787.78 131.50 L 790.11 131.57 L 792.44 131.56 L 794.77 131.49 L 797.10 131.49 L 799.43 131.49 L 801.76 131.49 L 804.09 131.49 L 806.42 131.49 L 808.75 131.49 L 811.08 131.49 L 813.41 131.49 L 815.74 131.49 L 818.07 131.49 L 820.40 131.49 L 822.73 131.49 L 825.06 131.49 L 827.39 131.49 L 829.72 131.49 L 832.05 131.49 L 834.38 131.49 L 836.70 131.49 L 839.03 131.49 L 841.36 131.49 L 843.69 131.49 L 846.02 131.49 L 848.35 131.49 L 850.68 131.49 L 853.01 131.49 L 855.34 131.49 L 857.67 131.49 L 860.00 131.49" fill="none" stroke="#3fb950" stroke-width="2"/>
    <circle cx="860.00" cy="131.49" r="3" fill="#3fb950"/>
    <text x="40.00" y="235.00" font-size="9" fill="#c9d1d9" text-anchor="middle" transform="rotate(-45 40.00 235.00)">27.09.2025</text><text x="121.53" y="235.00" font-size="9" fill="#c9d1d9" text-anchor="middle" transform="rotate(-45 121.53 235.00)">28.09.2025</text><text x="203.07" y="235.00" font-size="9" fill="#c9d1d9" text-anchor="middle" transform="rotate(-45 203.07 235.00)">28.09.2025</text><text x="284.60" y="235.00" font-size="9" fill="#c9d1d9" text-anchor="middle" transform="rotate(-45 284.60 235.00)">30.09.2025</text><text x="366.14" y="235.00" font-size="9" fill="#c9d1d9" text-anchor="middle" transform="rotate(-45 366.14 235.00)">04.10.2025</text><text x="447.67" y="235.00" font-size="9" fill="#c9d1d9" text-anchor="middle" transform="rotate(-45 447.67 235.00)">04.10.2025</text><text x="529.20" y="235.00" font-size="9" fill="#c9d1d9" text-anchor="middle" transform="rotate(-45 529.20 235.00)">04.10.2025</text><text x="610.74" y="235.00" font-size="9" fill="#c9d1d9" text-anchor="middle" transform="rotate(-45 610.74 235.00)">05.10.2025</text><text x="692.27" y="235.00" font-size="9" fill="#c9d1d9" text-anchor="middle" transform="rotate(-45 692.27 235.00)">07.10.2025</text><text x="773.81" y="235.00" font-size="9" fill="#c9d1d9" text-anchor="middle" transform="rotate(-45 773.81 235.00)">09.10.2025</text><text x="855.34" y="235.00" font-size="9" fill="#c9d1d9" text-anchor="middle" transform="rotate(-45 855.34 235.00)">04.11.2025</text>
  </g>
</svg>