<svg xmlns="http://www.w3.org/2000/svg" width="900" height="290" style="font-family: -apple-system, BlinkMacSystemFont, 'Segoe UI', Helvetica, Arial, sans-serif;">
  <rect width="100%" height="100%" fill="#0d1117"/>
  <g>
    <line x1="40" y1="220.00" x2="860" y2="220.00" stroke="#30363d"/><text x="32" y="224.00" font-size="10" fill="#c9d1d9" text-anchor="end">0</text><line x1="40" y1="175.00" x2="860" y2="175.00" stroke="#30363d"/><text x="32" y="179.00" font-size="10" fill="#c9d1d9" text-anchor="end">25k</text><line x1="40" y1="130.00" x2="860" y2="130.00" stroke="#30363d"/><text x="32" y="134.00" font-size="10" fill="#c9d1d9" text-anchor="end">50k</text><line x1="40" y1="85.00" x2="860" y2="85.00" stroke="#30363d"/><text x="32" y="89.00" font-size="10" fill="#c9d1d9" text-anchor="end">75k</text><line x1="40" y1="40.00" x2="860" y2="40.00" stroke="#30363d"/><text x="32" y="44.00" font-size="10" fill="#c9d1d9" text-anchor="end">100k</text>
    <line x1="40.00" y1="40" x2="40.00" y2="220" stroke="#30363d" opacity="0.5"/><line x1="120.82" y1="40" x2="120.82" y2="220" stroke="#30363d" opacity="0.5"/><line x1="201.63" y1="40" x2="201.63" y2="220" stroke="#30363d" opacity="0.5"/><line x1="282.45" y1="40" x2="282.45" y2="220" stroke="#30363d" opacity="0.5"/><line x1="363.27" y1="40" x2="363.27" y2="220" stroke="#30363d" opacity="0.5"/><line x1="444.09" y1="40" x2="444.09" y2="220" stroke="#30363d" opacity="0.5"/><line x1="524.90" y1="40" x2="524.90" y2="220" stroke="#30363d" opacity="0.5"/><line x1="605.72" y1="40" x2="605.72" y2="220" stroke="#30363d" opacity="0.5"/><line x1="686.54" y1="40" x2="686.54" y2="220" stroke="#30363d" opacity="0.5"/><line x1="767.36" y1="40" x2="767.36" y2="220" stroke="#30363d" opacity="0.5"/><line x1="848.17" y1="40" x2="848.17" y2="220" stroke="#30363d" opacity="0.5"/>
    <line x1="40" y1="220" x2="860" y2="220" stroke="#30363d"/>
    <line x1="40" y1="40"   x2="40"   y2="220" stroke="#30363d"/>
    <path d="M 40.00 220.00 L 41.97 220.00 L 43.94 219.60 L 45.91 219.62 L 47.88 219.63 L 49.86 219.32 L 51.83 219.31 L 53.80 219.26 L 55.77 218.89 L 57.74 218.89 L 59.71 218.89 L 61.68 218.87 L 63.65 218.87 L 65.62 218.86 L 67.60 218.85 L 69.57 218.85 L 71.54 218.82 L 73.51 218.78 L 75.48 218.72 L 77.45 218.68 L 79.42 218.64 L 81.39 218.59 L 83.37 218.59 L 85.34 218.57 L 87.31 218.57 L 89.28 218.57 L 91.25 218.57 L 93.22 218.57 L 95.19 218.57 L 97.16 218.57 L 99.13 218.57 L 101.11 218.57 L 103.08 218.55 L 105.05 218.54 L 107.02 218.58 L 108.99 218.55 L 110.96 218.55 L 112.93 218.53 L 114.90 218.31 L 116.88 217.94 L 118.85 217.88 L 120.82 217.87 L 122.79 217.86 L 124.76 217.85 L 126.73 217.84 L 128.70 217.85 L 130.67 217.82 L 132.64 217.66 L 134.62 217.61 L 136.59 217.60 L 138.56 217.57 L 140.53 217.56 L 142.50 217.52 L 144.47 217.38 L 146.44 217.24 L 148.41 216.93 L 150.38 216.65 L 152.36 216.44 L 154.33 216.39 L 156.30 216.34 L 158.27 216.83 L 160.24 200.94 L 162.21 200.94 L 164.18 200.95 L 166.15 198.99 L 168.12 198.98 L 170.10 198.94 L 172.07 198.94 L 174.04 198.91 L 176.01 198.90 L 177.98 198.93 L 179.95 198.93 L 181.92 198.99 L 183.89 198.95 L 185.87 198.96 L 187.84 198.95 L 189.81 198.95 L 191.78 198.97 L 193.75 198.97 L 195.72 198.97 L 197.69 198.97 L 199.66 198.97 L 201.63 198.97 L 203.61 198.97 L 205.58 198.97 L 207.55 198.97 L 209.52 198.97 L 211.49 198.97 L 213.46 197.51 L 215.43 197.43 L 217.40 197.40 L 219.38 197.38 L 221.35 197.38 L 223.32 197.49 L 225.29 197.34 L 227.26 197.33 L 229.23 197.18 L 231.20 197.41 L 233.17 197.41 L 235.14 197.29 L 237.12 197.29 L 239.09 197.22 L 241.06 197.21 L 243.03 197.15 L 245.00 196.94 L 246.97 197.00 L 248.94 197.41 L 250.91 197.41 L 252.88 197.30 L 254.86 197.26 L 256.83 197.19 L 258.80 197.19 L 260.77 197.19 L 262.74 197.19 L 264.71 197.18 L 266.68 197.12 L 268.65 197.09 L 270.62 197.04 L 272.60 197.00 L 274.57 196.96 L 276.54 196.92 L 278.51 196.91 L 280.48 196.86 L 282.45 196.80 L 284.42 196.75 L 286.39 196.69 L 288.37 196.66 L 290.34 196.63 L 292.31 196.56 L 294.28 196.51 L 296.25 196.47 L 298.22 196.45 L 300.19 196.40 L 302.16 196.37 L 304.13 196.34 L 306.11 196.28 L 308.08 196.20 L 310.05 196.12 L 312.02 196.02 L 313.99 195.89 L 315.96 195.77 L 317.93 195.68 L 319.90 195.63 L 321.88 195.58 L 323.85 195.53 L 325.82 195.44 L 327.79 195.35 L 329.76 195.22 L 331.73 195.11 L 333.70 194.95 L 335.67 194.82 L 337.64 194.68 L 339.62 194.57 L 341.59 194.55 L 343.56 194.51 L 345.53 194.48 L 347.50 194.44 L 349.47 194.40 L 351.44 194.37 L 353.41 194.34 L 355.38 194.29 L 357.36 194.25 L 359.33 194.23 L 361.30 194.21 L 363.27 194.19 L 365.24 194.16 L 367.21 194.12 L 369.18 194.07 L 371.15 193.99 L 373.12 193.94 L 375.10 193.87 L 377.07 193.80 L 379.04 193.74 L 381.01 193.72 L 382.98 193.70 L 384.95 193.66 L 386.92 193.62 L 388.89 193.56 L 390.87 193.49 L 392.84 193.43 L 394.81 193.35 L 396.78 193.27 L 398.75 193.20 L 400.72 193.14 L 402.69 193.15 L 404.66 193.15 L 406.63 193.15 L 408.61 193.18 L 410.58 193.09 L 412.55 193.07 L 414.52 193.07 L 416.49 193.08 L 418.46 193.00 L 420.43 192.95 L 422.40 192.95 L 424.38 192.95 L 426.35 192.95 L 428.32 192.80 L 430.29 192.73 L 432.26 192.69 L 434.23 192.67 L 436.20 192.67 L 438.17 192.68 L 440.14 192.64 L 442.12 192.63 L 444.09 192.63 L 446.06 190.39 L 448.03 189.96 L 450.00 189.85 L 451.97 189.53 L 453.94 189.52 L 455.91 189.36 L 457.88 187.79 L 459.86 187.36 L 461.83 181.35 L 463.80 181.35 L 465.77 180.72 L 467.74 180.71 L 469.71 180.26 L 471.68 179.68 L 473.65 179.67 L 475.62 178.77 L 477.60 177.57 L 479.57 175.55 L 481.54 174.52 L 483.51 173.86 L 485.48 174.17 L 487.45 173.10 L 489.42 173.10 L 491.39 171.18 L 493.37 168.37 L 495.34 168.37 L 497.31 165.86 L 499.28 163.63 L 501.25 163.63 L 503.22 163.62 L 505.19 162.88 L 507.16 161.06 L 509.13 193.89 L 511.11 193.22 L 513.08 192.73 L 515.05 192.34 L 517.02 189.45 L 518.99 188.03 L 520.96 188.03 L 522.93 180.86 L 524.90 148.96 L 526.88 144.25 L 528.85 176.00 L 530.82 176.17 L 532.79 175.77 L 534.76 175.72 L 536.73 197.26 L 538.70 197.26 L 540.67 197.06 L 542.64 196.44 L 544.62 194.49 L 546.59 194.50 L 548.56 194.49 L 550.53 194.49 L 552.50 194.49 L 554.47 194.48 L 556.44 194.48 L 558.41 194.62 L 560.38 206.08 L 562.36 206.08 L 564.33 206.05 L 566.30 206.04 L 568.27 205.22 L 570.24 204.28 L 572.21 204.28 L 574.18 204.28 L 576.15 200.22 L 578.12 204.28 L 580.10 204.28 L 582.07 204.28 L 584.04 198.60 L 586.01 198.60 L 587.98 198.60 L 589.95 198.60 L 591.92 193.00 L 593.89 193.00 L 595.87 188.39 L 597.84 188.39 L 599.81 179.75 L 601.78 174.84 L 603.75 173.23 L 605.72 170.37 L 607.69 169.87 L 609.66 153.88 L 611.63 149.24 L 613.61 152.04 L 615.58 141.93 L 617.55 141.88 L 619.52 141.69 L 621.49 141.69 L 623.46 141.76 L 625.43 141.75 L 627.40 140.68 L 629.38 141.38 L 631.35 141.36 L 633.32 141.83 L 635.29 141.39 L 637.26 141.39 L 639.23 141.52 L 641.20 141.52 L 643.17 141.53 L 645.14 142.33 L 647.12 141.73 L 649.09 141.68 L 651.06 141.68 L 653.03 141.66 L 655.00 141.67 L 656.97 141.65 L 658.94 139.51 L 660.91 136.07 L 662.88 136.04 L 664.86 133.43 L 666.83 131.89 L 668.80 131.13 L 670.77 131.51 L 672.74 131.50 L 674.71 131.57 L 676.68 131.56 L 678.65 131.49 L 680.62 131.49 L 682.60 131.49 L 684.57 131.49 L 686.54 131.49 L 688.51 131.49 L 690.48 131.49 L 692.45 131.49 L 694.42 131.49 L 696.39 131.49 L 698.37 131.49 L 700.34 131.49 L 702.31 131.49 L 704.28 131.49 L 706.25 131.49 L 708.22 131.49 L 710.19 131.49 L 712.16 131.49 L 714.13 131.49 L 716.11 131.49 L 718.08 131.49 L 720.05 131.49 L 722.02 131.49 L 723.99 131.49 L 725.96 131.49 L 727.93 131.49 L 729.90 131.49 L 731.88 131.49 L 733.85 131.49 L 735.82 131.49 L 737.79 131.49 L 739.76 131.49 L 741.73 131.49 L 743.70 131.49 L 745.67 131.49 L 747.64 131.49 L 749.62 131.49 L 751.59 131.49 L 753.56 131.49 L 755.53 131.49 L 757.50 131.49 L 759.47 131.49 L 761.44 131.49 L 763.41 131.49 L 765.38 131.49 L 767.36 131.49 L 769.33 131.49 L 771.30 131.49 L 773.27 131.49 L 775.24 131.49 L 777.21 131.49 L 779.18 131.49 L 781.15 131.49 L 783.12 131.49 L 785.10 131.49 L 787.07 131.49 L 789.04 131.49 L 791.01 131.49 L 792.98 131.49 L 794.95 131.49 L 796.92 131.49 L 798.89 131.49 L 800.87 131.49 L 802.84 131.49 L 804.81 131.49 L 806.78 131.49 L 808.75 131.49 L 810.72 131.49 L 812.69 131.49 L 814.66 131.49 L 816.63 131.49 L 818.61 131.49 L 820.58 131.49 L 822.55 131.49 L 824.52 131.49 L 826.49 131.49 L 828.46 131.49 L 830.43 131.49 L 832.40 131.49 L 834.38 131.49 L 836.35 131.49 L 838.32 131.49 L 840.29 131.49 L 842.26 131.49 L 844.23 131.49 L 846.20 131.49 L 848.17 131.49 L 850.14 131.49 L 852.12 131.49 L 854.09 131.49 L 856.06 131.49 L 858.03 131.49 L 860.00 131.49" fill="none" stroke="#3fb950" stroke-width="2"/>
    <circle cx="860.00" cy="131.49" r="3" fill="#3fb950"/>
    <text x="40.00" y="235.00" font-size="9" fill="#c9d1d9" text-anchor="middle" transform="rotate(-45 40.00 235.00)">27.09.2025</text><text x="120.82" y="235.00" font-size="9" fill="#c9d1d9" text-anchor="middle" transform="rotate(-45 120.82 235.00)">28.09.2025</text><text x="201.63" y="235.00" font-size="9" fill="#c9d1d9" text-anchor="middle" transform="rotate(-45 201.63 235.00)">29.09.2025</text><text x="282.45" y="235.00" font-size="9" fill="#c9d1d9" text-anchor="middle" transform="rotate(-45 282.45 235.00)">04.10.2025</text><text x="363.27" y="235.00" font-size="9" fill="#c9d1d9" text-anchor="middle" transform="rotate(-45 363.27 235.00)">04.10.2025</text><text x="444.09" y="235.00" font-size="9" fill="#c9d1d9" text-anchor="middle" transform="rotate(-45 444.09 235.00)">04.10.2025</text><text x="524.90" y="235.00" font-size="9" fill="#c9d1d9" text-anchor="middle" transform="rotate(-45 524.90 235.00)">05.10.2025</text><text x="605.72" y="235.00" font-size="9" fill="#c9d1d9" text-anchor="middle" transform="rotate(-45 605.72 235.00)">08.10.2025</text><text x="686.54" y="235.00" font-size="9" fill="#c9d1d9" text-anchor="middle" transform="rotate(-45 686.54 235.00)">13.10.2025</text><text x="767.36" y="235.00" font-size="9" fill="#c9d1d9" text-anchor="middle" transform="rotate(-45 767.36 235.00)">23.11.2025</text><text x="848.17" y="235.00" font-size="9" fill="#c9d1d9" text-anchor="middle" transform="rotate(-45 848.17 235.00)">03.01.2026</text>
  </g>
</svg>