<svg xmlns="http://www.w3.org/2000/svg" width="900" height="290" style="font-family: -apple-system, BlinkMacSystemFont, 'Segoe UI', Helvetica, Arial, sans-serif;">
  <rect width="100%" height="100%" fill="white"/>
  <g>
    <line x1="40" y1="220.00" x2="860" y2="220.00" stroke="#e5e7eb"/><text x="32" y="224.00" font-size="10" fill="#111827" text-anchor="end">0</text><line x1="40" y1="175.00" x2="860" y2="175.00" stroke="#e5e7eb"/><text x="32" y="179.00" font-size="10" fill="#111827" text-anchor="end">25k</text><line x1="40" y1="130.00" x2="860" y2="130.00" stroke="#e5e7eb"/><text x="32" y="134.00" font-size="10" fill="#111827" text-anchor="end">50k</text><line x1="40" y1="85.00" x2="860" y2="85.00" stroke="#e5e7eb"/><text x="32" y="89.00" font-size="10" fill="#111827" text-anchor="end">75k</text><line x1="40" y1="40.00" x2="860" y2="40.00" stroke="#e5e7eb"/><text x="32" y="44.00" font-size="10" fill="#111827" text-anchor="end">100k</text>
    <line x1="40.00" y1="40" x2="40.00" y2="220" stroke="#e5e7eb" opacity="0.5"/><line x1="122.00" y1="40" x2="122.00" y2="220" stroke="#e5e7eb" opacity="0.5"/><line x1="204.00" y1="40" x2="204.00" y2="220" stroke="#e5e7eb" opacity="0.5"/><line x1="286.00" y1="40" x2="286.00" y2="220" stroke="#e5e7eb" opacity="0.5"/><line x1="368.00" y1="40" x2="368.00" y2="220" stroke="#e5e7eb" opacity="0.5"/><line x1="450.00" y1="40" x2="450.00" y2="220" stroke="#e5e7eb" opacity="0.5"/><line x1="532.00" y1="40" x2="532.00" y2="220" stroke="#e5e7eb" opacity="0.5"/><line x1="614.00" y1="40" x2="614.00" y2="220" stroke="#e5e7eb" opacity="0.5"/><line x1="696.00" y1="40" x2="696.00" y2="220" stroke="#e5e7eb" opacity="0.5"/><line x1="778.00" y1="40" x2="778.00" y2="220" stroke="#e5e7eb" opacity="0.5"/><line x1="860.00" y1="40" x2="860.00" y2="220" stroke="#e5e7eb" opacity="0.5"/>
    <line x1="40" y1="220" x2="860" y2="220" stroke="#9ca3af"/>
    <line x1="40" y1="40"   x2="40"   y2="220" stroke="#9ca3af"/>
    <path d="M 40.00 220.00 L 41.78 220.00 L 43.57 219.60 L 45.35 219.62 L 47.13 219.63 L 48.91 219.32 L 50.70 219.31 L 52.48 219.26 L 54.26 218.89 L 56.04 218.89 L 57.83 218.89 L 59.61 218.87 L 61.39 218.87 L 63.17 218.86 L 64.96 218.85 L 66.74 218.85 L 68.52 218.82 L 70.30 218.78 L 72.09 218.72 L 73.87 218.68 L 75.65 218.64 L 77.43 218.59 L 79.22 218.59 L 81.00 218.57 L 82.78 218.57 L 84.57 218.57 L 86.35 218.57 L 88.13 218.57 L 89.91 218.57 L 91.70 218.57 L 93.48 218.57 L 95.26 218.57 L 97.04 218.55 L 98.83 218.54 L 100.61 218.58 L 102.39 218.55 L 104.17 218.55 L 105.96 218.53 L 107.74 218.31 L 109.52 217.94 L 111.30 217.88 L 113.09 217.87 L 114.87 217.86 L 116.65 217.85 L 118.43 217.84 L 120.22 217.85 L 122.00 217.82 L 123.78 217.66 L 125.57 217.61 L 127.35 217.60 L 129.13 217.57 L 130.91 217.56 L 132.70 217.52 L 134.48 217.38 L 136.26 217.24 L 138.04 216.93 L 139.83 216.65 L 141.61 216.44 L 143.39 216.39 L 145.17 216.34 L 146.96 216.83 L 148.74 200.94 L 150.52 200.94 L 152.30 200.95 L 154.09 198.99 L 155.87 198.98 L 157.65 198.94 L 159.43 198.94 L 161.22 198.91 L 163.00 198.90 L 164.78 198.93 L 166.57 198.93 L 168.35 198.99 L 170.13 198.95 L 171.91 198.96 L 173.70 198.95 L 175.48 198.95 L 177.26 198.97 L 179.04 198.97 L 180.83 198.97 L 182.61 198.97 L 184.39 198.97 L 186.17 198.97 L 187.96 198.97 L 189.74 198.97 L 191.52 198.97 L 193.30 198.97 L 195.09 198.97 L 196.87 197.51 L 198.65 197.43 L 200.43 197.40 L 202.22 197.38 L 204.00 197.38 L 205.78 197.49 L 207.57 197.34 L 209.35 197.33 L 211.13 197.18 L 212.91 197.41 L 214.70 197.41 L 216.48 197.29 L 218.26 197.29 L 220.04 197.22 L 221.83 197.21 L 223.61 197.15 L 225.39 196.94 L 227.17 197.00 L 228.96 197.41 L 230.74 197.41 L 232.52 197.30 L 234.30 197.26 L 236.09 197.19 L 237.87 197.19 L 239.65 197.19 L 241.43 197.19 L 243.22 197.18 L 245.00 197.12 L 246.78 197.09 L 248.57 197.04 L 250.35 197.00 L 252.13 196.96 L 253.91 196.92 L 255.70 196.91 L 257.48 196.86 L 259.26 196.80 L 261.04 196.75 L 262.83 196.69 L 264.61 196.66 L 266.39 196.63 L 268.17 196.56 L 269.96 196.51 L 271.74 196.47 L 273.52 196.45 L 275.30 196.40 L 277.09 196.37 L 278.87 196.34 L 280.65 196.28 L 282.43 196.20 L 284.22 196.12 L 286.00 196.02 L 287.78 195.89 L 289.57 195.77 L 291.35 195.68 L 293.13 195.63 L 294.91 195.58 L 296.70 195.53 L 298.48 195.44 L 300.26 195.35 L 302.04 195.22 L 303.83 195.11 L 305.61 194.95 L 307.39 194.82 L 309.17 194.68 L 310.96 194.57 L 312.74 194.55 L 314.52 194.51 L 316.30 194.48 L 318.09 194.44 L 319.87 194.40 L 321.65 194.37 L 323.43 194.34 L 325.22 194.29 L 327.00 194.25 L 328.78 194.23 L 330.57 194.21 L 332.35 194.19 L 334.13 194.16 L 335.91 194.12 L 337.70 194.07 L 339.48 193.99 L 341.26 193.94 L 343.04 193.87 L 344.83 193.80 L 346.61 193.74 L 348.39 193.72 L 350.17 193.70 L 351.96 193.66 L 353.74 193.62 L 355.52 193.56 L 357.30 193.49 L 359.09 193.43 L 360.87 193.35 L 362.65 193.27 L 364.43 193.20 L 366.22 193.14 L 368.00 193.15 L 369.78 193.15 L 371.57 193.15 L 373.35 193.18 L 375.13 193.09 L 376.91 193.07 L 378.70 193.07 L 380.48 193.08 L 382.26 193.00 L 384.04 192.95 L 385.83 192.95 L 387.61 192.95 L 389.39 192.95 L 391.17 192.80 L 392.96 192.73 L 394.74 192.69 L 396.52 192.67 L 398.30 192.67 L 400.09 192.68 L 401.87 192.64 L 403.65 192.63 L 405.43 192.63 L 407.22 190.39 L 409.00 189.96 L 410.78 189.85 L 412.57 189.53 L 414.35 189.52 L 416.13 189.36 L 417.91 187.79 L 419.70 187.36 L 421.48 181.35 L 423.26 181.35 L 425.04 180.72 L 426.83 180.71 L 428.61 180.26 L 430.39 179.68 L 432.17 179.67 L 433.96 178.77 L 435.74 177.57 L 437.52 175.55 L 439.30 174.52 L 441.09 173.86 L 442.87 174.17 L 444.65 173.10 L 446.43 173.10 L 448.22 171.18 L 450.00 168.37 L 451.78 168.37 L 453.57 165.86 L 455.35 163.63 L 457.13 163.63 L 458.91 163.62 L 460.70 162.88 L 462.48 161.06 L 464.26 193.89 L 466.04 193.22 L 467.83 192.73 L 469.61 192.34 L 471.39 189.45 L 473.17 188.03 L 474.96 188.03 L 476.74 180.86 L 478.52 148.96 L 480.30 144.25 L 482.09 176.00 L 483.87 176.17 L 485.65 175.77 L 487.43 175.72 L 489.22 197.26 L 491.00 197.26 L 492.78 197.06 L 494.57 196.44 L 496.35 194.49 L 498.13 194.50 L 499.91 194.49 L 501.70 194.49 L 503.48 194.49 L 505.26 194.48 L 507.04 194.48 L 508.83 194.62 L 510.61 206.08 L 512.39 206.08 L 514.17 206.05 L 515.96 206.04 L 517.74 205.22 L 519.52 204.28 L 521.30 204.28 L 523.09 204.28 L 524.87 200.22 L 526.65 204.28 L 528.43 204.28 L 530.22 204.28 L 532.00 198.60 L 533.78 198.60 L 535.57 198.60 L 537.35 198.60 L 539.13 193.00 L 540.91 193.00 L 542.70 188.39 L 544.48 188.39 L 546.26 179.75 L 548.04 174.84 L 549.83 173.23 L 551.61 170.37 L 553.39 169.87 L 555.17 153.88 L 556.96 149.24 L 558.74 152.04 L 560.52 141.93 L 562.30 141.88 L 564.09 141.69 L 565.87 141.69 L 567.65 141.76 L 569.43 141.75 L 571.22 140.68 L 573.00 141.38 L 574.78 141.36 L 576.57 141.83 L 578.35 141.39 L 580.13 141.39 L 581.91 141.52 L 583.70 141.52 L 585.48 141.53 L 587.26 142.33 L 589.04 141.73 L 590.83 141.68 L 592.61 141.68 L 594.39 141.66 L 596.17 141.67 L 597.96 141.65 L 599.74 139.51 L 601.52 136.07 L 603.30 136.04 L 605.09 133.43 L 606.87 131.89 L 608.65 131.13 L 610.43 131.51 L 612.22 131.50 L 614.00 131.57 L 615.78 131.56 L 617.57 131.49 L 619.35 131.49 L 621.13 131.49 L 622.91 131.49 L 624.70 131.49 L 626.48 131.49 L 628.26 131.49 L 630.04 131.49 L 631.83 131.49 L 633.61 131.49 L 635.39 131.49 L 637.17 131.49 L 638.96 131.49 L 640.74 131.49 L 642.52 131.49 L 644.30 131.49 L 646.09 131.49 L 647.87 131.49 L 649.65 131.49 L 651.43 131.49 L 653.22 131.49 L 655.00 131.49 L 656.78 131.49 L 658.57 131.49 L 660.35 131.49 L 662.13 131.49 L 663.91 131.49 L 665.70 131.49 L 667.48 131.49 L 669.26 131.49 L 671.04 131.49 L 672.83 131.49 L 674.61 131.49 L 676.39 131.49 L 678.17 131.49 L 679.96 131.49 L 681.74 131.49 L 683.52 131.49 L 685.30 131.49 L 687.09 131.49 L 688.87 131.49 L 690.65 131.49 L 692.43 131.49 L 694.22 131.49 L 696.00 131.49 L 697.78 131.49 L 699.57 131.49 L 701.35 131.49 L 703.13 131.49 L 704.91 131.49 L 706.70 131.49 L 708.48 131.49 L 710.26 131.49 L 712.04 131.49 L 713.83 131.49 L 715.61 131.49 L 717.39 131.49 L 719.17 131.49 L 720.96 131.49 L 722.74 131.49 L 724.52 131.49 L 726.30 131.49 L 728.09 131.49 L 729.87 131.49 L 731.65 131.49 L 733.43 131.49 L 735.22 131.49 L 737.00 131.49 L 738.78 131.49 L 740.57 131.49 L 742.35 131.49 L 744.13 131.49 L 745.91 131.49 L 747.70 131.49 L 749.48 131.49 L 751.26 131.49 L 753.04 131.49 L 754.83 131.49 L 756.61 131.49 L 758.39 131.49 L 760.17 131.49 L 761.96 131.49 L 763.74 131.49 L 765.52 131.49 L 767.30 131.49 L 769.09 131.49 L 770.87 131.49 L 772.65 131.49 L 774.43 131.49 L 776.22 131.49 L 778.00 131.49 L 779.78 131.49 L 781.57 131.49 L 783.35 131.49 L 785.13 131.49 L 786.91 131.49 L 788.70 131.49 L 790.48 131.49 L 792.26 131.49 L 794.04 131.49 L 795.83 131.49 L 797.61 131.49 L 799.39 131.49 L 801.17 131.49 L 802.96 131.49 L 804.74 131.49 L 806.52 131.49 L 808.30 131.49 L 810.09 131.49 L 811.87 131.49 L 813.65 131.49 L 815.43 131.49 L 817.22 131.49 L 819.00 131.49 L 820.78 131.49 L 822.57 131.49 L 824.35 131.49 L 826.13 131.49 L 827.91 131.49 L 829.70 131.49 L 831.48 131.49 L 833.26 131.49 L 835.04 131.49 L 836.83 131.49 L 838.61 131.49 L 840.39 131.49 L 842.17 131.49 L 843.96 131.49 L 845.74 131.49 L 847.52 131.49 L 849.30 131.49 L 851.09 131.49 L 852.87 131.49 L 854.65 131.49 L 856.43 131.49 L 858.22 131.49 L 860.00 131.49" fill="none" stroke="#111827" stroke-width="2"/>
    <circle cx="860.00" cy="131.49" r="3" fill="#111827"/>
    <text x="40.00" y="235.00" font-size="9" fill="#111827" text-anchor="middle" transform="rotate(-45 40.00 235.00)">27.09.2025</text><text x="122.00" y="235.00" font-size="9" fill="#111827" text-anchor="middle" transform="rotate(-45 122.00 235.00)">28.09.2025</text><text x="204.00" y="235.00" font-size="9" fill="#111827" text-anchor="middle" transform="rotate(-45 204.00 235.00)">29.09.2025</text><text x="286.00" y="235.00" font-size="9" fill="#111827" text-anchor="middle" transform="rotate(-45 286.00 235.00)">04.10.2025</text><text x="368.00" y="235.00" font-size="9" fill="#111827" text-anchor="middle" transform="rotate(-45 368.00 235.00)">04.10.2025</text><text x="450.00" y="235.00" font-size="9" fill="#111827" text-anchor="middle" transform="rotate(-45 450.00 235.00)">04.10.2025</text><text x="532.00" y="235.00" font-size="9" fill="#111827" text-anchor="middle" transform="rotate(-45 532.00 235.00)">07.10.2025</text><text x="614.00" y="235.00" font-size="9" fill="#111827" text-anchor="middle" transform="rotate(-45 614.00 235.00)">10.10.2025</text><text x="696.00" y="235.00" font-size="9" fill="#111827" text-anchor="middle" transform="rotate(-45 696.00 235.00)">22.11.2025</text><text x="778.00" y="235.00" font-size="9" fill="#111827" text-anchor="middle" transform="rotate(-45 778.00 235.00)">07.01.2026</text><text x="860.00" y="235.00" font-size="9" fill="#111827" text-anchor="middle" transform="rotate(-45 860.00 235.00)">19.02.2026</text>
  </g>
</svg>