<svg xmlns="http://www.w3.org/2000/svg" width="900" height="290" style="font-family: -apple-system, BlinkMacSystemFont, 'Segoe UI', Helvetica, Arial, sans-serif;">
  <rect width="100%" height="100%" fill="#0d1117"/>
  <g>
    <line x1="40" y1="220.00" x2="860" y2="220.00" stroke="#30363d"/><text x="32" y="224.00" font-size="10" fill="#c9d1d9" text-anchor="end">0</text><line x1="40" y1="175.00" x2="860" y2="175.00" stroke="#30363d"/><text x="32" y="179.00" font-size="10" fill="#c9d1d9" text-anchor="end">25k</text><line x1="40" y1="130.00" x2="860" y2="130.00" stroke="#30363d"/><text x="32" y="134.00" font-size="10" fill="#c9d1d9" text-anchor="end">50k</text><line x1="40" y1="85.00" x2="860" y2="85.00" stroke="#30363d"/><text x="32" y="89.00" font-size="10" fill="#c9d1d9" text-anchor="end">75k</text><line x1="40" y1="40.00" x2="860" y2="40.00" stroke="#30363d"/><text x="32" y="44.00" font-size="10" fill="#c9d1d9" text-anchor="end">100k</text>
    <line x1="40.00" y1="40" x2="40.00" y2="220" stroke="#30363d" opacity="0.5"/><line x1="122.00" y1="40" x2="122.00" y2="220" stroke="#30363d" opacity="0.5"/><line x1="204.00" y1="40" x2="204.00" y2="220" stroke="#30363d" opacity="0.5"/><line x1="286.00" y1="40" x2="286.00" y2="220" stroke="#30363d" opacity="0.5"/><line x1="368.00" y1="40" x2="368.00" y2="220" stroke="#30363d" opacity="0.5"/><line x1="450.00" y1="40" x2="450.00" y2="220" stroke="#30363d" opacity="0.5"/><line x1="532.00" y1="40" x2="532.00" y2="220" stroke="#30363d" opacity="0.5"/><line x1="614.00" y1="40" x2="614.00" y2="220" stroke="#30363d" opacity="0.5"/><line x1="696.00" y1="40" x2="696.00" y2="220" stroke="#30363d" opacity="0.5"/><line x1="778.00" y1="40" x2="778.00" y2="220" stroke="#30363d" opacity="0.5"/><line x1="860.00" y1="40" x2="860.00" y2="220" stroke="#30363d" opacity="0.5"/>
    <line x1="40" y1="220" x2="860" y2="220" stroke="#30363d"/>
    <line x1="40" y1="40"   x2="40"   y2="220" stroke="#30363d"/>
    <path d="M 40.00 220.00 L 42.34 220.00 L 44.69 219.60 L 47.03 219.62 L 49.37 219.63 L 51.71 219.32 L 54.06 219.31 L 56.40 219.26 L 58.74 218.89 L 61.09 218.89 L 63.43 218.89 L 65.77 218.87 L 68.11 218.87 L 70.46 218.86 L 72.80 218.85 L 75.14 218.85 L 77.49 218.82 L 79.83 218.78 L 82.17 218.72 L 84.51 218.68 L 86.86 218.64 L 89.20 218.59 L 91.54 218.59 L 93.89 218.57 L 96.23 218.57 L 98.57 218.57 L 100.91 218.57 L 103.26 218.57 L 105.60 218.57 L 107.94 218.57 L 110.29 218.57 L 112.63 218.57 L 114.97 218.55 L 117.31 218.54 L 119.66 218.58 L 122.00 218.55 L 124.34 218.55 L 126.69 218.53 L 129.03 218.31 L 131.37 217.94 L 133.71 217.88 L 136.06 217.87 L 138.40 217.86 L 140.74 217.85 L 143.09 217.84 L 145.43 217.85 L 147.77 217.82 L 150.11 217.66 L 152.46 217.61 L 154.80 217.60 L 157.14 217.57 L 159.49 217.56 L 161.83 217.52 L 164.17 217.38 L 166.51 217.24 L 168.86 216.93 L 171.20 216.65 L 173.54 216.44 L 175.89 216.39 L 178.23 216.34 L 180.57 216.83 L 182.91 200.94 L 185.26 200.94 L 187.60 200.95 L 189.94 198.99 L 192.29 198.98 L 194.63 198.94 L 196.97 198.94 L 199.31 198.91 L 201.66 198.90 L 204.00 198.93 L 206.34 198.93 L 208.69 198.99 L 211.03 198.95 L 213.37 198.96 L 215.71 198.95 L 218.06 198.95 L 220.40 198.97 L 222.74 198.97 L 225.09 198.97 L 227.43 198.97 L 229.77 198.97 L 232.11 198.97 L 234.46 198.97 L 236.80 198.97 L 239.14 198.97 L 241.49 198.97 L 243.83 198.97 L 246.17 197.51 L 248.51 197.43 L 250.86 197.40 L 253.20 197.38 L 255.54 197.38 L 257.89 197.49 L 260.23 197.34 L 262.57 197.33 L 264.91 197.18 L 267.26 197.41 L 269.60 197.41 L 271.94 197.29 L 274.29 197.29 L 276.63 197.22 L 278.97 197.21 L 281.31 197.15 L 283.66 196.94 L 286.00 197.00 L 288.34 197.41 L 290.69 197.41 L 293.03 197.30 L 295.37 197.26 L 297.71 197.19 L 300.06 197.19 L 302.40 197.19 L 304.74 197.19 L 307.09 197.18 L 309.43 197.12 L 311.77 197.09 L 314.11 197.04 L 316.46 197.00 L 318.80 196.96 L 321.14 196.92 L 323.49 196.91 L 325.83 196.86 L 328.17 196.80 L 330.51 196.75 L 332.86 196.69 L 335.20 196.66 L 337.54 196.63 L 339.89 196.56 L 342.23 196.51 L 344.57 196.47 L 346.91 196.45 L 349.26 196.40 L 351.60 196.37 L 353.94 196.34 L 356.29 196.28 L 358.63 196.20 L 360.97 196.12 L 363.31 196.02 L 365.66 195.89 L 368.00 195.77 L 370.34 195.68 L 372.69 195.63 L 375.03 195.58 L 377.37 195.53 L 379.71 195.44 L 382.06 195.35 L 384.40 195.22 L 386.74 195.11 L 389.09 194.95 L 391.43 194.82 L 393.77 194.68 L 396.11 194.57 L 398.46 194.55 L 400.80 194.51 L 403.14 194.48 L 405.49 194.44 L 407.83 194.40 L 410.17 194.37 L 412.51 194.34 L 414.86 194.29 L 417.20 194.25 L 419.54 194.23 L 421.89 194.21 L 424.23 194.19 L 426.57 194.16 L 428.91 194.12 L 431.26 194.07 L 433.60 193.99 L 435.94 193.94 L 438.29 193.87 L 440.63 193.80 L 442.97 193.74 L 445.31 193.72 L 447.66 193.70 L 450.00 193.66 L 452.34 193.62 L 454.69 193.56 L 457.03 193.49 L 459.37 193.43 L 461.71 193.35 L 464.06 193.27 L 466.40 193.20 L 468.74 193.14 L 471.09 193.15 L 473.43 193.15 L 475.77 193.15 L 478.11 193.18 L 480.46 193.09 L 482.80 193.07 L 485.14 193.07 L 487.49 193.08 L 489.83 193.00 L 492.17 192.95 L 494.51 192.95 L 496.86 192.95 L 499.20 192.95 L 501.54 192.80 L 503.89 192.73 L 506.23 192.69 L 508.57 192.67 L 510.91 192.67 L 513.26 192.68 L 515.60 192.64 L 517.94 192.63 L 520.29 192.63 L 522.63 190.39 L 524.97 189.96 L 527.31 189.85 L 529.66 189.53 L 532.00 189.52 L 534.34 189.36 L 536.69 187.79 L 539.03 187.36 L 541.37 181.35 L 543.71 181.35 L 546.06 180.72 L 548.40 180.71 L 550.74 180.26 L 553.09 179.68 L 555.43 179.67 L 557.77 178.77 L 560.11 177.57 L 562.46 175.55 L 564.80 174.52 L 567.14 173.86 L 569.49 174.17 L 571.83 173.10 L 574.17 173.10 L 576.51 171.18 L 578.86 168.37 L 581.20 168.37 L 583.54 165.86 L 585.89 163.63 L 588.23 163.63 L 590.57 163.62 L 592.91 162.88 L 595.26 161.06 L 597.60 193.89 L 599.94 193.22 L 602.29 192.73 L 604.63 192.34 L 606.97 189.45 L 609.31 188.03 L 611.66 188.03 L 614.00 180.86 L 616.34 148.96 L 618.69 144.25 L 621.03 176.00 L 623.37 176.17 L 625.71 175.77 L 628.06 175.72 L 630.40 197.26 L 632.74 197.26 L 635.09 197.06 L 637.43 196.44 L 639.77 194.49 L 642.11 194.50 L 644.46 194.49 L 646.80 194.49 L 649.14 194.49 L 651.49 194.48 L 653.83 194.48 L 656.17 194.62 L 658.51 206.08 L 660.86 206.08 L 663.20 206.05 L 665.54 206.04 L 667.89 205.22 L 670.23 204.28 L 672.57 204.28 L 674.91 204.28 L 677.26 200.22 L 679.60 204.28 L 681.94 204.28 L 684.29 204.28 L 686.63 198.60 L 688.97 198.60 L 691.31 198.60 L 693.66 198.60 L 696.00 193.00 L 698.34 193.00 L 700.69 188.39 L 703.03 188.39 L 705.37 179.75 L 707.71 174.84 L 710.06 173.23 L 712.40 170.37 L 714.74 169.87 L 717.09 153.88 L 719.43 149.24 L 721.77 152.04 L 724.11 141.93 L 726.46 141.88 L 728.80 141.69 L 731.14 141.69 L 733.49 141.76 L 735.83 141.75 L 738.17 140.68 L 740.51 141.38 L 742.86 141.36 L 745.20 141.83 L 747.54 141.39 L 749.89 141.39 L 752.23 141.52 L 754.57 141.52 L 756.91 141.53 L 759.26 142.33 L 761.60 141.73 L 763.94 141.68 L 766.29 141.68 L 768.63 141.66 L 770.97 141.67 L 773.31 141.65 L 775.66 139.51 L 778.00 136.07 L 780.34 136.04 L 782.69 133.43 L 785.03 131.89 L 787.37 131.13 L 789.71 131.51 L 792.06 131.50 L 794.40 131.57 L 796.74 131.56 L 799.09 131.49 L 801.43 131.49 L 803.77 131.49 L 806.11 131.49 L 808.46 131.49 L 810.80 131.49 L 813.14 131.49 L 815.49 131.49 L 817.83 131.49 L 820.17 131.49 L 822.51 131.49 L 824.86 131.49 L 827.20 131.49 L 829.54 131.49 L 831.89 131.49 L 834.23 131.49 L 836.57 131.49 L 838.91 131.49 L 841.26 131.49 L 843.60 131.49 L 845.94 131.49 L 848.29 131.49 L 850.63 131.49 L 852.97 131.49 L 855.31 131.49 L 857.66 131.49 L 860.00 131.49" fill="none" stroke="#3fb950" stroke-width="2"/>
    <circle cx="860.00" cy="131.49" r="3" fill="#3fb950"/>
    <text x="40.00" y="235.00" font-size="9" fill="#c9d1d9" text-anchor="middle" transform="rotate(-45 40.00 235.00)">27.09.2025</text><text x="122.00" y="235.00" font-size="9" fill="#c9d1d9" text-anchor="middle" transform="rotate(-45 122.00 235.00)">28.09.2025</text><text x="204.00" y="235.00" font-size="9" fill="#c9d1d9" text-anchor="middle" transform="rotate(-45 204.00 235.00)">28.09.2025</text><text x="286.00" y="235.00" font-size="9" fill="#c9d1d9" text-anchor="middle" transform="rotate(-45 286.00 235.00)">30.09.2025</text><text x="368.00" y="235.00" font-size="9" fill="#c9d1d9" text-anchor="middle" transform="rotate(-45 368.00 235.00)">04.10.2025</text><text x="450.00" y="235.00" font-size="9" fill="#c9d1d9" text-anchor="middle" transform="rotate(-45 450.00 235.00)">04.10.2025</text><text x="532.00" y="235.00" font-size="9" fill="#c9d1d9" text-anchor="middle" transform="rotate(-45 532.00 235.00)">04.10.2025</text><text x="614.00" y="235.00" font-size="9" fill="#c9d1d9" text-anchor="middle" transform="rotate(-45 614.00 235.00)">05.10.2025</text><text x="696.00" y="235.00" font-size="9" fill="#c9d1d9" text-anchor="middle" transform="rotate(-45 696.00 235.00)">07.10.2025</text><text x="778.00" y="235.00" font-size="9" fill="#c9d1d9" text-anchor="middle" transform="rotate(-45 778.00 235.00)">09.10.2025</text><text x="860.00" y="235.00" font-size="9" fill="#c9d1d9" text-anchor="middle" transform="rotate(-45 860.00 235.00)">04.11.2025</text>
  </g>
</svg>