<svg xmlns="http://www.w3.org/2000/svg" width="900" height="290" style="font-family: -apple-system, BlinkMacSystemFont, 'Segoe UI', Helvetica, Arial, sans-serif;">
  <rect width="100%" height="100%" fill="#0d1117"/>
  <g>
    <line x1="40" y1="220.00" x2="860" y2="220.00" stroke="#30363d"/><text x="32" y="224.00" font-size="10" fill="#c9d1d9" text-anchor="end">0</text><line x1="40" y1="175.00" x2="860" y2="175.00" stroke="#30363d"/><text x="32" y="179.00" font-size="10" fill="#c9d1d9" text-anchor="end">25k</text><line x1="40" y1="130.00" x2="860" y2="130.00" stroke="#30363d"/><text x="32" y="134.00" font-size="10" fill="#c9d1d9" text-anchor="end">50k</text><line x1="40" y1="85.00" x2="860" y2="85.00" stroke="#30363d"/><text x="32" y="89.00" font-size="10" fill="#c9d1d9" text-anchor="end">75k</text><line x1="40" y1="40.00" x2="860" y2="40.00" stroke="#30363d"/><text x="32" y="44.00" font-size="10" fill="#c9d1d9" text-anchor="end">100k</text>
    <line x1="40.00" y1="40" x2="40.00" y2="220" stroke="#30363d" opacity="0.5"/><line x1="121.59" y1="40" x2="121.59" y2="220" stroke="#30363d" opacity="0.5"/><line x1="203.18" y1="40" x2="203.18" y2="220" stroke="#30363d" opacity="0.5"/><line x1="284.78" y1="40" x2="284.78" y2="220" stroke="#30363d" opacity="0.5"/><line x1="366.37" y1="40" x2="366.37" y2="220" stroke="#30363d" opacity="0.5"/><line x1="447.96" y1="40" x2="447.96" y2="220" stroke="#30363d" opacity="0.5"/><line x1="529.55" y1="40" x2="529.55" y2="220" stroke="#30363d" opacity="0.5"/><line x1="611.14" y1="40" x2="611.14" y2="220" stroke="#30363d" opacity="0.5"/><line x1="692.74" y1="40" x2="692.74" y2="220" stroke="#30363d" opacity="0.5"/><line x1="774.33" y1="40" x2="774.33" y2="220" stroke="#30363d" opacity="0.5"/><line x1="855.92" y1="40" x2="855.92" y2="220" stroke="#30363d" opacity="0.5"/>
    <line x1="40" y1="220" x2="860" y2="220" stroke="#30363d"/>
    <line x1="40" y1="40"   x2="40"   y2="220" stroke="#30363d"/>
    <path d="M 40.00 220.00 L 42.04 220.00 L 44.08 219.60 L 46.12 219.62 L 48.16 219.63 L 50.20 219.32 L 52.24 219.31 L 54.28 219.26 L 56.32 218.89 L 58.36 218.89 L 60.40 218.89 L 62.44 218.87 L 64.48 218.87 L 66.52 218.86 L 68.56 218.85 L 70.60 218.85 L 72.64 218.82 L 74.68 218.78 L 76.72 218.72 L 78.76 218.68 L 80.80 218.64 L 82.84 218.59 L 84.88 218.59 L 86.92 218.57 L 88.96 218.57 L 91.00 218.57 L 93.03 218.57 L 95.07 218.57 L 97.11 218.57 L 99.15 218.57 L 101.19 218.57 L 103.23 218.57 L 105.27 218.55 L 107.31 218.54 L 109.35 218.58 L 111.39 218.55 L 113.43 218.55 L 115.47 218.53 L 117.51 218.31 L 119.55 217.94 L 121.59 217.88 L 123.63 217.87 L 125.67 217.86 L 127.71 217.85 L 129.75 217.84 L 131.79 217.85 L 133.83 217.82 L 135.87 217.66 L 137.91 217.61 L 139.95 217.60 L 141.99 217.57 L 144.03 217.56 L 146.07 217.52 L 148.11 217.38 L 150.15 217.24 L 152.19 216.93 L 154.23 216.65 L 156.27 216.44 L 158.31 216.39 L 160.35 216.34 L 162.39 216.83 L 164.43 200.94 L 166.47 200.94 L 168.51 200.95 L 170.55 198.99 L 172.59 198.98 L 174.63 198.94 L 176.67 198.94 L 178.71 198.91 L 180.75 198.90 L 182.79 198.93 L 184.83 198.93 L 186.87 198.99 L 188.91 198.95 L 190.95 198.96 L 192.99 198.95 L 195.02 198.95 L 197.06 198.97 L 199.10 198.97 L 201.14 198.97 L 203.18 198.97 L 205.22 198.97 L 207.26 198.97 L 209.30 198.97 L 211.34 198.97 L 213.38 198.97 L 215.42 198.97 L 217.46 198.97 L 219.50 197.51 L 221.54 197.43 L 223.58 197.40 L 225.62 197.38 L 227.66 197.38 L 229.70 197.49 L 231.74 197.34 L 233.78 197.33 L 235.82 197.18 L 237.86 197.41 L 239.90 197.41 L 241.94 197.29 L 243.98 197.29 L 246.02 197.22 L 248.06 197.21 L 250.10 197.15 L 252.14 196.94 L 254.18 197.00 L 256.22 197.41 L 258.26 197.41 L 260.30 197.30 L 262.34 197.26 L 264.38 197.19 L 266.42 197.19 L 268.46 197.19 L 270.50 197.19 L 272.54 197.18 L 274.58 197.12 L 276.62 197.09 L 278.66 197.04 L 280.70 197.00 L 282.74 196.96 L 284.78 196.92 L 286.82 196.91 L 288.86 196.86 L 290.90 196.80 L 292.94 196.75 L 294.98 196.69 L 297.01 196.66 L 299.05 196.63 L 301.09 196.56 L 303.13 196.51 L 305.17 196.47 L 307.21 196.45 L 309.25 196.40 L 311.29 196.37 L 313.33 196.34 L 315.37 196.28 L 317.41 196.20 L 319.45 196.12 L 321.49 196.02 L 323.53 195.89 L 325.57 195.77 L 327.61 195.68 L 329.65 195.63 L 331.69 195.58 L 333.73 195.53 L 335.77 195.44 L 337.81 195.35 L 339.85 195.22 L 341.89 195.11 L 343.93 194.95 L 345.97 194.82 L 348.01 194.68 L 350.05 194.57 L 352.09 194.55 L 354.13 194.51 L 356.17 194.48 L 358.21 194.44 L 360.25 194.40 L 362.29 194.37 L 364.33 194.34 L 366.37 194.29 L 368.41 194.25 L 370.45 194.23 L 372.49 194.21 L 374.53 194.19 L 376.57 194.16 L 378.61 194.12 L 380.65 194.07 L 382.69 193.99 L 384.73 193.94 L 386.77 193.87 L 388.81 193.80 L 390.85 193.74 L 392.89 193.72 L 394.93 193.70 L 396.97 193.66 L 399.00 193.62 L 401.04 193.56 L 403.08 193.49 L 405.12 193.43 L 407.16 193.35 L 409.20 193.27 L 411.24 193.20 L 413.28 193.14 L 415.32 193.15 L 417.36 193.15 L 419.40 193.15 L 421.44 193.18 L 423.48 193.09 L 425.52 193.07 L 427.56 193.07 L 429.60 193.08 L 431.64 193.00 L 433.68 192.95 L 435.72 192.95 L 437.76 192.95 L 439.80 192.95 L 441.84 192.80 L 443.88 192.73 L 445.92 192.69 L 447.96 192.67 L 450.00 192.67 L 452.04 192.68 L 454.08 192.64 L 456.12 192.63 L 458.16 192.63 L 460.20 190.39 L 462.24 189.96 L 464.28 189.85 L 466.32 189.53 L 468.36 189.52 L 470.40 189.36 L 472.44 187.79 L 474.48 187.36 L 476.52 181.35 L 478.56 181.35 L 480.60 180.72 L 482.64 180.71 L 484.68 180.26 L 486.72 179.68 L 488.76 179.67 L 490.80 178.77 L 492.84 177.57 L 494.88 175.55 L 496.92 174.52 L 498.96 173.86 L 501.00 174.17 L 503.03 173.10 L 505.07 173.10 L 507.11 171.18 L 509.15 168.37 L 511.19 168.37 L 513.23 165.86 L 515.27 163.63 L 517.31 163.63 L 519.35 163.62 L 521.39 162.88 L 523.43 161.06 L 525.47 193.89 L 527.51 193.22 L 529.55 192.73 L 531.59 192.34 L 533.63 189.45 L 535.67 188.03 L 537.71 188.03 L 539.75 180.86 L 541.79 148.96 L 543.83 144.25 L 545.87 176.00 L 547.91 176.17 L 549.95 175.77 L 551.99 175.72 L 554.03 197.26 L 556.07 197.26 L 558.11 197.06 L 560.15 196.44 L 562.19 194.49 L 564.23 194.50 L 566.27 194.49 L 568.31 194.49 L 570.35 194.49 L 572.39 194.48 L 574.43 194.48 L 576.47 194.62 L 578.51 206.08 L 580.55 206.08 L 582.59 206.05 L 584.63 206.04 L 586.67 205.22 L 588.71 204.28 L 590.75 204.28 L 592.79 204.28 L 594.83 200.22 L 596.87 204.28 L 598.91 204.28 L 600.95 204.28 L 602.99 198.60 L 605.02 198.60 L 607.06 198.60 L 609.10 198.60 L 611.14 193.00 L 613.18 193.00 L 615.22 188.39 L 617.26 188.39 L 619.30 179.75 L 621.34 174.84 L 623.38 173.23 L 625.42 170.37 L 627.46 169.87 L 629.50 153.88 L 631.54 149.24 L 633.58 152.04 L 635.62 141.93 L 637.66 141.88 L 639.70 141.69 L 641.74 141.69 L 643.78 141.76 L 645.82 141.75 L 647.86 140.68 L 649.90 141.38 L 651.94 141.36 L 653.98 141.83 L 656.02 141.39 L 658.06 141.39 L 660.10 141.52 L 662.14 141.52 L 664.18 141.53 L 666.22 142.33 L 668.26 141.73 L 670.30 141.68 L 672.34 141.68 L 674.38 141.66 L 676.42 141.67 L 678.46 141.65 L 680.50 139.51 L 682.54 136.07 L 684.58 136.04 L 686.62 133.43 L 688.66 131.89 L 690.70 131.13 L 692.74 131.51 L 694.78 131.50 L 696.82 131.57 L 698.86 131.56 L 700.90 131.49 L 702.94 131.49 L 704.98 131.49 L 707.01 131.49 L 709.05 131.49 L 711.09 131.49 L 713.13 131.49 L 715.17 131.49 L 717.21 131.49 L 719.25 131.49 L 721.29 131.49 L 723.33 131.49 L 725.37 131.49 L 727.41 131.49 L 729.45 131.49 L 731.49 131.49 L 733.53 131.49 L 735.57 131.49 L 737.61 131.49 L 739.65 131.49 L 741.69 131.49 L 743.73 131.49 L 745.77 131.49 L 747.81 131.49 L 749.85 131.49 L 751.89 131.49 L 753.93 131.49 L 755.97 131.49 L 758.01 131.49 L 760.05 131.49 L 762.09 131.49 L 764.13 131.49 L 766.17 131.49 L 768.21 131.49 L 770.25 131.49 L 772.29 131.49 L 774.33 131.49 L 776.37 131.49 L 778.41 131.49 L 780.45 131.49 L 782.49 131.49 L 784.53 131.49 L 786.57 131.49 L 788.61 131.49 L 790.65 131.49 L 792.69 131.49 L 794.73 131.49 L 796.77 131.49 L 798.81 131.49 L 800.85 131.49 L 802.89 131.49 L 804.93 131.49 L 806.97 131.49 L 809.00 131.49 L 811.04 131.49 L 813.08 131.49 L 815.12 131.49 L 817.16 131.49 L 819.20 131.49 L 821.24 131.49 L 823.28 131.49 L 825.32 131.49 L 827.36 131.49 L 829.40 131.49 L 831.44 131.49 L 833.48 131.49 L 835.52 131.49 L 837.56 131.49 L 839.60 131.49 L 841.64 131.49 L 843.68 131.49 L 845.72 131.49 L 847.76 131.49 L 849.80 131.49 L 851.84 131.49 L 853.88 131.49 L 855.92 131.49 L 857.96 131.49 L 860.00 131.49" fill="none" stroke="#3fb950" stroke-width="2"/>
    <circle cx="860.00" cy="131.49" r="3" fill="#3fb950"/>
    <text x="40.00" y="235.00" font-size="9" fill="#c9d1d9" text-anchor="middle" transform="rotate(-45 40.00 235.00)">27.09.2025</text><text x="121.59" y="235.00" font-size="9" fill="#c9d1d9" text-anchor="middle" transform="rotate(-45 121.59 235.00)">28.09.2025</text><text x="203.18" y="235.00" font-size="9" fill="#c9d1d9" text-anchor="middle" transform="rotate(-45 203.18 235.00)">29.09.2025</text><text x="284.78" y="235.00" font-size="9" fill="#c9d1d9" text-anchor="middle" transform="rotate(-45 284.78 235.00)">04.10.2025</text><text x="366.37" y="235.00" font-size="9" fill="#c9d1d9" text-anchor="middle" transform="rotate(-45 366.37 235.00)">04.10.2025</text><text x="447.96" y="235.00" font-size="9" fill="#c9d1d9" text-anchor="middle" transform="rotate(-45 447.96 235.00)">04.10.2025</text><text x="529.55" y="235.00" font-size="9" fill="#c9d1d9" text-anchor="middle" transform="rotate(-45 529.55 235.00)">04.10.2025</text><text x="611.14" y="235.00" font-size="9" fill="#c9d1d9" text-anchor="middle" transform="rotate(-45 611.14 235.00)">07.10.2025</text><text x="692.74" y="235.00" font-size="9" fill="#c9d1d9" text-anchor="middle" transform="rotate(-45 692.74 235.00)">09.10.2025</text><text x="774.33" y="235.00" font-size="9" fill="#c9d1d9" text-anchor="middle" transform="rotate(-45 774.33 235.00)">14.11.2025</text><text x="855.92" y="235.00" font-size="9" fill="#c9d1d9" text-anchor="middle" transform="rotate(-45 855.92 235.00)">24.12.2025</text>
  </g>
</svg>