<svg xmlns="http://www.w3.org/2000/svg" width="900" height="290" style="font-family: -apple-system, BlinkMacSystemFont, 'Segoe UI', Helvetica, Arial, sans-serif;">
  <rect width="100%" height="100%" fill="white"/>
  <g>
    <line x1="40" y1="220.00" x2="860" y2="220.00" stroke="#e5e7eb"/><text x="32" y="224.00" font-size="10" fill="#111827" text-anchor="end">0</text><line x1="40" y1="175.00" x2="860" y2="175.00" stroke="#e5e7eb"/><text x="32" y="179.00" font-size="10" fill="#111827" text-anchor="end">25k</text><line x1="40" y1="130.00" x2="860" y2="130.00" stroke="#e5e7eb"/><text x="32" y="134.00" font-size="10" fill="#111827" text-anchor="end">50k</text><line x1="40" y1="85.00" x2="860" y2="85.00" stroke="#e5e7eb"/><text x="32" y="89.00" font-size="10" fill="#111827" text-anchor="end">75k</text><line x1="40" y1="40.00" x2="860" y2="40.00" stroke="#e5e7eb"/><text x="32" y="44.00" font-size="10" fill="#111827" text-anchor="end">100k</text>
    <line x1="40.00" y1="40" x2="40.00" y2="220" stroke="#e5e7eb" opacity="0.5"/><line x1="122.20" y1="40" x2="122.20" y2="220" stroke="#e5e7eb" opacity="0.5"/><line x1="204.40" y1="40" x2="204.40" y2="220" stroke="#e5e7eb" opacity="0.5"/><line x1="286.60" y1="40" x2="286.60" y2="220" stroke="#e5e7eb" opacity="0.5"/><line x1="368.80" y1="40" x2="368.80" y2="220" stroke="#e5e7eb" opacity="0.5"/><line x1="451.00" y1="40" x2="451.00" y2="220" stroke="#e5e7eb" opacity="0.5"/><line x1="533.20" y1="40" x2="533.20" y2="220" stroke="#e5e7eb" opacity="0.5"/><line x1="615.40" y1="40" x2="615.40" y2="220" stroke="#e5e7eb" opacity="0.5"/><line x1="697.60" y1="40" x2="697.60" y2="220" stroke="#e5e7eb" opacity="0.5"/><line x1="779.80" y1="40" x2="779.80" y2="220" stroke="#e5e7eb" opacity="0.5"/>
    <line x1="40" y1="220" x2="860" y2="220" stroke="#9ca3af"/>
    <line x1="40" y1="40"   x2="40"   y2="220" stroke="#9ca3af"/>
    <path d="M 40.00 220.00 L 42.00 220.00 L 44.01 219.60 L 46.01 219.62 L 48.02 219.63 L 50.02 219.32 L 52.03 219.31 L 54.03 219.26 L 56.04 218.89 L 58.04 218.89 L 60.05 218.89 L 62.05 218.87 L 64.06 218.87 L 66.06 218.86 L 68.07 218.85 L 70.07 218.85 L 72.08 218.82 L 74.08 218.78 L 76.09 218.72 L 78.09 218.68 L 80.10 218.64 L 82.10 218.59 L 84.11 218.59 L 86.11 218.57 L 88.12 218.57 L 90.12 218.57 L 92.13 218.57 L 94.13 218.57 L 96.14 218.57 L 98.14 218.57 L 100.15 218.57 L 102.15 218.57 L 104.16 218.55 L 106.16 218.54 L 108.17 218.58 L 110.17 218.55 L 112.18 218.55 L 114.18 218.53 L 116.19 218.31 L 118.19 217.94 L 120.20 217.88 L 122.20 217.87 L 124.21 217.86 L 126.21 217.85 L 128.22 217.84 L 130.22 217.85 L 132.22 217.82 L 134.23 217.66 L 136.23 217.61 L 138.24 217.60 L 140.24 217.57 L 142.25 217.56 L 144.25 217.52 L 146.26 217.38 L 148.26 217.24 L 150.27 216.93 L 152.27 216.65 L 154.28 216.44 L 156.28 216.39 L 158.29 216.34 L 160.29 216.83 L 162.30 200.94 L 164.30 200.94 L 166.31 200.95 L 168.31 198.99 L 170.32 198.98 L 172.32 198.94 L 174.33 198.94 L 176.33 198.91 L 178.34 198.90 L 180.34 198.93 L 182.35 198.93 L 184.35 198.99 L 186.36 198.95 L 188.36 198.96 L 190.37 198.95 L 192.37 198.95 L 194.38 198.97 L 196.38 198.97 L 198.39 198.97 L 200.39 198.97 L 202.40 198.97 L 204.40 198.97 L 206.41 198.97 L 208.41 198.97 L 210.42 198.97 L 212.42 198.97 L 214.43 198.97 L 216.43 197.51 L 218.44 197.43 L 220.44 197.40 L 222.44 197.38 L 224.45 197.38 L 226.45 197.49 L 228.46 197.34 L 230.46 197.33 L 232.47 197.18 L 234.47 197.41 L 236.48 197.41 L 238.48 197.29 L 240.49 197.29 L 242.49 197.22 L 244.50 197.21 L 246.50 197.15 L 248.51 196.94 L 250.51 197.00 L 252.52 197.41 L 254.52 197.41 L 256.53 197.30 L 258.53 197.26 L 260.54 197.19 L 262.54 197.19 L 264.55 197.19 L 266.55 197.19 L 268.56 197.18 L 270.56 197.12 L 272.57 197.09 L 274.57 197.04 L 276.58 197.00 L 278.58 196.96 L 280.59 196.92 L 282.59 196.91 L 284.60 196.86 L 286.60 196.80 L 288.61 196.75 L 290.61 196.69 L 292.62 196.66 L 294.62 196.63 L 296.63 196.56 L 298.63 196.51 L 300.64 196.47 L 302.64 196.45 L 304.65 196.40 L 306.65 196.37 L 308.66 196.34 L 310.66 196.28 L 312.67 196.20 L 314.67 196.12 L 316.67 196.02 L 318.68 195.89 L 320.68 195.77 L 322.69 195.68 L 324.69 195.63 L 326.70 195.58 L 328.70 195.53 L 330.71 195.44 L 332.71 195.35 L 334.72 195.22 L 336.72 195.11 L 338.73 194.95 L 340.73 194.82 L 342.74 194.68 L 344.74 194.57 L 346.75 194.55 L 348.75 194.51 L 350.76 194.48 L 352.76 194.44 L 354.77 194.40 L 356.77 194.37 L 358.78 194.34 L 360.78 194.29 L 362.79 194.25 L 364.79 194.23 L 366.80 194.21 L 368.80 194.19 L 370.81 194.16 L 372.81 194.12 L 374.82 194.07 L 376.82 193.99 L 378.83 193.94 L 380.83 193.87 L 382.84 193.80 L 384.84 193.74 L 386.85 193.72 L 388.85 193.70 L 390.86 193.66 L 392.86 193.62 L 394.87 193.56 L 396.87 193.49 L 398.88 193.43 L 400.88 193.35 L 402.89 193.27 L 404.89 193.20 L 406.89 193.14 L 408.90 193.15 L 410.90 193.15 L 412.91 193.15 L 414.91 193.18 L 416.92 193.09 L 418.92 193.07 L 420.93 193.07 L 422.93 193.08 L 424.94 193.00 L 426.94 192.95 L 428.95 192.95 L 430.95 192.95 L 432.96 192.95 L 434.96 192.80 L 436.97 192.73 L 438.97 192.69 L 440.98 192.67 L 442.98 192.67 L 444.99 192.68 L 446.99 192.64 L 449.00 192.63 L 451.00 192.63 L 453.01 190.39 L 455.01 189.96 L 457.02 189.85 L 459.02 189.53 L 461.03 189.52 L 463.03 189.36 L 465.04 187.79 L 467.04 187.36 L 469.05 181.35 L 471.05 181.35 L 473.06 180.72 L 475.06 180.71 L 477.07 180.26 L 479.07 179.68 L 481.08 179.67 L 483.08 178.77 L 485.09 177.57 L 487.09 175.55 L 489.10 174.52 L 491.10 173.86 L 493.11 174.17 L 495.11 173.10 L 497.11 173.10 L 499.12 171.18 L 501.12 168.37 L 503.13 168.37 L 505.13 165.86 L 507.14 163.63 L 509.14 163.63 L 511.15 163.62 L 513.15 162.88 L 515.16 161.06 L 517.16 193.89 L 519.17 193.22 L 521.17 192.73 L 523.18 192.34 L 525.18 189.45 L 527.19 188.03 L 529.19 188.03 L 531.20 180.86 L 533.20 148.96 L 535.21 144.25 L 537.21 176.00 L 539.22 176.17 L 541.22 175.77 L 543.23 175.72 L 545.23 197.26 L 547.24 197.26 L 549.24 197.06 L 551.25 196.44 L 553.25 194.49 L 555.26 194.50 L 557.26 194.49 L 559.27 194.49 L 561.27 194.49 L 563.28 194.48 L 565.28 194.48 L 567.29 194.62 L 569.29 206.08 L 571.30 206.08 L 573.30 206.05 L 575.31 206.04 L 577.31 205.22 L 579.32 204.28 L 581.32 204.28 L 583.33 204.28 L 585.33 200.22 L 587.33 204.28 L 589.34 204.28 L 591.34 204.28 L 593.35 198.60 L 595.35 198.60 L 597.36 198.60 L 599.36 198.60 L 601.37 193.00 L 603.37 193.00 L 605.38 188.39 L 607.38 188.39 L 609.39 179.75 L 611.39 174.84 L 613.40 173.23 L 615.40 170.37 L 617.41 169.87 L 619.41 153.88 L 621.42 149.24 L 623.42 152.04 L 625.43 141.93 L 627.43 141.88 L 629.44 141.69 L 631.44 141.69 L 633.45 141.76 L 635.45 141.75 L 637.46 140.68 L 639.46 141.38 L 641.47 141.36 L 643.47 141.83 L 645.48 141.39 L 647.48 141.39 L 649.49 141.52 L 651.49 141.52 L 653.50 141.53 L 655.50 142.33 L 657.51 141.73 L 659.51 141.68 L 661.52 141.68 L 663.52 141.66 L 665.53 141.67 L 667.53 141.65 L 669.54 139.51 L 671.54 136.07 L 673.55 136.04 L 675.55 133.43 L 677.56 131.89 L 679.56 131.13 L 681.56 131.51 L 683.57 131.50 L 685.57 131.57 L 687.58 131.56 L 689.58 131.49 L 691.59 131.49 L 693.59 131.49 L 695.60 131.49 L 697.60 131.49 L 699.61 131.49 L 701.61 131.49 L 703.62 131.49 L 705.62 131.49 L 707.63 131.49 L 709.63 131.49 L 711.64 131.49 L 713.64 131.49 L 715.65 131.49 L 717.65 131.49 L 719.66 131.49 L 721.66 131.49 L 723.67 131.49 L 725.67 131.49 L 727.68 131.49 L 729.68 131.49 L 731.69 131.49 L 733.69 131.49 L 735.70 131.49 L 737.70 131.49 L 739.71 131.49 L 741.71 131.49 L 743.72 131.49 L 745.72 131.49 L 747.73 131.49 L 749.73 131.49 L 751.74 131.49 L 753.74 131.49 L 755.75 131.49 L 757.75 131.49 L 759.76 131.49 L 761.76 131.49 L 763.77 131.49 L 765.77 131.49 L 767.78 131.49 L 769.78 131.49 L 771.78 131.49 L 773.79 131.49 L 775.79 131.49 L 777.80 131.49 L 779.80 131.49 L 781.81 131.49 L 783.81 131.49 L 785.82 131.49 L 787.82 131.49 L 789.83 131.49 L 791.83 131.49 L 793.84 131.49 L 795.84 131.49 L 797.85 131.49 L 799.85 131.49 L 801.86 131.49 L 803.86 131.49 L 805.87 131.49 L 807.87 131.49 L 809.88 131.49 L 811.88 131.49 L 813.89 131.49 L 815.89 131.49 L 817.90 131.49 L 819.90 131.49 L 821.91 131.49 L 823.91 131.49 L 825.92 131.49 L 827.92 131.49 L 829.93 131.49 L 831.93 131.49 L 833.94 131.49 L 835.94 131.49 L 837.95 131.49 L 839.95 131.49 L 841.96 131.49 L 843.96 131.49 L 845.97 131.49 L 847.97 131.49 L 849.98 131.49 L 851.98 131.49 L 853.99 131.49 L 855.99 131.49 L 858.00 131.49 L 860.00 131.49" fill="none" stroke="#111827" stroke-width="2"/>
    <circle cx="860.00" cy="131.49" r="3" fill="#111827"/>
    <text x="40.00" y="235.00" font-size="9" fill="#111827" text-anchor="middle" transform="rotate(-45 40.00 235.00)">27.09.2025</text><text x="122.20" y="235.00" font-size="9" fill="#111827" text-anchor="middle" transform="rotate(-45 122.20 235.00)">28.09.2025</text><text x="204.40" y="235.00" font-size="9" fill="#111827" text-anchor="middle" transform="rotate(-45 204.40 235.00)">29.09.2025</text><text x="286.60" y="235.00" font-size="9" fill="#111827" text-anchor="middle" transform="rotate(-45 286.60 235.00)">04.10.2025</text><text x="368.80" y="235.00" font-size="9" fill="#111827" text-anchor="middle" transform="rotate(-45 368.80 235.00)">04.10.2025</text><text x="451.00" y="235.00" font-size="9" fill="#111827" text-anchor="middle" transform="rotate(-45 451.00 235.00)">04.10.2025</text><text x="533.20" y="235.00" font-size="9" fill="#111827" text-anchor="middle" transform="rotate(-45 533.20 235.00)">05.10.2025</text><text x="615.40" y="235.00" font-size="9" fill="#111827" text-anchor="middle" transform="rotate(-45 615.40 235.00)">08.10.2025</text><text x="697.60" y="235.00" font-size="9" fill="#111827" text-anchor="middle" transform="rotate(-45 697.60 235.00)">13.10.2025</text><text x="779.80" y="235.00" font-size="9" fill="#111827" text-anchor="middle" transform="rotate(-45 779.80 235.00)">23.11.2025</text>
  </g>
</svg>