<svg xmlns="http://www.w3.org/2000/svg" width="900" height="290" style="font-family: -apple-system, BlinkMacSystemFont, 'Segoe UI', Helvetica, Arial, sans-serif;">
  <rect width="100%" height="100%" fill="white"/>
  <g>
    <line x1="40" y1="220.00" x2="860" y2="220.00" stroke="#e5e7eb"/><text x="32" y="224.00" font-size="10" fill="#111827" text-anchor="end">0</text><line x1="40" y1="175.00" x2="860" y2="175.00" stroke="#e5e7eb"/><text x="32" y="179.00" font-size="10" fill="#111827" text-anchor="end">25k</text><line x1="40" y1="130.00" x2="860" y2="130.00" stroke="#e5e7eb"/><text x="32" y="134.00" font-size="10" fill="#111827" text-anchor="end">50k</text><line x1="40" y1="85.00" x2="860" y2="85.00" stroke="#e5e7eb"/><text x="32" y="89.00" font-size="10" fill="#111827" text-anchor="end">75k</text><line x1="40" y1="40.00" x2="860" y2="40.00" stroke="#e5e7eb"/><text x="32" y="44.00" font-size="10" fill="#111827" text-anchor="end">100k</text>
    <line x1="40.00" y1="40" x2="40.00" y2="220" stroke="#e5e7eb" opacity="0.5"/><line x1="121.81" y1="40" x2="121.81" y2="220" stroke="#e5e7eb" opacity="0.5"/><line x1="203.62" y1="40" x2="203.62" y2="220" stroke="#e5e7eb" opacity="0.5"/><line x1="285.43" y1="40" x2="285.43" y2="220" stroke="#e5e7eb" opacity="0.5"/><line x1="367.24" y1="40" x2="367.24" y2="220" stroke="#e5e7eb" opacity="0.5"/><line x1="449.05" y1="40" x2="449.05" y2="220" stroke="#e5e7eb" opacity="0.5"/><line x1="530.86" y1="40" x2="530.86" y2="220" stroke="#e5e7eb" opacity="0.5"/><line x1="612.67" y1="40" x2="612.67" y2="220" stroke="#e5e7eb" opacity="0.5"/><line x1="694.48" y1="40" x2="694.48" y2="220" stroke="#e5e7eb" opacity="0.5"/><line x1="776.29" y1="40" x2="776.29" y2="220" stroke="#e5e7eb" opacity="0.5"/><line x1="858.10" y1="40" x2="858.10" y2="220" stroke="#e5e7eb" opacity="0.5"/>
    <line x1="40" y1="220" x2="860" y2="220" stroke="#9ca3af"/>
    <line x1="40" y1="40"   x2="40"   y2="220" stroke="#9ca3af"/>
    <path d="M 40.00 220.00 L 41.90 220.00 L 43.81 219.60 L 45.71 219.62 L 47.61 219.63 L 49.51 219.32 L 51.42 219.31 L 53.32 219.26 L 55.22 218.89 L 57.12 218.89 L 59.03 218.89 L 60.93 218.87 L 62.83 218.87 L 64.73 218.86 L 66.64 218.85 L 68.54 218.85 L 70.44 218.82 L 72.34 218.78 L 74.25 218.72 L 76.15 218.68 L 78.05 218.64 L 79.95 218.59 L 81.86 218.59 L 83.76 218.57 L 85.66 218.57 L 87.56 218.57 L 89.47 218.57 L 91.37 218.57 L 93.27 218.57 L 95.17 218.57 L 97.08 218.57 L 98.98 218.57 L 100.88 218.55 L 102.78 218.54 L 104.69 218.58 L 106.59 218.55 L 108.49 218.55 L 110.39 218.53 L 112.30 218.31 L 114.20 217.94 L 116.10 217.88 L 118.00 217.87 L 119.91 217.86 L 121.81 217.85 L 123.71 217.84 L 125.61 217.85 L 127.52 217.82 L 129.42 217.66 L 131.32 217.61 L 133.23 217.60 L 135.13 217.57 L 137.03 217.56 L 138.93 217.52 L 140.84 217.38 L 142.74 217.24 L 144.64 216.93 L 146.54 216.65 L 148.45 216.44 L 150.35 216.39 L 152.25 216.34 L 154.15 216.83 L 156.06 200.94 L 157.96 200.94 L 159.86 200.95 L 161.76 198.99 L 163.67 198.98 L 165.57 198.94 L 167.47 198.94 L 169.37 198.91 L 171.28 198.90 L 173.18 198.93 L 175.08 198.93 L 176.98 198.99 L 178.89 198.95 L 180.79 198.96 L 182.69 198.95 L 184.59 198.95 L 186.50 198.97 L 188.40 198.97 L 190.30 198.97 L 192.20 198.97 L 194.11 198.97 L 196.01 198.97 L 197.91 198.97 L 199.81 198.97 L 201.72 198.97 L 203.62 198.97 L 205.52 198.97 L 207.42 197.51 L 209.33 197.43 L 211.23 197.40 L 213.13 197.38 L 215.03 197.38 L 216.94 197.49 L 218.84 197.34 L 220.74 197.33 L 222.65 197.18 L 224.55 197.41 L 226.45 197.41 L 228.35 197.29 L 230.26 197.29 L 232.16 197.22 L 234.06 197.21 L 235.96 197.15 L 237.87 196.94 L 239.77 197.00 L 241.67 197.41 L 243.57 197.41 L 245.48 197.30 L 247.38 197.26 L 249.28 197.19 L 251.18 197.19 L 253.09 197.19 L 254.99 197.19 L 256.89 197.18 L 258.79 197.12 L 260.70 197.09 L 262.60 197.04 L 264.50 197.00 L 266.40 196.96 L 268.31 196.92 L 270.21 196.91 L 272.11 196.86 L 274.01 196.80 L 275.92 196.75 L 277.82 196.69 L 279.72 196.66 L 281.62 196.63 L 283.53 196.56 L 285.43 196.51 L 287.33 196.47 L 289.23 196.45 L 291.14 196.40 L 293.04 196.37 L 294.94 196.34 L 296.84 196.28 L 298.75 196.20 L 300.65 196.12 L 302.55 196.02 L 304.45 195.89 L 306.36 195.77 L 308.26 195.68 L 310.16 195.63 L 312.06 195.58 L 313.97 195.53 L 315.87 195.44 L 317.77 195.35 L 319.68 195.22 L 321.58 195.11 L 323.48 194.95 L 325.38 194.82 L 327.29 194.68 L 329.19 194.57 L 331.09 194.55 L 332.99 194.51 L 334.90 194.48 L 336.80 194.44 L 338.70 194.40 L 340.60 194.37 L 342.51 194.34 L 344.41 194.29 L 346.31 194.25 L 348.21 194.23 L 350.12 194.21 L 352.02 194.19 L 353.92 194.16 L 355.82 194.12 L 357.73 194.07 L 359.63 193.99 L 361.53 193.94 L 363.43 193.87 L 365.34 193.80 L 367.24 193.74 L 369.14 193.72 L 371.04 193.70 L 372.95 193.66 L 374.85 193.62 L 376.75 193.56 L 378.65 193.49 L 380.56 193.43 L 382.46 193.35 L 384.36 193.27 L 386.26 193.20 L 388.17 193.14 L 390.07 193.15 L 391.97 193.15 L 393.87 193.15 L 395.78 193.18 L 397.68 193.09 L 399.58 193.07 L 401.48 193.07 L 403.39 193.08 L 405.29 193.00 L 407.19 192.95 L 409.10 192.95 L 411.00 192.95 L 412.90 192.95 L 414.80 192.80 L 416.71 192.73 L 418.61 192.69 L 420.51 192.67 L 422.41 192.67 L 424.32 192.68 L 426.22 192.64 L 428.12 192.63 L 430.02 192.63 L 431.93 190.39 L 433.83 189.96 L 435.73 189.85 L 437.63 189.53 L 439.54 189.52 L 441.44 189.36 L 443.34 187.79 L 445.24 187.36 L 447.15 181.35 L 449.05 181.35 L 450.95 180.72 L 452.85 180.71 L 454.76 180.26 L 456.66 179.68 L 458.56 179.67 L 460.46 178.77 L 462.37 177.57 L 464.27 175.55 L 466.17 174.52 L 468.07 173.86 L 469.98 174.17 L 471.88 173.10 L 473.78 173.10 L 475.68 171.18 L 477.59 168.37 L 479.49 168.37 L 481.39 165.86 L 483.29 163.63 L 485.20 163.63 L 487.10 163.62 L 489.00 162.88 L 490.90 161.06 L 492.81 193.89 L 494.71 193.22 L 496.61 192.73 L 498.52 192.34 L 500.42 189.45 L 502.32 188.03 L 504.22 188.03 L 506.13 180.86 L 508.03 148.96 L 509.93 144.25 L 511.83 176.00 L 513.74 176.17 L 515.64 175.77 L 517.54 175.72 L 519.44 197.26 L 521.35 197.26 L 523.25 197.06 L 525.15 196.44 L 527.05 194.49 L 528.96 194.50 L 530.86 194.49 L 532.76 194.49 L 534.66 194.49 L 536.57 194.48 L 538.47 194.48 L 540.37 194.62 L 542.27 206.08 L 544.18 206.08 L 546.08 206.05 L 547.98 206.04 L 549.88 205.22 L 551.79 204.28 L 553.69 204.28 L 555.59 204.28 L 557.49 200.22 L 559.40 204.28 L 561.30 204.28 L 563.20 204.28 L 565.10 198.60 L 567.01 198.60 L 568.91 198.60 L 570.81 198.60 L 572.71 193.00 L 574.62 193.00 L 576.52 188.39 L 578.42 188.39 L 580.32 179.75 L 582.23 174.84 L 584.13 173.23 L 586.03 170.37 L 587.94 169.87 L 589.84 153.88 L 591.74 149.24 L 593.64 152.04 L 595.55 141.93 L 597.45 141.88 L 599.35 141.69 L 601.25 141.69 L 603.16 141.76 L 605.06 141.75 L 606.96 140.68 L 608.86 141.38 L 610.77 141.36 L 612.67 141.83 L 614.57 141.39 L 616.47 141.39 L 618.38 141.52 L 620.28 141.52 L 622.18 141.53 L 624.08 142.33 L 625.99 141.73 L 627.89 141.68 L 629.79 141.68 L 631.69 141.66 L 633.60 141.67 L 635.50 141.65 L 637.40 139.51 L 639.30 136.07 L 641.21 136.04 L 643.11 133.43 L 645.01 131.89 L 646.91 131.13 L 648.82 131.51 L 650.72 131.50 L 652.62 131.57 L 654.52 131.56 L 656.43 131.49 L 658.33 131.49 L 660.23 131.49 L 662.13 131.49 L 664.04 131.49 L 665.94 131.49 L 667.84 131.49 L 669.74 131.49 L 671.65 131.49 L 673.55 131.49 L 675.45 131.49 L 677.35 131.49 L 679.26 131.49 L 681.16 131.49 L 683.06 131.49 L 684.97 131.49 L 686.87 131.49 L 688.77 131.49 L 690.67 131.49 L 692.58 131.49 L 694.48 131.49 L 696.38 131.49 L 698.28 131.49 L 700.19 131.49 L 702.09 131.49 L 703.99 131.49 L 705.89 131.49 L 707.80 131.49 L 709.70 131.49 L 711.60 131.49 L 713.50 131.49 L 715.41 131.49 L 717.31 131.49 L 719.21 131.49 L 721.11 131.49 L 723.02 131.49 L 724.92 131.49 L 726.82 131.49 L 728.72 131.49 L 730.63 131.49 L 732.53 131.49 L 734.43 131.49 L 736.33 131.49 L 738.24 131.49 L 740.14 131.49 L 742.04 131.49 L 743.94 131.49 L 745.85 131.49 L 747.75 131.49 L 749.65 131.49 L 751.55 131.49 L 753.46 131.49 L 755.36 131.49 L 757.26 131.49 L 759.16 131.49 L 761.07 131.49 L 762.97 131.49 L 764.87 131.49 L 766.77 131.49 L 768.68 131.49 L 770.58 131.49 L 772.48 131.49 L 774.39 131.49 L 776.29 131.49 L 778.19 131.49 L 780.09 131.49 L 782.00 131.49 L 783.90 131.49 L 785.80 131.49 L 787.70 131.49 L 789.61 131.49 L 791.51 131.49 L 793.41 131.49 L 795.31 131.49 L 797.22 131.49 L 799.12 131.49 L 801.02 131.49 L 802.92 131.49 L 804.83 131.49 L 806.73 131.49 L 808.63 131.49 L 810.53 131.49 L 812.44 131.49 L 814.34 131.49 L 816.24 131.49 L 818.14 131.49 L 820.05 131.49 L 821.95 131.49 L 823.85 131.49 L 825.75 131.49 L 827.66 131.49 L 829.56 131.49 L 831.46 131.49 L 833.36 131.49 L 835.27 131.49 L 837.17 131.49 L 839.07 131.49 L 840.97 131.49 L 842.88 131.49 L 844.78 131.49 L 846.68 131.49 L 848.58 131.49 L 850.49 131.49 L 852.39 131.49 L 854.29 131.49 L 856.19 131.49 L 858.10 131.49 L 860.00 131.49" fill="none" stroke="#111827" stroke-width="2"/>
    <circle cx="860.00" cy="131.49" r="3" fill="#111827"/>
    <text x="40.00" y="235.00" font-size="9" fill="#111827" text-anchor="middle" transform="rotate(-45 40.00 235.00)">27.09.2025</text><text x="121.81" y="235.00" font-size="9" fill="#111827" text-anchor="middle" transform="rotate(-45 121.81 235.00)">28.09.2025</text><text x="203.62" y="235.00" font-size="9" fill="#111827" text-anchor="middle" transform="rotate(-45 203.62 235.00)">29.09.2025</text><text x="285.43" y="235.00" font-size="9" fill="#111827" text-anchor="middle" transform="rotate(-45 285.43 235.00)">04.10.2025</text><text x="367.24" y="235.00" font-size="9" fill="#111827" text-anchor="middle" transform="rotate(-45 367.24 235.00)">04.10.2025</text><text x="449.05" y="235.00" font-size="9" fill="#111827" text-anchor="middle" transform="rotate(-45 449.05 235.00)">04.10.2025</text><text x="530.86" y="235.00" font-size="9" fill="#111827" text-anchor="middle" transform="rotate(-45 530.86 235.00)">05.10.2025</text><text x="612.67" y="235.00" font-size="9" fill="#111827" text-anchor="middle" transform="rotate(-45 612.67 235.00)">09.10.2025</text><text x="694.48" y="235.00" font-size="9" fill="#111827" text-anchor="middle" transform="rotate(-45 694.48 235.00)">29.10.2025</text><text x="776.29" y="235.00" font-size="9" fill="#111827" text-anchor="middle" transform="rotate(-45 776.29 235.00)">11.12.2025</text><text x="858.10" y="235.00" font-size="9" fill="#111827" text-anchor="middle" transform="rotate(-45 858.10 235.00)">22.01.2026</text>
  </g>
</svg>