<svg xmlns="http://www.w3.org/2000/svg" width="900" height="290" style="font-family: -apple-system, BlinkMacSystemFont, 'Segoe UI', Helvetica, Arial, sans-serif;">
  <rect width="100%" height="100%" fill="white"/>
  <g>
    <line x1="40" y1="220.00" x2="860" y2="220.00" stroke="#e5e7eb"/><text x="32" y="224.00" font-size="10" fill="#111827" text-anchor="end">0</text><line x1="40" y1="175.00" x2="860" y2="175.00" stroke="#e5e7eb"/><text x="32" y="179.00" font-size="10" fill="#111827" text-anchor="end">25k</text><line x1="40" y1="130.00" x2="860" y2="130.00" stroke="#e5e7eb"/><text x="32" y="134.00" font-size="10" fill="#111827" text-anchor="end">50k</text><line x1="40" y1="85.00" x2="860" y2="85.00" stroke="#e5e7eb"/><text x="32" y="89.00" font-size="10" fill="#111827" text-anchor="end">75k</text><line x1="40" y1="40.00" x2="860" y2="40.00" stroke="#e5e7eb"/><text x="32" y="44.00" font-size="10" fill="#111827" text-anchor="end">100k</text>
    <line x1="40.00" y1="40" x2="40.00" y2="220" stroke="#e5e7eb" opacity="0.5"/><line x1="121.06" y1="40" x2="121.06" y2="220" stroke="#e5e7eb" opacity="0.5"/><line x1="202.11" y1="40" x2="202.11" y2="220" stroke="#e5e7eb" opacity="0.5"/><line x1="283.17" y1="40" x2="283.17" y2="220" stroke="#e5e7eb" opacity="0.5"/><line x1="364.23" y1="40" x2="364.23" y2="220" stroke="#e5e7eb" opacity="0.5"/><line x1="445.29" y1="40" x2="445.29" y2="220" stroke="#e5e7eb" opacity="0.5"/><line x1="526.34" y1="40" x2="526.34" y2="220" stroke="#e5e7eb" opacity="0.5"/><line x1="607.40" y1="40" x2="607.40" y2="220" stroke="#e5e7eb" opacity="0.5"/><line x1="688.46" y1="40" x2="688.46" y2="220" stroke="#e5e7eb" opacity="0.5"/><line x1="769.52" y1="40" x2="769.52" y2="220" stroke="#e5e7eb" opacity="0.5"/><line x1="850.57" y1="40" x2="850.57" y2="220" stroke="#e5e7eb" opacity="0.5"/>
    <line x1="40" y1="220" x2="860" y2="220" stroke="#9ca3af"/>
    <line x1="40" y1="40"   x2="40"   y2="220" stroke="#9ca3af"/>
    <path d="M 40.00 220.00 L 41.89 220.00 L 43.77 219.60 L 45.66 219.62 L 47.54 219.63 L 49.43 219.32 L 51.31 219.31 L 53.20 219.26 L 55.08 218.89 L 56.97 218.89 L 58.85 218.89 L 60.74 218.87 L 62.62 218.87 L 64.51 218.86 L 66.39 218.85 L 68.28 218.85 L 70.16 218.82 L 72.05 218.78 L 73.93 218.72 L 75.82 218.68 L 77.70 218.64 L 79.59 218.59 L 81.47 218.59 L 83.36 218.57 L 85.24 218.57 L 87.13 218.57 L 89.01 218.57 L 90.90 218.57 L 92.78 218.57 L 94.67 218.57 L 96.55 218.57 L 98.44 218.57 L 100.32 218.55 L 102.21 218.54 L 104.09 218.58 L 105.98 218.55 L 107.86 218.55 L 109.75 218.53 L 111.63 218.31 L 113.52 217.94 L 115.40 217.88 L 117.29 217.87 L 119.17 217.86 L 121.06 217.85 L 122.94 217.84 L 124.83 217.85 L 126.71 217.82 L 128.60 217.66 L 130.48 217.61 L 132.37 217.60 L 134.25 217.57 L 136.14 217.56 L 138.02 217.52 L 139.91 217.38 L 141.79 217.24 L 143.68 216.93 L 145.56 216.65 L 147.45 216.44 L 149.33 216.39 L 151.22 216.34 L 153.10 216.83 L 154.99 200.94 L 156.87 200.94 L 158.76 200.95 L 160.64 198.99 L 162.53 198.98 L 164.41 198.94 L 166.30 198.94 L 168.18 198.91 L 170.07 198.90 L 171.95 198.93 L 173.84 198.93 L 175.72 198.99 L 177.61 198.95 L 179.49 198.96 L 181.38 198.95 L 183.26 198.95 L 185.15 198.97 L 187.03 198.97 L 188.92 198.97 L 190.80 198.97 L 192.69 198.97 L 194.57 198.97 L 196.46 198.97 L 198.34 198.97 L 200.23 198.97 L 202.11 198.97 L 204.00 198.97 L 205.89 197.51 L 207.77 197.43 L 209.66 197.40 L 211.54 197.38 L 213.43 197.38 L 215.31 197.49 L 217.20 197.34 L 219.08 197.33 L 220.97 197.18 L 222.85 197.41 L 224.74 197.41 L 226.62 197.29 L 228.51 197.29 L 230.39 197.22 L 232.28 197.21 L 234.16 197.15 L 236.05 196.94 L 237.93 197.00 L 239.82 197.41 L 241.70 197.41 L 243.59 197.30 L 245.47 197.26 L 247.36 197.19 L 249.24 197.19 L 251.13 197.19 L 253.01 197.19 L 254.90 197.18 L 256.78 197.12 L 258.67 197.09 L 260.55 197.04 L 262.44 197.00 L 264.32 196.96 L 266.21 196.92 L 268.09 196.91 L 269.98 196.86 L 271.86 196.80 L 273.75 196.75 L 275.63 196.69 L 277.52 196.66 L 279.40 196.63 L 281.29 196.56 L 283.17 196.51 L 285.06 196.47 L 286.94 196.45 L 288.83 196.40 L 290.71 196.37 L 292.60 196.34 L 294.48 196.28 L 296.37 196.20 L 298.25 196.12 L 300.14 196.02 L 302.02 195.89 L 303.91 195.77 L 305.79 195.68 L 307.68 195.63 L 309.56 195.58 L 311.45 195.53 L 313.33 195.44 L 315.22 195.35 L 317.10 195.22 L 318.99 195.11 L 320.87 194.95 L 322.76 194.82 L 324.64 194.68 L 326.53 194.57 L 328.41 194.55 L 330.30 194.51 L 332.18 194.48 L 334.07 194.44 L 335.95 194.40 L 337.84 194.37 L 339.72 194.34 L 341.61 194.29 L 343.49 194.25 L 345.38 194.23 L 347.26 194.21 L 349.15 194.19 L 351.03 194.16 L 352.92 194.12 L 354.80 194.07 L 356.69 193.99 L 358.57 193.94 L 360.46 193.87 L 362.34 193.80 L 364.23 193.74 L 366.11 193.72 L 368.00 193.70 L 369.89 193.66 L 371.77 193.62 L 373.66 193.56 L 375.54 193.49 L 377.43 193.43 L 379.31 193.35 L 381.20 193.27 L 383.08 193.20 L 384.97 193.14 L 386.85 193.15 L 388.74 193.15 L 390.62 193.15 L 392.51 193.18 L 394.39 193.09 L 396.28 193.07 L 398.16 193.07 L 400.05 193.08 L 401.93 193.00 L 403.82 192.95 L 405.70 192.95 L 407.59 192.95 L 409.47 192.95 L 411.36 192.80 L 413.24 192.73 L 415.13 192.69 L 417.01 192.67 L 418.90 192.67 L 420.78 192.68 L 422.67 192.64 L 424.55 192.63 L 426.44 192.63 L 428.32 190.39 L 430.21 189.96 L 432.09 189.85 L 433.98 189.53 L 435.86 189.52 L 437.75 189.36 L 439.63 187.79 L 441.52 187.36 L 443.40 181.35 L 445.29 181.35 L 447.17 180.72 L 449.06 180.71 L 450.94 180.26 L 452.83 179.68 L 454.71 179.67 L 456.60 178.77 L 458.48 177.57 L 460.37 175.55 L 462.25 174.52 L 464.14 173.86 L 466.02 174.17 L 467.91 173.10 L 469.79 173.10 L 471.68 171.18 L 473.56 168.37 L 475.45 168.37 L 477.33 165.86 L 479.22 163.63 L 481.10 163.63 L 482.99 163.62 L 484.87 162.88 L 486.76 161.06 L 488.64 193.89 L 490.53 193.22 L 492.41 192.73 L 494.30 192.34 L 496.18 189.45 L 498.07 188.03 L 499.95 188.03 L 501.84 180.86 L 503.72 148.96 L 505.61 144.25 L 507.49 176.00 L 509.38 176.17 L 511.26 175.77 L 513.15 175.72 L 515.03 197.26 L 516.92 197.26 L 518.80 197.06 L 520.69 196.44 L 522.57 194.49 L 524.46 194.50 L 526.34 194.49 L 528.23 194.49 L 530.11 194.49 L 532.00 194.48 L 533.89 194.48 L 535.77 194.62 L 537.66 206.08 L 539.54 206.08 L 541.43 206.05 L 543.31 206.04 L 545.20 205.22 L 547.08 204.28 L 548.97 204.28 L 550.85 204.28 L 552.74 200.22 L 554.62 204.28 L 556.51 204.28 L 558.39 204.28 L 560.28 198.60 L 562.16 198.60 L 564.05 198.60 L 565.93 198.60 L 567.82 193.00 L 569.70 193.00 L 571.59 188.39 L 573.47 188.39 L 575.36 179.75 L 577.24 174.84 L 579.13 173.23 L 581.01 170.37 L 582.90 169.87 L 584.78 153.88 L 586.67 149.24 L 588.55 152.04 L 590.44 141.93 L 592.32 141.88 L 594.21 141.69 L 596.09 141.69 L 597.98 141.76 L 599.86 141.75 L 601.75 140.68 L 603.63 141.38 L 605.52 141.36 L 607.40 141.83 L 609.29 141.39 L 611.17 141.39 L 613.06 141.52 L 614.94 141.52 L 616.83 141.53 L 618.71 142.33 L 620.60 141.73 L 622.48 141.68 L 624.37 141.68 L 626.25 141.66 L 628.14 141.67 L 630.02 141.65 L 631.91 139.51 L 633.79 136.07 L 635.68 136.04 L 637.56 133.43 L 639.45 131.89 L 641.33 131.13 L 643.22 131.51 L 645.10 131.50 L 646.99 131.57 L 648.87 131.56 L 650.76 131.49 L 652.64 131.49 L 654.53 131.49 L 656.41 131.49 L 658.30 131.49 L 660.18 131.49 L 662.07 131.49 L 663.95 131.49 L 665.84 131.49 L 667.72 131.49 L 669.61 131.49 L 671.49 131.49 L 673.38 131.49 L 675.26 131.49 L 677.15 131.49 L 679.03 131.49 L 680.92 131.49 L 682.80 131.49 L 684.69 131.49 L 686.57 131.49 L 688.46 131.49 L 690.34 131.49 L 692.23 131.49 L 694.11 131.49 L 696.00 131.49 L 697.89 131.49 L 699.77 131.49 L 701.66 131.49 L 703.54 131.49 L 705.43 131.49 L 707.31 131.49 L 709.20 131.49 L 711.08 131.49 L 712.97 131.49 L 714.85 131.49 L 716.74 131.49 L 718.62 131.49 L 720.51 131.49 L 722.39 131.49 L 724.28 131.49 L 726.16 131.49 L 728.05 131.49 L 729.93 131.49 L 731.82 131.49 L 733.70 131.49 L 735.59 131.49 L 737.47 131.49 L 739.36 131.49 L 741.24 131.49 L 743.13 131.49 L 745.01 131.49 L 746.90 131.49 L 748.78 131.49 L 750.67 131.49 L 752.55 131.49 L 754.44 131.49 L 756.32 131.49 L 758.21 131.49 L 760.09 131.49 L 761.98 131.49 L 763.86 131.49 L 765.75 131.49 L 767.63 131.49 L 769.52 131.49 L 771.40 131.49 L 773.29 131.49 L 775.17 131.49 L 777.06 131.49 L 778.94 131.49 L 780.83 131.49 L 782.71 131.49 L 784.60 131.49 L 786.48 131.49 L 788.37 131.49 L 790.25 131.49 L 792.14 131.49 L 794.02 131.49 L 795.91 131.49 L 797.79 131.49 L 799.68 131.49 L 801.56 131.49 L 803.45 131.49 L 805.33 131.49 L 807.22 131.49 L 809.10 131.49 L 810.99 131.49 L 812.87 131.49 L 814.76 131.49 L 816.64 131.49 L 818.53 131.49 L 820.41 131.49 L 822.30 131.49 L 824.18 131.49 L 826.07 131.49 L 827.95 131.49 L 829.84 131.49 L 831.72 131.49 L 833.61 131.49 L 835.49 131.49 L 837.38 131.49 L 839.26 131.49 L 841.15 131.49 L 843.03 131.49 L 844.92 131.49 L 846.80 131.49 L 848.69 131.49 L 850.57 131.49 L 852.46 131.49 L 854.34 131.49 L 856.23 131.49 L 858.11 131.49 L 860.00 131.49" fill="none" stroke="#111827" stroke-width="2"/>
    <circle cx="860.00" cy="131.49" r="3" fill="#111827"/>
    <text x="40.00" y="235.00" font-size="9" fill="#111827" text-anchor="middle" transform="rotate(-45 40.00 235.00)">27.09.2025</text><text x="121.06" y="235.00" font-size="9" fill="#111827" text-anchor="middle" transform="rotate(-45 121.06 235.00)">28.09.2025</text><text x="202.11" y="235.00" font-size="9" fill="#111827" text-anchor="middle" transform="rotate(-45 202.11 235.00)">29.09.2025</text><text x="283.17" y="235.00" font-size="9" fill="#111827" text-anchor="middle" transform="rotate(-45 283.17 235.00)">04.10.2025</text><text x="364.23" y="235.00" font-size="9" fill="#111827" text-anchor="middle" transform="rotate(-45 364.23 235.00)">04.10.2025</text><text x="445.29" y="235.00" font-size="9" fill="#111827" text-anchor="middle" transform="rotate(-45 445.29 235.00)">04.10.2025</text><text x="526.34" y="235.00" font-size="9" fill="#111827" text-anchor="middle" transform="rotate(-45 526.34 235.00)">05.10.2025</text><text x="607.40" y="235.00" font-size="9" fill="#111827" text-anchor="middle" transform="rotate(-45 607.40 235.00)">09.10.2025</text><text x="688.46" y="235.00" font-size="9" fill="#111827" text-anchor="middle" transform="rotate(-45 688.46 235.00)">29.10.2025</text><text x="769.52" y="235.00" font-size="9" fill="#111827" text-anchor="middle" transform="rotate(-45 769.52 235.00)">11.12.2025</text><text x="850.57" y="235.00" font-size="9" fill="#111827" text-anchor="middle" transform="rotate(-45 850.57 235.00)">22.01.2026</text>
  </g>
</svg>