<svg xmlns="http://www.w3.org/2000/svg" width="900" height="290" style="font-family: -apple-system, BlinkMacSystemFont, 'Segoe UI', Helvetica, Arial, sans-serif;">
  <rect width="100%" height="100%" fill="white"/>
  <g>
    <line x1="40" y1="220.00" x2="860" y2="220.00" stroke="#e5e7eb"/><text x="32" y="224.00" font-size="10" fill="#111827" text-anchor="end">0</text><line x1="40" y1="175.00" x2="860" y2="175.00" stroke="#e5e7eb"/><text x="32" y="179.00" font-size="10" fill="#111827" text-anchor="end">25k</text><line x1="40" y1="130.00" x2="860" y2="130.00" stroke="#e5e7eb"/><text x="32" y="134.00" font-size="10" fill="#111827" text-anchor="end">50k</text><line x1="40" y1="85.00" x2="860" y2="85.00" stroke="#e5e7eb"/><text x="32" y="89.00" font-size="10" fill="#111827" text-anchor="end">75k</text><line x1="40" y1="40.00" x2="860" y2="40.00" stroke="#e5e7eb"/><text x="32" y="44.00" font-size="10" fill="#111827" text-anchor="end">100k</text>
    <line x1="40.00" y1="40" x2="40.00" y2="220" stroke="#e5e7eb" opacity="0.5"/><line x1="121.80" y1="40" x2="121.80" y2="220" stroke="#e5e7eb" opacity="0.5"/><line x1="203.60" y1="40" x2="203.60" y2="220" stroke="#e5e7eb" opacity="0.5"/><line x1="285.40" y1="40" x2="285.40" y2="220" stroke="#e5e7eb" opacity="0.5"/><line x1="367.20" y1="40" x2="367.20" y2="220" stroke="#e5e7eb" opacity="0.5"/><line x1="449.00" y1="40" x2="449.00" y2="220" stroke="#e5e7eb" opacity="0.5"/><line x1="530.80" y1="40" x2="530.80" y2="220" stroke="#e5e7eb" opacity="0.5"/><line x1="612.60" y1="40" x2="612.60" y2="220" stroke="#e5e7eb" opacity="0.5"/><line x1="694.40" y1="40" x2="694.40" y2="220" stroke="#e5e7eb" opacity="0.5"/><line x1="776.20" y1="40" x2="776.20" y2="220" stroke="#e5e7eb" opacity="0.5"/><line x1="858.00" y1="40" x2="858.00" y2="220" stroke="#e5e7eb" opacity="0.5"/>
    <line x1="40" y1="220" x2="860" y2="220" stroke="#9ca3af"/>
    <line x1="40" y1="40"   x2="40"   y2="220" stroke="#9ca3af"/>
    <path d="M 40.00 220.00 L 42.00 220.00 L 43.99 219.60 L 45.99 219.62 L 47.98 219.63 L 49.98 219.32 L 51.97 219.31 L 53.97 219.26 L 55.96 218.89 L 57.96 218.89 L 59.95 218.89 L 61.95 218.87 L 63.94 218.87 L 65.94 218.86 L 67.93 218.85 L 69.93 218.85 L 71.92 218.82 L 73.92 218.78 L 75.91 218.72 L 77.91 218.68 L 79.90 218.64 L 81.90 218.59 L 83.89 218.59 L 85.89 218.57 L 87.88 218.57 L 89.88 218.57 L 91.87 218.57 L 93.87 218.57 L 95.86 218.57 L 97.86 218.57 L 99.85 218.57 L 101.85 218.57 L 103.84 218.55 L 105.84 218.54 L 107.83 218.58 L 109.83 218.55 L 111.82 218.55 L 113.82 218.53 L 115.82 218.31 L 117.81 217.94 L 119.81 217.88 L 121.80 217.87 L 123.80 217.86 L 125.79 217.85 L 127.79 217.84 L 129.78 217.85 L 131.78 217.82 L 133.77 217.66 L 135.77 217.61 L 137.76 217.60 L 139.76 217.57 L 141.75 217.56 L 143.75 217.52 L 145.74 217.38 L 147.74 217.24 L 149.73 216.93 L 151.73 216.65 L 153.72 216.44 L 155.72 216.39 L 157.71 216.34 L 159.71 216.83 L 161.70 200.94 L 163.70 200.94 L 165.69 200.95 L 167.69 198.99 L 169.68 198.98 L 171.68 198.94 L 173.67 198.94 L 175.67 198.91 L 177.66 198.90 L 179.66 198.93 L 181.65 198.93 L 183.65 198.99 L 185.64 198.95 L 187.64 198.96 L 189.64 198.95 L 191.63 198.95 L 193.63 198.97 L 195.62 198.97 L 197.62 198.97 L 199.61 198.97 L 201.61 198.97 L 203.60 198.97 L 205.60 198.97 L 207.59 198.97 L 209.59 198.97 L 211.58 198.97 L 213.58 198.97 L 215.57 197.51 L 217.57 197.43 L 219.56 197.40 L 221.56 197.38 L 223.55 197.38 L 225.55 197.49 L 227.54 197.34 L 229.54 197.33 L 231.53 197.18 L 233.53 197.41 L 235.52 197.41 L 237.52 197.29 L 239.51 197.29 L 241.51 197.22 L 243.50 197.21 L 245.50 197.15 L 247.49 196.94 L 249.49 197.00 L 251.48 197.41 L 253.48 197.41 L 255.47 197.30 L 257.47 197.26 L 259.46 197.19 L 261.46 197.19 L 263.45 197.19 L 265.45 197.19 L 267.45 197.18 L 269.44 197.12 L 271.44 197.09 L 273.43 197.04 L 275.43 197.00 L 277.42 196.96 L 279.42 196.92 L 281.41 196.91 L 283.41 196.86 L 285.40 196.80 L 287.40 196.75 L 289.39 196.69 L 291.39 196.66 L 293.38 196.63 L 295.38 196.56 L 297.37 196.51 L 299.37 196.47 L 301.36 196.45 L 303.36 196.40 L 305.35 196.37 L 307.35 196.34 L 309.34 196.28 L 311.34 196.20 L 313.33 196.12 L 315.33 196.02 L 317.32 195.89 L 319.32 195.77 L 321.31 195.68 L 323.31 195.63 L 325.30 195.58 L 327.30 195.53 L 329.29 195.44 L 331.29 195.35 L 333.28 195.22 L 335.28 195.11 L 337.27 194.95 L 339.27 194.82 L 341.27 194.68 L 343.26 194.57 L 345.26 194.55 L 347.25 194.51 L 349.25 194.48 L 351.24 194.44 L 353.24 194.40 L 355.23 194.37 L 357.23 194.34 L 359.22 194.29 L 361.22 194.25 L 363.21 194.23 L 365.21 194.21 L 367.20 194.19 L 369.20 194.16 L 371.19 194.12 L 373.19 194.07 L 375.18 193.99 L 377.18 193.94 L 379.17 193.87 L 381.17 193.80 L 383.16 193.74 L 385.16 193.72 L 387.15 193.70 L 389.15 193.66 L 391.14 193.62 L 393.14 193.56 L 395.13 193.49 L 397.13 193.43 L 399.12 193.35 L 401.12 193.27 L 403.11 193.20 L 405.11 193.14 L 407.10 193.15 L 409.10 193.15 L 411.09 193.15 L 413.09 193.18 L 415.09 193.09 L 417.08 193.07 L 419.08 193.07 L 421.07 193.08 L 423.07 193.00 L 425.06 192.95 L 427.06 192.95 L 429.05 192.95 L 431.05 192.95 L 433.04 192.80 L 435.04 192.73 L 437.03 192.69 L 439.03 192.67 L 441.02 192.67 L 443.02 192.68 L 445.01 192.64 L 447.01 192.63 L 449.00 192.63 L 451.00 190.39 L 452.99 189.96 L 454.99 189.85 L 456.98 189.53 L 458.98 189.52 L 460.97 189.36 L 462.97 187.79 L 464.96 187.36 L 466.96 181.35 L 468.95 181.35 L 470.95 180.72 L 472.94 180.71 L 474.94 180.26 L 476.93 179.68 L 478.93 179.67 L 480.92 178.77 L 482.92 177.57 L 484.91 175.55 L 486.91 174.52 L 488.91 173.86 L 490.90 174.17 L 492.90 173.10 L 494.89 173.10 L 496.89 171.18 L 498.88 168.37 L 500.88 168.37 L 502.87 165.86 L 504.87 163.63 L 506.86 163.63 L 508.86 163.62 L 510.85 162.88 L 512.85 161.06 L 514.84 193.89 L 516.84 193.22 L 518.83 192.73 L 520.83 192.34 L 522.82 189.45 L 524.82 188.03 L 526.81 188.03 L 528.81 180.86 L 530.80 148.96 L 532.80 144.25 L 534.79 176.00 L 536.79 176.17 L 538.78 175.77 L 540.78 175.72 L 542.77 197.26 L 544.77 197.26 L 546.76 197.06 L 548.76 196.44 L 550.75 194.49 L 552.75 194.50 L 554.74 194.49 L 556.74 194.49 L 558.73 194.49 L 560.73 194.48 L 562.73 194.48 L 564.72 194.62 L 566.72 206.08 L 568.71 206.08 L 570.71 206.05 L 572.70 206.04 L 574.70 205.22 L 576.69 204.28 L 578.69 204.28 L 580.68 204.28 L 582.68 200.22 L 584.67 204.28 L 586.67 204.28 L 588.66 204.28 L 590.66 198.60 L 592.65 198.60 L 594.65 198.60 L 596.64 198.60 L 598.64 193.00 L 600.63 193.00 L 602.63 188.39 L 604.62 188.39 L 606.62 179.75 L 608.61 174.84 L 610.61 173.23 L 612.60 170.37 L 614.60 169.87 L 616.59 153.88 L 618.59 149.24 L 620.58 152.04 L 622.58 141.93 L 624.57 141.88 L 626.57 141.69 L 628.56 141.69 L 630.56 141.76 L 632.55 141.75 L 634.55 140.68 L 636.55 141.38 L 638.54 141.36 L 640.54 141.83 L 642.53 141.39 L 644.53 141.39 L 646.52 141.52 L 648.52 141.52 L 650.51 141.53 L 652.51 142.33 L 654.50 141.73 L 656.50 141.68 L 658.49 141.68 L 660.49 141.66 L 662.48 141.67 L 664.48 141.65 L 666.47 139.51 L 668.47 136.07 L 670.46 136.04 L 672.46 133.43 L 674.45 131.89 L 676.45 131.13 L 678.44 131.51 L 680.44 131.50 L 682.43 131.57 L 684.43 131.56 L 686.42 131.49 L 688.42 131.49 L 690.41 131.49 L 692.41 131.49 L 694.40 131.49 L 696.40 131.49 L 698.39 131.49 L 700.39 131.49 L 702.38 131.49 L 704.38 131.49 L 706.37 131.49 L 708.37 131.49 L 710.36 131.49 L 712.36 131.49 L 714.36 131.49 L 716.35 131.49 L 718.35 131.49 L 720.34 131.49 L 722.34 131.49 L 724.33 131.49 L 726.33 131.49 L 728.32 131.49 L 730.32 131.49 L 732.31 131.49 L 734.31 131.49 L 736.30 131.49 L 738.30 131.49 L 740.29 131.49 L 742.29 131.49 L 744.28 131.49 L 746.28 131.49 L 748.27 131.49 L 750.27 131.49 L 752.26 131.49 L 754.26 131.49 L 756.25 131.49 L 758.25 131.49 L 760.24 131.49 L 762.24 131.49 L 764.23 131.49 L 766.23 131.49 L 768.22 131.49 L 770.22 131.49 L 772.21 131.49 L 774.21 131.49 L 776.20 131.49 L 778.20 131.49 L 780.19 131.49 L 782.19 131.49 L 784.18 131.49 L 786.18 131.49 L 788.18 131.49 L 790.17 131.49 L 792.17 131.49 L 794.16 131.49 L 796.16 131.49 L 798.15 131.49 L 800.15 131.49 L 802.14 131.49 L 804.14 131.49 L 806.13 131.49 L 808.13 131.49 L 810.12 131.49 L 812.12 131.49 L 814.11 131.49 L 816.11 131.49 L 818.10 131.49 L 820.10 131.49 L 822.09 131.49 L 824.09 131.49 L 826.08 131.49 L 828.08 131.49 L 830.07 131.49 L 832.07 131.49 L 834.06 131.49 L 836.06 131.49 L 838.05 131.49 L 840.05 131.49 L 842.04 131.49 L 844.04 131.49 L 846.03 131.49 L 848.03 131.49 L 850.02 131.49 L 852.02 131.49 L 854.01 131.49 L 856.01 131.49 L 858.00 131.49 L 860.00 131.49" fill="none" stroke="#111827" stroke-width="2"/>
    <circle cx="860.00" cy="131.49" r="3" fill="#111827"/>
    <text x="40.00" y="235.00" font-size="9" fill="#111827" text-anchor="middle" transform="rotate(-45 40.00 235.00)">27.09.2025</text><text x="121.80" y="235.00" font-size="9" fill="#111827" text-anchor="middle" transform="rotate(-45 121.80 235.00)">28.09.2025</text><text x="203.60" y="235.00" font-size="9" fill="#111827" text-anchor="middle" transform="rotate(-45 203.60 235.00)">29.09.2025</text><text x="285.40" y="235.00" font-size="9" fill="#111827" text-anchor="middle" transform="rotate(-45 285.40 235.00)">04.10.2025</text><text x="367.20" y="235.00" font-size="9" fill="#111827" text-anchor="middle" transform="rotate(-45 367.20 235.00)">04.10.2025</text><text x="449.00" y="235.00" font-size="9" fill="#111827" text-anchor="middle" transform="rotate(-45 449.00 235.00)">04.10.2025</text><text x="530.80" y="235.00" font-size="9" fill="#111827" text-anchor="middle" transform="rotate(-45 530.80 235.00)">05.10.2025</text><text x="612.60" y="235.00" font-size="9" fill="#111827" text-anchor="middle" transform="rotate(-45 612.60 235.00)">08.10.2025</text><text x="694.40" y="235.00" font-size="9" fill="#111827" text-anchor="middle" transform="rotate(-45 694.40 235.00)">13.10.2025</text><text x="776.20" y="235.00" font-size="9" fill="#111827" text-anchor="middle" transform="rotate(-45 776.20 235.00)">23.11.2025</text><text x="858.00" y="235.00" font-size="9" fill="#111827" text-anchor="middle" transform="rotate(-45 858.00 235.00)">03.01.2026</text>
  </g>
</svg>