<svg xmlns="http://www.w3.org/2000/svg" width="900" height="290" style="font-family: -apple-system, BlinkMacSystemFont, 'Segoe UI', Helvetica, Arial, sans-serif;">
  <rect width="100%" height="100%" fill="white"/>
  <g>
    <line x1="40" y1="220.00" x2="860" y2="220.00" stroke="#e5e7eb"/><text x="32" y="224.00" font-size="10" fill="#111827" text-anchor="end">0</text><line x1="40" y1="175.00" x2="860" y2="175.00" stroke="#e5e7eb"/><text x="32" y="179.00" font-size="10" fill="#111827" text-anchor="end">25k</text><line x1="40" y1="130.00" x2="860" y2="130.00" stroke="#e5e7eb"/><text x="32" y="134.00" font-size="10" fill="#111827" text-anchor="end">50k</text><line x1="40" y1="85.00" x2="860" y2="85.00" stroke="#e5e7eb"/><text x="32" y="89.00" font-size="10" fill="#111827" text-anchor="end">75k</text><line x1="40" y1="40.00" x2="860" y2="40.00" stroke="#e5e7eb"/><text x="32" y="44.00" font-size="10" fill="#111827" text-anchor="end">100k</text>
    <line x1="40.00" y1="40" x2="40.00" y2="220" stroke="#e5e7eb" opacity="0.5"/><line x1="121.55" y1="40" x2="121.55" y2="220" stroke="#e5e7eb" opacity="0.5"/><line x1="203.09" y1="40" x2="203.09" y2="220" stroke="#e5e7eb" opacity="0.5"/><line x1="284.64" y1="40" x2="284.64" y2="220" stroke="#e5e7eb" opacity="0.5"/><line x1="366.19" y1="40" x2="366.19" y2="220" stroke="#e5e7eb" opacity="0.5"/><line x1="447.73" y1="40" x2="447.73" y2="220" stroke="#e5e7eb" opacity="0.5"/><line x1="529.28" y1="40" x2="529.28" y2="220" stroke="#e5e7eb" opacity="0.5"/><line x1="610.83" y1="40" x2="610.83" y2="220" stroke="#e5e7eb" opacity="0.5"/><line x1="692.38" y1="40" x2="692.38" y2="220" stroke="#e5e7eb" opacity="0.5"/><line x1="773.92" y1="40" x2="773.92" y2="220" stroke="#e5e7eb" opacity="0.5"/><line x1="855.47" y1="40" x2="855.47" y2="220" stroke="#e5e7eb" opacity="0.5"/>
    <line x1="40" y1="220" x2="860" y2="220" stroke="#9ca3af"/>
    <line x1="40" y1="40"   x2="40"   y2="220" stroke="#9ca3af"/>
    <path d="M 40.00 220.00 L 42.27 220.00 L 44.53 219.60 L 46.80 219.62 L 49.06 219.63 L 51.33 219.32 L 53.59 219.31 L 55.86 219.26 L 58.12 218.89 L 60.39 218.89 L 62.65 218.89 L 64.92 218.87 L 67.18 218.87 L 69.45 218.86 L 71.71 218.85 L 73.98 218.85 L 76.24 218.82 L 78.51 218.78 L 80.77 218.72 L 83.04 218.68 L 85.30 218.64 L 87.57 218.59 L 89.83 218.59 L 92.10 218.57 L 94.36 218.57 L 96.63 218.57 L 98.90 218.57 L 101.16 218.57 L 103.43 218.57 L 105.69 218.57 L 107.96 218.57 L 110.22 218.57 L 112.49 218.55 L 114.75 218.54 L 117.02 218.58 L 119.28 218.55 L 121.55 218.55 L 123.81 218.53 L 126.08 218.31 L 128.34 217.94 L 130.61 217.88 L 132.87 217.87 L 135.14 217.86 L 137.40 217.85 L 139.67 217.84 L 141.93 217.85 L 144.20 217.82 L 146.46 217.66 L 148.73 217.61 L 150.99 217.60 L 153.26 217.57 L 155.52 217.56 L 157.79 217.52 L 160.06 217.38 L 162.32 217.24 L 164.59 216.93 L 166.85 216.65 L 169.12 216.44 L 171.38 216.39 L 173.65 216.34 L 175.91 216.83 L 178.18 200.94 L 180.44 200.94 L 182.71 200.95 L 184.97 198.99 L 187.24 198.98 L 189.50 198.94 L 191.77 198.94 L 194.03 198.91 L 196.30 198.90 L 198.56 198.93 L 200.83 198.93 L 203.09 198.99 L 205.36 198.95 L 207.62 198.96 L 209.89 198.95 L 212.15 198.95 L 214.42 198.97 L 216.69 198.97 L 218.95 198.97 L 221.22 198.97 L 223.48 198.97 L 225.75 198.97 L 228.01 198.97 L 230.28 198.97 L 232.54 198.97 L 234.81 198.97 L 237.07 198.97 L 239.34 197.51 L 241.60 197.43 L 243.87 197.40 L 246.13 197.38 L 248.40 197.38 L 250.66 197.49 L 252.93 197.34 L 255.19 197.33 L 257.46 197.18 L 259.72 197.41 L 261.99 197.41 L 264.25 197.29 L 266.52 197.29 L 268.78 197.22 L 271.05 197.21 L 273.31 197.15 L 275.58 196.94 L 277.85 197.00 L 280.11 197.41 L 282.38 197.41 L 284.64 197.30 L 286.91 197.26 L 289.17 197.19 L 291.44 197.19 L 293.70 197.19 L 295.97 197.19 L 298.23 197.18 L 300.50 197.12 L 302.76 197.09 L 305.03 197.04 L 307.29 197.00 L 309.56 196.96 L 311.82 196.92 L 314.09 196.91 L 316.35 196.86 L 318.62 196.80 L 320.88 196.75 L 323.15 196.69 L 325.41 196.66 L 327.68 196.63 L 329.94 196.56 L 332.21 196.51 L 334.48 196.47 L 336.74 196.45 L 339.01 196.40 L 341.27 196.37 L 343.54 196.34 L 345.80 196.28 L 348.07 196.20 L 350.33 196.12 L 352.60 196.02 L 354.86 195.89 L 357.13 195.77 L 359.39 195.68 L 361.66 195.63 L 363.92 195.58 L 366.19 195.53 L 368.45 195.44 L 370.72 195.35 L 372.98 195.22 L 375.25 195.11 L 377.51 194.95 L 379.78 194.82 L 382.04 194.68 L 384.31 194.57 L 386.57 194.55 L 388.84 194.51 L 391.10 194.48 L 393.37 194.44 L 395.64 194.40 L 397.90 194.37 L 400.17 194.34 L 402.43 194.29 L 404.70 194.25 L 406.96 194.23 L 409.23 194.21 L 411.49 194.19 L 413.76 194.16 L 416.02 194.12 L 418.29 194.07 L 420.55 193.99 L 422.82 193.94 L 425.08 193.87 L 427.35 193.80 L 429.61 193.74 L 431.88 193.72 L 434.14 193.70 L 436.41 193.66 L 438.67 193.62 L 440.94 193.56 L 443.20 193.49 L 445.47 193.43 L 447.73 193.35 L 450.00 193.27 L 452.27 193.20 L 454.53 193.14 L 456.80 193.15 L 459.06 193.15 L 461.33 193.15 L 463.59 193.18 L 465.86 193.09 L 468.12 193.07 L 470.39 193.07 L 472.65 193.08 L 474.92 193.00 L 477.18 192.95 L 479.45 192.95 L 481.71 192.95 L 483.98 192.95 L 486.24 192.80 L 488.51 192.73 L 490.77 192.69 L 493.04 192.67 L 495.30 192.67 L 497.57 192.68 L 499.83 192.64 L 502.10 192.63 L 504.36 192.63 L 506.63 190.39 L 508.90 189.96 L 511.16 189.85 L 513.43 189.53 L 515.69 189.52 L 517.96 189.36 L 520.22 187.79 L 522.49 187.36 L 524.75 181.35 L 527.02 181.35 L 529.28 180.72 L 531.55 180.71 L 533.81 180.26 L 536.08 179.68 L 538.34 179.67 L 540.61 178.77 L 542.87 177.57 L 545.14 175.55 L 547.40 174.52 L 549.67 173.86 L 551.93 174.17 L 554.20 173.10 L 556.46 173.10 L 558.73 171.18 L 560.99 168.37 L 563.26 168.37 L 565.52 165.86 L 567.79 163.63 L 570.06 163.63 L 572.32 163.62 L 574.59 162.88 L 576.85 161.06 L 579.12 193.89 L 581.38 193.22 L 583.65 192.73 L 585.91 192.34 L 588.18 189.45 L 590.44 188.03 L 592.71 188.03 L 594.97 180.86 L 597.24 148.96 L 599.50 144.25 L 601.77 176.00 L 604.03 176.17 L 606.30 175.77 L 608.56 175.72 L 610.83 197.26 L 613.09 197.26 L 615.36 197.06 L 617.62 196.44 L 619.89 194.49 L 622.15 194.50 L 624.42 194.49 L 626.69 194.49 L 628.95 194.49 L 631.22 194.48 L 633.48 194.48 L 635.75 194.62 L 638.01 206.08 L 640.28 206.08 L 642.54 206.05 L 644.81 206.04 L 647.07 205.22 L 649.34 204.28 L 651.60 204.28 L 653.87 204.28 L 656.13 200.22 L 658.40 204.28 L 660.66 204.28 L 662.93 204.28 L 665.19 198.60 L 667.46 198.60 L 669.72 198.60 L 671.99 198.60 L 674.25 193.00 L 676.52 193.00 L 678.78 188.39 L 681.05 188.39 L 683.31 179.75 L 685.58 174.84 L 687.85 173.23 L 690.11 170.37 L 692.38 169.87 L 694.64 153.88 L 696.91 149.24 L 699.17 152.04 L 701.44 141.93 L 703.70 141.88 L 705.97 141.69 L 708.23 141.69 L 710.50 141.76 L 712.76 141.75 L 715.03 140.68 L 717.29 141.38 L 719.56 141.36 L 721.82 141.83 L 724.09 141.39 L 726.35 141.39 L 728.62 141.52 L 730.88 141.52 L 733.15 141.53 L 735.41 142.33 L 737.68 141.73 L 739.94 141.68 L 742.21 141.68 L 744.48 141.66 L 746.74 141.67 L 749.01 141.65 L 751.27 139.51 L 753.54 136.07 L 755.80 136.04 L 758.07 133.43 L 760.33 131.89 L 762.60 131.13 L 764.86 131.51 L 767.13 131.50 L 769.39 131.57 L 771.66 131.56 L 773.92 131.49 L 776.19 131.49 L 778.45 131.49 L 780.72 131.49 L 782.98 131.49 L 785.25 131.49 L 787.51 131.49 L 789.78 131.49 L 792.04 131.49 L 794.31 131.49 L 796.57 131.49 L 798.84 131.49 L 801.10 131.49 L 803.37 131.49 L 805.64 131.49 L 807.90 131.49 L 810.17 131.49 L 812.43 131.49 L 814.70 131.49 L 816.96 131.49 L 819.23 131.49 L 821.49 131.49 L 823.76 131.49 L 826.02 131.49 L 828.29 131.49 L 830.55 131.49 L 832.82 131.49 L 835.08 131.49 L 837.35 131.49 L 839.61 131.49 L 841.88 131.49 L 844.14 131.49 L 846.41 131.49 L 848.67 131.49 L 850.94 131.49 L 853.20 131.49 L 855.47 131.49 L 857.73 131.49 L 860.00 131.49" fill="none" stroke="#111827" stroke-width="2"/>
    <circle cx="860.00" cy="131.49" r="3" fill="#111827"/>
    <text x="40.00" y="235.00" font-size="9" fill="#111827" text-anchor="middle" transform="rotate(-45 40.00 235.00)">27.09.2025</text><text x="121.55" y="235.00" font-size="9" fill="#111827" text-anchor="middle" transform="rotate(-45 121.55 235.00)">28.09.2025</text><text x="203.09" y="235.00" font-size="9" fill="#111827" text-anchor="middle" transform="rotate(-45 203.09 235.00)">28.09.2025</text><text x="284.64" y="235.00" font-size="9" fill="#111827" text-anchor="middle" transform="rotate(-45 284.64 235.00)">30.09.2025</text><text x="366.19" y="235.00" font-size="9" fill="#111827" text-anchor="middle" transform="rotate(-45 366.19 235.00)">04.10.2025</text><text x="447.73" y="235.00" font-size="9" fill="#111827" text-anchor="middle" transform="rotate(-45 447.73 235.00)">04.10.2025</text><text x="529.28" y="235.00" font-size="9" fill="#111827" text-anchor="middle" transform="rotate(-45 529.28 235.00)">04.10.2025</text><text x="610.83" y="235.00" font-size="9" fill="#111827" text-anchor="middle" transform="rotate(-45 610.83 235.00)">05.10.2025</text><text x="692.38" y="235.00" font-size="9" fill="#111827" text-anchor="middle" transform="rotate(-45 692.38 235.00)">08.10.2025</text><text x="773.92" y="235.00" font-size="9" fill="#111827" text-anchor="middle" transform="rotate(-45 773.92 235.00)">10.10.2025</text><text x="855.47" y="235.00" font-size="9" fill="#111827" text-anchor="middle" transform="rotate(-45 855.47 235.00)">14.11.2025</text>
  </g>
</svg>