<svg xmlns="http://www.w3.org/2000/svg" width="900" height="290" style="font-family: -apple-system, BlinkMacSystemFont, 'Segoe UI', Helvetica, Arial, sans-serif;">
  <rect width="100%" height="100%" fill="white"/>
  <g>
    <line x1="40" y1="220.00" x2="860" y2="220.00" stroke="#e5e7eb"/><text x="32" y="224.00" font-size="10" fill="#111827" text-anchor="end">0</text><line x1="40" y1="175.00" x2="860" y2="175.00" stroke="#e5e7eb"/><text x="32" y="179.00" font-size="10" fill="#111827" text-anchor="end">25k</text><line x1="40" y1="130.00" x2="860" y2="130.00" stroke="#e5e7eb"/><text x="32" y="134.00" font-size="10" fill="#111827" text-anchor="end">50k</text><line x1="40" y1="85.00" x2="860" y2="85.00" stroke="#e5e7eb"/><text x="32" y="89.00" font-size="10" fill="#111827" text-anchor="end">75k</text><line x1="40" y1="40.00" x2="860" y2="40.00" stroke="#e5e7eb"/><text x="32" y="44.00" font-size="10" fill="#111827" text-anchor="end">100k</text>
    <line x1="40.00" y1="40" x2="40.00" y2="220" stroke="#e5e7eb" opacity="0.5"/><line x1="121.61" y1="40" x2="121.61" y2="220" stroke="#e5e7eb" opacity="0.5"/><line x1="203.22" y1="40" x2="203.22" y2="220" stroke="#e5e7eb" opacity="0.5"/><line x1="284.83" y1="40" x2="284.83" y2="220" stroke="#e5e7eb" opacity="0.5"/><line x1="366.45" y1="40" x2="366.45" y2="220" stroke="#e5e7eb" opacity="0.5"/><line x1="448.06" y1="40" x2="448.06" y2="220" stroke="#e5e7eb" opacity="0.5"/><line x1="529.67" y1="40" x2="529.67" y2="220" stroke="#e5e7eb" opacity="0.5"/><line x1="611.28" y1="40" x2="611.28" y2="220" stroke="#e5e7eb" opacity="0.5"/><line x1="692.89" y1="40" x2="692.89" y2="220" stroke="#e5e7eb" opacity="0.5"/><line x1="774.50" y1="40" x2="774.50" y2="220" stroke="#e5e7eb" opacity="0.5"/><line x1="856.11" y1="40" x2="856.11" y2="220" stroke="#e5e7eb" opacity="0.5"/>
    <line x1="40" y1="220" x2="860" y2="220" stroke="#9ca3af"/>
    <line x1="40" y1="40"   x2="40"   y2="220" stroke="#9ca3af"/>
    <path d="M 40.00 220.00 L 41.94 220.00 L 43.89 219.60 L 45.83 219.62 L 47.77 219.63 L 49.72 219.32 L 51.66 219.31 L 53.60 219.26 L 55.55 218.89 L 57.49 218.89 L 59.43 218.89 L 61.37 218.87 L 63.32 218.87 L 65.26 218.86 L 67.20 218.85 L 69.15 218.85 L 71.09 218.82 L 73.03 218.78 L 74.98 218.72 L 76.92 218.68 L 78.86 218.64 L 80.81 218.59 L 82.75 218.59 L 84.69 218.57 L 86.64 218.57 L 88.58 218.57 L 90.52 218.57 L 92.46 218.57 L 94.41 218.57 L 96.35 218.57 L 98.29 218.57 L 100.24 218.57 L 102.18 218.55 L 104.12 218.54 L 106.07 218.58 L 108.01 218.55 L 109.95 218.55 L 111.90 218.53 L 113.84 218.31 L 115.78 217.94 L 117.73 217.88 L 119.67 217.87 L 121.61 217.86 L 123.55 217.85 L 125.50 217.84 L 127.44 217.85 L 129.38 217.82 L 131.33 217.66 L 133.27 217.61 L 135.21 217.60 L 137.16 217.57 L 139.10 217.56 L 141.04 217.52 L 142.99 217.38 L 144.93 217.24 L 146.87 216.93 L 148.82 216.65 L 150.76 216.44 L 152.70 216.39 L 154.64 216.34 L 156.59 216.83 L 158.53 200.94 L 160.47 200.94 L 162.42 200.95 L 164.36 198.99 L 166.30 198.98 L 168.25 198.94 L 170.19 198.94 L 172.13 198.91 L 174.08 198.90 L 176.02 198.93 L 177.96 198.93 L 179.91 198.99 L 181.85 198.95 L 183.79 198.96 L 185.73 198.95 L 187.68 198.95 L 189.62 198.97 L 191.56 198.97 L 193.51 198.97 L 195.45 198.97 L 197.39 198.97 L 199.34 198.97 L 201.28 198.97 L 203.22 198.97 L 205.17 198.97 L 207.11 198.97 L 209.05 198.97 L 211.00 197.51 L 212.94 197.43 L 214.88 197.40 L 216.82 197.38 L 218.77 197.38 L 220.71 197.49 L 222.65 197.34 L 224.60 197.33 L 226.54 197.18 L 228.48 197.41 L 230.43 197.41 L 232.37 197.29 L 234.31 197.29 L 236.26 197.22 L 238.20 197.21 L 240.14 197.15 L 242.09 196.94 L 244.03 197.00 L 245.97 197.41 L 247.91 197.41 L 249.86 197.30 L 251.80 197.26 L 253.74 197.19 L 255.69 197.19 L 257.63 197.19 L 259.57 197.19 L 261.52 197.18 L 263.46 197.12 L 265.40 197.09 L 267.35 197.04 L 269.29 197.00 L 271.23 196.96 L 273.18 196.92 L 275.12 196.91 L 277.06 196.86 L 279.00 196.80 L 280.95 196.75 L 282.89 196.69 L 284.83 196.66 L 286.78 196.63 L 288.72 196.56 L 290.66 196.51 L 292.61 196.47 L 294.55 196.45 L 296.49 196.40 L 298.44 196.37 L 300.38 196.34 L 302.32 196.28 L 304.27 196.20 L 306.21 196.12 L 308.15 196.02 L 310.09 195.89 L 312.04 195.77 L 313.98 195.68 L 315.92 195.63 L 317.87 195.58 L 319.81 195.53 L 321.75 195.44 L 323.70 195.35 L 325.64 195.22 L 327.58 195.11 L 329.53 194.95 L 331.47 194.82 L 333.41 194.68 L 335.36 194.57 L 337.30 194.55 L 339.24 194.51 L 341.18 194.48 L 343.13 194.44 L 345.07 194.40 L 347.01 194.37 L 348.96 194.34 L 350.90 194.29 L 352.84 194.25 L 354.79 194.23 L 356.73 194.21 L 358.67 194.19 L 360.62 194.16 L 362.56 194.12 L 364.50 194.07 L 366.45 193.99 L 368.39 193.94 L 370.33 193.87 L 372.27 193.80 L 374.22 193.74 L 376.16 193.72 L 378.10 193.70 L 380.05 193.66 L 381.99 193.62 L 383.93 193.56 L 385.88 193.49 L 387.82 193.43 L 389.76 193.35 L 391.71 193.27 L 393.65 193.20 L 395.59 193.14 L 397.54 193.15 L 399.48 193.15 L 401.42 193.15 L 403.36 193.18 L 405.31 193.09 L 407.25 193.07 L 409.19 193.07 L 411.14 193.08 L 413.08 193.00 L 415.02 192.95 L 416.97 192.95 L 418.91 192.95 L 420.85 192.95 L 422.80 192.80 L 424.74 192.73 L 426.68 192.69 L 428.63 192.67 L 430.57 192.67 L 432.51 192.68 L 434.45 192.64 L 436.40 192.63 L 438.34 192.63 L 440.28 190.39 L 442.23 189.96 L 444.17 189.85 L 446.11 189.53 L 448.06 189.52 L 450.00 189.36 L 451.94 187.79 L 453.89 187.36 L 455.83 181.35 L 457.77 181.35 L 459.72 180.72 L 461.66 180.71 L 463.60 180.26 L 465.55 179.68 L 467.49 179.67 L 469.43 178.77 L 471.37 177.57 L 473.32 175.55 L 475.26 174.52 L 477.20 173.86 L 479.15 174.17 L 481.09 173.10 L 483.03 173.10 L 484.98 171.18 L 486.92 168.37 L 488.86 168.37 L 490.81 165.86 L 492.75 163.63 L 494.69 163.63 L 496.64 163.62 L 498.58 162.88 L 500.52 161.06 L 502.46 193.89 L 504.41 193.22 L 506.35 192.73 L 508.29 192.34 L 510.24 189.45 L 512.18 188.03 L 514.12 188.03 L 516.07 180.86 L 518.01 148.96 L 519.95 144.25 L 521.90 176.00 L 523.84 176.17 L 525.78 175.77 L 527.73 175.72 L 529.67 197.26 L 531.61 197.26 L 533.55 197.06 L 535.50 196.44 L 537.44 194.49 L 539.38 194.50 L 541.33 194.49 L 543.27 194.49 L 545.21 194.49 L 547.16 194.48 L 549.10 194.48 L 551.04 194.62 L 552.99 206.08 L 554.93 206.08 L 556.87 206.05 L 558.82 206.04 L 560.76 205.22 L 562.70 204.28 L 564.64 204.28 L 566.59 204.28 L 568.53 200.22 L 570.47 204.28 L 572.42 204.28 L 574.36 204.28 L 576.30 198.60 L 578.25 198.60 L 580.19 198.60 L 582.13 198.60 L 584.08 193.00 L 586.02 193.00 L 587.96 188.39 L 589.91 188.39 L 591.85 179.75 L 593.79 174.84 L 595.73 173.23 L 597.68 170.37 L 599.62 169.87 L 601.56 153.88 L 603.51 149.24 L 605.45 152.04 L 607.39 141.93 L 609.34 141.88 L 611.28 141.69 L 613.22 141.69 L 615.17 141.76 L 617.11 141.75 L 619.05 140.68 L 621.00 141.38 L 622.94 141.36 L 624.88 141.83 L 626.82 141.39 L 628.77 141.39 L 630.71 141.52 L 632.65 141.52 L 634.60 141.53 L 636.54 142.33 L 638.48 141.73 L 640.43 141.68 L 642.37 141.68 L 644.31 141.66 L 646.26 141.67 L 648.20 141.65 L 650.14 139.51 L 652.09 136.07 L 654.03 136.04 L 655.97 133.43 L 657.91 131.89 L 659.86 131.13 L 661.80 131.51 L 663.74 131.50 L 665.69 131.57 L 667.63 131.56 L 669.57 131.49 L 671.52 131.49 L 673.46 131.49 L 675.40 131.49 L 677.35 131.49 L 679.29 131.49 L 681.23 131.49 L 683.18 131.49 L 685.12 131.49 L 687.06 131.49 L 689.00 131.49 L 690.95 131.49 L 692.89 131.49 L 694.83 131.49 L 696.78 131.49 L 698.72 131.49 L 700.66 131.49 L 702.61 131.49 L 704.55 131.49 L 706.49 131.49 L 708.44 131.49 L 710.38 131.49 L 712.32 131.49 L 714.27 131.49 L 716.21 131.49 L 718.15 131.49 L 720.09 131.49 L 722.04 131.49 L 723.98 131.49 L 725.92 131.49 L 727.87 131.49 L 729.81 131.49 L 731.75 131.49 L 733.70 131.49 L 735.64 131.49 L 737.58 131.49 L 739.53 131.49 L 741.47 131.49 L 743.41 131.49 L 745.36 131.49 L 747.30 131.49 L 749.24 131.49 L 751.18 131.49 L 753.13 131.49 L 755.07 131.49 L 757.01 131.49 L 758.96 131.49 L 760.90 131.49 L 762.84 131.49 L 764.79 131.49 L 766.73 131.49 L 768.67 131.49 L 770.62 131.49 L 772.56 131.49 L 774.50 131.49 L 776.45 131.49 L 778.39 131.49 L 780.33 131.49 L 782.27 131.49 L 784.22 131.49 L 786.16 131.49 L 788.10 131.49 L 790.05 131.49 L 791.99 131.49 L 793.93 131.49 L 795.88 131.49 L 797.82 131.49 L 799.76 131.49 L 801.71 131.49 L 803.65 131.49 L 805.59 131.49 L 807.54 131.49 L 809.48 131.49 L 811.42 131.49 L 813.36 131.49 L 815.31 131.49 L 817.25 131.49 L 819.19 131.49 L 821.14 131.49 L 823.08 131.49 L 825.02 131.49 L 826.97 131.49 L 828.91 131.49 L 830.85 131.49 L 832.80 131.49 L 834.74 131.49 L 836.68 131.49 L 838.63 131.49 L 840.57 131.49 L 842.51 131.49 L 844.45 131.49 L 846.40 131.49 L 848.34 131.49 L 850.28 131.49 L 852.23 131.49 L 854.17 131.49 L 856.11 131.49 L 858.06 131.49 L 860.00 131.49" fill="none" stroke="#111827" stroke-width="2"/>
    <circle cx="860.00" cy="131.49" r="3" fill="#111827"/>
    <text x="40.00" y="235.00" font-size="9" fill="#111827" text-anchor="middle" transform="rotate(-45 40.00 235.00)">27.09.2025</text><text x="121.61" y="235.00" font-size="9" fill="#111827" text-anchor="middle" transform="rotate(-45 121.61 235.00)">28.09.2025</text><text x="203.22" y="235.00" font-size="9" fill="#111827" text-anchor="middle" transform="rotate(-45 203.22 235.00)">29.09.2025</text><text x="284.83" y="235.00" font-size="9" fill="#111827" text-anchor="middle" transform="rotate(-45 284.83 235.00)">04.10.2025</text><text x="366.45" y="235.00" font-size="9" fill="#111827" text-anchor="middle" transform="rotate(-45 366.45 235.00)">04.10.2025</text><text x="448.06" y="235.00" font-size="9" fill="#111827" text-anchor="middle" transform="rotate(-45 448.06 235.00)">04.10.2025</text><text x="529.67" y="235.00" font-size="9" fill="#111827" text-anchor="middle" transform="rotate(-45 529.67 235.00)">05.10.2025</text><text x="611.28" y="235.00" font-size="9" fill="#111827" text-anchor="middle" transform="rotate(-45 611.28 235.00)">08.10.2025</text><text x="692.89" y="235.00" font-size="9" fill="#111827" text-anchor="middle" transform="rotate(-45 692.89 235.00)">21.10.2025</text><text x="774.50" y="235.00" font-size="9" fill="#111827" text-anchor="middle" transform="rotate(-45 774.50 235.00)">02.12.2025</text><text x="856.11" y="235.00" font-size="9" fill="#111827" text-anchor="middle" transform="rotate(-45 856.11 235.00)">13.01.2026</text>
  </g>
</svg>