<svg xmlns="http://www.w3.org/2000/svg" width="900" height="290" style="font-family: -apple-system, BlinkMacSystemFont, 'Segoe UI', Helvetica, Arial, sans-serif;">
  <rect width="100%" height="100%" fill="white"/>
  <g>
    <line x1="40" y1="220.00" x2="860" y2="220.00" stroke="#e5e7eb"/><text x="32" y="224.00" font-size="10" fill="#111827" text-anchor="end">0</text><line x1="40" y1="175.00" x2="860" y2="175.00" stroke="#e5e7eb"/><text x="32" y="179.00" font-size="10" fill="#111827" text-anchor="end">25k</text><line x1="40" y1="130.00" x2="860" y2="130.00" stroke="#e5e7eb"/><text x="32" y="134.00" font-size="10" fill="#111827" text-anchor="end">50k</text><line x1="40" y1="85.00" x2="860" y2="85.00" stroke="#e5e7eb"/><text x="32" y="89.00" font-size="10" fill="#111827" text-anchor="end">75k</text><line x1="40" y1="40.00" x2="860" y2="40.00" stroke="#e5e7eb"/><text x="32" y="44.00" font-size="10" fill="#111827" text-anchor="end">100k</text>
    <line x1="40.00" y1="40" x2="40.00" y2="220" stroke="#e5e7eb" opacity="0.5"/><line x1="120.99" y1="40" x2="120.99" y2="220" stroke="#e5e7eb" opacity="0.5"/><line x1="201.98" y1="40" x2="201.98" y2="220" stroke="#e5e7eb" opacity="0.5"/><line x1="282.96" y1="40" x2="282.96" y2="220" stroke="#e5e7eb" opacity="0.5"/><line x1="363.95" y1="40" x2="363.95" y2="220" stroke="#e5e7eb" opacity="0.5"/><line x1="444.94" y1="40" x2="444.94" y2="220" stroke="#e5e7eb" opacity="0.5"/><line x1="525.93" y1="40" x2="525.93" y2="220" stroke="#e5e7eb" opacity="0.5"/><line x1="606.91" y1="40" x2="606.91" y2="220" stroke="#e5e7eb" opacity="0.5"/><line x1="687.90" y1="40" x2="687.90" y2="220" stroke="#e5e7eb" opacity="0.5"/><line x1="768.89" y1="40" x2="768.89" y2="220" stroke="#e5e7eb" opacity="0.5"/><line x1="849.88" y1="40" x2="849.88" y2="220" stroke="#e5e7eb" opacity="0.5"/>
    <line x1="40" y1="220" x2="860" y2="220" stroke="#9ca3af"/>
    <line x1="40" y1="40"   x2="40"   y2="220" stroke="#9ca3af"/>
    <path d="M 40.00 220.00 L 42.02 220.00 L 44.05 219.60 L 46.07 219.62 L 48.10 219.63 L 50.12 219.32 L 52.15 219.31 L 54.17 219.26 L 56.20 218.89 L 58.22 218.89 L 60.25 218.89 L 62.27 218.87 L 64.30 218.87 L 66.32 218.86 L 68.35 218.85 L 70.37 218.85 L 72.40 218.82 L 74.42 218.78 L 76.44 218.72 L 78.47 218.68 L 80.49 218.64 L 82.52 218.59 L 84.54 218.59 L 86.57 218.57 L 88.59 218.57 L 90.62 218.57 L 92.64 218.57 L 94.67 218.57 L 96.69 218.57 L 98.72 218.57 L 100.74 218.57 L 102.77 218.57 L 104.79 218.55 L 106.81 218.54 L 108.84 218.58 L 110.86 218.55 L 112.89 218.55 L 114.91 218.53 L 116.94 218.31 L 118.96 217.94 L 120.99 217.88 L 123.01 217.87 L 125.04 217.86 L 127.06 217.85 L 129.09 217.84 L 131.11 217.85 L 133.14 217.82 L 135.16 217.66 L 137.19 217.61 L 139.21 217.60 L 141.23 217.57 L 143.26 217.56 L 145.28 217.52 L 147.31 217.38 L 149.33 217.24 L 151.36 216.93 L 153.38 216.65 L 155.41 216.44 L 157.43 216.39 L 159.46 216.34 L 161.48 216.83 L 163.51 200.94 L 165.53 200.94 L 167.56 200.95 L 169.58 198.99 L 171.60 198.98 L 173.63 198.94 L 175.65 198.94 L 177.68 198.91 L 179.70 198.90 L 181.73 198.93 L 183.75 198.93 L 185.78 198.99 L 187.80 198.95 L 189.83 198.96 L 191.85 198.95 L 193.88 198.95 L 195.90 198.97 L 197.93 198.97 L 199.95 198.97 L 201.98 198.97 L 204.00 198.97 L 206.02 198.97 L 208.05 198.97 L 210.07 198.97 L 212.10 198.97 L 214.12 198.97 L 216.15 198.97 L 218.17 197.51 L 220.20 197.43 L 222.22 197.40 L 224.25 197.38 L 226.27 197.38 L 228.30 197.49 L 230.32 197.34 L 232.35 197.33 L 234.37 197.18 L 236.40 197.41 L 238.42 197.41 L 240.44 197.29 L 242.47 197.29 L 244.49 197.22 L 246.52 197.21 L 248.54 197.15 L 250.57 196.94 L 252.59 197.00 L 254.62 197.41 L 256.64 197.41 L 258.67 197.30 L 260.69 197.26 L 262.72 197.19 L 264.74 197.19 L 266.77 197.19 L 268.79 197.19 L 270.81 197.18 L 272.84 197.12 L 274.86 197.09 L 276.89 197.04 L 278.91 197.00 L 280.94 196.96 L 282.96 196.92 L 284.99 196.91 L 287.01 196.86 L 289.04 196.80 L 291.06 196.75 L 293.09 196.69 L 295.11 196.66 L 297.14 196.63 L 299.16 196.56 L 301.19 196.51 L 303.21 196.47 L 305.23 196.45 L 307.26 196.40 L 309.28 196.37 L 311.31 196.34 L 313.33 196.28 L 315.36 196.20 L 317.38 196.12 L 319.41 196.02 L 321.43 195.89 L 323.46 195.77 L 325.48 195.68 L 327.51 195.63 L 329.53 195.58 L 331.56 195.53 L 333.58 195.44 L 335.60 195.35 L 337.63 195.22 L 339.65 195.11 L 341.68 194.95 L 343.70 194.82 L 345.73 194.68 L 347.75 194.57 L 349.78 194.55 L 351.80 194.51 L 353.83 194.48 L 355.85 194.44 L 357.88 194.40 L 359.90 194.37 L 361.93 194.34 L 363.95 194.29 L 365.98 194.25 L 368.00 194.23 L 370.02 194.21 L 372.05 194.19 L 374.07 194.16 L 376.10 194.12 L 378.12 194.07 L 380.15 193.99 L 382.17 193.94 L 384.20 193.87 L 386.22 193.80 L 388.25 193.74 L 390.27 193.72 L 392.30 193.70 L 394.32 193.66 L 396.35 193.62 L 398.37 193.56 L 400.40 193.49 L 402.42 193.43 L 404.44 193.35 L 406.47 193.27 L 408.49 193.20 L 410.52 193.14 L 412.54 193.15 L 414.57 193.15 L 416.59 193.15 L 418.62 193.18 L 420.64 193.09 L 422.67 193.07 L 424.69 193.07 L 426.72 193.08 L 428.74 193.00 L 430.77 192.95 L 432.79 192.95 L 434.81 192.95 L 436.84 192.95 L 438.86 192.80 L 440.89 192.73 L 442.91 192.69 L 444.94 192.67 L 446.96 192.67 L 448.99 192.68 L 451.01 192.64 L 453.04 192.63 L 455.06 192.63 L 457.09 190.39 L 459.11 189.96 L 461.14 189.85 L 463.16 189.53 L 465.19 189.52 L 467.21 189.36 L 469.23 187.79 L 471.26 187.36 L 473.28 181.35 L 475.31 181.35 L 477.33 180.72 L 479.36 180.71 L 481.38 180.26 L 483.41 179.68 L 485.43 179.67 L 487.46 178.77 L 489.48 177.57 L 491.51 175.55 L 493.53 174.52 L 495.56 173.86 L 497.58 174.17 L 499.60 173.10 L 501.63 173.10 L 503.65 171.18 L 505.68 168.37 L 507.70 168.37 L 509.73 165.86 L 511.75 163.63 L 513.78 163.63 L 515.80 163.62 L 517.83 162.88 L 519.85 161.06 L 521.88 193.89 L 523.90 193.22 L 525.93 192.73 L 527.95 192.34 L 529.98 189.45 L 532.00 188.03 L 534.02 188.03 L 536.05 180.86 L 538.07 148.96 L 540.10 144.25 L 542.12 176.00 L 544.15 176.17 L 546.17 175.77 L 548.20 175.72 L 550.22 197.26 L 552.25 197.26 L 554.27 197.06 L 556.30 196.44 L 558.32 194.49 L 560.35 194.50 L 562.37 194.49 L 564.40 194.49 L 566.42 194.49 L 568.44 194.48 L 570.47 194.48 L 572.49 194.62 L 574.52 206.08 L 576.54 206.08 L 578.57 206.05 L 580.59 206.04 L 582.62 205.22 L 584.64 204.28 L 586.67 204.28 L 588.69 204.28 L 590.72 200.22 L 592.74 204.28 L 594.77 204.28 L 596.79 204.28 L 598.81 198.60 L 600.84 198.60 L 602.86 198.60 L 604.89 198.60 L 606.91 193.00 L 608.94 193.00 L 610.96 188.39 L 612.99 188.39 L 615.01 179.75 L 617.04 174.84 L 619.06 173.23 L 621.09 170.37 L 623.11 169.87 L 625.14 153.88 L 627.16 149.24 L 629.19 152.04 L 631.21 141.93 L 633.23 141.88 L 635.26 141.69 L 637.28 141.69 L 639.31 141.76 L 641.33 141.75 L 643.36 140.68 L 645.38 141.38 L 647.41 141.36 L 649.43 141.83 L 651.46 141.39 L 653.48 141.39 L 655.51 141.52 L 657.53 141.52 L 659.56 141.53 L 661.58 142.33 L 663.60 141.73 L 665.63 141.68 L 667.65 141.68 L 669.68 141.66 L 671.70 141.67 L 673.73 141.65 L 675.75 139.51 L 677.78 136.07 L 679.80 136.04 L 681.83 133.43 L 683.85 131.89 L 685.88 131.13 L 687.90 131.51 L 689.93 131.50 L 691.95 131.57 L 693.98 131.56 L 696.00 131.49 L 698.02 131.49 L 700.05 131.49 L 702.07 131.49 L 704.10 131.49 L 706.12 131.49 L 708.15 131.49 L 710.17 131.49 L 712.20 131.49 L 714.22 131.49 L 716.25 131.49 L 718.27 131.49 L 720.30 131.49 L 722.32 131.49 L 724.35 131.49 L 726.37 131.49 L 728.40 131.49 L 730.42 131.49 L 732.44 131.49 L 734.47 131.49 L 736.49 131.49 L 738.52 131.49 L 740.54 131.49 L 742.57 131.49 L 744.59 131.49 L 746.62 131.49 L 748.64 131.49 L 750.67 131.49 L 752.69 131.49 L 754.72 131.49 L 756.74 131.49 L 758.77 131.49 L 760.79 131.49 L 762.81 131.49 L 764.84 131.49 L 766.86 131.49 L 768.89 131.49 L 770.91 131.49 L 772.94 131.49 L 774.96 131.49 L 776.99 131.49 L 779.01 131.49 L 781.04 131.49 L 783.06 131.49 L 785.09 131.49 L 787.11 131.49 L 789.14 131.49 L 791.16 131.49 L 793.19 131.49 L 795.21 131.49 L 797.23 131.49 L 799.26 131.49 L 801.28 131.49 L 803.31 131.49 L 805.33 131.49 L 807.36 131.49 L 809.38 131.49 L 811.41 131.49 L 813.43 131.49 L 815.46 131.49 L 817.48 131.49 L 819.51 131.49 L 821.53 131.49 L 823.56 131.49 L 825.58 131.49 L 827.60 131.49 L 829.63 131.49 L 831.65 131.49 L 833.68 131.49 L 835.70 131.49 L 837.73 131.49 L 839.75 131.49 L 841.78 131.49 L 843.80 131.49 L 845.83 131.49 L 847.85 131.49 L 849.88 131.49 L 851.90 131.49 L 853.93 131.49 L 855.95 131.49 L 857.98 131.49 L 860.00 131.49" fill="none" stroke="#111827" stroke-width="2"/>
    <circle cx="860.00" cy="131.49" r="3" fill="#111827"/>
    <text x="40.00" y="235.00" font-size="9" fill="#111827" text-anchor="middle" transform="rotate(-45 40.00 235.00)">27.09.2025</text><text x="120.99" y="235.00" font-size="9" fill="#111827" text-anchor="middle" transform="rotate(-45 120.99 235.00)">28.09.2025</text><text x="201.98" y="235.00" font-size="9" fill="#111827" text-anchor="middle" transform="rotate(-45 201.98 235.00)">29.09.2025</text><text x="282.96" y="235.00" font-size="9" fill="#111827" text-anchor="middle" transform="rotate(-45 282.96 235.00)">04.10.2025</text><text x="363.95" y="235.00" font-size="9" fill="#111827" text-anchor="middle" transform="rotate(-45 363.95 235.00)">04.10.2025</text><text x="444.94" y="235.00" font-size="9" fill="#111827" text-anchor="middle" transform="rotate(-45 444.94 235.00)">04.10.2025</text><text x="525.93" y="235.00" font-size="9" fill="#111827" text-anchor="middle" transform="rotate(-45 525.93 235.00)">04.10.2025</text><text x="606.91" y="235.00" font-size="9" fill="#111827" text-anchor="middle" transform="rotate(-45 606.91 235.00)">07.10.2025</text><text x="687.90" y="235.00" font-size="9" fill="#111827" text-anchor="middle" transform="rotate(-45 687.90 235.00)">09.10.2025</text><text x="768.89" y="235.00" font-size="9" fill="#111827" text-anchor="middle" transform="rotate(-45 768.89 235.00)">14.11.2025</text><text x="849.88" y="235.00" font-size="9" fill="#111827" text-anchor="middle" transform="rotate(-45 849.88 235.00)">24.12.2025</text>
  </g>
</svg>