<svg xmlns="http://www.w3.org/2000/svg" width="900" height="290" style="font-family: -apple-system, BlinkMacSystemFont, 'Segoe UI', Helvetica, Arial, sans-serif;">
  <rect width="100%" height="100%" fill="white"/>
  <g>
    <line x1="40" y1="220.00" x2="860" y2="220.00" stroke="#e5e7eb"/><text x="32" y="224.00" font-size="10" fill="#111827" text-anchor="end">0</text><line x1="40" y1="175.00" x2="860" y2="175.00" stroke="#e5e7eb"/><text x="32" y="179.00" font-size="10" fill="#111827" text-anchor="end">25k</text><line x1="40" y1="130.00" x2="860" y2="130.00" stroke="#e5e7eb"/><text x="32" y="134.00" font-size="10" fill="#111827" text-anchor="end">50k</text><line x1="40" y1="85.00" x2="860" y2="85.00" stroke="#e5e7eb"/><text x="32" y="89.00" font-size="10" fill="#111827" text-anchor="end">75k</text><line x1="40" y1="40.00" x2="860" y2="40.00" stroke="#e5e7eb"/><text x="32" y="44.00" font-size="10" fill="#111827" text-anchor="end">100k</text>
    <line x1="40.00" y1="40" x2="40.00" y2="220" stroke="#e5e7eb" opacity="0.5"/><line x1="120.94" y1="40" x2="120.94" y2="220" stroke="#e5e7eb" opacity="0.5"/><line x1="201.87" y1="40" x2="201.87" y2="220" stroke="#e5e7eb" opacity="0.5"/><line x1="282.81" y1="40" x2="282.81" y2="220" stroke="#e5e7eb" opacity="0.5"/><line x1="363.74" y1="40" x2="363.74" y2="220" stroke="#e5e7eb" opacity="0.5"/><line x1="444.68" y1="40" x2="444.68" y2="220" stroke="#e5e7eb" opacity="0.5"/><line x1="525.61" y1="40" x2="525.61" y2="220" stroke="#e5e7eb" opacity="0.5"/><line x1="606.55" y1="40" x2="606.55" y2="220" stroke="#e5e7eb" opacity="0.5"/><line x1="687.48" y1="40" x2="687.48" y2="220" stroke="#e5e7eb" opacity="0.5"/><line x1="768.42" y1="40" x2="768.42" y2="220" stroke="#e5e7eb" opacity="0.5"/><line x1="849.35" y1="40" x2="849.35" y2="220" stroke="#e5e7eb" opacity="0.5"/>
    <line x1="40" y1="220" x2="860" y2="220" stroke="#9ca3af"/>
    <line x1="40" y1="40"   x2="40"   y2="220" stroke="#9ca3af"/>
    <path d="M 40.00 220.00 L 42.13 220.00 L 44.26 219.60 L 46.39 219.62 L 48.52 219.63 L 50.65 219.32 L 52.78 219.31 L 54.91 219.26 L 57.04 218.89 L 59.17 218.89 L 61.30 218.89 L 63.43 218.87 L 65.56 218.87 L 67.69 218.86 L 69.82 218.85 L 71.95 218.85 L 74.08 218.82 L 76.21 218.78 L 78.34 218.72 L 80.47 218.68 L 82.60 218.64 L 84.73 218.59 L 86.86 218.59 L 88.99 218.57 L 91.12 218.57 L 93.25 218.57 L 95.38 218.57 L 97.51 218.57 L 99.64 218.57 L 101.77 218.57 L 103.90 218.57 L 106.03 218.57 L 108.16 218.55 L 110.29 218.54 L 112.42 218.58 L 114.55 218.55 L 116.68 218.55 L 118.81 218.53 L 120.94 218.31 L 123.06 217.94 L 125.19 217.88 L 127.32 217.87 L 129.45 217.86 L 131.58 217.85 L 133.71 217.84 L 135.84 217.85 L 137.97 217.82 L 140.10 217.66 L 142.23 217.61 L 144.36 217.60 L 146.49 217.57 L 148.62 217.56 L 150.75 217.52 L 152.88 217.38 L 155.01 217.24 L 157.14 216.93 L 159.27 216.65 L 161.40 216.44 L 163.53 216.39 L 165.66 216.34 L 167.79 216.83 L 169.92 200.94 L 172.05 200.94 L 174.18 200.95 L 176.31 198.99 L 178.44 198.98 L 180.57 198.94 L 182.70 198.94 L 184.83 198.91 L 186.96 198.90 L 189.09 198.93 L 191.22 198.93 L 193.35 198.99 L 195.48 198.95 L 197.61 198.96 L 199.74 198.95 L 201.87 198.95 L 204.00 198.97 L 206.13 198.97 L 208.26 198.97 L 210.39 198.97 L 212.52 198.97 L 214.65 198.97 L 216.78 198.97 L 218.91 198.97 L 221.04 198.97 L 223.17 198.97 L 225.30 198.97 L 227.43 197.51 L 229.56 197.43 L 231.69 197.40 L 233.82 197.38 L 235.95 197.38 L 238.08 197.49 L 240.21 197.34 L 242.34 197.33 L 244.47 197.18 L 246.60 197.41 L 248.73 197.41 L 250.86 197.29 L 252.99 197.29 L 255.12 197.22 L 257.25 197.21 L 259.38 197.15 L 261.51 196.94 L 263.64 197.00 L 265.77 197.41 L 267.90 197.41 L 270.03 197.30 L 272.16 197.26 L 274.29 197.19 L 276.42 197.19 L 278.55 197.19 L 280.68 197.19 L 282.81 197.18 L 284.94 197.12 L 287.06 197.09 L 289.19 197.04 L 291.32 197.00 L 293.45 196.96 L 295.58 196.92 L 297.71 196.91 L 299.84 196.86 L 301.97 196.80 L 304.10 196.75 L 306.23 196.69 L 308.36 196.66 L 310.49 196.63 L 312.62 196.56 L 314.75 196.51 L 316.88 196.47 L 319.01 196.45 L 321.14 196.40 L 323.27 196.37 L 325.40 196.34 L 327.53 196.28 L 329.66 196.20 L 331.79 196.12 L 333.92 196.02 L 336.05 195.89 L 338.18 195.77 L 340.31 195.68 L 342.44 195.63 L 344.57 195.58 L 346.70 195.53 L 348.83 195.44 L 350.96 195.35 L 353.09 195.22 L 355.22 195.11 L 357.35 194.95 L 359.48 194.82 L 361.61 194.68 L 363.74 194.57 L 365.87 194.55 L 368.00 194.51 L 370.13 194.48 L 372.26 194.44 L 374.39 194.40 L 376.52 194.37 L 378.65 194.34 L 380.78 194.29 L 382.91 194.25 L 385.04 194.23 L 387.17 194.21 L 389.30 194.19 L 391.43 194.16 L 393.56 194.12 L 395.69 194.07 L 397.82 193.99 L 399.95 193.94 L 402.08 193.87 L 404.21 193.80 L 406.34 193.74 L 408.47 193.72 L 410.60 193.70 L 412.73 193.66 L 414.86 193.62 L 416.99 193.56 L 419.12 193.49 L 421.25 193.43 L 423.38 193.35 L 425.51 193.27 L 427.64 193.20 L 429.77 193.14 L 431.90 193.15 L 434.03 193.15 L 436.16 193.15 L 438.29 193.18 L 440.42 193.09 L 442.55 193.07 L 444.68 193.07 L 446.81 193.08 L 448.94 193.00 L 451.06 192.95 L 453.19 192.95 L 455.32 192.95 L 457.45 192.95 L 459.58 192.80 L 461.71 192.73 L 463.84 192.69 L 465.97 192.67 L 468.10 192.67 L 470.23 192.68 L 472.36 192.64 L 474.49 192.63 L 476.62 192.63 L 478.75 190.39 L 480.88 189.96 L 483.01 189.85 L 485.14 189.53 L 487.27 189.52 L 489.40 189.36 L 491.53 187.79 L 493.66 187.36 L 495.79 181.35 L 497.92 181.35 L 500.05 180.72 L 502.18 180.71 L 504.31 180.26 L 506.44 179.68 L 508.57 179.67 L 510.70 178.77 L 512.83 177.57 L 514.96 175.55 L 517.09 174.52 L 519.22 173.86 L 521.35 174.17 L 523.48 173.10 L 525.61 173.10 L 527.74 171.18 L 529.87 168.37 L 532.00 168.37 L 534.13 165.86 L 536.26 163.63 L 538.39 163.63 L 540.52 163.62 L 542.65 162.88 L 544.78 161.06 L 546.91 193.89 L 549.04 193.22 L 551.17 192.73 L 553.30 192.34 L 555.43 189.45 L 557.56 188.03 L 559.69 188.03 L 561.82 180.86 L 563.95 148.96 L 566.08 144.25 L 568.21 176.00 L 570.34 176.17 L 572.47 175.77 L 574.60 175.72 L 576.73 197.26 L 578.86 197.26 L 580.99 197.06 L 583.12 196.44 L 585.25 194.49 L 587.38 194.50 L 589.51 194.49 L 591.64 194.49 L 593.77 194.49 L 595.90 194.48 L 598.03 194.48 L 600.16 194.62 L 602.29 206.08 L 604.42 206.08 L 606.55 206.05 L 608.68 206.04 L 610.81 205.22 L 612.94 204.28 L 615.06 204.28 L 617.19 204.28 L 619.32 200.22 L 621.45 204.28 L 623.58 204.28 L 625.71 204.28 L 627.84 198.60 L 629.97 198.60 L 632.10 198.60 L 634.23 198.60 L 636.36 193.00 L 638.49 193.00 L 640.62 188.39 L 642.75 188.39 L 644.88 179.75 L 647.01 174.84 L 649.14 173.23 L 651.27 170.37 L 653.40 169.87 L 655.53 153.88 L 657.66 149.24 L 659.79 152.04 L 661.92 141.93 L 664.05 141.88 L 666.18 141.69 L 668.31 141.69 L 670.44 141.76 L 672.57 141.75 L 674.70 140.68 L 676.83 141.38 L 678.96 141.36 L 681.09 141.83 L 683.22 141.39 L 685.35 141.39 L 687.48 141.52 L 689.61 141.52 L 691.74 141.53 L 693.87 142.33 L 696.00 141.73 L 698.13 141.68 L 700.26 141.68 L 702.39 141.66 L 704.52 141.67 L 706.65 141.65 L 708.78 139.51 L 710.91 136.07 L 713.04 136.04 L 715.17 133.43 L 717.30 131.89 L 719.43 131.13 L 721.56 131.51 L 723.69 131.50 L 725.82 131.57 L 727.95 131.56 L 730.08 131.49 L 732.21 131.49 L 734.34 131.49 L 736.47 131.49 L 738.60 131.49 L 740.73 131.49 L 742.86 131.49 L 744.99 131.49 L 747.12 131.49 L 749.25 131.49 L 751.38 131.49 L 753.51 131.49 L 755.64 131.49 L 757.77 131.49 L 759.90 131.49 L 762.03 131.49 L 764.16 131.49 L 766.29 131.49 L 768.42 131.49 L 770.55 131.49 L 772.68 131.49 L 774.81 131.49 L 776.94 131.49 L 779.06 131.49 L 781.19 131.49 L 783.32 131.49 L 785.45 131.49 L 787.58 131.49 L 789.71 131.49 L 791.84 131.49 L 793.97 131.49 L 796.10 131.49 L 798.23 131.49 L 800.36 131.49 L 802.49 131.49 L 804.62 131.49 L 806.75 131.49 L 808.88 131.49 L 811.01 131.49 L 813.14 131.49 L 815.27 131.49 L 817.40 131.49 L 819.53 131.49 L 821.66 131.49 L 823.79 131.49 L 825.92 131.49 L 828.05 131.49 L 830.18 131.49 L 832.31 131.49 L 834.44 131.49 L 836.57 131.49 L 838.70 131.49 L 840.83 131.49 L 842.96 131.49 L 845.09 131.49 L 847.22 131.49 L 849.35 131.49 L 851.48 131.49 L 853.61 131.49 L 855.74 131.49 L 857.87 131.49 L 860.00 131.49" fill="none" stroke="#111827" stroke-width="2"/>
    <circle cx="860.00" cy="131.49" r="3" fill="#111827"/>
    <text x="40.00" y="235.00" font-size="9" fill="#111827" text-anchor="middle" transform="rotate(-45 40.00 235.00)">27.09.2025</text><text x="120.94" y="235.00" font-size="9" fill="#111827" text-anchor="middle" transform="rotate(-45 120.94 235.00)">28.09.2025</text><text x="201.87" y="235.00" font-size="9" fill="#111827" text-anchor="middle" transform="rotate(-45 201.87 235.00)">29.09.2025</text><text x="282.81" y="235.00" font-size="9" fill="#111827" text-anchor="middle" transform="rotate(-45 282.81 235.00)">04.10.2025</text><text x="363.74" y="235.00" font-size="9" fill="#111827" text-anchor="middle" transform="rotate(-45 363.74 235.00)">04.10.2025</text><text x="444.68" y="235.00" font-size="9" fill="#111827" text-anchor="middle" transform="rotate(-45 444.68 235.00)">04.10.2025</text><text x="525.61" y="235.00" font-size="9" fill="#111827" text-anchor="middle" transform="rotate(-45 525.61 235.00)">04.10.2025</text><text x="606.55" y="235.00" font-size="9" fill="#111827" text-anchor="middle" transform="rotate(-45 606.55 235.00)">05.10.2025</text><text x="687.48" y="235.00" font-size="9" fill="#111827" text-anchor="middle" transform="rotate(-45 687.48 235.00)">09.10.2025</text><text x="768.42" y="235.00" font-size="9" fill="#111827" text-anchor="middle" transform="rotate(-45 768.42 235.00)">27.10.2025</text><text x="849.35" y="235.00" font-size="9" fill="#111827" text-anchor="middle" transform="rotate(-45 849.35 235.00)">04.12.2025</text>
  </g>
</svg>