<svg xmlns="http://www.w3.org/2000/svg" width="900" height="290" style="font-family: -apple-system, BlinkMacSystemFont, 'Segoe UI', Helvetica, Arial, sans-serif;">
  <rect width="100%" height="100%" fill="#0d1117"/>
  <g>
    <line x1="40" y1="220.00" x2="860" y2="220.00" stroke="#30363d"/><text x="32" y="224.00" font-size="10" fill="#c9d1d9" text-anchor="end">0</text><line x1="40" y1="175.00" x2="860" y2="175.00" stroke="#30363d"/><text x="32" y="179.00" font-size="10" fill="#c9d1d9" text-anchor="end">25k</text><line x1="40" y1="130.00" x2="860" y2="130.00" stroke="#30363d"/><text x="32" y="134.00" font-size="10" fill="#c9d1d9" text-anchor="end">50k</text><line x1="40" y1="85.00" x2="860" y2="85.00" stroke="#30363d"/><text x="32" y="89.00" font-size="10" fill="#c9d1d9" text-anchor="end">75k</text><line x1="40" y1="40.00" x2="860" y2="40.00" stroke="#30363d"/><text x="32" y="44.00" font-size="10" fill="#c9d1d9" text-anchor="end">100k</text>
    <line x1="40.00" y1="40" x2="40.00" y2="220" stroke="#30363d" opacity="0.5"/><line x1="120.81" y1="40" x2="120.81" y2="220" stroke="#30363d" opacity="0.5"/><line x1="201.62" y1="40" x2="201.62" y2="220" stroke="#30363d" opacity="0.5"/><line x1="282.43" y1="40" x2="282.43" y2="220" stroke="#30363d" opacity="0.5"/><line x1="363.25" y1="40" x2="363.25" y2="220" stroke="#30363d" opacity="0.5"/><line x1="444.06" y1="40" x2="444.06" y2="220" stroke="#30363d" opacity="0.5"/><line x1="524.87" y1="40" x2="524.87" y2="220" stroke="#30363d" opacity="0.5"/><line x1="605.68" y1="40" x2="605.68" y2="220" stroke="#30363d" opacity="0.5"/><line x1="686.49" y1="40" x2="686.49" y2="220" stroke="#30363d" opacity="0.5"/><line x1="767.30" y1="40" x2="767.30" y2="220" stroke="#30363d" opacity="0.5"/><line x1="848.12" y1="40" x2="848.12" y2="220" stroke="#30363d" opacity="0.5"/>
    <line x1="40" y1="220" x2="860" y2="220" stroke="#30363d"/>
    <line x1="40" y1="40"   x2="40"   y2="220" stroke="#30363d"/>
    <path d="M 40.00 220.00 L 42.38 220.00 L 44.75 219.60 L 47.13 219.62 L 49.51 219.63 L 51.88 219.32 L 54.26 219.31 L 56.64 219.26 L 59.01 218.89 L 61.39 218.89 L 63.77 218.89 L 66.14 218.87 L 68.52 218.87 L 70.90 218.86 L 73.28 218.85 L 75.65 218.85 L 78.03 218.82 L 80.41 218.78 L 82.78 218.72 L 85.16 218.68 L 87.54 218.64 L 89.91 218.59 L 92.29 218.59 L 94.67 218.57 L 97.04 218.57 L 99.42 218.57 L 101.80 218.57 L 104.17 218.57 L 106.55 218.57 L 108.93 218.57 L 111.30 218.57 L 113.68 218.57 L 116.06 218.55 L 118.43 218.54 L 120.81 218.58 L 123.19 218.55 L 125.57 218.55 L 127.94 218.53 L 130.32 218.31 L 132.70 217.94 L 135.07 217.88 L 137.45 217.87 L 139.83 217.86 L 142.20 217.85 L 144.58 217.84 L 146.96 217.85 L 149.33 217.82 L 151.71 217.66 L 154.09 217.61 L 156.46 217.60 L 158.84 217.57 L 161.22 217.56 L 163.59 217.52 L 165.97 217.38 L 168.35 217.24 L 170.72 216.93 L 173.10 216.65 L 175.48 216.44 L 177.86 216.39 L 180.23 216.34 L 182.61 216.83 L 184.99 200.94 L 187.36 200.94 L 189.74 200.95 L 192.12 198.99 L 194.49 198.98 L 196.87 198.94 L 199.25 198.94 L 201.62 198.91 L 204.00 198.90 L 206.38 198.93 L 208.75 198.93 L 211.13 198.99 L 213.51 198.95 L 215.88 198.96 L 218.26 198.95 L 220.64 198.95 L 223.01 198.97 L 225.39 198.97 L 227.77 198.97 L 230.14 198.97 L 232.52 198.97 L 234.90 198.97 L 237.28 198.97 L 239.65 198.97 L 242.03 198.97 L 244.41 198.97 L 246.78 198.97 L 249.16 197.51 L 251.54 197.43 L 253.91 197.40 L 256.29 197.38 L 258.67 197.38 L 261.04 197.49 L 263.42 197.34 L 265.80 197.33 L 268.17 197.18 L 270.55 197.41 L 272.93 197.41 L 275.30 197.29 L 277.68 197.29 L 280.06 197.22 L 282.43 197.21 L 284.81 197.15 L 287.19 196.94 L 289.57 197.00 L 291.94 197.41 L 294.32 197.41 L 296.70 197.30 L 299.07 197.26 L 301.45 197.19 L 303.83 197.19 L 306.20 197.19 L 308.58 197.19 L 310.96 197.18 L 313.33 197.12 L 315.71 197.09 L 318.09 197.04 L 320.46 197.00 L 322.84 196.96 L 325.22 196.92 L 327.59 196.91 L 329.97 196.86 L 332.35 196.80 L 334.72 196.75 L 337.10 196.69 L 339.48 196.66 L 341.86 196.63 L 344.23 196.56 L 346.61 196.51 L 348.99 196.47 L 351.36 196.45 L 353.74 196.40 L 356.12 196.37 L 358.49 196.34 L 360.87 196.28 L 363.25 196.20 L 365.62 196.12 L 368.00 196.02 L 370.38 195.89 L 372.75 195.77 L 375.13 195.68 L 377.51 195.63 L 379.88 195.58 L 382.26 195.53 L 384.64 195.44 L 387.01 195.35 L 389.39 195.22 L 391.77 195.11 L 394.14 194.95 L 396.52 194.82 L 398.90 194.68 L 401.28 194.57 L 403.65 194.55 L 406.03 194.51 L 408.41 194.48 L 410.78 194.44 L 413.16 194.40 L 415.54 194.37 L 417.91 194.34 L 420.29 194.29 L 422.67 194.25 L 425.04 194.23 L 427.42 194.21 L 429.80 194.19 L 432.17 194.16 L 434.55 194.12 L 436.93 194.07 L 439.30 193.99 L 441.68 193.94 L 444.06 193.87 L 446.43 193.80 L 448.81 193.74 L 451.19 193.72 L 453.57 193.70 L 455.94 193.66 L 458.32 193.62 L 460.70 193.56 L 463.07 193.49 L 465.45 193.43 L 467.83 193.35 L 470.20 193.27 L 472.58 193.20 L 474.96 193.14 L 477.33 193.15 L 479.71 193.15 L 482.09 193.15 L 484.46 193.18 L 486.84 193.09 L 489.22 193.07 L 491.59 193.07 L 493.97 193.08 L 496.35 193.00 L 498.72 192.95 L 501.10 192.95 L 503.48 192.95 L 505.86 192.95 L 508.23 192.80 L 510.61 192.73 L 512.99 192.69 L 515.36 192.67 L 517.74 192.67 L 520.12 192.68 L 522.49 192.64 L 524.87 192.63 L 527.25 192.63 L 529.62 190.39 L 532.00 189.96 L 534.38 189.85 L 536.75 189.53 L 539.13 189.52 L 541.51 189.36 L 543.88 187.79 L 546.26 187.36 L 548.64 181.35 L 551.01 181.35 L 553.39 180.72 L 555.77 180.71 L 558.14 180.26 L 560.52 179.68 L 562.90 179.67 L 565.28 178.77 L 567.65 177.57 L 570.03 175.55 L 572.41 174.52 L 574.78 173.86 L 577.16 174.17 L 579.54 173.10 L 581.91 173.10 L 584.29 171.18 L 586.67 168.37 L 589.04 168.37 L 591.42 165.86 L 593.80 163.63 L 596.17 163.63 L 598.55 163.62 L 600.93 162.88 L 603.30 161.06 L 605.68 193.89 L 608.06 193.22 L 610.43 192.73 L 612.81 192.34 L 615.19 189.45 L 617.57 188.03 L 619.94 188.03 L 622.32 180.86 L 624.70 148.96 L 627.07 144.25 L 629.45 176.00 L 631.83 176.17 L 634.20 175.77 L 636.58 175.72 L 638.96 197.26 L 641.33 197.26 L 643.71 197.06 L 646.09 196.44 L 648.46 194.49 L 650.84 194.50 L 653.22 194.49 L 655.59 194.49 L 657.97 194.49 L 660.35 194.48 L 662.72 194.48 L 665.10 194.62 L 667.48 206.08 L 669.86 206.08 L 672.23 206.05 L 674.61 206.04 L 676.99 205.22 L 679.36 204.28 L 681.74 204.28 L 684.12 204.28 L 686.49 200.22 L 688.87 204.28 L 691.25 204.28 L 693.62 204.28 L 696.00 198.60 L 698.38 198.60 L 700.75 198.60 L 703.13 198.60 L 705.51 193.00 L 707.88 193.00 L 710.26 188.39 L 712.64 188.39 L 715.01 179.75 L 717.39 174.84 L 719.77 173.23 L 722.14 170.37 L 724.52 169.87 L 726.90 153.88 L 729.28 149.24 L 731.65 152.04 L 734.03 141.93 L 736.41 141.88 L 738.78 141.69 L 741.16 141.69 L 743.54 141.76 L 745.91 141.75 L 748.29 140.68 L 750.67 141.38 L 753.04 141.36 L 755.42 141.83 L 757.80 141.39 L 760.17 141.39 L 762.55 141.52 L 764.93 141.52 L 767.30 141.53 L 769.68 142.33 L 772.06 141.73 L 774.43 141.68 L 776.81 141.68 L 779.19 141.66 L 781.57 141.67 L 783.94 141.65 L 786.32 139.51 L 788.70 136.07 L 791.07 136.04 L 793.45 133.43 L 795.83 131.89 L 798.20 131.13 L 800.58 131.51 L 802.96 131.50 L 805.33 131.57 L 807.71 131.56 L 810.09 131.49 L 812.46 131.49 L 814.84 131.49 L 817.22 131.49 L 819.59 131.49 L 821.97 131.49 L 824.35 131.49 L 826.72 131.49 L 829.10 131.49 L 831.48 131.49 L 833.86 131.49 L 836.23 131.49 L 838.61 131.49 L 840.99 131.49 L 843.36 131.49 L 845.74 131.49 L 848.12 131.49 L 850.49 131.49 L 852.87 131.49 L 855.25 131.49 L 857.62 131.49 L 860.00 131.49" fill="none" stroke="#3fb950" stroke-width="2"/>
    <circle cx="860.00" cy="131.49" r="3" fill="#3fb950"/>
    <text x="40.00" y="235.00" font-size="9" fill="#c9d1d9" text-anchor="middle" transform="rotate(-45 40.00 235.00)">27.09.2025</text><text x="120.81" y="235.00" font-size="9" fill="#c9d1d9" text-anchor="middle" transform="rotate(-45 120.81 235.00)">28.09.2025</text><text x="201.62" y="235.00" font-size="9" fill="#c9d1d9" text-anchor="middle" transform="rotate(-45 201.62 235.00)">28.09.2025</text><text x="282.43" y="235.00" font-size="9" fill="#c9d1d9" text-anchor="middle" transform="rotate(-45 282.43 235.00)">30.09.2025</text><text x="363.25" y="235.00" font-size="9" fill="#c9d1d9" text-anchor="middle" transform="rotate(-45 363.25 235.00)">04.10.2025</text><text x="444.06" y="235.00" font-size="9" fill="#c9d1d9" text-anchor="middle" transform="rotate(-45 444.06 235.00)">04.10.2025</text><text x="524.87" y="235.00" font-size="9" fill="#c9d1d9" text-anchor="middle" transform="rotate(-45 524.87 235.00)">04.10.2025</text><text x="605.68" y="235.00" font-size="9" fill="#c9d1d9" text-anchor="middle" transform="rotate(-45 605.68 235.00)">04.10.2025</text><text x="686.49" y="235.00" font-size="9" fill="#c9d1d9" text-anchor="middle" transform="rotate(-45 686.49 235.00)">07.10.2025</text><text x="767.30" y="235.00" font-size="9" fill="#c9d1d9" text-anchor="middle" transform="rotate(-45 767.30 235.00)">09.10.2025</text><text x="848.12" y="235.00" font-size="9" fill="#c9d1d9" text-anchor="middle" transform="rotate(-45 848.12 235.00)">25.10.2025</text>
  </g>
</svg>