<svg xmlns="http://www.w3.org/2000/svg" width="900" height="290" style="font-family: -apple-system, BlinkMacSystemFont, 'Segoe UI', Helvetica, Arial, sans-serif;">
  <rect width="100%" height="100%" fill="white"/>
  <g>
    <line x1="40" y1="220.00" x2="860" y2="220.00" stroke="#e5e7eb"/><text x="32" y="224.00" font-size="10" fill="#111827" text-anchor="end">0</text><line x1="40" y1="175.00" x2="860" y2="175.00" stroke="#e5e7eb"/><text x="32" y="179.00" font-size="10" fill="#111827" text-anchor="end">25k</text><line x1="40" y1="130.00" x2="860" y2="130.00" stroke="#e5e7eb"/><text x="32" y="134.00" font-size="10" fill="#111827" text-anchor="end">50k</text><line x1="40" y1="85.00" x2="860" y2="85.00" stroke="#e5e7eb"/><text x="32" y="89.00" font-size="10" fill="#111827" text-anchor="end">75k</text><line x1="40" y1="40.00" x2="860" y2="40.00" stroke="#e5e7eb"/><text x="32" y="44.00" font-size="10" fill="#111827" text-anchor="end">100k</text>
    <line x1="40.00" y1="40" x2="40.00" y2="220" stroke="#e5e7eb" opacity="0.5"/><line x1="120.59" y1="40" x2="120.59" y2="220" stroke="#e5e7eb" opacity="0.5"/><line x1="201.18" y1="40" x2="201.18" y2="220" stroke="#e5e7eb" opacity="0.5"/><line x1="281.77" y1="40" x2="281.77" y2="220" stroke="#e5e7eb" opacity="0.5"/><line x1="362.36" y1="40" x2="362.36" y2="220" stroke="#e5e7eb" opacity="0.5"/><line x1="442.95" y1="40" x2="442.95" y2="220" stroke="#e5e7eb" opacity="0.5"/><line x1="523.54" y1="40" x2="523.54" y2="220" stroke="#e5e7eb" opacity="0.5"/><line x1="604.13" y1="40" x2="604.13" y2="220" stroke="#e5e7eb" opacity="0.5"/><line x1="684.72" y1="40" x2="684.72" y2="220" stroke="#e5e7eb" opacity="0.5"/><line x1="765.31" y1="40" x2="765.31" y2="220" stroke="#e5e7eb" opacity="0.5"/><line x1="845.90" y1="40" x2="845.90" y2="220" stroke="#e5e7eb" opacity="0.5"/>
    <line x1="40" y1="220" x2="860" y2="220" stroke="#9ca3af"/>
    <line x1="40" y1="40"   x2="40"   y2="220" stroke="#9ca3af"/>
    <path d="M 40.00 220.00 L 42.01 220.00 L 44.03 219.60 L 46.04 219.62 L 48.06 219.63 L 50.07 219.32 L 52.09 219.31 L 54.10 219.26 L 56.12 218.89 L 58.13 218.89 L 60.15 218.89 L 62.16 218.87 L 64.18 218.87 L 66.19 218.86 L 68.21 218.85 L 70.22 218.85 L 72.24 218.82 L 74.25 218.78 L 76.27 218.72 L 78.28 218.68 L 80.29 218.64 L 82.31 218.59 L 84.32 218.59 L 86.34 218.57 L 88.35 218.57 L 90.37 218.57 L 92.38 218.57 L 94.40 218.57 L 96.41 218.57 L 98.43 218.57 L 100.44 218.57 L 102.46 218.57 L 104.47 218.55 L 106.49 218.54 L 108.50 218.58 L 110.52 218.55 L 112.53 218.55 L 114.55 218.53 L 116.56 218.31 L 118.57 217.94 L 120.59 217.88 L 122.60 217.87 L 124.62 217.86 L 126.63 217.85 L 128.65 217.84 L 130.66 217.85 L 132.68 217.82 L 134.69 217.66 L 136.71 217.61 L 138.72 217.60 L 140.74 217.57 L 142.75 217.56 L 144.77 217.52 L 146.78 217.38 L 148.80 217.24 L 150.81 216.93 L 152.83 216.65 L 154.84 216.44 L 156.86 216.39 L 158.87 216.34 L 160.88 216.83 L 162.90 200.94 L 164.91 200.94 L 166.93 200.95 L 168.94 198.99 L 170.96 198.98 L 172.97 198.94 L 174.99 198.94 L 177.00 198.91 L 179.02 198.90 L 181.03 198.93 L 183.05 198.93 L 185.06 198.99 L 187.08 198.95 L 189.09 198.96 L 191.11 198.95 L 193.12 198.95 L 195.14 198.97 L 197.15 198.97 L 199.16 198.97 L 201.18 198.97 L 203.19 198.97 L 205.21 198.97 L 207.22 198.97 L 209.24 198.97 L 211.25 198.97 L 213.27 198.97 L 215.28 198.97 L 217.30 197.51 L 219.31 197.43 L 221.33 197.40 L 223.34 197.38 L 225.36 197.38 L 227.37 197.49 L 229.39 197.34 L 231.40 197.33 L 233.42 197.18 L 235.43 197.41 L 237.44 197.41 L 239.46 197.29 L 241.47 197.29 L 243.49 197.22 L 245.50 197.21 L 247.52 197.15 L 249.53 196.94 L 251.55 197.00 L 253.56 197.41 L 255.58 197.41 L 257.59 197.30 L 259.61 197.26 L 261.62 197.19 L 263.64 197.19 L 265.65 197.19 L 267.67 197.19 L 269.68 197.18 L 271.70 197.12 L 273.71 197.09 L 275.72 197.04 L 277.74 197.00 L 279.75 196.96 L 281.77 196.92 L 283.78 196.91 L 285.80 196.86 L 287.81 196.80 L 289.83 196.75 L 291.84 196.69 L 293.86 196.66 L 295.87 196.63 L 297.89 196.56 L 299.90 196.51 L 301.92 196.47 L 303.93 196.45 L 305.95 196.40 L 307.96 196.37 L 309.98 196.34 L 311.99 196.28 L 314.00 196.20 L 316.02 196.12 L 318.03 196.02 L 320.05 195.89 L 322.06 195.77 L 324.08 195.68 L 326.09 195.63 L 328.11 195.58 L 330.12 195.53 L 332.14 195.44 L 334.15 195.35 L 336.17 195.22 L 338.18 195.11 L 340.20 194.95 L 342.21 194.82 L 344.23 194.68 L 346.24 194.57 L 348.26 194.55 L 350.27 194.51 L 352.29 194.48 L 354.30 194.44 L 356.31 194.40 L 358.33 194.37 L 360.34 194.34 L 362.36 194.29 L 364.37 194.25 L 366.39 194.23 L 368.40 194.21 L 370.42 194.19 L 372.43 194.16 L 374.45 194.12 L 376.46 194.07 L 378.48 193.99 L 380.49 193.94 L 382.51 193.87 L 384.52 193.80 L 386.54 193.74 L 388.55 193.72 L 390.57 193.70 L 392.58 193.66 L 394.59 193.62 L 396.61 193.56 L 398.62 193.49 L 400.64 193.43 L 402.65 193.35 L 404.67 193.27 L 406.68 193.20 L 408.70 193.14 L 410.71 193.15 L 412.73 193.15 L 414.74 193.15 L 416.76 193.18 L 418.77 193.09 L 420.79 193.07 L 422.80 193.07 L 424.82 193.08 L 426.83 193.00 L 428.85 192.95 L 430.86 192.95 L 432.87 192.95 L 434.89 192.95 L 436.90 192.80 L 438.92 192.73 L 440.93 192.69 L 442.95 192.67 L 444.96 192.67 L 446.98 192.68 L 448.99 192.64 L 451.01 192.63 L 453.02 192.63 L 455.04 190.39 L 457.05 189.96 L 459.07 189.85 L 461.08 189.53 L 463.10 189.52 L 465.11 189.36 L 467.13 187.79 L 469.14 187.36 L 471.15 181.35 L 473.17 181.35 L 475.18 180.72 L 477.20 180.71 L 479.21 180.26 L 481.23 179.68 L 483.24 179.67 L 485.26 178.77 L 487.27 177.57 L 489.29 175.55 L 491.30 174.52 L 493.32 173.86 L 495.33 174.17 L 497.35 173.10 L 499.36 173.10 L 501.38 171.18 L 503.39 168.37 L 505.41 168.37 L 507.42 165.86 L 509.43 163.63 L 511.45 163.63 L 513.46 163.62 L 515.48 162.88 L 517.49 161.06 L 519.51 193.89 L 521.52 193.22 L 523.54 192.73 L 525.55 192.34 L 527.57 189.45 L 529.58 188.03 L 531.60 188.03 L 533.61 180.86 L 535.63 148.96 L 537.64 144.25 L 539.66 176.00 L 541.67 176.17 L 543.69 175.77 L 545.70 175.72 L 547.71 197.26 L 549.73 197.26 L 551.74 197.06 L 553.76 196.44 L 555.77 194.49 L 557.79 194.50 L 559.80 194.49 L 561.82 194.49 L 563.83 194.49 L 565.85 194.48 L 567.86 194.48 L 569.88 194.62 L 571.89 206.08 L 573.91 206.08 L 575.92 206.05 L 577.94 206.04 L 579.95 205.22 L 581.97 204.28 L 583.98 204.28 L 586.00 204.28 L 588.01 200.22 L 590.02 204.28 L 592.04 204.28 L 594.05 204.28 L 596.07 198.60 L 598.08 198.60 L 600.10 198.60 L 602.11 198.60 L 604.13 193.00 L 606.14 193.00 L 608.16 188.39 L 610.17 188.39 L 612.19 179.75 L 614.20 174.84 L 616.22 173.23 L 618.23 170.37 L 620.25 169.87 L 622.26 153.88 L 624.28 149.24 L 626.29 152.04 L 628.30 141.93 L 630.32 141.88 L 632.33 141.69 L 634.35 141.69 L 636.36 141.76 L 638.38 141.75 L 640.39 140.68 L 642.41 141.38 L 644.42 141.36 L 646.44 141.83 L 648.45 141.39 L 650.47 141.39 L 652.48 141.52 L 654.50 141.52 L 656.51 141.53 L 658.53 142.33 L 660.54 141.73 L 662.56 141.68 L 664.57 141.68 L 666.58 141.66 L 668.60 141.67 L 670.61 141.65 L 672.63 139.51 L 674.64 136.07 L 676.66 136.04 L 678.67 133.43 L 680.69 131.89 L 682.70 131.13 L 684.72 131.51 L 686.73 131.50 L 688.75 131.57 L 690.76 131.56 L 692.78 131.49 L 694.79 131.49 L 696.81 131.49 L 698.82 131.49 L 700.84 131.49 L 702.85 131.49 L 704.86 131.49 L 706.88 131.49 L 708.89 131.49 L 710.91 131.49 L 712.92 131.49 L 714.94 131.49 L 716.95 131.49 L 718.97 131.49 L 720.98 131.49 L 723.00 131.49 L 725.01 131.49 L 727.03 131.49 L 729.04 131.49 L 731.06 131.49 L 733.07 131.49 L 735.09 131.49 L 737.10 131.49 L 739.12 131.49 L 741.13 131.49 L 743.14 131.49 L 745.16 131.49 L 747.17 131.49 L 749.19 131.49 L 751.20 131.49 L 753.22 131.49 L 755.23 131.49 L 757.25 131.49 L 759.26 131.49 L 761.28 131.49 L 763.29 131.49 L 765.31 131.49 L 767.32 131.49 L 769.34 131.49 L 771.35 131.49 L 773.37 131.49 L 775.38 131.49 L 777.40 131.49 L 779.41 131.49 L 781.43 131.49 L 783.44 131.49 L 785.45 131.49 L 787.47 131.49 L 789.48 131.49 L 791.50 131.49 L 793.51 131.49 L 795.53 131.49 L 797.54 131.49 L 799.56 131.49 L 801.57 131.49 L 803.59 131.49 L 805.60 131.49 L 807.62 131.49 L 809.63 131.49 L 811.65 131.49 L 813.66 131.49 L 815.68 131.49 L 817.69 131.49 L 819.71 131.49 L 821.72 131.49 L 823.73 131.49 L 825.75 131.49 L 827.76 131.49 L 829.78 131.49 L 831.79 131.49 L 833.81 131.49 L 835.82 131.49 L 837.84 131.49 L 839.85 131.49 L 841.87 131.49 L 843.88 131.49 L 845.90 131.49 L 847.91 131.49 L 849.93 131.49 L 851.94 131.49 L 853.96 131.49 L 855.97 131.49 L 857.99 131.49 L 860.00 131.49" fill="none" stroke="#111827" stroke-width="2"/>
    <circle cx="860.00" cy="131.49" r="3" fill="#111827"/>
    <text x="40.00" y="235.00" font-size="9" fill="#111827" text-anchor="middle" transform="rotate(-45 40.00 235.00)">27.09.2025</text><text x="120.59" y="235.00" font-size="9" fill="#111827" text-anchor="middle" transform="rotate(-45 120.59 235.00)">28.09.2025</text><text x="201.18" y="235.00" font-size="9" fill="#111827" text-anchor="middle" transform="rotate(-45 201.18 235.00)">29.09.2025</text><text x="281.77" y="235.00" font-size="9" fill="#111827" text-anchor="middle" transform="rotate(-45 281.77 235.00)">04.10.2025</text><text x="362.36" y="235.00" font-size="9" fill="#111827" text-anchor="middle" transform="rotate(-45 362.36 235.00)">04.10.2025</text><text x="442.95" y="235.00" font-size="9" fill="#111827" text-anchor="middle" transform="rotate(-45 442.95 235.00)">04.10.2025</text><text x="523.54" y="235.00" font-size="9" fill="#111827" text-anchor="middle" transform="rotate(-45 523.54 235.00)">04.10.2025</text><text x="604.13" y="235.00" font-size="9" fill="#111827" text-anchor="middle" transform="rotate(-45 604.13 235.00)">07.10.2025</text><text x="684.72" y="235.00" font-size="9" fill="#111827" text-anchor="middle" transform="rotate(-45 684.72 235.00)">09.10.2025</text><text x="765.31" y="235.00" font-size="9" fill="#111827" text-anchor="middle" transform="rotate(-45 765.31 235.00)">14.11.2025</text><text x="845.90" y="235.00" font-size="9" fill="#111827" text-anchor="middle" transform="rotate(-45 845.90 235.00)">24.12.2025</text>
  </g>
</svg>