<svg xmlns="http://www.w3.org/2000/svg" width="900" height="290" style="font-family: -apple-system, BlinkMacSystemFont, 'Segoe UI', Helvetica, Arial, sans-serif;">
  <rect width="100%" height="100%" fill="#0d1117"/>
  <g>
    <line x1="40" y1="220.00" x2="860" y2="220.00" stroke="#30363d"/><text x="32" y="224.00" font-size="10" fill="#c9d1d9" text-anchor="end">0</text><line x1="40" y1="175.00" x2="860" y2="175.00" stroke="#30363d"/><text x="32" y="179.00" font-size="10" fill="#c9d1d9" text-anchor="end">25k</text><line x1="40" y1="130.00" x2="860" y2="130.00" stroke="#30363d"/><text x="32" y="134.00" font-size="10" fill="#c9d1d9" text-anchor="end">50k</text><line x1="40" y1="85.00" x2="860" y2="85.00" stroke="#30363d"/><text x="32" y="89.00" font-size="10" fill="#c9d1d9" text-anchor="end">75k</text><line x1="40" y1="40.00" x2="860" y2="40.00" stroke="#30363d"/><text x="32" y="44.00" font-size="10" fill="#c9d1d9" text-anchor="end">100k</text>
    <line x1="40.00" y1="40" x2="40.00" y2="220" stroke="#30363d" opacity="0.5"/><line x1="120.74" y1="40" x2="120.74" y2="220" stroke="#30363d" opacity="0.5"/><line x1="201.49" y1="40" x2="201.49" y2="220" stroke="#30363d" opacity="0.5"/><line x1="282.23" y1="40" x2="282.23" y2="220" stroke="#30363d" opacity="0.5"/><line x1="362.98" y1="40" x2="362.98" y2="220" stroke="#30363d" opacity="0.5"/><line x1="443.72" y1="40" x2="443.72" y2="220" stroke="#30363d" opacity="0.5"/><line x1="524.46" y1="40" x2="524.46" y2="220" stroke="#30363d" opacity="0.5"/><line x1="605.21" y1="40" x2="605.21" y2="220" stroke="#30363d" opacity="0.5"/><line x1="685.95" y1="40" x2="685.95" y2="220" stroke="#30363d" opacity="0.5"/><line x1="766.70" y1="40" x2="766.70" y2="220" stroke="#30363d" opacity="0.5"/><line x1="847.44" y1="40" x2="847.44" y2="220" stroke="#30363d" opacity="0.5"/>
    <line x1="40" y1="220" x2="860" y2="220" stroke="#30363d"/>
    <line x1="40" y1="40"   x2="40"   y2="220" stroke="#30363d"/>
    <path d="M 40.00 220.00 L 41.79 220.00 L 43.59 219.60 L 45.38 219.62 L 47.18 219.63 L 48.97 219.32 L 50.77 219.31 L 52.56 219.26 L 54.35 218.89 L 56.15 218.89 L 57.94 218.89 L 59.74 218.87 L 61.53 218.87 L 63.33 218.86 L 65.12 218.85 L 66.91 218.85 L 68.71 218.82 L 70.50 218.78 L 72.30 218.72 L 74.09 218.68 L 75.89 218.64 L 77.68 218.59 L 79.47 218.59 L 81.27 218.57 L 83.06 218.57 L 84.86 218.57 L 86.65 218.57 L 88.45 218.57 L 90.24 218.57 L 92.04 218.57 L 93.83 218.57 L 95.62 218.57 L 97.42 218.55 L 99.21 218.54 L 101.01 218.58 L 102.80 218.55 L 104.60 218.55 L 106.39 218.53 L 108.18 218.31 L 109.98 217.94 L 111.77 217.88 L 113.57 217.87 L 115.36 217.86 L 117.16 217.85 L 118.95 217.84 L 120.74 217.85 L 122.54 217.82 L 124.33 217.66 L 126.13 217.61 L 127.92 217.60 L 129.72 217.57 L 131.51 217.56 L 133.30 217.52 L 135.10 217.38 L 136.89 217.24 L 138.69 216.93 L 140.48 216.65 L 142.28 216.44 L 144.07 216.39 L 145.86 216.34 L 147.66 216.83 L 149.45 200.94 L 151.25 200.94 L 153.04 200.95 L 154.84 198.99 L 156.63 198.98 L 158.42 198.94 L 160.22 198.94 L 162.01 198.91 L 163.81 198.90 L 165.60 198.93 L 167.40 198.93 L 169.19 198.99 L 170.98 198.95 L 172.78 198.96 L 174.57 198.95 L 176.37 198.95 L 178.16 198.97 L 179.96 198.97 L 181.75 198.97 L 183.54 198.97 L 185.34 198.97 L 187.13 198.97 L 188.93 198.97 L 190.72 198.97 L 192.52 198.97 L 194.31 198.97 L 196.11 198.97 L 197.90 197.51 L 199.69 197.43 L 201.49 197.40 L 203.28 197.38 L 205.08 197.38 L 206.87 197.49 L 208.67 197.34 L 210.46 197.33 L 212.25 197.18 L 214.05 197.41 L 215.84 197.41 L 217.64 197.29 L 219.43 197.29 L 221.23 197.22 L 223.02 197.21 L 224.81 197.15 L 226.61 196.94 L 228.40 197.00 L 230.20 197.41 L 231.99 197.41 L 233.79 197.30 L 235.58 197.26 L 237.37 197.19 L 239.17 197.19 L 240.96 197.19 L 242.76 197.19 L 244.55 197.18 L 246.35 197.12 L 248.14 197.09 L 249.93 197.04 L 251.73 197.00 L 253.52 196.96 L 255.32 196.92 L 257.11 196.91 L 258.91 196.86 L 260.70 196.80 L 262.49 196.75 L 264.29 196.69 L 266.08 196.66 L 267.88 196.63 L 269.67 196.56 L 271.47 196.51 L 273.26 196.47 L 275.05 196.45 L 276.85 196.40 L 278.64 196.37 L 280.44 196.34 L 282.23 196.28 L 284.03 196.20 L 285.82 196.12 L 287.61 196.02 L 289.41 195.89 L 291.20 195.77 L 293.00 195.68 L 294.79 195.63 L 296.59 195.58 L 298.38 195.53 L 300.18 195.44 L 301.97 195.35 L 303.76 195.22 L 305.56 195.11 L 307.35 194.95 L 309.15 194.82 L 310.94 194.68 L 312.74 194.57 L 314.53 194.55 L 316.32 194.51 L 318.12 194.48 L 319.91 194.44 L 321.71 194.40 L 323.50 194.37 L 325.30 194.34 L 327.09 194.29 L 328.88 194.25 L 330.68 194.23 L 332.47 194.21 L 334.27 194.19 L 336.06 194.16 L 337.86 194.12 L 339.65 194.07 L 341.44 193.99 L 343.24 193.94 L 345.03 193.87 L 346.83 193.80 L 348.62 193.74 L 350.42 193.72 L 352.21 193.70 L 354.00 193.66 L 355.80 193.62 L 357.59 193.56 L 359.39 193.49 L 361.18 193.43 L 362.98 193.35 L 364.77 193.27 L 366.56 193.20 L 368.36 193.14 L 370.15 193.15 L 371.95 193.15 L 373.74 193.15 L 375.54 193.18 L 377.33 193.09 L 379.12 193.07 L 380.92 193.07 L 382.71 193.08 L 384.51 193.00 L 386.30 192.95 L 388.10 192.95 L 389.89 192.95 L 391.68 192.95 L 393.48 192.80 L 395.27 192.73 L 397.07 192.69 L 398.86 192.67 L 400.66 192.67 L 402.45 192.68 L 404.25 192.64 L 406.04 192.63 L 407.83 192.63 L 409.63 190.39 L 411.42 189.96 L 413.22 189.85 L 415.01 189.53 L 416.81 189.52 L 418.60 189.36 L 420.39 187.79 L 422.19 187.36 L 423.98 181.35 L 425.78 181.35 L 427.57 180.72 L 429.37 180.71 L 431.16 180.26 L 432.95 179.68 L 434.75 179.67 L 436.54 178.77 L 438.34 177.57 L 440.13 175.55 L 441.93 174.52 L 443.72 173.86 L 445.51 174.17 L 447.31 173.10 L 449.10 173.10 L 450.90 171.18 L 452.69 168.37 L 454.49 168.37 L 456.28 165.86 L 458.07 163.63 L 459.87 163.63 L 461.66 163.62 L 463.46 162.88 L 465.25 161.06 L 467.05 193.89 L 468.84 193.22 L 470.63 192.73 L 472.43 192.34 L 474.22 189.45 L 476.02 188.03 L 477.81 188.03 L 479.61 180.86 L 481.40 148.96 L 483.19 144.25 L 484.99 176.00 L 486.78 176.17 L 488.58 175.77 L 490.37 175.72 L 492.17 197.26 L 493.96 197.26 L 495.75 197.06 L 497.55 196.44 L 499.34 194.49 L 501.14 194.50 L 502.93 194.49 L 504.73 194.49 L 506.52 194.49 L 508.32 194.48 L 510.11 194.48 L 511.90 194.62 L 513.70 206.08 L 515.49 206.08 L 517.29 206.05 L 519.08 206.04 L 520.88 205.22 L 522.67 204.28 L 524.46 204.28 L 526.26 204.28 L 528.05 200.22 L 529.85 204.28 L 531.64 204.28 L 533.44 204.28 L 535.23 198.60 L 537.02 198.60 L 538.82 198.60 L 540.61 198.60 L 542.41 193.00 L 544.20 193.00 L 546.00 188.39 L 547.79 188.39 L 549.58 179.75 L 551.38 174.84 L 553.17 173.23 L 554.97 170.37 L 556.76 169.87 L 558.56 153.88 L 560.35 149.24 L 562.14 152.04 L 563.94 141.93 L 565.73 141.88 L 567.53 141.69 L 569.32 141.69 L 571.12 141.76 L 572.91 141.75 L 574.70 140.68 L 576.50 141.38 L 578.29 141.36 L 580.09 141.83 L 581.88 141.39 L 583.68 141.39 L 585.47 141.52 L 587.26 141.52 L 589.06 141.53 L 590.85 142.33 L 592.65 141.73 L 594.44 141.68 L 596.24 141.68 L 598.03 141.66 L 599.82 141.67 L 601.62 141.65 L 603.41 139.51 L 605.21 136.07 L 607.00 136.04 L 608.80 133.43 L 610.59 131.89 L 612.39 131.13 L 614.18 131.51 L 615.97 131.50 L 617.77 131.57 L 619.56 131.56 L 621.36 131.49 L 623.15 131.49 L 624.95 131.49 L 626.74 131.49 L 628.53 131.49 L 630.33 131.49 L 632.12 131.49 L 633.92 131.49 L 635.71 131.49 L 637.51 131.49 L 639.30 131.49 L 641.09 131.49 L 642.89 131.49 L 644.68 131.49 L 646.48 131.49 L 648.27 131.49 L 650.07 131.49 L 651.86 131.49 L 653.65 131.49 L 655.45 131.49 L 657.24 131.49 L 659.04 131.49 L 660.83 131.49 L 662.63 131.49 L 664.42 131.49 L 666.21 131.49 L 668.01 131.49 L 669.80 131.49 L 671.60 131.49 L 673.39 131.49 L 675.19 131.49 L 676.98 131.49 L 678.77 131.49 L 680.57 131.49 L 682.36 131.49 L 684.16 131.49 L 685.95 131.49 L 687.75 131.49 L 689.54 131.49 L 691.33 131.49 L 693.13 131.49 L 694.92 131.49 L 696.72 131.49 L 698.51 131.49 L 700.31 131.49 L 702.10 131.49 L 703.89 131.49 L 705.69 131.49 L 707.48 131.49 L 709.28 131.49 L 711.07 131.49 L 712.87 131.49 L 714.66 131.49 L 716.46 131.49 L 718.25 131.49 L 720.04 131.49 L 721.84 131.49 L 723.63 131.49 L 725.43 131.49 L 727.22 131.49 L 729.02 131.49 L 730.81 131.49 L 732.60 131.49 L 734.40 131.49 L 736.19 131.49 L 737.99 131.49 L 739.78 131.49 L 741.58 131.49 L 743.37 131.49 L 745.16 131.49 L 746.96 131.49 L 748.75 131.49 L 750.55 131.49 L 752.34 131.49 L 754.14 131.49 L 755.93 131.49 L 757.72 131.49 L 759.52 131.49 L 761.31 131.49 L 763.11 131.49 L 764.90 131.49 L 766.70 131.49 L 768.49 131.49 L 770.28 131.49 L 772.08 131.49 L 773.87 131.49 L 775.67 131.49 L 777.46 131.49 L 779.26 131.49 L 781.05 131.49 L 782.84 131.49 L 784.64 131.49 L 786.43 131.49 L 788.23 131.49 L 790.02 131.49 L 791.82 131.49 L 793.61 131.49 L 795.40 131.49 L 797.20 131.49 L 798.99 131.49 L 800.79 131.49 L 802.58 131.49 L 804.38 131.49 L 806.17 131.49 L 807.96 131.49 L 809.76 131.49 L 811.55 131.49 L 813.35 131.49 L 815.14 131.49 L 816.94 131.49 L 818.73 131.49 L 820.53 131.49 L 822.32 131.49 L 824.11 131.49 L 825.91 131.49 L 827.70 131.49 L 829.50 131.49 L 831.29 131.49 L 833.09 131.49 L 834.88 131.49 L 836.67 131.49 L 838.47 131.49 L 840.26 131.49 L 842.06 131.49 L 843.85 131.49 L 845.65 131.49 L 847.44 131.49 L 849.23 131.49 L 851.03 131.49 L 852.82 131.49 L 854.62 131.49 L 856.41 131.49 L 858.21 131.49 L 860.00 131.49" fill="none" stroke="#3fb950" stroke-width="2"/>
    <circle cx="860.00" cy="131.49" r="3" fill="#3fb950"/>
    <text x="40.00" y="235.00" font-size="9" fill="#c9d1d9" text-anchor="middle" transform="rotate(-45 40.00 235.00)">27.09.2025</text><text x="120.74" y="235.00" font-size="9" fill="#c9d1d9" text-anchor="middle" transform="rotate(-45 120.74 235.00)">28.09.2025</text><text x="201.49" y="235.00" font-size="9" fill="#c9d1d9" text-anchor="middle" transform="rotate(-45 201.49 235.00)">29.09.2025</text><text x="282.23" y="235.00" font-size="9" fill="#c9d1d9" text-anchor="middle" transform="rotate(-45 282.23 235.00)">04.10.2025</text><text x="362.98" y="235.00" font-size="9" fill="#c9d1d9" text-anchor="middle" transform="rotate(-45 362.98 235.00)">04.10.2025</text><text x="443.72" y="235.00" font-size="9" fill="#c9d1d9" text-anchor="middle" transform="rotate(-45 443.72 235.00)">04.10.2025</text><text x="524.46" y="235.00" font-size="9" fill="#c9d1d9" text-anchor="middle" transform="rotate(-45 524.46 235.00)">06.10.2025</text><text x="605.21" y="235.00" font-size="9" fill="#c9d1d9" text-anchor="middle" transform="rotate(-45 605.21 235.00)">09.10.2025</text><text x="685.95" y="235.00" font-size="9" fill="#c9d1d9" text-anchor="middle" transform="rotate(-45 685.95 235.00)">14.11.2025</text><text x="766.70" y="235.00" font-size="9" fill="#c9d1d9" text-anchor="middle" transform="rotate(-45 766.70 235.00)">29.12.2025</text><text x="847.44" y="235.00" font-size="9" fill="#c9d1d9" text-anchor="middle" transform="rotate(-45 847.44 235.00)">09.02.2026</text>
  </g>
</svg>