<svg xmlns="http://www.w3.org/2000/svg" width="900" height="290" style="font-family: -apple-system, BlinkMacSystemFont, 'Segoe UI', Helvetica, Arial, sans-serif;">
  <rect width="100%" height="100%" fill="white"/>
  <g>
    <line x1="40" y1="220.00" x2="860" y2="220.00" stroke="#e5e7eb"/><text x="32" y="224.00" font-size="10" fill="#111827" text-anchor="end">0</text><line x1="40" y1="175.00" x2="860" y2="175.00" stroke="#e5e7eb"/><text x="32" y="179.00" font-size="10" fill="#111827" text-anchor="end">25k</text><line x1="40" y1="130.00" x2="860" y2="130.00" stroke="#e5e7eb"/><text x="32" y="134.00" font-size="10" fill="#111827" text-anchor="end">50k</text><line x1="40" y1="85.00" x2="860" y2="85.00" stroke="#e5e7eb"/><text x="32" y="89.00" font-size="10" fill="#111827" text-anchor="end">75k</text><line x1="40" y1="40.00" x2="860" y2="40.00" stroke="#e5e7eb"/><text x="32" y="44.00" font-size="10" fill="#111827" text-anchor="end">100k</text>
    <line x1="40.00" y1="40" x2="40.00" y2="220" stroke="#e5e7eb" opacity="0.5"/><line x1="120.57" y1="40" x2="120.57" y2="220" stroke="#e5e7eb" opacity="0.5"/><line x1="201.14" y1="40" x2="201.14" y2="220" stroke="#e5e7eb" opacity="0.5"/><line x1="281.70" y1="40" x2="281.70" y2="220" stroke="#e5e7eb" opacity="0.5"/><line x1="362.27" y1="40" x2="362.27" y2="220" stroke="#e5e7eb" opacity="0.5"/><line x1="442.84" y1="40" x2="442.84" y2="220" stroke="#e5e7eb" opacity="0.5"/><line x1="523.41" y1="40" x2="523.41" y2="220" stroke="#e5e7eb" opacity="0.5"/><line x1="603.97" y1="40" x2="603.97" y2="220" stroke="#e5e7eb" opacity="0.5"/><line x1="684.54" y1="40" x2="684.54" y2="220" stroke="#e5e7eb" opacity="0.5"/><line x1="765.11" y1="40" x2="765.11" y2="220" stroke="#e5e7eb" opacity="0.5"/><line x1="845.68" y1="40" x2="845.68" y2="220" stroke="#e5e7eb" opacity="0.5"/>
    <line x1="40" y1="220" x2="860" y2="220" stroke="#9ca3af"/>
    <line x1="40" y1="40"   x2="40"   y2="220" stroke="#9ca3af"/>
    <path d="M 40.00 220.00 L 41.79 220.00 L 43.58 219.60 L 45.37 219.62 L 47.16 219.63 L 48.95 219.32 L 50.74 219.31 L 52.53 219.26 L 54.32 218.89 L 56.11 218.89 L 57.90 218.89 L 59.69 218.87 L 61.48 218.87 L 63.28 218.86 L 65.07 218.85 L 66.86 218.85 L 68.65 218.82 L 70.44 218.78 L 72.23 218.72 L 74.02 218.68 L 75.81 218.64 L 77.60 218.59 L 79.39 218.59 L 81.18 218.57 L 82.97 218.57 L 84.76 218.57 L 86.55 218.57 L 88.34 218.57 L 90.13 218.57 L 91.92 218.57 L 93.71 218.57 L 95.50 218.57 L 97.29 218.55 L 99.08 218.54 L 100.87 218.58 L 102.66 218.55 L 104.45 218.55 L 106.24 218.53 L 108.03 218.31 L 109.83 217.94 L 111.62 217.88 L 113.41 217.87 L 115.20 217.86 L 116.99 217.85 L 118.78 217.84 L 120.57 217.85 L 122.36 217.82 L 124.15 217.66 L 125.94 217.61 L 127.73 217.60 L 129.52 217.57 L 131.31 217.56 L 133.10 217.52 L 134.89 217.38 L 136.68 217.24 L 138.47 216.93 L 140.26 216.65 L 142.05 216.44 L 143.84 216.39 L 145.63 216.34 L 147.42 216.83 L 149.21 200.94 L 151.00 200.94 L 152.79 200.95 L 154.59 198.99 L 156.38 198.98 L 158.17 198.94 L 159.96 198.94 L 161.75 198.91 L 163.54 198.90 L 165.33 198.93 L 167.12 198.93 L 168.91 198.99 L 170.70 198.95 L 172.49 198.96 L 174.28 198.95 L 176.07 198.95 L 177.86 198.97 L 179.65 198.97 L 181.44 198.97 L 183.23 198.97 L 185.02 198.97 L 186.81 198.97 L 188.60 198.97 L 190.39 198.97 L 192.18 198.97 L 193.97 198.97 L 195.76 198.97 L 197.55 197.51 L 199.34 197.43 L 201.14 197.40 L 202.93 197.38 L 204.72 197.38 L 206.51 197.49 L 208.30 197.34 L 210.09 197.33 L 211.88 197.18 L 213.67 197.41 L 215.46 197.41 L 217.25 197.29 L 219.04 197.29 L 220.83 197.22 L 222.62 197.21 L 224.41 197.15 L 226.20 196.94 L 227.99 197.00 L 229.78 197.41 L 231.57 197.41 L 233.36 197.30 L 235.15 197.26 L 236.94 197.19 L 238.73 197.19 L 240.52 197.19 L 242.31 197.19 L 244.10 197.18 L 245.90 197.12 L 247.69 197.09 L 249.48 197.04 L 251.27 197.00 L 253.06 196.96 L 254.85 196.92 L 256.64 196.91 L 258.43 196.86 L 260.22 196.80 L 262.01 196.75 L 263.80 196.69 L 265.59 196.66 L 267.38 196.63 L 269.17 196.56 L 270.96 196.51 L 272.75 196.47 L 274.54 196.45 L 276.33 196.40 L 278.12 196.37 L 279.91 196.34 L 281.70 196.28 L 283.49 196.20 L 285.28 196.12 L 287.07 196.02 L 288.86 195.89 L 290.66 195.77 L 292.45 195.68 L 294.24 195.63 L 296.03 195.58 L 297.82 195.53 L 299.61 195.44 L 301.40 195.35 L 303.19 195.22 L 304.98 195.11 L 306.77 194.95 L 308.56 194.82 L 310.35 194.68 L 312.14 194.57 L 313.93 194.55 L 315.72 194.51 L 317.51 194.48 L 319.30 194.44 L 321.09 194.40 L 322.88 194.37 L 324.67 194.34 L 326.46 194.29 L 328.25 194.25 L 330.04 194.23 L 331.83 194.21 L 333.62 194.19 L 335.41 194.16 L 337.21 194.12 L 339.00 194.07 L 340.79 193.99 L 342.58 193.94 L 344.37 193.87 L 346.16 193.80 L 347.95 193.74 L 349.74 193.72 L 351.53 193.70 L 353.32 193.66 L 355.11 193.62 L 356.90 193.56 L 358.69 193.49 L 360.48 193.43 L 362.27 193.35 L 364.06 193.27 L 365.85 193.20 L 367.64 193.14 L 369.43 193.15 L 371.22 193.15 L 373.01 193.15 L 374.80 193.18 L 376.59 193.09 L 378.38 193.07 L 380.17 193.07 L 381.97 193.08 L 383.76 193.00 L 385.55 192.95 L 387.34 192.95 L 389.13 192.95 L 390.92 192.95 L 392.71 192.80 L 394.50 192.73 L 396.29 192.69 L 398.08 192.67 L 399.87 192.67 L 401.66 192.68 L 403.45 192.64 L 405.24 192.63 L 407.03 192.63 L 408.82 190.39 L 410.61 189.96 L 412.40 189.85 L 414.19 189.53 L 415.98 189.52 L 417.77 189.36 L 419.56 187.79 L 421.35 187.36 L 423.14 181.35 L 424.93 181.35 L 426.72 180.72 L 428.52 180.71 L 430.31 180.26 L 432.10 179.68 L 433.89 179.67 L 435.68 178.77 L 437.47 177.57 L 439.26 175.55 L 441.05 174.52 L 442.84 173.86 L 444.63 174.17 L 446.42 173.10 L 448.21 173.10 L 450.00 171.18 L 451.79 168.37 L 453.58 168.37 L 455.37 165.86 L 457.16 163.63 L 458.95 163.63 L 460.74 163.62 L 462.53 162.88 L 464.32 161.06 L 466.11 193.89 L 467.90 193.22 L 469.69 192.73 L 471.48 192.34 L 473.28 189.45 L 475.07 188.03 L 476.86 188.03 L 478.65 180.86 L 480.44 148.96 L 482.23 144.25 L 484.02 176.00 L 485.81 176.17 L 487.60 175.77 L 489.39 175.72 L 491.18 197.26 L 492.97 197.26 L 494.76 197.06 L 496.55 196.44 L 498.34 194.49 L 500.13 194.50 L 501.92 194.49 L 503.71 194.49 L 505.50 194.49 L 507.29 194.48 L 509.08 194.48 L 510.87 194.62 L 512.66 206.08 L 514.45 206.08 L 516.24 206.05 L 518.03 206.04 L 519.83 205.22 L 521.62 204.28 L 523.41 204.28 L 525.20 204.28 L 526.99 200.22 L 528.78 204.28 L 530.57 204.28 L 532.36 204.28 L 534.15 198.60 L 535.94 198.60 L 537.73 198.60 L 539.52 198.60 L 541.31 193.00 L 543.10 193.00 L 544.89 188.39 L 546.68 188.39 L 548.47 179.75 L 550.26 174.84 L 552.05 173.23 L 553.84 170.37 L 555.63 169.87 L 557.42 153.88 L 559.21 149.24 L 561.00 152.04 L 562.79 141.93 L 564.59 141.88 L 566.38 141.69 L 568.17 141.69 L 569.96 141.76 L 571.75 141.75 L 573.54 140.68 L 575.33 141.38 L 577.12 141.36 L 578.91 141.83 L 580.70 141.39 L 582.49 141.39 L 584.28 141.52 L 586.07 141.52 L 587.86 141.53 L 589.65 142.33 L 591.44 141.73 L 593.23 141.68 L 595.02 141.68 L 596.81 141.66 L 598.60 141.67 L 600.39 141.65 L 602.18 139.51 L 603.97 136.07 L 605.76 136.04 L 607.55 133.43 L 609.34 131.89 L 611.14 131.13 L 612.93 131.51 L 614.72 131.50 L 616.51 131.57 L 618.30 131.56 L 620.09 131.49 L 621.88 131.49 L 623.67 131.49 L 625.46 131.49 L 627.25 131.49 L 629.04 131.49 L 630.83 131.49 L 632.62 131.49 L 634.41 131.49 L 636.20 131.49 L 637.99 131.49 L 639.78 131.49 L 641.57 131.49 L 643.36 131.49 L 645.15 131.49 L 646.94 131.49 L 648.73 131.49 L 650.52 131.49 L 652.31 131.49 L 654.10 131.49 L 655.90 131.49 L 657.69 131.49 L 659.48 131.49 L 661.27 131.49 L 663.06 131.49 L 664.85 131.49 L 666.64 131.49 L 668.43 131.49 L 670.22 131.49 L 672.01 131.49 L 673.80 131.49 L 675.59 131.49 L 677.38 131.49 L 679.17 131.49 L 680.96 131.49 L 682.75 131.49 L 684.54 131.49 L 686.33 131.49 L 688.12 131.49 L 689.91 131.49 L 691.70 131.49 L 693.49 131.49 L 695.28 131.49 L 697.07 131.49 L 698.86 131.49 L 700.66 131.49 L 702.45 131.49 L 704.24 131.49 L 706.03 131.49 L 707.82 131.49 L 709.61 131.49 L 711.40 131.49 L 713.19 131.49 L 714.98 131.49 L 716.77 131.49 L 718.56 131.49 L 720.35 131.49 L 722.14 131.49 L 723.93 131.49 L 725.72 131.49 L 727.51 131.49 L 729.30 131.49 L 731.09 131.49 L 732.88 131.49 L 734.67 131.49 L 736.46 131.49 L 738.25 131.49 L 740.04 131.49 L 741.83 131.49 L 743.62 131.49 L 745.41 131.49 L 747.21 131.49 L 749.00 131.49 L 750.79 131.49 L 752.58 131.49 L 754.37 131.49 L 756.16 131.49 L 757.95 131.49 L 759.74 131.49 L 761.53 131.49 L 763.32 131.49 L 765.11 131.49 L 766.90 131.49 L 768.69 131.49 L 770.48 131.49 L 772.27 131.49 L 774.06 131.49 L 775.85 131.49 L 777.64 131.49 L 779.43 131.49 L 781.22 131.49 L 783.01 131.49 L 784.80 131.49 L 786.59 131.49 L 788.38 131.49 L 790.17 131.49 L 791.97 131.49 L 793.76 131.49 L 795.55 131.49 L 797.34 131.49 L 799.13 131.49 L 800.92 131.49 L 802.71 131.49 L 804.50 131.49 L 806.29 131.49 L 808.08 131.49 L 809.87 131.49 L 811.66 131.49 L 813.45 131.49 L 815.24 131.49 L 817.03 131.49 L 818.82 131.49 L 820.61 131.49 L 822.40 131.49 L 824.19 131.49 L 825.98 131.49 L 827.77 131.49 L 829.56 131.49 L 831.35 131.49 L 833.14 131.49 L 834.93 131.49 L 836.72 131.49 L 838.52 131.49 L 840.31 131.49 L 842.10 131.49 L 843.89 131.49 L 845.68 131.49 L 847.47 131.49 L 849.26 131.49 L 851.05 131.49 L 852.84 131.49 L 854.63 131.49 L 856.42 131.49 L 858.21 131.49 L 860.00 131.49" fill="none" stroke="#111827" stroke-width="2"/>
    <circle cx="860.00" cy="131.49" r="3" fill="#111827"/>
    <text x="40.00" y="235.00" font-size="9" fill="#111827" text-anchor="middle" transform="rotate(-45 40.00 235.00)">27.09.2025</text><text x="120.57" y="235.00" font-size="9" fill="#111827" text-anchor="middle" transform="rotate(-45 120.57 235.00)">28.09.2025</text><text x="201.14" y="235.00" font-size="9" fill="#111827" text-anchor="middle" transform="rotate(-45 201.14 235.00)">29.09.2025</text><text x="281.70" y="235.00" font-size="9" fill="#111827" text-anchor="middle" transform="rotate(-45 281.70 235.00)">04.10.2025</text><text x="362.27" y="235.00" font-size="9" fill="#111827" text-anchor="middle" transform="rotate(-45 362.27 235.00)">04.10.2025</text><text x="442.84" y="235.00" font-size="9" fill="#111827" text-anchor="middle" transform="rotate(-45 442.84 235.00)">04.10.2025</text><text x="523.41" y="235.00" font-size="9" fill="#111827" text-anchor="middle" transform="rotate(-45 523.41 235.00)">06.10.2025</text><text x="603.97" y="235.00" font-size="9" fill="#111827" text-anchor="middle" transform="rotate(-45 603.97 235.00)">09.10.2025</text><text x="684.54" y="235.00" font-size="9" fill="#111827" text-anchor="middle" transform="rotate(-45 684.54 235.00)">14.11.2025</text><text x="765.11" y="235.00" font-size="9" fill="#111827" text-anchor="middle" transform="rotate(-45 765.11 235.00)">29.12.2025</text><text x="845.68" y="235.00" font-size="9" fill="#111827" text-anchor="middle" transform="rotate(-45 845.68 235.00)">09.02.2026</text>
  </g>
</svg>