<svg xmlns="http://www.w3.org/2000/svg" width="900" height="290" style="font-family: -apple-system, BlinkMacSystemFont, 'Segoe UI', Helvetica, Arial, sans-serif;">
  <rect width="100%" height="100%" fill="#0d1117"/>
  <g>
    <line x1="40" y1="220.00" x2="860" y2="220.00" stroke="#30363d"/><text x="32" y="224.00" font-size="10" fill="#c9d1d9" text-anchor="end">0</text><line x1="40" y1="175.00" x2="860" y2="175.00" stroke="#30363d"/><text x="32" y="179.00" font-size="10" fill="#c9d1d9" text-anchor="end">25k</text><line x1="40" y1="130.00" x2="860" y2="130.00" stroke="#30363d"/><text x="32" y="134.00" font-size="10" fill="#c9d1d9" text-anchor="end">50k</text><line x1="40" y1="85.00" x2="860" y2="85.00" stroke="#30363d"/><text x="32" y="89.00" font-size="10" fill="#c9d1d9" text-anchor="end">75k</text><line x1="40" y1="40.00" x2="860" y2="40.00" stroke="#30363d"/><text x="32" y="44.00" font-size="10" fill="#c9d1d9" text-anchor="end">100k</text>
    <line x1="40.00" y1="40" x2="40.00" y2="220" stroke="#30363d" opacity="0.5"/><line x1="122.22" y1="40" x2="122.22" y2="220" stroke="#30363d" opacity="0.5"/><line x1="204.43" y1="40" x2="204.43" y2="220" stroke="#30363d" opacity="0.5"/><line x1="286.65" y1="40" x2="286.65" y2="220" stroke="#30363d" opacity="0.5"/><line x1="368.87" y1="40" x2="368.87" y2="220" stroke="#30363d" opacity="0.5"/><line x1="451.08" y1="40" x2="451.08" y2="220" stroke="#30363d" opacity="0.5"/><line x1="533.30" y1="40" x2="533.30" y2="220" stroke="#30363d" opacity="0.5"/><line x1="615.51" y1="40" x2="615.51" y2="220" stroke="#30363d" opacity="0.5"/><line x1="697.73" y1="40" x2="697.73" y2="220" stroke="#30363d" opacity="0.5"/><line x1="779.95" y1="40" x2="779.95" y2="220" stroke="#30363d" opacity="0.5"/>
    <line x1="40" y1="220" x2="860" y2="220" stroke="#30363d"/>
    <line x1="40" y1="40"   x2="40"   y2="220" stroke="#30363d"/>
    <path d="M 40.00 220.00 L 42.16 220.00 L 44.33 219.60 L 46.49 219.62 L 48.65 219.63 L 50.82 219.32 L 52.98 219.31 L 55.15 219.26 L 57.31 218.89 L 59.47 218.89 L 61.64 218.89 L 63.80 218.87 L 65.96 218.87 L 68.13 218.86 L 70.29 218.85 L 72.45 218.85 L 74.62 218.82 L 76.78 218.78 L 78.94 218.72 L 81.11 218.68 L 83.27 218.64 L 85.44 218.59 L 87.60 218.59 L 89.76 218.57 L 91.93 218.57 L 94.09 218.57 L 96.25 218.57 L 98.42 218.57 L 100.58 218.57 L 102.74 218.57 L 104.91 218.57 L 107.07 218.57 L 109.23 218.55 L 111.40 218.54 L 113.56 218.58 L 115.73 218.55 L 117.89 218.55 L 120.05 218.53 L 122.22 218.31 L 124.38 217.94 L 126.54 217.88 L 128.71 217.87 L 130.87 217.86 L 133.03 217.85 L 135.20 217.84 L 137.36 217.85 L 139.53 217.82 L 141.69 217.66 L 143.85 217.61 L 146.02 217.60 L 148.18 217.57 L 150.34 217.56 L 152.51 217.52 L 154.67 217.38 L 156.83 217.24 L 159.00 216.93 L 161.16 216.65 L 163.32 216.44 L 165.49 216.39 L 167.65 216.34 L 169.82 216.83 L 171.98 200.94 L 174.14 200.94 L 176.31 200.95 L 178.47 198.99 L 180.63 198.98 L 182.80 198.94 L 184.96 198.94 L 187.12 198.91 L 189.29 198.90 L 191.45 198.93 L 193.61 198.93 L 195.78 198.99 L 197.94 198.95 L 200.11 198.96 L 202.27 198.95 L 204.43 198.95 L 206.60 198.97 L 208.76 198.97 L 210.92 198.97 L 213.09 198.97 L 215.25 198.97 L 217.41 198.97 L 219.58 198.97 L 221.74 198.97 L 223.91 198.97 L 226.07 198.97 L 228.23 198.97 L 230.40 197.51 L 232.56 197.43 L 234.72 197.40 L 236.89 197.38 L 239.05 197.38 L 241.21 197.49 L 243.38 197.34 L 245.54 197.33 L 247.70 197.18 L 249.87 197.41 L 252.03 197.41 L 254.20 197.29 L 256.36 197.29 L 258.52 197.22 L 260.69 197.21 L 262.85 197.15 L 265.01 196.94 L 267.18 197.00 L 269.34 197.41 L 271.50 197.41 L 273.67 197.30 L 275.83 197.26 L 277.99 197.19 L 280.16 197.19 L 282.32 197.19 L 284.49 197.19 L 286.65 197.18 L 288.81 197.12 L 290.98 197.09 L 293.14 197.04 L 295.30 197.00 L 297.47 196.96 L 299.63 196.92 L 301.79 196.91 L 303.96 196.86 L 306.12 196.80 L 308.28 196.75 L 310.45 196.69 L 312.61 196.66 L 314.78 196.63 L 316.94 196.56 L 319.10 196.51 L 321.27 196.47 L 323.43 196.45 L 325.59 196.40 L 327.76 196.37 L 329.92 196.34 L 332.08 196.28 L 334.25 196.20 L 336.41 196.12 L 338.58 196.02 L 340.74 195.89 L 342.90 195.77 L 345.07 195.68 L 347.23 195.63 L 349.39 195.58 L 351.56 195.53 L 353.72 195.44 L 355.88 195.35 L 358.05 195.22 L 360.21 195.11 L 362.37 194.95 L 364.54 194.82 L 366.70 194.68 L 368.87 194.57 L 371.03 194.55 L 373.19 194.51 L 375.36 194.48 L 377.52 194.44 L 379.68 194.40 L 381.85 194.37 L 384.01 194.34 L 386.17 194.29 L 388.34 194.25 L 390.50 194.23 L 392.66 194.21 L 394.83 194.19 L 396.99 194.16 L 399.16 194.12 L 401.32 194.07 L 403.48 193.99 L 405.65 193.94 L 407.81 193.87 L 409.97 193.80 L 412.14 193.74 L 414.30 193.72 L 416.46 193.70 L 418.63 193.66 L 420.79 193.62 L 422.96 193.56 L 425.12 193.49 L 427.28 193.43 L 429.45 193.35 L 431.61 193.27 L 433.77 193.20 L 435.94 193.14 L 438.10 193.15 L 440.26 193.15 L 442.43 193.15 L 444.59 193.18 L 446.75 193.09 L 448.92 193.07 L 451.08 193.07 L 453.25 193.08 L 455.41 193.00 L 457.57 192.95 L 459.74 192.95 L 461.90 192.95 L 464.06 192.95 L 466.23 192.80 L 468.39 192.73 L 470.55 192.69 L 472.72 192.67 L 474.88 192.67 L 477.04 192.68 L 479.21 192.64 L 481.37 192.63 L 483.54 192.63 L 485.70 190.39 L 487.86 189.96 L 490.03 189.85 L 492.19 189.53 L 494.35 189.52 L 496.52 189.36 L 498.68 187.79 L 500.84 187.36 L 503.01 181.35 L 505.17 181.35 L 507.34 180.72 L 509.50 180.71 L 511.66 180.26 L 513.83 179.68 L 515.99 179.67 L 518.15 178.77 L 520.32 177.57 L 522.48 175.55 L 524.64 174.52 L 526.81 173.86 L 528.97 174.17 L 531.13 173.10 L 533.30 173.10 L 535.46 171.18 L 537.63 168.37 L 539.79 168.37 L 541.95 165.86 L 544.12 163.63 L 546.28 163.63 L 548.44 163.62 L 550.61 162.88 L 552.77 161.06 L 554.93 193.89 L 557.10 193.22 L 559.26 192.73 L 561.42 192.34 L 563.59 189.45 L 565.75 188.03 L 567.92 188.03 L 570.08 180.86 L 572.24 148.96 L 574.41 144.25 L 576.57 176.00 L 578.73 176.17 L 580.90 175.77 L 583.06 175.72 L 585.22 197.26 L 587.39 197.26 L 589.55 197.06 L 591.72 196.44 L 593.88 194.49 L 596.04 194.50 L 598.21 194.49 L 600.37 194.49 L 602.53 194.49 L 604.70 194.48 L 606.86 194.48 L 609.02 194.62 L 611.19 206.08 L 613.35 206.08 L 615.51 206.05 L 617.68 206.04 L 619.84 205.22 L 622.01 204.28 L 624.17 204.28 L 626.33 204.28 L 628.50 200.22 L 630.66 204.28 L 632.82 204.28 L 634.99 204.28 L 637.15 198.60 L 639.31 198.60 L 641.48 198.60 L 643.64 198.60 L 645.80 193.00 L 647.97 193.00 L 650.13 188.39 L 652.30 188.39 L 654.46 179.75 L 656.62 174.84 L 658.79 173.23 L 660.95 170.37 L 663.11 169.87 L 665.28 153.88 L 667.44 149.24 L 669.60 152.04 L 671.77 141.93 L 673.93 141.88 L 676.09 141.69 L 678.26 141.69 L 680.42 141.76 L 682.59 141.75 L 684.75 140.68 L 686.91 141.38 L 689.08 141.36 L 691.24 141.83 L 693.40 141.39 L 695.57 141.39 L 697.73 141.52 L 699.89 141.52 L 702.06 141.53 L 704.22 142.33 L 706.39 141.73 L 708.55 141.68 L 710.71 141.68 L 712.88 141.66 L 715.04 141.67 L 717.20 141.65 L 719.37 139.51 L 721.53 136.07 L 723.69 136.04 L 725.86 133.43 L 728.02 131.89 L 730.18 131.13 L 732.35 131.51 L 734.51 131.50 L 736.68 131.57 L 738.84 131.56 L 741.00 131.49 L 743.17 131.49 L 745.33 131.49 L 747.49 131.49 L 749.66 131.49 L 751.82 131.49 L 753.98 131.49 L 756.15 131.49 L 758.31 131.49 L 760.47 131.49 L 762.64 131.49 L 764.80 131.49 L 766.97 131.49 L 769.13 131.49 L 771.29 131.49 L 773.46 131.49 L 775.62 131.49 L 777.78 131.49 L 779.95 131.49 L 782.11 131.49 L 784.27 131.49 L 786.44 131.49 L 788.60 131.49 L 790.77 131.49 L 792.93 131.49 L 795.09 131.49 L 797.26 131.49 L 799.42 131.49 L 801.58 131.49 L 803.75 131.49 L 805.91 131.49 L 808.07 131.49 L 810.24 131.49 L 812.40 131.49 L 814.56 131.49 L 816.73 131.49 L 818.89 131.49 L 821.06 131.49 L 823.22 131.49 L 825.38 131.49 L 827.55 131.49 L 829.71 131.49 L 831.87 131.49 L 834.04 131.49 L 836.20 131.49 L 838.36 131.49 L 840.53 131.49 L 842.69 131.49 L 844.85 131.49 L 847.02 131.49 L 849.18 131.49 L 851.35 131.49 L 853.51 131.49 L 855.67 131.49 L 857.84 131.49 L 860.00 131.49" fill="none" stroke="#3fb950" stroke-width="2"/>
    <circle cx="860.00" cy="131.49" r="3" fill="#3fb950"/>
    <text x="40.00" y="235.00" font-size="9" fill="#c9d1d9" text-anchor="middle" transform="rotate(-45 40.00 235.00)">27.09.2025</text><text x="122.22" y="235.00" font-size="9" fill="#c9d1d9" text-anchor="middle" transform="rotate(-45 122.22 235.00)">28.09.2025</text><text x="204.43" y="235.00" font-size="9" fill="#c9d1d9" text-anchor="middle" transform="rotate(-45 204.43 235.00)">29.09.2025</text><text x="286.65" y="235.00" font-size="9" fill="#c9d1d9" text-anchor="middle" transform="rotate(-45 286.65 235.00)">04.10.2025</text><text x="368.87" y="235.00" font-size="9" fill="#c9d1d9" text-anchor="middle" transform="rotate(-45 368.87 235.00)">04.10.2025</text><text x="451.08" y="235.00" font-size="9" fill="#c9d1d9" text-anchor="middle" transform="rotate(-45 451.08 235.00)">04.10.2025</text><text x="533.30" y="235.00" font-size="9" fill="#c9d1d9" text-anchor="middle" transform="rotate(-45 533.30 235.00)">04.10.2025</text><text x="615.51" y="235.00" font-size="9" fill="#c9d1d9" text-anchor="middle" transform="rotate(-45 615.51 235.00)">05.10.2025</text><text x="697.73" y="235.00" font-size="9" fill="#c9d1d9" text-anchor="middle" transform="rotate(-45 697.73 235.00)">09.10.2025</text><text x="779.95" y="235.00" font-size="9" fill="#c9d1d9" text-anchor="middle" transform="rotate(-45 779.95 235.00)">27.10.2025</text>
  </g>
</svg>