<svg xmlns="http://www.w3.org/2000/svg" width="900" height="290" style="font-family: -apple-system, BlinkMacSystemFont, 'Segoe UI', Helvetica, Arial, sans-serif;">
  <rect width="100%" height="100%" fill="white"/>
  <g>
    <line x1="40" y1="220.00" x2="860" y2="220.00" stroke="#e5e7eb"/><text x="32" y="224.00" font-size="10" fill="#111827" text-anchor="end">0</text><line x1="40" y1="175.00" x2="860" y2="175.00" stroke="#e5e7eb"/><text x="32" y="179.00" font-size="10" fill="#111827" text-anchor="end">25k</text><line x1="40" y1="130.00" x2="860" y2="130.00" stroke="#e5e7eb"/><text x="32" y="134.00" font-size="10" fill="#111827" text-anchor="end">50k</text><line x1="40" y1="85.00" x2="860" y2="85.00" stroke="#e5e7eb"/><text x="32" y="89.00" font-size="10" fill="#111827" text-anchor="end">75k</text><line x1="40" y1="40.00" x2="860" y2="40.00" stroke="#e5e7eb"/><text x="32" y="44.00" font-size="10" fill="#111827" text-anchor="end">100k</text>
    <line x1="40.00" y1="40" x2="40.00" y2="220" stroke="#e5e7eb" opacity="0.5"/><line x1="121.56" y1="40" x2="121.56" y2="220" stroke="#e5e7eb" opacity="0.5"/><line x1="203.12" y1="40" x2="203.12" y2="220" stroke="#e5e7eb" opacity="0.5"/><line x1="284.68" y1="40" x2="284.68" y2="220" stroke="#e5e7eb" opacity="0.5"/><line x1="366.24" y1="40" x2="366.24" y2="220" stroke="#e5e7eb" opacity="0.5"/><line x1="447.80" y1="40" x2="447.80" y2="220" stroke="#e5e7eb" opacity="0.5"/><line x1="529.35" y1="40" x2="529.35" y2="220" stroke="#e5e7eb" opacity="0.5"/><line x1="610.91" y1="40" x2="610.91" y2="220" stroke="#e5e7eb" opacity="0.5"/><line x1="692.47" y1="40" x2="692.47" y2="220" stroke="#e5e7eb" opacity="0.5"/><line x1="774.03" y1="40" x2="774.03" y2="220" stroke="#e5e7eb" opacity="0.5"/><line x1="855.59" y1="40" x2="855.59" y2="220" stroke="#e5e7eb" opacity="0.5"/>
    <line x1="40" y1="220" x2="860" y2="220" stroke="#9ca3af"/>
    <line x1="40" y1="40"   x2="40"   y2="220" stroke="#9ca3af"/>
    <path d="M 40.00 220.00 L 42.20 220.00 L 44.41 219.60 L 46.61 219.62 L 48.82 219.63 L 51.02 219.32 L 53.23 219.31 L 55.43 219.26 L 57.63 218.89 L 59.84 218.89 L 62.04 218.89 L 64.25 218.87 L 66.45 218.87 L 68.66 218.86 L 70.86 218.85 L 73.06 218.85 L 75.27 218.82 L 77.47 218.78 L 79.68 218.72 L 81.88 218.68 L 84.09 218.64 L 86.29 218.59 L 88.49 218.59 L 90.70 218.57 L 92.90 218.57 L 95.11 218.57 L 97.31 218.57 L 99.52 218.57 L 101.72 218.57 L 103.92 218.57 L 106.13 218.57 L 108.33 218.57 L 110.54 218.55 L 112.74 218.54 L 114.95 218.58 L 117.15 218.55 L 119.35 218.55 L 121.56 218.53 L 123.76 218.31 L 125.97 217.94 L 128.17 217.88 L 130.38 217.87 L 132.58 217.86 L 134.78 217.85 L 136.99 217.84 L 139.19 217.85 L 141.40 217.82 L 143.60 217.66 L 145.81 217.61 L 148.01 217.60 L 150.22 217.57 L 152.42 217.56 L 154.62 217.52 L 156.83 217.38 L 159.03 217.24 L 161.24 216.93 L 163.44 216.65 L 165.65 216.44 L 167.85 216.39 L 170.05 216.34 L 172.26 216.83 L 174.46 200.94 L 176.67 200.94 L 178.87 200.95 L 181.08 198.99 L 183.28 198.98 L 185.48 198.94 L 187.69 198.94 L 189.89 198.91 L 192.10 198.90 L 194.30 198.93 L 196.51 198.93 L 198.71 198.99 L 200.91 198.95 L 203.12 198.96 L 205.32 198.95 L 207.53 198.95 L 209.73 198.97 L 211.94 198.97 L 214.14 198.97 L 216.34 198.97 L 218.55 198.97 L 220.75 198.97 L 222.96 198.97 L 225.16 198.97 L 227.37 198.97 L 229.57 198.97 L 231.77 198.97 L 233.98 197.51 L 236.18 197.43 L 238.39 197.40 L 240.59 197.38 L 242.80 197.38 L 245.00 197.49 L 247.20 197.34 L 249.41 197.33 L 251.61 197.18 L 253.82 197.41 L 256.02 197.41 L 258.23 197.29 L 260.43 197.29 L 262.63 197.22 L 264.84 197.21 L 267.04 197.15 L 269.25 196.94 L 271.45 197.00 L 273.66 197.41 L 275.86 197.41 L 278.06 197.30 L 280.27 197.26 L 282.47 197.19 L 284.68 197.19 L 286.88 197.19 L 289.09 197.19 L 291.29 197.18 L 293.49 197.12 L 295.70 197.09 L 297.90 197.04 L 300.11 197.00 L 302.31 196.96 L 304.52 196.92 L 306.72 196.91 L 308.92 196.86 L 311.13 196.80 L 313.33 196.75 L 315.54 196.69 L 317.74 196.66 L 319.95 196.63 L 322.15 196.56 L 324.35 196.51 L 326.56 196.47 L 328.76 196.45 L 330.97 196.40 L 333.17 196.37 L 335.38 196.34 L 337.58 196.28 L 339.78 196.20 L 341.99 196.12 L 344.19 196.02 L 346.40 195.89 L 348.60 195.77 L 350.81 195.68 L 353.01 195.63 L 355.22 195.58 L 357.42 195.53 L 359.62 195.44 L 361.83 195.35 L 364.03 195.22 L 366.24 195.11 L 368.44 194.95 L 370.65 194.82 L 372.85 194.68 L 375.05 194.57 L 377.26 194.55 L 379.46 194.51 L 381.67 194.48 L 383.87 194.44 L 386.08 194.40 L 388.28 194.37 L 390.48 194.34 L 392.69 194.29 L 394.89 194.25 L 397.10 194.23 L 399.30 194.21 L 401.51 194.19 L 403.71 194.16 L 405.91 194.12 L 408.12 194.07 L 410.32 193.99 L 412.53 193.94 L 414.73 193.87 L 416.94 193.80 L 419.14 193.74 L 421.34 193.72 L 423.55 193.70 L 425.75 193.66 L 427.96 193.62 L 430.16 193.56 L 432.37 193.49 L 434.57 193.43 L 436.77 193.35 L 438.98 193.27 L 441.18 193.20 L 443.39 193.14 L 445.59 193.15 L 447.80 193.15 L 450.00 193.15 L 452.20 193.18 L 454.41 193.09 L 456.61 193.07 L 458.82 193.07 L 461.02 193.08 L 463.23 193.00 L 465.43 192.95 L 467.63 192.95 L 469.84 192.95 L 472.04 192.95 L 474.25 192.80 L 476.45 192.73 L 478.66 192.69 L 480.86 192.67 L 483.06 192.67 L 485.27 192.68 L 487.47 192.64 L 489.68 192.63 L 491.88 192.63 L 494.09 190.39 L 496.29 189.96 L 498.49 189.85 L 500.70 189.53 L 502.90 189.52 L 505.11 189.36 L 507.31 187.79 L 509.52 187.36 L 511.72 181.35 L 513.92 181.35 L 516.13 180.72 L 518.33 180.71 L 520.54 180.26 L 522.74 179.68 L 524.95 179.67 L 527.15 178.77 L 529.35 177.57 L 531.56 175.55 L 533.76 174.52 L 535.97 173.86 L 538.17 174.17 L 540.38 173.10 L 542.58 173.10 L 544.78 171.18 L 546.99 168.37 L 549.19 168.37 L 551.40 165.86 L 553.60 163.63 L 555.81 163.63 L 558.01 163.62 L 560.22 162.88 L 562.42 161.06 L 564.62 193.89 L 566.83 193.22 L 569.03 192.73 L 571.24 192.34 L 573.44 189.45 L 575.65 188.03 L 577.85 188.03 L 580.05 180.86 L 582.26 148.96 L 584.46 144.25 L 586.67 176.00 L 588.87 176.17 L 591.08 175.77 L 593.28 175.72 L 595.48 197.26 L 597.69 197.26 L 599.89 197.06 L 602.10 196.44 L 604.30 194.49 L 606.51 194.50 L 608.71 194.49 L 610.91 194.49 L 613.12 194.49 L 615.32 194.48 L 617.53 194.48 L 619.73 194.62 L 621.94 206.08 L 624.14 206.08 L 626.34 206.05 L 628.55 206.04 L 630.75 205.22 L 632.96 204.28 L 635.16 204.28 L 637.37 204.28 L 639.57 200.22 L 641.77 204.28 L 643.98 204.28 L 646.18 204.28 L 648.39 198.60 L 650.59 198.60 L 652.80 198.60 L 655.00 198.60 L 657.20 193.00 L 659.41 193.00 L 661.61 188.39 L 663.82 188.39 L 666.02 179.75 L 668.23 174.84 L 670.43 173.23 L 672.63 170.37 L 674.84 169.87 L 677.04 153.88 L 679.25 149.24 L 681.45 152.04 L 683.66 141.93 L 685.86 141.88 L 688.06 141.69 L 690.27 141.69 L 692.47 141.76 L 694.68 141.75 L 696.88 140.68 L 699.09 141.38 L 701.29 141.36 L 703.49 141.83 L 705.70 141.39 L 707.90 141.39 L 710.11 141.52 L 712.31 141.52 L 714.52 141.53 L 716.72 142.33 L 718.92 141.73 L 721.13 141.68 L 723.33 141.68 L 725.54 141.66 L 727.74 141.67 L 729.95 141.65 L 732.15 139.51 L 734.35 136.07 L 736.56 136.04 L 738.76 133.43 L 740.97 131.89 L 743.17 131.13 L 745.38 131.51 L 747.58 131.50 L 749.78 131.57 L 751.99 131.56 L 754.19 131.49 L 756.40 131.49 L 758.60 131.49 L 760.81 131.49 L 763.01 131.49 L 765.22 131.49 L 767.42 131.49 L 769.62 131.49 L 771.83 131.49 L 774.03 131.49 L 776.24 131.49 L 778.44 131.49 L 780.65 131.49 L 782.85 131.49 L 785.05 131.49 L 787.26 131.49 L 789.46 131.49 L 791.67 131.49 L 793.87 131.49 L 796.08 131.49 L 798.28 131.49 L 800.48 131.49 L 802.69 131.49 L 804.89 131.49 L 807.10 131.49 L 809.30 131.49 L 811.51 131.49 L 813.71 131.49 L 815.91 131.49 L 818.12 131.49 L 820.32 131.49 L 822.53 131.49 L 824.73 131.49 L 826.94 131.49 L 829.14 131.49 L 831.34 131.49 L 833.55 131.49 L 835.75 131.49 L 837.96 131.49 L 840.16 131.49 L 842.37 131.49 L 844.57 131.49 L 846.77 131.49 L 848.98 131.49 L 851.18 131.49 L 853.39 131.49 L 855.59 131.49 L 857.80 131.49 L 860.00 131.49" fill="none" stroke="#111827" stroke-width="2"/>
    <circle cx="860.00" cy="131.49" r="3" fill="#111827"/>
    <text x="40.00" y="235.00" font-size="9" fill="#111827" text-anchor="middle" transform="rotate(-45 40.00 235.00)">27.09.2025</text><text x="121.56" y="235.00" font-size="9" fill="#111827" text-anchor="middle" transform="rotate(-45 121.56 235.00)">28.09.2025</text><text x="203.12" y="235.00" font-size="9" fill="#111827" text-anchor="middle" transform="rotate(-45 203.12 235.00)">28.09.2025</text><text x="284.68" y="235.00" font-size="9" fill="#111827" text-anchor="middle" transform="rotate(-45 284.68 235.00)">04.10.2025</text><text x="366.24" y="235.00" font-size="9" fill="#111827" text-anchor="middle" transform="rotate(-45 366.24 235.00)">04.10.2025</text><text x="447.80" y="235.00" font-size="9" fill="#111827" text-anchor="middle" transform="rotate(-45 447.80 235.00)">04.10.2025</text><text x="529.35" y="235.00" font-size="9" fill="#111827" text-anchor="middle" transform="rotate(-45 529.35 235.00)">04.10.2025</text><text x="610.91" y="235.00" font-size="9" fill="#111827" text-anchor="middle" transform="rotate(-45 610.91 235.00)">05.10.2025</text><text x="692.47" y="235.00" font-size="9" fill="#111827" text-anchor="middle" transform="rotate(-45 692.47 235.00)">08.10.2025</text><text x="774.03" y="235.00" font-size="9" fill="#111827" text-anchor="middle" transform="rotate(-45 774.03 235.00)">18.10.2025</text><text x="855.59" y="235.00" font-size="9" fill="#111827" text-anchor="middle" transform="rotate(-45 855.59 235.00)">24.11.2025</text>
  </g>
</svg>