<svg xmlns="http://www.w3.org/2000/svg" width="900" height="290" style="font-family: -apple-system, BlinkMacSystemFont, 'Segoe UI', Helvetica, Arial, sans-serif;">
  <rect width="100%" height="100%" fill="white"/>
  <g>
    <line x1="40" y1="220.00" x2="860" y2="220.00" stroke="#e5e7eb"/><text x="32" y="224.00" font-size="10" fill="#111827" text-anchor="end">0</text><line x1="40" y1="175.00" x2="860" y2="175.00" stroke="#e5e7eb"/><text x="32" y="179.00" font-size="10" fill="#111827" text-anchor="end">25k</text><line x1="40" y1="130.00" x2="860" y2="130.00" stroke="#e5e7eb"/><text x="32" y="134.00" font-size="10" fill="#111827" text-anchor="end">50k</text><line x1="40" y1="85.00" x2="860" y2="85.00" stroke="#e5e7eb"/><text x="32" y="89.00" font-size="10" fill="#111827" text-anchor="end">75k</text><line x1="40" y1="40.00" x2="860" y2="40.00" stroke="#e5e7eb"/><text x="32" y="44.00" font-size="10" fill="#111827" text-anchor="end">100k</text>
    <line x1="40.00" y1="40" x2="40.00" y2="220" stroke="#e5e7eb" opacity="0.5"/><line x1="121.10" y1="40" x2="121.10" y2="220" stroke="#e5e7eb" opacity="0.5"/><line x1="202.20" y1="40" x2="202.20" y2="220" stroke="#e5e7eb" opacity="0.5"/><line x1="283.30" y1="40" x2="283.30" y2="220" stroke="#e5e7eb" opacity="0.5"/><line x1="364.40" y1="40" x2="364.40" y2="220" stroke="#e5e7eb" opacity="0.5"/><line x1="445.49" y1="40" x2="445.49" y2="220" stroke="#e5e7eb" opacity="0.5"/><line x1="526.59" y1="40" x2="526.59" y2="220" stroke="#e5e7eb" opacity="0.5"/><line x1="607.69" y1="40" x2="607.69" y2="220" stroke="#e5e7eb" opacity="0.5"/><line x1="688.79" y1="40" x2="688.79" y2="220" stroke="#e5e7eb" opacity="0.5"/><line x1="769.89" y1="40" x2="769.89" y2="220" stroke="#e5e7eb" opacity="0.5"/><line x1="850.99" y1="40" x2="850.99" y2="220" stroke="#e5e7eb" opacity="0.5"/>
    <line x1="40" y1="220" x2="860" y2="220" stroke="#9ca3af"/>
    <line x1="40" y1="40"   x2="40"   y2="220" stroke="#9ca3af"/>
    <path d="M 40.00 220.00 L 41.80 220.00 L 43.60 219.60 L 45.41 219.62 L 47.21 219.63 L 49.01 219.32 L 50.81 219.31 L 52.62 219.26 L 54.42 218.89 L 56.22 218.89 L 58.02 218.89 L 59.82 218.87 L 61.63 218.87 L 63.43 218.86 L 65.23 218.85 L 67.03 218.85 L 68.84 218.82 L 70.64 218.78 L 72.44 218.72 L 74.24 218.68 L 76.04 218.64 L 77.85 218.59 L 79.65 218.59 L 81.45 218.57 L 83.25 218.57 L 85.05 218.57 L 86.86 218.57 L 88.66 218.57 L 90.46 218.57 L 92.26 218.57 L 94.07 218.57 L 95.87 218.57 L 97.67 218.55 L 99.47 218.54 L 101.27 218.58 L 103.08 218.55 L 104.88 218.55 L 106.68 218.53 L 108.48 218.31 L 110.29 217.94 L 112.09 217.88 L 113.89 217.87 L 115.69 217.86 L 117.49 217.85 L 119.30 217.84 L 121.10 217.85 L 122.90 217.82 L 124.70 217.66 L 126.51 217.61 L 128.31 217.60 L 130.11 217.57 L 131.91 217.56 L 133.71 217.52 L 135.52 217.38 L 137.32 217.24 L 139.12 216.93 L 140.92 216.65 L 142.73 216.44 L 144.53 216.39 L 146.33 216.34 L 148.13 216.83 L 149.93 200.94 L 151.74 200.94 L 153.54 200.95 L 155.34 198.99 L 157.14 198.98 L 158.95 198.94 L 160.75 198.94 L 162.55 198.91 L 164.35 198.90 L 166.15 198.93 L 167.96 198.93 L 169.76 198.99 L 171.56 198.95 L 173.36 198.96 L 175.16 198.95 L 176.97 198.95 L 178.77 198.97 L 180.57 198.97 L 182.37 198.97 L 184.18 198.97 L 185.98 198.97 L 187.78 198.97 L 189.58 198.97 L 191.38 198.97 L 193.19 198.97 L 194.99 198.97 L 196.79 198.97 L 198.59 197.51 L 200.40 197.43 L 202.20 197.40 L 204.00 197.38 L 205.80 197.38 L 207.60 197.49 L 209.41 197.34 L 211.21 197.33 L 213.01 197.18 L 214.81 197.41 L 216.62 197.41 L 218.42 197.29 L 220.22 197.29 L 222.02 197.22 L 223.82 197.21 L 225.63 197.15 L 227.43 196.94 L 229.23 197.00 L 231.03 197.41 L 232.84 197.41 L 234.64 197.30 L 236.44 197.26 L 238.24 197.19 L 240.04 197.19 L 241.85 197.19 L 243.65 197.19 L 245.45 197.18 L 247.25 197.12 L 249.05 197.09 L 250.86 197.04 L 252.66 197.00 L 254.46 196.96 L 256.26 196.92 L 258.07 196.91 L 259.87 196.86 L 261.67 196.80 L 263.47 196.75 L 265.27 196.69 L 267.08 196.66 L 268.88 196.63 L 270.68 196.56 L 272.48 196.51 L 274.29 196.47 L 276.09 196.45 L 277.89 196.40 L 279.69 196.37 L 281.49 196.34 L 283.30 196.28 L 285.10 196.20 L 286.90 196.12 L 288.70 196.02 L 290.51 195.89 L 292.31 195.77 L 294.11 195.68 L 295.91 195.63 L 297.71 195.58 L 299.52 195.53 L 301.32 195.44 L 303.12 195.35 L 304.92 195.22 L 306.73 195.11 L 308.53 194.95 L 310.33 194.82 L 312.13 194.68 L 313.93 194.57 L 315.74 194.55 L 317.54 194.51 L 319.34 194.48 L 321.14 194.44 L 322.95 194.40 L 324.75 194.37 L 326.55 194.34 L 328.35 194.29 L 330.15 194.25 L 331.96 194.23 L 333.76 194.21 L 335.56 194.19 L 337.36 194.16 L 339.16 194.12 L 340.97 194.07 L 342.77 193.99 L 344.57 193.94 L 346.37 193.87 L 348.18 193.80 L 349.98 193.74 L 351.78 193.72 L 353.58 193.70 L 355.38 193.66 L 357.19 193.62 L 358.99 193.56 L 360.79 193.49 L 362.59 193.43 L 364.40 193.35 L 366.20 193.27 L 368.00 193.20 L 369.80 193.14 L 371.60 193.15 L 373.41 193.15 L 375.21 193.15 L 377.01 193.18 L 378.81 193.09 L 380.62 193.07 L 382.42 193.07 L 384.22 193.08 L 386.02 193.00 L 387.82 192.95 L 389.63 192.95 L 391.43 192.95 L 393.23 192.95 L 395.03 192.80 L 396.84 192.73 L 398.64 192.69 L 400.44 192.67 L 402.24 192.67 L 404.04 192.68 L 405.85 192.64 L 407.65 192.63 L 409.45 192.63 L 411.25 190.39 L 413.05 189.96 L 414.86 189.85 L 416.66 189.53 L 418.46 189.52 L 420.26 189.36 L 422.07 187.79 L 423.87 187.36 L 425.67 181.35 L 427.47 181.35 L 429.27 180.72 L 431.08 180.71 L 432.88 180.26 L 434.68 179.68 L 436.48 179.67 L 438.29 178.77 L 440.09 177.57 L 441.89 175.55 L 443.69 174.52 L 445.49 173.86 L 447.30 174.17 L 449.10 173.10 L 450.90 173.10 L 452.70 171.18 L 454.51 168.37 L 456.31 168.37 L 458.11 165.86 L 459.91 163.63 L 461.71 163.63 L 463.52 163.62 L 465.32 162.88 L 467.12 161.06 L 468.92 193.89 L 470.73 193.22 L 472.53 192.73 L 474.33 192.34 L 476.13 189.45 L 477.93 188.03 L 479.74 188.03 L 481.54 180.86 L 483.34 148.96 L 485.14 144.25 L 486.95 176.00 L 488.75 176.17 L 490.55 175.77 L 492.35 175.72 L 494.15 197.26 L 495.96 197.26 L 497.76 197.06 L 499.56 196.44 L 501.36 194.49 L 503.16 194.50 L 504.97 194.49 L 506.77 194.49 L 508.57 194.49 L 510.37 194.48 L 512.18 194.48 L 513.98 194.62 L 515.78 206.08 L 517.58 206.08 L 519.38 206.05 L 521.19 206.04 L 522.99 205.22 L 524.79 204.28 L 526.59 204.28 L 528.40 204.28 L 530.20 200.22 L 532.00 204.28 L 533.80 204.28 L 535.60 204.28 L 537.41 198.60 L 539.21 198.60 L 541.01 198.60 L 542.81 198.60 L 544.62 193.00 L 546.42 193.00 L 548.22 188.39 L 550.02 188.39 L 551.82 179.75 L 553.63 174.84 L 555.43 173.23 L 557.23 170.37 L 559.03 169.87 L 560.84 153.88 L 562.64 149.24 L 564.44 152.04 L 566.24 141.93 L 568.04 141.88 L 569.85 141.69 L 571.65 141.69 L 573.45 141.76 L 575.25 141.75 L 577.05 140.68 L 578.86 141.38 L 580.66 141.36 L 582.46 141.83 L 584.26 141.39 L 586.07 141.39 L 587.87 141.52 L 589.67 141.52 L 591.47 141.53 L 593.27 142.33 L 595.08 141.73 L 596.88 141.68 L 598.68 141.68 L 600.48 141.66 L 602.29 141.67 L 604.09 141.65 L 605.89 139.51 L 607.69 136.07 L 609.49 136.04 L 611.30 133.43 L 613.10 131.89 L 614.90 131.13 L 616.70 131.51 L 618.51 131.50 L 620.31 131.57 L 622.11 131.56 L 623.91 131.49 L 625.71 131.49 L 627.52 131.49 L 629.32 131.49 L 631.12 131.49 L 632.92 131.49 L 634.73 131.49 L 636.53 131.49 L 638.33 131.49 L 640.13 131.49 L 641.93 131.49 L 643.74 131.49 L 645.54 131.49 L 647.34 131.49 L 649.14 131.49 L 650.95 131.49 L 652.75 131.49 L 654.55 131.49 L 656.35 131.49 L 658.15 131.49 L 659.96 131.49 L 661.76 131.49 L 663.56 131.49 L 665.36 131.49 L 667.16 131.49 L 668.97 131.49 L 670.77 131.49 L 672.57 131.49 L 674.37 131.49 L 676.18 131.49 L 677.98 131.49 L 679.78 131.49 L 681.58 131.49 L 683.38 131.49 L 685.19 131.49 L 686.99 131.49 L 688.79 131.49 L 690.59 131.49 L 692.40 131.49 L 694.20 131.49 L 696.00 131.49 L 697.80 131.49 L 699.60 131.49 L 701.41 131.49 L 703.21 131.49 L 705.01 131.49 L 706.81 131.49 L 708.62 131.49 L 710.42 131.49 L 712.22 131.49 L 714.02 131.49 L 715.82 131.49 L 717.63 131.49 L 719.43 131.49 L 721.23 131.49 L 723.03 131.49 L 724.84 131.49 L 726.64 131.49 L 728.44 131.49 L 730.24 131.49 L 732.04 131.49 L 733.85 131.49 L 735.65 131.49 L 737.45 131.49 L 739.25 131.49 L 741.05 131.49 L 742.86 131.49 L 744.66 131.49 L 746.46 131.49 L 748.26 131.49 L 750.07 131.49 L 751.87 131.49 L 753.67 131.49 L 755.47 131.49 L 757.27 131.49 L 759.08 131.49 L 760.88 131.49 L 762.68 131.49 L 764.48 131.49 L 766.29 131.49 L 768.09 131.49 L 769.89 131.49 L 771.69 131.49 L 773.49 131.49 L 775.30 131.49 L 777.10 131.49 L 778.90 131.49 L 780.70 131.49 L 782.51 131.49 L 784.31 131.49 L 786.11 131.49 L 787.91 131.49 L 789.71 131.49 L 791.52 131.49 L 793.32 131.49 L 795.12 131.49 L 796.92 131.49 L 798.73 131.49 L 800.53 131.49 L 802.33 131.49 L 804.13 131.49 L 805.93 131.49 L 807.74 131.49 L 809.54 131.49 L 811.34 131.49 L 813.14 131.49 L 814.95 131.49 L 816.75 131.49 L 818.55 131.49 L 820.35 131.49 L 822.15 131.49 L 823.96 131.49 L 825.76 131.49 L 827.56 131.49 L 829.36 131.49 L 831.16 131.49 L 832.97 131.49 L 834.77 131.49 L 836.57 131.49 L 838.37 131.49 L 840.18 131.49 L 841.98 131.49 L 843.78 131.49 L 845.58 131.49 L 847.38 131.49 L 849.19 131.49 L 850.99 131.49 L 852.79 131.49 L 854.59 131.49 L 856.40 131.49 L 858.20 131.49 L 860.00 131.49" fill="none" stroke="#111827" stroke-width="2"/>
    <circle cx="860.00" cy="131.49" r="3" fill="#111827"/>
    <text x="40.00" y="235.00" font-size="9" fill="#111827" text-anchor="middle" transform="rotate(-45 40.00 235.00)">27.09.2025</text><text x="121.10" y="235.00" font-size="9" fill="#111827" text-anchor="middle" transform="rotate(-45 121.10 235.00)">28.09.2025</text><text x="202.20" y="235.00" font-size="9" fill="#111827" text-anchor="middle" transform="rotate(-45 202.20 235.00)">29.09.2025</text><text x="283.30" y="235.00" font-size="9" fill="#111827" text-anchor="middle" transform="rotate(-45 283.30 235.00)">04.10.2025</text><text x="364.40" y="235.00" font-size="9" fill="#111827" text-anchor="middle" transform="rotate(-45 364.40 235.00)">04.10.2025</text><text x="445.49" y="235.00" font-size="9" fill="#111827" text-anchor="middle" transform="rotate(-45 445.49 235.00)">04.10.2025</text><text x="526.59" y="235.00" font-size="9" fill="#111827" text-anchor="middle" transform="rotate(-45 526.59 235.00)">06.10.2025</text><text x="607.69" y="235.00" font-size="9" fill="#111827" text-anchor="middle" transform="rotate(-45 607.69 235.00)">09.10.2025</text><text x="688.79" y="235.00" font-size="9" fill="#111827" text-anchor="middle" transform="rotate(-45 688.79 235.00)">14.11.2025</text><text x="769.89" y="235.00" font-size="9" fill="#111827" text-anchor="middle" transform="rotate(-45 769.89 235.00)">29.12.2025</text><text x="850.99" y="235.00" font-size="9" fill="#111827" text-anchor="middle" transform="rotate(-45 850.99 235.00)">09.02.2026</text>
  </g>
</svg>