<svg xmlns="http://www.w3.org/2000/svg" width="900" height="290" style="font-family: -apple-system, BlinkMacSystemFont, 'Segoe UI', Helvetica, Arial, sans-serif;">
  <rect width="100%" height="100%" fill="white"/>
  <g>
    <line x1="40" y1="220.00" x2="860" y2="220.00" stroke="#e5e7eb"/><text x="32" y="224.00" font-size="10" fill="#111827" text-anchor="end">0</text><line x1="40" y1="175.00" x2="860" y2="175.00" stroke="#e5e7eb"/><text x="32" y="179.00" font-size="10" fill="#111827" text-anchor="end">25k</text><line x1="40" y1="130.00" x2="860" y2="130.00" stroke="#e5e7eb"/><text x="32" y="134.00" font-size="10" fill="#111827" text-anchor="end">50k</text><line x1="40" y1="85.00" x2="860" y2="85.00" stroke="#e5e7eb"/><text x="32" y="89.00" font-size="10" fill="#111827" text-anchor="end">75k</text><line x1="40" y1="40.00" x2="860" y2="40.00" stroke="#e5e7eb"/><text x="32" y="44.00" font-size="10" fill="#111827" text-anchor="end">100k</text>
    <line x1="40.00" y1="40" x2="40.00" y2="220" stroke="#e5e7eb" opacity="0.5"/><line x1="120.31" y1="40" x2="120.31" y2="220" stroke="#e5e7eb" opacity="0.5"/><line x1="200.62" y1="40" x2="200.62" y2="220" stroke="#e5e7eb" opacity="0.5"/><line x1="280.93" y1="40" x2="280.93" y2="220" stroke="#e5e7eb" opacity="0.5"/><line x1="361.24" y1="40" x2="361.24" y2="220" stroke="#e5e7eb" opacity="0.5"/><line x1="441.55" y1="40" x2="441.55" y2="220" stroke="#e5e7eb" opacity="0.5"/><line x1="521.86" y1="40" x2="521.86" y2="220" stroke="#e5e7eb" opacity="0.5"/><line x1="602.16" y1="40" x2="602.16" y2="220" stroke="#e5e7eb" opacity="0.5"/><line x1="682.47" y1="40" x2="682.47" y2="220" stroke="#e5e7eb" opacity="0.5"/><line x1="762.78" y1="40" x2="762.78" y2="220" stroke="#e5e7eb" opacity="0.5"/><line x1="843.09" y1="40" x2="843.09" y2="220" stroke="#e5e7eb" opacity="0.5"/>
    <line x1="40" y1="220" x2="860" y2="220" stroke="#9ca3af"/>
    <line x1="40" y1="40"   x2="40"   y2="220" stroke="#9ca3af"/>
    <path d="M 40.00 220.00 L 42.11 220.00 L 44.23 219.60 L 46.34 219.62 L 48.45 219.63 L 50.57 219.32 L 52.68 219.31 L 54.79 219.26 L 56.91 218.89 L 59.02 218.89 L 61.13 218.89 L 63.25 218.87 L 65.36 218.87 L 67.47 218.86 L 69.59 218.85 L 71.70 218.85 L 73.81 218.82 L 75.93 218.78 L 78.04 218.72 L 80.15 218.68 L 82.27 218.64 L 84.38 218.59 L 86.49 218.59 L 88.61 218.57 L 90.72 218.57 L 92.84 218.57 L 94.95 218.57 L 97.06 218.57 L 99.18 218.57 L 101.29 218.57 L 103.40 218.57 L 105.52 218.57 L 107.63 218.55 L 109.74 218.54 L 111.86 218.58 L 113.97 218.55 L 116.08 218.55 L 118.20 218.53 L 120.31 218.31 L 122.42 217.94 L 124.54 217.88 L 126.65 217.87 L 128.76 217.86 L 130.88 217.85 L 132.99 217.84 L 135.10 217.85 L 137.22 217.82 L 139.33 217.66 L 141.44 217.61 L 143.56 217.60 L 145.67 217.57 L 147.78 217.56 L 149.90 217.52 L 152.01 217.38 L 154.12 217.24 L 156.24 216.93 L 158.35 216.65 L 160.46 216.44 L 162.58 216.39 L 164.69 216.34 L 166.80 216.83 L 168.92 200.94 L 171.03 200.94 L 173.14 200.95 L 175.26 198.99 L 177.37 198.98 L 179.48 198.94 L 181.60 198.94 L 183.71 198.91 L 185.82 198.90 L 187.94 198.93 L 190.05 198.93 L 192.16 198.99 L 194.28 198.95 L 196.39 198.96 L 198.51 198.95 L 200.62 198.95 L 202.73 198.97 L 204.85 198.97 L 206.96 198.97 L 209.07 198.97 L 211.19 198.97 L 213.30 198.97 L 215.41 198.97 L 217.53 198.97 L 219.64 198.97 L 221.75 198.97 L 223.87 198.97 L 225.98 197.51 L 228.09 197.43 L 230.21 197.40 L 232.32 197.38 L 234.43 197.38 L 236.55 197.49 L 238.66 197.34 L 240.77 197.33 L 242.89 197.18 L 245.00 197.41 L 247.11 197.41 L 249.23 197.29 L 251.34 197.29 L 253.45 197.22 L 255.57 197.21 L 257.68 197.15 L 259.79 196.94 L 261.91 197.00 L 264.02 197.41 L 266.13 197.41 L 268.25 197.30 L 270.36 197.26 L 272.47 197.19 L 274.59 197.19 L 276.70 197.19 L 278.81 197.19 L 280.93 197.18 L 283.04 197.12 L 285.15 197.09 L 287.27 197.04 L 289.38 197.00 L 291.49 196.96 L 293.61 196.92 L 295.72 196.91 L 297.84 196.86 L 299.95 196.80 L 302.06 196.75 L 304.18 196.69 L 306.29 196.66 L 308.40 196.63 L 310.52 196.56 L 312.63 196.51 L 314.74 196.47 L 316.86 196.45 L 318.97 196.40 L 321.08 196.37 L 323.20 196.34 L 325.31 196.28 L 327.42 196.20 L 329.54 196.12 L 331.65 196.02 L 333.76 195.89 L 335.88 195.77 L 337.99 195.68 L 340.10 195.63 L 342.22 195.58 L 344.33 195.53 L 346.44 195.44 L 348.56 195.35 L 350.67 195.22 L 352.78 195.11 L 354.90 194.95 L 357.01 194.82 L 359.12 194.68 L 361.24 194.57 L 363.35 194.55 L 365.46 194.51 L 367.58 194.48 L 369.69 194.44 L 371.80 194.40 L 373.92 194.37 L 376.03 194.34 L 378.14 194.29 L 380.26 194.25 L 382.37 194.23 L 384.48 194.21 L 386.60 194.19 L 388.71 194.16 L 390.82 194.12 L 392.94 194.07 L 395.05 193.99 L 397.16 193.94 L 399.28 193.87 L 401.39 193.80 L 403.51 193.74 L 405.62 193.72 L 407.73 193.70 L 409.85 193.66 L 411.96 193.62 L 414.07 193.56 L 416.19 193.49 L 418.30 193.43 L 420.41 193.35 L 422.53 193.27 L 424.64 193.20 L 426.75 193.14 L 428.87 193.15 L 430.98 193.15 L 433.09 193.15 L 435.21 193.18 L 437.32 193.09 L 439.43 193.07 L 441.55 193.07 L 443.66 193.08 L 445.77 193.00 L 447.89 192.95 L 450.00 192.95 L 452.11 192.95 L 454.23 192.95 L 456.34 192.80 L 458.45 192.73 L 460.57 192.69 L 462.68 192.67 L 464.79 192.67 L 466.91 192.68 L 469.02 192.64 L 471.13 192.63 L 473.25 192.63 L 475.36 190.39 L 477.47 189.96 L 479.59 189.85 L 481.70 189.53 L 483.81 189.52 L 485.93 189.36 L 488.04 187.79 L 490.15 187.36 L 492.27 181.35 L 494.38 181.35 L 496.49 180.72 L 498.61 180.71 L 500.72 180.26 L 502.84 179.68 L 504.95 179.67 L 507.06 178.77 L 509.18 177.57 L 511.29 175.55 L 513.40 174.52 L 515.52 173.86 L 517.63 174.17 L 519.74 173.10 L 521.86 173.10 L 523.97 171.18 L 526.08 168.37 L 528.20 168.37 L 530.31 165.86 L 532.42 163.63 L 534.54 163.63 L 536.65 163.62 L 538.76 162.88 L 540.88 161.06 L 542.99 193.89 L 545.10 193.22 L 547.22 192.73 L 549.33 192.34 L 551.44 189.45 L 553.56 188.03 L 555.67 188.03 L 557.78 180.86 L 559.90 148.96 L 562.01 144.25 L 564.12 176.00 L 566.24 176.17 L 568.35 175.77 L 570.46 175.72 L 572.58 197.26 L 574.69 197.26 L 576.80 197.06 L 578.92 196.44 L 581.03 194.49 L 583.14 194.50 L 585.26 194.49 L 587.37 194.49 L 589.48 194.49 L 591.60 194.48 L 593.71 194.48 L 595.82 194.62 L 597.94 206.08 L 600.05 206.08 L 602.16 206.05 L 604.28 206.04 L 606.39 205.22 L 608.51 204.28 L 610.62 204.28 L 612.73 204.28 L 614.85 200.22 L 616.96 204.28 L 619.07 204.28 L 621.19 204.28 L 623.30 198.60 L 625.41 198.60 L 627.53 198.60 L 629.64 198.60 L 631.75 193.00 L 633.87 193.00 L 635.98 188.39 L 638.09 188.39 L 640.21 179.75 L 642.32 174.84 L 644.43 173.23 L 646.55 170.37 L 648.66 169.87 L 650.77 153.88 L 652.89 149.24 L 655.00 152.04 L 657.11 141.93 L 659.23 141.88 L 661.34 141.69 L 663.45 141.69 L 665.57 141.76 L 667.68 141.75 L 669.79 140.68 L 671.91 141.38 L 674.02 141.36 L 676.13 141.83 L 678.25 141.39 L 680.36 141.39 L 682.47 141.52 L 684.59 141.52 L 686.70 141.53 L 688.81 142.33 L 690.93 141.73 L 693.04 141.68 L 695.15 141.68 L 697.27 141.66 L 699.38 141.67 L 701.49 141.65 L 703.61 139.51 L 705.72 136.07 L 707.84 136.04 L 709.95 133.43 L 712.06 131.89 L 714.18 131.13 L 716.29 131.51 L 718.40 131.50 L 720.52 131.57 L 722.63 131.56 L 724.74 131.49 L 726.86 131.49 L 728.97 131.49 L 731.08 131.49 L 733.20 131.49 L 735.31 131.49 L 737.42 131.49 L 739.54 131.49 L 741.65 131.49 L 743.76 131.49 L 745.88 131.49 L 747.99 131.49 L 750.10 131.49 L 752.22 131.49 L 754.33 131.49 L 756.44 131.49 L 758.56 131.49 L 760.67 131.49 L 762.78 131.49 L 764.90 131.49 L 767.01 131.49 L 769.12 131.49 L 771.24 131.49 L 773.35 131.49 L 775.46 131.49 L 777.58 131.49 L 779.69 131.49 L 781.80 131.49 L 783.92 131.49 L 786.03 131.49 L 788.14 131.49 L 790.26 131.49 L 792.37 131.49 L 794.48 131.49 L 796.60 131.49 L 798.71 131.49 L 800.82 131.49 L 802.94 131.49 L 805.05 131.49 L 807.16 131.49 L 809.28 131.49 L 811.39 131.49 L 813.51 131.49 L 815.62 131.49 L 817.73 131.49 L 819.85 131.49 L 821.96 131.49 L 824.07 131.49 L 826.19 131.49 L 828.30 131.49 L 830.41 131.49 L 832.53 131.49 L 834.64 131.49 L 836.75 131.49 L 838.87 131.49 L 840.98 131.49 L 843.09 131.49 L 845.21 131.49 L 847.32 131.49 L 849.43 131.49 L 851.55 131.49 L 853.66 131.49 L 855.77 131.49 L 857.89 131.49 L 860.00 131.49" fill="none" stroke="#111827" stroke-width="2"/>
    <circle cx="860.00" cy="131.49" r="3" fill="#111827"/>
    <text x="40.00" y="235.00" font-size="9" fill="#111827" text-anchor="middle" transform="rotate(-45 40.00 235.00)">27.09.2025</text><text x="120.31" y="235.00" font-size="9" fill="#111827" text-anchor="middle" transform="rotate(-45 120.31 235.00)">28.09.2025</text><text x="200.62" y="235.00" font-size="9" fill="#111827" text-anchor="middle" transform="rotate(-45 200.62 235.00)">29.09.2025</text><text x="280.93" y="235.00" font-size="9" fill="#111827" text-anchor="middle" transform="rotate(-45 280.93 235.00)">04.10.2025</text><text x="361.24" y="235.00" font-size="9" fill="#111827" text-anchor="middle" transform="rotate(-45 361.24 235.00)">04.10.2025</text><text x="441.55" y="235.00" font-size="9" fill="#111827" text-anchor="middle" transform="rotate(-45 441.55 235.00)">04.10.2025</text><text x="521.86" y="235.00" font-size="9" fill="#111827" text-anchor="middle" transform="rotate(-45 521.86 235.00)">04.10.2025</text><text x="602.16" y="235.00" font-size="9" fill="#111827" text-anchor="middle" transform="rotate(-45 602.16 235.00)">05.10.2025</text><text x="682.47" y="235.00" font-size="9" fill="#111827" text-anchor="middle" transform="rotate(-45 682.47 235.00)">09.10.2025</text><text x="762.78" y="235.00" font-size="9" fill="#111827" text-anchor="middle" transform="rotate(-45 762.78 235.00)">27.10.2025</text><text x="843.09" y="235.00" font-size="9" fill="#111827" text-anchor="middle" transform="rotate(-45 843.09 235.00)">04.12.2025</text>
  </g>
</svg>