<svg xmlns="http://www.w3.org/2000/svg" width="900" height="290" style="font-family: -apple-system, BlinkMacSystemFont, 'Segoe UI', Helvetica, Arial, sans-serif;">
  <rect width="100%" height="100%" fill="white"/>
  <g>
    <line x1="40" y1="220.00" x2="860" y2="220.00" stroke="#e5e7eb"/><text x="32" y="224.00" font-size="10" fill="#111827" text-anchor="end">0</text><line x1="40" y1="175.00" x2="860" y2="175.00" stroke="#e5e7eb"/><text x="32" y="179.00" font-size="10" fill="#111827" text-anchor="end">25k</text><line x1="40" y1="130.00" x2="860" y2="130.00" stroke="#e5e7eb"/><text x="32" y="134.00" font-size="10" fill="#111827" text-anchor="end">50k</text><line x1="40" y1="85.00" x2="860" y2="85.00" stroke="#e5e7eb"/><text x="32" y="89.00" font-size="10" fill="#111827" text-anchor="end">75k</text><line x1="40" y1="40.00" x2="860" y2="40.00" stroke="#e5e7eb"/><text x="32" y="44.00" font-size="10" fill="#111827" text-anchor="end">100k</text>
    <line x1="40.00" y1="40" x2="40.00" y2="220" stroke="#e5e7eb" opacity="0.5"/><line x1="122.00" y1="40" x2="122.00" y2="220" stroke="#e5e7eb" opacity="0.5"/><line x1="204.00" y1="40" x2="204.00" y2="220" stroke="#e5e7eb" opacity="0.5"/><line x1="286.00" y1="40" x2="286.00" y2="220" stroke="#e5e7eb" opacity="0.5"/><line x1="368.00" y1="40" x2="368.00" y2="220" stroke="#e5e7eb" opacity="0.5"/><line x1="450.00" y1="40" x2="450.00" y2="220" stroke="#e5e7eb" opacity="0.5"/><line x1="532.00" y1="40" x2="532.00" y2="220" stroke="#e5e7eb" opacity="0.5"/><line x1="614.00" y1="40" x2="614.00" y2="220" stroke="#e5e7eb" opacity="0.5"/><line x1="696.00" y1="40" x2="696.00" y2="220" stroke="#e5e7eb" opacity="0.5"/><line x1="778.00" y1="40" x2="778.00" y2="220" stroke="#e5e7eb" opacity="0.5"/><line x1="860.00" y1="40" x2="860.00" y2="220" stroke="#e5e7eb" opacity="0.5"/>
    <line x1="40" y1="220" x2="860" y2="220" stroke="#9ca3af"/>
    <line x1="40" y1="40"   x2="40"   y2="220" stroke="#9ca3af"/>
    <path d="M 40.00 220.00 L 41.95 220.00 L 43.90 219.60 L 45.86 219.62 L 47.81 219.63 L 49.76 219.32 L 51.71 219.31 L 53.67 219.26 L 55.62 218.89 L 57.57 218.89 L 59.52 218.89 L 61.48 218.87 L 63.43 218.87 L 65.38 218.86 L 67.33 218.85 L 69.29 218.85 L 71.24 218.82 L 73.19 218.78 L 75.14 218.72 L 77.10 218.68 L 79.05 218.64 L 81.00 218.59 L 82.95 218.59 L 84.90 218.57 L 86.86 218.57 L 88.81 218.57 L 90.76 218.57 L 92.71 218.57 L 94.67 218.57 L 96.62 218.57 L 98.57 218.57 L 100.52 218.57 L 102.48 218.55 L 104.43 218.54 L 106.38 218.58 L 108.33 218.55 L 110.29 218.55 L 112.24 218.53 L 114.19 218.31 L 116.14 217.94 L 118.10 217.88 L 120.05 217.87 L 122.00 217.86 L 123.95 217.85 L 125.90 217.84 L 127.86 217.85 L 129.81 217.82 L 131.76 217.66 L 133.71 217.61 L 135.67 217.60 L 137.62 217.57 L 139.57 217.56 L 141.52 217.52 L 143.48 217.38 L 145.43 217.24 L 147.38 216.93 L 149.33 216.65 L 151.29 216.44 L 153.24 216.39 L 155.19 216.34 L 157.14 216.83 L 159.10 200.94 L 161.05 200.94 L 163.00 200.95 L 164.95 198.99 L 166.90 198.98 L 168.86 198.94 L 170.81 198.94 L 172.76 198.91 L 174.71 198.90 L 176.67 198.93 L 178.62 198.93 L 180.57 198.99 L 182.52 198.95 L 184.48 198.96 L 186.43 198.95 L 188.38 198.95 L 190.33 198.97 L 192.29 198.97 L 194.24 198.97 L 196.19 198.97 L 198.14 198.97 L 200.10 198.97 L 202.05 198.97 L 204.00 198.97 L 205.95 198.97 L 207.90 198.97 L 209.86 198.97 L 211.81 197.51 L 213.76 197.43 L 215.71 197.40 L 217.67 197.38 L 219.62 197.38 L 221.57 197.49 L 223.52 197.34 L 225.48 197.33 L 227.43 197.18 L 229.38 197.41 L 231.33 197.41 L 233.29 197.29 L 235.24 197.29 L 237.19 197.22 L 239.14 197.21 L 241.10 197.15 L 243.05 196.94 L 245.00 197.00 L 246.95 197.41 L 248.90 197.41 L 250.86 197.30 L 252.81 197.26 L 254.76 197.19 L 256.71 197.19 L 258.67 197.19 L 260.62 197.19 L 262.57 197.18 L 264.52 197.12 L 266.48 197.09 L 268.43 197.04 L 270.38 197.00 L 272.33 196.96 L 274.29 196.92 L 276.24 196.91 L 278.19 196.86 L 280.14 196.80 L 282.10 196.75 L 284.05 196.69 L 286.00 196.66 L 287.95 196.63 L 289.90 196.56 L 291.86 196.51 L 293.81 196.47 L 295.76 196.45 L 297.71 196.40 L 299.67 196.37 L 301.62 196.34 L 303.57 196.28 L 305.52 196.20 L 307.48 196.12 L 309.43 196.02 L 311.38 195.89 L 313.33 195.77 L 315.29 195.68 L 317.24 195.63 L 319.19 195.58 L 321.14 195.53 L 323.10 195.44 L 325.05 195.35 L 327.00 195.22 L 328.95 195.11 L 330.90 194.95 L 332.86 194.82 L 334.81 194.68 L 336.76 194.57 L 338.71 194.55 L 340.67 194.51 L 342.62 194.48 L 344.57 194.44 L 346.52 194.40 L 348.48 194.37 L 350.43 194.34 L 352.38 194.29 L 354.33 194.25 L 356.29 194.23 L 358.24 194.21 L 360.19 194.19 L 362.14 194.16 L 364.10 194.12 L 366.05 194.07 L 368.00 193.99 L 369.95 193.94 L 371.90 193.87 L 373.86 193.80 L 375.81 193.74 L 377.76 193.72 L 379.71 193.70 L 381.67 193.66 L 383.62 193.62 L 385.57 193.56 L 387.52 193.49 L 389.48 193.43 L 391.43 193.35 L 393.38 193.27 L 395.33 193.20 L 397.29 193.14 L 399.24 193.15 L 401.19 193.15 L 403.14 193.15 L 405.10 193.18 L 407.05 193.09 L 409.00 193.07 L 410.95 193.07 L 412.90 193.08 L 414.86 193.00 L 416.81 192.95 L 418.76 192.95 L 420.71 192.95 L 422.67 192.95 L 424.62 192.80 L 426.57 192.73 L 428.52 192.69 L 430.48 192.67 L 432.43 192.67 L 434.38 192.68 L 436.33 192.64 L 438.29 192.63 L 440.24 192.63 L 442.19 190.39 L 444.14 189.96 L 446.10 189.85 L 448.05 189.53 L 450.00 189.52 L 451.95 189.36 L 453.90 187.79 L 455.86 187.36 L 457.81 181.35 L 459.76 181.35 L 461.71 180.72 L 463.67 180.71 L 465.62 180.26 L 467.57 179.68 L 469.52 179.67 L 471.48 178.77 L 473.43 177.57 L 475.38 175.55 L 477.33 174.52 L 479.29 173.86 L 481.24 174.17 L 483.19 173.10 L 485.14 173.10 L 487.10 171.18 L 489.05 168.37 L 491.00 168.37 L 492.95 165.86 L 494.90 163.63 L 496.86 163.63 L 498.81 163.62 L 500.76 162.88 L 502.71 161.06 L 504.67 193.89 L 506.62 193.22 L 508.57 192.73 L 510.52 192.34 L 512.48 189.45 L 514.43 188.03 L 516.38 188.03 L 518.33 180.86 L 520.29 148.96 L 522.24 144.25 L 524.19 176.00 L 526.14 176.17 L 528.10 175.77 L 530.05 175.72 L 532.00 197.26 L 533.95 197.26 L 535.90 197.06 L 537.86 196.44 L 539.81 194.49 L 541.76 194.50 L 543.71 194.49 L 545.67 194.49 L 547.62 194.49 L 549.57 194.48 L 551.52 194.48 L 553.48 194.62 L 555.43 206.08 L 557.38 206.08 L 559.33 206.05 L 561.29 206.04 L 563.24 205.22 L 565.19 204.28 L 567.14 204.28 L 569.10 204.28 L 571.05 200.22 L 573.00 204.28 L 574.95 204.28 L 576.90 204.28 L 578.86 198.60 L 580.81 198.60 L 582.76 198.60 L 584.71 198.60 L 586.67 193.00 L 588.62 193.00 L 590.57 188.39 L 592.52 188.39 L 594.48 179.75 L 596.43 174.84 L 598.38 173.23 L 600.33 170.37 L 602.29 169.87 L 604.24 153.88 L 606.19 149.24 L 608.14 152.04 L 610.10 141.93 L 612.05 141.88 L 614.00 141.69 L 615.95 141.69 L 617.90 141.76 L 619.86 141.75 L 621.81 140.68 L 623.76 141.38 L 625.71 141.36 L 627.67 141.83 L 629.62 141.39 L 631.57 141.39 L 633.52 141.52 L 635.48 141.52 L 637.43 141.53 L 639.38 142.33 L 641.33 141.73 L 643.29 141.68 L 645.24 141.68 L 647.19 141.66 L 649.14 141.67 L 651.10 141.65 L 653.05 139.51 L 655.00 136.07 L 656.95 136.04 L 658.90 133.43 L 660.86 131.89 L 662.81 131.13 L 664.76 131.51 L 666.71 131.50 L 668.67 131.57 L 670.62 131.56 L 672.57 131.49 L 674.52 131.49 L 676.48 131.49 L 678.43 131.49 L 680.38 131.49 L 682.33 131.49 L 684.29 131.49 L 686.24 131.49 L 688.19 131.49 L 690.14 131.49 L 692.10 131.49 L 694.05 131.49 L 696.00 131.49 L 697.95 131.49 L 699.90 131.49 L 701.86 131.49 L 703.81 131.49 L 705.76 131.49 L 707.71 131.49 L 709.67 131.49 L 711.62 131.49 L 713.57 131.49 L 715.52 131.49 L 717.48 131.49 L 719.43 131.49 L 721.38 131.49 L 723.33 131.49 L 725.29 131.49 L 727.24 131.49 L 729.19 131.49 L 731.14 131.49 L 733.10 131.49 L 735.05 131.49 L 737.00 131.49 L 738.95 131.49 L 740.90 131.49 L 742.86 131.49 L 744.81 131.49 L 746.76 131.49 L 748.71 131.49 L 750.67 131.49 L 752.62 131.49 L 754.57 131.49 L 756.52 131.49 L 758.48 131.49 L 760.43 131.49 L 762.38 131.49 L 764.33 131.49 L 766.29 131.49 L 768.24 131.49 L 770.19 131.49 L 772.14 131.49 L 774.10 131.49 L 776.05 131.49 L 778.00 131.49 L 779.95 131.49 L 781.90 131.49 L 783.86 131.49 L 785.81 131.49 L 787.76 131.49 L 789.71 131.49 L 791.67 131.49 L 793.62 131.49 L 795.57 131.49 L 797.52 131.49 L 799.48 131.49 L 801.43 131.49 L 803.38 131.49 L 805.33 131.49 L 807.29 131.49 L 809.24 131.49 L 811.19 131.49 L 813.14 131.49 L 815.10 131.49 L 817.05 131.49 L 819.00 131.49 L 820.95 131.49 L 822.90 131.49 L 824.86 131.49 L 826.81 131.49 L 828.76 131.49 L 830.71 131.49 L 832.67 131.49 L 834.62 131.49 L 836.57 131.49 L 838.52 131.49 L 840.48 131.49 L 842.43 131.49 L 844.38 131.49 L 846.33 131.49 L 848.29 131.49 L 850.24 131.49 L 852.19 131.49 L 854.14 131.49 L 856.10 131.49 L 858.05 131.49 L 860.00 131.49" fill="none" stroke="#111827" stroke-width="2"/>
    <circle cx="860.00" cy="131.49" r="3" fill="#111827"/>
    <text x="40.00" y="235.00" font-size="9" fill="#111827" text-anchor="middle" transform="rotate(-45 40.00 235.00)">27.09.2025</text><text x="122.00" y="235.00" font-size="9" fill="#111827" text-anchor="middle" transform="rotate(-45 122.00 235.00)">28.09.2025</text><text x="204.00" y="235.00" font-size="9" fill="#111827" text-anchor="middle" transform="rotate(-45 204.00 235.00)">29.09.2025</text><text x="286.00" y="235.00" font-size="9" fill="#111827" text-anchor="middle" transform="rotate(-45 286.00 235.00)">04.10.2025</text><text x="368.00" y="235.00" font-size="9" fill="#111827" text-anchor="middle" transform="rotate(-45 368.00 235.00)">04.10.2025</text><text x="450.00" y="235.00" font-size="9" fill="#111827" text-anchor="middle" transform="rotate(-45 450.00 235.00)">04.10.2025</text><text x="532.00" y="235.00" font-size="9" fill="#111827" text-anchor="middle" transform="rotate(-45 532.00 235.00)">05.10.2025</text><text x="614.00" y="235.00" font-size="9" fill="#111827" text-anchor="middle" transform="rotate(-45 614.00 235.00)">08.10.2025</text><text x="696.00" y="235.00" font-size="9" fill="#111827" text-anchor="middle" transform="rotate(-45 696.00 235.00)">21.10.2025</text><text x="778.00" y="235.00" font-size="9" fill="#111827" text-anchor="middle" transform="rotate(-45 778.00 235.00)">02.12.2025</text><text x="860.00" y="235.00" font-size="9" fill="#111827" text-anchor="middle" transform="rotate(-45 860.00 235.00)">13.01.2026</text>
  </g>
</svg>