<svg xmlns="http://www.w3.org/2000/svg" width="900" height="290" style="font-family: -apple-system, BlinkMacSystemFont, 'Segoe UI', Helvetica, Arial, sans-serif;">
  <rect width="100%" height="100%" fill="white"/>
  <g>
    <line x1="40" y1="220.00" x2="860" y2="220.00" stroke="#e5e7eb"/><text x="32" y="224.00" font-size="10" fill="#111827" text-anchor="end">0</text><line x1="40" y1="175.00" x2="860" y2="175.00" stroke="#e5e7eb"/><text x="32" y="179.00" font-size="10" fill="#111827" text-anchor="end">25k</text><line x1="40" y1="130.00" x2="860" y2="130.00" stroke="#e5e7eb"/><text x="32" y="134.00" font-size="10" fill="#111827" text-anchor="end">50k</text><line x1="40" y1="85.00" x2="860" y2="85.00" stroke="#e5e7eb"/><text x="32" y="89.00" font-size="10" fill="#111827" text-anchor="end">75k</text><line x1="40" y1="40.00" x2="860" y2="40.00" stroke="#e5e7eb"/><text x="32" y="44.00" font-size="10" fill="#111827" text-anchor="end">100k</text>
    <line x1="40.00" y1="40" x2="40.00" y2="220" stroke="#e5e7eb" opacity="0.5"/><line x1="120.35" y1="40" x2="120.35" y2="220" stroke="#e5e7eb" opacity="0.5"/><line x1="200.69" y1="40" x2="200.69" y2="220" stroke="#e5e7eb" opacity="0.5"/><line x1="281.04" y1="40" x2="281.04" y2="220" stroke="#e5e7eb" opacity="0.5"/><line x1="361.38" y1="40" x2="361.38" y2="220" stroke="#e5e7eb" opacity="0.5"/><line x1="441.73" y1="40" x2="441.73" y2="220" stroke="#e5e7eb" opacity="0.5"/><line x1="522.07" y1="40" x2="522.07" y2="220" stroke="#e5e7eb" opacity="0.5"/><line x1="602.42" y1="40" x2="602.42" y2="220" stroke="#e5e7eb" opacity="0.5"/><line x1="682.77" y1="40" x2="682.77" y2="220" stroke="#e5e7eb" opacity="0.5"/><line x1="763.11" y1="40" x2="763.11" y2="220" stroke="#e5e7eb" opacity="0.5"/><line x1="843.46" y1="40" x2="843.46" y2="220" stroke="#e5e7eb" opacity="0.5"/>
    <line x1="40" y1="220" x2="860" y2="220" stroke="#9ca3af"/>
    <line x1="40" y1="40"   x2="40"   y2="220" stroke="#9ca3af"/>
    <path d="M 40.00 220.00 L 42.36 220.00 L 44.73 219.60 L 47.09 219.62 L 49.45 219.63 L 51.82 219.32 L 54.18 219.31 L 56.54 219.26 L 58.90 218.89 L 61.27 218.89 L 63.63 218.89 L 65.99 218.87 L 68.36 218.87 L 70.72 218.86 L 73.08 218.85 L 75.45 218.85 L 77.81 218.82 L 80.17 218.78 L 82.54 218.72 L 84.90 218.68 L 87.26 218.64 L 89.63 218.59 L 91.99 218.59 L 94.35 218.57 L 96.71 218.57 L 99.08 218.57 L 101.44 218.57 L 103.80 218.57 L 106.17 218.57 L 108.53 218.57 L 110.89 218.57 L 113.26 218.57 L 115.62 218.55 L 117.98 218.54 L 120.35 218.58 L 122.71 218.55 L 125.07 218.55 L 127.44 218.53 L 129.80 218.31 L 132.16 217.94 L 134.52 217.88 L 136.89 217.87 L 139.25 217.86 L 141.61 217.85 L 143.98 217.84 L 146.34 217.85 L 148.70 217.82 L 151.07 217.66 L 153.43 217.61 L 155.79 217.60 L 158.16 217.57 L 160.52 217.56 L 162.88 217.52 L 165.24 217.38 L 167.61 217.24 L 169.97 216.93 L 172.33 216.65 L 174.70 216.44 L 177.06 216.39 L 179.42 216.34 L 181.79 216.83 L 184.15 200.94 L 186.51 200.94 L 188.88 200.95 L 191.24 198.99 L 193.60 198.98 L 195.97 198.94 L 198.33 198.94 L 200.69 198.91 L 203.05 198.90 L 205.42 198.93 L 207.78 198.93 L 210.14 198.99 L 212.51 198.95 L 214.87 198.96 L 217.23 198.95 L 219.60 198.95 L 221.96 198.97 L 224.32 198.97 L 226.69 198.97 L 229.05 198.97 L 231.41 198.97 L 233.78 198.97 L 236.14 198.97 L 238.50 198.97 L 240.86 198.97 L 243.23 198.97 L 245.59 198.97 L 247.95 197.51 L 250.32 197.43 L 252.68 197.40 L 255.04 197.38 L 257.41 197.38 L 259.77 197.49 L 262.13 197.34 L 264.50 197.33 L 266.86 197.18 L 269.22 197.41 L 271.59 197.41 L 273.95 197.29 L 276.31 197.29 L 278.67 197.22 L 281.04 197.21 L 283.40 197.15 L 285.76 196.94 L 288.13 197.00 L 290.49 197.41 L 292.85 197.41 L 295.22 197.30 L 297.58 197.26 L 299.94 197.19 L 302.31 197.19 L 304.67 197.19 L 307.03 197.19 L 309.39 197.18 L 311.76 197.12 L 314.12 197.09 L 316.48 197.04 L 318.85 197.00 L 321.21 196.96 L 323.57 196.92 L 325.94 196.91 L 328.30 196.86 L 330.66 196.80 L 333.03 196.75 L 335.39 196.69 L 337.75 196.66 L 340.12 196.63 L 342.48 196.56 L 344.84 196.51 L 347.20 196.47 L 349.57 196.45 L 351.93 196.40 L 354.29 196.37 L 356.66 196.34 L 359.02 196.28 L 361.38 196.20 L 363.75 196.12 L 366.11 196.02 L 368.47 195.89 L 370.84 195.77 L 373.20 195.68 L 375.56 195.63 L 377.93 195.58 L 380.29 195.53 L 382.65 195.44 L 385.01 195.35 L 387.38 195.22 L 389.74 195.11 L 392.10 194.95 L 394.47 194.82 L 396.83 194.68 L 399.19 194.57 L 401.56 194.55 L 403.92 194.51 L 406.28 194.48 L 408.65 194.44 L 411.01 194.40 L 413.37 194.37 L 415.73 194.34 L 418.10 194.29 L 420.46 194.25 L 422.82 194.23 L 425.19 194.21 L 427.55 194.19 L 429.91 194.16 L 432.28 194.12 L 434.64 194.07 L 437.00 193.99 L 439.37 193.94 L 441.73 193.87 L 444.09 193.80 L 446.46 193.74 L 448.82 193.72 L 451.18 193.70 L 453.54 193.66 L 455.91 193.62 L 458.27 193.56 L 460.63 193.49 L 463.00 193.43 L 465.36 193.35 L 467.72 193.27 L 470.09 193.20 L 472.45 193.14 L 474.81 193.15 L 477.18 193.15 L 479.54 193.15 L 481.90 193.18 L 484.27 193.09 L 486.63 193.07 L 488.99 193.07 L 491.35 193.08 L 493.72 193.00 L 496.08 192.95 L 498.44 192.95 L 500.81 192.95 L 503.17 192.95 L 505.53 192.80 L 507.90 192.73 L 510.26 192.69 L 512.62 192.67 L 514.99 192.67 L 517.35 192.68 L 519.71 192.64 L 522.07 192.63 L 524.44 192.63 L 526.80 190.39 L 529.16 189.96 L 531.53 189.85 L 533.89 189.53 L 536.25 189.52 L 538.62 189.36 L 540.98 187.79 L 543.34 187.36 L 545.71 181.35 L 548.07 181.35 L 550.43 180.72 L 552.80 180.71 L 555.16 180.26 L 557.52 179.68 L 559.88 179.67 L 562.25 178.77 L 564.61 177.57 L 566.97 175.55 L 569.34 174.52 L 571.70 173.86 L 574.06 174.17 L 576.43 173.10 L 578.79 173.10 L 581.15 171.18 L 583.52 168.37 L 585.88 168.37 L 588.24 165.86 L 590.61 163.63 L 592.97 163.63 L 595.33 163.62 L 597.69 162.88 L 600.06 161.06 L 602.42 193.89 L 604.78 193.22 L 607.15 192.73 L 609.51 192.34 L 611.87 189.45 L 614.24 188.03 L 616.60 188.03 L 618.96 180.86 L 621.33 148.96 L 623.69 144.25 L 626.05 176.00 L 628.41 176.17 L 630.78 175.77 L 633.14 175.72 L 635.50 197.26 L 637.87 197.26 L 640.23 197.06 L 642.59 196.44 L 644.96 194.49 L 647.32 194.50 L 649.68 194.49 L 652.05 194.49 L 654.41 194.49 L 656.77 194.48 L 659.14 194.48 L 661.50 194.62 L 663.86 206.08 L 666.22 206.08 L 668.59 206.05 L 670.95 206.04 L 673.31 205.22 L 675.68 204.28 L 678.04 204.28 L 680.40 204.28 L 682.77 200.22 L 685.13 204.28 L 687.49 204.28 L 689.86 204.28 L 692.22 198.60 L 694.58 198.60 L 696.95 198.60 L 699.31 198.60 L 701.67 193.00 L 704.03 193.00 L 706.40 188.39 L 708.76 188.39 L 711.12 179.75 L 713.49 174.84 L 715.85 173.23 L 718.21 170.37 L 720.58 169.87 L 722.94 153.88 L 725.30 149.24 L 727.67 152.04 L 730.03 141.93 L 732.39 141.88 L 734.76 141.69 L 737.12 141.69 L 739.48 141.76 L 741.84 141.75 L 744.21 140.68 L 746.57 141.38 L 748.93 141.36 L 751.30 141.83 L 753.66 141.39 L 756.02 141.39 L 758.39 141.52 L 760.75 141.52 L 763.11 141.53 L 765.48 142.33 L 767.84 141.73 L 770.20 141.68 L 772.56 141.68 L 774.93 141.66 L 777.29 141.67 L 779.65 141.65 L 782.02 139.51 L 784.38 136.07 L 786.74 136.04 L 789.11 133.43 L 791.47 131.89 L 793.83 131.13 L 796.20 131.51 L 798.56 131.50 L 800.92 131.57 L 803.29 131.56 L 805.65 131.49 L 808.01 131.49 L 810.37 131.49 L 812.74 131.49 L 815.10 131.49 L 817.46 131.49 L 819.83 131.49 L 822.19 131.49 L 824.55 131.49 L 826.92 131.49 L 829.28 131.49 L 831.64 131.49 L 834.01 131.49 L 836.37 131.49 L 838.73 131.49 L 841.10 131.49 L 843.46 131.49 L 845.82 131.49 L 848.18 131.49 L 850.55 131.49 L 852.91 131.49 L 855.27 131.49 L 857.64 131.49 L 860.00 131.49" fill="none" stroke="#111827" stroke-width="2"/>
    <circle cx="860.00" cy="131.49" r="3" fill="#111827"/>
    <text x="40.00" y="235.00" font-size="9" fill="#111827" text-anchor="middle" transform="rotate(-45 40.00 235.00)">27.09.2025</text><text x="120.35" y="235.00" font-size="9" fill="#111827" text-anchor="middle" transform="rotate(-45 120.35 235.00)">28.09.2025</text><text x="200.69" y="235.00" font-size="9" fill="#111827" text-anchor="middle" transform="rotate(-45 200.69 235.00)">28.09.2025</text><text x="281.04" y="235.00" font-size="9" fill="#111827" text-anchor="middle" transform="rotate(-45 281.04 235.00)">30.09.2025</text><text x="361.38" y="235.00" font-size="9" fill="#111827" text-anchor="middle" transform="rotate(-45 361.38 235.00)">04.10.2025</text><text x="441.73" y="235.00" font-size="9" fill="#111827" text-anchor="middle" transform="rotate(-45 441.73 235.00)">04.10.2025</text><text x="522.07" y="235.00" font-size="9" fill="#111827" text-anchor="middle" transform="rotate(-45 522.07 235.00)">04.10.2025</text><text x="602.42" y="235.00" font-size="9" fill="#111827" text-anchor="middle" transform="rotate(-45 602.42 235.00)">04.10.2025</text><text x="682.77" y="235.00" font-size="9" fill="#111827" text-anchor="middle" transform="rotate(-45 682.77 235.00)">07.10.2025</text><text x="763.11" y="235.00" font-size="9" fill="#111827" text-anchor="middle" transform="rotate(-45 763.11 235.00)">09.10.2025</text><text x="843.46" y="235.00" font-size="9" fill="#111827" text-anchor="middle" transform="rotate(-45 843.46 235.00)">25.10.2025</text>
  </g>
</svg>