<svg xmlns="http://www.w3.org/2000/svg" width="900" height="290" style="font-family: -apple-system, BlinkMacSystemFont, 'Segoe UI', Helvetica, Arial, sans-serif;">
  <rect width="100%" height="100%" fill="#0d1117"/>
  <g>
    <line x1="40" y1="220.00" x2="860" y2="220.00" stroke="#30363d"/><text x="32" y="224.00" font-size="10" fill="#c9d1d9" text-anchor="end">0</text><line x1="40" y1="175.00" x2="860" y2="175.00" stroke="#30363d"/><text x="32" y="179.00" font-size="10" fill="#c9d1d9" text-anchor="end">25k</text><line x1="40" y1="130.00" x2="860" y2="130.00" stroke="#30363d"/><text x="32" y="134.00" font-size="10" fill="#c9d1d9" text-anchor="end">50k</text><line x1="40" y1="85.00" x2="860" y2="85.00" stroke="#30363d"/><text x="32" y="89.00" font-size="10" fill="#c9d1d9" text-anchor="end">75k</text><line x1="40" y1="40.00" x2="860" y2="40.00" stroke="#30363d"/><text x="32" y="44.00" font-size="10" fill="#c9d1d9" text-anchor="end">100k</text>
    <line x1="40.00" y1="40" x2="40.00" y2="220" stroke="#30363d" opacity="0.5"/><line x1="120.58" y1="40" x2="120.58" y2="220" stroke="#30363d" opacity="0.5"/><line x1="201.16" y1="40" x2="201.16" y2="220" stroke="#30363d" opacity="0.5"/><line x1="281.73" y1="40" x2="281.73" y2="220" stroke="#30363d" opacity="0.5"/><line x1="362.31" y1="40" x2="362.31" y2="220" stroke="#30363d" opacity="0.5"/><line x1="442.89" y1="40" x2="442.89" y2="220" stroke="#30363d" opacity="0.5"/><line x1="523.47" y1="40" x2="523.47" y2="220" stroke="#30363d" opacity="0.5"/><line x1="604.05" y1="40" x2="604.05" y2="220" stroke="#30363d" opacity="0.5"/><line x1="684.62" y1="40" x2="684.62" y2="220" stroke="#30363d" opacity="0.5"/><line x1="765.20" y1="40" x2="765.20" y2="220" stroke="#30363d" opacity="0.5"/><line x1="845.78" y1="40" x2="845.78" y2="220" stroke="#30363d" opacity="0.5"/>
    <line x1="40" y1="220" x2="860" y2="220" stroke="#30363d"/>
    <line x1="40" y1="40"   x2="40"   y2="220" stroke="#30363d"/>
    <path d="M 40.00 220.00 L 42.37 220.00 L 44.74 219.60 L 47.11 219.62 L 49.48 219.63 L 51.85 219.32 L 54.22 219.31 L 56.59 219.26 L 58.96 218.89 L 61.33 218.89 L 63.70 218.89 L 66.07 218.87 L 68.44 218.87 L 70.81 218.86 L 73.18 218.85 L 75.55 218.85 L 77.92 218.82 L 80.29 218.78 L 82.66 218.72 L 85.03 218.68 L 87.40 218.64 L 89.77 218.59 L 92.14 218.59 L 94.51 218.57 L 96.88 218.57 L 99.25 218.57 L 101.62 218.57 L 103.99 218.57 L 106.36 218.57 L 108.73 218.57 L 111.10 218.57 L 113.47 218.57 L 115.84 218.55 L 118.21 218.54 L 120.58 218.58 L 122.95 218.55 L 125.32 218.55 L 127.69 218.53 L 130.06 218.31 L 132.43 217.94 L 134.80 217.88 L 137.17 217.87 L 139.54 217.86 L 141.91 217.85 L 144.28 217.84 L 146.65 217.85 L 149.02 217.82 L 151.39 217.66 L 153.76 217.61 L 156.13 217.60 L 158.50 217.57 L 160.87 217.56 L 163.24 217.52 L 165.61 217.38 L 167.98 217.24 L 170.35 216.93 L 172.72 216.65 L 175.09 216.44 L 177.46 216.39 L 179.83 216.34 L 182.20 216.83 L 184.57 200.94 L 186.94 200.94 L 189.31 200.95 L 191.68 198.99 L 194.05 198.98 L 196.42 198.94 L 198.79 198.94 L 201.16 198.91 L 203.53 198.90 L 205.90 198.93 L 208.27 198.93 L 210.64 198.99 L 213.01 198.95 L 215.38 198.96 L 217.75 198.95 L 220.12 198.95 L 222.49 198.97 L 224.86 198.97 L 227.23 198.97 L 229.60 198.97 L 231.97 198.97 L 234.34 198.97 L 236.71 198.97 L 239.08 198.97 L 241.45 198.97 L 243.82 198.97 L 246.18 198.97 L 248.55 197.51 L 250.92 197.43 L 253.29 197.40 L 255.66 197.38 L 258.03 197.38 L 260.40 197.49 L 262.77 197.34 L 265.14 197.33 L 267.51 197.18 L 269.88 197.41 L 272.25 197.41 L 274.62 197.29 L 276.99 197.29 L 279.36 197.22 L 281.73 197.21 L 284.10 197.15 L 286.47 196.94 L 288.84 197.00 L 291.21 197.41 L 293.58 197.41 L 295.95 197.30 L 298.32 197.26 L 300.69 197.19 L 303.06 197.19 L 305.43 197.19 L 307.80 197.19 L 310.17 197.18 L 312.54 197.12 L 314.91 197.09 L 317.28 197.04 L 319.65 197.00 L 322.02 196.96 L 324.39 196.92 L 326.76 196.91 L 329.13 196.86 L 331.50 196.80 L 333.87 196.75 L 336.24 196.69 L 338.61 196.66 L 340.98 196.63 L 343.35 196.56 L 345.72 196.51 L 348.09 196.47 L 350.46 196.45 L 352.83 196.40 L 355.20 196.37 L 357.57 196.34 L 359.94 196.28 L 362.31 196.20 L 364.68 196.12 L 367.05 196.02 L 369.42 195.89 L 371.79 195.77 L 374.16 195.68 L 376.53 195.63 L 378.90 195.58 L 381.27 195.53 L 383.64 195.44 L 386.01 195.35 L 388.38 195.22 L 390.75 195.11 L 393.12 194.95 L 395.49 194.82 L 397.86 194.68 L 400.23 194.57 L 402.60 194.55 L 404.97 194.51 L 407.34 194.48 L 409.71 194.44 L 412.08 194.40 L 414.45 194.37 L 416.82 194.34 L 419.19 194.29 L 421.56 194.25 L 423.93 194.23 L 426.30 194.21 L 428.67 194.19 L 431.04 194.16 L 433.41 194.12 L 435.78 194.07 L 438.15 193.99 L 440.52 193.94 L 442.89 193.87 L 445.26 193.80 L 447.63 193.74 L 450.00 193.72 L 452.37 193.70 L 454.74 193.66 L 457.11 193.62 L 459.48 193.56 L 461.85 193.49 L 464.22 193.43 L 466.59 193.35 L 468.96 193.27 L 471.33 193.20 L 473.70 193.14 L 476.07 193.15 L 478.44 193.15 L 480.81 193.15 L 483.18 193.18 L 485.55 193.09 L 487.92 193.07 L 490.29 193.07 L 492.66 193.08 L 495.03 193.00 L 497.40 192.95 L 499.77 192.95 L 502.14 192.95 L 504.51 192.95 L 506.88 192.80 L 509.25 192.73 L 511.62 192.69 L 513.99 192.67 L 516.36 192.67 L 518.73 192.68 L 521.10 192.64 L 523.47 192.63 L 525.84 192.63 L 528.21 190.39 L 530.58 189.96 L 532.95 189.85 L 535.32 189.53 L 537.69 189.52 L 540.06 189.36 L 542.43 187.79 L 544.80 187.36 L 547.17 181.35 L 549.54 181.35 L 551.91 180.72 L 554.28 180.71 L 556.65 180.26 L 559.02 179.68 L 561.39 179.67 L 563.76 178.77 L 566.13 177.57 L 568.50 175.55 L 570.87 174.52 L 573.24 173.86 L 575.61 174.17 L 577.98 173.10 L 580.35 173.10 L 582.72 171.18 L 585.09 168.37 L 587.46 168.37 L 589.83 165.86 L 592.20 163.63 L 594.57 163.63 L 596.94 163.62 L 599.31 162.88 L 601.68 161.06 L 604.05 193.89 L 606.42 193.22 L 608.79 192.73 L 611.16 192.34 L 613.53 189.45 L 615.90 188.03 L 618.27 188.03 L 620.64 180.86 L 623.01 148.96 L 625.38 144.25 L 627.75 176.00 L 630.12 176.17 L 632.49 175.77 L 634.86 175.72 L 637.23 197.26 L 639.60 197.26 L 641.97 197.06 L 644.34 196.44 L 646.71 194.49 L 649.08 194.50 L 651.45 194.49 L 653.82 194.49 L 656.18 194.49 L 658.55 194.48 L 660.92 194.48 L 663.29 194.62 L 665.66 206.08 L 668.03 206.08 L 670.40 206.05 L 672.77 206.04 L 675.14 205.22 L 677.51 204.28 L 679.88 204.28 L 682.25 204.28 L 684.62 200.22 L 686.99 204.28 L 689.36 204.28 L 691.73 204.28 L 694.10 198.60 L 696.47 198.60 L 698.84 198.60 L 701.21 198.60 L 703.58 193.00 L 705.95 193.00 L 708.32 188.39 L 710.69 188.39 L 713.06 179.75 L 715.43 174.84 L 717.80 173.23 L 720.17 170.37 L 722.54 169.87 L 724.91 153.88 L 727.28 149.24 L 729.65 152.04 L 732.02 141.93 L 734.39 141.88 L 736.76 141.69 L 739.13 141.69 L 741.50 141.76 L 743.87 141.75 L 746.24 140.68 L 748.61 141.38 L 750.98 141.36 L 753.35 141.83 L 755.72 141.39 L 758.09 141.39 L 760.46 141.52 L 762.83 141.52 L 765.20 141.53 L 767.57 142.33 L 769.94 141.73 L 772.31 141.68 L 774.68 141.68 L 777.05 141.66 L 779.42 141.67 L 781.79 141.65 L 784.16 139.51 L 786.53 136.07 L 788.90 136.04 L 791.27 133.43 L 793.64 131.89 L 796.01 131.13 L 798.38 131.51 L 800.75 131.50 L 803.12 131.57 L 805.49 131.56 L 807.86 131.49 L 810.23 131.49 L 812.60 131.49 L 814.97 131.49 L 817.34 131.49 L 819.71 131.49 L 822.08 131.49 L 824.45 131.49 L 826.82 131.49 L 829.19 131.49 L 831.56 131.49 L 833.93 131.49 L 836.30 131.49 L 838.67 131.49 L 841.04 131.49 L 843.41 131.49 L 845.78 131.49 L 848.15 131.49 L 850.52 131.49 L 852.89 131.49 L 855.26 131.49 L 857.63 131.49 L 860.00 131.49" fill="none" stroke="#3fb950" stroke-width="2"/>
    <circle cx="860.00" cy="131.49" r="3" fill="#3fb950"/>
    <text x="40.00" y="235.00" font-size="9" fill="#c9d1d9" text-anchor="middle" transform="rotate(-45 40.00 235.00)">27.09.2025</text><text x="120.58" y="235.00" font-size="9" fill="#c9d1d9" text-anchor="middle" transform="rotate(-45 120.58 235.00)">28.09.2025</text><text x="201.16" y="235.00" font-size="9" fill="#c9d1d9" text-anchor="middle" transform="rotate(-45 201.16 235.00)">28.09.2025</text><text x="281.73" y="235.00" font-size="9" fill="#c9d1d9" text-anchor="middle" transform="rotate(-45 281.73 235.00)">30.09.2025</text><text x="362.31" y="235.00" font-size="9" fill="#c9d1d9" text-anchor="middle" transform="rotate(-45 362.31 235.00)">04.10.2025</text><text x="442.89" y="235.00" font-size="9" fill="#c9d1d9" text-anchor="middle" transform="rotate(-45 442.89 235.00)">04.10.2025</text><text x="523.47" y="235.00" font-size="9" fill="#c9d1d9" text-anchor="middle" transform="rotate(-45 523.47 235.00)">04.10.2025</text><text x="604.05" y="235.00" font-size="9" fill="#c9d1d9" text-anchor="middle" transform="rotate(-45 604.05 235.00)">04.10.2025</text><text x="684.62" y="235.00" font-size="9" fill="#c9d1d9" text-anchor="middle" transform="rotate(-45 684.62 235.00)">07.10.2025</text><text x="765.20" y="235.00" font-size="9" fill="#c9d1d9" text-anchor="middle" transform="rotate(-45 765.20 235.00)">09.10.2025</text><text x="845.78" y="235.00" font-size="9" fill="#c9d1d9" text-anchor="middle" transform="rotate(-45 845.78 235.00)">25.10.2025</text>
  </g>
</svg>