<svg xmlns="http://www.w3.org/2000/svg" width="900" height="290" style="font-family: -apple-system, BlinkMacSystemFont, 'Segoe UI', Helvetica, Arial, sans-serif;">
  <rect width="100%" height="100%" fill="#0d1117"/>
  <g>
    <line x1="40" y1="220.00" x2="860" y2="220.00" stroke="#30363d"/><text x="32" y="224.00" font-size="10" fill="#c9d1d9" text-anchor="end">0</text><line x1="40" y1="175.00" x2="860" y2="175.00" stroke="#30363d"/><text x="32" y="179.00" font-size="10" fill="#c9d1d9" text-anchor="end">25k</text><line x1="40" y1="130.00" x2="860" y2="130.00" stroke="#30363d"/><text x="32" y="134.00" font-size="10" fill="#c9d1d9" text-anchor="end">50k</text><line x1="40" y1="85.00" x2="860" y2="85.00" stroke="#30363d"/><text x="32" y="89.00" font-size="10" fill="#c9d1d9" text-anchor="end">75k</text><line x1="40" y1="40.00" x2="860" y2="40.00" stroke="#30363d"/><text x="32" y="44.00" font-size="10" fill="#c9d1d9" text-anchor="end">100k</text>
    <line x1="40.00" y1="40" x2="40.00" y2="220" stroke="#30363d" opacity="0.5"/><line x1="120.26" y1="40" x2="120.26" y2="220" stroke="#30363d" opacity="0.5"/><line x1="200.53" y1="40" x2="200.53" y2="220" stroke="#30363d" opacity="0.5"/><line x1="280.79" y1="40" x2="280.79" y2="220" stroke="#30363d" opacity="0.5"/><line x1="361.06" y1="40" x2="361.06" y2="220" stroke="#30363d" opacity="0.5"/><line x1="441.32" y1="40" x2="441.32" y2="220" stroke="#30363d" opacity="0.5"/><line x1="521.59" y1="40" x2="521.59" y2="220" stroke="#30363d" opacity="0.5"/><line x1="601.85" y1="40" x2="601.85" y2="220" stroke="#30363d" opacity="0.5"/><line x1="682.12" y1="40" x2="682.12" y2="220" stroke="#30363d" opacity="0.5"/><line x1="762.38" y1="40" x2="762.38" y2="220" stroke="#30363d" opacity="0.5"/><line x1="842.65" y1="40" x2="842.65" y2="220" stroke="#30363d" opacity="0.5"/>
    <line x1="40" y1="220" x2="860" y2="220" stroke="#30363d"/>
    <line x1="40" y1="40"   x2="40"   y2="220" stroke="#30363d"/>
    <path d="M 40.00 220.00 L 42.17 220.00 L 44.34 219.60 L 46.51 219.62 L 48.68 219.63 L 50.85 219.32 L 53.02 219.31 L 55.19 219.26 L 57.35 218.89 L 59.52 218.89 L 61.69 218.89 L 63.86 218.87 L 66.03 218.87 L 68.20 218.86 L 70.37 218.85 L 72.54 218.85 L 74.71 218.82 L 76.88 218.78 L 79.05 218.72 L 81.22 218.68 L 83.39 218.64 L 85.56 218.59 L 87.72 218.59 L 89.89 218.57 L 92.06 218.57 L 94.23 218.57 L 96.40 218.57 L 98.57 218.57 L 100.74 218.57 L 102.91 218.57 L 105.08 218.57 L 107.25 218.57 L 109.42 218.55 L 111.59 218.54 L 113.76 218.58 L 115.93 218.55 L 118.10 218.55 L 120.26 218.53 L 122.43 218.31 L 124.60 217.94 L 126.77 217.88 L 128.94 217.87 L 131.11 217.86 L 133.28 217.85 L 135.45 217.84 L 137.62 217.85 L 139.79 217.82 L 141.96 217.66 L 144.13 217.61 L 146.30 217.60 L 148.47 217.57 L 150.63 217.56 L 152.80 217.52 L 154.97 217.38 L 157.14 217.24 L 159.31 216.93 L 161.48 216.65 L 163.65 216.44 L 165.82 216.39 L 167.99 216.34 L 170.16 216.83 L 172.33 200.94 L 174.50 200.94 L 176.67 200.95 L 178.84 198.99 L 181.01 198.98 L 183.17 198.94 L 185.34 198.94 L 187.51 198.91 L 189.68 198.90 L 191.85 198.93 L 194.02 198.93 L 196.19 198.99 L 198.36 198.95 L 200.53 198.96 L 202.70 198.95 L 204.87 198.95 L 207.04 198.97 L 209.21 198.97 L 211.38 198.97 L 213.54 198.97 L 215.71 198.97 L 217.88 198.97 L 220.05 198.97 L 222.22 198.97 L 224.39 198.97 L 226.56 198.97 L 228.73 198.97 L 230.90 197.51 L 233.07 197.43 L 235.24 197.40 L 237.41 197.38 L 239.58 197.38 L 241.75 197.49 L 243.92 197.34 L 246.08 197.33 L 248.25 197.18 L 250.42 197.41 L 252.59 197.41 L 254.76 197.29 L 256.93 197.29 L 259.10 197.22 L 261.27 197.21 L 263.44 197.15 L 265.61 196.94 L 267.78 197.00 L 269.95 197.41 L 272.12 197.41 L 274.29 197.30 L 276.46 197.26 L 278.62 197.19 L 280.79 197.19 L 282.96 197.19 L 285.13 197.19 L 287.30 197.18 L 289.47 197.12 L 291.64 197.09 L 293.81 197.04 L 295.98 197.00 L 298.15 196.96 L 300.32 196.92 L 302.49 196.91 L 304.66 196.86 L 306.83 196.80 L 308.99 196.75 L 311.16 196.69 L 313.33 196.66 L 315.50 196.63 L 317.67 196.56 L 319.84 196.51 L 322.01 196.47 L 324.18 196.45 L 326.35 196.40 L 328.52 196.37 L 330.69 196.34 L 332.86 196.28 L 335.03 196.20 L 337.20 196.12 L 339.37 196.02 L 341.53 195.89 L 343.70 195.77 L 345.87 195.68 L 348.04 195.63 L 350.21 195.58 L 352.38 195.53 L 354.55 195.44 L 356.72 195.35 L 358.89 195.22 L 361.06 195.11 L 363.23 194.95 L 365.40 194.82 L 367.57 194.68 L 369.74 194.57 L 371.90 194.55 L 374.07 194.51 L 376.24 194.48 L 378.41 194.44 L 380.58 194.40 L 382.75 194.37 L 384.92 194.34 L 387.09 194.29 L 389.26 194.25 L 391.43 194.23 L 393.60 194.21 L 395.77 194.19 L 397.94 194.16 L 400.11 194.12 L 402.28 194.07 L 404.44 193.99 L 406.61 193.94 L 408.78 193.87 L 410.95 193.80 L 413.12 193.74 L 415.29 193.72 L 417.46 193.70 L 419.63 193.66 L 421.80 193.62 L 423.97 193.56 L 426.14 193.49 L 428.31 193.43 L 430.48 193.35 L 432.65 193.27 L 434.81 193.20 L 436.98 193.14 L 439.15 193.15 L 441.32 193.15 L 443.49 193.15 L 445.66 193.18 L 447.83 193.09 L 450.00 193.07 L 452.17 193.07 L 454.34 193.08 L 456.51 193.00 L 458.68 192.95 L 460.85 192.95 L 463.02 192.95 L 465.19 192.95 L 467.35 192.80 L 469.52 192.73 L 471.69 192.69 L 473.86 192.67 L 476.03 192.67 L 478.20 192.68 L 480.37 192.64 L 482.54 192.63 L 484.71 192.63 L 486.88 190.39 L 489.05 189.96 L 491.22 189.85 L 493.39 189.53 L 495.56 189.52 L 497.72 189.36 L 499.89 187.79 L 502.06 187.36 L 504.23 181.35 L 506.40 181.35 L 508.57 180.72 L 510.74 180.71 L 512.91 180.26 L 515.08 179.68 L 517.25 179.67 L 519.42 178.77 L 521.59 177.57 L 523.76 175.55 L 525.93 174.52 L 528.10 173.86 L 530.26 174.17 L 532.43 173.10 L 534.60 173.10 L 536.77 171.18 L 538.94 168.37 L 541.11 168.37 L 543.28 165.86 L 545.45 163.63 L 547.62 163.63 L 549.79 163.62 L 551.96 162.88 L 554.13 161.06 L 556.30 193.89 L 558.47 193.22 L 560.63 192.73 L 562.80 192.34 L 564.97 189.45 L 567.14 188.03 L 569.31 188.03 L 571.48 180.86 L 573.65 148.96 L 575.82 144.25 L 577.99 176.00 L 580.16 176.17 L 582.33 175.77 L 584.50 175.72 L 586.67 197.26 L 588.84 197.26 L 591.01 197.06 L 593.17 196.44 L 595.34 194.49 L 597.51 194.50 L 599.68 194.49 L 601.85 194.49 L 604.02 194.49 L 606.19 194.48 L 608.36 194.48 L 610.53 194.62 L 612.70 206.08 L 614.87 206.08 L 617.04 206.05 L 619.21 206.04 L 621.38 205.22 L 623.54 204.28 L 625.71 204.28 L 627.88 204.28 L 630.05 200.22 L 632.22 204.28 L 634.39 204.28 L 636.56 204.28 L 638.73 198.60 L 640.90 198.60 L 643.07 198.60 L 645.24 198.60 L 647.41 193.00 L 649.58 193.00 L 651.75 188.39 L 653.92 188.39 L 656.08 179.75 L 658.25 174.84 L 660.42 173.23 L 662.59 170.37 L 664.76 169.87 L 666.93 153.88 L 669.10 149.24 L 671.27 152.04 L 673.44 141.93 L 675.61 141.88 L 677.78 141.69 L 679.95 141.69 L 682.12 141.76 L 684.29 141.75 L 686.46 140.68 L 688.62 141.38 L 690.79 141.36 L 692.96 141.83 L 695.13 141.39 L 697.30 141.39 L 699.47 141.52 L 701.64 141.52 L 703.81 141.53 L 705.98 142.33 L 708.15 141.73 L 710.32 141.68 L 712.49 141.68 L 714.66 141.66 L 716.83 141.67 L 718.99 141.65 L 721.16 139.51 L 723.33 136.07 L 725.50 136.04 L 727.67 133.43 L 729.84 131.89 L 732.01 131.13 L 734.18 131.51 L 736.35 131.50 L 738.52 131.57 L 740.69 131.56 L 742.86 131.49 L 745.03 131.49 L 747.20 131.49 L 749.37 131.49 L 751.53 131.49 L 753.70 131.49 L 755.87 131.49 L 758.04 131.49 L 760.21 131.49 L 762.38 131.49 L 764.55 131.49 L 766.72 131.49 L 768.89 131.49 L 771.06 131.49 L 773.23 131.49 L 775.40 131.49 L 777.57 131.49 L 779.74 131.49 L 781.90 131.49 L 784.07 131.49 L 786.24 131.49 L 788.41 131.49 L 790.58 131.49 L 792.75 131.49 L 794.92 131.49 L 797.09 131.49 L 799.26 131.49 L 801.43 131.49 L 803.60 131.49 L 805.77 131.49 L 807.94 131.49 L 810.11 131.49 L 812.28 131.49 L 814.44 131.49 L 816.61 131.49 L 818.78 131.49 L 820.95 131.49 L 823.12 131.49 L 825.29 131.49 L 827.46 131.49 L 829.63 131.49 L 831.80 131.49 L 833.97 131.49 L 836.14 131.49 L 838.31 131.49 L 840.48 131.49 L 842.65 131.49 L 844.81 131.49 L 846.98 131.49 L 849.15 131.49 L 851.32 131.49 L 853.49 131.49 L 855.66 131.49 L 857.83 131.49 L 860.00 131.49" fill="none" stroke="#3fb950" stroke-width="2"/>
    <circle cx="860.00" cy="131.49" r="3" fill="#3fb950"/>
    <text x="40.00" y="235.00" font-size="9" fill="#c9d1d9" text-anchor="middle" transform="rotate(-45 40.00 235.00)">27.09.2025</text><text x="120.26" y="235.00" font-size="9" fill="#c9d1d9" text-anchor="middle" transform="rotate(-45 120.26 235.00)">28.09.2025</text><text x="200.53" y="235.00" font-size="9" fill="#c9d1d9" text-anchor="middle" transform="rotate(-45 200.53 235.00)">28.09.2025</text><text x="280.79" y="235.00" font-size="9" fill="#c9d1d9" text-anchor="middle" transform="rotate(-45 280.79 235.00)">04.10.2025</text><text x="361.06" y="235.00" font-size="9" fill="#c9d1d9" text-anchor="middle" transform="rotate(-45 361.06 235.00)">04.10.2025</text><text x="441.32" y="235.00" font-size="9" fill="#c9d1d9" text-anchor="middle" transform="rotate(-45 441.32 235.00)">04.10.2025</text><text x="521.59" y="235.00" font-size="9" fill="#c9d1d9" text-anchor="middle" transform="rotate(-45 521.59 235.00)">04.10.2025</text><text x="601.85" y="235.00" font-size="9" fill="#c9d1d9" text-anchor="middle" transform="rotate(-45 601.85 235.00)">05.10.2025</text><text x="682.12" y="235.00" font-size="9" fill="#c9d1d9" text-anchor="middle" transform="rotate(-45 682.12 235.00)">08.10.2025</text><text x="762.38" y="235.00" font-size="9" fill="#c9d1d9" text-anchor="middle" transform="rotate(-45 762.38 235.00)">18.10.2025</text><text x="842.65" y="235.00" font-size="9" fill="#c9d1d9" text-anchor="middle" transform="rotate(-45 842.65 235.00)">24.11.2025</text>
  </g>
</svg>