<svg xmlns="http://www.w3.org/2000/svg" width="900" height="290" style="font-family: -apple-system, BlinkMacSystemFont, 'Segoe UI', Helvetica, Arial, sans-serif;">
  <rect width="100%" height="100%" fill="white"/>
  <g>
    <line x1="40" y1="220.00" x2="860" y2="220.00" stroke="#e5e7eb"/><text x="32" y="224.00" font-size="10" fill="#111827" text-anchor="end">0</text><line x1="40" y1="175.00" x2="860" y2="175.00" stroke="#e5e7eb"/><text x="32" y="179.00" font-size="10" fill="#111827" text-anchor="end">25k</text><line x1="40" y1="130.00" x2="860" y2="130.00" stroke="#e5e7eb"/><text x="32" y="134.00" font-size="10" fill="#111827" text-anchor="end">50k</text><line x1="40" y1="85.00" x2="860" y2="85.00" stroke="#e5e7eb"/><text x="32" y="89.00" font-size="10" fill="#111827" text-anchor="end">75k</text><line x1="40" y1="40.00" x2="860" y2="40.00" stroke="#e5e7eb"/><text x="32" y="44.00" font-size="10" fill="#111827" text-anchor="end">100k</text>
    <line x1="40.00" y1="40" x2="40.00" y2="220" stroke="#e5e7eb" opacity="0.5"/><line x1="120.54" y1="40" x2="120.54" y2="220" stroke="#e5e7eb" opacity="0.5"/><line x1="201.07" y1="40" x2="201.07" y2="220" stroke="#e5e7eb" opacity="0.5"/><line x1="281.61" y1="40" x2="281.61" y2="220" stroke="#e5e7eb" opacity="0.5"/><line x1="362.14" y1="40" x2="362.14" y2="220" stroke="#e5e7eb" opacity="0.5"/><line x1="442.68" y1="40" x2="442.68" y2="220" stroke="#e5e7eb" opacity="0.5"/><line x1="523.21" y1="40" x2="523.21" y2="220" stroke="#e5e7eb" opacity="0.5"/><line x1="603.75" y1="40" x2="603.75" y2="220" stroke="#e5e7eb" opacity="0.5"/><line x1="684.29" y1="40" x2="684.29" y2="220" stroke="#e5e7eb" opacity="0.5"/><line x1="764.82" y1="40" x2="764.82" y2="220" stroke="#e5e7eb" opacity="0.5"/><line x1="845.36" y1="40" x2="845.36" y2="220" stroke="#e5e7eb" opacity="0.5"/>
    <line x1="40" y1="220" x2="860" y2="220" stroke="#9ca3af"/>
    <line x1="40" y1="40"   x2="40"   y2="220" stroke="#9ca3af"/>
    <path d="M 40.00 220.00 L 42.44 220.00 L 44.88 219.60 L 47.32 219.62 L 49.76 219.63 L 52.20 219.32 L 54.64 219.31 L 57.08 219.26 L 59.52 218.89 L 61.96 218.89 L 64.40 218.89 L 66.85 218.87 L 69.29 218.87 L 71.73 218.86 L 74.17 218.85 L 76.61 218.85 L 79.05 218.82 L 81.49 218.78 L 83.93 218.72 L 86.37 218.68 L 88.81 218.64 L 91.25 218.59 L 93.69 218.59 L 96.13 218.57 L 98.57 218.57 L 101.01 218.57 L 103.45 218.57 L 105.89 218.57 L 108.33 218.57 L 110.77 218.57 L 113.21 218.57 L 115.65 218.57 L 118.10 218.55 L 120.54 218.54 L 122.98 218.58 L 125.42 218.55 L 127.86 218.55 L 130.30 218.53 L 132.74 218.31 L 135.18 217.94 L 137.62 217.88 L 140.06 217.87 L 142.50 217.86 L 144.94 217.85 L 147.38 217.84 L 149.82 217.85 L 152.26 217.82 L 154.70 217.66 L 157.14 217.61 L 159.58 217.60 L 162.02 217.57 L 164.46 217.56 L 166.90 217.52 L 169.35 217.38 L 171.79 217.24 L 174.23 216.93 L 176.67 216.65 L 179.11 216.44 L 181.55 216.39 L 183.99 216.34 L 186.43 216.83 L 188.87 200.94 L 191.31 200.94 L 193.75 200.95 L 196.19 198.99 L 198.63 198.98 L 201.07 198.94 L 203.51 198.94 L 205.95 198.91 L 208.39 198.90 L 210.83 198.93 L 213.27 198.93 L 215.71 198.99 L 218.15 198.95 L 220.60 198.96 L 223.04 198.95 L 225.48 198.95 L 227.92 198.97 L 230.36 198.97 L 232.80 198.97 L 235.24 198.97 L 237.68 198.97 L 240.12 198.97 L 242.56 198.97 L 245.00 198.97 L 247.44 198.97 L 249.88 198.97 L 252.32 198.97 L 254.76 197.51 L 257.20 197.43 L 259.64 197.40 L 262.08 197.38 L 264.52 197.38 L 266.96 197.49 L 269.40 197.34 L 271.85 197.33 L 274.29 197.18 L 276.73 197.41 L 279.17 197.41 L 281.61 197.29 L 284.05 197.29 L 286.49 197.22 L 288.93 197.21 L 291.37 197.15 L 293.81 196.94 L 296.25 197.00 L 298.69 197.41 L 301.13 197.41 L 303.57 197.30 L 306.01 197.26 L 308.45 197.19 L 310.89 197.19 L 313.33 197.19 L 315.77 197.19 L 318.21 197.18 L 320.65 197.12 L 323.10 197.09 L 325.54 197.04 L 327.98 197.00 L 330.42 196.96 L 332.86 196.92 L 335.30 196.91 L 337.74 196.86 L 340.18 196.80 L 342.62 196.75 L 345.06 196.69 L 347.50 196.66 L 349.94 196.63 L 352.38 196.56 L 354.82 196.51 L 357.26 196.47 L 359.70 196.45 L 362.14 196.40 L 364.58 196.37 L 367.02 196.34 L 369.46 196.28 L 371.90 196.20 L 374.35 196.12 L 376.79 196.02 L 379.23 195.89 L 381.67 195.77 L 384.11 195.68 L 386.55 195.63 L 388.99 195.58 L 391.43 195.53 L 393.87 195.44 L 396.31 195.35 L 398.75 195.22 L 401.19 195.11 L 403.63 194.95 L 406.07 194.82 L 408.51 194.68 L 410.95 194.57 L 413.39 194.55 L 415.83 194.51 L 418.27 194.48 L 420.71 194.44 L 423.15 194.40 L 425.60 194.37 L 428.04 194.34 L 430.48 194.29 L 432.92 194.25 L 435.36 194.23 L 437.80 194.21 L 440.24 194.19 L 442.68 194.16 L 445.12 194.12 L 447.56 194.07 L 450.00 193.99 L 452.44 193.94 L 454.88 193.87 L 457.32 193.80 L 459.76 193.74 L 462.20 193.72 L 464.64 193.70 L 467.08 193.66 L 469.52 193.62 L 471.96 193.56 L 474.40 193.49 L 476.85 193.43 L 479.29 193.35 L 481.73 193.27 L 484.17 193.20 L 486.61 193.14 L 489.05 193.15 L 491.49 193.15 L 493.93 193.15 L 496.37 193.18 L 498.81 193.09 L 501.25 193.07 L 503.69 193.07 L 506.13 193.08 L 508.57 193.00 L 511.01 192.95 L 513.45 192.95 L 515.89 192.95 L 518.33 192.95 L 520.77 192.80 L 523.21 192.73 L 525.65 192.69 L 528.10 192.67 L 530.54 192.67 L 532.98 192.68 L 535.42 192.64 L 537.86 192.63 L 540.30 192.63 L 542.74 190.39 L 545.18 189.96 L 547.62 189.85 L 550.06 189.53 L 552.50 189.52 L 554.94 189.36 L 557.38 187.79 L 559.82 187.36 L 562.26 181.35 L 564.70 181.35 L 567.14 180.72 L 569.58 180.71 L 572.02 180.26 L 574.46 179.68 L 576.90 179.67 L 579.35 178.77 L 581.79 177.57 L 584.23 175.55 L 586.67 174.52 L 589.11 173.86 L 591.55 174.17 L 593.99 173.10 L 596.43 173.10 L 598.87 171.18 L 601.31 168.37 L 603.75 168.37 L 606.19 165.86 L 608.63 163.63 L 611.07 163.63 L 613.51 163.62 L 615.95 162.88 L 618.39 161.06 L 620.83 193.89 L 623.27 193.22 L 625.71 192.73 L 628.15 192.34 L 630.60 189.45 L 633.04 188.03 L 635.48 188.03 L 637.92 180.86 L 640.36 148.96 L 642.80 144.25 L 645.24 176.00 L 647.68 176.17 L 650.12 175.77 L 652.56 175.72 L 655.00 197.26 L 657.44 197.26 L 659.88 197.06 L 662.32 196.44 L 664.76 194.49 L 667.20 194.50 L 669.64 194.49 L 672.08 194.49 L 674.52 194.49 L 676.96 194.48 L 679.40 194.48 L 681.85 194.62 L 684.29 206.08 L 686.73 206.08 L 689.17 206.05 L 691.61 206.04 L 694.05 205.22 L 696.49 204.28 L 698.93 204.28 L 701.37 204.28 L 703.81 200.22 L 706.25 204.28 L 708.69 204.28 L 711.13 204.28 L 713.57 198.60 L 716.01 198.60 L 718.45 198.60 L 720.89 198.60 L 723.33 193.00 L 725.77 193.00 L 728.21 188.39 L 730.65 188.39 L 733.10 179.75 L 735.54 174.84 L 737.98 173.23 L 740.42 170.37 L 742.86 169.87 L 745.30 153.88 L 747.74 149.24 L 750.18 152.04 L 752.62 141.93 L 755.06 141.88 L 757.50 141.69 L 759.94 141.69 L 762.38 141.76 L 764.82 141.75 L 767.26 140.68 L 769.70 141.38 L 772.14 141.36 L 774.58 141.83 L 777.02 141.39 L 779.46 141.39 L 781.90 141.52 L 784.35 141.52 L 786.79 141.53 L 789.23 142.33 L 791.67 141.73 L 794.11 141.68 L 796.55 141.68 L 798.99 141.66 L 801.43 141.67 L 803.87 141.65 L 806.31 139.51 L 808.75 136.07 L 811.19 136.04 L 813.63 133.43 L 816.07 131.89 L 818.51 131.13 L 820.95 131.51 L 823.39 131.50 L 825.83 131.57 L 828.27 131.56 L 830.71 131.49 L 833.15 131.49 L 835.60 131.49 L 838.04 131.49 L 840.48 131.49 L 842.92 131.49 L 845.36 131.49 L 847.80 131.49 L 850.24 131.49 L 852.68 131.49 L 855.12 131.49 L 857.56 131.49 L 860.00 131.49" fill="none" stroke="#111827" stroke-width="2"/>
    <circle cx="860.00" cy="131.49" r="3" fill="#111827"/>
    <text x="40.00" y="235.00" font-size="9" fill="#111827" text-anchor="middle" transform="rotate(-45 40.00 235.00)">27.09.2025</text><text x="120.54" y="235.00" font-size="9" fill="#111827" text-anchor="middle" transform="rotate(-45 120.54 235.00)">28.09.2025</text><text x="201.07" y="235.00" font-size="9" fill="#111827" text-anchor="middle" transform="rotate(-45 201.07 235.00)">28.09.2025</text><text x="281.61" y="235.00" font-size="9" fill="#111827" text-anchor="middle" transform="rotate(-45 281.61 235.00)">30.09.2025</text><text x="362.14" y="235.00" font-size="9" fill="#111827" text-anchor="middle" transform="rotate(-45 362.14 235.00)">04.10.2025</text><text x="442.68" y="235.00" font-size="9" fill="#111827" text-anchor="middle" transform="rotate(-45 442.68 235.00)">04.10.2025</text><text x="523.21" y="235.00" font-size="9" fill="#111827" text-anchor="middle" transform="rotate(-45 523.21 235.00)">04.10.2025</text><text x="603.75" y="235.00" font-size="9" fill="#111827" text-anchor="middle" transform="rotate(-45 603.75 235.00)">04.10.2025</text><text x="684.29" y="235.00" font-size="9" fill="#111827" text-anchor="middle" transform="rotate(-45 684.29 235.00)">05.10.2025</text><text x="764.82" y="235.00" font-size="9" fill="#111827" text-anchor="middle" transform="rotate(-45 764.82 235.00)">08.10.2025</text><text x="845.36" y="235.00" font-size="9" fill="#111827" text-anchor="middle" transform="rotate(-45 845.36 235.00)">15.10.2025</text>
  </g>
</svg>