<svg xmlns="http://www.w3.org/2000/svg" width="900" height="290" style="font-family: -apple-system, BlinkMacSystemFont, 'Segoe UI', Helvetica, Arial, sans-serif;">
  <rect width="100%" height="100%" fill="white"/>
  <g>
    <line x1="40" y1="220.00" x2="860" y2="220.00" stroke="#e5e7eb"/><text x="32" y="224.00" font-size="10" fill="#111827" text-anchor="end">0</text><line x1="40" y1="175.00" x2="860" y2="175.00" stroke="#e5e7eb"/><text x="32" y="179.00" font-size="10" fill="#111827" text-anchor="end">25k</text><line x1="40" y1="130.00" x2="860" y2="130.00" stroke="#e5e7eb"/><text x="32" y="134.00" font-size="10" fill="#111827" text-anchor="end">50k</text><line x1="40" y1="85.00" x2="860" y2="85.00" stroke="#e5e7eb"/><text x="32" y="89.00" font-size="10" fill="#111827" text-anchor="end">75k</text><line x1="40" y1="40.00" x2="860" y2="40.00" stroke="#e5e7eb"/><text x="32" y="44.00" font-size="10" fill="#111827" text-anchor="end">100k</text>
    <line x1="40.00" y1="40" x2="40.00" y2="220" stroke="#e5e7eb" opacity="0.5"/><line x1="121.21" y1="40" x2="121.21" y2="220" stroke="#e5e7eb" opacity="0.5"/><line x1="202.42" y1="40" x2="202.42" y2="220" stroke="#e5e7eb" opacity="0.5"/><line x1="283.62" y1="40" x2="283.62" y2="220" stroke="#e5e7eb" opacity="0.5"/><line x1="364.83" y1="40" x2="364.83" y2="220" stroke="#e5e7eb" opacity="0.5"/><line x1="446.04" y1="40" x2="446.04" y2="220" stroke="#e5e7eb" opacity="0.5"/><line x1="527.25" y1="40" x2="527.25" y2="220" stroke="#e5e7eb" opacity="0.5"/><line x1="608.45" y1="40" x2="608.45" y2="220" stroke="#e5e7eb" opacity="0.5"/><line x1="689.66" y1="40" x2="689.66" y2="220" stroke="#e5e7eb" opacity="0.5"/><line x1="770.87" y1="40" x2="770.87" y2="220" stroke="#e5e7eb" opacity="0.5"/><line x1="852.08" y1="40" x2="852.08" y2="220" stroke="#e5e7eb" opacity="0.5"/>
    <line x1="40" y1="220" x2="860" y2="220" stroke="#9ca3af"/>
    <line x1="40" y1="40"   x2="40"   y2="220" stroke="#9ca3af"/>
    <path d="M 40.00 220.00 L 41.98 220.00 L 43.96 219.60 L 45.94 219.62 L 47.92 219.63 L 49.90 219.32 L 51.88 219.31 L 53.86 219.26 L 55.85 218.89 L 57.83 218.89 L 59.81 218.89 L 61.79 218.87 L 63.77 218.87 L 65.75 218.86 L 67.73 218.85 L 69.71 218.85 L 71.69 218.82 L 73.67 218.78 L 75.65 218.72 L 77.63 218.68 L 79.61 218.64 L 81.59 218.59 L 83.57 218.59 L 85.56 218.57 L 87.54 218.57 L 89.52 218.57 L 91.50 218.57 L 93.48 218.57 L 95.46 218.57 L 97.44 218.57 L 99.42 218.57 L 101.40 218.57 L 103.38 218.55 L 105.36 218.54 L 107.34 218.58 L 109.32 218.55 L 111.30 218.55 L 113.29 218.53 L 115.27 218.31 L 117.25 217.94 L 119.23 217.88 L 121.21 217.87 L 123.19 217.86 L 125.17 217.85 L 127.15 217.84 L 129.13 217.85 L 131.11 217.82 L 133.09 217.66 L 135.07 217.61 L 137.05 217.60 L 139.03 217.57 L 141.01 217.56 L 143.00 217.52 L 144.98 217.38 L 146.96 217.24 L 148.94 216.93 L 150.92 216.65 L 152.90 216.44 L 154.88 216.39 L 156.86 216.34 L 158.84 216.83 L 160.82 200.94 L 162.80 200.94 L 164.78 200.95 L 166.76 198.99 L 168.74 198.98 L 170.72 198.94 L 172.71 198.94 L 174.69 198.91 L 176.67 198.90 L 178.65 198.93 L 180.63 198.93 L 182.61 198.99 L 184.59 198.95 L 186.57 198.96 L 188.55 198.95 L 190.53 198.95 L 192.51 198.97 L 194.49 198.97 L 196.47 198.97 L 198.45 198.97 L 200.43 198.97 L 202.42 198.97 L 204.40 198.97 L 206.38 198.97 L 208.36 198.97 L 210.34 198.97 L 212.32 198.97 L 214.30 197.51 L 216.28 197.43 L 218.26 197.40 L 220.24 197.38 L 222.22 197.38 L 224.20 197.49 L 226.18 197.34 L 228.16 197.33 L 230.14 197.18 L 232.13 197.41 L 234.11 197.41 L 236.09 197.29 L 238.07 197.29 L 240.05 197.22 L 242.03 197.21 L 244.01 197.15 L 245.99 196.94 L 247.97 197.00 L 249.95 197.41 L 251.93 197.41 L 253.91 197.30 L 255.89 197.26 L 257.87 197.19 L 259.86 197.19 L 261.84 197.19 L 263.82 197.19 L 265.80 197.18 L 267.78 197.12 L 269.76 197.09 L 271.74 197.04 L 273.72 197.00 L 275.70 196.96 L 277.68 196.92 L 279.66 196.91 L 281.64 196.86 L 283.62 196.80 L 285.60 196.75 L 287.58 196.69 L 289.57 196.66 L 291.55 196.63 L 293.53 196.56 L 295.51 196.51 L 297.49 196.47 L 299.47 196.45 L 301.45 196.40 L 303.43 196.37 L 305.41 196.34 L 307.39 196.28 L 309.37 196.20 L 311.35 196.12 L 313.33 196.02 L 315.31 195.89 L 317.29 195.77 L 319.28 195.68 L 321.26 195.63 L 323.24 195.58 L 325.22 195.53 L 327.20 195.44 L 329.18 195.35 L 331.16 195.22 L 333.14 195.11 L 335.12 194.95 L 337.10 194.82 L 339.08 194.68 L 341.06 194.57 L 343.04 194.55 L 345.02 194.51 L 347.00 194.48 L 348.99 194.44 L 350.97 194.40 L 352.95 194.37 L 354.93 194.34 L 356.91 194.29 L 358.89 194.25 L 360.87 194.23 L 362.85 194.21 L 364.83 194.19 L 366.81 194.16 L 368.79 194.12 L 370.77 194.07 L 372.75 193.99 L 374.73 193.94 L 376.71 193.87 L 378.70 193.80 L 380.68 193.74 L 382.66 193.72 L 384.64 193.70 L 386.62 193.66 L 388.60 193.62 L 390.58 193.56 L 392.56 193.49 L 394.54 193.43 L 396.52 193.35 L 398.50 193.27 L 400.48 193.20 L 402.46 193.14 L 404.44 193.15 L 406.43 193.15 L 408.41 193.15 L 410.39 193.18 L 412.37 193.09 L 414.35 193.07 L 416.33 193.07 L 418.31 193.08 L 420.29 193.00 L 422.27 192.95 L 424.25 192.95 L 426.23 192.95 L 428.21 192.95 L 430.19 192.80 L 432.17 192.73 L 434.15 192.69 L 436.14 192.67 L 438.12 192.67 L 440.10 192.68 L 442.08 192.64 L 444.06 192.63 L 446.04 192.63 L 448.02 190.39 L 450.00 189.96 L 451.98 189.85 L 453.96 189.53 L 455.94 189.52 L 457.92 189.36 L 459.90 187.79 L 461.88 187.36 L 463.86 181.35 L 465.85 181.35 L 467.83 180.72 L 469.81 180.71 L 471.79 180.26 L 473.77 179.68 L 475.75 179.67 L 477.73 178.77 L 479.71 177.57 L 481.69 175.55 L 483.67 174.52 L 485.65 173.86 L 487.63 174.17 L 489.61 173.10 L 491.59 173.10 L 493.57 171.18 L 495.56 168.37 L 497.54 168.37 L 499.52 165.86 L 501.50 163.63 L 503.48 163.63 L 505.46 163.62 L 507.44 162.88 L 509.42 161.06 L 511.40 193.89 L 513.38 193.22 L 515.36 192.73 L 517.34 192.34 L 519.32 189.45 L 521.30 188.03 L 523.29 188.03 L 525.27 180.86 L 527.25 148.96 L 529.23 144.25 L 531.21 176.00 L 533.19 176.17 L 535.17 175.77 L 537.15 175.72 L 539.13 197.26 L 541.11 197.26 L 543.09 197.06 L 545.07 196.44 L 547.05 194.49 L 549.03 194.50 L 551.01 194.49 L 553.00 194.49 L 554.98 194.49 L 556.96 194.48 L 558.94 194.48 L 560.92 194.62 L 562.90 206.08 L 564.88 206.08 L 566.86 206.05 L 568.84 206.04 L 570.82 205.22 L 572.80 204.28 L 574.78 204.28 L 576.76 204.28 L 578.74 200.22 L 580.72 204.28 L 582.71 204.28 L 584.69 204.28 L 586.67 198.60 L 588.65 198.60 L 590.63 198.60 L 592.61 198.60 L 594.59 193.00 L 596.57 193.00 L 598.55 188.39 L 600.53 188.39 L 602.51 179.75 L 604.49 174.84 L 606.47 173.23 L 608.45 170.37 L 610.43 169.87 L 612.42 153.88 L 614.40 149.24 L 616.38 152.04 L 618.36 141.93 L 620.34 141.88 L 622.32 141.69 L 624.30 141.69 L 626.28 141.76 L 628.26 141.75 L 630.24 140.68 L 632.22 141.38 L 634.20 141.36 L 636.18 141.83 L 638.16 141.39 L 640.14 141.39 L 642.13 141.52 L 644.11 141.52 L 646.09 141.53 L 648.07 142.33 L 650.05 141.73 L 652.03 141.68 L 654.01 141.68 L 655.99 141.66 L 657.97 141.67 L 659.95 141.65 L 661.93 139.51 L 663.91 136.07 L 665.89 136.04 L 667.87 133.43 L 669.86 131.89 L 671.84 131.13 L 673.82 131.51 L 675.80 131.50 L 677.78 131.57 L 679.76 131.56 L 681.74 131.49 L 683.72 131.49 L 685.70 131.49 L 687.68 131.49 L 689.66 131.49 L 691.64 131.49 L 693.62 131.49 L 695.60 131.49 L 697.58 131.49 L 699.57 131.49 L 701.55 131.49 L 703.53 131.49 L 705.51 131.49 L 707.49 131.49 L 709.47 131.49 L 711.45 131.49 L 713.43 131.49 L 715.41 131.49 L 717.39 131.49 L 719.37 131.49 L 721.35 131.49 L 723.33 131.49 L 725.31 131.49 L 727.29 131.49 L 729.28 131.49 L 731.26 131.49 L 733.24 131.49 L 735.22 131.49 L 737.20 131.49 L 739.18 131.49 L 741.16 131.49 L 743.14 131.49 L 745.12 131.49 L 747.10 131.49 L 749.08 131.49 L 751.06 131.49 L 753.04 131.49 L 755.02 131.49 L 757.00 131.49 L 758.99 131.49 L 760.97 131.49 L 762.95 131.49 L 764.93 131.49 L 766.91 131.49 L 768.89 131.49 L 770.87 131.49 L 772.85 131.49 L 774.83 131.49 L 776.81 131.49 L 778.79 131.49 L 780.77 131.49 L 782.75 131.49 L 784.73 131.49 L 786.71 131.49 L 788.70 131.49 L 790.68 131.49 L 792.66 131.49 L 794.64 131.49 L 796.62 131.49 L 798.60 131.49 L 800.58 131.49 L 802.56 131.49 L 804.54 131.49 L 806.52 131.49 L 808.50 131.49 L 810.48 131.49 L 812.46 131.49 L 814.44 131.49 L 816.43 131.49 L 818.41 131.49 L 820.39 131.49 L 822.37 131.49 L 824.35 131.49 L 826.33 131.49 L 828.31 131.49 L 830.29 131.49 L 832.27 131.49 L 834.25 131.49 L 836.23 131.49 L 838.21 131.49 L 840.19 131.49 L 842.17 131.49 L 844.15 131.49 L 846.14 131.49 L 848.12 131.49 L 850.10 131.49 L 852.08 131.49 L 854.06 131.49 L 856.04 131.49 L 858.02 131.49 L 860.00 131.49" fill="none" stroke="#111827" stroke-width="2"/>
    <circle cx="860.00" cy="131.49" r="3" fill="#111827"/>
    <text x="40.00" y="235.00" font-size="9" fill="#111827" text-anchor="middle" transform="rotate(-45 40.00 235.00)">27.09.2025</text><text x="121.21" y="235.00" font-size="9" fill="#111827" text-anchor="middle" transform="rotate(-45 121.21 235.00)">28.09.2025</text><text x="202.42" y="235.00" font-size="9" fill="#111827" text-anchor="middle" transform="rotate(-45 202.42 235.00)">29.09.2025</text><text x="283.62" y="235.00" font-size="9" fill="#111827" text-anchor="middle" transform="rotate(-45 283.62 235.00)">04.10.2025</text><text x="364.83" y="235.00" font-size="9" fill="#111827" text-anchor="middle" transform="rotate(-45 364.83 235.00)">04.10.2025</text><text x="446.04" y="235.00" font-size="9" fill="#111827" text-anchor="middle" transform="rotate(-45 446.04 235.00)">04.10.2025</text><text x="527.25" y="235.00" font-size="9" fill="#111827" text-anchor="middle" transform="rotate(-45 527.25 235.00)">05.10.2025</text><text x="608.45" y="235.00" font-size="9" fill="#111827" text-anchor="middle" transform="rotate(-45 608.45 235.00)">08.10.2025</text><text x="689.66" y="235.00" font-size="9" fill="#111827" text-anchor="middle" transform="rotate(-45 689.66 235.00)">13.10.2025</text><text x="770.87" y="235.00" font-size="9" fill="#111827" text-anchor="middle" transform="rotate(-45 770.87 235.00)">23.11.2025</text><text x="852.08" y="235.00" font-size="9" fill="#111827" text-anchor="middle" transform="rotate(-45 852.08 235.00)">03.01.2026</text>
  </g>
</svg>