<svg xmlns="http://www.w3.org/2000/svg" width="900" height="290" style="font-family: -apple-system, BlinkMacSystemFont, 'Segoe UI', Helvetica, Arial, sans-serif;">
  <rect width="100%" height="100%" fill="white"/>
  <g>
    <line x1="40" y1="220.00" x2="860" y2="220.00" stroke="#e5e7eb"/><text x="32" y="224.00" font-size="10" fill="#111827" text-anchor="end">0</text><line x1="40" y1="175.00" x2="860" y2="175.00" stroke="#e5e7eb"/><text x="32" y="179.00" font-size="10" fill="#111827" text-anchor="end">25k</text><line x1="40" y1="130.00" x2="860" y2="130.00" stroke="#e5e7eb"/><text x="32" y="134.00" font-size="10" fill="#111827" text-anchor="end">50k</text><line x1="40" y1="85.00" x2="860" y2="85.00" stroke="#e5e7eb"/><text x="32" y="89.00" font-size="10" fill="#111827" text-anchor="end">75k</text><line x1="40" y1="40.00" x2="860" y2="40.00" stroke="#e5e7eb"/><text x="32" y="44.00" font-size="10" fill="#111827" text-anchor="end">100k</text>
    <line x1="40.00" y1="40" x2="40.00" y2="220" stroke="#e5e7eb" opacity="0.5"/><line x1="121.12" y1="40" x2="121.12" y2="220" stroke="#e5e7eb" opacity="0.5"/><line x1="202.25" y1="40" x2="202.25" y2="220" stroke="#e5e7eb" opacity="0.5"/><line x1="283.37" y1="40" x2="283.37" y2="220" stroke="#e5e7eb" opacity="0.5"/><line x1="364.49" y1="40" x2="364.49" y2="220" stroke="#e5e7eb" opacity="0.5"/><line x1="445.61" y1="40" x2="445.61" y2="220" stroke="#e5e7eb" opacity="0.5"/><line x1="526.74" y1="40" x2="526.74" y2="220" stroke="#e5e7eb" opacity="0.5"/><line x1="607.86" y1="40" x2="607.86" y2="220" stroke="#e5e7eb" opacity="0.5"/><line x1="688.98" y1="40" x2="688.98" y2="220" stroke="#e5e7eb" opacity="0.5"/><line x1="770.11" y1="40" x2="770.11" y2="220" stroke="#e5e7eb" opacity="0.5"/><line x1="851.23" y1="40" x2="851.23" y2="220" stroke="#e5e7eb" opacity="0.5"/>
    <line x1="40" y1="220" x2="860" y2="220" stroke="#9ca3af"/>
    <line x1="40" y1="40"   x2="40"   y2="220" stroke="#9ca3af"/>
    <path d="M 40.00 220.00 L 42.19 220.00 L 44.39 219.60 L 46.58 219.62 L 48.77 219.63 L 50.96 219.32 L 53.16 219.31 L 55.35 219.26 L 57.54 218.89 L 59.73 218.89 L 61.93 218.89 L 64.12 218.87 L 66.31 218.87 L 68.50 218.86 L 70.70 218.85 L 72.89 218.85 L 75.08 218.82 L 77.27 218.78 L 79.47 218.72 L 81.66 218.68 L 83.85 218.64 L 86.04 218.59 L 88.24 218.59 L 90.43 218.57 L 92.62 218.57 L 94.81 218.57 L 97.01 218.57 L 99.20 218.57 L 101.39 218.57 L 103.58 218.57 L 105.78 218.57 L 107.97 218.57 L 110.16 218.55 L 112.35 218.54 L 114.55 218.58 L 116.74 218.55 L 118.93 218.55 L 121.12 218.53 L 123.32 218.31 L 125.51 217.94 L 127.70 217.88 L 129.89 217.87 L 132.09 217.86 L 134.28 217.85 L 136.47 217.84 L 138.66 217.85 L 140.86 217.82 L 143.05 217.66 L 145.24 217.61 L 147.43 217.60 L 149.63 217.57 L 151.82 217.56 L 154.01 217.52 L 156.20 217.38 L 158.40 217.24 L 160.59 216.93 L 162.78 216.65 L 164.97 216.44 L 167.17 216.39 L 169.36 216.34 L 171.55 216.83 L 173.74 200.94 L 175.94 200.94 L 178.13 200.95 L 180.32 198.99 L 182.51 198.98 L 184.71 198.94 L 186.90 198.94 L 189.09 198.91 L 191.28 198.90 L 193.48 198.93 L 195.67 198.93 L 197.86 198.99 L 200.05 198.95 L 202.25 198.96 L 204.44 198.95 L 206.63 198.95 L 208.82 198.97 L 211.02 198.97 L 213.21 198.97 L 215.40 198.97 L 217.59 198.97 L 219.79 198.97 L 221.98 198.97 L 224.17 198.97 L 226.36 198.97 L 228.56 198.97 L 230.75 198.97 L 232.94 197.51 L 235.13 197.43 L 237.33 197.40 L 239.52 197.38 L 241.71 197.38 L 243.90 197.49 L 246.10 197.34 L 248.29 197.33 L 250.48 197.18 L 252.67 197.41 L 254.87 197.41 L 257.06 197.29 L 259.25 197.29 L 261.44 197.22 L 263.64 197.21 L 265.83 197.15 L 268.02 196.94 L 270.21 197.00 L 272.41 197.41 L 274.60 197.41 L 276.79 197.30 L 278.98 197.26 L 281.18 197.19 L 283.37 197.19 L 285.56 197.19 L 287.75 197.19 L 289.95 197.18 L 292.14 197.12 L 294.33 197.09 L 296.52 197.04 L 298.72 197.00 L 300.91 196.96 L 303.10 196.92 L 305.29 196.91 L 307.49 196.86 L 309.68 196.80 L 311.87 196.75 L 314.06 196.69 L 316.26 196.66 L 318.45 196.63 L 320.64 196.56 L 322.83 196.51 L 325.03 196.47 L 327.22 196.45 L 329.41 196.40 L 331.60 196.37 L 333.80 196.34 L 335.99 196.28 L 338.18 196.20 L 340.37 196.12 L 342.57 196.02 L 344.76 195.89 L 346.95 195.77 L 349.14 195.68 L 351.34 195.63 L 353.53 195.58 L 355.72 195.53 L 357.91 195.44 L 360.11 195.35 L 362.30 195.22 L 364.49 195.11 L 366.68 194.95 L 368.88 194.82 L 371.07 194.68 L 373.26 194.57 L 375.45 194.55 L 377.65 194.51 L 379.84 194.48 L 382.03 194.44 L 384.22 194.40 L 386.42 194.37 L 388.61 194.34 L 390.80 194.29 L 392.99 194.25 L 395.19 194.23 L 397.38 194.21 L 399.57 194.19 L 401.76 194.16 L 403.96 194.12 L 406.15 194.07 L 408.34 193.99 L 410.53 193.94 L 412.73 193.87 L 414.92 193.80 L 417.11 193.74 L 419.30 193.72 L 421.50 193.70 L 423.69 193.66 L 425.88 193.62 L 428.07 193.56 L 430.27 193.49 L 432.46 193.43 L 434.65 193.35 L 436.84 193.27 L 439.04 193.20 L 441.23 193.14 L 443.42 193.15 L 445.61 193.15 L 447.81 193.15 L 450.00 193.18 L 452.19 193.09 L 454.39 193.07 L 456.58 193.07 L 458.77 193.08 L 460.96 193.00 L 463.16 192.95 L 465.35 192.95 L 467.54 192.95 L 469.73 192.95 L 471.93 192.80 L 474.12 192.73 L 476.31 192.69 L 478.50 192.67 L 480.70 192.67 L 482.89 192.68 L 485.08 192.64 L 487.27 192.63 L 489.47 192.63 L 491.66 190.39 L 493.85 189.96 L 496.04 189.85 L 498.24 189.53 L 500.43 189.52 L 502.62 189.36 L 504.81 187.79 L 507.01 187.36 L 509.20 181.35 L 511.39 181.35 L 513.58 180.72 L 515.78 180.71 L 517.97 180.26 L 520.16 179.68 L 522.35 179.67 L 524.55 178.77 L 526.74 177.57 L 528.93 175.55 L 531.12 174.52 L 533.32 173.86 L 535.51 174.17 L 537.70 173.10 L 539.89 173.10 L 542.09 171.18 L 544.28 168.37 L 546.47 168.37 L 548.66 165.86 L 550.86 163.63 L 553.05 163.63 L 555.24 163.62 L 557.43 162.88 L 559.63 161.06 L 561.82 193.89 L 564.01 193.22 L 566.20 192.73 L 568.40 192.34 L 570.59 189.45 L 572.78 188.03 L 574.97 188.03 L 577.17 180.86 L 579.36 148.96 L 581.55 144.25 L 583.74 176.00 L 585.94 176.17 L 588.13 175.77 L 590.32 175.72 L 592.51 197.26 L 594.71 197.26 L 596.90 197.06 L 599.09 196.44 L 601.28 194.49 L 603.48 194.50 L 605.67 194.49 L 607.86 194.49 L 610.05 194.49 L 612.25 194.48 L 614.44 194.48 L 616.63 194.62 L 618.82 206.08 L 621.02 206.08 L 623.21 206.05 L 625.40 206.04 L 627.59 205.22 L 629.79 204.28 L 631.98 204.28 L 634.17 204.28 L 636.36 200.22 L 638.56 204.28 L 640.75 204.28 L 642.94 204.28 L 645.13 198.60 L 647.33 198.60 L 649.52 198.60 L 651.71 198.60 L 653.90 193.00 L 656.10 193.00 L 658.29 188.39 L 660.48 188.39 L 662.67 179.75 L 664.87 174.84 L 667.06 173.23 L 669.25 170.37 L 671.44 169.87 L 673.64 153.88 L 675.83 149.24 L 678.02 152.04 L 680.21 141.93 L 682.41 141.88 L 684.60 141.69 L 686.79 141.69 L 688.98 141.76 L 691.18 141.75 L 693.37 140.68 L 695.56 141.38 L 697.75 141.36 L 699.95 141.83 L 702.14 141.39 L 704.33 141.39 L 706.52 141.52 L 708.72 141.52 L 710.91 141.53 L 713.10 142.33 L 715.29 141.73 L 717.49 141.68 L 719.68 141.68 L 721.87 141.66 L 724.06 141.67 L 726.26 141.65 L 728.45 139.51 L 730.64 136.07 L 732.83 136.04 L 735.03 133.43 L 737.22 131.89 L 739.41 131.13 L 741.60 131.51 L 743.80 131.50 L 745.99 131.57 L 748.18 131.56 L 750.37 131.49 L 752.57 131.49 L 754.76 131.49 L 756.95 131.49 L 759.14 131.49 L 761.34 131.49 L 763.53 131.49 L 765.72 131.49 L 767.91 131.49 L 770.11 131.49 L 772.30 131.49 L 774.49 131.49 L 776.68 131.49 L 778.88 131.49 L 781.07 131.49 L 783.26 131.49 L 785.45 131.49 L 787.65 131.49 L 789.84 131.49 L 792.03 131.49 L 794.22 131.49 L 796.42 131.49 L 798.61 131.49 L 800.80 131.49 L 802.99 131.49 L 805.19 131.49 L 807.38 131.49 L 809.57 131.49 L 811.76 131.49 L 813.96 131.49 L 816.15 131.49 L 818.34 131.49 L 820.53 131.49 L 822.73 131.49 L 824.92 131.49 L 827.11 131.49 L 829.30 131.49 L 831.50 131.49 L 833.69 131.49 L 835.88 131.49 L 838.07 131.49 L 840.27 131.49 L 842.46 131.49 L 844.65 131.49 L 846.84 131.49 L 849.04 131.49 L 851.23 131.49 L 853.42 131.49 L 855.61 131.49 L 857.81 131.49 L 860.00 131.49" fill="none" stroke="#111827" stroke-width="2"/>
    <circle cx="860.00" cy="131.49" r="3" fill="#111827"/>
    <text x="40.00" y="235.00" font-size="9" fill="#111827" text-anchor="middle" transform="rotate(-45 40.00 235.00)">27.09.2025</text><text x="121.12" y="235.00" font-size="9" fill="#111827" text-anchor="middle" transform="rotate(-45 121.12 235.00)">28.09.2025</text><text x="202.25" y="235.00" font-size="9" fill="#111827" text-anchor="middle" transform="rotate(-45 202.25 235.00)">28.09.2025</text><text x="283.37" y="235.00" font-size="9" fill="#111827" text-anchor="middle" transform="rotate(-45 283.37 235.00)">04.10.2025</text><text x="364.49" y="235.00" font-size="9" fill="#111827" text-anchor="middle" transform="rotate(-45 364.49 235.00)">04.10.2025</text><text x="445.61" y="235.00" font-size="9" fill="#111827" text-anchor="middle" transform="rotate(-45 445.61 235.00)">04.10.2025</text><text x="526.74" y="235.00" font-size="9" fill="#111827" text-anchor="middle" transform="rotate(-45 526.74 235.00)">04.10.2025</text><text x="607.86" y="235.00" font-size="9" fill="#111827" text-anchor="middle" transform="rotate(-45 607.86 235.00)">05.10.2025</text><text x="688.98" y="235.00" font-size="9" fill="#111827" text-anchor="middle" transform="rotate(-45 688.98 235.00)">08.10.2025</text><text x="770.11" y="235.00" font-size="9" fill="#111827" text-anchor="middle" transform="rotate(-45 770.11 235.00)">18.10.2025</text><text x="851.23" y="235.00" font-size="9" fill="#111827" text-anchor="middle" transform="rotate(-45 851.23 235.00)">24.11.2025</text>
  </g>
</svg>