<svg xmlns="http://www.w3.org/2000/svg" width="900" height="290" style="font-family: -apple-system, BlinkMacSystemFont, 'Segoe UI', Helvetica, Arial, sans-serif;">
  <rect width="100%" height="100%" fill="#0d1117"/>
  <g>
    <line x1="40" y1="220.00" x2="860" y2="220.00" stroke="#30363d"/><text x="32" y="224.00" font-size="10" fill="#c9d1d9" text-anchor="end">0</text><line x1="40" y1="175.00" x2="860" y2="175.00" stroke="#30363d"/><text x="32" y="179.00" font-size="10" fill="#c9d1d9" text-anchor="end">25k</text><line x1="40" y1="130.00" x2="860" y2="130.00" stroke="#30363d"/><text x="32" y="134.00" font-size="10" fill="#c9d1d9" text-anchor="end">50k</text><line x1="40" y1="85.00" x2="860" y2="85.00" stroke="#30363d"/><text x="32" y="89.00" font-size="10" fill="#c9d1d9" text-anchor="end">75k</text><line x1="40" y1="40.00" x2="860" y2="40.00" stroke="#30363d"/><text x="32" y="44.00" font-size="10" fill="#c9d1d9" text-anchor="end">100k</text>
    <line x1="40.00" y1="40" x2="40.00" y2="220" stroke="#30363d" opacity="0.5"/><line x1="120.74" y1="40" x2="120.74" y2="220" stroke="#30363d" opacity="0.5"/><line x1="201.48" y1="40" x2="201.48" y2="220" stroke="#30363d" opacity="0.5"/><line x1="282.22" y1="40" x2="282.22" y2="220" stroke="#30363d" opacity="0.5"/><line x1="362.95" y1="40" x2="362.95" y2="220" stroke="#30363d" opacity="0.5"/><line x1="443.69" y1="40" x2="443.69" y2="220" stroke="#30363d" opacity="0.5"/><line x1="524.43" y1="40" x2="524.43" y2="220" stroke="#30363d" opacity="0.5"/><line x1="605.17" y1="40" x2="605.17" y2="220" stroke="#30363d" opacity="0.5"/><line x1="685.91" y1="40" x2="685.91" y2="220" stroke="#30363d" opacity="0.5"/><line x1="766.65" y1="40" x2="766.65" y2="220" stroke="#30363d" opacity="0.5"/><line x1="847.38" y1="40" x2="847.38" y2="220" stroke="#30363d" opacity="0.5"/>
    <line x1="40" y1="220" x2="860" y2="220" stroke="#30363d"/>
    <line x1="40" y1="40"   x2="40"   y2="220" stroke="#30363d"/>
    <path d="M 40.00 220.00 L 42.52 220.00 L 45.05 219.60 L 47.57 219.62 L 50.09 219.63 L 52.62 219.32 L 55.14 219.31 L 57.66 219.26 L 60.18 218.89 L 62.71 218.89 L 65.23 218.89 L 67.75 218.87 L 70.28 218.87 L 72.80 218.86 L 75.32 218.85 L 77.85 218.85 L 80.37 218.82 L 82.89 218.78 L 85.42 218.72 L 87.94 218.68 L 90.46 218.64 L 92.98 218.59 L 95.51 218.59 L 98.03 218.57 L 100.55 218.57 L 103.08 218.57 L 105.60 218.57 L 108.12 218.57 L 110.65 218.57 L 113.17 218.57 L 115.69 218.57 L 118.22 218.57 L 120.74 218.55 L 123.26 218.54 L 125.78 218.58 L 128.31 218.55 L 130.83 218.55 L 133.35 218.53 L 135.88 218.31 L 138.40 217.94 L 140.92 217.88 L 143.45 217.87 L 145.97 217.86 L 148.49 217.85 L 151.02 217.84 L 153.54 217.85 L 156.06 217.82 L 158.58 217.66 L 161.11 217.61 L 163.63 217.60 L 166.15 217.57 L 168.68 217.56 L 171.20 217.52 L 173.72 217.38 L 176.25 217.24 L 178.77 216.93 L 181.29 216.65 L 183.82 216.44 L 186.34 216.39 L 188.86 216.34 L 191.38 216.83 L 193.91 200.94 L 196.43 200.94 L 198.95 200.95 L 201.48 198.99 L 204.00 198.98 L 206.52 198.94 L 209.05 198.94 L 211.57 198.91 L 214.09 198.90 L 216.62 198.93 L 219.14 198.93 L 221.66 198.99 L 224.18 198.95 L 226.71 198.96 L 229.23 198.95 L 231.75 198.95 L 234.28 198.97 L 236.80 198.97 L 239.32 198.97 L 241.85 198.97 L 244.37 198.97 L 246.89 198.97 L 249.42 198.97 L 251.94 198.97 L 254.46 198.97 L 256.98 198.97 L 259.51 198.97 L 262.03 197.51 L 264.55 197.43 L 267.08 197.40 L 269.60 197.38 L 272.12 197.38 L 274.65 197.49 L 277.17 197.34 L 279.69 197.33 L 282.22 197.18 L 284.74 197.41 L 287.26 197.41 L 289.78 197.29 L 292.31 197.29 L 294.83 197.22 L 297.35 197.21 L 299.88 197.15 L 302.40 196.94 L 304.92 197.00 L 307.45 197.41 L 309.97 197.41 L 312.49 197.30 L 315.02 197.26 L 317.54 197.19 L 320.06 197.19 L 322.58 197.19 L 325.11 197.19 L 327.63 197.18 L 330.15 197.12 L 332.68 197.09 L 335.20 197.04 L 337.72 197.00 L 340.25 196.96 L 342.77 196.92 L 345.29 196.91 L 347.82 196.86 L 350.34 196.80 L 352.86 196.75 L 355.38 196.69 L 357.91 196.66 L 360.43 196.63 L 362.95 196.56 L 365.48 196.51 L 368.00 196.47 L 370.52 196.45 L 373.05 196.40 L 375.57 196.37 L 378.09 196.34 L 380.62 196.28 L 383.14 196.20 L 385.66 196.12 L 388.18 196.02 L 390.71 195.89 L 393.23 195.77 L 395.75 195.68 L 398.28 195.63 L 400.80 195.58 L 403.32 195.53 L 405.85 195.44 L 408.37 195.35 L 410.89 195.22 L 413.42 195.11 L 415.94 194.95 L 418.46 194.82 L 420.98 194.68 L 423.51 194.57 L 426.03 194.55 L 428.55 194.51 L 431.08 194.48 L 433.60 194.44 L 436.12 194.40 L 438.65 194.37 L 441.17 194.34 L 443.69 194.29 L 446.22 194.25 L 448.74 194.23 L 451.26 194.21 L 453.78 194.19 L 456.31 194.16 L 458.83 194.12 L 461.35 194.07 L 463.88 193.99 L 466.40 193.94 L 468.92 193.87 L 471.45 193.80 L 473.97 193.74 L 476.49 193.72 L 479.02 193.70 L 481.54 193.66 L 484.06 193.62 L 486.58 193.56 L 489.11 193.49 L 491.63 193.43 L 494.15 193.35 L 496.68 193.27 L 499.20 193.20 L 501.72 193.14 L 504.25 193.15 L 506.77 193.15 L 509.29 193.15 L 511.82 193.18 L 514.34 193.09 L 516.86 193.07 L 519.38 193.07 L 521.91 193.08 L 524.43 193.00 L 526.95 192.95 L 529.48 192.95 L 532.00 192.95 L 534.52 192.95 L 537.05 192.80 L 539.57 192.73 L 542.09 192.69 L 544.62 192.67 L 547.14 192.67 L 549.66 192.68 L 552.18 192.64 L 554.71 192.63 L 557.23 192.63 L 559.75 190.39 L 562.28 189.96 L 564.80 189.85 L 567.32 189.53 L 569.85 189.52 L 572.37 189.36 L 574.89 187.79 L 577.42 187.36 L 579.94 181.35 L 582.46 181.35 L 584.98 180.72 L 587.51 180.71 L 590.03 180.26 L 592.55 179.68 L 595.08 179.67 L 597.60 178.77 L 600.12 177.57 L 602.65 175.55 L 605.17 174.52 L 607.69 173.86 L 610.22 174.17 L 612.74 173.10 L 615.26 173.10 L 617.78 171.18 L 620.31 168.37 L 622.83 168.37 L 625.35 165.86 L 627.88 163.63 L 630.40 163.63 L 632.92 163.62 L 635.45 162.88 L 637.97 161.06 L 640.49 193.89 L 643.02 193.22 L 645.54 192.73 L 648.06 192.34 L 650.58 189.45 L 653.11 188.03 L 655.63 188.03 L 658.15 180.86 L 660.68 148.96 L 663.20 144.25 L 665.72 176.00 L 668.25 176.17 L 670.77 175.77 L 673.29 175.72 L 675.82 197.26 L 678.34 197.26 L 680.86 197.06 L 683.38 196.44 L 685.91 194.49 L 688.43 194.50 L 690.95 194.49 L 693.48 194.49 L 696.00 194.49 L 698.52 194.48 L 701.05 194.48 L 703.57 194.62 L 706.09 206.08 L 708.62 206.08 L 711.14 206.05 L 713.66 206.04 L 716.18 205.22 L 718.71 204.28 L 721.23 204.28 L 723.75 204.28 L 726.28 200.22 L 728.80 204.28 L 731.32 204.28 L 733.85 204.28 L 736.37 198.60 L 738.89 198.60 L 741.42 198.60 L 743.94 198.60 L 746.46 193.00 L 748.98 193.00 L 751.51 188.39 L 754.03 188.39 L 756.55 179.75 L 759.08 174.84 L 761.60 173.23 L 764.12 170.37 L 766.65 169.87 L 769.17 153.88 L 771.69 149.24 L 774.22 152.04 L 776.74 141.93 L 779.26 141.88 L 781.78 141.69 L 784.31 141.69 L 786.83 141.76 L 789.35 141.75 L 791.88 140.68 L 794.40 141.38 L 796.92 141.36 L 799.45 141.83 L 801.97 141.39 L 804.49 141.39 L 807.02 141.52 L 809.54 141.52 L 812.06 141.53 L 814.58 142.33 L 817.11 141.73 L 819.63 141.68 L 822.15 141.68 L 824.68 141.66 L 827.20 141.67 L 829.72 141.65 L 832.25 139.51 L 834.77 136.07 L 837.29 136.04 L 839.82 133.43 L 842.34 131.89 L 844.86 131.13 L 847.38 131.51 L 849.91 131.50 L 852.43 131.57 L 854.95 131.56 L 857.48 131.49 L 860.00 131.49" fill="none" stroke="#3fb950" stroke-width="2"/>
    <circle cx="860.00" cy="131.49" r="3" fill="#3fb950"/>
    <text x="40.00" y="235.00" font-size="9" fill="#c9d1d9" text-anchor="middle" transform="rotate(-45 40.00 235.00)">27.09.2025</text><text x="120.74" y="235.00" font-size="9" fill="#c9d1d9" text-anchor="middle" transform="rotate(-45 120.74 235.00)">28.09.2025</text><text x="201.48" y="235.00" font-size="9" fill="#c9d1d9" text-anchor="middle" transform="rotate(-45 201.48 235.00)">28.09.2025</text><text x="282.22" y="235.00" font-size="9" fill="#c9d1d9" text-anchor="middle" transform="rotate(-45 282.22 235.00)">30.09.2025</text><text x="362.95" y="235.00" font-size="9" fill="#c9d1d9" text-anchor="middle" transform="rotate(-45 362.95 235.00)">04.10.2025</text><text x="443.69" y="235.00" font-size="9" fill="#c9d1d9" text-anchor="middle" transform="rotate(-45 443.69 235.00)">04.10.2025</text><text x="524.43" y="235.00" font-size="9" fill="#c9d1d9" text-anchor="middle" transform="rotate(-45 524.43 235.00)">04.10.2025</text><text x="605.17" y="235.00" font-size="9" fill="#c9d1d9" text-anchor="middle" transform="rotate(-45 605.17 235.00)">04.10.2025</text><text x="685.91" y="235.00" font-size="9" fill="#c9d1d9" text-anchor="middle" transform="rotate(-45 685.91 235.00)">05.10.2025</text><text x="766.65" y="235.00" font-size="9" fill="#c9d1d9" text-anchor="middle" transform="rotate(-45 766.65 235.00)">08.10.2025</text><text x="847.38" y="235.00" font-size="9" fill="#c9d1d9" text-anchor="middle" transform="rotate(-45 847.38 235.00)">09.10.2025</text>
  </g>
</svg>